<?xml version="1.0" encoding='UTF-8' standalone='no' ?>
<!DOCTYPE score-partwise PUBLIC "-//Recordare//DTD MusicXML 3.0 Partwise//EN" "http://www.musicxml.org/dtds/partwise.dtd">
<score-partwise version="3.0">
 <work>
  <work-title>When Morning Gilds the Sky</work-title>
 </work>
 <identification>
  <rights>This hymn is in the public domain. You may freely use this score for personal and congregational worship. If you reproduce the score, please credit Hymnary.org as the source. </rights>
  <encoding>
   <encoding-date>2013-05-30</encoding-date>
   <encoder>Brian</encoder>
   <software>Sibelius 7.1.3</software>
   <software>Direct export, not from Dolet</software>
   <encoding-description>Sibelius / MusicXML 3.0</encoding-description>
   <supports element="print" type="yes" value="yes" attribute="new-system" />
   <supports element="print" type="yes" value="yes" attribute="new-page" />
   <supports element="accidental" type="yes" />
   <supports element="beam" type="yes" />
   <supports element="stem" type="yes" />
  </encoding>
 </identification>
 <defaults>
  <scaling>
   <millimeters>215.9</millimeters>
   <tenths>1373</tenths>
  </scaling>
  <page-layout>
   <page-height>1777</page-height>
   <page-width>1373</page-width>
   <page-margins type="both">
    <left-margin>161</left-margin>
    <right-margin>161</right-margin>
    <top-margin>80</top-margin>
    <bottom-margin>80</bottom-margin>
   </page-margins>
  </page-layout>
  <system-layout>
   <system-margins>
    <left-margin>45</left-margin>
    <right-margin>0</right-margin>
   </system-margins>
   <system-distance>92</system-distance>
  </system-layout>
  <appearance>
   <line-width type="stem">0.9375</line-width>
   <line-width type="beam">4.0625</line-width>
   <line-width type="staff">0.9375</line-width>
   <line-width type="light barline">0.9375</line-width>
   <line-width type="heavy barline">3.125</line-width>
   <line-width type="leger">1.5625</line-width>
   <line-width type="ending">1.5625</line-width>
   <line-width type="wedge">1.25</line-width>
   <line-width type="enclosure">0.9375</line-width>
   <line-width type="tuplet bracket">1.25</line-width>
   <line-width type="bracket">5</line-width>
   <line-width type="dashes">1.5625</line-width>
   <line-width type="extend">0.9375</line-width>
   <line-width type="octave shift">1.5625</line-width>
   <line-width type="pedal">1.5625</line-width>
   <line-width type="slur middle">1.5625</line-width>
   <line-width type="slur tip">0.625</line-width>
   <line-width type="tie middle">1.5625</line-width>
   <line-width type="tie tip">0.625</line-width>
   <note-size type="cue">92</note-size>
   <note-size type="grace">60</note-size>
  </appearance>
  <music-font font-family="Opus Std" font-size="17.8186" />
  <lyric-font font-family="Times New Roman" font-size="10.3014" />
  <lyric-language xml:lang="en" />
 </defaults>
 <credit page="1">
  <credit-words default-x="686" default-y="98" font-family="Times New Roman" font-style="normal" font-size="19.7675" font-weight="bold" justify="center" valign="middle">When Morning Gilds the Sky</credit-words>
 </credit>
 <credit page="1">
  <credit-words default-x="686" default-y="90" font-family="Times New Roman" font-style="normal" font-size="9.0485" font-weight="normal" justify="center" valign="middle">This hymn is in the public domain. You may freely use this score for personal and congregational worship. If you reproduce the score, please credit Hymnary.org as the source. </credit-words>
 </credit>
 <credit page="1">
  <credit-words default-x="161" default-y="172" font-family="Times New Roman" font-style="normal" font-size="10.023" font-weight="normal" justify="left" valign="middle">Text: German, c. 1800; tr. Edward Caswall,
	   1858, alt.
Tune: Joseph Barnby, 1868</credit-words>
 </credit>
 <credit page="1">
  <credit-words default-x="1212" default-y="172" font-family="Times New Roman" font-style="normal" font-size="10.023" font-weight="normal" justify="right" valign="middle">666 D
LAUDES DOMINI
www.hymnary.org/text/when_morning_gilds_the_skies</credit-words>
 </credit>
 <part-list>
  <score-part id="P1">
   <part-name>SOPRANO ALTO</part-name>
   <part-name-display>
    <display-text>SOPRANO</display-text>
    <display-text>ALTO</display-text>
   </part-name-display>
   <part-abbreviation>S. A.</part-abbreviation>
   <part-abbreviation-display>
    <display-text>S.</display-text>
    <display-text>A.</display-text>
   </part-abbreviation-display>
   <score-instrument id="P1-I1">
    <instrument-name>Soprano</instrument-name>
    <virtual-instrument>
     <virtual-library>General MIDI</virtual-library>
     <virtual-name>Soprano Ensemble</virtual-name>
    </virtual-instrument>
   </score-instrument>
  </score-part>
  <score-part id="P2">
   <part-name>TENOR BASS</part-name>
   <part-name-display>
    <display-text>TENOR</display-text>
    <display-text>BASS</display-text>
   </part-name-display>
   <part-abbreviation>T. B.</part-abbreviation>
   <part-abbreviation-display>
    <display-text>T.</display-text>
    <display-text>B.</display-text>
   </part-abbreviation-display>
   <score-instrument id="P2-I1">
    <instrument-name>Bass (2)</instrument-name>
    <virtual-instrument>
     <virtual-library>General MIDI</virtual-library>
     <virtual-name>Bass Ensemble</virtual-name>
    </virtual-instrument>
   </score-instrument>
  </score-part>
 </part-list>
 <part id="P1">
  <!--============== Part: P1, Measure: 0 ==============-->
  <measure number="0" width="160">
   <print new-page="yes">
    <system-layout>
     <system-margins>
      <left-margin>1</left-margin>
      <right-margin>0</right-margin>
     </system-margins>
     <top-system-distance>141</top-system-distance>
    </system-layout>
   </print>
   <attributes>
    <divisions>256</divisions>
    <key color="#000000">
     <fifths>-2</fifths>
     <mode>major</mode>
    </key>
    <time color="#000000">
     <beats>4</beats>
     <beat-type>4</beat-type>
    </time>
    <staves>1</staves>
    <clef number="1" color="#000000">
     <sign>G</sign>
     <line>2</line>
    </clef>
    <staff-details number="1" print-object="yes" />
   </attributes>
   <direction>
    <direction-type>
     <other-direction default-y="20" print-object="no">Start bracket</other-direction>
    </direction-type>
    <voice>1</voice>
    <staff>1</staff>
   </direction>
   <direction>
    <direction-type>
     <words default-x="55" default-y="-90" justify="center" valign="middle" font-family="Times New Roman" font-style="normal" font-size="10.3014" font-weight="normal">1</words>
    </direction-type>
    <voice>1</voice>
    <staff>1</staff>
   </direction>
   <direction>
    <direction-type>
     <words default-x="55" default-y="-115" justify="center" valign="middle" font-family="Times New Roman" font-style="normal" font-size="10.3014" font-weight="normal">2</words>
    </direction-type>
    <voice>1</voice>
    <staff>1</staff>
   </direction>
   <direction>
    <direction-type>
     <words default-x="55" default-y="-140" justify="center" valign="middle" font-family="Times New Roman" font-style="normal" font-size="10.3014" font-weight="normal">3</words>
    </direction-type>
    <voice>1</voice>
    <staff>1</staff>
   </direction>
   <direction>
    <direction-type>
     <words default-x="55" default-y="-165" justify="center" valign="middle" font-family="Times New Roman" font-style="normal" font-size="10.3014" font-weight="normal">4</words>
    </direction-type>
    <voice>1</voice>
    <staff>1</staff>
   </direction>
   <direction>
    <direction-type>
     <words default-x="55" default-y="-190" justify="center" valign="middle" font-family="Times New Roman" font-style="normal" font-size="10.3014" font-weight="normal">5</words>
    </direction-type>
    <voice>1</voice>
    <staff>1</staff>
   </direction>
   <note color="#000000" default-x="99" default-y="-10">
    <pitch>
     <step>D</step>
     <octave>4</octave>
    </pitch>
    <duration>256</duration>
    <instrument id="P1-I1" />
    <voice>1</voice>
    <type>quarter</type>
    <stem>up</stem>
    <staff>1</staff>
    <lyric default-y="-90" number="part1verse1" color="#000000">
     <syllabic>single</syllabic>
     <text>When</text>
    </lyric>
    <lyric default-y="-115" number="part1verse2" color="#000000">
     <syllabic>single</syllabic>
     <text>To</text>
    </lyric>
    <lyric default-y="-140" number="part1verse3" color="#000000">
     <syllabic>single</syllabic>
     <text>Let</text>
    </lyric>
    <lyric default-y="-165" number="part1verse4" color="#000000">
     <syllabic>single</syllabic>
     <text>Be</text>
    </lyric>
    <lyric default-y="-190" number="part1verse5" color="#000000">
     <syllabic>single</syllabic>
     <text>Then</text>
    </lyric>
   </note>
   <backup>
    <duration>256</duration>
   </backup>
   <note color="#000000" default-x="99" default-y="-20">
    <pitch>
     <step>B</step>
     <alter>-1</alter>
     <octave>3</octave>
    </pitch>
    <duration>256</duration>
    <instrument id="P1-I1" />
    <voice>2</voice>
    <type>quarter</type>
    <stem>up</stem>
    <staff>1</staff>
   </note>
  </measure>
  <!--============== Part: P1, Measure: 0 ==============-->
  <measure number="0" width="285">
   <note color="#000000" default-x="15" default-y="-5">
    <pitch>
     <step>E</step>
     <alter>-1</alter>
     <octave>4</octave>
    </pitch>
    <duration>256</duration>
    <instrument id="P1-I1" />
    <voice>1</voice>
    <type>quarter</type>
    <stem>up</stem>
    <staff>1</staff>
    <lyric default-y="-90" number="part1verse1" color="#000000">
     <syllabic>begin</syllabic>
     <text>morn</text>
    </lyric>
    <lyric default-y="-115" number="part1verse2" color="#000000">
     <syllabic>single</syllabic>
     <text>God,</text>
    </lyric>
    <lyric default-y="-140" number="part1verse3" color="#000000">
     <syllabic>single</syllabic>
     <text>earth&apos;s</text>
    </lyric>
    <lyric default-y="-165" number="part1verse4" color="#000000">
     <syllabic>single</syllabic>
     <text>this,</text>
    </lyric>
    <lyric default-y="-190" number="part1verse5" color="#000000">
     <syllabic>single</syllabic>
     <text>let</text>
    </lyric>
   </note>
   <note color="#000000" default-x="81">
    <pitch>
     <step>F</step>
     <octave>4</octave>
    </pitch>
    <duration>256</duration>
    <instrument id="P1-I1" />
    <voice>1</voice>
    <type>quarter</type>
    <stem>up</stem>
    <staff>1</staff>
    <lyric default-y="-90" number="part1verse1" color="#000000">
     <syllabic>end</syllabic>
     <text>ing</text>
    </lyric>
    <lyric default-y="-115" number="part1verse2" color="#000000">
     <syllabic>single</syllabic>
     <text>the</text>
    </lyric>
    <lyric default-y="-140" number="part1verse3" color="#000000">
     <syllabic>single</syllabic>
     <text>wide</text>
    </lyric>
    <lyric default-y="-165" number="part1verse4" color="#000000">
     <syllabic>single</syllabic>
     <text>when</text>
    </lyric>
    <lyric default-y="-190" number="part1verse5" color="#000000">
     <syllabic>single</syllabic>
     <text>us</text>
    </lyric>
   </note>
   <note color="#000000" default-x="152" default-y="5">
    <pitch>
     <step>G</step>
     <octave>4</octave>
    </pitch>
    <duration>256</duration>
    <instrument id="P1-I1" />
    <voice>1</voice>
    <type>quarter</type>
    <stem>up</stem>
    <staff>1</staff>
    <lyric default-y="-90" number="part1verse1" color="#000000">
     <syllabic>single</syllabic>
     <text>gilds</text>
    </lyric>
    <lyric default-y="-115" number="part1verse2" color="#000000">
     <syllabic>single</syllabic>
     <text>Word</text>
    </lyric>
    <lyric default-y="-140" number="part1verse3" color="#000000">
     <syllabic>begin</syllabic>
     <text>cir</text>
    </lyric>
    <lyric default-y="-165" number="part1verse4" color="#000000">
     <syllabic>single</syllabic>
     <text>day</text>
    </lyric>
    <lyric default-y="-190" number="part1verse5" color="#000000">
     <syllabic>single</syllabic>
     <text>join</text>
    </lyric>
   </note>
   <note color="#000000" default-x="223" default-y="15">
    <pitch>
     <step>B</step>
     <alter>-1</alter>
     <octave>4</octave>
    </pitch>
    <duration>256</duration>
    <instrument id="P1-I1" />
    <voice>1</voice>
    <type>quarter</type>
    <stem>up</stem>
    <staff>1</staff>
    <lyric default-y="-90" number="part1verse1" color="#000000">
     <syllabic>single</syllabic>
     <text>the</text>
    </lyric>
    <lyric default-y="-115" number="part1verse2" color="#000000">
     <syllabic>single</syllabic>
     <text>on</text>
    </lyric>
    <lyric default-y="-140" number="part1verse3" color="#000000">
     <syllabic>end</syllabic>
     <text>cle</text>
    </lyric>
    <lyric default-y="-165" number="part1verse4" color="#000000">
     <syllabic>single</syllabic>
     <text>is</text>
    </lyric>
    <lyric default-y="-190" number="part1verse5" color="#000000">
     <syllabic>single</syllabic>
     <text>to</text>
    </lyric>
   </note>
   <backup>
    <duration>1024</duration>
   </backup>
   <note color="#000000" default-x="15" default-y="-20">
    <pitch>
     <step>B</step>
     <alter>-1</alter>
     <octave>3</octave>
    </pitch>
    <duration>256</duration>
    <instrument id="P1-I1" />
    <voice>2</voice>
    <type>quarter</type>
    <stem>up</stem>
    <staff>1</staff>
   </note>
   <note color="#000000" default-x="81" default-y="-20">
    <pitch>
     <step>B</step>
     <alter>-1</alter>
     <octave>3</octave>
    </pitch>
    <duration>256</duration>
    <instrument id="P1-I1" />
    <voice>2</voice>
    <type>quarter</type>
    <stem>up</stem>
    <staff>1</staff>
   </note>
   <note color="#000000" default-x="152" default-y="-20">
    <pitch>
     <step>B</step>
     <alter>-1</alter>
     <octave>3</octave>
    </pitch>
    <duration>256</duration>
    <instrument id="P1-I1" />
    <voice>2</voice>
    <type>quarter</type>
    <stem>up</stem>
    <staff>1</staff>
   </note>
   <note color="#000000" default-x="223" default-y="-5">
    <pitch>
     <step>E</step>
     <alter>-1</alter>
     <octave>4</octave>
    </pitch>
    <duration>256</duration>
    <instrument id="P1-I1" />
    <voice>2</voice>
    <type>quarter</type>
    <stem>up</stem>
    <staff>1</staff>
   </note>
  </measure>
  <!--============== Part: P1, Measure: 1 ==============-->
  <measure number="1" width="205">
   <note color="#000000" default-x="15" default-y="10">
    <pitch>
     <step>A</step>
     <octave>4</octave>
    </pitch>
    <duration>512</duration>
    <instrument id="P1-I1" />
    <voice>1</voice>
    <type>half</type>
    <stem>up</stem>
    <staff>1</staff>
    <notations>
     <slur color="#000000" type="start" orientation="over" />
    </notations>
    <lyric default-y="-90" number="part1verse1" color="#000000">
     <syllabic>single</syllabic>
     <text>sky,</text>
    </lyric>
    <lyric default-y="-115" number="part1verse2" color="#000000">
     <syllabic>single</syllabic>
     <text>high,</text>
    </lyric>
    <lyric default-y="-140" number="part1verse3" color="#000000">
     <syllabic>single</syllabic>
     <text>round</text>
    </lyric>
    <lyric default-y="-165" number="part1verse4" color="#000000">
     <syllabic>single</syllabic>
     <text>past,</text>
    </lyric>
    <lyric default-y="-190" number="part1verse5" color="#000000">
     <syllabic>single</syllabic>
     <text>sing</text>
    </lyric>
   </note>
   <note color="#000000" default-x="69" default-y="5">
    <pitch>
     <step>G</step>
     <octave>4</octave>
    </pitch>
    <duration>256</duration>
    <instrument id="P1-I1" />
    <voice>1</voice>
    <type>quarter</type>
    <stem>up</stem>
    <staff>1</staff>
    <notations>
     <slur color="#000000" type="stop" orientation="over" />
    </notations>
   </note>
   <note color="#000000" default-x="130">
    <pitch>
     <step>F</step>
     <octave>4</octave>
    </pitch>
    <duration>256</duration>
    <instrument id="P1-I1" />
    <voice>1</voice>
    <type>quarter</type>
    <stem>up</stem>
    <staff>1</staff>
    <lyric default-y="-90" number="part1verse1" color="#000000">
     <syllabic>single</syllabic>
     <text>our</text>
    </lyric>
    <lyric default-y="-115" number="part1verse2" color="#000000">
     <syllabic>single</syllabic>
     <text>the</text>
    </lyric>
    <lyric default-y="-140" number="part1verse3" color="#000000">
     <syllabic>single</syllabic>
     <text>in</text>
    </lyric>
    <lyric default-y="-165" number="part1verse4" color="#000000">
     <syllabic>single</syllabic>
     <text>of</text>
    </lyric>
    <lyric default-y="-190" number="part1verse5" color="#000000">
     <syllabic>single</syllabic>
     <text>to</text>
    </lyric>
   </note>
   <backup>
    <duration>1024</duration>
   </backup>
   <note color="#000000" default-x="15" default-y="-67">
    <pitch>
     <step>E</step>
     <alter>-1</alter>
     <octave>4</octave>
    </pitch>
    <duration>768</duration>
    <instrument id="P1-I1" />
    <voice>2</voice>
    <type>half</type>
    <dot />
    <stem>down</stem>
    <staff>1</staff>
   </note>
   <note color="#000000" default-x="130" default-y="-67">
    <pitch>
     <step>E</step>
     <alter>-1</alter>
     <octave>4</octave>
    </pitch>
    <duration>256</duration>
    <instrument id="P1-I1" />
    <voice>2</voice>
    <type>quarter</type>
    <stem>down</stem>
    <staff>1</staff>
   </note>
  </measure>
  <!--============== Part: P1, Measure: 2 ==============-->
  <measure number="2" width="260">
   <note color="#000000" default-x="15" default-y="5">
    <pitch>
     <step>G</step>
     <octave>4</octave>
    </pitch>
    <duration>256</duration>
    <instrument id="P1-I1" />
    <voice>1</voice>
    <type>quarter</type>
    <stem>up</stem>
    <staff>1</staff>
    <lyric default-y="-90" number="part1verse1" color="#000000">
     <syllabic>single</syllabic>
     <text>hearts</text>
    </lyric>
    <lyric default-y="-115" number="part1verse2" color="#000000">
     <syllabic>single</syllabic>
     <text>hosts</text>
    </lyric>
    <lyric default-y="-140" number="part1verse3" color="#000000">
     <syllabic>begin</syllabic>
     <text>joy</text>
    </lyric>
    <lyric default-y="-165" number="part1verse4" color="#000000">
     <syllabic>single</syllabic>
     <text>all</text>
    </lyric>
    <lyric default-y="-190" number="part1verse5" color="#000000">
     <syllabic>single</syllabic>
     <text>Christ,</text>
    </lyric>
   </note>
   <note color="#000000" default-x="76" default-y="10">
    <pitch>
     <step>A</step>
     <octave>4</octave>
    </pitch>
    <duration>256</duration>
    <instrument id="P1-I1" />
    <voice>1</voice>
    <type>quarter</type>
    <stem>up</stem>
    <staff>1</staff>
    <lyric default-y="-90" number="part1verse1" color="#000000">
     <syllabic>begin</syllabic>
     <text>a</text>
    </lyric>
    <lyric default-y="-115" number="part1verse2" color="#000000">
     <syllabic>single</syllabic>
     <text>of</text>
    </lyric>
    <lyric default-y="-140" number="part1verse3" color="#000000">
     <syllabic>end</syllabic>
     <text>ful</text>
    </lyric>
    <lyric default-y="-165" number="part1verse4" color="#000000">
     <syllabic>single</syllabic>
     <text>our</text>
    </lyric>
    <lyric default-y="-190" number="part1verse5" color="#000000">
     <syllabic>single</syllabic>
     <text>our</text>
    </lyric>
   </note>
   <note color="#000000" default-x="137" default-y="15">
    <pitch>
     <step>B</step>
     <alter>-1</alter>
     <octave>4</octave>
    </pitch>
    <duration>256</duration>
    <instrument id="P1-I1" />
    <voice>1</voice>
    <type>quarter</type>
    <stem>up</stem>
    <staff>1</staff>
    <lyric default-y="-90" number="part1verse1" color="#000000">
     <syllabic>middle</syllabic>
     <text>wak</text>
    </lyric>
    <lyric default-y="-115" number="part1verse2" color="#000000">
     <syllabic>begin</syllabic>
     <text>an</text>
    </lyric>
    <lyric default-y="-140" number="part1verse3" color="#000000">
     <syllabic>single</syllabic>
     <text>notes</text>
    </lyric>
    <lyric default-y="-165" number="part1verse4" color="#000000">
     <syllabic>single</syllabic>
     <text>thoughts</text>
    </lyric>
    <lyric default-y="-190" number="part1verse5" color="#000000">
     <syllabic>begin</syllabic>
     <text>lov</text>
    </lyric>
   </note>
   <note color="#000000" default-x="199" default-y="20">
    <pitch>
     <step>D</step>
     <octave>5</octave>
    </pitch>
    <duration>256</duration>
    <instrument id="P1-I1" />
    <voice>1</voice>
    <type>quarter</type>
    <stem>up</stem>
    <staff>1</staff>
    <lyric default-y="-90" number="part1verse1" color="#000000">
     <syllabic>end</syllabic>
     <text>ing</text>
    </lyric>
    <lyric default-y="-115" number="part1verse2" color="#000000">
     <syllabic>end</syllabic>
     <text>gels</text>
    </lyric>
    <lyric default-y="-140" number="part1verse3" color="#000000">
     <syllabic>begin</syllabic>
     <text>re</text>
    </lyric>
    <lyric default-y="-165" number="part1verse4" color="#000000">
     <syllabic>single</syllabic>
     <text>the</text>
    </lyric>
    <lyric default-y="-190" number="part1verse5" color="#000000">
     <syllabic>end</syllabic>
     <text>ing</text>
    </lyric>
   </note>
   <backup>
    <duration>1024</duration>
   </backup>
   <note color="#000000" default-x="15" default-y="-10">
    <pitch>
     <step>D</step>
     <octave>4</octave>
    </pitch>
    <duration>256</duration>
    <instrument id="P1-I1" />
    <voice>2</voice>
    <type>quarter</type>
    <stem>up</stem>
    <staff>1</staff>
   </note>
   <note color="#000000" default-x="76">
    <pitch>
     <step>F</step>
     <octave>4</octave>
    </pitch>
    <duration>256</duration>
    <instrument id="P1-I1" />
    <voice>2</voice>
    <type>quarter</type>
    <stem>up</stem>
    <staff>1</staff>
   </note>
   <note color="#000000" default-x="137">
    <pitch>
     <step>F</step>
     <octave>4</octave>
    </pitch>
    <duration>256</duration>
    <instrument id="P1-I1" />
    <voice>2</voice>
    <type>quarter</type>
    <stem>up</stem>
    <staff>1</staff>
   </note>
   <note color="#000000" default-x="199">
    <pitch>
     <step>F</step>
     <octave>4</octave>
    </pitch>
    <duration>256</duration>
    <instrument id="P1-I1" />
    <voice>2</voice>
    <type>quarter</type>
    <stem>up</stem>
    <staff>1</staff>
   </note>
  </measure>
  <!--============== Part: P1, Measure: 3 ==============-->
  <measure number="3" width="138">
   <note color="#000000" default-x="15" default-y="17">
    <pitch>
     <step>C</step>
     <octave>5</octave>
    </pitch>
    <duration>768</duration>
    <instrument id="P1-I1" />
    <voice>1</voice>
    <type>half</type>
    <dot />
    <stem>up</stem>
    <staff>1</staff>
    <lyric default-y="-90" number="part1verse1" color="#000000">
     <syllabic>single</syllabic>
     <text>cry:</text>
    </lyric>
    <lyric default-y="-115" number="part1verse2" color="#000000">
     <syllabic>single</syllabic>
     <text>cry:</text>
    </lyric>
    <lyric default-y="-140" number="part1verse3" color="#000000">
     <syllabic>end</syllabic>
     <text>sound:</text>
    </lyric>
    <lyric default-y="-165" number="part1verse4" color="#000000">
     <syllabic>single</syllabic>
     <text>last:</text>
    </lyric>
    <lyric default-y="-190" number="part1verse5" color="#000000">
     <syllabic>single</syllabic>
     <text>King:</text>
    </lyric>
   </note>
   <barline>
    <bar-style>none</bar-style>
   </barline>
   <backup>
    <duration>768</duration>
   </backup>
   <note color="#000000" default-x="15" default-y="-67">
    <pitch>
     <step>E</step>
     <octave>4</octave>
    </pitch>
    <duration>512</duration>
    <instrument id="P1-I1" />
    <voice>2</voice>
    <type>half</type>
    <accidental>natural</accidental>
    <stem>down</stem>
    <staff>1</staff>
    <notations>
     <slur color="#000000" type="start" orientation="under" />
    </notations>
   </note>
   <note color="#000000" default-x="72">
    <pitch>
     <step>F</step>
     <octave>4</octave>
    </pitch>
    <duration>256</duration>
    <instrument id="P1-I1" />
    <voice>2</voice>
    <type>quarter</type>
    <stem>up</stem>
    <staff>1</staff>
    <notations>
     <slur color="#000000" type="stop" orientation="under" />
    </notations>
   </note>
  </measure>
  <!--============== Part: P1, Measure: 4 ==============-->
  <measure number="4" width="144">
   <print new-system="yes">
    <system-layout>
     <system-margins>
      <left-margin>1</left-margin>
      <right-margin>0</right-margin>
     </system-margins>
     <system-distance>124</system-distance>
    </system-layout>
   </print>
   <attributes>
    <staff-details number="1" print-object="yes" />
   </attributes>
   <note color="#000000" default-x="80" default-y="15">
    <pitch>
     <step>B</step>
     <alter>-1</alter>
     <octave>4</octave>
    </pitch>
    <duration>256</duration>
    <instrument id="P1-I1" />
    <voice>1</voice>
    <type>quarter</type>
    <stem>up</stem>
    <staff>1</staff>
    <lyric default-y="-90" number="part1verse1" color="#000000">
     <syllabic>single</syllabic>
     <text>May</text>
    </lyric>
    <lyric default-y="-115" number="part1verse2" color="#000000">
     <syllabic>single</syllabic>
     <text>May</text>
    </lyric>
    <lyric default-y="-140" number="part1verse3" color="#000000">
     <syllabic>single</syllabic>
     <text>May</text>
    </lyric>
    <lyric default-y="-165" number="part1verse4" color="#000000">
     <syllabic>single</syllabic>
     <text>May</text>
    </lyric>
    <lyric default-y="-190" number="part1verse5" color="#000000">
     <syllabic>single</syllabic>
     <text>May</text>
    </lyric>
   </note>
   <backup>
    <duration>256</duration>
   </backup>
   <note color="#000000" default-x="80" default-y="5">
    <pitch>
     <step>G</step>
     <octave>4</octave>
    </pitch>
    <duration>256</duration>
    <instrument id="P1-I1" />
    <voice>2</voice>
    <type>quarter</type>
    <stem>up</stem>
    <staff>1</staff>
   </note>
  </measure>
  <!--============== Part: P1, Measure: 5 ==============-->
  <measure number="5" width="288">
   <note color="#000000" default-x="15" default-y="10">
    <pitch>
     <step>A</step>
     <octave>4</octave>
    </pitch>
    <duration>256</duration>
    <instrument id="P1-I1" />
    <voice>1</voice>
    <type>quarter</type>
    <stem>up</stem>
    <staff>1</staff>
    <lyric default-y="-90" number="part1verse1" color="#000000">
     <syllabic>begin</syllabic>
     <text>Je</text>
    </lyric>
    <lyric default-y="-115" number="part1verse2" color="#000000">
     <syllabic>begin</syllabic>
     <text>Je</text>
    </lyric>
    <lyric default-y="-140" number="part1verse3" color="#000000">
     <syllabic>begin</syllabic>
     <text>Je</text>
    </lyric>
    <lyric default-y="-165" number="part1verse4" color="#000000">
     <syllabic>begin</syllabic>
     <text>Je</text>
    </lyric>
    <lyric default-y="-190" number="part1verse5" color="#000000">
     <syllabic>begin</syllabic>
     <text>Je</text>
    </lyric>
   </note>
   <note color="#000000" default-x="79" default-y="15">
    <pitch>
     <step>B</step>
     <alter>-1</alter>
     <octave>4</octave>
    </pitch>
    <duration>256</duration>
    <instrument id="P1-I1" />
    <voice>1</voice>
    <type>quarter</type>
    <stem>up</stem>
    <staff>1</staff>
    <lyric default-y="-90" number="part1verse1" color="#000000">
     <syllabic>end</syllabic>
     <text>sus</text>
    </lyric>
    <lyric default-y="-115" number="part1verse2" color="#000000">
     <syllabic>end</syllabic>
     <text>sus</text>
    </lyric>
    <lyric default-y="-140" number="part1verse3" color="#000000">
     <syllabic>end</syllabic>
     <text>sus</text>
    </lyric>
    <lyric default-y="-165" number="part1verse4" color="#000000">
     <syllabic>end</syllabic>
     <text>sus</text>
    </lyric>
    <lyric default-y="-190" number="part1verse5" color="#000000">
     <syllabic>end</syllabic>
     <text>sus</text>
    </lyric>
   </note>
   <note color="#000000" default-x="144" default-y="5">
    <pitch>
     <step>G</step>
     <octave>4</octave>
    </pitch>
    <duration>384</duration>
    <instrument id="P1-I1" />
    <voice>1</voice>
    <type>quarter</type>
    <dot />
    <stem>up</stem>
    <staff>1</staff>
    <lyric default-y="-90" number="part1verse1" color="#000000">
     <syllabic>single</syllabic>
     <text>Christ</text>
    </lyric>
    <lyric default-y="-115" number="part1verse2" color="#000000">
     <syllabic>single</syllabic>
     <text>Christ</text>
    </lyric>
    <lyric default-y="-140" number="part1verse3" color="#000000">
     <syllabic>single</syllabic>
     <text>Christ</text>
    </lyric>
    <lyric default-y="-165" number="part1verse4" color="#000000">
     <syllabic>single</syllabic>
     <text>Christ</text>
    </lyric>
    <lyric default-y="-190" number="part1verse5" color="#000000">
     <syllabic>single</syllabic>
     <text>Christ</text>
    </lyric>
   </note>
   <note color="#000000" default-x="237">
    <pitch>
     <step>F</step>
     <octave>4</octave>
    </pitch>
    <duration>128</duration>
    <instrument id="P1-I1" />
    <voice>1</voice>
    <type>eighth</type>
    <stem>up</stem>
    <staff>1</staff>
    <lyric default-y="-90" number="part1verse1" color="#000000">
     <syllabic>single</syllabic>
     <text>be</text>
    </lyric>
    <lyric default-y="-115" number="part1verse2" color="#000000">
     <syllabic>single</syllabic>
     <text>be</text>
    </lyric>
    <lyric default-y="-140" number="part1verse3" color="#000000">
     <syllabic>single</syllabic>
     <text>be</text>
    </lyric>
    <lyric default-y="-165" number="part1verse4" color="#000000">
     <syllabic>single</syllabic>
     <text>be</text>
    </lyric>
    <lyric default-y="-190" number="part1verse5" color="#000000">
     <syllabic>single</syllabic>
     <text>be</text>
    </lyric>
   </note>
   <backup>
    <duration>1024</duration>
   </backup>
   <note color="#000000" default-x="15">
    <pitch>
     <step>F</step>
     <octave>4</octave>
    </pitch>
    <duration>256</duration>
    <instrument id="P1-I1" />
    <voice>2</voice>
    <type>quarter</type>
    <stem>up</stem>
    <staff>1</staff>
   </note>
   <note color="#000000" default-x="79">
    <pitch>
     <step>F</step>
     <octave>4</octave>
    </pitch>
    <duration>256</duration>
    <instrument id="P1-I1" />
    <voice>2</voice>
    <type>quarter</type>
    <stem>up</stem>
    <staff>1</staff>
   </note>
   <note color="#000000" default-x="144" default-y="-62">
    <pitch>
     <step>F</step>
     <octave>4</octave>
    </pitch>
    <duration>256</duration>
    <instrument id="P1-I1" />
    <voice>2</voice>
    <type>quarter</type>
    <stem>down</stem>
    <staff>1</staff>
   </note>
   <note color="#000000" default-x="208" default-y="-5">
    <pitch>
     <step>E</step>
     <octave>4</octave>
    </pitch>
    <duration>256</duration>
    <instrument id="P1-I1" />
    <voice>2</voice>
    <type>quarter</type>
    <accidental>natural</accidental>
    <stem>up</stem>
    <staff>1</staff>
   </note>
  </measure>
  <!--============== Part: P1, Measure: 6 ==============-->
  <measure number="6" width="166">
   <note color="#000000" default-x="15">
    <pitch>
     <step>F</step>
     <octave>4</octave>
    </pitch>
    <duration>768</duration>
    <instrument id="P1-I1" />
    <voice>1</voice>
    <type>half</type>
    <dot />
    <stem>up</stem>
    <staff>1</staff>
    <lyric default-y="-90" number="part1verse1" color="#000000">
     <syllabic>single</syllabic>
     <text>praised!</text>
    </lyric>
    <lyric default-y="-115" number="part1verse2" color="#000000">
     <syllabic>single</syllabic>
     <text>praised!</text>
    </lyric>
    <lyric default-y="-140" number="part1verse3" color="#000000">
     <syllabic>single</syllabic>
     <text>praised!</text>
    </lyric>
    <lyric default-y="-165" number="part1verse4" color="#000000">
     <syllabic>single</syllabic>
     <text>praised!</text>
    </lyric>
    <lyric default-y="-190" number="part1verse5" color="#000000">
     <syllabic>single</syllabic>
     <text>praised!</text>
    </lyric>
   </note>
   <direction>
    <direction-type>
     <other-direction default-x="-38" default-y="20" print-object="no">End bracket</other-direction>
    </direction-type>
    <offset sound="no">-337</offset>
    <voice>1</voice>
    <staff>1</staff>
   </direction>
   <note color="#000000" default-x="101">
    <pitch>
     <step>F</step>
     <octave>4</octave>
    </pitch>
    <duration>256</duration>
    <instrument id="P1-I1" />
    <voice>1</voice>
    <type>quarter</type>
    <stem>up</stem>
    <staff>1</staff>
    <lyric default-y="-90" number="part1verse1" color="#000000">
     <syllabic>single</syllabic>
     <text>in</text>
    </lyric>
    <lyric default-y="-115" number="part1verse2" color="#000000">
     <syllabic>single</syllabic>
     <text>Let</text>
    </lyric>
    <lyric default-y="-140" number="part1verse3" color="#000000">
     <syllabic>single</syllabic>
     <text>Let</text>
    </lyric>
    <lyric default-y="-165" number="part1verse4" color="#000000">
     <syllabic>single</syllabic>
     <text>The</text>
    </lyric>
    <lyric default-y="-190" number="part1verse5" color="#000000">
     <syllabic>single</syllabic>
     <text>Be</text>
    </lyric>
   </note>
   <backup>
    <duration>1024</duration>
   </backup>
   <note color="#000000" default-x="15" default-y="-20">
    <pitch>
     <step>A</step>
     <octave>3</octave>
    </pitch>
    <duration>768</duration>
    <instrument id="P1-I1" />
    <voice>2</voice>
    <type>half</type>
    <dot />
    <stem>up</stem>
    <staff>1</staff>
   </note>
   <note color="#000000" default-x="101" default-y="-15">
    <pitch>
     <step>C</step>
     <octave>4</octave>
    </pitch>
    <duration>256</duration>
    <instrument id="P1-I1" />
    <voice>2</voice>
    <type>quarter</type>
    <stem>up</stem>
    <staff>1</staff>
   </note>
  </measure>
  <!--============== Part: P1, Measure: 7 ==============-->
  <measure number="7" width="273">
   <note color="#000000" default-x="15">
    <pitch>
     <step>F</step>
     <octave>4</octave>
    </pitch>
    <duration>256</duration>
    <instrument id="P1-I1" />
    <voice>1</voice>
    <type>quarter</type>
    <stem>up</stem>
    <staff>1</staff>
    <lyric default-y="-90" number="part1verse1" color="#000000">
     <syllabic>single</syllabic>
     <text>all</text>
    </lyric>
    <lyric default-y="-115" number="part1verse2" color="#000000">
     <syllabic>begin</syllabic>
     <text>mor</text>
    </lyric>
    <lyric default-y="-140" number="part1verse3" color="#000000">
     <syllabic>single</syllabic>
     <text>air</text>
    </lyric>
    <lyric default-y="-165" number="part1verse4" color="#000000">
     <syllabic>single</syllabic>
     <text>night</text>
    </lyric>
    <lyric default-y="-190" number="part1verse5" color="#000000">
     <syllabic>single</syllabic>
     <text>this</text>
    </lyric>
   </note>
   <note color="#000000" default-x="79" default-y="15">
    <pitch>
     <step>B</step>
     <alter>-1</alter>
     <octave>4</octave>
    </pitch>
    <duration>256</duration>
    <instrument id="P1-I1" />
    <voice>1</voice>
    <type>quarter</type>
    <stem>up</stem>
    <staff>1</staff>
    <lyric default-y="-90" number="part1verse1" color="#000000">
     <syllabic>single</syllabic>
     <text>our</text>
    </lyric>
    <lyric default-y="-115" number="part1verse2" color="#000000">
     <syllabic>end</syllabic>
     <text>tals</text>
    </lyric>
    <lyric default-y="-140" number="part1verse3" color="#000000">
     <syllabic>single</syllabic>
     <text>and</text>
    </lyric>
    <lyric default-y="-165" number="part1verse4" color="#000000">
     <syllabic>begin</syllabic>
     <text>be</text>
    </lyric>
    <lyric default-y="-190" number="part1verse5" color="#000000">
     <syllabic>begin</syllabic>
     <text>the_e</text>
    </lyric>
   </note>
   <note color="#000000" default-x="144" default-y="10">
    <pitch>
     <step>A</step>
     <octave>4</octave>
    </pitch>
    <duration>256</duration>
    <instrument id="P1-I1" />
    <voice>1</voice>
    <type>quarter</type>
    <stem>up</stem>
    <staff>1</staff>
    <lyric default-y="-90" number="part1verse1" color="#000000">
     <syllabic>single</syllabic>
     <text>work</text>
    </lyric>
    <lyric default-y="-115" number="part1verse2" color="#000000">
     <syllabic>single</syllabic>
     <text>too</text>
    </lyric>
    <lyric default-y="-140" number="part1verse3" color="#000000">
     <syllabic>single</syllabic>
     <text>sea</text>
    </lyric>
    <lyric default-y="-165" number="part1verse4" color="#000000">
     <syllabic>end</syllabic>
     <text>comes</text>
    </lyric>
    <lyric default-y="-190" number="part1verse5" color="#000000">
     <syllabic>middle</syllabic>
     <text>ter</text>
    </lyric>
   </note>
   <note color="#000000" default-x="208" default-y="15">
    <pitch>
     <step>B</step>
     <alter>-1</alter>
     <octave>4</octave>
    </pitch>
    <duration>256</duration>
    <instrument id="P1-I1" />
    <voice>1</voice>
    <type>quarter</type>
    <stem>up</stem>
    <staff>1</staff>
    <lyric default-y="-90" number="part1verse1" color="#000000">
     <syllabic>single</syllabic>
     <text>and</text>
    </lyric>
    <lyric default-y="-115" number="part1verse2" color="#000000">
     <syllabic>begin</syllabic>
     <text>up</text>
    </lyric>
    <lyric default-y="-140" number="part1verse3" color="#000000">
     <syllabic>single</syllabic>
     <text>and</text>
    </lyric>
    <lyric default-y="-165" number="part1verse4" color="#000000">
     <syllabic>single</syllabic>
     <text>as</text>
    </lyric>
    <lyric default-y="-190" number="part1verse5" color="#000000">
     <syllabic>end</syllabic>
     <text>nal</text>
    </lyric>
   </note>
   <backup>
    <duration>1024</duration>
   </backup>
   <note color="#000000" default-x="15" default-y="-20">
    <pitch>
     <step>B</step>
     <alter>-1</alter>
     <octave>3</octave>
    </pitch>
    <duration>256</duration>
    <instrument id="P1-I1" />
    <voice>2</voice>
    <type>quarter</type>
    <stem>up</stem>
    <staff>1</staff>
   </note>
   <note color="#000000" default-x="79" default-y="-20">
    <pitch>
     <step>B</step>
     <alter>-1</alter>
     <octave>3</octave>
    </pitch>
    <duration>256</duration>
    <instrument id="P1-I1" />
    <voice>2</voice>
    <type>quarter</type>
    <stem>up</stem>
    <staff>1</staff>
   </note>
   <note color="#000000" default-x="144" default-y="-5">
    <pitch>
     <step>E</step>
     <alter>-1</alter>
     <octave>4</octave>
    </pitch>
    <duration>256</duration>
    <instrument id="P1-I1" />
    <voice>2</voice>
    <type>quarter</type>
    <stem>up</stem>
    <staff>1</staff>
   </note>
   <note color="#000000" default-x="208" default-y="-5">
    <pitch>
     <step>E</step>
     <alter>-1</alter>
     <octave>4</octave>
    </pitch>
    <duration>256</duration>
    <instrument id="P1-I1" />
    <voice>2</voice>
    <type>quarter</type>
    <stem>up</stem>
    <staff>1</staff>
   </note>
  </measure>
  <!--============== Part: P1, Measure: 8 ==============-->
  <measure number="8" width="177">
   <note color="#000000" default-x="15">
    <pitch>
     <step>F</step>
     <octave>4</octave>
    </pitch>
    <duration>768</duration>
    <instrument id="P1-I1" />
    <voice>1</voice>
    <type>half</type>
    <dot />
    <stem>up</stem>
    <staff>1</staff>
    <lyric default-y="-90" number="part1verse1" color="#000000">
     <syllabic>single</syllabic>
     <text>prayer</text>
    </lyric>
    <lyric default-y="-115" number="part1verse2" color="#000000">
     <syllabic>end</syllabic>
     <text>raise</text>
    </lyric>
    <lyric default-y="-140" number="part1verse3" color="#000000">
     <syllabic>single</syllabic>
     <text>sky</text>
    </lyric>
    <lyric default-y="-165" number="part1verse4" color="#000000">
     <syllabic>single</syllabic>
     <text>day</text>
    </lyric>
    <lyric default-y="-190" number="part1verse5" color="#000000">
     <syllabic>single</syllabic>
     <text>song</text>
    </lyric>
   </note>
   <barline>
    <bar-style>none</bar-style>
   </barline>
   <backup>
    <duration>768</duration>
   </backup>
   <note color="#000000" default-x="15" default-y="-67">
    <pitch>
     <step>E</step>
     <alter>-1</alter>
     <octave>4</octave>
    </pitch>
    <duration>512</duration>
    <instrument id="P1-I1" />
    <voice>2</voice>
    <type>half</type>
    <stem>down</stem>
    <staff>1</staff>
    <notations>
     <slur color="#000000" type="start" orientation="under" />
    </notations>
   </note>
   <note color="#000000" default-x="108" default-y="-10">
    <pitch>
     <step>D</step>
     <octave>4</octave>
    </pitch>
    <duration>256</duration>
    <instrument id="P1-I1" />
    <voice>2</voice>
    <type>quarter</type>
    <stem>up</stem>
    <staff>1</staff>
    <notations>
     <slur color="#000000" type="stop" orientation="under" />
    </notations>
   </note>
  </measure>
  <!--============== Part: P1, Measure: 9 ==============-->
  <measure number="9" width="130">
   <print new-system="yes">
    <system-layout>
     <system-margins>
      <left-margin>1</left-margin>
      <right-margin>0</right-margin>
     </system-margins>
     <system-distance>124</system-distance>
    </system-layout>
   </print>
   <attributes>
    <staff-details number="1" print-object="yes" />
   </attributes>
   <barline location="left">
    <ending number="1" type="start" print-object="no" />
   </barline>
   <note color="#000000" default-x="80">
    <pitch>
     <step>F</step>
     <octave>4</octave>
    </pitch>
    <duration>256</duration>
    <instrument id="P1-I1" />
    <voice>1</voice>
    <type>quarter</type>
    <stem>up</stem>
    <staff>1</staff>
    <lyric default-y="-90" number="part1verse1" color="#000000">
     <syllabic>single</syllabic>
     <text>we</text>
    </lyric>
    <lyric default-y="-115" number="part1verse2" color="#000000">
     <syllabic>single</syllabic>
     <text>their</text>
    </lyric>
    <lyric default-y="-140" number="part1verse3" color="#000000">
     <syllabic>single</syllabic>
     <text>from</text>
    </lyric>
    <lyric default-y="-165" number="part1verse4" color="#000000">
     <syllabic>single</syllabic>
     <text>when</text>
    </lyric>
    <lyric default-y="-190" number="part1verse5" color="#000000">
     <syllabic>single</syllabic>
     <text>through</text>
    </lyric>
   </note>
   <backup>
    <duration>256</duration>
   </backup>
   <note color="#000000" default-x="80" default-y="-15">
    <pitch>
     <step>C</step>
     <octave>4</octave>
    </pitch>
    <duration>256</duration>
    <instrument id="P1-I1" />
    <voice>2</voice>
    <type>quarter</type>
    <stem>up</stem>
    <staff>1</staff>
   </note>
  </measure>
  <!--============== Part: P1, Measure: 10 ==============-->
  <measure number="10" width="275">
   <note color="#000000" default-x="24">
    <pitch>
     <step>F</step>
     <octave>4</octave>
    </pitch>
    <duration>256</duration>
    <instrument id="P1-I1" />
    <voice>1</voice>
    <type>quarter</type>
    <stem>up</stem>
    <staff>1</staff>
    <lyric default-y="-90" number="part1verse1" color="#000000">
     <syllabic>single</syllabic>
     <text>ask</text>
    </lyric>
    <lyric default-y="-115" number="part1verse2" color="#000000">
     <syllabic>single</syllabic>
     <text>voice</text>
    </lyric>
    <lyric default-y="-140" number="part1verse3" color="#000000">
     <syllabic>single</syllabic>
     <text>depth</text>
    </lyric>
    <lyric default-y="-165" number="part1verse4" color="#000000">
     <syllabic>single</syllabic>
     <text>from</text>
    </lyric>
    <lyric default-y="-190" number="part1verse5" color="#000000">
     <syllabic>single</syllabic>
     <text>all</text>
    </lyric>
   </note>
   <note color="#000000" default-x="88" default-y="15">
    <pitch>
     <step>B</step>
     <alter>-1</alter>
     <octave>4</octave>
    </pitch>
    <duration>256</duration>
    <instrument id="P1-I1" />
    <voice>1</voice>
    <type>quarter</type>
    <stem>up</stem>
    <staff>1</staff>
    <lyric default-y="-90" number="part1verse1" color="#000000">
     <syllabic>single</syllabic>
     <text>his</text>
    </lyric>
    <lyric default-y="-115" number="part1verse2" color="#000000">
     <syllabic>single</syllabic>
     <text>in</text>
    </lyric>
    <lyric default-y="-140" number="part1verse3" color="#000000">
     <syllabic>single</syllabic>
     <text>to</text>
    </lyric>
    <lyric default-y="-165" number="part1verse4" color="#000000">
     <syllabic>single</syllabic>
     <text>the</text>
    </lyric>
    <lyric default-y="-190" number="part1verse5" color="#000000">
     <syllabic>single</syllabic>
     <text>the</text>
    </lyric>
   </note>
   <note color="#000000" default-x="155" default-y="10">
    <pitch>
     <step>A</step>
     <octave>4</octave>
    </pitch>
    <duration>256</duration>
    <instrument id="P1-I1" />
    <voice>1</voice>
    <type>quarter</type>
    <stem>up</stem>
    <staff>1</staff>
    <lyric default-y="-90" number="part1verse1" color="#000000">
     <syllabic>begin</syllabic>
     <text>lov</text>
    </lyric>
    <lyric default-y="-115" number="part1verse2" color="#000000">
     <syllabic>single</syllabic>
     <text>hymns</text>
    </lyric>
    <lyric default-y="-140" number="part1verse3" color="#000000">
     <syllabic>single</syllabic>
     <text>height</text>
    </lyric>
    <lyric default-y="-165" number="part1verse4" color="#000000">
     <syllabic>single</syllabic>
     <text>heart</text>
    </lyric>
    <lyric default-y="-190" number="part1verse5" color="#000000">
     <syllabic>begin</syllabic>
     <text>a</text>
    </lyric>
   </note>
   <note color="#000000" default-x="224" default-y="15">
    <pitch>
     <step>B</step>
     <alter>-1</alter>
     <octave>4</octave>
    </pitch>
    <duration>256</duration>
    <instrument id="P1-I1" />
    <voice>1</voice>
    <type>quarter</type>
    <stem>up</stem>
    <staff>1</staff>
    <lyric default-y="-90" number="part1verse1" color="#000000">
     <syllabic>end</syllabic>
     <text>ing</text>
    </lyric>
    <lyric default-y="-115" number="part1verse2" color="#000000">
     <syllabic>single</syllabic>
     <text>of</text>
    </lyric>
    <lyric default-y="-140" number="part1verse3" color="#000000">
     <syllabic>begin</syllabic>
     <text>re</text>
    </lyric>
    <lyric default-y="-165" number="part1verse4" color="#000000">
     <syllabic>single</syllabic>
     <text>we</text>
    </lyric>
    <lyric default-y="-190" number="part1verse5" color="#000000">
     <syllabic>end</syllabic>
     <text>ges</text>
    </lyric>
   </note>
   <backup>
    <duration>1024</duration>
   </backup>
   <note color="#000000" default-x="24" default-y="-20">
    <pitch>
     <step>B</step>
     <alter>-1</alter>
     <octave>3</octave>
    </pitch>
    <duration>256</duration>
    <instrument id="P1-I1" />
    <voice>2</voice>
    <type>quarter</type>
    <stem>up</stem>
    <staff>1</staff>
   </note>
   <note color="#000000" default-x="88" default-y="-10">
    <pitch>
     <step>D</step>
     <octave>4</octave>
    </pitch>
    <duration>256</duration>
    <instrument id="P1-I1" />
    <voice>2</voice>
    <type>quarter</type>
    <stem>up</stem>
    <staff>1</staff>
   </note>
   <note color="#000000" default-x="155" default-y="-5">
    <pitch>
     <step>E</step>
     <octave>4</octave>
    </pitch>
    <duration>256</duration>
    <instrument id="P1-I1" />
    <voice>2</voice>
    <type>quarter</type>
    <accidental>natural</accidental>
    <stem>up</stem>
    <staff>1</staff>
   </note>
   <note color="#000000" default-x="224" default-y="-5">
    <pitch>
     <step>E</step>
     <octave>4</octave>
    </pitch>
    <duration>256</duration>
    <instrument id="P1-I1" />
    <voice>2</voice>
    <type>quarter</type>
    <stem>up</stem>
    <staff>1</staff>
   </note>
  </measure>
  <!--============== Part: P1, Measure: 11 ==============-->
  <measure number="11" width="206">
   <note color="#000000" default-x="17">
    <pitch>
     <step>F</step>
     <octave>4</octave>
    </pitch>
    <duration>768</duration>
    <instrument id="P1-I1" />
    <voice>1</voice>
    <type>half</type>
    <dot />
    <stem>up</stem>
    <staff>1</staff>
    <lyric default-y="-90" number="part1verse1" color="#000000">
     <syllabic>single</syllabic>
     <text>care:</text>
    </lyric>
    <lyric default-y="-115" number="part1verse2" color="#000000">
     <syllabic>single</syllabic>
     <text>praise:</text>
    </lyric>
    <lyric default-y="-140" number="part1verse3" color="#000000">
     <syllabic>end</syllabic>
     <text>ply:</text>
    </lyric>
    <lyric default-y="-165" number="part1verse4" color="#000000">
     <syllabic>single</syllabic>
     <text>say:</text>
    </lyric>
    <lyric default-y="-190" number="part1verse5" color="#000000">
     <syllabic>single</syllabic>
     <text>long:</text>
    </lyric>
   </note>
   <backup>
    <duration>256</duration>
   </backup>
   <direction>
    <direction-type>
     <other-direction default-x="20" default-y="20" print-object="no">Start bracket</other-direction>
    </direction-type>
    <offset sound="no">105</offset>
    <voice>1</voice>
    <staff>1</staff>
   </direction>
   <forward>
    <duration>256</duration>
   </forward>
   <note color="#000000" default-x="152">
    <pitch>
     <step>F</step>
     <octave>4</octave>
    </pitch>
    <duration>256</duration>
    <instrument id="P1-I1" />
    <voice>1</voice>
    <type>quarter</type>
    <stem>up</stem>
    <staff>1</staff>
    <lyric default-y="-90" number="part1verse1" color="#000000">
     <syllabic>single</syllabic>
     <text>May</text>
    </lyric>
    <lyric default-y="-115" number="part1verse2" color="#000000">
     <syllabic>single</syllabic>
     <text>May</text>
    </lyric>
    <lyric default-y="-140" number="part1verse3" color="#000000">
     <syllabic>single</syllabic>
     <text>May</text>
    </lyric>
    <lyric default-y="-165" number="part1verse4" color="#000000">
     <syllabic>single</syllabic>
     <text>May</text>
    </lyric>
    <lyric default-y="-190" number="part1verse5" color="#000000">
     <syllabic>single</syllabic>
     <text>May</text>
    </lyric>
   </note>
   <backup>
    <duration>1024</duration>
   </backup>
   <note color="#000000" default-x="2" default-y="-61">
    <pitch>
     <step>F</step>
     <octave>4</octave>
    </pitch>
    <duration>256</duration>
    <instrument id="P1-I1" />
    <voice>2</voice>
    <type>quarter</type>
    <stem>down</stem>
    <staff>1</staff>
    <notations>
     <slur color="#000000" type="start" orientation="under" />
    </notations>
   </note>
   <note color="#000000" default-x="65" default-y="-6">
    <pitch>
     <step>C</step>
     <octave>4</octave>
    </pitch>
    <duration>256</duration>
    <instrument id="P1-I1" />
    <voice>2</voice>
    <type>quarter</type>
    <stem>up</stem>
    <staff>1</staff>
   </note>
   <note color="#000000" default-x="101" default-y="-6">
    <pitch>
     <step>D</step>
     <octave>4</octave>
    </pitch>
    <duration>256</duration>
    <instrument id="P1-I1" />
    <voice>2</voice>
    <type>quarter</type>
    <stem>up</stem>
    <staff>1</staff>
    <notations>
     <slur color="#000000" type="stop" orientation="under" />
    </notations>
   </note>
   <note color="#000000" default-x="152" default-y="-67">
    <pitch>
     <step>E</step>
     <alter>-1</alter>
     <octave>4</octave>
    </pitch>
    <duration>256</duration>
    <instrument id="P1-I1" />
    <voice>2</voice>
    <type>quarter</type>
    <stem>down</stem>
    <staff>1</staff>
   </note>
  </measure>
  <!--============== Part: P1, Measure: 12 ==============-->
  <measure number="12" width="161">
   <note color="#000000" default-x="15">
    <pitch>
     <step>F</step>
     <octave>4</octave>
    </pitch>
    <duration>512</duration>
    <instrument id="P1-I1" />
    <voice>1</voice>
    <type>half</type>
    <stem>up</stem>
    <staff>1</staff>
    <lyric default-y="-90" number="part1verse1" color="#000000">
     <syllabic>begin</syllabic>
     <text>Je</text>
    </lyric>
    <lyric default-y="-115" number="part1verse2" color="#000000">
     <syllabic>begin</syllabic>
     <text>Je</text>
    </lyric>
    <lyric default-y="-140" number="part1verse3" color="#000000">
     <syllabic>begin</syllabic>
     <text>Je</text>
    </lyric>
    <lyric default-y="-165" number="part1verse4" color="#000000">
     <syllabic>begin</syllabic>
     <text>Je</text>
    </lyric>
    <lyric default-y="-190" number="part1verse5" color="#000000">
     <syllabic>begin</syllabic>
     <text>Je</text>
    </lyric>
   </note>
   <note color="#000000" default-x="109" default-y="15">
    <pitch>
     <step>B</step>
     <alter>-1</alter>
     <octave>4</octave>
    </pitch>
    <duration>512</duration>
    <instrument id="P1-I1" />
    <voice>1</voice>
    <type>half</type>
    <stem>up</stem>
    <staff>1</staff>
    <lyric default-y="-90" number="part1verse1" color="#000000">
     <syllabic>end</syllabic>
     <text>sus</text>
    </lyric>
    <lyric default-y="-115" number="part1verse2" color="#000000">
     <syllabic>end</syllabic>
     <text>sus</text>
    </lyric>
    <lyric default-y="-140" number="part1verse3" color="#000000">
     <syllabic>end</syllabic>
     <text>sus</text>
    </lyric>
    <lyric default-y="-165" number="part1verse4" color="#000000">
     <syllabic>end</syllabic>
     <text>sus</text>
    </lyric>
    <lyric default-y="-190" number="part1verse5" color="#000000">
     <syllabic>end</syllabic>
     <text>sus</text>
    </lyric>
   </note>
   <backup>
    <duration>1024</duration>
   </backup>
   <note color="#000000" default-x="15" default-y="-68">
    <pitch>
     <step>D</step>
     <octave>4</octave>
    </pitch>
    <duration>256</duration>
    <instrument id="P1-I1" />
    <voice>2</voice>
    <type>quarter</type>
    <stem>down</stem>
    <staff>1</staff>
    <notations>
     <slur color="#000000" type="start" orientation="under" />
    </notations>
   </note>
   <note color="#000000" default-x="58" default-y="-5">
    <pitch>
     <step>E</step>
     <alter>-1</alter>
     <octave>4</octave>
    </pitch>
    <duration>256</duration>
    <instrument id="P1-I1" />
    <voice>2</voice>
    <type>quarter</type>
    <stem>up</stem>
    <staff>1</staff>
    <notations>
     <slur color="#000000" type="stop" orientation="under" />
    </notations>
   </note>
   <note color="#000000" default-x="109">
    <pitch>
     <step>F</step>
     <octave>4</octave>
    </pitch>
    <duration>512</duration>
    <instrument id="P1-I1" />
    <voice>2</voice>
    <type>half</type>
    <stem>up</stem>
    <staff>1</staff>
   </note>
  </measure>
  <!--============== Part: P1, Measure: 13 ==============-->
  <measure number="13" width="166">
   <note color="#000000" default-x="15" default-y="15">
    <pitch>
     <step>B</step>
     <alter>-1</alter>
     <octave>4</octave>
    </pitch>
    <duration>512</duration>
    <instrument id="P1-I1" />
    <voice>1</voice>
    <type>half</type>
    <stem>up</stem>
    <staff>1</staff>
    <lyric default-y="-90" number="part1verse1" color="#000000">
     <syllabic>single</syllabic>
     <text>Christ</text>
    </lyric>
    <lyric default-y="-115" number="part1verse2" color="#000000">
     <syllabic>single</syllabic>
     <text>Christ</text>
    </lyric>
    <lyric default-y="-140" number="part1verse3" color="#000000">
     <syllabic>single</syllabic>
     <text>Christ</text>
    </lyric>
    <lyric default-y="-165" number="part1verse4" color="#000000">
     <syllabic>single</syllabic>
     <text>Christ</text>
    </lyric>
    <lyric default-y="-190" number="part1verse5" color="#000000">
     <syllabic>single</syllabic>
     <text>Christ</text>
    </lyric>
   </note>
   <note color="#000000" default-x="83" default-y="17">
    <pitch>
     <step>C</step>
     <octave>5</octave>
    </pitch>
    <duration>512</duration>
    <instrument id="P1-I1" />
    <voice>1</voice>
    <type>half</type>
    <stem>up</stem>
    <staff>1</staff>
    <lyric default-y="-90" number="part1verse1" color="#000000">
     <syllabic>single</syllabic>
     <text>be</text>
    </lyric>
    <lyric default-y="-115" number="part1verse2" color="#000000">
     <syllabic>single</syllabic>
     <text>be</text>
    </lyric>
    <lyric default-y="-140" number="part1verse3" color="#000000">
     <syllabic>single</syllabic>
     <text>be</text>
    </lyric>
    <lyric default-y="-165" number="part1verse4" color="#000000">
     <syllabic>single</syllabic>
     <text>be</text>
    </lyric>
    <lyric default-y="-190" number="part1verse5" color="#000000">
     <syllabic>single</syllabic>
     <text>be</text>
    </lyric>
   </note>
   <backup>
    <duration>1024</duration>
   </backup>
   <note color="#000000" default-x="15" default-y="-5">
    <pitch>
     <step>E</step>
     <alter>-1</alter>
     <octave>4</octave>
    </pitch>
    <duration>512</duration>
    <instrument id="P1-I1" />
    <voice>2</voice>
    <type>half</type>
    <stem>up</stem>
    <staff>1</staff>
   </note>
   <note color="#000000" default-x="83" default-y="-5">
    <pitch>
     <step>E</step>
     <alter>-1</alter>
     <octave>4</octave>
    </pitch>
    <duration>512</duration>
    <instrument id="P1-I1" />
    <voice>2</voice>
    <type>half</type>
    <stem>up</stem>
    <staff>1</staff>
   </note>
  </measure>
  <!--============== Part: P1, Measure: 14 ==============-->
  <measure number="14" width="109">
   <direction>
    <direction-type>
     <other-direction default-x="44" default-y="20" print-object="no">End bracket</other-direction>
    </direction-type>
    <offset sound="no">336</offset>
    <voice>1</voice>
    <staff>1</staff>
   </direction>
   <note color="#000000" default-x="15" default-y="15">
    <pitch>
     <step>B</step>
     <alter>-1</alter>
     <octave>4</octave>
    </pitch>
    <duration>768</duration>
    <instrument id="P1-I1" />
    <voice>1</voice>
    <type>half</type>
    <dot />
    <stem>up</stem>
    <staff>1</staff>
    <lyric default-y="-90" number="part1verse1" color="#000000">
     <syllabic>single</syllabic>
     <text>praised!</text>
    </lyric>
    <lyric default-y="-115" number="part1verse2" color="#000000">
     <syllabic>single</syllabic>
     <text>praised!</text>
    </lyric>
    <lyric default-y="-140" number="part1verse3" color="#000000">
     <syllabic>single</syllabic>
     <text>praised!</text>
    </lyric>
    <lyric default-y="-165" number="part1verse4" color="#000000">
     <syllabic>single</syllabic>
     <text>praised!</text>
    </lyric>
    <lyric default-y="-190" number="part1verse5" color="#000000">
     <syllabic>single</syllabic>
     <text>praised!</text>
    </lyric>
   </note>
   <forward>
    <duration>256</duration>
   </forward>
   <barline location="right">
    <bar-style>light-heavy</bar-style>
    <ending number="1" type="stop" print-object="no" />
   </barline>
   <backup>
    <duration>1024</duration>
   </backup>
   <note color="#000000" default-x="15" default-y="-10">
    <pitch>
     <step>D</step>
     <octave>4</octave>
    </pitch>
    <duration>768</duration>
    <instrument id="P1-I1" />
    <voice>2</voice>
    <type>half</type>
    <dot />
    <stem>up</stem>
    <staff>1</staff>
   </note>
  </measure>
 </part>
 <part id="P2">
  <!--============== Part: P2, Measure: 0 ==============-->
  <measure number="0" width="160">
   <print new-page="yes">
    <system-layout>
     <system-margins>
      <left-margin>1</left-margin>
      <right-margin>0</right-margin>
     </system-margins>
    </system-layout>
    <staff-layout number="1">
     <staff-distance>185</staff-distance>
    </staff-layout>
   </print>
   <attributes>
    <divisions>256</divisions>
    <key color="#000000">
     <fifths>-2</fifths>
     <mode>major</mode>
    </key>
    <time color="#000000">
     <beats>4</beats>
     <beat-type>4</beat-type>
    </time>
    <staves>1</staves>
    <clef number="1" color="#000000">
     <sign>F</sign>
     <line>4</line>
    </clef>
    <staff-details number="1" print-object="yes" />
   </attributes>
   <note color="#000000" default-x="99" default-y="-45">
    <pitch>
     <step>F</step>
     <octave>3</octave>
    </pitch>
    <duration>256</duration>
    <instrument id="P2-I1" />
    <voice>3</voice>
    <type>quarter</type>
    <stem>down</stem>
    <staff>1</staff>
   </note>
   <backup>
    <duration>256</duration>
   </backup>
   <note color="#000000" default-x="99" default-y="-60">
    <pitch>
     <step>B</step>
     <alter>-1</alter>
     <octave>2</octave>
    </pitch>
    <duration>256</duration>
    <instrument id="P2-I1" />
    <voice>4</voice>
    <type>quarter</type>
    <stem>down</stem>
    <staff>1</staff>
   </note>
  </measure>
  <!--============== Part: P2, Measure: 0 ==============-->
  <measure number="0" width="285">
   <note color="#000000" default-x="15" default-y="-45">
    <pitch>
     <step>F</step>
     <octave>3</octave>
    </pitch>
    <duration>256</duration>
    <instrument id="P2-I1" />
    <voice>3</voice>
    <type>quarter</type>
    <stem>down</stem>
    <staff>1</staff>
   </note>
   <note color="#000000" default-x="81" default-y="-45">
    <pitch>
     <step>F</step>
     <octave>3</octave>
    </pitch>
    <duration>256</duration>
    <instrument id="P2-I1" />
    <voice>3</voice>
    <type>quarter</type>
    <stem>down</stem>
    <staff>1</staff>
   </note>
   <note color="#000000" default-x="152" default-y="17">
    <pitch>
     <step>E</step>
     <alter>-1</alter>
     <octave>3</octave>
    </pitch>
    <duration>256</duration>
    <instrument id="P2-I1" />
    <voice>3</voice>
    <type>quarter</type>
    <stem>up</stem>
    <staff>1</staff>
   </note>
   <note color="#000000" default-x="223" default-y="-40">
    <pitch>
     <step>G</step>
     <octave>3</octave>
    </pitch>
    <duration>256</duration>
    <instrument id="P2-I1" />
    <voice>3</voice>
    <type>quarter</type>
    <stem>down</stem>
    <staff>1</staff>
   </note>
   <backup>
    <duration>1024</duration>
   </backup>
   <note color="#000000" default-x="15" default-y="-57">
    <pitch>
     <step>C</step>
     <octave>3</octave>
    </pitch>
    <duration>256</duration>
    <instrument id="P2-I1" />
    <voice>4</voice>
    <type>quarter</type>
    <stem>down</stem>
    <staff>1</staff>
   </note>
   <note color="#000000" default-x="81" default-y="-55">
    <pitch>
     <step>D</step>
     <octave>3</octave>
    </pitch>
    <duration>256</duration>
    <instrument id="P2-I1" />
    <voice>4</voice>
    <type>quarter</type>
    <stem>down</stem>
    <staff>1</staff>
   </note>
   <note color="#000000" default-x="152" default-y="-50">
    <pitch>
     <step>E</step>
     <alter>-1</alter>
     <octave>3</octave>
    </pitch>
    <duration>256</duration>
    <instrument id="P2-I1" />
    <voice>4</voice>
    <type>quarter</type>
    <stem>down</stem>
    <staff>1</staff>
   </note>
   <note color="#000000" default-x="223" default-y="-57">
    <pitch>
     <step>C</step>
     <octave>3</octave>
    </pitch>
    <duration>256</duration>
    <instrument id="P2-I1" />
    <voice>4</voice>
    <type>quarter</type>
    <stem>down</stem>
    <staff>1</staff>
   </note>
  </measure>
  <!--============== Part: P2, Measure: 1 ==============-->
  <measure number="1" width="205">
   <note color="#000000" default-x="15" default-y="-35">
    <pitch>
     <step>A</step>
     <octave>3</octave>
    </pitch>
    <duration>512</duration>
    <instrument id="P2-I1" />
    <voice>3</voice>
    <type>half</type>
    <stem>down</stem>
    <staff>1</staff>
    <notations>
     <slur color="#000000" type="start" orientation="over" />
    </notations>
   </note>
   <note color="#000000" default-x="69" default-y="-30">
    <pitch>
     <step>B</step>
     <alter>-1</alter>
     <octave>3</octave>
    </pitch>
    <duration>256</duration>
    <instrument id="P2-I1" />
    <voice>3</voice>
    <type>quarter</type>
    <stem>down</stem>
    <staff>1</staff>
    <notations>
     <slur color="#000000" type="stop" orientation="over" />
    </notations>
   </note>
   <note color="#000000" default-x="130" default-y="-25">
    <pitch>
     <step>C</step>
     <octave>4</octave>
    </pitch>
    <duration>256</duration>
    <instrument id="P2-I1" />
    <voice>3</voice>
    <type>quarter</type>
    <stem>down</stem>
    <staff>1</staff>
   </note>
   <backup>
    <duration>1024</duration>
   </backup>
   <note color="#000000" default-x="15" default-y="-45">
    <pitch>
     <step>F</step>
     <octave>3</octave>
    </pitch>
    <duration>512</duration>
    <instrument id="P2-I1" />
    <voice>4</voice>
    <type>half</type>
    <stem>down</stem>
    <staff>1</staff>
    <notations>
     <slur color="#000000" type="start" orientation="under" number="2" />
    </notations>
   </note>
   <note color="#000000" default-x="69" default-y="-40">
    <pitch>
     <step>G</step>
     <octave>3</octave>
    </pitch>
    <duration>256</duration>
    <instrument id="P2-I1" />
    <voice>4</voice>
    <type>quarter</type>
    <stem>down</stem>
    <staff>1</staff>
    <notations>
     <slur color="#000000" type="stop" orientation="under" number="2" />
    </notations>
   </note>
   <note color="#000000" default-x="130" default-y="-35">
    <pitch>
     <step>A</step>
     <octave>3</octave>
    </pitch>
    <duration>256</duration>
    <instrument id="P2-I1" />
    <voice>4</voice>
    <type>quarter</type>
    <stem>down</stem>
    <staff>1</staff>
   </note>
  </measure>
  <!--============== Part: P2, Measure: 2 ==============-->
  <measure number="2" width="260">
   <note color="#000000" default-x="15" default-y="29">
    <pitch>
     <step>B</step>
     <alter>-1</alter>
     <octave>3</octave>
    </pitch>
    <duration>256</duration>
    <instrument id="P2-I1" />
    <voice>3</voice>
    <type>quarter</type>
    <stem>up</stem>
    <staff>1</staff>
   </note>
   <note color="#000000" default-x="76" default-y="-25">
    <pitch>
     <step>C</step>
     <octave>4</octave>
    </pitch>
    <duration>256</duration>
    <instrument id="P2-I1" />
    <voice>3</voice>
    <type>quarter</type>
    <stem>down</stem>
    <staff>1</staff>
   </note>
   <note color="#000000" default-x="137" default-y="-30">
    <pitch>
     <step>B</step>
     <alter>-1</alter>
     <octave>3</octave>
    </pitch>
    <duration>256</duration>
    <instrument id="P2-I1" />
    <voice>3</voice>
    <type>quarter</type>
    <stem>down</stem>
    <staff>1</staff>
   </note>
   <note color="#000000" default-x="199" default-y="-30">
    <pitch>
     <step>B</step>
     <alter>-1</alter>
     <octave>3</octave>
    </pitch>
    <duration>256</duration>
    <instrument id="P2-I1" />
    <voice>3</voice>
    <type>quarter</type>
    <stem>down</stem>
    <staff>1</staff>
   </note>
   <backup>
    <duration>1024</duration>
   </backup>
   <note color="#000000" default-x="15" default-y="-30">
    <pitch>
     <step>B</step>
     <alter>-1</alter>
     <octave>3</octave>
    </pitch>
    <duration>256</duration>
    <instrument id="P2-I1" />
    <voice>4</voice>
    <type>quarter</type>
    <stem>down</stem>
    <staff>1</staff>
   </note>
   <note color="#000000" default-x="76" default-y="-35">
    <pitch>
     <step>A</step>
     <octave>3</octave>
    </pitch>
    <duration>256</duration>
    <instrument id="P2-I1" />
    <voice>4</voice>
    <type>quarter</type>
    <stem>down</stem>
    <staff>1</staff>
   </note>
   <note color="#000000" default-x="137" default-y="-40">
    <pitch>
     <step>G</step>
     <octave>3</octave>
    </pitch>
    <duration>256</duration>
    <instrument id="P2-I1" />
    <voice>4</voice>
    <type>quarter</type>
    <stem>down</stem>
    <staff>1</staff>
   </note>
   <note color="#000000" default-x="199" default-y="-40">
    <pitch>
     <step>G</step>
     <octave>3</octave>
    </pitch>
    <duration>256</duration>
    <instrument id="P2-I1" />
    <voice>4</voice>
    <type>quarter</type>
    <stem>down</stem>
    <staff>1</staff>
   </note>
  </measure>
  <!--============== Part: P2, Measure: 3 ==============-->
  <measure number="3" width="138">
   <note color="#000000" default-x="15" default-y="-30">
    <pitch>
     <step>B</step>
     <alter>-1</alter>
     <octave>3</octave>
    </pitch>
    <duration>512</duration>
    <instrument id="P2-I1" />
    <voice>3</voice>
    <type>half</type>
    <stem>down</stem>
    <staff>1</staff>
    <notations>
     <slur color="#000000" type="start" orientation="over" />
    </notations>
   </note>
   <note color="#000000" default-x="72" default-y="-35">
    <pitch>
     <step>A</step>
     <octave>3</octave>
    </pitch>
    <duration>256</duration>
    <instrument id="P2-I1" />
    <voice>3</voice>
    <type>quarter</type>
    <stem>down</stem>
    <staff>1</staff>
    <notations>
     <slur color="#000000" type="stop" orientation="over" />
    </notations>
   </note>
   <barline>
    <bar-style>none</bar-style>
   </barline>
   <backup>
    <duration>768</duration>
   </backup>
   <note color="#000000" default-x="15" default-y="-57">
    <pitch>
     <step>C</step>
     <octave>3</octave>
    </pitch>
    <duration>512</duration>
    <instrument id="P2-I1" />
    <voice>4</voice>
    <type>half</type>
    <stem>down</stem>
    <staff>1</staff>
    <notations>
     <slur color="#000000" type="start" orientation="under" number="2" />
    </notations>
   </note>
   <note color="#000000" default-x="72" default-y="-55">
    <pitch>
     <step>D</step>
     <octave>3</octave>
    </pitch>
    <duration>256</duration>
    <instrument id="P2-I1" />
    <voice>4</voice>
    <type>quarter</type>
    <stem>down</stem>
    <staff>1</staff>
    <notations>
     <slur color="#000000" type="stop" orientation="under" number="2" />
    </notations>
   </note>
  </measure>
  <!--============== Part: P2, Measure: 4 ==============-->
  <measure number="4" width="144">
   <print new-system="yes">
    <system-layout>
     <system-margins>
      <left-margin>1</left-margin>
      <right-margin>0</right-margin>
     </system-margins>
    </system-layout>
    <staff-layout number="1">
     <staff-distance>184</staff-distance>
    </staff-layout>
   </print>
   <attributes>
    <staff-details number="1" print-object="yes" />
   </attributes>
   <direction>
    <direction-type>
     <other-direction default-y="91" print-object="no">Arrow head (small) right</other-direction>
    </direction-type>
    <voice>1</voice>
    <staff>1</staff>
   </direction>
   <note color="#000000" default-x="80" default-y="-25">
    <pitch>
     <step>C</step>
     <octave>4</octave>
    </pitch>
    <duration>256</duration>
    <instrument id="P2-I1" />
    <voice>3</voice>
    <type>quarter</type>
    <stem>down</stem>
    <staff>1</staff>
   </note>
   <backup>
    <duration>256</duration>
   </backup>
   <note color="#000000" default-x="80" default-y="-50">
    <pitch>
     <step>E</step>
     <octave>3</octave>
    </pitch>
    <duration>256</duration>
    <instrument id="P2-I1" />
    <voice>4</voice>
    <type>quarter</type>
    <accidental>natural</accidental>
    <stem>down</stem>
    <staff>1</staff>
   </note>
  </measure>
  <!--============== Part: P2, Measure: 5 ==============-->
  <measure number="5" width="288">
   <note color="#000000" default-x="15" default-y="-25">
    <pitch>
     <step>C</step>
     <octave>4</octave>
    </pitch>
    <duration>256</duration>
    <instrument id="P2-I1" />
    <voice>3</voice>
    <type>quarter</type>
    <stem>down</stem>
    <staff>1</staff>
   </note>
   <note color="#000000" default-x="79" default-y="-46">
    <pitch>
     <step>D</step>
     <octave>4</octave>
    </pitch>
    <duration>256</duration>
    <instrument id="P2-I1" />
    <voice>3</voice>
    <type>quarter</type>
    <stem>down</stem>
    <staff>1</staff>
   </note>
   <note color="#000000" default-x="144" default-y="-30">
    <pitch>
     <step>B</step>
     <alter>-1</alter>
     <octave>3</octave>
    </pitch>
    <duration>256</duration>
    <instrument id="P2-I1" />
    <voice>3</voice>
    <type>quarter</type>
    <stem>down</stem>
    <staff>1</staff>
   </note>
   <note color="#000000" default-x="208" default-y="-30">
    <pitch>
     <step>B</step>
     <alter>-1</alter>
     <octave>3</octave>
    </pitch>
    <duration>256</duration>
    <instrument id="P2-I1" />
    <voice>3</voice>
    <type>quarter</type>
    <stem>down</stem>
    <staff>1</staff>
   </note>
   <backup>
    <duration>1024</duration>
   </backup>
   <note color="#000000" default-x="15" default-y="-45">
    <pitch>
     <step>F</step>
     <octave>3</octave>
    </pitch>
    <duration>256</duration>
    <instrument id="P2-I1" />
    <voice>4</voice>
    <type>quarter</type>
    <stem>down</stem>
    <staff>1</staff>
   </note>
   <note color="#000000" default-x="79" default-y="-60">
    <pitch>
     <step>B</step>
     <alter>-1</alter>
     <octave>2</octave>
    </pitch>
    <duration>256</duration>
    <instrument id="P2-I1" />
    <voice>4</voice>
    <type>quarter</type>
    <stem>down</stem>
    <staff>1</staff>
   </note>
   <note color="#000000" default-x="144" default-y="-57">
    <pitch>
     <step>C</step>
     <octave>3</octave>
    </pitch>
    <duration>256</duration>
    <instrument id="P2-I1" />
    <voice>4</voice>
    <type>quarter</type>
    <stem>down</stem>
    <staff>1</staff>
   </note>
   <note color="#000000" default-x="208" default-y="-57">
    <pitch>
     <step>C</step>
     <octave>3</octave>
    </pitch>
    <duration>256</duration>
    <instrument id="P2-I1" />
    <voice>4</voice>
    <type>quarter</type>
    <stem>down</stem>
    <staff>1</staff>
   </note>
  </measure>
  <!--============== Part: P2, Measure: 6 ==============-->
  <measure number="6" width="166">
   <note color="#000000" default-x="15" default-y="-45">
    <pitch>
     <step>F</step>
     <octave>3</octave>
    </pitch>
    <duration>768</duration>
    <instrument id="P2-I1" />
    <voice>3</voice>
    <type>half</type>
    <dot />
    <stem>down</stem>
    <staff>1</staff>
   </note>
   <note color="#000000" default-x="101" default-y="-35">
    <pitch>
     <step>A</step>
     <octave>3</octave>
    </pitch>
    <duration>256</duration>
    <instrument id="P2-I1" />
    <voice>3</voice>
    <type>quarter</type>
    <stem>down</stem>
    <staff>1</staff>
   </note>
   <backup>
    <duration>1024</duration>
   </backup>
   <note color="#000000" default-x="15" default-y="-72">
    <pitch>
     <step>F</step>
     <octave>2</octave>
    </pitch>
    <duration>768</duration>
    <instrument id="P2-I1" />
    <voice>4</voice>
    <type>half</type>
    <dot />
    <stem>down</stem>
    <staff>1</staff>
   </note>
   <note color="#000000" default-x="101" default-y="-50">
    <pitch>
     <step>E</step>
     <alter>-1</alter>
     <octave>3</octave>
    </pitch>
    <duration>256</duration>
    <instrument id="P2-I1" />
    <voice>4</voice>
    <type>quarter</type>
    <stem>down</stem>
    <staff>1</staff>
   </note>
  </measure>
  <!--============== Part: P2, Measure: 7 ==============-->
  <measure number="7" width="273">
   <note color="#000000" default-x="15" default-y="-30">
    <pitch>
     <step>B</step>
     <alter>-1</alter>
     <octave>3</octave>
    </pitch>
    <duration>256</duration>
    <instrument id="P2-I1" />
    <voice>3</voice>
    <type>quarter</type>
    <stem>down</stem>
    <staff>1</staff>
   </note>
   <note color="#000000" default-x="79" default-y="-45">
    <pitch>
     <step>F</step>
     <octave>3</octave>
    </pitch>
    <duration>256</duration>
    <instrument id="P2-I1" />
    <voice>3</voice>
    <type>quarter</type>
    <stem>down</stem>
    <staff>1</staff>
   </note>
   <note color="#000000" default-x="144" default-y="-35">
    <pitch>
     <step>A</step>
     <octave>3</octave>
    </pitch>
    <duration>256</duration>
    <instrument id="P2-I1" />
    <voice>3</voice>
    <type>quarter</type>
    <stem>down</stem>
    <staff>1</staff>
   </note>
   <note color="#000000" default-x="208" default-y="-40">
    <pitch>
     <step>G</step>
     <octave>3</octave>
    </pitch>
    <duration>256</duration>
    <instrument id="P2-I1" />
    <voice>3</voice>
    <type>quarter</type>
    <stem>down</stem>
    <staff>1</staff>
   </note>
   <backup>
    <duration>1024</duration>
   </backup>
   <note color="#000000" default-x="15" default-y="-55">
    <pitch>
     <step>D</step>
     <octave>3</octave>
    </pitch>
    <duration>256</duration>
    <instrument id="P2-I1" />
    <voice>4</voice>
    <type>quarter</type>
    <stem>down</stem>
    <staff>1</staff>
   </note>
   <note color="#000000" default-x="79" default-y="-55">
    <pitch>
     <step>D</step>
     <octave>3</octave>
    </pitch>
    <duration>256</duration>
    <instrument id="P2-I1" />
    <voice>4</voice>
    <type>quarter</type>
    <stem>down</stem>
    <staff>1</staff>
   </note>
   <note color="#000000" default-x="144" default-y="-57">
    <pitch>
     <step>C</step>
     <octave>3</octave>
    </pitch>
    <duration>256</duration>
    <instrument id="P2-I1" />
    <voice>4</voice>
    <type>quarter</type>
    <stem>down</stem>
    <staff>1</staff>
   </note>
   <note color="#000000" default-x="208" default-y="-60">
    <pitch>
     <step>B</step>
     <alter>-1</alter>
     <octave>2</octave>
    </pitch>
    <duration>256</duration>
    <instrument id="P2-I1" />
    <voice>4</voice>
    <type>quarter</type>
    <stem>down</stem>
    <staff>1</staff>
   </note>
  </measure>
  <!--============== Part: P2, Measure: 8 ==============-->
  <measure number="8" width="177">
   <note color="#000000" default-x="15" default-y="-54">
    <pitch>
     <step>C</step>
     <octave>4</octave>
    </pitch>
    <duration>256</duration>
    <instrument id="P2-I1" />
    <voice>3</voice>
    <type>quarter</type>
    <stem>down</stem>
    <staff>1</staff>
    <notations>
     <slur color="#000000" type="start" orientation="over" />
    </notations>
   </note>
   <note color="#000000" default-x="59" default-y="-55">
    <pitch>
     <step>B</step>
     <alter>-1</alter>
     <octave>3</octave>
    </pitch>
    <duration>256</duration>
    <instrument id="P2-I1" />
    <voice>3</voice>
    <type>quarter</type>
    <stem>down</stem>
    <staff>1</staff>
   </note>
   <note color="#000000" default-x="108" default-y="-61">
    <pitch>
     <step>A</step>
     <octave>3</octave>
    </pitch>
    <duration>256</duration>
    <instrument id="P2-I1" />
    <voice>3</voice>
    <type>quarter</type>
    <stem>down</stem>
    <staff>1</staff>
    <notations>
     <slur color="#000000" type="stop" orientation="over" />
    </notations>
   </note>
   <barline>
    <bar-style>none</bar-style>
   </barline>
   <backup>
    <duration>768</duration>
   </backup>
   <note color="#000000" default-x="15" default-y="-62">
    <pitch>
     <step>A</step>
     <octave>2</octave>
    </pitch>
    <duration>256</duration>
    <instrument id="P2-I1" />
    <voice>4</voice>
    <type>quarter</type>
    <stem>down</stem>
    <staff>1</staff>
    <notations>
     <slur color="#000000" type="start" orientation="under" number="2" />
    </notations>
   </note>
   <note color="#000000" default-x="59" default-y="-67">
    <pitch>
     <step>G</step>
     <octave>2</octave>
    </pitch>
    <duration>256</duration>
    <instrument id="P2-I1" />
    <voice>4</voice>
    <type>quarter</type>
    <stem>down</stem>
    <staff>1</staff>
   </note>
   <note color="#000000" default-x="108" default-y="-72">
    <pitch>
     <step>F</step>
     <octave>2</octave>
    </pitch>
    <duration>256</duration>
    <instrument id="P2-I1" />
    <voice>4</voice>
    <type>quarter</type>
    <stem>down</stem>
    <staff>1</staff>
    <notations>
     <slur color="#000000" type="stop" orientation="under" number="2" />
    </notations>
   </note>
  </measure>
  <!--============== Part: P2, Measure: 9 ==============-->
  <measure number="9" width="130">
   <print new-system="yes">
    <system-layout>
     <system-margins>
      <left-margin>1</left-margin>
      <right-margin>0</right-margin>
     </system-margins>
    </system-layout>
    <staff-layout number="1">
     <staff-distance>183</staff-distance>
    </staff-layout>
   </print>
   <attributes>
    <staff-details number="1" print-object="yes" />
   </attributes>
   <barline location="left">
    <ending number="1" type="start" print-object="no" />
   </barline>
   <direction>
    <direction-type>
     <other-direction default-y="90" print-object="no">Arrow head (small) right</other-direction>
    </direction-type>
    <voice>1</voice>
    <staff>1</staff>
   </direction>
   <note color="#000000" default-x="80" default-y="-40">
    <pitch>
     <step>G</step>
     <octave>3</octave>
    </pitch>
    <duration>256</duration>
    <instrument id="P2-I1" />
    <voice>3</voice>
    <type>quarter</type>
    <stem>down</stem>
    <staff>1</staff>
   </note>
   <backup>
    <duration>256</duration>
   </backup>
   <note color="#000000" default-x="80" default-y="-50">
    <pitch>
     <step>E</step>
     <alter>-1</alter>
     <octave>3</octave>
    </pitch>
    <duration>256</duration>
    <instrument id="P2-I1" />
    <voice>4</voice>
    <type>quarter</type>
    <stem>down</stem>
    <staff>1</staff>
   </note>
  </measure>
  <!--============== Part: P2, Measure: 10 ==============-->
  <measure number="10" width="275">
   <note color="#000000" default-x="24" default-y="-30">
    <pitch>
     <step>B</step>
     <alter>-1</alter>
     <octave>3</octave>
    </pitch>
    <duration>256</duration>
    <instrument id="P2-I1" />
    <voice>3</voice>
    <type>quarter</type>
    <stem>down</stem>
    <staff>1</staff>
   </note>
   <note color="#000000" default-x="88" default-y="-45">
    <pitch>
     <step>F</step>
     <octave>3</octave>
    </pitch>
    <duration>256</duration>
    <instrument id="P2-I1" />
    <voice>3</voice>
    <type>quarter</type>
    <stem>down</stem>
    <staff>1</staff>
   </note>
   <note color="#000000" default-x="155" default-y="-25">
    <pitch>
     <step>C</step>
     <octave>4</octave>
    </pitch>
    <duration>256</duration>
    <instrument id="P2-I1" />
    <voice>3</voice>
    <type>quarter</type>
    <stem>down</stem>
    <staff>1</staff>
   </note>
   <note color="#000000" default-x="224" default-y="-30">
    <pitch>
     <step>B</step>
     <alter>-1</alter>
     <octave>3</octave>
    </pitch>
    <duration>256</duration>
    <instrument id="P2-I1" />
    <voice>3</voice>
    <type>quarter</type>
    <stem>down</stem>
    <staff>1</staff>
   </note>
   <backup>
    <duration>1024</duration>
   </backup>
   <note color="#000000" default-x="24" default-y="-55">
    <pitch>
     <step>D</step>
     <octave>3</octave>
    </pitch>
    <duration>256</duration>
    <instrument id="P2-I1" />
    <voice>4</voice>
    <type>quarter</type>
    <stem>down</stem>
    <staff>1</staff>
   </note>
   <note color="#000000" default-x="88" default-y="-60">
    <pitch>
     <step>B</step>
     <alter>-1</alter>
     <octave>2</octave>
    </pitch>
    <duration>256</duration>
    <instrument id="P2-I1" />
    <voice>4</voice>
    <type>quarter</type>
    <stem>down</stem>
    <staff>1</staff>
   </note>
   <note color="#000000" default-x="155" default-y="-57">
    <pitch>
     <step>C</step>
     <octave>3</octave>
    </pitch>
    <duration>256</duration>
    <instrument id="P2-I1" />
    <voice>4</voice>
    <type>quarter</type>
    <stem>down</stem>
    <staff>1</staff>
   </note>
   <note color="#000000" default-x="224" default-y="-57">
    <pitch>
     <step>C</step>
     <octave>3</octave>
    </pitch>
    <duration>256</duration>
    <instrument id="P2-I1" />
    <voice>4</voice>
    <type>quarter</type>
    <stem>down</stem>
    <staff>1</staff>
   </note>
  </measure>
  <!--============== Part: P2, Measure: 11 ==============-->
  <measure number="11" width="206">
   <note color="#000000" default-x="17" default-y="21">
    <pitch>
     <step>A</step>
     <octave>3</octave>
    </pitch>
    <duration>768</duration>
    <instrument id="P2-I1" />
    <voice>3</voice>
    <type>half</type>
    <dot />
    <stem>up</stem>
    <staff>1</staff>
   </note>
   <note color="#000000" default-x="152" default-y="-35">
    <pitch>
     <step>A</step>
     <octave>3</octave>
    </pitch>
    <duration>256</duration>
    <instrument id="P2-I1" />
    <voice>3</voice>
    <type>quarter</type>
    <stem>down</stem>
    <staff>1</staff>
   </note>
   <backup>
    <duration>1024</duration>
   </backup>
   <note color="#000000" default-x="17" default-y="-45">
    <pitch>
     <step>F</step>
     <octave>3</octave>
    </pitch>
    <duration>256</duration>
    <instrument id="P2-I1" />
    <voice>4</voice>
    <type>quarter</type>
    <stem>down</stem>
    <staff>1</staff>
    <notations>
     <slur color="#000000" type="start" orientation="under" />
    </notations>
   </note>
   <note color="#000000" default-x="65" default-y="-50">
    <pitch>
     <step>E</step>
     <alter>-1</alter>
     <octave>3</octave>
    </pitch>
    <duration>256</duration>
    <instrument id="P2-I1" />
    <voice>4</voice>
    <type>quarter</type>
    <stem>down</stem>
    <staff>1</staff>
   </note>
   <note color="#000000" default-x="101" default-y="-55">
    <pitch>
     <step>D</step>
     <octave>3</octave>
    </pitch>
    <duration>256</duration>
    <instrument id="P2-I1" />
    <voice>4</voice>
    <type>quarter</type>
    <stem>down</stem>
    <staff>1</staff>
    <notations>
     <slur color="#000000" type="stop" orientation="under" />
    </notations>
   </note>
   <note color="#000000" default-x="152" default-y="-57">
    <pitch>
     <step>C</step>
     <octave>3</octave>
    </pitch>
    <duration>256</duration>
    <instrument id="P2-I1" />
    <voice>4</voice>
    <type>quarter</type>
    <stem>down</stem>
    <staff>1</staff>
   </note>
  </measure>
  <!--============== Part: P2, Measure: 12 ==============-->
  <measure number="12" width="161">
   <note color="#000000" default-x="15" default-y="27">
    <pitch>
     <step>B</step>
     <alter>-1</alter>
     <octave>3</octave>
    </pitch>
    <duration>256</duration>
    <instrument id="P2-I1" />
    <voice>3</voice>
    <type>quarter</type>
    <stem>up</stem>
    <staff>1</staff>
    <notations>
     <slur color="#000000" type="start" orientation="over" />
    </notations>
   </note>
   <note color="#000000" default-x="58" default-y="30">
    <pitch>
     <step>C</step>
     <octave>4</octave>
    </pitch>
    <duration>256</duration>
    <instrument id="P2-I1" />
    <voice>3</voice>
    <type>quarter</type>
    <stem>up</stem>
    <staff>1</staff>
    <notations>
     <slur color="#000000" type="stop" orientation="over" />
    </notations>
   </note>
   <note color="#000000" default-x="109" default-y="-20">
    <pitch>
     <step>D</step>
     <octave>4</octave>
    </pitch>
    <duration>512</duration>
    <instrument id="P2-I1" />
    <voice>3</voice>
    <type>half</type>
    <stem>down</stem>
    <staff>1</staff>
   </note>
   <backup>
    <duration>1024</duration>
   </backup>
   <note color="#000000" default-x="15" default-y="-60">
    <pitch>
     <step>B</step>
     <alter>-1</alter>
     <octave>2</octave>
    </pitch>
    <duration>512</duration>
    <instrument id="P2-I1" />
    <voice>4</voice>
    <type>half</type>
    <stem>down</stem>
    <staff>1</staff>
   </note>
   <note color="#000000" default-x="109" default-y="-35">
    <pitch>
     <step>A</step>
     <alter>-1</alter>
     <octave>3</octave>
    </pitch>
    <duration>512</duration>
    <instrument id="P2-I1" />
    <voice>4</voice>
    <type>half</type>
    <accidental>flat</accidental>
    <stem>down</stem>
    <staff>1</staff>
   </note>
  </measure>
  <!--============== Part: P2, Measure: 13 ==============-->
  <measure number="13" width="166">
   <note color="#000000" default-x="15" default-y="26">
    <pitch>
     <step>B</step>
     <alter>-1</alter>
     <octave>3</octave>
    </pitch>
    <duration>768</duration>
    <instrument id="P2-I1" />
    <voice>3</voice>
    <type>half</type>
    <dot />
    <stem>up</stem>
    <staff>1</staff>
   </note>
   <note color="#000000" default-x="126" default-y="29">
    <pitch>
     <step>A</step>
     <octave>3</octave>
    </pitch>
    <duration>256</duration>
    <instrument id="P2-I1" />
    <voice>3</voice>
    <type>quarter</type>
    <stem>up</stem>
    <staff>1</staff>
   </note>
   <backup>
    <duration>1024</duration>
   </backup>
   <note color="#000000" default-x="15" default-y="-40">
    <pitch>
     <step>G</step>
     <octave>3</octave>
    </pitch>
    <duration>512</duration>
    <instrument id="P2-I1" />
    <voice>4</voice>
    <type>half</type>
    <stem>down</stem>
    <staff>1</staff>
   </note>
   <note color="#000000" default-x="83" default-y="-45">
    <pitch>
     <step>F</step>
     <octave>3</octave>
    </pitch>
    <duration>512</duration>
    <instrument id="P2-I1" />
    <voice>4</voice>
    <type>half</type>
    <stem>down</stem>
    <staff>1</staff>
   </note>
  </measure>
  <!--============== Part: P2, Measure: 14 ==============-->
  <measure number="14" width="109">
   <note color="#000000" default-x="15" default-y="-30">
    <pitch>
     <step>B</step>
     <alter>-1</alter>
     <octave>3</octave>
    </pitch>
    <duration>768</duration>
    <instrument id="P2-I1" />
    <voice>3</voice>
    <type>half</type>
    <dot />
    <stem>down</stem>
    <staff>1</staff>
   </note>
   <forward>
    <duration>256</duration>
   </forward>
   <barline location="right">
    <bar-style>light-heavy</bar-style>
    <ending number="1" type="stop" print-object="no" />
   </barline>
   <backup>
    <duration>1024</duration>
   </backup>
   <note color="#000000" default-x="15" default-y="-60">
    <pitch>
     <step>B</step>
     <alter>-1</alter>
     <octave>2</octave>
    </pitch>
    <duration>768</duration>
    <instrument id="P2-I1" />
    <voice>4</voice>
    <type>half</type>
    <dot />
    <stem>down</stem>
    <staff>1</staff>
   </note>
  </measure>
 </part>
</score-partwise>
