<?xml version="1.0" encoding='UTF-8' standalone='no' ?>
<!DOCTYPE score-partwise PUBLIC "-//Recordare//DTD MusicXML 3.0 Partwise//EN" "http://www.musicxml.org/dtds/partwise.dtd">
<score-partwise version="3.0">
 <work>
  <work-title>O Come, O Come, Immanuel</work-title>
 </work>
 <identification>
  <rights>Hymnary.org </rights>
  <encoding>
   <encoding-date>2013-05-29</encoding-date>
   <encoder>Brian</encoder>
   <software>Sibelius 7.1.3</software>
   <software>Direct export, not from Dolet</software>
   <encoding-description>Sibelius / MusicXML 3.0</encoding-description>
   <supports element="print" type="yes" value="yes" attribute="new-system" />
   <supports element="print" type="yes" value="yes" attribute="new-page" />
   <supports element="accidental" type="yes" />
   <supports element="beam" type="yes" />
   <supports element="stem" type="yes" />
  </encoding>
 </identification>
 <defaults>
  <scaling>
   <millimeters>149.098</millimeters>
   <tenths>948</tenths>
  </scaling>
  <page-layout>
   <page-height>1454</page-height>
   <page-width>948</page-width>
   <page-margins type="both">
    <left-margin>111</left-margin>
    <right-margin>111</right-margin>
    <top-margin>80</top-margin>
    <bottom-margin>80</bottom-margin>
   </page-margins>
  </page-layout>
  <system-layout>
   <system-distance>92</system-distance>
  </system-layout>
  <appearance>
   <line-width type="stem">0.9375</line-width>
   <line-width type="beam">4.0625</line-width>
   <line-width type="staff">0.9375</line-width>
   <line-width type="light barline">0.9375</line-width>
   <line-width type="heavy barline">3.125</line-width>
   <line-width type="leger">1.5625</line-width>
   <line-width type="ending">1.5625</line-width>
   <line-width type="wedge">1.25</line-width>
   <line-width type="enclosure">0.9375</line-width>
   <line-width type="tuplet bracket">1.25</line-width>
   <line-width type="bracket">5</line-width>
   <line-width type="dashes">1.5625</line-width>
   <line-width type="extend">0.9375</line-width>
   <line-width type="octave shift">1.5625</line-width>
   <line-width type="pedal">1.5625</line-width>
   <line-width type="slur middle">1.5625</line-width>
   <line-width type="slur tip">0.625</line-width>
   <line-width type="tie middle">1.5625</line-width>
   <line-width type="tie tip">0.625</line-width>
   <note-size type="cue">92</note-size>
   <note-size type="grace">60</note-size>
  </appearance>
  <music-font font-family="Opus Std" font-size="17.8186" />
  <lyric-font font-family="Times New Roman" font-size="10.3014" />
  <lyric-language xml:lang="en" />
 </defaults>
 <credit page="1">
  <credit-words default-x="474" default-y="75" font-family="Times New Roman" font-style="normal" font-size="19.7675" font-weight="bold" justify="center" valign="middle">O Come, O Come, Immanuel</credit-words>
 </credit>
 <credit page="1">
  <credit-words default-x="474" default-y="137" font-family="Times New Roman" font-style="italic" font-size="9.0485" font-weight="normal" justify="center" valign="middle">Hymnary.org </credit-words>
 </credit>
 <part-list>
  <score-part id="P1">
   <part-name>SOPRANO ALTO</part-name>
   <part-name-display>
    <display-text>SOPRANO</display-text>
    <display-text>ALTO</display-text>
   </part-name-display>
   <part-abbreviation>S. A.</part-abbreviation>
   <part-abbreviation-display>
    <display-text>S.</display-text>
    <display-text>A.</display-text>
   </part-abbreviation-display>
   <score-instrument id="P1-I1">
    <instrument-name>Soprano</instrument-name>
    <virtual-instrument>
     <virtual-library>General MIDI</virtual-library>
     <virtual-name>Soprano Ensemble</virtual-name>
    </virtual-instrument>
   </score-instrument>
  </score-part>
 </part-list>
 <part id="P1">
  <!--============== Part: P1, Measure: 0 ==============-->
  <measure number="0" width="144">
   <print new-page="yes">
    <system-layout>
     <system-margins>
      <left-margin>1</left-margin>
      <right-margin>0</right-margin>
     </system-margins>
     <top-system-distance>150</top-system-distance>
    </system-layout>
    <measure-layout>
     <measure-distance>1</measure-distance>
    </measure-layout>
   </print>
   <attributes>
    <divisions>256</divisions>
    <key color="#000000">
     <fifths>1</fifths>
     <mode>major</mode>
    </key>
    <time color="#000000">
     <beats>4</beats>
     <beat-type>4</beat-type>
    </time>
    <staves>1</staves>
    <clef number="1" color="#000000">
     <sign>G</sign>
     <line>2</line>
    </clef>
    <staff-details number="1" print-object="yes" />
   </attributes>
   <direction>
    <direction-type>
     <words default-x="59" default-y="-80" justify="center" valign="middle" font-family="Times New Roman" font-style="normal" font-size="10.3014" font-weight="normal">1</words>
    </direction-type>
    <voice>1</voice>
    <staff>1</staff>
   </direction>
   <direction>
    <direction-type>
     <words default-x="59" default-y="-105" justify="center" valign="middle" font-family="Times New Roman" font-style="normal" font-size="10.3014" font-weight="normal">2</words>
    </direction-type>
    <voice>1</voice>
    <staff>1</staff>
   </direction>
   <direction>
    <direction-type>
     <words default-x="59" default-y="-130" justify="center" valign="middle" font-family="Times New Roman" font-style="normal" font-size="10.3014" font-weight="normal">3</words>
    </direction-type>
    <voice>1</voice>
    <staff>1</staff>
   </direction>
   <direction>
    <direction-type>
     <words default-x="59" default-y="-155" justify="center" valign="middle" font-family="Times New Roman" font-style="normal" font-size="10.3014" font-weight="normal">4</words>
    </direction-type>
    <voice>1</voice>
    <staff>1</staff>
   </direction>
   <note color="#000000" default-x="89" default-y="-5">
    <pitch>
     <step>E</step>
     <octave>4</octave>
    </pitch>
    <duration>256</duration>
    <instrument id="P1-I1" />
    <voice>1</voice>
    <type>quarter</type>
    <stem>up</stem>
    <staff>1</staff>
    <lyric default-y="-80" number="part1verse1" color="#000000">
     <syllabic>single</syllabic>
     <text>O</text>
    </lyric>
    <lyric default-y="-105" number="part1verse2" color="#000000">
     <syllabic>single</syllabic>
     <text>O</text>
    </lyric>
    <lyric default-y="-130" number="part1verse3" color="#000000">
     <syllabic>single</syllabic>
     <text>O</text>
    </lyric>
    <lyric default-y="-155" number="part1verse4" color="#000000">
     <syllabic>single</syllabic>
     <text>O</text>
    </lyric>
   </note>
  </measure>
  <!--============== Part: P1, Measure: 0 ==============-->
  <measure number="0" width="234">
   <note color="#000000" default-x="15" default-y="5">
    <pitch>
     <step>G</step>
     <octave>4</octave>
    </pitch>
    <duration>256</duration>
    <instrument id="P1-I1" />
    <voice>1</voice>
    <type>quarter</type>
    <stem>up</stem>
    <staff>1</staff>
    <lyric default-y="-80" number="part1verse1" color="#000000">
     <syllabic>single</syllabic>
     <text>come,</text>
    </lyric>
    <lyric default-y="-105" number="part1verse2" color="#000000">
     <syllabic>single</syllabic>
     <text>come,</text>
    </lyric>
    <lyric default-y="-130" number="part1verse3" color="#000000">
     <syllabic>single</syllabic>
     <text>come,</text>
    </lyric>
    <lyric default-y="-155" number="part1verse4" color="#000000">
     <syllabic>single</syllabic>
     <text>come,</text>
    </lyric>
   </note>
   <note color="#000000" default-x="69" default-y="15">
    <pitch>
     <step>B</step>
     <octave>4</octave>
    </pitch>
    <duration>256</duration>
    <instrument id="P1-I1" />
    <voice>1</voice>
    <type>quarter</type>
    <stem>up</stem>
    <staff>1</staff>
    <lyric default-y="-80" number="part1verse1" color="#000000">
     <syllabic>single</syllabic>
     <text>O</text>
    </lyric>
    <lyric default-y="-105" number="part1verse2" color="#000000">
     <syllabic>single</syllabic>
     <text>O</text>
    </lyric>
    <lyric default-y="-130" number="part1verse3" color="#000000">
     <syllabic>single</syllabic>
     <text>O</text>
    </lyric>
    <lyric default-y="-155" number="part1verse4" color="#000000">
     <syllabic>single</syllabic>
     <text>O</text>
    </lyric>
   </note>
   <note color="#000000" default-x="124" default-y="15">
    <pitch>
     <step>B</step>
     <octave>4</octave>
    </pitch>
    <duration>256</duration>
    <instrument id="P1-I1" />
    <voice>1</voice>
    <type>quarter</type>
    <stem>up</stem>
    <staff>1</staff>
    <lyric default-y="-80" number="part1verse1" color="#000000">
     <syllabic>single</syllabic>
     <text>come,</text>
    </lyric>
    <lyric default-y="-105" number="part1verse2" color="#000000">
     <syllabic>begin</syllabic>
     <text>Wis</text>
    </lyric>
    <lyric default-y="-130" number="part1verse3" color="#000000">
     <syllabic>single</syllabic>
     <text>come</text>
    </lyric>
    <lyric default-y="-155" number="part1verse4" color="#000000">
     <syllabic>single</syllabic>
     <text>Branch</text>
    </lyric>
   </note>
   <note color="#000000" default-x="180" default-y="15">
    <pitch>
     <step>B</step>
     <octave>4</octave>
    </pitch>
    <duration>256</duration>
    <instrument id="P1-I1" />
    <voice>1</voice>
    <type>quarter</type>
    <stem>up</stem>
    <staff>1</staff>
    <lyric default-y="-80" number="part1verse1" color="#000000">
     <syllabic>begin</syllabic>
     <text>Im</text>
    </lyric>
    <lyric default-y="-105" number="part1verse2" color="#000000">
     <syllabic>end</syllabic>
     <text>dom</text>
    </lyric>
    <lyric default-y="-130" number="part1verse3" color="#000000">
     <syllabic>single</syllabic>
     <text>great</text>
    </lyric>
    <lyric default-y="-155" number="part1verse4" color="#000000">
     <syllabic>single</syllabic>
     <text>of</text>
    </lyric>
   </note>
  </measure>
  <!--============== Part: P1, Measure: 1 ==============-->
  <measure number="1" width="345">
   <note color="#000000" default-x="15" default-y="10">
    <pitch>
     <step>A</step>
     <octave>4</octave>
    </pitch>
    <duration>256</duration>
    <instrument id="P1-I1" />
    <voice>1</voice>
    <type>quarter</type>
    <stem>up</stem>
    <staff>1</staff>
    <notations>
     <slur color="#000000" type="start" orientation="under" />
    </notations>
    <lyric default-y="-80" number="part1verse1" color="#000000">
     <syllabic>middle</syllabic>
     <text>man</text>
    </lyric>
    <lyric default-y="-105" number="part1verse2" color="#000000">
     <syllabic>single</syllabic>
     <text>from</text>
    </lyric>
    <lyric default-y="-130" number="part1verse3" color="#000000">
     <syllabic>single</syllabic>
     <text>Lord</text>
    </lyric>
    <lyric default-y="-155" number="part1verse4" color="#000000">
     <syllabic>begin</syllabic>
     <text>Jes</text>
    </lyric>
   </note>
   <note color="#000000" default-x="69" default-y="-50">
    <pitch>
     <step>C</step>
     <octave>5</octave>
    </pitch>
    <duration>256</duration>
    <instrument id="P1-I1" />
    <voice>1</voice>
    <type>quarter</type>
    <stem>down</stem>
    <staff>1</staff>
   </note>
   <note color="#000000" default-x="124" default-y="15">
    <pitch>
     <step>B</step>
     <octave>4</octave>
    </pitch>
    <duration>256</duration>
    <instrument id="P1-I1" />
    <voice>1</voice>
    <type>quarter</type>
    <stem>up</stem>
    <staff>1</staff>
    <notations>
     <slur color="#000000" type="stop" orientation="under" />
    </notations>
   </note>
   <note color="#000000" default-x="179" default-y="10">
    <pitch>
     <step>A</step>
     <octave>4</octave>
    </pitch>
    <duration>256</duration>
    <instrument id="P1-I1" />
    <voice>1</voice>
    <type>quarter</type>
    <stem>up</stem>
    <staff>1</staff>
    <lyric default-y="-80" number="part1verse1" color="#000000">
     <syllabic>middle</syllabic>
     <text>u</text>
    </lyric>
    <lyric default-y="-105" number="part1verse2" color="#000000">
     <syllabic>single</syllabic>
     <text>on</text>
    </lyric>
    <lyric default-y="-130" number="part1verse3" color="#000000">
     <syllabic>single</syllabic>
     <text>of</text>
    </lyric>
    <lyric default-y="-155" number="part1verse4" color="#000000">
     <syllabic>end</syllabic>
     <text>se&apos;s</text>
    </lyric>
   </note>
   <note color="#000000" default-x="233" default-y="5">
    <pitch>
     <step>G</step>
     <octave>4</octave>
    </pitch>
    <duration>256</duration>
    <instrument id="P1-I1" />
    <voice>1</voice>
    <type>quarter</type>
    <stem>up</stem>
    <staff>1</staff>
    <lyric default-y="-80" number="part1verse1" color="#000000">
     <syllabic>end</syllabic>
     <text>el,</text>
    </lyric>
    <lyric default-y="-105" number="part1verse2" color="#000000">
     <syllabic>single</syllabic>
     <text>high,</text>
    </lyric>
    <lyric default-y="-130" number="part1verse3" color="#000000">
     <syllabic>single</syllabic>
     <text>might,</text>
    </lyric>
    <lyric default-y="-155" number="part1verse4" color="#000000">
     <syllabic>single</syllabic>
     <text>stem,</text>
    </lyric>
   </note>
   <note color="#000000" default-x="290" default-y="10">
    <pitch>
     <step>A</step>
     <octave>4</octave>
    </pitch>
    <duration>256</duration>
    <instrument id="P1-I1" />
    <voice>1</voice>
    <type>quarter</type>
    <stem>up</stem>
    <staff>1</staff>
    <lyric default-y="-80" number="part1verse1" color="#000000">
     <syllabic>single</syllabic>
     <text>and</text>
    </lyric>
    <lyric default-y="-105" number="part1verse2" color="#000000">
     <syllabic>single</syllabic>
     <text>who</text>
    </lyric>
    <lyric default-y="-130" number="part1verse3" color="#000000">
     <syllabic>single</syllabic>
     <text>who</text>
    </lyric>
    <lyric default-y="-155" number="part1verse4" color="#000000">
     <syllabic>begin</syllabic>
     <text>un</text>
    </lyric>
   </note>
  </measure>
  <!--============== Part: P1, Measure: 2 ==============-->
  <measure number="2" width="297">
   <print new-system="yes">
    <system-layout>
     <system-margins>
      <left-margin>0</left-margin>
      <right-margin>0</right-margin>
     </system-margins>
     <system-distance>201</system-distance>
    </system-layout>
   </print>
   <attributes>
    <staff-details number="1" print-object="yes" />
   </attributes>
   <note color="#000000" default-x="70" default-y="-50">
    <pitch>
     <step>C</step>
     <octave>5</octave>
    </pitch>
    <duration>256</duration>
    <instrument id="P1-I1" />
    <voice>1</voice>
    <type>quarter</type>
    <stem>down</stem>
    <staff>1</staff>
    <lyric default-y="-80" number="part1verse1" color="#000000">
     <syllabic>begin</syllabic>
     <text>ran</text>
    </lyric>
    <lyric default-y="-105" number="part1verse2" color="#000000">
     <syllabic>begin</syllabic>
     <text>or</text>
    </lyric>
    <lyric default-y="-130" number="part1verse3" color="#000000">
     <syllabic>single</syllabic>
     <text>to</text>
    </lyric>
    <lyric default-y="-155" number="part1verse4" color="#000000">
     <syllabic>end</syllabic>
     <text>to</text>
    </lyric>
   </note>
   <note color="#000000" default-x="126" default-y="5">
    <pitch>
     <step>G</step>
     <octave>4</octave>
    </pitch>
    <duration>256</duration>
    <instrument id="P1-I1" />
    <voice>1</voice>
    <type>quarter</type>
    <stem>up</stem>
    <staff>1</staff>
    <lyric default-y="-80" number="part1verse1" color="#000000">
     <syllabic>end</syllabic>
     <text>som</text>
    </lyric>
    <lyric default-y="-105" number="part1verse2" color="#000000">
     <syllabic>end</syllabic>
     <text>dered</text>
    </lyric>
    <lyric default-y="-130" number="part1verse3" color="#000000">
     <syllabic>single</syllabic>
     <text>your</text>
    </lyric>
    <lyric default-y="-155" number="part1verse4" color="#000000">
     <syllabic>single</syllabic>
     <text>your</text>
    </lyric>
   </note>
   <note color="#000000" default-x="183" default-y="-5">
    <pitch>
     <step>E</step>
     <octave>4</octave>
    </pitch>
    <duration>256</duration>
    <instrument id="P1-I1" />
    <voice>1</voice>
    <type>quarter</type>
    <stem>up</stem>
    <staff>1</staff>
    <lyric default-y="-80" number="part1verse1" color="#000000">
     <syllabic>begin</syllabic>
     <text>cap</text>
    </lyric>
    <lyric default-y="-105" number="part1verse2" color="#000000">
     <syllabic>single</syllabic>
     <text>all</text>
    </lyric>
    <lyric default-y="-130" number="part1verse3" color="#000000">
     <syllabic>single</syllabic>
     <text>tribes</text>
    </lyric>
    <lyric default-y="-155" number="part1verse4" color="#000000">
     <syllabic>single</syllabic>
     <text>own</text>
    </lyric>
   </note>
   <note color="#000000" default-x="240" default-y="5">
    <pitch>
     <step>G</step>
     <octave>4</octave>
    </pitch>
    <duration>256</duration>
    <instrument id="P1-I1" />
    <voice>1</voice>
    <type>quarter</type>
    <stem>up</stem>
    <staff>1</staff>
    <lyric default-y="-80" number="part1verse1" color="#000000">
     <syllabic>end</syllabic>
     <text>tive</text>
    </lyric>
    <lyric default-y="-105" number="part1verse2" color="#000000">
     <syllabic>single</syllabic>
     <text>things</text>
    </lyric>
    <lyric default-y="-130" number="part1verse3" color="#000000">
     <syllabic>single</syllabic>
     <text>on</text>
    </lyric>
    <lyric default-y="-155" number="part1verse4" color="#000000">
     <syllabic>single</syllabic>
     <text>and</text>
    </lyric>
   </note>
  </measure>
  <!--============== Part: P1, Measure: 3 ==============-->
  <measure number="3" width="242">
   <note color="#000000" default-x="15" default-y="10">
    <pitch>
     <step>A</step>
     <octave>4</octave>
    </pitch>
    <duration>256</duration>
    <instrument id="P1-I1" />
    <voice>1</voice>
    <type>quarter</type>
    <stem>up</stem>
    <staff>1</staff>
    <notations>
     <slur color="#000000" type="start" orientation="over" />
    </notations>
    <lyric default-y="-80" number="part1verse1" color="#000000">
     <syllabic>begin</syllabic>
     <text>Is</text>
    </lyric>
    <lyric default-y="-105" number="part1verse2" color="#000000">
     <syllabic>begin</syllabic>
     <text>might</text>
    </lyric>
    <lyric default-y="-130" number="part1verse3" color="#000000">
     <syllabic>begin</syllabic>
     <text>Si</text>
    </lyric>
    <lyric default-y="-155" number="part1verse4" color="#000000">
     <syllabic>begin</syllabic>
     <text>res</text>
    </lyric>
   </note>
   <note color="#000000" default-x="71">
    <pitch>
     <step>F</step>
     <alter>1</alter>
     <octave>4</octave>
    </pitch>
    <duration>256</duration>
    <instrument id="P1-I1" />
    <voice>1</voice>
    <type>quarter</type>
    <stem>up</stem>
    <staff>1</staff>
   </note>
   <note color="#000000" default-x="128" default-y="-5">
    <pitch>
     <step>E</step>
     <octave>4</octave>
    </pitch>
    <duration>256</duration>
    <instrument id="P1-I1" />
    <voice>1</voice>
    <type>quarter</type>
    <stem>up</stem>
    <staff>1</staff>
    <notations>
     <slur color="#000000" type="stop" orientation="over" />
    </notations>
   </note>
   <note color="#000000" default-x="185" default-y="-10">
    <pitch>
     <step>D</step>
     <octave>4</octave>
    </pitch>
    <duration>256</duration>
    <instrument id="P1-I1" />
    <voice>1</voice>
    <type>quarter</type>
    <stem>up</stem>
    <staff>1</staff>
    <lyric default-y="-80" number="part1verse1" color="#000000">
     <syllabic>middle</syllabic>
     <text>ra</text>
    </lyric>
    <lyric default-y="-105" number="part1verse2" color="#000000">
     <syllabic>middle</syllabic>
     <text>i</text>
    </lyric>
    <lyric default-y="-130" number="part1verse3" color="#000000">
     <syllabic>end</syllabic>
     <text>nai&apos;s</text>
    </lyric>
    <lyric default-y="-155" number="part1verse4" color="#000000">
     <syllabic>end</syllabic>
     <text>cue</text>
    </lyric>
   </note>
  </measure>
  <!--============== Part: P1, Measure: 4 ==============-->
  <measure number="4" width="186">
   <note color="#000000" default-x="15" default-y="-5">
    <pitch>
     <step>E</step>
     <octave>4</octave>
    </pitch>
    <duration>768</duration>
    <instrument id="P1-I1" />
    <voice>1</voice>
    <type>half</type>
    <dot />
    <stem>up</stem>
    <staff>1</staff>
    <lyric default-y="-80" number="part1verse1" color="#000000">
     <syllabic>end</syllabic>
     <text>el</text>
    </lyric>
    <lyric default-y="-105" number="part1verse2" color="#000000">
     <syllabic>end</syllabic>
     <text>ly</text>
    </lyric>
    <lyric default-y="-130" number="part1verse3" color="#000000">
     <syllabic>single</syllabic>
     <text>height</text>
    </lyric>
    <lyric default-y="-155" number="part1verse4" color="#000000">
     <syllabic>single</syllabic>
     <text>them!</text>
    </lyric>
   </note>
   <note color="#000000" default-x="129" default-y="10">
    <pitch>
     <step>A</step>
     <octave>4</octave>
    </pitch>
    <duration>256</duration>
    <instrument id="P1-I1" />
    <voice>1</voice>
    <type>quarter</type>
    <stem>up</stem>
    <staff>1</staff>
    <lyric default-y="-80" number="part1verse1" color="#000000">
     <syllabic>single</syllabic>
     <text>that</text>
    </lyric>
    <lyric default-y="-105" number="part1verse2" color="#000000">
     <syllabic>single</syllabic>
     <text>to</text>
    </lyric>
    <lyric default-y="-130" number="part1verse3" color="#000000">
     <syllabic>single</syllabic>
     <text>in</text>
    </lyric>
    <lyric default-y="-155" number="part1verse4" color="#000000">
     <syllabic>single</syllabic>
     <text>From</text>
    </lyric>
   </note>
  </measure>
  <!--============== Part: P1, Measure: 5 ==============-->
  <measure number="5" width="275">
   <print new-system="yes">
    <system-layout>
     <system-margins>
      <left-margin>0</left-margin>
      <right-margin>0</right-margin>
     </system-margins>
     <system-distance>202</system-distance>
    </system-layout>
   </print>
   <attributes>
    <staff-details number="1" print-object="yes" />
   </attributes>
   <note color="#000000" default-x="70" default-y="10">
    <pitch>
     <step>A</step>
     <octave>4</octave>
    </pitch>
    <duration>256</duration>
    <instrument id="P1-I1" />
    <voice>1</voice>
    <type>quarter</type>
    <stem>up</stem>
    <staff>1</staff>
    <lyric default-y="-80" number="part1verse1" color="#000000">
     <syllabic>single</syllabic>
     <text>mourns</text>
    </lyric>
    <lyric default-y="-105" number="part1verse2" color="#000000">
     <syllabic>single</syllabic>
     <text>us</text>
    </lyric>
    <lyric default-y="-130" number="part1verse3" color="#000000">
     <syllabic>begin</syllabic>
     <text>an</text>
    </lyric>
    <lyric default-y="-155" number="part1verse4" color="#000000">
     <syllabic>single</syllabic>
     <text>depths</text>
    </lyric>
   </note>
   <note color="#000000" default-x="122" default-y="-5">
    <pitch>
     <step>E</step>
     <octave>4</octave>
    </pitch>
    <duration>256</duration>
    <instrument id="P1-I1" />
    <voice>1</voice>
    <type>quarter</type>
    <stem>up</stem>
    <staff>1</staff>
    <lyric default-y="-80" number="part1verse1" color="#000000">
     <syllabic>single</syllabic>
     <text>in</text>
    </lyric>
    <lyric default-y="-105" number="part1verse2" color="#000000">
     <syllabic>single</syllabic>
     <text>the</text>
    </lyric>
    <lyric default-y="-130" number="part1verse3" color="#000000">
     <syllabic>end</syllabic>
     <text>cient</text>
    </lyric>
    <lyric default-y="-155" number="part1verse4" color="#000000">
     <syllabic>single</syllabic>
     <text>of</text>
    </lyric>
   </note>
   <note color="#000000" default-x="185" default-y="-5">
    <pitch>
     <step>E</step>
     <octave>4</octave>
    </pitch>
    <duration>256</duration>
    <instrument id="P1-I1" />
    <voice>1</voice>
    <type>quarter</type>
    <stem>up</stem>
    <staff>1</staff>
    <lyric default-y="-80" number="part1verse1" color="#000000">
     <syllabic>begin</syllabic>
     <text>lone</text>
    </lyric>
    <lyric default-y="-105" number="part1verse2" color="#000000">
     <syllabic>single</syllabic>
     <text>path</text>
    </lyric>
    <lyric default-y="-130" number="part1verse3" color="#000000">
     <syllabic>single</syllabic>
     <text>times</text>
    </lyric>
    <lyric default-y="-155" number="part1verse4" color="#000000">
     <syllabic>single</syllabic>
     <text>hell</text>
    </lyric>
   </note>
   <note color="#000000" default-x="241">
    <pitch>
     <step>F</step>
     <alter>1</alter>
     <octave>4</octave>
    </pitch>
    <duration>256</duration>
    <instrument id="P1-I1" />
    <voice>1</voice>
    <type>quarter</type>
    <stem>up</stem>
    <staff>1</staff>
    <lyric default-y="-80" number="part1verse1" color="#000000">
     <syllabic>end</syllabic>
     <text>ly</text>
    </lyric>
    <lyric default-y="-105" number="part1verse2" color="#000000">
     <syllabic>single</syllabic>
     <text>of</text>
    </lyric>
    <lyric default-y="-130" number="part1verse3" color="#000000">
     <syllabic>single</syllabic>
     <text>did</text>
    </lyric>
    <lyric default-y="-155" number="part1verse4" color="#000000">
     <syllabic>single</syllabic>
     <text>your</text>
    </lyric>
   </note>
  </measure>
  <!--============== Part: P1, Measure: 6 ==============-->
  <measure number="6" width="142">
   <note color="#000000" default-x="15" default-y="5">
    <pitch>
     <step>G</step>
     <octave>4</octave>
    </pitch>
    <duration>512</duration>
    <instrument id="P1-I1" />
    <voice>1</voice>
    <type>half</type>
    <stem>up</stem>
    <staff>1</staff>
    <notations>
     <slur color="#000000" type="start" orientation="over" />
    </notations>
    <lyric default-y="-80" number="part1verse1" color="#000000">
     <syllabic>begin</syllabic>
     <text>ex</text>
    </lyric>
    <lyric default-y="-105" number="part1verse2" color="#000000">
     <syllabic>begin</syllabic>
     <text>knowl</text>
    </lyric>
    <lyric default-y="-130" number="part1verse3" color="#000000">
     <syllabic>single</syllabic>
     <text>give</text>
    </lyric>
    <lyric default-y="-155" number="part1verse4" color="#000000">
     <syllabic>begin</syllabic>
     <text>peo</text>
    </lyric>
   </note>
   <note color="#000000" default-x="74">
    <pitch>
     <step>F</step>
     <alter>1</alter>
     <octave>4</octave>
    </pitch>
    <duration>256</duration>
    <instrument id="P1-I1" />
    <voice>1</voice>
    <type>quarter</type>
    <stem>up</stem>
    <staff>1</staff>
    <notations>
     <slur color="#000000" type="stop" orientation="over" />
    </notations>
   </note>
   <note color="#000000" default-x="107" default-y="-5">
    <pitch>
     <step>E</step>
     <octave>4</octave>
    </pitch>
    <duration>256</duration>
    <instrument id="P1-I1" />
    <voice>1</voice>
    <type>quarter</type>
    <stem>up</stem>
    <staff>1</staff>
    <lyric default-y="-80" number="part1verse1" color="#000000">
     <syllabic>end</syllabic>
     <text>ile</text>
    </lyric>
    <lyric default-y="-105" number="part1verse2" color="#000000">
     <syllabic>end</syllabic>
     <text>edge</text>
    </lyric>
    <lyric default-y="-130" number="part1verse3" color="#000000">
     <syllabic>single</syllabic>
     <text>the</text>
    </lyric>
    <lyric default-y="-155" number="part1verse4" color="#000000">
     <syllabic>end</syllabic>
     <text>ple</text>
    </lyric>
   </note>
  </measure>
  <!--============== Part: P1, Measure: 7 ==============-->
  <measure number="7" width="70">
   <note color="#000000" default-x="15" default-y="-10">
    <pitch>
     <step>D</step>
     <octave>4</octave>
    </pitch>
    <duration>768</duration>
    <instrument id="P1-I1" />
    <voice>1</voice>
    <type>half</type>
    <dot />
    <stem>up</stem>
    <staff>1</staff>
    <lyric default-y="-80" number="part1verse1" color="#000000">
     <syllabic>single</syllabic>
     <text>here</text>
    </lyric>
    <lyric default-y="-105" number="part1verse2" color="#000000">
     <syllabic>single</syllabic>
     <text>show</text>
    </lyric>
    <lyric default-y="-130" number="part1verse3" color="#000000">
     <syllabic>single</syllabic>
     <text>law</text>
    </lyric>
    <lyric default-y="-155" number="part1verse4" color="#000000">
     <syllabic>single</syllabic>
     <text>save,</text>
    </lyric>
   </note>
   <barline>
    <bar-style>none</bar-style>
   </barline>
  </measure>
  <!--============== Part: P1, Measure: 8 ==============-->
  <measure number="8" width="50">
   <note color="#000000" default-x="15" default-y="5">
    <pitch>
     <step>G</step>
     <octave>4</octave>
    </pitch>
    <duration>256</duration>
    <instrument id="P1-I1" />
    <voice>1</voice>
    <type>quarter</type>
    <stem>up</stem>
    <staff>1</staff>
    <lyric default-y="-80" number="part1verse1" color="#000000">
     <syllabic>begin</syllabic>
     <text>un</text>
    </lyric>
    <lyric default-y="-105" number="part1verse2" color="#000000">
     <syllabic>single</syllabic>
     <text>and</text>
    </lyric>
    <lyric default-y="-130" number="part1verse3" color="#000000">
     <syllabic>single</syllabic>
     <text>in</text>
    </lyric>
    <lyric default-y="-155" number="part1verse4" color="#000000">
     <syllabic>single</syllabic>
     <text>and</text>
    </lyric>
   </note>
  </measure>
  <!--============== Part: P1, Measure: 9 ==============-->
  <measure number="9" width="186">
   <note color="#000000" default-x="15" default-y="10">
    <pitch>
     <step>A</step>
     <octave>4</octave>
    </pitch>
    <duration>256</duration>
    <instrument id="P1-I1" />
    <voice>1</voice>
    <type>quarter</type>
    <stem>up</stem>
    <staff>1</staff>
    <lyric default-y="-80" number="part1verse1" color="#000000">
     <syllabic>end</syllabic>
     <text>til</text>
    </lyric>
    <lyric default-y="-105" number="part1verse2" color="#000000">
     <syllabic>single</syllabic>
     <text>teach</text>
    </lyric>
    <lyric default-y="-130" number="part1verse3" color="#000000">
     <syllabic>single</syllabic>
     <text>cloud</text>
    </lyric>
    <lyric default-y="-155" number="part1verse4" color="#000000">
     <syllabic>single</syllabic>
     <text>give</text>
    </lyric>
   </note>
   <note color="#000000" default-x="65" default-y="15">
    <pitch>
     <step>B</step>
     <octave>4</octave>
    </pitch>
    <duration>256</duration>
    <instrument id="P1-I1" />
    <voice>1</voice>
    <type>quarter</type>
    <stem>up</stem>
    <staff>1</staff>
    <lyric default-y="-80" number="part1verse1" color="#000000">
     <syllabic>single</syllabic>
     <text>the</text>
    </lyric>
    <lyric default-y="-105" number="part1verse2" color="#000000">
     <syllabic>single</syllabic>
     <text>us</text>
    </lyric>
    <lyric default-y="-130" number="part1verse3" color="#000000">
     <syllabic>single</syllabic>
     <text>and</text>
    </lyric>
    <lyric default-y="-155" number="part1verse4" color="#000000">
     <syllabic>single</syllabic>
     <text>them</text>
    </lyric>
   </note>
   <note color="#000000" default-x="108" default-y="15">
    <pitch>
     <step>B</step>
     <octave>4</octave>
    </pitch>
    <duration>256</duration>
    <instrument id="P1-I1" />
    <voice>1</voice>
    <type>quarter</type>
    <stem>up</stem>
    <staff>1</staff>
    <lyric default-y="-80" number="part1verse1" color="#000000">
     <syllabic>single</syllabic>
     <text>Son</text>
    </lyric>
    <lyric default-y="-105" number="part1verse2" color="#000000">
     <syllabic>single</syllabic>
     <text>in</text>
    </lyric>
    <lyric default-y="-130" number="part1verse3" color="#000000">
     <syllabic>begin</syllabic>
     <text>maj</text>
    </lyric>
    <lyric default-y="-155" number="part1verse4" color="#000000">
     <syllabic>begin</syllabic>
     <text>vic</text>
    </lyric>
   </note>
   <note color="#000000" default-x="153" default-y="15">
    <pitch>
     <step>B</step>
     <octave>4</octave>
    </pitch>
    <duration>256</duration>
    <instrument id="P1-I1" />
    <voice>1</voice>
    <type>quarter</type>
    <stem>up</stem>
    <staff>1</staff>
    <lyric default-y="-80" number="part1verse1" color="#000000">
     <syllabic>single</syllabic>
     <text>of</text>
    </lyric>
    <lyric default-y="-105" number="part1verse2" color="#000000">
     <syllabic>single</syllabic>
     <text>its</text>
    </lyric>
    <lyric default-y="-130" number="part1verse3" color="#000000">
     <syllabic>middle</syllabic>
     <text>es</text>
    </lyric>
    <lyric default-y="-155" number="part1verse4" color="#000000">
     <syllabic>end</syllabic>
     <text>tory</text>
    </lyric>
   </note>
  </measure>
  <!--============== Part: P1, Measure: 10 ==============-->
  <measure number="10" width="249">
   <print new-system="yes">
    <system-layout>
     <system-margins>
      <left-margin>0</left-margin>
      <right-margin>0</right-margin>
     </system-margins>
     <system-distance>204</system-distance>
    </system-layout>
   </print>
   <attributes>
    <staff-details number="1" print-object="yes" />
   </attributes>
   <note color="#000000" default-x="70" default-y="10">
    <pitch>
     <step>A</step>
     <octave>4</octave>
    </pitch>
    <duration>256</duration>
    <instrument id="P1-I1" />
    <voice>1</voice>
    <type>quarter</type>
    <stem>up</stem>
    <staff>1</staff>
    <notations>
     <slur color="#000000" type="start" orientation="under" />
    </notations>
    <lyric default-y="-80" number="part1verse1" color="#000000">
     <syllabic>single</syllabic>
     <text>God</text>
    </lyric>
    <lyric default-y="-105" number="part1verse2" color="#000000">
     <syllabic>single</syllabic>
     <text>ways</text>
    </lyric>
    <lyric default-y="-130" number="part1verse3" color="#000000">
     <syllabic>end</syllabic>
     <text>ty</text>
    </lyric>
    <lyric default-y="-155" number="part1verse4" color="#000000">
     <syllabic>single</syllabic>
     <text>o&apos;er</text>
    </lyric>
   </note>
   <note color="#000000" default-x="115" default-y="-50">
    <pitch>
     <step>C</step>
     <octave>5</octave>
    </pitch>
    <duration>256</duration>
    <instrument id="P1-I1" />
    <voice>1</voice>
    <type>quarter</type>
    <stem>down</stem>
    <staff>1</staff>
   </note>
   <note color="#000000" default-x="159" default-y="15">
    <pitch>
     <step>B</step>
     <octave>4</octave>
    </pitch>
    <duration>256</duration>
    <instrument id="P1-I1" />
    <voice>1</voice>
    <type>quarter</type>
    <stem>up</stem>
    <staff>1</staff>
    <notations>
     <slur color="#000000" type="stop" orientation="under" />
    </notations>
   </note>
   <note color="#000000" default-x="204" default-y="10">
    <pitch>
     <step>A</step>
     <octave>4</octave>
    </pitch>
    <duration>256</duration>
    <instrument id="P1-I1" />
    <voice>1</voice>
    <type>quarter</type>
    <stem>up</stem>
    <staff>1</staff>
    <lyric default-y="-80" number="part1verse1" color="#000000">
     <syllabic>begin</syllabic>
     <text>ap</text>
    </lyric>
    <lyric default-y="-105" number="part1verse2" color="#000000">
     <syllabic>single</syllabic>
     <text>to</text>
    </lyric>
    <lyric default-y="-130" number="part1verse3" color="#000000">
     <syllabic>single</syllabic>
     <text>and</text>
    </lyric>
    <lyric default-y="-155" number="part1verse4" color="#000000">
     <syllabic>single</syllabic>
     <text>the</text>
    </lyric>
   </note>
  </measure>
  <!--============== Part: P1, Measure: 11 ==============-->
  <measure number="11" width="90">
   <note color="#000000" default-x="15" default-y="5">
    <pitch>
     <step>G</step>
     <octave>4</octave>
    </pitch>
    <duration>768</duration>
    <instrument id="P1-I1" />
    <voice>1</voice>
    <type>half</type>
    <dot />
    <stem>up</stem>
    <staff>1</staff>
    <lyric default-y="-80" number="part1verse1" color="#000000">
     <syllabic>end</syllabic>
     <text>pear.</text>
    </lyric>
    <lyric default-y="-105" number="part1verse2" color="#000000">
     <syllabic>single</syllabic>
     <text>go.</text>
    </lyric>
    <lyric default-y="-130" number="part1verse3" color="#000000">
     <syllabic>single</syllabic>
     <text>awe.</text>
    </lyric>
    <lyric default-y="-155" number="part1verse4" color="#000000">
     <syllabic>single</syllabic>
     <text>grave.</text>
    </lyric>
   </note>
   <barline>
    <bar-style>light-light</bar-style>
   </barline>
  </measure>
  <!--============== Part: P1, Measure: 12 ==============-->
  <measure number="12" width="84">
   <direction>
    <direction-type>
     <words default-x="34" default-y="20" justify="left" valign="middle" font-family="Times New Roman" font-style="italic" font-size="9.8837" font-weight="normal">Refrain</words>
    </direction-type>
    <voice>1</voice>
    <staff>1</staff>
   </direction>
   <note color="#000000" default-x="40" default-y="-45">
    <pitch>
     <step>D</step>
     <octave>5</octave>
    </pitch>
    <duration>256</duration>
    <instrument id="P1-I1" />
    <voice>1</voice>
    <type>quarter</type>
    <stem>down</stem>
    <staff>1</staff>
    <lyric default-y="-116" number="part1verse1" color="#000000">
     <syllabic>begin</syllabic>
     <text>Re</text>
    </lyric>
   </note>
  </measure>
  <!--============== Part: P1, Measure: 13 ==============-->
  <measure number="13" width="150">
   <note color="#000000" default-x="15" default-y="-45">
    <pitch>
     <step>D</step>
     <octave>5</octave>
    </pitch>
    <duration>768</duration>
    <instrument id="P1-I1" />
    <voice>1</voice>
    <type>half</type>
    <dot />
    <stem>down</stem>
    <staff>1</staff>
    <lyric default-y="-116" number="part1verse1" color="#000000">
     <syllabic>end</syllabic>
     <text>joice!</text>
    </lyric>
   </note>
   <note color="#000000" default-x="105" default-y="15">
    <pitch>
     <step>B</step>
     <octave>4</octave>
    </pitch>
    <duration>256</duration>
    <instrument id="P1-I1" />
    <voice>1</voice>
    <type>quarter</type>
    <stem>up</stem>
    <staff>1</staff>
    <lyric default-y="-116" number="part1verse1" color="#000000">
     <syllabic>begin</syllabic>
     <text>Re</text>
    </lyric>
   </note>
  </measure>
  <!--============== Part: P1, Measure: 14 ==============-->
  <measure number="14" width="150">
   <note color="#000000" default-x="15" default-y="15">
    <pitch>
     <step>B</step>
     <octave>4</octave>
    </pitch>
    <duration>768</duration>
    <instrument id="P1-I1" />
    <voice>1</voice>
    <type>half</type>
    <dot />
    <stem>up</stem>
    <staff>1</staff>
    <lyric default-y="-116" number="part1verse1" color="#000000">
     <syllabic>end</syllabic>
     <text>joice!</text>
    </lyric>
   </note>
   <note color="#000000" default-x="105" default-y="15">
    <pitch>
     <step>B</step>
     <octave>4</octave>
    </pitch>
    <duration>256</duration>
    <instrument id="P1-I1" />
    <voice>1</voice>
    <type>quarter</type>
    <stem>up</stem>
    <staff>1</staff>
    <lyric default-y="-116" number="part1verse1" color="#000000">
     <syllabic>begin</syllabic>
     <text>Im</text>
    </lyric>
   </note>
  </measure>
  <!--============== Part: P1, Measure: 15 ==============-->
  <measure number="15" width="305">
   <print new-system="yes">
    <system-layout>
     <system-margins>
      <left-margin>0</left-margin>
      <right-margin>0</right-margin>
     </system-margins>
     <system-distance>198</system-distance>
    </system-layout>
   </print>
   <attributes>
    <staff-details number="1" print-object="yes" />
   </attributes>
   <note color="#000000" default-x="70" default-y="10">
    <pitch>
     <step>A</step>
     <octave>4</octave>
    </pitch>
    <duration>256</duration>
    <instrument id="P1-I1" />
    <voice>1</voice>
    <type>quarter</type>
    <stem>up</stem>
    <staff>1</staff>
    <notations>
     <slur color="#000000" type="start" orientation="under" />
    </notations>
    <lyric default-y="-80" number="part1verse1" color="#000000">
     <syllabic>middle</syllabic>
     <text>man</text>
    </lyric>
   </note>
   <note color="#000000" default-x="109" default-y="-50">
    <pitch>
     <step>C</step>
     <octave>5</octave>
    </pitch>
    <duration>256</duration>
    <instrument id="P1-I1" />
    <voice>1</voice>
    <type>quarter</type>
    <stem>down</stem>
    <staff>1</staff>
   </note>
   <note color="#000000" default-x="148" default-y="15">
    <pitch>
     <step>B</step>
     <octave>4</octave>
    </pitch>
    <duration>256</duration>
    <instrument id="P1-I1" />
    <voice>1</voice>
    <type>quarter</type>
    <stem>up</stem>
    <staff>1</staff>
    <notations>
     <slur color="#000000" type="stop" orientation="under" />
    </notations>
   </note>
   <note color="#000000" default-x="187" default-y="10">
    <pitch>
     <step>A</step>
     <octave>4</octave>
    </pitch>
    <duration>256</duration>
    <instrument id="P1-I1" />
    <voice>1</voice>
    <type>quarter</type>
    <stem>up</stem>
    <staff>1</staff>
    <lyric default-y="-80" number="part1verse1" color="#000000">
     <syllabic>middle</syllabic>
     <text>u</text>
    </lyric>
   </note>
   <note color="#000000" default-x="227" default-y="5">
    <pitch>
     <step>G</step>
     <octave>4</octave>
    </pitch>
    <duration>256</duration>
    <instrument id="P1-I1" />
    <voice>1</voice>
    <type>quarter</type>
    <stem>up</stem>
    <staff>1</staff>
    <lyric default-y="-80" number="part1verse1" color="#000000">
     <syllabic>end</syllabic>
     <text>el</text>
    </lyric>
   </note>
   <note color="#000000" default-x="266" default-y="10">
    <pitch>
     <step>A</step>
     <octave>4</octave>
    </pitch>
    <duration>256</duration>
    <instrument id="P1-I1" />
    <voice>1</voice>
    <type>quarter</type>
    <stem>up</stem>
    <staff>1</staff>
    <lyric default-y="-80" number="part1verse1" color="#000000">
     <syllabic>single</syllabic>
     <text>shall</text>
    </lyric>
   </note>
  </measure>
  <!--============== Part: P1, Measure: 16 ==============-->
  <measure number="16" width="173">
   <note color="#000000" default-x="15" default-y="15">
    <pitch>
     <step>B</step>
     <octave>4</octave>
    </pitch>
    <duration>256</duration>
    <instrument id="P1-I1" />
    <voice>1</voice>
    <type>quarter</type>
    <stem>up</stem>
    <staff>1</staff>
    <lyric default-y="-80" number="part1verse1" color="#000000">
     <syllabic>single</syllabic>
     <text>come</text>
    </lyric>
   </note>
   <note color="#000000" default-x="55" default-y="5">
    <pitch>
     <step>G</step>
     <octave>4</octave>
    </pitch>
    <duration>256</duration>
    <instrument id="P1-I1" />
    <voice>1</voice>
    <type>quarter</type>
    <stem>up</stem>
    <staff>1</staff>
    <lyric default-y="-80" number="part1verse1" color="#000000">
     <syllabic>single</syllabic>
     <text>to</text>
    </lyric>
   </note>
   <note color="#000000" default-x="95" default-y="-5">
    <pitch>
     <step>E</step>
     <octave>4</octave>
    </pitch>
    <duration>256</duration>
    <instrument id="P1-I1" />
    <voice>1</voice>
    <type>quarter</type>
    <stem>up</stem>
    <staff>1</staff>
    <lyric default-y="-80" number="part1verse1" color="#000000">
     <syllabic>single</syllabic>
     <text>you,</text>
    </lyric>
   </note>
   <note color="#000000" default-x="134" default-y="5">
    <pitch>
     <step>G</step>
     <octave>4</octave>
    </pitch>
    <duration>256</duration>
    <instrument id="P1-I1" />
    <voice>1</voice>
    <type>quarter</type>
    <stem>up</stem>
    <staff>1</staff>
    <lyric default-y="-80" number="part1verse1" color="#000000">
     <syllabic>single</syllabic>
     <text>O</text>
    </lyric>
   </note>
  </measure>
  <!--============== Part: P1, Measure: 17 ==============-->
  <measure number="17" width="172">
   <note color="#000000" default-x="15" default-y="10">
    <pitch>
     <step>A</step>
     <octave>4</octave>
    </pitch>
    <duration>256</duration>
    <instrument id="P1-I1" />
    <voice>1</voice>
    <type>quarter</type>
    <stem>up</stem>
    <staff>1</staff>
    <notations>
     <slur color="#000000" type="start" orientation="over" />
    </notations>
    <lyric default-y="-80" number="part1verse1" color="#000000">
     <syllabic>begin</syllabic>
     <text>Is</text>
    </lyric>
   </note>
   <note color="#000000" default-x="54">
    <pitch>
     <step>F</step>
     <alter>1</alter>
     <octave>4</octave>
    </pitch>
    <duration>256</duration>
    <instrument id="P1-I1" />
    <voice>1</voice>
    <type>quarter</type>
    <stem>up</stem>
    <staff>1</staff>
   </note>
   <note color="#000000" default-x="93" default-y="-5">
    <pitch>
     <step>E</step>
     <octave>4</octave>
    </pitch>
    <duration>256</duration>
    <instrument id="P1-I1" />
    <voice>1</voice>
    <type>quarter</type>
    <stem>up</stem>
    <staff>1</staff>
    <notations>
     <slur color="#000000" type="stop" orientation="over" />
    </notations>
   </note>
   <note color="#000000" default-x="132" default-y="-10">
    <pitch>
     <step>D</step>
     <octave>4</octave>
    </pitch>
    <duration>256</duration>
    <instrument id="P1-I1" />
    <voice>1</voice>
    <type>quarter</type>
    <stem>up</stem>
    <staff>1</staff>
    <lyric default-y="-80" number="part1verse1" color="#000000">
     <syllabic>middle</syllabic>
     <text>ra</text>
    </lyric>
   </note>
  </measure>
  <!--============== Part: P1, Measure: 18 ==============-->
  <measure number="18" width="74">
   <note color="#000000" default-x="15" default-y="-5">
    <pitch>
     <step>E</step>
     <octave>4</octave>
    </pitch>
    <duration>768</duration>
    <instrument id="P1-I1" />
    <voice>1</voice>
    <type>half</type>
    <dot />
    <stem>up</stem>
    <staff>1</staff>
    <lyric default-y="-80" number="part1verse1" color="#000000">
     <syllabic>end</syllabic>
     <text>el</text>
    </lyric>
   </note>
   <forward>
    <duration>256</duration>
   </forward>
   <barline>
    <bar-style>light-heavy</bar-style>
   </barline>
  </measure>
 </part>
</score-partwise>
