<?xml version="1.0" encoding="UTF-8" standalone="no"?>
<!DOCTYPE score-partwise PUBLIC "-//Recordare//DTD MusicXML 2.0 Partwise//EN" "http://www.musicxml.org/dtds/partwise.dtd">
<score-partwise version="2.0">
	<work>
		<work-title>Sing, Choirs ofNew Jerusalem</work-title>
	</work>
	<identification>
		<creator type="composer">LYNGHAM C.M.rep.
Thomas Jarman</creator>
		<creator type="poet">Fulbert ofChartres, ca. 975 - 1 028
Tr. by Robert Campbell, 1 850; alt.</creator>
		<encoding>
			<software>PDFtoMusic Pro v1.6.5 Build 1B9E7 (c) Myriad - http://www.myriad-online.com</software>
			<?PDFtoMusic Document type 0100- 00000000?>
			<supports attribute="new-system" element="print" type="yes" value="yes"/>
			<supports attribute="new-page" element="print" type="yes" value="yes"/>
		</encoding>
	</identification>
	<defaults>
		<scaling>
			<millimeters>6.000012</millimeters>
			<tenths>40</tenths>
		</scaling>
		<page-layout>
			<page-height>1862.663</page-height>
			<page-width>1439.330</page-width>
			<page-margins type="both">
				<left-margin>66.667</left-margin>
				<right-margin>66.667</right-margin>
				<top-margin>66.667</top-margin>
				 <bottom-margin>66.667</bottom-margin>
			</page-margins>
		</page-layout>
		<appearance>
			<line-width type="stem">1.3000</line-width>
			<line-width type="beam">4.8000</line-width>
			<line-width type="staff">0.8000</line-width>
			<line-width type="light barline">1.5078</line-width>
			<line-width type="heavy barline">3.0001</line-width>
			<line-width type="leger">0.8000</line-width>
		</appearance>
	</defaults>
	<credit page="1">
		<credit-words  default-x="67.830" default-y="1707.180" justify="left" valign="baseline" font-family="Times New Roman" font-size="11" font-weight="normal" font-style="normal">Fulbert ofChartres, ca. 975 - 1 028
Tr. by Robert Campbell, 1 850; alt.</credit-words>
	</credit>
	<credit page="1">
		<credit-words  default-x="411.743" default-y="1750.735" justify="left" valign="baseline" font-family="Times New Roman" font-size="23" font-weight="normal" font-style="normal">Sing, Choirs ofNew Jerusalem</credit-words>
	</credit>
	<credit page="1">
		<credit-words  default-x="1368.107" default-y="1707.180" justify="right" valign="baseline" font-family="Times New Roman" font-size="11" font-weight="normal" font-style="normal">LYNGHAM C.M.rep.
Thomas Jarman</credit-words>
	</credit>
	<?Myriad
	<picture page="1" default-x="615.596" default-y="90.716" x-size="188.736" y-size="36.454" colorbits="24bitcolor" source-width="267" source-height="50" encoding="base64" packing="zip" packedsize="6327">
AACccgAAGK8N93u8+973DI6/4AVEpGcFPPE2ZtJUnBVUqqNmVUcSqIuG0pDYVI8sMFRNjghUNnAIszZqSiLgKhRwmKVZwpShgRPzX7r93f7b+2/9373fe7zu82vde67m3
W77vffgDbe7PiZ+9ANrJI21xnGcZxvG8avlUfvjuO46fl2PjODT9T9r9RXI8jyNLlx/H8evw/DH4WDvGX+HdV+409Gtj28hyHIO0vBKazsqyv/ahNKEuoTnj9iTlukCrT
CZkp8xhUq7u6n4qxaFFJ1g8Qapr1Is6puOyrK/ikiEVdLpdMPh8PhcLhcNhsNiMRiOn6fpz8YPB4M/GLxeLPnA4HA4fhVhMJhLzebyJFUTASeBYCzYnE4lYCsNf4X7MrW
GryH4Pk8h/j9mg1YDBDwyo08xPxaWlo7wVgsFglr80GeQ1sv8YUthdPZVlcWrxeLxClPUdR1H6/r+v7ft+3A4HA3+/3/7f80er9P0/Qs243G45bluWo4mEvbnc7nq9Xqy
2fn+f5xe1jhRgK9R+I/0WN+HgcKtbrdbdrtdpdor/Xe73fZbLZO301nGznkVlWV/ahrSOAnBCCmR5Py/L8pRLEYH+Emlvt9vr3e73MJ2nQxgm83m8eAq3yq/bq9NN6E51
cjQZjI4RiFfNeL93W63Xc7ncvU6t8LQrYtFPrKsr/ysVisVCMaUgSSFSYyR+EdSDPiQ4bczJ5PJwm20qD5o3D3/BqW6qcWPw/rwalS/r+v6+JHR6Avl8visFMrezoX+sq
yv7URxsSHAntMIo0tBFdI0n4z+fz8Tl7nVsplMpW4so4O3W63Wu12u9r2va9v2/b1Wq1Wv1+vPDChDU7o3zPVlcrlYCtnC75jMZhq1yrFnM5nO87zvLa2ts7nc73dlWVx
atbW1gKqFIJbmSk+JM7PZ7OIVNzl6Udi2K8TByEJHns9nr9fr9ULAX2+33R6PRljeDyrE/OJ5jq1rtQMzqT+lzuXjruu66wGOsr/VObncLFXHSpHJOdJTeSrNEw5Vu0Gg
0HL8vy9CW1ujOT5Pkz5J/v1PU9SZPup0MOR6EmgvrR4CUSm/K8rysjYllWV/FVKQNuGJ1aTSaRwarIa+e57nnPKxbIhJi9jcCCOOTECCO/kuS5I/GWy2WpDWxO0Hzvd7v
b/f7/LokyUhSpdBoN57/v+/s7jsr+lIIm5xs5E4uv2SIisaSEmEXX7IQ6IUqAvuJ+lHvjV9J4yYbCVejHNptNpBOarwDBqWzifvKPIBdlh6ZZX8qQQQZaXS6WFF0Lx5fL
5eqfUjBNDodCkt6zsiD512ZQt2n0+nqC1IlFu973vYciJ1PotFooF1Gtmaws7msr+VIEjAm1yn0Yb7EhZ9n2fZIXwyLMvZ6vo+j6BufChdalihZYUsE5w/c+37ftkLXMc
Wknp4PSZJFr1er1JOUrxtdrtbJIOyv6hYigWPgVTSMfm+b5st3qHU5IlUcTML7JL8n4BUGcZiSbJFBqNSRitxBptNppJFi8KfpdmbkQDK7O6bK/lSBJOULm+h6HoXB5yR
eOR63e73cwfjUmG8IrorMSDUOZYbwlvAnqFC2ZiLK3nvN83zbXCWpFJhQ8EPkt/ieJ4lndNlf7hYhIEFnoFTRIfue57msx/bavy/L8uJ49050RuccHg8G4R1zuLt/q+r6
sumKE1gZfQFkF1NZxoxuhtttttZ3TZX+1INZrNY05GpN9P0/TMj60q2kn1nWdZMjckuvM8zzIyVSC8Y+4YNf4DBLcmglPZXJfJrmoOUDKmSRB/uYeyRpeFwpDlJDHI3rB
/osBpg8MFofU1Y/VpunIEep+2kWPFgpvumyJz2RNV4Ctcxi07IpmM8Szcp1JTNKIAVdy1cCU2dSarrkg87nc6xYNZjgMBgEo6hd2YY9hZFEDy9k+00qERro7jrRgUlVLk
Gquj6Po1gjTk7vu+7TkRjCytOYzGYnklW+OnXEGoMWogrKYywFjVLxCbwXIsb76hAZftlFseemPootQfXKXU96LZxFU9b1vW57PZ7uu67rtu27bC4XCygwzjJaDjoVpXU
BXXYDKzExComMwRXx2Ox1zudzcDfGwnrxqiSovCq0wJbzRato17jtN7aXGlFSp3M+BGXGcNSBIo4nE4meDfG8bxq4O13X4fh+GpqXlMplITV2ez2dJKGjQMPB+GpAlyIu
vV9X1dJ9FQ/b4BlZhXjV6vVwA7NVn5vm+YNLSfmjoJ4skdVzCuK8FgsE83eSrFpAcFkXxfF8RFd8xzHMcPH4lpmVILK85nM5Pb9tbW31/X9cm43z/P84plCCubzebjtBj
qhi2t1utOuKnKxReDH4QSWVnFYsxHM4DJs23Px6XpekmGLsHoeh6Blz4cwmEwlF8jr52DIZDIVEGr2QJqqwC3LQGfkGMK7xTUsoYgVMCq3IJiHKcpykiz2q1WqgU+hx2/
25ICV9QJxc6+5H2gvfDMoup1BcQsRifu+77squDnqUFVmiiNKoB55dO4Jz0QtbcxpwnZrbDrB8RiMQ0/HpikUpOObDYbCNN0x9uSohQTWa3AKHQ2xnjqOqfx/H8fP8/z3
q0cvvR7HroW/ONyXZnjQLIHaTEJQ8Dcm73e7u5DEOFRxnvOG7LZbJ88maCqDcoNLdNLVqcWDmHIX7euTAVkQoEvIQfgxMnvFqQCo9ZyVUpBvd7vZTnXcRpuCJindZlFSw
xzI+cALIiLxFhiRund6uoE9W6kC9Rqqj22h8K257gn4gYEyC9n2fZW1wnHNYe57nuCMw8TasoUADDdZKmZpoNvantFIHq6vKHxQPPdbwaMiPlNhFwzms1mmhtTH5YmOVw
WUHdb5P0Gg0Ec24zGYzD4fD9j2PY+/7/vryGLEIc0Qn3oWzU6nUiJBwUaYbNMgPI3Ho9Ho2JdGgAfVERTEPO87zlj58iebWtNhCT638tWjMRwgt4vF4nq9xBTzRQCqvZj
i70UNU4IEszsadBp6NGMjOKIsQYOJ5ifij6atSA32b1b+5fggYG7ghRqWUGRyORh502AgFfvIpkNSCQEiqpSXwPA8DhwsRi3M8zzMxP4AmSA7LpqInaI+pZoIMLn8htol
2VxEsHcE+3UmBwOBl0YdO0hYnoxs3GxJ8XxfFXqIeN+emPqTansFwsR3EuT+c5znGwTl+gYIPcGwEUosbsVsfejS6G1D0NfL5fF7bzeby+7iwT1wDsz32oZ484s841pcj
E0C+suq6rqlchVNWZwhaQkMB8ryvKbn1fjG43GuZ1fy+ZBFRctkV3EAeKsh0M0YxT5epPf/3cguCNeFLcZwzKjUEiBrYs1QAs32RDBztQjgQ83pC1m4O47juOGo6aSTHB
rll+GgEQ6L1DRMyNEjT9WxcXOFNPaakQFApPJOEUkOQqEgk6hYlA8P1Lfxji4iidKbnEcoPfdMfk17X4NZuSDWs9FotE1AnhrwEi3FuMsAnVEdLD9lqoD0BYaYsuCvH8f
x29PAXtPhYY2+n6fprSRxos36bpumVyGAIpGcDhzc+dliBEwnWqvAxhhnjcrlcvv+/71JxmrUjkEArn8mpS5UDFYrFK/BARANQUnhqzpOQW9/jZFwpAaqkFmGBtxIHLQa
iPaSoHA4VD1uEkwJZWoYB9m3SHzVvmjaTpjhENCodGIf5xbjQtmIHM0GxscXQvA4+o6gmLuEcpd8Gj4cgrajP2W0eYZuxwBpCVY/CXr5kWmGupHhIWipgUcCCQJy3dbrd
SwG0V12YVL/o9oiE4apw6ix/Q6HQyG4LaOPx+PiWCTkFbgMiN2H4FvHy8YycsD0Za5YEu+JRzcubfj+P40cgrQEHNEAbKhpFpJxIBy2OPlJGdL0vSrGT2ti9UGdVqQeH4
fhwJnmxUxnaxNJsZJAtyDInPElC+SQG3NZvkmWkJexvhbrJLjQcUneMidScFtie6EGJUdgibbY0EsY14EoDwHJZLJN4mnUgnhADCYO4FFbXYLAuJRpURKXtcGtdrtcIVL
gEj8xLFqEOcyMfljnH+MKWMncT0wr25GWhH9G+FCxKRNjvRcOJ26uFpiKzH4ALn+0bVq5JOobnrZY147DsOwV+53nedVyVpGwKUgTEONE6jUaiB6hf4upDnTtRpGtWJuI
xHvM5nMp5090oCgholxJIMwTyPI8iYO1xVMI5TC3S5BUFEvk9RJDCAEEBww0cIRGknOj9T1PU3BIVHQsQJakTY1grSo/+IYyIddwsRyAMWxHI5VGk5F7mp1om1tbVwgSt
hCBQSnqVVa3j0lDF5/hlK58k0PCfi1gepOcW2igx/LYhpowdgw74xOFpMmqOgAYZakBv6ioJxi+34BACm8KgZeWnnPVJpgoWJOQbS0tFfhzQ2Jh/iHvb/eO0BxM+ClPtD
lBXIUplnLbqQA0oZcpQQ0wi4YF3V/qwlytyC5i1JmQRkQOYUFCxBuplYIVCOUQaq4ohrTESev8N8LdSBNJ6A86kg5CxXCxUHPHrBv4q68LwvCpMHqECgxhUkHE9IL5cD/
iqLxrUgE0QF6pGZLAVn6AiomMid6rTACnJMBbagzHY7w96uFiHZ0irgzNYtCLBqcverU+4faccmS0wEFVs4ZcIreP2RAKAIj97Xa7Uxw2XO8lP6sY6WPiHL0kOrYd5VKQ
LWC4fOE1kRBdDa7vu+75bLQWL+89IIVSeGnU1Ahee6FNAzB2qtxuNxAsMfsgG3PwfV9X1RbxE5WZQ6/DpLKsgjSG0j6TtKKJJ08nKaIO0+FV+YdwFr4vA54Yyuhqi+qUg
e3IK87FF214W8uf5/nwILWYj2RuI4hYpI+4NTm71Jo1eQA8Vyqog18sIagjeS9Q8oSIXsex7FD9Aa0rDdzudyrwo8lBRMmWqYSj2RhcwJYqGnSQ6dSafT6dT4Tf1k+uft
DsxvUt60Acz/B8HwLLiEgfA7C71C6XELEuRmHygA+r2QYC32gXuXslupAbLNVMutT0O93u90RvkLFXSkn7huM0wB5UZoPXlAurExM+EAHZnKh1uQV7STLnagd90hXzrWC
r18IPMVBXFA+eL0qbJOar1er1Q98Y8mKHRAxm70EUwA+Juwt5KB1jl40q58JzLrifEYUPlJsuGAeq9kBaXg9q2KeQIrW47e7BrkJS+973vFmJVttYytfr9fLmhC9K46Aj
VeR5iTt0RVj2ioQJB469qhRzbqyLsuy7JWAncTcBjnb9v28c/sjFTiyAoNk46YgJys331bkFh8pr8ccDZBRmfret6yxOYN7huQSYwpLswYRVpaS6qkQzZJENkIwpPeZt5
stCWNxQjq3ATZ71niEM6KRA530obN7Fej2jS0mSdcXVKZiQ3YC+9ba2+328B48hYruSBmZcXvwoaagWqjYozKT4ggQmIMN8uCw0qQdn2fZpPAFpFhReG0Vlp+MGW4vc4i
03kX30EDCPnSYHr+v66xBPUjw6rVapBoyvyzpOaDzkPGt5JiGeF5Wn5TfCwgAxRe3UgEJAPlfe/a9r2soMPj3iKQLQzfmtu2ndjHRZc6L502m00uPoIIF6jRhwO4L1Luq
Lfns1Pc7gZYCvmY6ILKZdtL8AhJO+5iRmEIs6VkCpjyDVE0AbyDJQThevA4XF/lmIygakCtjaPICsXqCAhLMFyGb7c4rmdD6U8MvRjlN2ZuGgBRpeQawGm3fhIchgGzKV
vN2LvEwpY+utQJlO8VrMaYKPtKMfR/6VsdjsUSmPklC4sSzrRjeROTIIlJedgrSEeEI2FEcym9R12Xsd6nydTHzut1ulgmXy+XkDZqcgz2ma5iYAUlD+5IOdNObPakASw
xCLwj23giKbKxFoo5nfCzvGQyGQoMMlEXvcEvh7YIO11MMf2o63yJ8hsa43iZ56CT0tjGjoWzmI6ZbipfEC7DoIg1Xt09Q05eYvWY1gMoOKD5O6Nttts/UjUVleawQLqi
zazhUIijDcQkvt9vqhYpK6j57TtO0YaMOKSNsNoqN7SxJ5GQiKXoLfu93u0M/mSuDtWgwWbhhWhapqdmMitx0QoBhcJo9kfSKXsRLVBSujpVYswsVOQei6LonoBBX8dWE
rmr8cP8QXmOnYnHWVV/5npFcmCKtXRIJSC/UImIbJtpO6TGGJMtw50z7pNe0hy6ExEDxqTJZQ3LkEY1N1PAQRJJ7DV2qne9LpdK5QekZPCEMEg86Ye4xva3H1dvjJVNkt
dRz0jHQofsxfhc4R7a+Q08iM8pFLifMMf1tFyNFBrtSTz6ROcxwisccaWoVxXtpdPn9baewhilQeWv9/v72umFcMVVgML/NM9xV7nrVFQUnArdyCa5IEKWmZukDjpj3qd
iMgXc104A9ZW+jlrlnATytRFeTyeTi2Qo09BkBhRMBTIrCxXbFNJwNd0CxVbCbwt1IIkxcbjcaAxsoSfJ8nyHniUTQLBHFEL96nU6kQkchfXb1jhN8wiKyfGNZrNCADI9
VqRlDjgXUSwzkyFBCMnods+77vu9H0fRG5koDPtAT2An2RNIbnhAjKNOLxeLgLFMQxmMxklJBok1au3E5Bc1R4Pg+DMDAv2JGrVo+4bFVZQsBTS1abZHSy2VwZhYESS8V
yC+7l1lDgUy5wWjBxpbyC/EbOia9bu9hKwwcuVyuTk6XaRVxc+UdYRmJBJtwolWTWcZEyStjM9Ao+jJ2sDQmS/dmA0YnSjugQzEfpRRSFs5pOXQUB129ZdSIchLSQrZUK
UmmMBgMBBorJhdGracDoMfl/Q7ALVDPogYIV6kt3k+gjwzF0Meuh1hT5XFcEws7Ulc6nFb6Ugbc4oWKSNYivlstlo1yUQe0EDrNMGkUn4LyiAi80YCZ4wlbHMYnkvjOlV
w+c1VQqDZypyyTOq4caDCKV6Q/af6UYS19iW9Rgk68kJraK9YAtyHBq4WGnUnG8Kns5/L8kJA0RIbEyHpMDJND3ODb2m/lg8bscN/AwPPOEbIYOZPMksDakwIHY6MVXoa
VFKF1tbHmuSDKcLLGbqG5Q19WEs5HI5GOK55VIj0a39B0HQTJTwgMxACqRNVEyjN1O9AqEemIf9OKUlqLNUAKOI5Kp25ClNOdp6dbMGpqpNpn1JLpIwSnJRlBSwQlo4Hu
XAVAKmHntB8ymnob51t1adNVN1WwxnjGfxR1hXqFkPtbKmpyCkYxyOB9b1at9jdsiyoCxYjTpNdZ43qXFpXNc1zRPcxGJQna4Z4fpxySQE5Eq0JASo0fJxTMnxUAsUpHS
rQkna9HiEjddUBJQM3m3wsTKUVSvsOU5QtW7Iar0PYZXIan0q6UdzQYaQmZRAaRzmjkeXZD5MqULlpUv29bRCjzqGOi6KTVKQNSMF2p1mbFgoqaYcOUByPBLzTNIlxJ5e
E5wWPhXSRlITw/D8Pw8nyfJi6rfYSnvXkQyqloKIWxKUQ0Y/+cgykOcPwgNW4RhHWjTCu30lH32zCFsvvrdkXLl9pAtCejwqFQaZpMGlR1/Hnr4ipAoz1ZLIhvWIHjapY
6eiJBq+K5BaQ5W+32+U9VMXcjnSkgvAivBG7U26lN5LroK8nRkgBQQdhX/JeQO2jVsQqynngLpul0uk9OxLlSpNBllcNop21XCR1Qn0X6Iyq4t9EBq83pidFgKDrVW6a0
WqQw0JsUiQK5cqIFGeSaaAqdGUtM9NSEC1T51ca6BiEuC4a9n7JHSknqJGk8Y3NFG+CEVAspmCHlbaJmApTsVBkmXI/SdJ0lGNoGwzDKs5i4jUKyrK/6mXRF0TDgb9SQM
zwCJiJdMBTYza5pJzC0HnIPaQLip92K4h0Y5F+Va4DXhUROa4VctLS0DgijtEcfAsHZ3TZX8URL0B+ihYqA+ySlE5BJ8LC5GpmXlzB+NVyCw7b7fb5rNZq83m80UaMHAA
ckIyeVqdEzjmSyWSqek6jUaiIeBgHRKXJUqxyDZX+KcLuFIUt/KQmqMiKRCwj3lcrlWocN3qJpQpeSHZJeaLRaIhDtJpNJrNZrPl+X5aT98LWtWgwcyugTEKxZnM5mqGV
L2a2DmIMoCFoz1lWVxatbW1iW4UkHQ6nU3DEHOOa5nUErKCtxBkw35TcOFL3JtR8xb1VD5dKRkmdlMplKpyYMK95vN5LneDMGyrK/xQnPDYQTelv5CK8OGiPkC+OBANQX
QpTfL5fNptNolU5DEDyOGtZ8EsQ3/BqoxtWg17TGYlBIEgQKeIb+dZyAzwvZZVlf3rDYbDQGXYrFYpoeNMAIaJOuUljsNhsLtdrtUZKE7KEmkOL5hpJk3Up3HhjQD8hDH
mMskij8Az/sdjsa5LMvyx9LGUk0bKsr/uiR0gmCJzsL1M3m82QvttbW2d4NHhUMeSFh8n+PIR55/sfj8eyC+jdUcxEfnn8/n1H5lyeDrCj5PIBbR+Fkq86kJi8H+d7v1+
v1B5NZWaDx2OxxrBYU9eF1pnT/dlWV/egUR//OLLKsqyrKsqyq6==
	</picture>
	?>
	<part-list>
		<score-part id="P1">
			<part-name></part-name>
			<score-instrument id="P1-I1">
				<instrument-name>Instrument 1</instrument-name>
			</score-instrument>
			<midi-instrument id="P1-I1">
				<midi-channel>1</midi-channel>
				<midi-bank>2</midi-bank>
				<midi-program>53</midi-program>
				<volume>50</volume>
				<pan>-90</pan>
				<elevation>0</elevation>
				<?Myriad
				<iddigit>5210</iddigit>
				?>
			</midi-instrument>
		</score-part>
		<score-part id="P2">
			<part-name></part-name>
			<score-instrument id="P2-I1">
				<instrument-name>Instrument 2</instrument-name>
			</score-instrument>
			<midi-instrument id="P2-I1">
				<midi-channel>2</midi-channel>
				<midi-bank>5</midi-bank>
				<midi-program>53</midi-program>
				<volume>50</volume>
				<pan>90</pan>
				<elevation>0</elevation>
				<?Myriad
				<iddigit>5240</iddigit>
				?>
			</midi-instrument>
		</score-part>
	</part-list>
	<part id="P1">
		<!--==========================[1,1]=============================-->
		<measure number="1" width="430">
			<print new-page="yes">
				<system-layout>
					<system-margins>
						<left-margin>2.400</left-margin>
						<right-margin>0.000</right-margin>
					</system-margins>
					<top-system-distance>310.808</top-system-distance>
				</system-layout>
			</print>
			<barline location="left">
				<repeat direction="forward"/>
			</barline>
			<attributes>
				<divisions>6720</divisions>
				<key>
					<fifths>-1</fifths>
					<mode>major</mode>
				</key>
				<time>
					<beats>2</beats>
					<beat-type>2</beat-type>
				</time>
				<clef number="1">
					<sign>G</sign>
					<line>2</line>
				</clef>
				<staff-details number="1" print-object="yes">
					<staff-lines>5</staff-lines>
					<staff-size>100.00</staff-size>
				</staff-details>
			</attributes>
			<note>
				<pitch>
					<step>F</step>
					<octave>4</octave>
				</pitch>
				<duration>13440</duration>
				<voice>1</voice>
				<type>half</type>
				<stem default-y="0.86">up</stem>
				<lyric number="1" justify="center" default-y="-106.86">
					<syllabic>single</syllabic>
					<text font-family="Times New Roman" font-size="13" font-weight="normal" font-style="normal" xml:lang="en">
Sing,</text>
				</lyric>
				<lyric number="2" justify="center" default-y="-135.08">
					<syllabic>single</syllabic>
					<text font-family="Times New Roman" font-size="13" font-weight="normal" font-style="normal" xml:lang="en">For</text>
				</lyric>
				<lyric number="3" justify="center" default-y="-163.30">
					<syllabic>single</syllabic>
					<text font-family="Times New Roman" font-size="13" font-weight="normal" font-style="normal" xml:lang="en">Tri</text>
					<extend/>
				</lyric>
				<lyric number="4" justify="center" default-y="-191.52">
					<syllabic>single</syllabic>
					<text font-family="Times New Roman" font-size="13" font-weight="normal" font-style="normal" xml:lang="en">All</text>
				</lyric>
			</note>
			<note>
				<chord/>
				<pitch>
					<step>C</step>
					<octave>4</octave>
				</pitch>
				<duration>13440</duration>
				<voice>1</voice>
				<type>half</type>
				<stem default-y="0.86">up</stem>
			</note>
			<note>
				<pitch>
					<step>A</step>
					<octave>4</octave>
				</pitch>
				<duration>10080</duration>
				<voice>1</voice>
				<type>quarter</type>
				<dot/>
				<stem default-y="7.63">up</stem>
				<lyric number="1" justify="center" default-y="-106.86">
					<syllabic>single</syllabic>
					<text font-family="Times New Roman" font-size="13" font-weight="normal" font-style="normal" xml:lang="en">choirs</text>
				</lyric>
				<lyric number="2" justify="center" default-y="-135.08">
					<syllabic>single</syllabic>
					<text font-family="Times New Roman" font-size="13" font-weight="normal" font-style="normal" xml:lang="en">Ju</text>
					<extend/>
				</lyric>
				<lyric number="3" justify="center" default-y="-163.30">
					<syllabic>single</syllabic>
					<text font-family="Times New Roman" font-size="13" font-weight="normal" font-style="normal" xml:lang="en">um</text>
					<extend/>
				</lyric>
				<lyric number="4" justify="center" default-y="-191.52">
					<syllabic>single</syllabic>
					<text font-family="Times New Roman" font-size="13" font-weight="normal" font-style="normal" xml:lang="en">glo</text>
					<extend/>
				</lyric>
			</note>
			<note>
				<chord/>
				<pitch>
					<step>C</step>
					<octave>4</octave>
				</pitch>
				<duration>10080</duration>
				<voice>1</voice>
				<type>quarter</type>
				<dot/>
				<stem default-y="7.63">up</stem>
			</note>
			<note>
				<pitch>
					<step>B</step>
					<alter>-1</alter>
					<octave>4</octave>
				</pitch>
				<duration>3360</duration>
				<voice>1</voice>
				<type>eighth</type>
				<stem default-y="11.38">up</stem>
				<lyric number="1" justify="center" default-y="-106.86">
					<syllabic>single</syllabic>
					<text font-family="Times New Roman" font-size="13" font-weight="normal" font-style="normal" xml:lang="en">of</text>
				</lyric>
				<lyric number="2" justify="center" default-y="-135.08">
					<syllabic>single</syllabic>
					<text font-family="Times New Roman" font-size="13" font-weight="normal" font-style="normal" xml:lang="en">dah's</text>
				</lyric>
				<lyric number="3" justify="center" default-y="-163.30">
					<syllabic>single</syllabic>
					<text font-family="Times New Roman" font-size="13" font-weight="normal" font-style="normal" xml:lang="en">phant</text>
				</lyric>
				<lyric number="4" justify="center" default-y="-191.52">
					<syllabic>single</syllabic>
					<text font-family="Times New Roman" font-size="13" font-weight="normal" font-style="normal" xml:lang="en">ry</text>
				</lyric>
			</note>
			<note>
				<chord/>
				<pitch>
					<step>C</step>
					<octave>4</octave>
				</pitch>
				<duration>3360</duration>
				<voice>1</voice>
				<type>eighth</type>
				<stem default-y="11.38">up</stem>
			</note>
		</measure>
		<!--==========================[1,2]=============================-->
		<measure number="2" width="305">
			<note>
				<pitch>
					<step>C</step>
					<octave>5</octave>
				</pitch>
				<duration>5040</duration>
				<voice>1</voice>
				<type>eighth</type>
				<dot/>
				<stem default-y="27.48">up</stem>
				<beam number="1">begin</beam>
				<notations>
					<slur type="start" number="1" placement="above" orientation="over"/>
				</notations>
				<lyric number="1" justify="center" default-y="-106.86">
					<syllabic>single</syllabic>
					<text font-family="Times New Roman" font-size="13" font-weight="normal" font-style="normal" xml:lang="en">new</text>
				</lyric>
				<lyric number="2" justify="center" default-y="-135.08">
					<syllabic>single</syllabic>
					<text font-family="Times New Roman" font-size="13" font-weight="normal" font-style="normal" xml:lang="en">
Li</text>
					<extend/>
				</lyric>
				<lyric number="3" justify="center" default-y="-163.30">
					<syllabic>single</syllabic>
					<text font-family="Times New Roman" font-size="13" font-weight="normal" font-style="normal" xml:lang="en">in</text>
				</lyric>
				<lyric number="4" justify="center" default-y="-191.52">
					<syllabic>single</syllabic>
					<text font-family="Times New Roman" font-size="13" font-weight="normal" font-style="normal" xml:lang="en">to</text>
				</lyric>
			</note>
			<note>
				<pitch>
					<step>D</step>
					<octave>5</octave>
				</pitch>
				<duration>1680</duration>
				<voice>1</voice>
				<type>16th</type>
				<stem default-y="27.48">up</stem>
				<beam number="1">continue</beam>
			</note>
			<note>
				<pitch>
					<step>C</step>
					<octave>5</octave>
				</pitch>
				<duration>3360</duration>
				<voice>1</voice>
				<type>eighth</type>
				<stem default-y="27.48">up</stem>
				<beam number="1">continue</beam>
			</note>
			<note>
				<pitch>
					<step>B</step>
					<alter>-1</alter>
					<octave>4</octave>
				</pitch>
				<duration>3360</duration>
				<voice>1</voice>
				<type>eighth</type>
				<stem default-y="27.48">up</stem>
				<beam number="1">end</beam>
			</note>
			<backup>
				<duration>13440</duration>
			</backup>
			<note>
				<pitch>
					<step>C</step>
					<octave>4</octave>
				</pitch>
				<duration>20160</duration>
				<voice>2</voice>
				<type>half</type>
				<dot/>
				<stem default-y="-76.16">down</stem>
			</note>
			<backup>
				<duration>6720</duration>
			</backup>
			<note>
				<pitch>
					<step>A</step>
					<octave>4</octave>
				</pitch>
				<duration>6720</duration>
				<voice>1</voice>
				<type>quarter</type>
				<stem default-y="7.63">up</stem>
				<notations>
					<slur type="stop" number="1"/>
				</notations>
			</note>
			<note>
				<pitch>
					<step>B</step>
					<alter>-1</alter>
					<octave>4</octave>
				</pitch>
				<duration>6720</duration>
				<voice>1</voice>
				<type>quarter</type>
				<stem default-y="11.38">up</stem>
				<lyric number="1" justify="center" default-y="-106.86">
					<syllabic>single</syllabic>
					<text font-family="Times New Roman" font-size="13" font-weight="normal" font-style="normal" xml:lang="en">Je</text>
					<extend/>
				</lyric>
				<lyric number="2" justify="center" default-y="-135.08">
					<syllabic>single</syllabic>
					<text font-family="Times New Roman" font-size="13" font-weight="normal" font-style="normal" xml:lang="en">on</text>
				</lyric>
				<lyric number="3" justify="center" default-y="-163.30">
					<syllabic>single</syllabic>
					<text font-family="Times New Roman" font-size="13" font-weight="normal" font-style="normal" xml:lang="en">his</text>
				</lyric>
				<lyric number="4" justify="center" default-y="-191.52">
					<syllabic>single</syllabic>
					<text font-family="Times New Roman" font-size="13" font-weight="normal" font-style="normal" xml:lang="en">the</text>
				</lyric>
			</note>
			<note>
				<chord/>
				<pitch>
					<step>D</step>
					<octave>4</octave>
				</pitch>
				<duration>6720</duration>
				<voice>1</voice>
				<type>quarter</type>
				<stem default-y="11.38">up</stem>
			</note>
		</measure>
		<!--==========================[1,3]=============================-->
		<measure number="3" width="289">
			<note>
				<pitch>
					<step>A</step>
					<octave>4</octave>
				</pitch>
				<duration>6720</duration>
				<voice>1</voice>
				<type>quarter</type>
				<stem default-y="7.63">up</stem>
				<notations>
					<slur type="start" number="1" placement="above" orientation="over"/>
				</notations>
				<lyric number="1" justify="center" default-y="-106.86">
					<syllabic>single</syllabic>
					<text font-family="Times New Roman" font-size="13" font-weight="normal" font-style="normal" xml:lang="en">ru</text>
					<extend/>
				</lyric>
				<lyric number="2" justify="center" default-y="-135.08">
					<syllabic>single</syllabic>
					<text font-family="Times New Roman" font-size="13" font-weight="normal" font-style="normal" xml:lang="en">burst</text>
				</lyric>
				<lyric number="3" justify="center" default-y="-163.30">
					<syllabic>single</syllabic>
					<text font-family="Times New Roman" font-size="13" font-weight="normal" font-style="normal" xml:lang="en">glo</text>
					<extend/>
				</lyric>
				<lyric number="4" justify="center" default-y="-191.52">
					<syllabic>single</syllabic>
					<text font-family="Times New Roman" font-size="13" font-weight="normal" font-style="normal" xml:lang="en">Fa</text>
					<extend/>
				</lyric>
			</note>
			<backup>
				<duration>6720</duration>
			</backup>
			<note>
				<pitch>
					<step>C</step>
					<octave>4</octave>
				</pitch>
				<duration>13440</duration>
				<voice>2</voice>
				<type>half</type>
				<stem default-y="-76.16">down</stem>
			</note>
			<backup>
				<duration>6720</duration>
			</backup>
			<note>
				<pitch>
					<step>F</step>
					<octave>4</octave>
				</pitch>
				<duration>6720</duration>
				<voice>1</voice>
				<type>quarter</type>
				<stem default-y="0.13">up</stem>
				<notations>
					<slur type="stop" number="1"/>
				</notations>
			</note>
			<note>
				<pitch>
					<step>G</step>
					<octave>4</octave>
				</pitch>
				<duration>6720</duration>
				<voice>1</voice>
				<type>quarter</type>
				<stem default-y="3.88">up</stem>
				<notations>
					<slur type="start" number="1" placement="above" orientation="over"/>
				</notations>
				<lyric number="1" justify="center" default-y="-106.86">
					<syllabic>single</syllabic>
					<text font-family="Times New Roman" font-size="13" font-weight="normal" font-style="normal" xml:lang="en">sa</text>
					<extend/>
				</lyric>
				<lyric number="2" justify="center" default-y="-135.08">
					<syllabic>single</syllabic>
					<text font-family="Times New Roman" font-size="13" font-weight="normal" font-style="normal" xml:lang="en">his</text>
				</lyric>
				<lyric number="3" justify="center" default-y="-163.30">
					<syllabic>single</syllabic>
					<text font-family="Times New Roman" font-size="13" font-weight="normal" font-style="normal" xml:lang="en">ry</text>
				</lyric>
				<lyric number="4" justify="center" default-y="-191.52">
					<syllabic>single</syllabic>
					<text font-family="Times New Roman" font-size="13" font-weight="normal" font-style="normal" xml:lang="en">ther</text>
				</lyric>
			</note>
			<backup>
				<duration>6720</duration>
			</backup>
			<note>
				<pitch>
					<step>C</step>
					<octave>4</octave>
				</pitch>
				<duration>13440</duration>
				<voice>2</voice>
				<type>half</type>
				<stem default-y="-76.16">down</stem>
			</note>
			<backup>
				<duration>6720</duration>
			</backup>
			<note>
				<pitch>
					<step>E</step>
					<octave>4</octave>
				</pitch>
				<duration>6720</duration>
				<voice>1</voice>
				<type>quarter</type>
				<stem default-y="-4.87">up</stem>
				<notations>
					<slur type="stop" number="1"/>
				</notations>
			</note>
		</measure>
		<!--==========================[1,4]=============================-->
		<measure number="4" width="279">
			<note>
				<pitch>
					<step>F</step>
					<octave>4</octave>
				</pitch>
				<duration>20160</duration>
				<voice>1</voice>
				<type>half</type>
				<dot/>
				<stem default-y="0.86">up</stem>
				<lyric number="1" justify="center" default-y="-106.86">
					<syllabic>single</syllabic>
					<text font-family="Times New Roman" font-size="13" font-weight="normal" font-style="normal" xml:lang="en">lem,</text>
				</lyric>
				<lyric number="2" justify="center" default-y="-135.08">
					<syllabic>single</syllabic>
					<text font-family="Times New Roman" font-size="13" font-weight="normal" font-style="normal" xml:lang="en">chains</text>
				</lyric>
				<lyric number="3" justify="center" default-y="-163.30">
					<syllabic>single</syllabic>
					<text font-family="Times New Roman" font-size="13" font-weight="normal" font-style="normal" xml:lang="en">now,</text>
				</lyric>
				<lyric number="4" justify="center" default-y="-191.52">
					<syllabic>single</syllabic>
					<text font-family="Times New Roman" font-size="13" font-weight="normal" font-style="normal" xml:lang="en">be,</text>
				</lyric>
			</note>
			<note>
				<chord/>
				<pitch>
					<step>C</step>
					<octave>4</octave>
				</pitch>
				<duration>20160</duration>
				<voice>1</voice>
				<type>half</type>
				<dot/>
				<stem default-y="0.86">up</stem>
			</note>
			<note>
				<pitch>
					<step>A</step>
					<octave>4</octave>
				</pitch>
				<duration>6720</duration>
				<voice>1</voice>
				<type>quarter</type>
				<stem default-y="7.63">up</stem>
				<lyric number="1" justify="center" default-y="-106.86">
					<syllabic>single</syllabic>
					<text font-family="Times New Roman" font-size="13" font-weight="normal" font-style="normal" xml:lang="en">your</text>
				</lyric>
				<lyric number="2" justify="center" default-y="-135.08">
					<syllabic>single</syllabic>
					<text font-family="Times New Roman" font-size="13" font-weight="normal" font-style="normal" xml:lang="en">and</text>
				</lyric>
				<lyric number="3" justify="center" default-y="-163.30">
					<syllabic>single</syllabic>
					<text font-family="Times New Roman" font-size="13" font-weight="normal" font-style="normal" xml:lang="en">to</text>
				</lyric>
				<lyric number="4" justify="center" default-y="-191.52">
					<syllabic>single</syllabic>
					<text font-family="Times New Roman" font-size="13" font-weight="normal" font-style="normal" xml:lang="en">all</text>
				</lyric>
			</note>
			<note>
				<chord/>
				<pitch>
					<step>F</step>
					<octave>4</octave>
				</pitch>
				<duration>6720</duration>
				<voice>1</voice>
				<type>quarter</type>
				<stem default-y="7.63">up</stem>
			</note>
		</measure>
		<!--==========================[1,5]=============================-->
		<measure number="5" width="406">
			<print new-system="yes">
				<system-layout>
					<system-margins>
						<left-margin>2.400</left-margin>
						<right-margin>0.000</right-margin>
					</system-margins>
					<system-distance>253.808</system-distance>
				</system-layout>
			</print>
			<attributes>
				<staff-details number="1" print-object="yes">
				</staff-details>
			</attributes>
			<note>
				<pitch>
					<step>B</step>
					<alter>-1</alter>
					<octave>4</octave>
				</pitch>
				<duration>6720</duration>
				<voice>1</voice>
				<type>quarter</type>
				<stem default-y="11.38">up</stem>
				<lyric number="1" justify="center" default-y="-106.86">
					<syllabic>begin</syllabic>
					<text font-family="Times New Roman" font-size="13" font-weight="normal" font-style="normal" xml:lang="en">sweet</text>
				</lyric>
				<lyric number="2" justify="center" default-y="-135.08">
					<syllabic>end</syllabic>
					<text font-family="Times New Roman" font-size="13" font-weight="normal" font-style="normal" xml:lang="en">crushed</text>
				</lyric>
				<lyric number="3" justify="center" default-y="-163.30">
					<syllabic>single</syllabic>
					<text font-family="Times New Roman" font-size="13" font-weight="normal" font-style="normal" xml:lang="en">him</text>
				</lyric>
				<lyric number="4" justify="center" default-y="-191.52">
					<syllabic>begin</syllabic>
					<text font-family="Times New Roman" font-size="13" font-weight="normal" font-style="normal" xml:lang="en">glo</text>
				</lyric>
			</note>
			<note>
				<chord/>
				<pitch>
					<step>E</step>
					<octave>4</octave>
				</pitch>
				<duration>6720</duration>
				<voice>1</voice>
				<type>quarter</type>
				<stem default-y="11.38">up</stem>
			</note>
			<note>
				<pitch>
					<step>A</step>
					<octave>4</octave>
				</pitch>
				<duration>6720</duration>
				<voice>1</voice>
				<type>quarter</type>
				<stem default-y="7.63">up</stem>
				<lyric number="1" justify="center" default-y="-106.86">
					<syllabic>end</syllabic>
					<text font-family="Times New Roman" font-size="13" font-weight="normal" font-style="normal" xml:lang="en">est</text>
				</lyric>
				<lyric number="2" justify="center" default-y="-135.08">
					<syllabic>single</syllabic>
					<text font-family="Times New Roman" font-size="13" font-weight="normal" font-style="normal" xml:lang="en">the</text>
				</lyric>
				<lyric number="3" justify="center" default-y="-163.30">
					<syllabic>single</syllabic>
					<text font-family="Times New Roman" font-size="13" font-weight="normal" font-style="normal" xml:lang="en">all</text>
				</lyric>
				<lyric number="4" justify="center" default-y="-191.52">
					<syllabic>single</syllabic>
					<text font-family="Times New Roman" font-size="13" font-weight="normal" font-style="normal" xml:lang="en">ry</text>
				</lyric>
			</note>
			<note>
				<chord/>
				<pitch>
					<step>F</step>
					<octave>4</octave>
				</pitch>
				<duration>6720</duration>
				<voice>1</voice>
				<type>quarter</type>
				<stem default-y="7.63">up</stem>
			</note>
			<note>
				<pitch>
					<step>G</step>
					<octave>4</octave>
				</pitch>
				<duration>6720</duration>
				<voice>1</voice>
				<type>quarter</type>
				<stem default-y="3.88">up</stem>
				<lyric number="1" justify="center" default-y="-106.86">
					<syllabic>single</syllabic>
					<text font-family="Times New Roman" font-size="13" font-weight="normal" font-style="normal" xml:lang="en">notes</text>
				</lyric>
				<lyric number="2" justify="center" default-y="-135.08">
					<syllabic>begin</syllabic>
					<text font-family="Times New Roman" font-size="13" font-weight="normal" font-style="normal" xml:lang="en">ser</text>
				</lyric>
				<lyric number="3" justify="center" default-y="-163.30">
					<syllabic>end</syllabic>
					<text font-family="Times New Roman" font-size="13" font-weight="normal" font-style="normal" xml:lang="en">pow'r</text>
				</lyric>
				<lyric number="4" justify="center" default-y="-191.52">
					<syllabic>single</syllabic>
					<text font-family="Times New Roman" font-size="13" font-weight="normal" font-style="normal" xml:lang="en">to</text>
				</lyric>
			</note>
			<backup>
				<duration>6720</duration>
			</backup>
			<note>
				<pitch>
					<step>G</step>
					<octave>4</octave>
				</pitch>
				<duration>6720</duration>
				<voice>2</voice>
				<type>quarter</type>
				<stem default-y="-59.68">down</stem>
			</note>
			<note>
				<pitch>
					<step>F</step>
					<octave>4</octave>
				</pitch>
				<duration>6720</duration>
				<voice>1</voice>
				<type>quarter</type>
				<stem default-y="0.13">up</stem>
				<lyric number="1" justify="center" default-y="-106.86">
					<syllabic>begin</syllabic>
					<text font-family="Times New Roman" font-size="13" font-weight="normal" font-style="normal" xml:lang="en">em</text>
				</lyric>
				<lyric number="2" justify="center" default-y="-135.08">
					<syllabic>end</syllabic>
					<text font-family="Times New Roman" font-size="13" font-weight="normal" font-style="normal" xml:lang="en">pent's</text>
				</lyric>
				<lyric number="3" justify="center" default-y="-163.30">
					<syllabic>single</syllabic>
					<text font-family="Times New Roman" font-size="13" font-weight="normal" font-style="normal" xml:lang="en">is</text>
				</lyric>
				<lyric number="4" justify="center" default-y="-191.52">
					<syllabic>single</syllabic>
					<text font-family="Times New Roman" font-size="13" font-weight="normal" font-style="normal" xml:lang="en">the</text>
				</lyric>
			</note>
			<note>
				<chord/>
				<pitch>
					<step>D</step>
					<octave>4</octave>
				</pitch>
				<duration>6720</duration>
				<voice>1</voice>
				<type>quarter</type>
				<stem default-y="0.13">up</stem>
			</note>
		</measure>
		<!--==========================[1,6]=============================-->
		<measure number="6" width="216">
			<note>
				<pitch>
					<step>G</step>
					<octave>4</octave>
				</pitch>
				<duration>20160</duration>
				<voice>1</voice>
				<type>half</type>
				<dot/>
				<stem default-y="4.61">up</stem>
				<lyric number="1" justify="center" default-y="-106.86">
					<syllabic>single</syllabic>
					<text font-family="Times New Roman" font-size="13" font-weight="normal" font-style="normal" xml:lang="en">ploy,</text>
				</lyric>
				<lyric number="2" justify="center" default-y="-135.08">
					<syllabic>single</syllabic>
					<text font-family="Times New Roman" font-size="13" font-weight="normal" font-style="normal" xml:lang="en">head,</text>
				</lyric>
				<lyric number="3" justify="center" default-y="-163.30">
					<syllabic>single</syllabic>
					<text font-family="Times New Roman" font-size="13" font-weight="normal" font-style="normal" xml:lang="en">giv'n,</text>
				</lyric>
				<lyric number="4" justify="center" default-y="-191.52">
					<syllabic>single</syllabic>
					<text font-family="Times New Roman" font-size="13" font-weight="normal" font-style="normal" xml:lang="en">
Son,</text>
				</lyric>
			</note>
			<note>
				<chord/>
				<pitch>
					<step>E</step>
					<octave>4</octave>
				</pitch>
				<duration>20160</duration>
				<voice>1</voice>
				<type>half</type>
				<dot/>
				<stem default-y="4.61">up</stem>
			</note>
			<note>
				<pitch>
					<step>G</step>
					<octave>4</octave>
				</pitch>
				<duration>6720</duration>
				<voice>1</voice>
				<type>quarter</type>
				<stem default-y="3.88">up</stem>
				<lyric number="1" justify="center" default-y="-106.86">
					<syllabic>single</syllabic>
					<text font-family="Times New Roman" font-size="13" font-weight="normal" font-style="normal" xml:lang="en">your</text>
				</lyric>
				<lyric number="2" justify="center" default-y="-135.08">
					<syllabic>single</syllabic>
					<text font-family="Times New Roman" font-size="13" font-weight="normal" font-style="normal" xml:lang="en">and</text>
				</lyric>
				<lyric number="3" justify="center" default-y="-163.30">
					<syllabic>single</syllabic>
					<text font-family="Times New Roman" font-size="13" font-weight="normal" font-style="normal" xml:lang="en">to</text>
				</lyric>
				<lyric number="4" justify="center" default-y="-191.52">
					<syllabic>single</syllabic>
					<text font-family="Times New Roman" font-size="13" font-weight="normal" font-style="normal" xml:lang="en">all</text>
				</lyric>
			</note>
			<note>
				<chord/>
				<pitch>
					<step>E</step>
					<octave>4</octave>
				</pitch>
				<duration>6720</duration>
				<voice>1</voice>
				<type>quarter</type>
				<stem default-y="3.88">up</stem>
			</note>
		</measure>
		<!--==========================[1,7]=============================-->
		<measure number="7" width="302">
			<note>
				<pitch>
					<step>A</step>
					<octave>4</octave>
				</pitch>
				<duration>5040</duration>
				<voice>1</voice>
				<type>eighth</type>
				<dot/>
				<stem default-y="13.88">up</stem>
				<beam number="1">begin</beam>
				<notations>
					<slur type="start" number="1" placement="above" orientation="over"/>
				</notations>
				<lyric number="1" justify="center" default-y="-106.86">
					<syllabic>begin</syllabic>
					<text font-family="Times New Roman" font-size="13" font-weight="normal" font-style="normal" xml:lang="en">sweet</text>
				</lyric>
				<lyric number="2" justify="center" default-y="-135.08">
					<syllabic>end</syllabic>
					<text font-family="Times New Roman" font-size="13" font-weight="normal" font-style="normal" xml:lang="en">crushed</text>
				</lyric>
				<lyric number="3" justify="center" default-y="-163.30">
					<syllabic>single</syllabic>
					<text font-family="Times New Roman" font-size="13" font-weight="normal" font-style="normal" xml:lang="en">him</text>
				</lyric>
				<lyric number="4" justify="center" default-y="-191.52">
					<syllabic>begin</syllabic>
					<text font-family="Times New Roman" font-size="13" font-weight="normal" font-style="normal" xml:lang="en">glo</text>
				</lyric>
			</note>
			<note>
				<pitch>
					<step>G</step>
					<octave>4</octave>
				</pitch>
				<duration>1680</duration>
				<voice>1</voice>
				<type>16th</type>
				<stem default-y="13.88">up</stem>
				<beam number="1">continue</beam>
			</note>
			<note>
				<pitch>
					<step>A</step>
					<octave>4</octave>
				</pitch>
				<duration>3360</duration>
				<voice>1</voice>
				<type>eighth</type>
				<stem default-y="13.88">up</stem>
				<beam number="1">continue</beam>
			</note>
			<note>
				<pitch>
					<step>B</step>
					<alter>-1</alter>
					<octave>4</octave>
				</pitch>
				<duration>3360</duration>
				<voice>1</voice>
				<type>eighth</type>
				<stem default-y="13.88">up</stem>
				<beam number="1">end</beam>
			</note>
			<backup>
				<duration>13440</duration>
			</backup>
			<note>
				<pitch>
					<step>F</step>
					<octave>4</octave>
				</pitch>
				<duration>20160</duration>
				<voice>2</voice>
				<type>half</type>
				<dot/>
				<stem default-y="-64.16">down</stem>
			</note>
			<backup>
				<duration>6720</duration>
			</backup>
			<note>
				<pitch>
					<step>C</step>
					<octave>5</octave>
				</pitch>
				<duration>6720</duration>
				<voice>1</voice>
				<type>quarter</type>
				<stem default-y="15.13">up</stem>
				<notations>
					<slur type="stop" number="1"/>
				</notations>
			</note>
			<note>
				<pitch>
					<step>D</step>
					<octave>5</octave>
				</pitch>
				<duration>6720</duration>
				<voice>1</voice>
				<type>quarter</type>
				<stem default-y="18.88">up</stem>
				<lyric number="1" justify="center" default-y="-106.86">
					<syllabic>end</syllabic>
					<text font-family="Times New Roman" font-size="13" font-weight="normal" font-style="normal" xml:lang="en">est</text>
				</lyric>
				<lyric number="2" justify="center" default-y="-135.08">
					<syllabic>single</syllabic>
					<text font-family="Times New Roman" font-size="13" font-weight="normal" font-style="normal" xml:lang="en">the</text>
				</lyric>
				<lyric number="3" justify="center" default-y="-163.30">
					<syllabic>single</syllabic>
					<text font-family="Times New Roman" font-size="13" font-weight="normal" font-style="normal" xml:lang="en">all</text>
				</lyric>
				<lyric number="4" justify="center" default-y="-191.52">
					<syllabic>single</syllabic>
					<text font-family="Times New Roman" font-size="13" font-weight="normal" font-style="normal" xml:lang="en">ry</text>
				</lyric>
			</note>
			<note>
				<chord/>
				<pitch>
					<step>F</step>
					<octave>4</octave>
				</pitch>
				<duration>6720</duration>
				<voice>1</voice>
				<type>quarter</type>
				<stem default-y="18.88">up</stem>
			</note>
		</measure>
		<!--==========================[1,8]=============================-->
		<measure number="8" width="216">
			<note>
				<pitch>
					<step>C</step>
					<octave>5</octave>
				</pitch>
				<duration>13440</duration>
				<voice>1</voice>
				<type>half</type>
				<stem default-y="15.86">up</stem>
				<lyric number="1" justify="center" default-y="-106.86">
					<syllabic>single</syllabic>
					<text font-family="Times New Roman" font-size="13" font-weight="normal" font-style="normal" xml:lang="en">notes</text>
				</lyric>
				<lyric number="2" justify="center" default-y="-135.08">
					<syllabic>begin</syllabic>
					<text font-family="Times New Roman" font-size="13" font-weight="normal" font-style="normal" xml:lang="en">ser</text>
				</lyric>
				<lyric number="3" justify="center" default-y="-163.30">
					<syllabic>end</syllabic>
					<text font-family="Times New Roman" font-size="13" font-weight="normal" font-style="normal" xml:lang="en">pow'r</text>
				</lyric>
				<lyric number="4" justify="center" default-y="-191.52">
					<syllabic>single</syllabic>
					<text font-family="Times New Roman" font-size="13" font-weight="normal" font-style="normal" xml:lang="en">to</text>
				</lyric>
			</note>
			<note>
				<chord/>
				<pitch>
					<step>E</step>
					<octave>4</octave>
				</pitch>
				<duration>13440</duration>
				<voice>1</voice>
				<type>half</type>
				<stem default-y="15.86">up</stem>
			</note>
			<note>
				<pitch>
					<step>B</step>
					<octave>4</octave>
				</pitch>
				<duration>13440</duration>
				<voice>1</voice>
				<type>half</type>
				<accidental>natural</accidental>
				<stem default-y="12.11">up</stem>
				<lyric number="1" justify="center" default-y="-106.86">
					<syllabic>begin</syllabic>
					<text font-family="Times New Roman" font-size="13" font-weight="normal" font-style="normal" xml:lang="en">em</text>
				</lyric>
				<lyric number="2" justify="center" default-y="-135.08">
					<syllabic>end</syllabic>
					<text font-family="Times New Roman" font-size="13" font-weight="normal" font-style="normal" xml:lang="en">pent's</text>
				</lyric>
				<lyric number="3" justify="center" default-y="-163.30">
					<syllabic>single</syllabic>
					<text font-family="Times New Roman" font-size="13" font-weight="normal" font-style="normal" xml:lang="en">is</text>
				</lyric>
				<lyric number="4" justify="center" default-y="-191.52">
					<syllabic>single</syllabic>
					<text font-family="Times New Roman" font-size="13" font-weight="normal" font-style="normal" xml:lang="en">the</text>
				</lyric>
			</note>
			<note>
				<chord/>
				<pitch>
					<step>D</step>
					<octave>4</octave>
				</pitch>
				<duration>13440</duration>
				<voice>1</voice>
				<type>half</type>
				<stem default-y="12.11">up</stem>
			</note>
		</measure>
		<!--==========================[1,9]=============================-->
		<measure number="9" width="162">
			<note>
				<pitch>
					<step>C</step>
					<octave>5</octave>
				</pitch>
				<duration>26880</duration>
				<voice>1</voice>
				<type>whole</type>
				<stem>none</stem>
				<lyric number="1" justify="center" default-y="-106.86">
					<syllabic>single</syllabic>
					<text font-family="Times New Roman" font-size="13" font-weight="normal" font-style="normal" xml:lang="en">ploy</text>
				</lyric>
				<lyric number="2" justify="center" default-y="-135.08">
					<syllabic>single</syllabic>
					<text font-family="Times New Roman" font-size="13" font-weight="normal" font-style="normal" xml:lang="en">head;</text>
				</lyric>
				<lyric number="3" justify="center" default-y="-163.30">
					<syllabic>single</syllabic>
					<text font-family="Times New Roman" font-size="13" font-weight="normal" font-style="normal" xml:lang="en">giv'n;</text>
				</lyric>
				<lyric number="4" justify="center" default-y="-191.52">
					<syllabic>single</syllabic>
					<text font-family="Times New Roman" font-size="13" font-weight="normal" font-style="normal" xml:lang="en">
Son,</text>
				</lyric>
			</note>
			<note>
				<chord/>
				<pitch>
					<step>E</step>
					<octave>4</octave>
				</pitch>
				<duration>26880</duration>
				<voice>1</voice>
				<type>whole</type>
				<stem>none</stem>
			</note>
		</measure>
		<!--==========================[1,10]=============================-->
		<measure number="10" width="401">
			<print new-system="yes">
				<system-layout>
					<system-margins>
						<left-margin>2.400</left-margin>
						<right-margin>0.000</right-margin>
					</system-margins>
					<system-distance>253.808</system-distance>
				</system-layout>
			</print>
			<attributes>
				<staff-details number="1" print-object="yes">
				</staff-details>
			</attributes>
			<note>
				<pitch>
					<step>C</step>
					<octave>5</octave>
				</pitch>
				<duration>13440</duration>
				<voice>1</voice>
				<type>half</type>
				<stem default-y="15.86">up</stem>
				<lyric number="1" justify="center" default-y="-106.86">
					<syllabic>single</syllabic>
					<text font-family="Times New Roman" font-size="13" font-weight="normal" font-style="normal" xml:lang="en">the</text>
				</lyric>
				<lyric number="2" justify="center" default-y="-135.08">
					<syllabic>single</syllabic>
					<text font-family="Times New Roman" font-size="13" font-weight="normal" font-style="normal" xml:lang="en">Christ</text>
				</lyric>
				<lyric number="3" justify="center" default-y="-163.30">
					<syllabic>single</syllabic>
					<text font-family="Times New Roman" font-size="13" font-weight="normal" font-style="normal" xml:lang="en">to</text>
				</lyric>
				<lyric number="4" justify="center" default-y="-191.52">
					<syllabic>single</syllabic>
					<text font-family="Times New Roman" font-size="13" font-weight="normal" font-style="normal" xml:lang="en">all</text>
				</lyric>
			</note>
			<note>
				<chord/>
				<pitch>
					<step>F</step>
					<octave>4</octave>
				</pitch>
				<duration>13440</duration>
				<voice>1</voice>
				<type>half</type>
				<stem default-y="15.86">up</stem>
			</note>
			<note>
				<pitch>
					<step>C</step>
					<octave>5</octave>
				</pitch>
				<duration>6720</duration>
				<voice>1</voice>
				<type>quarter</type>
				<stem default-y="15.13">up</stem>
				<lyric number="1" justify="center" default-y="-106.86">
					<syllabic>begin</syllabic>
					<text font-family="Times New Roman" font-size="13" font-weight="normal" font-style="normal" xml:lang="en">pas</text>
				</lyric>
				<lyric number="2" justify="center" default-y="-135.08">
					<syllabic>end</syllabic>
					<text font-family="Times New Roman" font-size="13" font-weight="normal" font-style="normal" xml:lang="en">cries</text>
				</lyric>
				<lyric number="3" justify="center" default-y="-163.30">
					<syllabic>single</syllabic>
					<text font-family="Times New Roman" font-size="13" font-weight="normal" font-style="normal" xml:lang="en">him</text>
				</lyric>
				<lyric number="4" justify="center" default-y="-191.52">
					<syllabic>begin</syllabic>
					<text font-family="Times New Roman" font-size="13" font-weight="normal" font-style="normal" xml:lang="en">glo</text>
				</lyric>
			</note>
			<note>
				<chord/>
				<pitch>
					<step>F</step>
					<octave>4</octave>
				</pitch>
				<duration>6720</duration>
				<voice>1</voice>
				<type>quarter</type>
				<stem default-y="15.13">up</stem>
			</note>
			<note>
				<pitch>
					<step>C</step>
					<octave>5</octave>
				</pitch>
				<duration>6720</duration>
				<voice>1</voice>
				<type>quarter</type>
				<stem default-y="15.13">up</stem>
				<lyric number="1" justify="center" default-y="-106.86">
					<syllabic>end</syllabic>
					<text font-family="Times New Roman" font-size="13" font-weight="normal" font-style="normal" xml:lang="en">chal</text>
				</lyric>
				<lyric number="2" justify="center" default-y="-135.08">
					<syllabic>begin</syllabic>
					<text font-family="Times New Roman" font-size="13" font-weight="normal" font-style="normal" xml:lang="en">a</text>
				</lyric>
				<lyric number="3" justify="center" default-y="-163.30">
					<syllabic>end</syllabic>
					<text font-family="Times New Roman" font-size="13" font-weight="normal" font-style="normal" xml:lang="en">in</text>
				</lyric>
				<lyric number="4" justify="center" default-y="-191.52">
					<syllabic>single</syllabic>
					<text font-family="Times New Roman" font-size="13" font-weight="normal" font-style="normal" xml:lang="en">ry</text>
				</lyric>
			</note>
			<note>
				<chord/>
				<pitch>
					<step>F</step>
					<octave>4</octave>
				</pitch>
				<duration>6720</duration>
				<voice>1</voice>
				<type>quarter</type>
				<stem default-y="15.13">up</stem>
			</note>
		</measure>
		<!--==========================[1,11]=============================-->
		<measure number="11" width="363">
			<note>
				<pitch>
					<step>A</step>
					<octave>4</octave>
				</pitch>
				<duration>10080</duration>
				<voice>1</voice>
				<type>quarter</type>
				<dot/>
				<stem default-y="7.63">up</stem>
				<notations>
					<slur type="start" number="1" placement="above" orientation="over"/>
				</notations>
				<lyric number="1" justify="center" default-y="-106.86">
					<syllabic>begin</syllabic>
					<text font-family="Times New Roman" font-size="13" font-weight="normal" font-style="normal" xml:lang="en">vic</text>
				</lyric>
				<lyric number="2" justify="center" default-y="-135.08">
					<syllabic>end</syllabic>
					<text font-family="Times New Roman" font-size="13" font-weight="normal" font-style="normal" xml:lang="en">loud</text>
				</lyric>
				<lyric number="3" justify="center" default-y="-163.30">
					<syllabic>single</syllabic>
					<text font-family="Times New Roman" font-size="13" font-weight="normal" font-style="normal" xml:lang="en">one</text>
				</lyric>
				<lyric number="4" justify="center" default-y="-191.52">
					<syllabic>single</syllabic>
					<text font-family="Times New Roman" font-size="13" font-weight="normal" font-style="normal" xml:lang="en">to</text>
				</lyric>
			</note>
			<backup>
				<duration>10080</duration>
			</backup>
			<note>
				<pitch>
					<step>F</step>
					<octave>4</octave>
				</pitch>
				<duration>20160</duration>
				<voice>2</voice>
				<type>half</type>
				<dot/>
				<stem default-y="-64.16">down</stem>
			</note>
			<backup>
				<duration>10080</duration>
			</backup>
			<note>
				<pitch>
					<step>G</step>
					<octave>4</octave>
				</pitch>
				<duration>3360</duration>
				<voice>1</voice>
				<type>eighth</type>
				<stem default-y="3.88">up</stem>
			</note>
			<note>
				<pitch>
					<step>F</step>
					<octave>4</octave>
				</pitch>
				<duration>6720</duration>
				<voice>1</voice>
				<type>quarter</type>
				<stem default-y="0.13">up</stem>
				<notations>
					<slur type="stop" number="1"/>
				</notations>
			</note>
			<note>
				<pitch>
					<step>A</step>
					<octave>4</octave>
				</pitch>
				<duration>6720</duration>
				<voice>1</voice>
				<type>quarter</type>
				<stem default-y="7.63">up</stem>
				<lyric number="1" justify="center" default-y="-106.86">
					<syllabic>begin</syllabic>
					<text font-family="Times New Roman" font-size="13" font-weight="normal" font-style="normal" xml:lang="en">to</text>
				</lyric>
				<lyric number="2" justify="center" default-y="-135.08">
					<syllabic>end</syllabic>
					<text font-family="Times New Roman" font-size="13" font-weight="normal" font-style="normal" xml:lang="en">through</text>
				</lyric>
				<lyric number="3" justify="center" default-y="-163.30">
					<syllabic>begin</syllabic>
					<text font-family="Times New Roman" font-size="13" font-weight="normal" font-style="normal" xml:lang="en">com</text>
				</lyric>
				<lyric number="4" justify="center" default-y="-191.52">
					<syllabic>end</syllabic>
					<text font-family="Times New Roman" font-size="13" font-weight="normal" font-style="normal" xml:lang="en">the</text>
				</lyric>
			</note>
			<note>
				<chord/>
				<pitch>
					<step>F</step>
					<octave>4</octave>
				</pitch>
				<duration>6720</duration>
				<voice>1</voice>
				<type>quarter</type>
				<stem default-y="7.63">up</stem>
			</note>
		</measure>
		<!--==========================[1,12]=============================-->
		<measure number="12" width="343">
			<note>
				<pitch>
					<step>B</step>
					<alter>-1</alter>
					<octave>4</octave>
				</pitch>
				<duration>6720</duration>
				<voice>1</voice>
				<type>quarter</type>
				<stem default-y="11.38">up</stem>
				<notations>
					<slur type="start" number="1" placement="above" orientation="over"/>
				</notations>
				<lyric number="1" justify="center" default-y="-106.86">
					<syllabic>single</syllabic>
					<text font-family="Times New Roman" font-size="13" font-weight="normal" font-style="normal" xml:lang="en">ry</text>
				</lyric>
				<lyric number="2" justify="center" default-y="-135.08">
					<syllabic>single</syllabic>
					<text font-family="Times New Roman" font-size="13" font-weight="normal" font-style="normal" xml:lang="en">death's</text>
				</lyric>
				<lyric number="3" justify="center" default-y="-163.30">
					<syllabic>begin</syllabic>
					<text font-family="Times New Roman" font-size="13" font-weight="normal" font-style="normal" xml:lang="en">mu</text>
				</lyric>
				<lyric number="4" justify="center" default-y="-191.52">
					<syllabic>middle</syllabic>
					<text font-family="Times New Roman" font-size="13" font-weight="normal" font-style="normal" xml:lang="en">
Spir</text>
				</lyric>
			</note>
			<note>
				<chord/>
				<pitch>
					<step>E</step>
					<octave>4</octave>
				</pitch>
				<duration>6720</duration>
				<voice>1</voice>
				<type>quarter</type>
				<stem default-y="11.38">up</stem>
				<notations>
					<slur type="start" number="2" placement="below" orientation="under"/>
				</notations>
			</note>
			<note>
				<pitch>
					<step>A</step>
					<octave>4</octave>
				</pitch>
				<duration>6720</duration>
				<voice>1</voice>
				<type>quarter</type>
				<stem default-y="7.63">up</stem>
			</note>
			<note>
				<chord/>
				<pitch>
					<step>F</step>
					<octave>4</octave>
				</pitch>
				<duration>6720</duration>
				<voice>1</voice>
				<type>quarter</type>
				<stem default-y="7.63">up</stem>
			</note>
			<note>
				<pitch>
					<step>G</step>
					<octave>4</octave>
				</pitch>
				<duration>6720</duration>
				<voice>1</voice>
				<type>quarter</type>
				<stem default-y="3.88">up</stem>
				<notations>
					<slur type="stop" number="2"/>
					<slur type="stop" number="1"/>
				</notations>
			</note>
			<backup>
				<duration>6720</duration>
			</backup>
			<note>
				<pitch>
					<step>G</step>
					<octave>4</octave>
				</pitch>
				<duration>6720</duration>
				<voice>2</voice>
				<type>quarter</type>
				<stem default-y="-59.68">down</stem>
			</note>
			<note>
				<pitch>
					<step>F</step>
					<octave>4</octave>
				</pitch>
				<duration>6720</duration>
				<voice>1</voice>
				<type>quarter</type>
				<stem default-y="0.13">up</stem>
				<lyric number="1" justify="center" default-y="-106.86">
					<syllabic>end</syllabic>
					<text font-family="Times New Roman" font-size="13" font-weight="normal" font-style="normal" xml:lang="en">to</text>
				</lyric>
				<lyric number="2" justify="center" default-y="-135.08">
					<syllabic>begin</syllabic>
					<text font-family="Times New Roman" font-size="13" font-weight="normal" font-style="normal" xml:lang="en">do</text>
				</lyric>
				<lyric number="3" justify="center" default-y="-163.30">
					<syllabic>end</syllabic>
					<text font-family="Times New Roman" font-size="13" font-weight="normal" font-style="normal" xml:lang="en">nion</text>
				</lyric>
				<lyric number="4" justify="center" default-y="-191.52">
					<syllabic>single</syllabic>
					<text font-family="Times New Roman" font-size="13" font-weight="normal" font-style="normal" xml:lang="en">it</text>
				</lyric>
			</note>
			<note>
				<chord/>
				<pitch>
					<step>D</step>
					<octave>4</octave>
				</pitch>
				<duration>6720</duration>
				<voice>1</voice>
				<type>quarter</type>
				<stem default-y="0.13">up</stem>
			</note>
		</measure>
		<!--==========================[1,13]=============================-->
		<measure number="13" width="195">
			<note>
				<pitch>
					<step>G</step>
					<octave>4</octave>
				</pitch>
				<duration>20160</duration>
				<voice>1</voice>
				<type>half</type>
				<dot/>
				<stem default-y="4.61">up</stem>
				<lyric number="1" justify="center" default-y="-106.86">
					<syllabic>single</syllabic>
					<text font-family="Times New Roman" font-size="13" font-weight="normal" font-style="normal" xml:lang="en">hymn</text>
				</lyric>
				<lyric number="2" justify="center" default-y="-135.08">
					<syllabic>single</syllabic>
					<text font-family="Times New Roman" font-size="13" font-weight="normal" font-style="normal" xml:lang="en">mains</text>
				</lyric>
				<lyric number="3" justify="center" default-y="-163.30">
					<syllabic>single</syllabic>
					<text font-family="Times New Roman" font-size="13" font-weight="normal" font-style="normal" xml:lang="en">bow</text>
				</lyric>
				<lyric number="4" justify="center" default-y="-191.52">
					<syllabic>single</syllabic>
					<text font-family="Times New Roman" font-size="13" font-weight="normal" font-style="normal" xml:lang="en">be</text>
				</lyric>
			</note>
			<note>
				<chord/>
				<pitch>
					<step>E</step>
					<octave>4</octave>
				</pitch>
				<duration>20160</duration>
				<voice>1</voice>
				<type>half</type>
				<dot/>
				<stem default-y="4.61">up</stem>
			</note>
		</measure>
	</part>
	<part id="P2">
		<!--==========================[2,1]=============================-->
		<measure number="1" width="430">
			<print new-page="yes">
				<staff-layout number="1">
					<staff-distance>191.125</staff-distance>
				</staff-layout>
			</print>
			<barline location="left">
				<repeat direction="forward"/>
			</barline>
			<attributes>
				<divisions>6720</divisions>
				<key>
					<fifths>-1</fifths>
					<mode>major</mode>
				</key>
				<time>
					<beats>2</beats>
					<beat-type>2</beat-type>
				</time>
				<clef number="1">
					<sign>F</sign>
					<line>4</line>
				</clef>
				<staff-details number="1" print-object="yes">
					<staff-lines>5</staff-lines>
					<staff-size>100.00</staff-size>
				</staff-details>
			</attributes>
			<note>
				<pitch>
					<step>A</step>
					<octave>3</octave>
				</pitch>
				<duration>13440</duration>
				<voice>2</voice>
				<type>half</type>
				<stem default-y="-45.41">down</stem>
			</note>
			<note>
				<chord/>
				<pitch>
					<step>F</step>
					<octave>3</octave>
				</pitch>
				<duration>13440</duration>
				<voice>2</voice>
				<type>half</type>
				<stem default-y="-45.41">down</stem>
			</note>
			<note>
				<pitch>
					<step>F</step>
					<octave>3</octave>
				</pitch>
				<duration>10080</duration>
				<voice>1</voice>
				<type>quarter</type>
				<dot/>
				<stem default-y="18.88">up</stem>
				<notations>
					<articulations>
						<staccato placement="below" relative-x="18.41" relative-y="5.01"/>
					</articulations>
				</notations>
			</note>
			<backup>
				<duration>10080</duration>
			</backup>
			<note>
				<pitch>
					<step>F</step>
					<octave>3</octave>
				</pitch>
				<duration>10080</duration>
				<voice>2</voice>
				<type>quarter</type>
				<dot/>
				<stem default-y="-44.68">down</stem>
			</note>
			<note>
				<pitch>
					<step>G</step>
					<octave>3</octave>
				</pitch>
				<duration>3360</duration>
				<voice>1</voice>
				<type>eighth</type>
				<stem default-y="22.63">up</stem>
			</note>
			<backup>
				<duration>3360</duration>
			</backup>
			<note>
				<pitch>
					<step>F</step>
					<octave>3</octave>
				</pitch>
				<duration>3360</duration>
				<voice>2</voice>
				<type>eighth</type>
				<stem default-y="-45.93">down</stem>
			</note>
		</measure>
		<!--==========================[2,2]=============================-->
		<measure number="2" width="305">
			<note>
				<pitch>
					<step>A</step>
					<octave>3</octave>
				</pitch>
				<duration>5040</duration>
				<voice>1</voice>
				<type>eighth</type>
				<dot/>
				<stem default-y="42.48">up</stem>
				<beam number="1">begin</beam>
				<notations>
					<slur type="start" number="1" placement="above" orientation="over"/>
				</notations>
			</note>
			<note>
				<pitch>
					<step>B</step>
					<alter>-1</alter>
					<octave>3</octave>
				</pitch>
				<duration>1680</duration>
				<voice>1</voice>
				<type>16th</type>
				<stem default-y="42.48">up</stem>
				<beam number="1">continue</beam>
			</note>
			<note>
				<pitch>
					<step>A</step>
					<octave>3</octave>
				</pitch>
				<duration>3360</duration>
				<voice>1</voice>
				<type>eighth</type>
				<stem default-y="42.48">up</stem>
				<beam number="1">continue</beam>
			</note>
			<note>
				<pitch>
					<step>G</step>
					<octave>3</octave>
				</pitch>
				<duration>3360</duration>
				<voice>1</voice>
				<type>eighth</type>
				<stem default-y="42.48">up</stem>
				<beam number="1">end</beam>
			</note>
			<backup>
				<duration>13440</duration>
			</backup>
			<note>
				<pitch>
					<step>F</step>
					<octave>3</octave>
				</pitch>
				<duration>20160</duration>
				<voice>2</voice>
				<type>half</type>
				<dot/>
				<stem default-y="-45.41">down</stem>
			</note>
			<backup>
				<duration>6720</duration>
			</backup>
			<note>
				<pitch>
					<step>F</step>
					<octave>3</octave>
				</pitch>
				<duration>6720</duration>
				<voice>1</voice>
				<type>quarter</type>
				<stem default-y="18.88">up</stem>
				<notations>
					<slur type="stop" number="1"/>
				</notations>
			</note>
			<note>
				<pitch>
					<step>F</step>
					<octave>3</octave>
				</pitch>
				<duration>6720</duration>
				<voice>2</voice>
				<type>quarter</type>
				<stem default-y="-59.68">down</stem>
			</note>
			<note>
				<chord/>
				<pitch>
					<step>B</step>
					<alter>-1</alter>
					<octave>2</octave>
				</pitch>
				<duration>6720</duration>
				<voice>2</voice>
				<type>quarter</type>
				<stem default-y="-59.68">down</stem>
			</note>
		</measure>
		<!--==========================[2,3]=============================-->
		<measure number="3" width="289">
			<note>
				<pitch>
					<step>F</step>
					<octave>3</octave>
				</pitch>
				<duration>6720</duration>
				<voice>1</voice>
				<type>quarter</type>
				<stem default-y="18.88">up</stem>
				<notations>
					<slur type="start" number="1" placement="above" orientation="over"/>
				</notations>
			</note>
			<backup>
				<duration>6720</duration>
			</backup>
			<note>
				<pitch>
					<step>C</step>
					<octave>3</octave>
				</pitch>
				<duration>13440</duration>
				<voice>2</voice>
				<type>half</type>
				<stem default-y="-56.66">down</stem>
			</note>
			<backup>
				<duration>6720</duration>
			</backup>
			<note>
				<pitch>
					<step>A</step>
					<octave>3</octave>
				</pitch>
				<duration>6720</duration>
				<voice>1</voice>
				<type>quarter</type>
				<stem default-y="26.38">up</stem>
				<notations>
					<slur type="stop" number="1"/>
				</notations>
			</note>
			<note>
				<pitch>
					<step>B</step>
					<alter>-1</alter>
					<octave>3</octave>
				</pitch>
				<duration>6720</duration>
				<voice>1</voice>
				<type>quarter</type>
				<stem default-y="30.13">up</stem>
				<notations>
					<slur type="start" number="1" placement="above" orientation="over"/>
				</notations>
			</note>
			<backup>
				<duration>6720</duration>
			</backup>
			<note>
				<pitch>
					<step>C</step>
					<octave>3</octave>
				</pitch>
				<duration>13440</duration>
				<voice>2</voice>
				<type>half</type>
				<stem default-y="-56.66">down</stem>
			</note>
			<backup>
				<duration>6720</duration>
			</backup>
			<note>
				<pitch>
					<step>G</step>
					<octave>3</octave>
				</pitch>
				<duration>6720</duration>
				<voice>1</voice>
				<type>quarter</type>
				<stem default-y="22.63">up</stem>
				<notations>
					<slur type="stop" number="1"/>
				</notations>
			</note>
		</measure>
		<!--==========================[2,4]=============================-->
		<measure number="4" width="279">
			<note>
				<pitch>
					<step>A</step>
					<octave>3</octave>
				</pitch>
				<duration>20160</duration>
				<voice>1</voice>
				<type>half</type>
				<dot/>
				<stem default-y="-45.41">down</stem>
			</note>
			<note>
				<chord/>
				<pitch>
					<step>F</step>
					<octave>3</octave>
				</pitch>
				<duration>20160</duration>
				<voice>1</voice>
				<type>half</type>
				<dot/>
				<stem default-y="-45.41">down</stem>
			</note>
			<note>
				<pitch>
					<step>C</step>
					<octave>4</octave>
				</pitch>
				<duration>6720</duration>
				<voice>1</voice>
				<type>quarter</type>
				<stem default-y="-44.68">down</stem>
			</note>
			<note>
				<chord/>
				<pitch>
					<step>F</step>
					<octave>3</octave>
				</pitch>
				<duration>6720</duration>
				<voice>1</voice>
				<type>quarter</type>
				<stem default-y="-44.68">down</stem>
			</note>
		</measure>
		<!--==========================[2,5]=============================-->
		<measure number="5" width="406">
			<print new-system="yes">
				<staff-layout number="1">
					<staff-distance>191.125</staff-distance>
				</staff-layout>
			</print>
			<attributes>
				<staff-details number="1" print-object="yes">
				</staff-details>
			</attributes>
			<note>
				<pitch>
					<step>C</step>
					<octave>4</octave>
				</pitch>
				<duration>6720</duration>
				<voice>1</voice>
				<type>quarter</type>
				<stem default-y="-40.93">down</stem>
			</note>
			<note>
				<chord/>
				<pitch>
					<step>G</step>
					<octave>3</octave>
				</pitch>
				<duration>6720</duration>
				<voice>1</voice>
				<type>quarter</type>
				<stem default-y="-40.93">down</stem>
			</note>
			<note>
				<pitch>
					<step>C</step>
					<octave>4</octave>
				</pitch>
				<duration>6720</duration>
				<voice>1</voice>
				<type>quarter</type>
				<stem default-y="-44.68">down</stem>
			</note>
			<note>
				<chord/>
				<pitch>
					<step>F</step>
					<octave>3</octave>
				</pitch>
				<duration>6720</duration>
				<voice>1</voice>
				<type>quarter</type>
				<stem default-y="-44.68">down</stem>
			</note>
			<note>
				<pitch>
					<step>C</step>
					<octave>4</octave>
				</pitch>
				<duration>6720</duration>
				<voice>1</voice>
				<type>quarter</type>
				<stem default-y="-48.43">down</stem>
			</note>
			<note>
				<chord/>
				<pitch>
					<step>E</step>
					<octave>3</octave>
				</pitch>
				<duration>6720</duration>
				<voice>1</voice>
				<type>quarter</type>
				<stem default-y="-48.43">down</stem>
			</note>
			<note>
				<pitch>
					<step>B</step>
					<octave>3</octave>
				</pitch>
				<duration>6720</duration>
				<voice>1</voice>
				<type>quarter</type>
				<accidental>natural</accidental>
				<stem default-y="-52.18">down</stem>
			</note>
			<note>
				<chord/>
				<pitch>
					<step>D</step>
					<octave>3</octave>
				</pitch>
				<duration>6720</duration>
				<voice>1</voice>
				<type>quarter</type>
				<stem default-y="-52.18">down</stem>
			</note>
		</measure>
		<!--==========================[2,6]=============================-->
		<measure number="6" width="216">
			<note>
				<pitch>
					<step>C</step>
					<octave>4</octave>
				</pitch>
				<duration>20160</duration>
				<voice>1</voice>
				<type>half</type>
				<dot/>
				<stem default-y="-56.66">down</stem>
			</note>
			<note>
				<chord/>
				<pitch>
					<step>C</step>
					<octave>3</octave>
				</pitch>
				<duration>20160</duration>
				<voice>1</voice>
				<type>half</type>
				<dot/>
				<stem default-y="-58.42">down</stem>
			</note>
			<note>
				<pitch>
					<step>C</step>
					<octave>4</octave>
				</pitch>
				<duration>6720</duration>
				<voice>1</voice>
				<type>quarter</type>
				<stem default-y="-55.93">down</stem>
			</note>
			<note>
				<chord/>
				<pitch>
					<step>C</step>
					<octave>3</octave>
				</pitch>
				<duration>6720</duration>
				<voice>1</voice>
				<type>quarter</type>
				<stem default-y="-59.16">down</stem>
			</note>
		</measure>
		<!--==========================[2,7]=============================-->
		<measure number="7" width="302">
			<note>
				<pitch>
					<step>C</step>
					<octave>4</octave>
				</pitch>
				<duration>10080</duration>
				<voice>1</voice>
				<type>quarter</type>
				<dot/>
				<stem default-y="34.63">up</stem>
				<notations>
					<slur type="start" number="1" placement="above" orientation="over"/>
				</notations>
			</note>
			<backup>
				<duration>10080</duration>
			</backup>
			<note>
				<pitch>
					<step>F</step>
					<octave>3</octave>
				</pitch>
				<duration>20160</duration>
				<voice>2</voice>
				<type>half</type>
				<dot/>
				<stem default-y="-45.41">down</stem>
			</note>
			<backup>
				<duration>10080</duration>
			</backup>
			<note>
				<pitch>
					<step>B</step>
					<alter>-1</alter>
					<octave>3</octave>
				</pitch>
				<duration>3360</duration>
				<voice>1</voice>
				<type>eighth</type>
				<stem default-y="30.13">up</stem>
			</note>
			<note>
				<pitch>
					<step>A</step>
					<octave>3</octave>
				</pitch>
				<duration>6720</duration>
				<voice>1</voice>
				<type>quarter</type>
				<stem default-y="26.38">up</stem>
				<notations>
					<slur type="stop" number="1"/>
				</notations>
			</note>
			<note>
				<pitch>
					<step>A</step>
					<octave>3</octave>
				</pitch>
				<duration>6720</duration>
				<voice>2</voice>
				<type>quarter</type>
				<stem default-y="-52.18">down</stem>
			</note>
			<note>
				<chord/>
				<pitch>
					<step>D</step>
					<octave>3</octave>
				</pitch>
				<duration>6720</duration>
				<voice>2</voice>
				<type>quarter</type>
				<stem default-y="-52.18">down</stem>
			</note>
		</measure>
		<!--==========================[2,8]=============================-->
		<measure number="8" width="216">
			<note>
				<pitch>
					<step>G</step>
					<octave>3</octave>
				</pitch>
				<duration>13440</duration>
				<voice>1</voice>
				<type>half</type>
				<stem default-y="23.36">up</stem>
			</note>
			<backup>
				<duration>13440</duration>
			</backup>
			<note>
				<pitch>
					<step>G</step>
					<octave>3</octave>
				</pitch>
				<duration>13440</duration>
				<voice>2</voice>
				<type>half</type>
				<stem default-y="-41.66">down</stem>
			</note>
			<note>
				<pitch>
					<step>G</step>
					<octave>3</octave>
				</pitch>
				<duration>13440</duration>
				<voice>1</voice>
				<type>half</type>
				<stem default-y="27.65">up</stem>
			</note>
			<note>
				<chord/>
				<pitch>
					<step>G</step>
					<octave>2</octave>
				</pitch>
				<duration>13440</duration>
				<voice>1</voice>
				<type>half</type>
				<stem default-y="23.36">up</stem>
			</note>
		</measure>
		<!--==========================[2,9]=============================-->
		<measure number="9" width="162">
			<note>
				<pitch>
					<step>G</step>
					<octave>3</octave>
				</pitch>
				<duration>26880</duration>
				<voice>1</voice>
				<type>whole</type>
				<stem>none</stem>
			</note>
			<note>
				<chord/>
				<pitch>
					<step>C</step>
					<octave>3</octave>
				</pitch>
				<duration>26880</duration>
				<voice>1</voice>
				<type>whole</type>
				<stem>none</stem>
			</note>
		</measure>
		<!--==========================[2,10]=============================-->
		<measure number="10" width="401">
			<print new-system="yes">
				<staff-layout number="1">
					<staff-distance>191.125</staff-distance>
				</staff-layout>
			</print>
			<attributes>
				<staff-details number="1" print-object="yes">
				</staff-details>
			</attributes>
			<note>
				<pitch>
					<step>A</step>
					<octave>3</octave>
				</pitch>
				<duration>13440</duration>
				<voice>1</voice>
				<type>half</type>
				<stem default-y="-45.41">down</stem>
			</note>
			<note>
				<chord/>
				<pitch>
					<step>F</step>
					<octave>3</octave>
				</pitch>
				<duration>13440</duration>
				<voice>1</voice>
				<type>half</type>
				<stem default-y="-45.41">down</stem>
			</note>
			<note>
				<pitch>
					<step>A</step>
					<octave>3</octave>
				</pitch>
				<duration>6720</duration>
				<voice>1</voice>
				<type>quarter</type>
				<stem default-y="-44.68">down</stem>
			</note>
			<note>
				<chord/>
				<pitch>
					<step>F</step>
					<octave>3</octave>
				</pitch>
				<duration>6720</duration>
				<voice>1</voice>
				<type>quarter</type>
				<stem default-y="-44.68">down</stem>
			</note>
			<note>
				<pitch>
					<step>A</step>
					<octave>3</octave>
				</pitch>
				<duration>6720</duration>
				<voice>1</voice>
				<type>quarter</type>
				<stem default-y="-44.68">down</stem>
			</note>
			<note>
				<chord/>
				<pitch>
					<step>F</step>
					<octave>3</octave>
				</pitch>
				<duration>6720</duration>
				<voice>1</voice>
				<type>quarter</type>
				<stem default-y="-44.68">down</stem>
			</note>
		</measure>
		<!--==========================[2,11]=============================-->
		<measure number="11" width="363">
			<note>
				<pitch>
					<step>C</step>
					<octave>4</octave>
				</pitch>
				<duration>10080</duration>
				<voice>1</voice>
				<type>quarter</type>
				<dot/>
				<stem default-y="34.63">up</stem>
				<notations>
					<slur type="start" number="1" placement="above" orientation="over"/>
				</notations>
			</note>
			<backup>
				<duration>10080</duration>
			</backup>
			<note>
				<pitch>
					<step>F</step>
					<octave>3</octave>
				</pitch>
				<duration>20160</duration>
				<voice>2</voice>
				<type>half</type>
				<dot/>
				<stem default-y="-45.41">down</stem>
			</note>
			<backup>
				<duration>10080</duration>
			</backup>
			<note>
				<pitch>
					<step>B</step>
					<alter>-1</alter>
					<octave>3</octave>
				</pitch>
				<duration>3360</duration>
				<voice>1</voice>
				<type>eighth</type>
				<stem default-y="30.13">up</stem>
			</note>
			<note>
				<pitch>
					<step>A</step>
					<octave>3</octave>
				</pitch>
				<duration>6720</duration>
				<voice>1</voice>
				<type>quarter</type>
				<stem default-y="26.38">up</stem>
				<notations>
					<slur type="stop" number="1"/>
				</notations>
			</note>
			<note>
				<pitch>
					<step>C</step>
					<octave>4</octave>
				</pitch>
				<duration>6720</duration>
				<voice>2</voice>
				<type>quarter</type>
				<stem default-y="-44.68">down</stem>
			</note>
			<note>
				<chord/>
				<pitch>
					<step>F</step>
					<octave>3</octave>
				</pitch>
				<duration>6720</duration>
				<voice>2</voice>
				<type>quarter</type>
				<stem default-y="-44.68">down</stem>
			</note>
		</measure>
		<!--==========================[2,12]=============================-->
		<measure number="12" width="343">
			<note>
				<pitch>
					<step>C</step>
					<octave>4</octave>
				</pitch>
				<duration>20160</duration>
				<voice>1</voice>
				<type>half</type>
				<dot/>
				<stem default-y="35.36">up</stem>
			</note>
			<backup>
				<duration>20160</duration>
			</backup>
			<note>
				<pitch>
					<step>G</step>
					<octave>3</octave>
				</pitch>
				<duration>6720</duration>
				<voice>2</voice>
				<type>quarter</type>
				<stem default-y="-40.93">down</stem>
				<notations>
					<slur type="start" number="1" placement="below" orientation="under"/>
				</notations>
			</note>
			<note>
				<pitch>
					<step>F</step>
					<octave>3</octave>
				</pitch>
				<duration>6720</duration>
				<voice>2</voice>
				<type>quarter</type>
				<stem default-y="-44.68">down</stem>
			</note>
			<note>
				<pitch>
					<step>E</step>
					<octave>3</octave>
				</pitch>
				<duration>6720</duration>
				<voice>2</voice>
				<type>quarter</type>
				<stem default-y="-48.43">down</stem>
				<notations>
					<slur type="stop" number="1"/>
				</notations>
			</note>
			<note>
				<pitch>
					<step>B</step>
					<octave>3</octave>
				</pitch>
				<duration>6720</duration>
				<voice>2</voice>
				<type>quarter</type>
				<accidental>natural</accidental>
				<stem default-y="-52.18">down</stem>
			</note>
			<note>
				<chord/>
				<pitch>
					<step>D</step>
					<octave>3</octave>
				</pitch>
				<duration>6720</duration>
				<voice>2</voice>
				<type>quarter</type>
				<stem default-y="-52.18">down</stem>
			</note>
		</measure>
		<!--==========================[2,13]=============================-->
		<measure number="13" width="195">
			<note>
				<pitch>
					<step>C</step>
					<octave>4</octave>
				</pitch>
				<duration>20160</duration>
				<voice>1</voice>
				<type>half</type>
				<dot/>
				<stem default-y="-56.66">down</stem>
			</note>
			<note>
				<chord/>
				<pitch>
					<step>C</step>
					<octave>3</octave>
				</pitch>
				<duration>20160</duration>
				<voice>1</voice>
				<type>half</type>
				<dot/>
				<stem default-y="-58.42">down</stem>
			</note>
		</measure>
	</part>
</score-partwise>
