<?xml version="1.0" encoding="UTF-8" standalone="no"?>
<!DOCTYPE score-partwise PUBLIC "-//Recordare//DTD MusicXML 2.0 Partwise//EN" "http://www.musicxml.org/dtds/partwise.dtd">
<score-partwise version="2.0">
	<work>
		<work-title>That Day of Wrath</work-title>
	</work>
	<identification>
		<creator type="composer">John Bacchus Dykes, 1861</creator>
		<creator type="poet">Walter Scott, 1805</creator>
		<encoding>
			<software>PDFtoMusic Pro v1.6.5 Build 1B9E7 (c) Myriad - http://www.myriad-online.com</software>
			<?PDFtoMusic Document type 0100- 00000000?>
			<supports attribute="new-system" element="print" type="yes" value="yes"/>
			<supports attribute="new-page" element="print" type="yes" value="yes"/>
		</encoding>
	</identification>
	<defaults>
		<scaling>
			<millimeters>6.434670</millimeters>
			<tenths>40</tenths>
		</scaling>
		<page-layout>
			<page-height>1736.841</page-height>
			<page-width>1342.104</page-width>
			<page-margins type="both">
				<left-margin>62.163</left-margin>
				<right-margin>62.163</right-margin>
				<top-margin>62.163</top-margin>
				 <bottom-margin>62.163</bottom-margin>
			</page-margins>
		</page-layout>
		<appearance>
			<line-width type="stem">0.2631</line-width>
			<line-width type="staff">0.7895</line-width>
			<line-width type="light barline">0.3743</line-width>
			<line-width type="heavy barline">7.8947</line-width>
			<line-width type="leger">0.7895</line-width>
		</appearance>
	</defaults>
	<credit page="1">
		<credit-words  default-x="157.895" default-y="1476.051" justify="left" valign="baseline" font-family="Times New Roman" font-size="12" font-weight="normal" font-style="normal">Walter Scott, 1805</credit-words>
	</credit>
	<credit page="1">
		<credit-words  default-x="451.579" default-y="1529.998" justify="left" valign="baseline" font-family="Times New Roman" font-size="24" font-weight="bold" font-style="normal">That Day of Wrath</credit-words>
	</credit>
	<credit page="1">
		<credit-words  default-x="524.999" default-y="160.000" justify="left" valign="baseline" font-family="Times New Roman" font-size="10" font-weight="normal" font-style="normal">Courtesy of the Cyber Hymnal™</credit-words>
	</credit>
	<credit page="1">
		<credit-words  default-x="604.736" default-y="181.842" justify="left" valign="baseline" font-family="Times New Roman" font-size="10" font-weight="normal" font-style="normal">Public Domain</credit-words>
	</credit>
	<credit page="1">
		<credit-words  default-x="895.525" default-y="1476.051" justify="left" valign="baseline" font-family="Times New Roman" font-size="12" font-weight="normal" font-style="normal">John Bacchus Dykes, 1861</credit-words>
	</credit>
	<part-list>
		<score-part id="P1">
			<part-name></part-name>
			<score-instrument id="P1-I1">
				<instrument-name>Instrument 1</instrument-name>
			</score-instrument>
			<midi-instrument id="P1-I1">
				<midi-channel>1</midi-channel>
				<midi-bank>2</midi-bank>
				<midi-program>53</midi-program>
				<volume>50</volume>
				<pan>-90</pan>
				<elevation>0</elevation>
				<?Myriad
				<iddigit>5210</iddigit>
				?>
			</midi-instrument>
		</score-part>
		<score-part id="P2">
			<part-name></part-name>
			<score-instrument id="P2-I1">
				<instrument-name>Instrument 2</instrument-name>
			</score-instrument>
			<midi-instrument id="P2-I1">
				<midi-channel>2</midi-channel>
				<midi-bank>5</midi-bank>
				<midi-program>53</midi-program>
				<volume>50</volume>
				<pan>90</pan>
				<elevation>0</elevation>
				<?Myriad
				<iddigit>5240</iddigit>
				?>
			</midi-instrument>
		</score-part>
	</part-list>
	<part id="P1">
		<!--==========================[1,1]=============================-->
		<measure number="1" width="338">
			<print new-page="yes">
				<system-layout>
					<system-margins>
						<left-margin>95.600</left-margin>
						<right-margin>95.395</right-margin>
					</system-margins>
					<top-system-distance>336.652</top-system-distance>
				</system-layout>
			</print>
			<barline location="left">
				<repeat direction="forward"/>
			</barline>
			<attributes>
				<divisions>6720</divisions>
				<key>
					<fifths>-1</fifths>
					<mode>major</mode>
				</key>
				<clef number="1">
					<sign>G</sign>
					<line>2</line>
				</clef>
				<staff-details number="1" print-object="yes">
					<staff-lines>5</staff-lines>
					<staff-size>100.00</staff-size>
				</staff-details>
			</attributes>
			<direction placement="above">
				<direction-type>
					<words font-family="Times New Roman" font-size="9" font-weight="bold" font-style="normal" relative-x="15.48" default-y="27.50"></words>
				</direction-type>
				<direction-type>
					<metronome font-family="Times New Roman" font-size="9" font-weight="bold" font-style="normal" relative-x="53.04" default-y="27.50">
						<beat-unit>quarter</beat-unit>
						<per-minute>130</per-minute>
					</metronome>
				</direction-type>
				<sound tempo="130.00"/>
			</direction>
			<attributes>
				<time>
					<beats>4</beats>
					<beat-type>4</beat-type>
				</time>
			</attributes>
			<note>
				<pitch>
					<step>F</step>
					<octave>4</octave>
				</pitch>
				<duration>13440</duration>
				<voice>1</voice>
				<type>half</type>
				<stem default-y="-0.26">up</stem>
				<lyric number="1" justify="center" default-y="-114.34">
					<syllabic>single</syllabic>
					<text font-family="Times New Roman" font-size="12" font-weight="normal" font-style="normal" xml:lang="en">
1. That</text>
				</lyric>
				<lyric number="2" justify="center" default-y="-139.34">
					<syllabic>single</syllabic>
					<text font-family="Times New Roman" font-size="12" font-weight="normal" font-style="normal" xml:lang="en">
2. When,</text>
				</lyric>
				<lyric number="3" justify="center" default-y="-164.34">
					<syllabic>single</syllabic>
					<text font-family="Times New Roman" font-size="12" font-weight="normal" font-style="normal" xml:lang="en">
3. O</text>
				</lyric>
			</note>
			<note>
				<chord/>
				<pitch>
					<step>D</step>
					<octave>4</octave>
				</pitch>
				<duration>13440</duration>
				<voice>1</voice>
				<type>half</type>
				<stem default-y="-0.26">up</stem>
			</note>
			<note>
				<pitch>
					<step>F</step>
					<octave>4</octave>
				</pitch>
				<duration>6720</duration>
				<voice>1</voice>
				<type>quarter</type>
				<stem default-y="-0.26">up</stem>
				<lyric number="1" justify="left" default-y="-114.34">
					<syllabic>single</syllabic>
					<text font-family="Times New Roman" font-size="12" font-weight="normal" font-style="normal" xml:lang="en">day</text>
				</lyric>
				<lyric number="2" justify="left" default-y="-139.34">
					<syllabic>begin</syllabic>
					<text font-family="Times New Roman" font-size="12" font-weight="normal" font-style="normal" xml:lang="en">shriv</text>
				</lyric>
				<lyric number="3" justify="left" default-y="-164.34">
					<syllabic>end</syllabic>
					<text font-family="Times New Roman" font-size="12" font-weight="normal" font-style="normal" xml:lang="en">on</text>
				</lyric>
			</note>
			<note>
				<chord/>
				<pitch>
					<step>D</step>
					<octave>4</octave>
				</pitch>
				<duration>6720</duration>
				<voice>1</voice>
				<type>quarter</type>
				<stem default-y="-0.26">up</stem>
			</note>
			<note>
				<pitch>
					<step>G</step>
					<octave>4</octave>
				</pitch>
				<duration>6720</duration>
				<voice>1</voice>
				<type>quarter</type>
				<stem default-y="4.74">up</stem>
				<lyric number="1" justify="center" default-y="-114.34">
					<syllabic>single</syllabic>
					<text font-family="Times New Roman" font-size="12" font-weight="normal" font-style="normal" xml:lang="en">of</text>
				</lyric>
				<lyric number="2" justify="center" default-y="-139.34">
					<syllabic>single</syllabic>
					<text font-family="Times New Roman" font-size="12" font-weight="normal" font-style="normal" xml:lang="en">eling</text>
				</lyric>
				<lyric number="3" justify="left" default-y="-164.34">
					<syllabic>single</syllabic>
					<text font-family="Times New Roman" font-size="12" font-weight="normal" font-style="normal" xml:lang="en">that</text>
				</lyric>
			</note>
			<note>
				<chord/>
				<pitch>
					<step>E</step>
					<octave>4</octave>
				</pitch>
				<duration>6720</duration>
				<voice>1</voice>
				<type>quarter</type>
				<stem default-y="4.74">up</stem>
			</note>
		</measure>
		<!--==========================[1,2]=============================-->
		<measure number="2" width="154">
			<note>
				<pitch>
					<step>A</step>
					<octave>4</octave>
				</pitch>
				<duration>20160</duration>
				<voice>1</voice>
				<type>half</type>
				<dot/>
				<stem default-y="9.74">up</stem>
				<lyric number="1" justify="left" default-y="-114.34">
					<syllabic>single</syllabic>
					<text font-family="Times New Roman" font-size="12" font-weight="normal" font-style="normal" xml:lang="en">wrath,</text>
				</lyric>
				<lyric number="2" justify="left" default-y="-139.34">
					<syllabic>single</syllabic>
					<text font-family="Times New Roman" font-size="12" font-weight="normal" font-style="normal" xml:lang="en">like</text>
				</lyric>
				<lyric number="3" justify="left" default-y="-164.34">
					<syllabic>single</syllabic>
					<text font-family="Times New Roman" font-size="12" font-weight="normal" font-style="normal" xml:lang="en">day,</text>
				</lyric>
			</note>
			<note>
				<chord/>
				<pitch>
					<step>F</step>
					<octave>4</octave>
				</pitch>
				<duration>20160</duration>
				<voice>1</voice>
				<type>half</type>
				<dot/>
				<stem default-y="9.74">up</stem>
			</note>
			<note>
				<pitch>
					<step>D</step>
					<octave>5</octave>
				</pitch>
				<duration>6720</duration>
				<voice>1</voice>
				<type>quarter</type>
				<stem default-y="22.63">up</stem>
				<lyric number="1" justify="left" default-y="-114.34">
					<syllabic>single</syllabic>
					<text font-family="Times New Roman" font-size="12" font-weight="normal" font-style="normal" xml:lang="en">that</text>
				</lyric>
				<lyric number="2" justify="center" default-y="-139.34">
					<syllabic>single</syllabic>
					<text font-family="Times New Roman" font-size="12" font-weight="normal" font-style="normal" xml:lang="en">a</text>
				</lyric>
				<lyric number="3" justify="left" default-y="-164.34">
					<syllabic>single</syllabic>
					<text font-family="Times New Roman" font-size="12" font-weight="normal" font-style="normal" xml:lang="en">that</text>
				</lyric>
			</note>
			<note>
				<chord/>
				<pitch>
					<step>F</step>
					<octave>4</octave>
				</pitch>
				<duration>6720</duration>
				<voice>1</voice>
				<type>quarter</type>
				<stem default-y="22.63">up</stem>
			</note>
		</measure>
		<!--==========================[1,3]=============================-->
		<measure number="3" width="192">
			<note>
				<pitch>
					<step>C</step>
					<octave>5</octave>
				</pitch>
				<duration>13440</duration>
				<voice>1</voice>
				<type>half</type>
				<stem default-y="18.68">up</stem>
				<notations>
					<slur type="start" number="1" placement="above" orientation="over"/>
				</notations>
				<lyric number="1" justify="left" default-y="-114.34">
					<syllabic>begin</syllabic>
					<text font-family="Times New Roman" font-size="12" font-weight="normal" font-style="normal" xml:lang="en">dread</text>
				</lyric>
				<lyric number="2" justify="left" default-y="-139.34">
					<syllabic>middle</syllabic>
					<text font-family="Times New Roman" font-size="12" font-weight="normal" font-style="normal" xml:lang="en">parch</text>
				</lyric>
				<lyric number="3" justify="left" default-y="-164.34">
					<syllabic>middle</syllabic>
					<text font-family="Times New Roman" font-size="12" font-weight="normal" font-style="normal" xml:lang="en">wrath</text>
				</lyric>
			</note>
			<backup>
				<duration>13440</duration>
			</backup>
			<note>
				<pitch>
					<step>F</step>
					<octave>4</octave>
				</pitch>
				<duration>6720</duration>
				<voice>2</voice>
				<type>quarter</type>
				<stem default-y="-67.37">down</stem>
			</note>
			<note>
				<pitch>
					<step>C</step>
					<octave>4</octave>
				</pitch>
				<duration>6720</duration>
				<voice>2</voice>
				<type>quarter</type>
				<stem default-y="-78.95">down</stem>
				<notations>
					<slur type="stop" number="1"/>
				</notations>
			</note>
			<note>
				<pitch>
					<step>B</step>
					<alter>-1</alter>
					<octave>4</octave>
				</pitch>
				<duration>13440</duration>
				<voice>1</voice>
				<type>half</type>
				<stem default-y="14.74">up</stem>
				<notations>
					<slur type="start" number="1" placement="above" orientation="over"/>
				</notations>
				<lyric number="1" justify="left" default-y="-114.34">
					<syllabic>end</syllabic>
					<text font-family="Times New Roman" font-size="12" font-weight="normal" font-style="normal" xml:lang="en">ful</text>
				</lyric>
				<lyric number="2" justify="left" default-y="-139.34">
					<syllabic>single</syllabic>
					<text font-family="Times New Roman" font-size="12" font-weight="normal" font-style="normal" xml:lang="en">èd</text>
				</lyric>
				<lyric number="3" justify="left" default-y="-164.34">
					<syllabic>single</syllabic>
					<text font-family="Times New Roman" font-size="12" font-weight="normal" font-style="normal" xml:lang="en">ful</text>
				</lyric>
			</note>
			<backup>
				<duration>13440</duration>
			</backup>
			<note>
				<pitch>
					<step>D</step>
					<octave>4</octave>
				</pitch>
				<duration>6720</duration>
				<voice>2</voice>
				<type>quarter</type>
				<stem default-y="-75.00">down</stem>
			</note>
			<note>
				<pitch>
					<step>E</step>
					<octave>4</octave>
				</pitch>
				<duration>6720</duration>
				<voice>2</voice>
				<type>quarter</type>
				<stem default-y="-71.32">down</stem>
				<notations>
					<slur type="stop" number="1"/>
				</notations>
			</note>
		</measure>
		<!--==========================[1,4]=============================-->
		<measure number="4" width="100">
			<note>
				<pitch>
					<step>A</step>
					<octave>4</octave>
				</pitch>
				<duration>26880</duration>
				<voice>1</voice>
				<type>whole</type>
				<stem>none</stem>
				<lyric number="1" justify="left" default-y="-114.34">
					<syllabic>single</syllabic>
					<text font-family="Times New Roman" font-size="12" font-weight="normal" font-style="normal" xml:lang="en">day,</text>
				</lyric>
				<lyric number="2" justify="left" default-y="-139.34">
					<syllabic>single</syllabic>
					<text font-family="Times New Roman" font-size="12" font-weight="normal" font-style="normal" xml:lang="en">scroll,</text>
				</lyric>
				<lyric number="3" justify="left" default-y="-164.34">
					<syllabic>single</syllabic>
					<text font-family="Times New Roman" font-size="12" font-weight="normal" font-style="normal" xml:lang="en">day</text>
				</lyric>
			</note>
			<note>
				<chord/>
				<pitch>
					<step>F</step>
					<octave>4</octave>
				</pitch>
				<duration>26880</duration>
				<voice>1</voice>
				<type>whole</type>
				<stem>none</stem>
			</note>
		</measure>
		<!--==========================[1,5]=============================-->
		<measure number="5" width="241">
			<note>
				<pitch>
					<step>A</step>
					<octave>4</octave>
				</pitch>
				<duration>13440</duration>
				<voice>1</voice>
				<type>half</type>
				<stem default-y="9.74">up</stem>
				<lyric number="1" justify="left" default-y="-114.34">
					<syllabic>single</syllabic>
					<text font-family="Times New Roman" font-size="12" font-weight="normal" font-style="normal" xml:lang="en">
When</text>
				</lyric>
				<lyric number="2" justify="left" default-y="-139.34">
					<syllabic>single</syllabic>
					<text font-family="Times New Roman" font-size="12" font-weight="normal" font-style="normal" xml:lang="en">
The</text>
				</lyric>
				<lyric number="3" justify="left" default-y="-164.34">
					<syllabic>single</syllabic>
					<text font-family="Times New Roman" font-size="12" font-weight="normal" font-style="normal" xml:lang="en">
When</text>
				</lyric>
			</note>
			<note>
				<chord/>
				<pitch>
					<step>F</step>
					<octave>4</octave>
				</pitch>
				<duration>13440</duration>
				<voice>1</voice>
				<type>half</type>
				<stem default-y="9.74">up</stem>
			</note>
			<note>
				<pitch>
					<step>A</step>
					<octave>4</octave>
				</pitch>
				<duration>6720</duration>
				<voice>1</voice>
				<type>quarter</type>
				<stem default-y="9.74">up</stem>
				<lyric number="1" justify="left" default-y="-114.34">
					<syllabic>single</syllabic>
					<text font-family="Times New Roman" font-size="12" font-weight="normal" font-style="normal" xml:lang="en">Heav'n</text>
				</lyric>
				<lyric number="2" justify="left" default-y="-139.34">
					<syllabic>begin</syllabic>
					<text font-family="Times New Roman" font-size="12" font-weight="normal" font-style="normal" xml:lang="en">flam</text>
				</lyric>
				<lyric number="3" justify="left" default-y="-164.34">
					<syllabic>end</syllabic>
					<text font-family="Times New Roman" font-size="12" font-weight="normal" font-style="normal" xml:lang="en">man</text>
				</lyric>
			</note>
			<note>
				<chord/>
				<pitch>
					<step>E</step>
					<octave>4</octave>
				</pitch>
				<duration>6720</duration>
				<voice>1</voice>
				<type>quarter</type>
				<stem default-y="9.74">up</stem>
			</note>
			<note>
				<pitch>
					<step>B</step>
					<alter>-1</alter>
					<octave>4</octave>
				</pitch>
				<duration>6720</duration>
				<voice>1</voice>
				<type>quarter</type>
				<stem default-y="14.74">up</stem>
				<lyric number="1" justify="left" default-y="-114.34">
					<syllabic>single</syllabic>
					<text font-family="Times New Roman" font-size="12" font-weight="normal" font-style="normal" xml:lang="en">and</text>
				</lyric>
				<lyric number="2" justify="left" default-y="-139.34">
					<syllabic>single</syllabic>
					<text font-family="Times New Roman" font-size="12" font-weight="normal" font-style="normal" xml:lang="en">ing</text>
				</lyric>
				<lyric number="3" justify="center" default-y="-164.34">
					<syllabic>single</syllabic>
					<text font-family="Times New Roman" font-size="12" font-weight="normal" font-style="normal" xml:lang="en">to</text>
				</lyric>
			</note>
			<note>
				<chord/>
				<pitch>
					<step>D</step>
					<octave>4</octave>
				</pitch>
				<duration>6720</duration>
				<voice>1</voice>
				<type>quarter</type>
				<stem default-y="14.74">up</stem>
			</note>
		</measure>
		<!--==========================[1,6]=============================-->
		<measure number="6" width="238">
			<print new-system="yes">
				<system-layout>
					<system-margins>
						<left-margin>95.600</left-margin>
						<right-margin>95.395</right-margin>
					</system-margins>
					<system-distance>129.737</system-distance>
				</system-layout>
			</print>
			<attributes>
				<staff-details number="1" print-object="yes">
				</staff-details>
			</attributes>
			<note>
				<pitch>
					<step>C</step>
					<octave>5</octave>
				</pitch>
				<duration>13440</duration>
				<voice>1</voice>
				<type>half</type>
				<stem default-y="19.30">up</stem>
			</note>
			<note>
				<chord/>
				<pitch>
					<step>C</step>
					<octave>4</octave>
				</pitch>
				<duration>13440</duration>
				<voice>1</voice>
				<type>half</type>
				<stem default-y="18.68">up</stem>
				<lyric number="1" justify="left" default-y="-114.34">
					<syllabic>single</syllabic>
					<text font-family="Times New Roman" font-size="12" font-weight="normal" font-style="normal" xml:lang="en">earth</text>
				</lyric>
				<lyric number="2" justify="left" default-y="-139.34">
					<syllabic>single</syllabic>
					<text font-family="Times New Roman" font-size="12" font-weight="normal" font-style="normal" xml:lang="en">heav'ns</text>
				</lyric>
				<lyric number="3" justify="left" default-y="-164.34">
					<syllabic>begin</syllabic>
					<text font-family="Times New Roman" font-size="12" font-weight="normal" font-style="normal" xml:lang="en">judg</text>
				</lyric>
			</note>
			<note>
				<pitch>
					<step>F</step>
					<octave>4</octave>
				</pitch>
				<duration>13440</duration>
				<voice>1</voice>
				<type>half</type>
				<stem default-y="-0.26">up</stem>
				<lyric number="1" justify="left" default-y="-114.34">
					<syllabic>end</syllabic>
					<text font-family="Times New Roman" font-size="12" font-weight="normal" font-style="normal" xml:lang="en">shall</text>
				</lyric>
				<lyric number="2" justify="center" default-y="-139.34">
					<syllabic>begin</syllabic>
					<text font-family="Times New Roman" font-size="12" font-weight="normal" font-style="normal" xml:lang="en">to</text>
				</lyric>
				<lyric number="3" justify="left" default-y="-164.34">
					<syllabic>end</syllabic>
					<text font-family="Times New Roman" font-size="12" font-weight="normal" font-style="normal" xml:lang="en">ment</text>
				</lyric>
			</note>
			<backup>
				<duration>13440</duration>
			</backup>
			<note>
				<pitch>
					<step>F</step>
					<octave>4</octave>
				</pitch>
				<duration>13440</duration>
				<voice>2</voice>
				<type>half</type>
				<stem default-y="-67.37">down</stem>
			</note>
		</measure>
		<!--==========================[1,7]=============================-->
		<measure number="7" width="164">
			<note>
				<pitch>
					<step>A</step>
					<octave>4</octave>
				</pitch>
				<duration>13440</duration>
				<voice>1</voice>
				<type>half</type>
				<stem default-y="9.74">up</stem>
				<lyric number="1" justify="left" default-y="-114.34">
					<syllabic>single</syllabic>
					<text font-family="Times New Roman" font-size="12" font-weight="normal" font-style="normal" xml:lang="en">pass</text>
				</lyric>
				<lyric number="2" justify="left" default-y="-139.34">
					<syllabic>begin</syllabic>
					<text font-family="Times New Roman" font-size="12" font-weight="normal" font-style="normal" xml:lang="en">ge</text>
				</lyric>
				<lyric number="3" justify="left" default-y="-164.34">
					<syllabic>end</syllabic>
					<text font-family="Times New Roman" font-size="12" font-weight="normal" font-style="normal" xml:lang="en">wakes</text>
				</lyric>
			</note>
			<note>
				<chord/>
				<pitch>
					<step>F</step>
					<octave>4</octave>
				</pitch>
				<duration>13440</duration>
				<voice>1</voice>
				<type>half</type>
				<stem default-y="9.74">up</stem>
			</note>
			<note>
				<pitch>
					<step>G</step>
					<octave>4</octave>
				</pitch>
				<duration>13440</duration>
				<voice>1</voice>
				<type>half</type>
				<stem default-y="4.74">up</stem>
				<lyric number="1" justify="center" default-y="-114.34">
					<syllabic>begin</syllabic>
					<text font-family="Times New Roman" font-size="12" font-weight="normal" font-style="normal" xml:lang="en">a</text>
				</lyric>
				<lyric number="2" justify="left" default-y="-139.34">
					<syllabic>end</syllabic>
					<text font-family="Times New Roman" font-size="12" font-weight="normal" font-style="normal" xml:lang="en">ther</text>
				</lyric>
				<lyric number="3" justify="left" default-y="-164.34">
					<syllabic>single</syllabic>
					<text font-family="Times New Roman" font-size="12" font-weight="normal" font-style="normal" xml:lang="en">from</text>
				</lyric>
			</note>
			<note>
				<chord/>
				<pitch>
					<step>E</step>
					<octave>4</octave>
				</pitch>
				<duration>13440</duration>
				<voice>1</voice>
				<type>half</type>
				<stem default-y="4.74">up</stem>
			</note>
		</measure>
		<!--==========================[1,8]=============================-->
		<measure number="8" width="160">
			<note>
				<pitch>
					<step>F</step>
					<octave>4</octave>
				</pitch>
				<duration>20160</duration>
				<voice>1</voice>
				<type>half</type>
				<dot/>
				<stem default-y="-0.26">up</stem>
				<lyric number="1" justify="left" default-y="-114.34">
					<syllabic>single</syllabic>
					<text font-family="Times New Roman" font-size="12" font-weight="normal" font-style="normal" xml:lang="en">way!</text>
				</lyric>
				<lyric number="2" justify="left" default-y="-139.34">
					<syllabic>single</syllabic>
					<text font-family="Times New Roman" font-size="12" font-weight="normal" font-style="normal" xml:lang="en">roll;</text>
				</lyric>
				<lyric number="3" justify="left" default-y="-164.34">
					<syllabic>single</syllabic>
					<text font-family="Times New Roman" font-size="12" font-weight="normal" font-style="normal" xml:lang="en">clay,</text>
				</lyric>
			</note>
			<backup>
				<duration>20160</duration>
			</backup>
			<note>
				<pitch>
					<step>F</step>
					<octave>4</octave>
				</pitch>
				<duration>20160</duration>
				<voice>2</voice>
				<type>half</type>
				<dot/>
				<stem default-y="-67.37">down</stem>
			</note>
			<note>
				<pitch>
					<step>A</step>
					<octave>4</octave>
				</pitch>
				<duration>6720</duration>
				<voice>1</voice>
				<type>quarter</type>
				<stem default-y="9.74">up</stem>
				<lyric number="1" justify="left" default-y="-114.34">
					<syllabic>single</syllabic>
					<text font-family="Times New Roman" font-size="12" font-weight="normal" font-style="normal" xml:lang="en">
What</text>
				</lyric>
				<lyric number="2" justify="left" default-y="-139.34">
					<syllabic>single</syllabic>
					<text font-family="Times New Roman" font-size="12" font-weight="normal" font-style="normal" xml:lang="en">
When</text>
				</lyric>
				<lyric number="3" justify="left" default-y="-164.34">
					<syllabic>single</syllabic>
					<text font-family="Times New Roman" font-size="12" font-weight="normal" font-style="normal" xml:lang="en">
Be</text>
				</lyric>
			</note>
			<note>
				<chord/>
				<pitch>
					<step>C</step>
					<octave>4</octave>
				</pitch>
				<duration>6720</duration>
				<voice>1</voice>
				<type>quarter</type>
				<stem default-y="9.74">up</stem>
			</note>
		</measure>
		<!--==========================[1,9]=============================-->
		<measure number="9" width="157">
			<note>
				<pitch>
					<step>A</step>
					<octave>4</octave>
				</pitch>
				<duration>20160</duration>
				<voice>1</voice>
				<type>half</type>
				<dot/>
				<stem default-y="9.74">up</stem>
				<lyric number="1" justify="left" default-y="-114.34">
					<syllabic>single</syllabic>
					<text font-family="Times New Roman" font-size="12" font-weight="normal" font-style="normal" xml:lang="en">pow'r</text>
				</lyric>
				<lyric number="2" justify="left" default-y="-139.34">
					<syllabic>begin</syllabic>
					<text font-family="Times New Roman" font-size="12" font-weight="normal" font-style="normal" xml:lang="en">loud</text>
				</lyric>
				<lyric number="3" justify="left" default-y="-164.34">
					<syllabic>end</syllabic>
					<text font-family="Times New Roman" font-size="12" font-weight="normal" font-style="normal" xml:lang="en">Thou</text>
				</lyric>
			</note>
			<note>
				<chord/>
				<pitch>
					<step>C</step>
					<octave>4</octave>
				</pitch>
				<duration>20160</duration>
				<voice>1</voice>
				<type>half</type>
				<dot/>
				<stem default-y="9.74">up</stem>
			</note>
			<note>
				<pitch>
					<step>A</step>
					<octave>4</octave>
				</pitch>
				<duration>6720</duration>
				<voice>1</voice>
				<type>quarter</type>
				<stem default-y="9.74">up</stem>
				<lyric number="1" justify="left" default-y="-114.34">
					<syllabic>single</syllabic>
					<text font-family="Times New Roman" font-size="12" font-weight="normal" font-style="normal" xml:lang="en">shall</text>
				</lyric>
				<lyric number="2" justify="center" default-y="-139.34">
					<syllabic>single</syllabic>
					<text font-family="Times New Roman" font-size="12" font-weight="normal" font-style="normal" xml:lang="en">er</text>
				</lyric>
				<lyric number="3" justify="left" default-y="-164.34">
					<syllabic>single</syllabic>
					<text font-family="Times New Roman" font-size="12" font-weight="normal" font-style="normal" xml:lang="en">the</text>
				</lyric>
			</note>
			<note>
				<chord/>
				<pitch>
					<step>D</step>
					<octave>4</octave>
				</pitch>
				<duration>6720</duration>
				<voice>1</voice>
				<type>quarter</type>
				<stem default-y="9.74">up</stem>
			</note>
		</measure>
		<!--==========================[1,10]=============================-->
		<measure number="10" width="147">
			<note>
				<pitch>
					<step>G</step>
					<octave>4</octave>
				</pitch>
				<duration>13440</duration>
				<voice>1</voice>
				<type>half</type>
				<stem default-y="4.74">up</stem>
				<lyric number="1" justify="left" default-y="-114.34">
					<syllabic>single</syllabic>
					<text font-family="Times New Roman" font-size="12" font-weight="normal" font-style="normal" xml:lang="en">be</text>
				</lyric>
				<lyric number="2" justify="left" default-y="-139.34">
					<syllabic>single</syllabic>
					<text font-family="Times New Roman" font-size="12" font-weight="normal" font-style="normal" xml:lang="en">yet,</text>
				</lyric>
				<lyric number="3" justify="left" default-y="-164.34">
					<syllabic>begin</syllabic>
					<text font-family="Times New Roman" font-size="12" font-weight="normal" font-style="normal" xml:lang="en">trem</text>
				</lyric>
			</note>
			<note>
				<chord/>
				<pitch>
					<step>D</step>
					<octave>4</octave>
				</pitch>
				<duration>13440</duration>
				<voice>1</voice>
				<type>half</type>
				<stem default-y="4.74">up</stem>
			</note>
			<note>
				<pitch>
					<step>A</step>
					<octave>4</octave>
				</pitch>
				<duration>13440</duration>
				<voice>1</voice>
				<type>half</type>
				<stem default-y="9.74">up</stem>
				<lyric number="1" justify="center" default-y="-114.34">
					<syllabic>end</syllabic>
					<text font-family="Times New Roman" font-size="12" font-weight="normal" font-style="normal" xml:lang="en">the</text>
				</lyric>
				<lyric number="2" justify="center" default-y="-139.34">
					<syllabic>single</syllabic>
					<text font-family="Times New Roman" font-size="12" font-weight="normal" font-style="normal" xml:lang="en">and</text>
				</lyric>
				<lyric number="3" justify="center" default-y="-164.34">
					<syllabic>single</syllabic>
					<text font-family="Times New Roman" font-size="12" font-weight="normal" font-style="normal" xml:lang="en">bling</text>
				</lyric>
			</note>
			<note>
				<chord/>
				<pitch>
					<step>C</step>
					<alter>1</alter>
					<octave>4</octave>
				</pitch>
				<duration>13440</duration>
				<voice>1</voice>
				<type>half</type>
				<accidental>sharp</accidental>
				<stem default-y="9.74">up</stem>
			</note>
		</measure>
		<!--==========================[1,11]=============================-->
		<measure number="11" width="158">
			<note>
				<pitch>
					<step>F</step>
					<octave>4</octave>
				</pitch>
				<duration>13440</duration>
				<voice>1</voice>
				<type>half</type>
				<stem default-y="-0.26">up</stem>
				<lyric number="1" justify="left" default-y="-114.34">
					<syllabic>begin</syllabic>
					<text font-family="Times New Roman" font-size="12" font-weight="normal" font-style="normal" xml:lang="en">sin</text>
				</lyric>
				<lyric number="2" justify="left" default-y="-139.34">
					<syllabic>end</syllabic>
					<text font-family="Times New Roman" font-size="12" font-weight="normal" font-style="normal" xml:lang="en">yet</text>
				</lyric>
				<lyric number="3" justify="left" default-y="-164.34">
					<syllabic>begin</syllabic>
					<text font-family="Times New Roman" font-size="12" font-weight="normal" font-style="normal" xml:lang="en">sin</text>
				</lyric>
			</note>
			<note>
				<chord/>
				<pitch>
					<step>D</step>
					<octave>4</octave>
				</pitch>
				<duration>13440</duration>
				<voice>1</voice>
				<type>half</type>
				<stem default-y="-0.26">up</stem>
			</note>
			<note>
				<pitch>
					<step>G</step>
					<octave>4</octave>
				</pitch>
				<duration>13440</duration>
				<voice>1</voice>
				<type>half</type>
				<stem default-y="4.74">up</stem>
				<notations>
					<slur type="start" number="1" placement="above" orientation="over"/>
				</notations>
				<lyric number="1" justify="center" default-y="-114.34">
					<syllabic>end</syllabic>
					<text font-family="Times New Roman" font-size="12" font-weight="normal" font-style="normal" xml:lang="en">ner's</text>
				</lyric>
				<lyric number="2" justify="left" default-y="-139.34">
					<syllabic>single</syllabic>
					<text font-family="Times New Roman" font-size="12" font-weight="normal" font-style="normal" xml:lang="en">more</text>
				</lyric>
				<lyric number="3" justify="center" default-y="-164.34">
					<syllabic>single</syllabic>
					<text font-family="Times New Roman" font-size="12" font-weight="normal" font-style="normal" xml:lang="en">ner's</text>
				</lyric>
			</note>
			<backup>
				<duration>13440</duration>
			</backup>
			<note>
				<pitch>
					<step>E</step>
					<octave>4</octave>
				</pitch>
				<duration>6720</duration>
				<voice>2</voice>
				<type>quarter</type>
				<stem default-y="-71.32">down</stem>
			</note>
			<note>
				<pitch>
					<step>D</step>
					<octave>4</octave>
				</pitch>
				<duration>6720</duration>
				<voice>2</voice>
				<type>quarter</type>
				<stem default-y="-75.00">down</stem>
				<notations>
					<slur type="stop" number="1"/>
				</notations>
			</note>
		</measure>
		<!--==========================[1,12]=============================-->
		<measure number="12" width="150">
			<print new-system="yes">
				<system-layout>
					<system-margins>
						<left-margin>95.600</left-margin>
						<right-margin>309.210</right-margin>
					</system-margins>
					<system-distance>129.737</system-distance>
				</system-layout>
			</print>
			<attributes>
				<staff-details number="1" print-object="yes">
				</staff-details>
			</attributes>
			<note>
				<pitch>
					<step>E</step>
					<octave>4</octave>
				</pitch>
				<duration>26880</duration>
				<voice>1</voice>
				<type>whole</type>
				<stem>none</stem>
				<lyric number="1" justify="center" default-y="-114.34">
					<syllabic>single</syllabic>
					<text font-family="Times New Roman" font-size="12" font-weight="normal" font-style="normal" xml:lang="en">stay?</text>
				</lyric>
				<lyric number="2" justify="center" default-y="-139.34">
					<syllabic>single</syllabic>
					<text font-family="Times New Roman" font-size="12" font-weight="normal" font-style="normal" xml:lang="en">dread;</text>
				</lyric>
				<lyric number="3" justify="center" default-y="-164.34">
					<syllabic>single</syllabic>
					<text font-family="Times New Roman" font-size="12" font-weight="normal" font-style="normal" xml:lang="en">stay,</text>
				</lyric>
			</note>
			<note>
				<chord/>
				<pitch>
					<step>C</step>
					<alter>1</alter>
					<octave>4</octave>
				</pitch>
				<duration>26880</duration>
				<voice>1</voice>
				<type>whole</type>
				<accidental>sharp</accidental>
				<stem>none</stem>
			</note>
		</measure>
		<!--==========================[1,13]=============================-->
		<measure number="13" width="255">
			<note>
				<pitch>
					<step>D</step>
					<octave>4</octave>
				</pitch>
				<duration>13440</duration>
				<voice>1</voice>
				<type>half</type>
				<stem default-y="-10.26">up</stem>
				<lyric number="1" justify="left" default-y="-114.34">
					<syllabic>single</syllabic>
					<text font-family="Times New Roman" font-size="12" font-weight="normal" font-style="normal" xml:lang="en">
How</text>
				</lyric>
				<lyric number="2" justify="left" default-y="-139.34">
					<syllabic>single</syllabic>
					<text font-family="Times New Roman" font-size="12" font-weight="normal" font-style="normal" xml:lang="en">
Swells</text>
				</lyric>
				<lyric number="3" justify="left" default-y="-164.34">
					<syllabic>single</syllabic>
					<text font-family="Times New Roman" font-size="12" font-weight="normal" font-style="normal" xml:lang="en">
Though</text>
				</lyric>
			</note>
			<backup>
				<duration>13440</duration>
			</backup>
			<note>
				<pitch>
					<step>D</step>
					<octave>4</octave>
				</pitch>
				<duration>13440</duration>
				<voice>2</voice>
				<type>half</type>
				<stem default-y="-75.00">down</stem>
			</note>
			<note>
				<pitch>
					<step>D</step>
					<octave>4</octave>
				</pitch>
				<duration>6720</duration>
				<voice>1</voice>
				<type>quarter</type>
				<stem default-y="-10.26">up</stem>
				<lyric number="1" justify="left" default-y="-114.34">
					<syllabic>single</syllabic>
					<text font-family="Times New Roman" font-size="12" font-weight="normal" font-style="normal" xml:lang="en">shall</text>
				</lyric>
				<lyric number="2" justify="left" default-y="-139.34">
					<syllabic>single</syllabic>
					<text font-family="Times New Roman" font-size="12" font-weight="normal" font-style="normal" xml:lang="en">the</text>
				</lyric>
				<lyric number="3" justify="left" default-y="-164.34">
					<syllabic>single</syllabic>
					<text font-family="Times New Roman" font-size="12" font-weight="normal" font-style="normal" xml:lang="en">Heav'n</text>
				</lyric>
			</note>
			<backup>
				<duration>6720</duration>
			</backup>
			<note>
				<pitch>
					<step>D</step>
					<octave>4</octave>
				</pitch>
				<duration>6720</duration>
				<voice>2</voice>
				<type>quarter</type>
				<stem default-y="-75.00">down</stem>
			</note>
			<note>
				<pitch>
					<step>D</step>
					<octave>4</octave>
				</pitch>
				<duration>6720</duration>
				<voice>1</voice>
				<type>quarter</type>
				<stem default-y="-10.26">up</stem>
				<lyric number="1" justify="left" default-y="-114.34">
					<syllabic>single</syllabic>
					<text font-family="Times New Roman" font-size="12" font-weight="normal" font-style="normal" xml:lang="en">he</text>
				</lyric>
				<lyric number="2" justify="left" default-y="-139.34">
					<syllabic>single</syllabic>
					<text font-family="Times New Roman" font-size="12" font-weight="normal" font-style="normal" xml:lang="en">high</text>
				</lyric>
				<lyric number="3" justify="left" default-y="-164.34">
					<syllabic>single</syllabic>
					<text font-family="Times New Roman" font-size="12" font-weight="normal" font-style="normal" xml:lang="en">and</text>
				</lyric>
			</note>
			<backup>
				<duration>6720</duration>
			</backup>
			<note>
				<pitch>
					<step>D</step>
					<octave>4</octave>
				</pitch>
				<duration>6720</duration>
				<voice>2</voice>
				<type>quarter</type>
				<stem default-y="-75.00">down</stem>
			</note>
		</measure>
		<!--==========================[1,14]=============================-->
		<measure number="14" width="151">
			<note>
				<pitch>
					<step>A</step>
					<octave>4</octave>
				</pitch>
				<duration>20160</duration>
				<voice>1</voice>
				<type>half</type>
				<dot/>
				<stem default-y="9.74">up</stem>
				<lyric number="1" justify="left" default-y="-114.34">
					<syllabic>single</syllabic>
					<text font-family="Times New Roman" font-size="12" font-weight="normal" font-style="normal" xml:lang="en">meet</text>
				</lyric>
				<lyric number="2" justify="left" default-y="-139.34">
					<syllabic>single</syllabic>
					<text font-family="Times New Roman" font-size="12" font-weight="normal" font-style="normal" xml:lang="en">trump</text>
				</lyric>
				<lyric number="3" justify="left" default-y="-164.34">
					<syllabic>single</syllabic>
					<text font-family="Times New Roman" font-size="12" font-weight="normal" font-style="normal" xml:lang="en">earth</text>
				</lyric>
			</note>
			<backup>
				<duration>20160</duration>
			</backup>
			<note>
				<pitch>
					<step>A</step>
					<octave>4</octave>
				</pitch>
				<duration>20160</duration>
				<voice>2</voice>
				<type>half</type>
				<dot/>
				<stem default-y="-59.47">down</stem>
			</note>
			<note>
				<pitch>
					<step>G</step>
					<octave>4</octave>
				</pitch>
				<duration>6720</duration>
				<voice>1</voice>
				<type>quarter</type>
				<stem default-y="4.74">up</stem>
				<lyric number="1" justify="left" default-y="-114.34">
					<syllabic>single</syllabic>
					<text font-family="Times New Roman" font-size="12" font-weight="normal" font-style="normal" xml:lang="en">that</text>
				</lyric>
				<lyric number="2" justify="left" default-y="-139.34">
					<syllabic>single</syllabic>
					<text font-family="Times New Roman" font-size="12" font-weight="normal" font-style="normal" xml:lang="en">that</text>
				</lyric>
				<lyric number="3" justify="left" default-y="-164.34">
					<syllabic>single</syllabic>
					<text font-family="Times New Roman" font-size="12" font-weight="normal" font-style="normal" xml:lang="en">shall</text>
				</lyric>
			</note>
			<note>
				<chord/>
				<pitch>
					<step>D</step>
					<octave>4</octave>
				</pitch>
				<duration>6720</duration>
				<voice>1</voice>
				<type>quarter</type>
				<stem default-y="4.74">up</stem>
			</note>
		</measure>
		<!--==========================[1,15]=============================-->
		<measure number="15" width="166">
			<note>
				<pitch>
					<step>F</step>
					<octave>4</octave>
				</pitch>
				<duration>13440</duration>
				<voice>1</voice>
				<type>half</type>
				<stem default-y="-0.26">up</stem>
				<lyric number="1" justify="left" default-y="-114.34">
					<syllabic>begin</syllabic>
					<text font-family="Times New Roman" font-size="12" font-weight="normal" font-style="normal" xml:lang="en">dread</text>
				</lyric>
				<lyric number="2" justify="left" default-y="-139.34">
					<syllabic>end</syllabic>
					<text font-family="Times New Roman" font-size="12" font-weight="normal" font-style="normal" xml:lang="en">wakes</text>
				</lyric>
				<lyric number="3" justify="left" default-y="-164.34">
					<syllabic>single</syllabic>
					<text font-family="Times New Roman" font-size="12" font-weight="normal" font-style="normal" xml:lang="en">pass</text>
				</lyric>
			</note>
			<note>
				<chord/>
				<pitch>
					<step>D</step>
					<octave>4</octave>
				</pitch>
				<duration>13440</duration>
				<voice>1</voice>
				<type>half</type>
				<stem default-y="-0.26">up</stem>
			</note>
			<note>
				<pitch>
					<step>E</step>
					<octave>4</octave>
				</pitch>
				<duration>13440</duration>
				<voice>1</voice>
				<type>half</type>
				<stem default-y="-5.26">up</stem>
				<lyric number="1" justify="right" default-y="-114.34">
					<syllabic>single</syllabic>
					<text font-family="Times New Roman" font-size="12" font-weight="normal" font-style="normal" xml:lang="en">ful</text>
				</lyric>
				<lyric number="2" justify="center" default-y="-139.34">
					<syllabic>single</syllabic>
					<text font-family="Times New Roman" font-size="12" font-weight="normal" font-style="normal" xml:lang="en">the</text>
				</lyric>
				<lyric number="3" justify="center" default-y="-164.34">
					<syllabic>single</syllabic>
					<text font-family="Times New Roman" font-size="12" font-weight="normal" font-style="normal" xml:lang="en">away.</text>
				</lyric>
			</note>
			<note>
				<chord/>
				<pitch>
					<step>C</step>
					<alter>1</alter>
					<octave>4</octave>
				</pitch>
				<duration>13440</duration>
				<voice>1</voice>
				<type>half</type>
				<accidental>sharp</accidental>
				<stem default-y="-5.26">up</stem>
			</note>
		</measure>
		<!--==========================[1,16]=============================-->
		<measure number="16" width="88">
			<note>
				<pitch>
					<step>D</step>
					<octave>4</octave>
				</pitch>
				<duration>26880</duration>
				<voice>1</voice>
				<type>whole</type>
				<stem>none</stem>
				<lyric number="1" justify="left" default-y="-114.34">
					<syllabic>single</syllabic>
					<text font-family="Times New Roman" font-size="12" font-weight="normal" font-style="normal" xml:lang="en">day?</text>
				</lyric>
				<lyric number="2" justify="left" default-y="-139.34">
					<syllabic>single</syllabic>
					<text font-family="Times New Roman" font-size="12" font-weight="normal" font-style="normal" xml:lang="en">dead.</text>
				</lyric>
			</note>
			<note>
				<chord/>
				<pitch>
					<step>D</step>
					<octave>4</octave>
				</pitch>
				<duration>26880</duration>
				<voice>1</voice>
				<type>whole</type>
				<stem>none</stem>
			</note>
			<barline location="right">
				<repeat direction="backward" times="3"/>
			</barline>
		</measure>
	</part>
	<part id="P2">
		<!--==========================[2,1]=============================-->
		<measure number="1" width="338">
			<print new-page="yes">
				<staff-layout number="1">
					<staff-distance>175.000</staff-distance>
				</staff-layout>
			</print>
			<barline location="left">
				<repeat direction="forward"/>
			</barline>
			<attributes>
				<divisions>6720</divisions>
				<key>
					<fifths>-1</fifths>
					<mode>major</mode>
				</key>
				<time>
					<beats>4</beats>
					<beat-type>4</beat-type>
				</time>
				<clef number="1">
					<sign>F</sign>
					<line>4</line>
				</clef>
				<staff-details number="1" print-object="yes">
					<staff-lines>5</staff-lines>
					<staff-size>100.00</staff-size>
				</staff-details>
			</attributes>
			<note print-lyric="no">
				<pitch>
					<step>A</step>
					<octave>3</octave>
				</pitch>
				<duration>13440</duration>
				<voice>1</voice>
				<type>half</type>
				<stem default-y="-55.53">down</stem>
				<lyric number="1" justify="center" default-y="100.66">
					<syllabic>single</syllabic>
					<text font-family="Times New Roman" font-size="12" font-weight="normal" font-style="normal" xml:lang="en">
1. That</text>
				</lyric>
				<lyric number="2" justify="center" default-y="75.66">
					<syllabic>single</syllabic>
					<text font-family="Times New Roman" font-size="12" font-weight="normal" font-style="normal" xml:lang="en">
2. When,</text>
				</lyric>
				<lyric number="3" justify="center" default-y="50.66">
					<syllabic>single</syllabic>
					<text font-family="Times New Roman" font-size="12" font-weight="normal" font-style="normal" xml:lang="en">
3. O</text>
				</lyric>
			</note>
			<note>
				<chord/>
				<pitch>
					<step>D</step>
					<octave>3</octave>
				</pitch>
				<duration>13440</duration>
				<voice>1</voice>
				<type>half</type>
				<stem default-y="-55.53">down</stem>
			</note>
			<note print-lyric="no">
				<pitch>
					<step>A</step>
					<octave>3</octave>
				</pitch>
				<duration>6720</duration>
				<voice>1</voice>
				<type>quarter</type>
				<stem default-y="-55.53">down</stem>
				<lyric number="1" justify="left" default-y="100.66">
					<syllabic>single</syllabic>
					<text font-family="Times New Roman" font-size="12" font-weight="normal" font-style="normal" xml:lang="en">day</text>
				</lyric>
				<lyric number="2" justify="left" default-y="75.66">
					<syllabic>begin</syllabic>
					<text font-family="Times New Roman" font-size="12" font-weight="normal" font-style="normal" xml:lang="en">shriv</text>
				</lyric>
				<lyric number="3" justify="left" default-y="50.66">
					<syllabic>end</syllabic>
					<text font-family="Times New Roman" font-size="12" font-weight="normal" font-style="normal" xml:lang="en">on</text>
				</lyric>
			</note>
			<note>
				<chord/>
				<pitch>
					<step>D</step>
					<octave>3</octave>
				</pitch>
				<duration>6720</duration>
				<voice>1</voice>
				<type>quarter</type>
				<stem default-y="-55.53">down</stem>
			</note>
			<note print-lyric="no">
				<pitch>
					<step>C</step>
					<octave>4</octave>
				</pitch>
				<duration>6720</duration>
				<voice>1</voice>
				<type>quarter</type>
				<stem default-y="-59.47">down</stem>
				<lyric number="1" justify="center" default-y="100.66">
					<syllabic>single</syllabic>
					<text font-family="Times New Roman" font-size="12" font-weight="normal" font-style="normal" xml:lang="en">of</text>
				</lyric>
				<lyric number="2" justify="center" default-y="75.66">
					<syllabic>single</syllabic>
					<text font-family="Times New Roman" font-size="12" font-weight="normal" font-style="normal" xml:lang="en">eling</text>
				</lyric>
				<lyric number="3" justify="left" default-y="50.66">
					<syllabic>single</syllabic>
					<text font-family="Times New Roman" font-size="12" font-weight="normal" font-style="normal" xml:lang="en">that</text>
				</lyric>
			</note>
			<note>
				<chord/>
				<pitch>
					<step>C</step>
					<octave>3</octave>
				</pitch>
				<duration>6720</duration>
				<voice>1</voice>
				<type>quarter</type>
				<stem default-y="-60.87">down</stem>
			</note>
		</measure>
		<!--==========================[2,2]=============================-->
		<measure number="2" width="154">
			<note print-lyric="no">
				<pitch>
					<step>C</step>
					<octave>4</octave>
				</pitch>
				<duration>20160</duration>
				<voice>1</voice>
				<type>half</type>
				<dot/>
				<stem default-y="-45.53">down</stem>
				<lyric number="1" justify="left" default-y="100.66">
					<syllabic>single</syllabic>
					<text font-family="Times New Roman" font-size="12" font-weight="normal" font-style="normal" xml:lang="en">wrath,</text>
				</lyric>
				<lyric number="2" justify="left" default-y="75.66">
					<syllabic>single</syllabic>
					<text font-family="Times New Roman" font-size="12" font-weight="normal" font-style="normal" xml:lang="en">like</text>
				</lyric>
				<lyric number="3" justify="left" default-y="50.66">
					<syllabic>single</syllabic>
					<text font-family="Times New Roman" font-size="12" font-weight="normal" font-style="normal" xml:lang="en">day,</text>
				</lyric>
			</note>
			<note>
				<chord/>
				<pitch>
					<step>F</step>
					<octave>3</octave>
				</pitch>
				<duration>20160</duration>
				<voice>1</voice>
				<type>half</type>
				<dot/>
				<stem default-y="-45.53">down</stem>
			</note>
			<note print-lyric="no">
				<pitch>
					<step>B</step>
					<alter>-1</alter>
					<octave>3</octave>
				</pitch>
				<duration>6720</duration>
				<voice>1</voice>
				<type>quarter</type>
				<stem default-y="-63.42">down</stem>
				<lyric number="1" justify="left" default-y="100.66">
					<syllabic>single</syllabic>
					<text font-family="Times New Roman" font-size="12" font-weight="normal" font-style="normal" xml:lang="en">that</text>
				</lyric>
				<lyric number="2" justify="center" default-y="75.66">
					<syllabic>single</syllabic>
					<text font-family="Times New Roman" font-size="12" font-weight="normal" font-style="normal" xml:lang="en">a</text>
				</lyric>
				<lyric number="3" justify="left" default-y="50.66">
					<syllabic>single</syllabic>
					<text font-family="Times New Roman" font-size="12" font-weight="normal" font-style="normal" xml:lang="en">that</text>
				</lyric>
			</note>
			<note>
				<chord/>
				<pitch>
					<step>B</step>
					<alter>-1</alter>
					<octave>2</octave>
				</pitch>
				<duration>6720</duration>
				<voice>1</voice>
				<type>quarter</type>
				<stem default-y="-65.87">down</stem>
			</note>
		</measure>
		<!--==========================[2,3]=============================-->
		<measure number="3" width="192">
			<note print-lyric="no">
				<pitch>
					<step>A</step>
					<octave>3</octave>
				</pitch>
				<duration>20160</duration>
				<voice>1</voice>
				<type>half</type>
				<dot/>
				<stem default-y="30.53">up</stem>
				<lyric number="1" justify="left" default-y="100.66">
					<syllabic>begin</syllabic>
					<text font-family="Times New Roman" font-size="12" font-weight="normal" font-style="normal" xml:lang="en">dread</text>
				</lyric>
				<lyric number="2" justify="left" default-y="75.66">
					<syllabic>middle</syllabic>
					<text font-family="Times New Roman" font-size="12" font-weight="normal" font-style="normal" xml:lang="en">parch</text>
				</lyric>
				<lyric number="3" justify="left" default-y="50.66">
					<syllabic>middle</syllabic>
					<text font-family="Times New Roman" font-size="12" font-weight="normal" font-style="normal" xml:lang="en">wrath</text>
				</lyric>
			</note>
			<backup>
				<duration>20160</duration>
			</backup>
			<note>
				<pitch>
					<step>C</step>
					<octave>3</octave>
				</pitch>
				<duration>13440</duration>
				<voice>2</voice>
				<type>half</type>
				<stem default-y="-59.47">down</stem>
			</note>
			<note print-lyric="no">
				<pitch>
					<step>C</step>
					<octave>3</octave>
				</pitch>
				<duration>13440</duration>
				<voice>2</voice>
				<type>half</type>
				<stem default-y="9.74">up</stem>
				<lyric number="1" justify="left" default-y="100.66">
					<syllabic>end</syllabic>
					<text font-family="Times New Roman" font-size="12" font-weight="normal" font-style="normal" xml:lang="en">ful</text>
				</lyric>
				<lyric number="2" justify="left" default-y="75.66">
					<syllabic>single</syllabic>
					<text font-family="Times New Roman" font-size="12" font-weight="normal" font-style="normal" xml:lang="en">èd</text>
				</lyric>
				<lyric number="3" justify="left" default-y="50.66">
					<syllabic>single</syllabic>
					<text font-family="Times New Roman" font-size="12" font-weight="normal" font-style="normal" xml:lang="en">ful</text>
				</lyric>
			</note>
			<backup>
				<duration>13440</duration>
			</backup>
			<note>
				<rest>
					<display-step>C</display-step>
					<display-octave>2</display-octave>
				</rest>
				<duration>6720</duration>
				<voice>1</voice>
				<type>quarter</type>
			</note>
			<note>
				<pitch>
					<step>G</step>
					<octave>3</octave>
				</pitch>
				<duration>6720</duration>
				<voice>1</voice>
				<type>quarter</type>
				<stem default-y="-40.53">down</stem>
			</note>
		</measure>
		<!--==========================[2,4]=============================-->
		<measure number="4" width="100">
			<note print-lyric="no">
				<pitch>
					<step>A</step>
					<octave>3</octave>
				</pitch>
				<duration>26880</duration>
				<voice>1</voice>
				<type>whole</type>
				<stem>none</stem>
				<lyric number="1" justify="left" default-y="100.66">
					<syllabic>single</syllabic>
					<text font-family="Times New Roman" font-size="12" font-weight="normal" font-style="normal" xml:lang="en">day,</text>
				</lyric>
				<lyric number="2" justify="left" default-y="75.66">
					<syllabic>single</syllabic>
					<text font-family="Times New Roman" font-size="12" font-weight="normal" font-style="normal" xml:lang="en">scroll,</text>
				</lyric>
				<lyric number="3" justify="left" default-y="50.66">
					<syllabic>single</syllabic>
					<text font-family="Times New Roman" font-size="12" font-weight="normal" font-style="normal" xml:lang="en">day</text>
				</lyric>
			</note>
			<note>
				<chord/>
				<pitch>
					<step>F</step>
					<octave>3</octave>
				</pitch>
				<duration>26880</duration>
				<voice>1</voice>
				<type>whole</type>
				<stem>none</stem>
			</note>
		</measure>
		<!--==========================[2,5]=============================-->
		<measure number="5" width="241">
			<note print-lyric="no">
				<pitch>
					<step>F</step>
					<octave>3</octave>
				</pitch>
				<duration>13440</duration>
				<voice>1</voice>
				<type>half</type>
				<stem default-y="-55.53">down</stem>
				<lyric number="1" justify="left" default-y="100.66">
					<syllabic>single</syllabic>
					<text font-family="Times New Roman" font-size="12" font-weight="normal" font-style="normal" xml:lang="en">
When</text>
				</lyric>
				<lyric number="2" justify="left" default-y="75.66">
					<syllabic>single</syllabic>
					<text font-family="Times New Roman" font-size="12" font-weight="normal" font-style="normal" xml:lang="en">
The</text>
				</lyric>
				<lyric number="3" justify="left" default-y="50.66">
					<syllabic>single</syllabic>
					<text font-family="Times New Roman" font-size="12" font-weight="normal" font-style="normal" xml:lang="en">
When</text>
				</lyric>
			</note>
			<note>
				<chord/>
				<pitch>
					<step>D</step>
					<octave>3</octave>
				</pitch>
				<duration>13440</duration>
				<voice>1</voice>
				<type>half</type>
				<stem default-y="-55.53">down</stem>
			</note>
			<note print-lyric="no">
				<pitch>
					<step>F</step>
					<octave>3</octave>
				</pitch>
				<duration>6720</duration>
				<voice>1</voice>
				<type>quarter</type>
				<stem default-y="22.63">up</stem>
				<lyric number="1" justify="left" default-y="100.66">
					<syllabic>single</syllabic>
					<text font-family="Times New Roman" font-size="12" font-weight="normal" font-style="normal" xml:lang="en">Heav'n</text>
				</lyric>
				<lyric number="2" justify="left" default-y="75.66">
					<syllabic>begin</syllabic>
					<text font-family="Times New Roman" font-size="12" font-weight="normal" font-style="normal" xml:lang="en">flam</text>
				</lyric>
				<lyric number="3" justify="left" default-y="50.66">
					<syllabic>end</syllabic>
					<text font-family="Times New Roman" font-size="12" font-weight="normal" font-style="normal" xml:lang="en">man</text>
				</lyric>
			</note>
			<note>
				<chord/>
				<pitch>
					<step>C</step>
					<octave>3</octave>
				</pitch>
				<duration>6720</duration>
				<voice>1</voice>
				<type>quarter</type>
				<stem default-y="22.63">up</stem>
			</note>
			<note print-lyric="no">
				<pitch>
					<step>F</step>
					<octave>3</octave>
				</pitch>
				<duration>6720</duration>
				<voice>1</voice>
				<type>quarter</type>
				<stem default-y="22.63">up</stem>
				<lyric number="1" justify="left" default-y="100.66">
					<syllabic>single</syllabic>
					<text font-family="Times New Roman" font-size="12" font-weight="normal" font-style="normal" xml:lang="en">and</text>
				</lyric>
				<lyric number="2" justify="left" default-y="75.66">
					<syllabic>single</syllabic>
					<text font-family="Times New Roman" font-size="12" font-weight="normal" font-style="normal" xml:lang="en">ing</text>
				</lyric>
				<lyric number="3" justify="center" default-y="50.66">
					<syllabic>single</syllabic>
					<text font-family="Times New Roman" font-size="12" font-weight="normal" font-style="normal" xml:lang="en">to</text>
				</lyric>
			</note>
			<note>
				<chord/>
				<pitch>
					<step>B</step>
					<alter>-1</alter>
					<octave>2</octave>
				</pitch>
				<duration>6720</duration>
				<voice>1</voice>
				<type>quarter</type>
				<stem default-y="22.63">up</stem>
			</note>
		</measure>
		<!--==========================[2,6]=============================-->
		<measure number="6" width="238">
			<print new-system="yes">
				<staff-layout number="1">
					<staff-distance>175.000</staff-distance>
				</staff-layout>
			</print>
			<attributes>
				<staff-details number="1" print-object="yes">
				</staff-details>
			</attributes>
			<note print-lyric="no">
				<pitch>
					<step>F</step>
					<octave>3</octave>
				</pitch>
				<duration>6720</duration>
				<voice>1</voice>
				<type>quarter</type>
				<stem default-y="22.63">up</stem>
				<lyric number="1" justify="left" default-y="100.66">
					<syllabic>single</syllabic>
					<text font-family="Times New Roman" font-size="12" font-weight="normal" font-style="normal" xml:lang="en">earth</text>
				</lyric>
				<lyric number="2" justify="left" default-y="75.66">
					<syllabic>single</syllabic>
					<text font-family="Times New Roman" font-size="12" font-weight="normal" font-style="normal" xml:lang="en">heav'ns</text>
				</lyric>
				<lyric number="3" justify="left" default-y="50.66">
					<syllabic>begin</syllabic>
					<text font-family="Times New Roman" font-size="12" font-weight="normal" font-style="normal" xml:lang="en">judg</text>
				</lyric>
			</note>
			<backup>
				<duration>6720</duration>
			</backup>
			<note>
				<pitch>
					<step>A</step>
					<octave>2</octave>
				</pitch>
				<duration>13440</duration>
				<voice>2</voice>
				<type>half</type>
				<stem default-y="-67.37">down</stem>
				<notations>
					<slur type="start" number="1" placement="below" orientation="under"/>
				</notations>
			</note>
			<backup>
				<duration>6720</duration>
			</backup>
			<note>
				<pitch>
					<step>G</step>
					<octave>3</octave>
				</pitch>
				<duration>6720</duration>
				<voice>1</voice>
				<type>quarter</type>
				<stem default-y="26.58">up</stem>
				<notations>
					<slur type="stop" number="1"/>
				</notations>
			</note>
			<note print-lyric="no">
				<pitch>
					<step>A</step>
					<octave>3</octave>
				</pitch>
				<duration>6720</duration>
				<voice>1</voice>
				<type>quarter</type>
				<stem default-y="30.53">up</stem>
				<lyric number="1" justify="left" default-y="100.66">
					<syllabic>end</syllabic>
					<text font-family="Times New Roman" font-size="12" font-weight="normal" font-style="normal" xml:lang="en">shall</text>
				</lyric>
				<lyric number="2" justify="center" default-y="75.66">
					<syllabic>begin</syllabic>
					<text font-family="Times New Roman" font-size="12" font-weight="normal" font-style="normal" xml:lang="en">to</text>
				</lyric>
				<lyric number="3" justify="left" default-y="50.66">
					<syllabic>end</syllabic>
					<text font-family="Times New Roman" font-size="12" font-weight="normal" font-style="normal" xml:lang="en">ment</text>
				</lyric>
			</note>
			<backup>
				<duration>6720</duration>
			</backup>
			<note>
				<pitch>
					<step>D</step>
					<octave>3</octave>
				</pitch>
				<duration>13440</duration>
				<voice>2</voice>
				<type>half</type>
				<stem default-y="-55.53">down</stem>
				<notations>
					<slur type="start" number="1" placement="below" orientation="under"/>
				</notations>
			</note>
			<backup>
				<duration>6720</duration>
			</backup>
			<note>
				<pitch>
					<step>B</step>
					<alter>-1</alter>
					<octave>3</octave>
				</pitch>
				<duration>6720</duration>
				<voice>1</voice>
				<type>quarter</type>
				<stem default-y="34.21">up</stem>
				<notations>
					<slur type="stop" number="1"/>
				</notations>
			</note>
		</measure>
		<!--==========================[2,7]=============================-->
		<measure number="7" width="164">
			<note print-lyric="no">
				<pitch>
					<step>C</step>
					<octave>4</octave>
				</pitch>
				<duration>20160</duration>
				<voice>1</voice>
				<type>half</type>
				<dot/>
				<stem default-y="38.16">up</stem>
				<lyric number="1" justify="left" default-y="100.66">
					<syllabic>single</syllabic>
					<text font-family="Times New Roman" font-size="12" font-weight="normal" font-style="normal" xml:lang="en">pass</text>
				</lyric>
				<lyric number="2" justify="left" default-y="75.66">
					<syllabic>begin</syllabic>
					<text font-family="Times New Roman" font-size="12" font-weight="normal" font-style="normal" xml:lang="en">ge</text>
				</lyric>
				<lyric number="3" justify="left" default-y="50.66">
					<syllabic>end</syllabic>
					<text font-family="Times New Roman" font-size="12" font-weight="normal" font-style="normal" xml:lang="en">wakes</text>
				</lyric>
			</note>
			<backup>
				<duration>20160</duration>
			</backup>
			<note>
				<pitch>
					<step>C</step>
					<octave>3</octave>
				</pitch>
				<duration>13440</duration>
				<voice>2</voice>
				<type>half</type>
				<stem default-y="-59.47">down</stem>
			</note>
			<note print-lyric="no">
				<pitch>
					<step>C</step>
					<octave>3</octave>
				</pitch>
				<duration>13440</duration>
				<voice>2</voice>
				<type>half</type>
				<stem default-y="9.74">up</stem>
				<lyric number="1" justify="center" default-y="100.66">
					<syllabic>begin</syllabic>
					<text font-family="Times New Roman" font-size="12" font-weight="normal" font-style="normal" xml:lang="en">a</text>
				</lyric>
				<lyric number="2" justify="left" default-y="75.66">
					<syllabic>end</syllabic>
					<text font-family="Times New Roman" font-size="12" font-weight="normal" font-style="normal" xml:lang="en">ther</text>
				</lyric>
				<lyric number="3" justify="left" default-y="50.66">
					<syllabic>single</syllabic>
					<text font-family="Times New Roman" font-size="12" font-weight="normal" font-style="normal" xml:lang="en">from</text>
				</lyric>
			</note>
			<backup>
				<duration>13440</duration>
			</backup>
			<note>
				<rest>
					<display-step>C</display-step>
					<display-octave>2</display-octave>
				</rest>
				<duration>6720</duration>
				<voice>1</voice>
				<type>quarter</type>
			</note>
			<note>
				<pitch>
					<step>B</step>
					<alter>-1</alter>
					<octave>3</octave>
				</pitch>
				<duration>6720</duration>
				<voice>1</voice>
				<type>quarter</type>
				<stem default-y="34.21">up</stem>
			</note>
		</measure>
		<!--==========================[2,8]=============================-->
		<measure number="8" width="160">
			<note print-lyric="no">
				<pitch>
					<step>A</step>
					<octave>3</octave>
				</pitch>
				<duration>20160</duration>
				<voice>1</voice>
				<type>half</type>
				<dot/>
				<stem default-y="-45.53">down</stem>
				<lyric number="1" justify="left" default-y="100.66">
					<syllabic>single</syllabic>
					<text font-family="Times New Roman" font-size="12" font-weight="normal" font-style="normal" xml:lang="en">way!</text>
				</lyric>
				<lyric number="2" justify="left" default-y="75.66">
					<syllabic>single</syllabic>
					<text font-family="Times New Roman" font-size="12" font-weight="normal" font-style="normal" xml:lang="en">roll;</text>
				</lyric>
				<lyric number="3" justify="left" default-y="50.66">
					<syllabic>single</syllabic>
					<text font-family="Times New Roman" font-size="12" font-weight="normal" font-style="normal" xml:lang="en">clay,</text>
				</lyric>
			</note>
			<note>
				<chord/>
				<pitch>
					<step>F</step>
					<octave>3</octave>
				</pitch>
				<duration>20160</duration>
				<voice>1</voice>
				<type>half</type>
				<dot/>
				<stem default-y="-45.53">down</stem>
			</note>
			<note print-lyric="no">
				<pitch>
					<step>A</step>
					<octave>3</octave>
				</pitch>
				<duration>6720</duration>
				<voice>1</voice>
				<type>quarter</type>
				<stem default-y="-45.53">down</stem>
				<lyric number="1" justify="left" default-y="100.66">
					<syllabic>single</syllabic>
					<text font-family="Times New Roman" font-size="12" font-weight="normal" font-style="normal" xml:lang="en">
What</text>
				</lyric>
				<lyric number="2" justify="left" default-y="75.66">
					<syllabic>single</syllabic>
					<text font-family="Times New Roman" font-size="12" font-weight="normal" font-style="normal" xml:lang="en">
When</text>
				</lyric>
				<lyric number="3" justify="left" default-y="50.66">
					<syllabic>single</syllabic>
					<text font-family="Times New Roman" font-size="12" font-weight="normal" font-style="normal" xml:lang="en">
Be</text>
				</lyric>
			</note>
			<note>
				<chord/>
				<pitch>
					<step>F</step>
					<octave>3</octave>
				</pitch>
				<duration>6720</duration>
				<voice>1</voice>
				<type>quarter</type>
				<stem default-y="-45.53">down</stem>
			</note>
		</measure>
		<!--==========================[2,9]=============================-->
		<measure number="9" width="157">
			<note print-lyric="no">
				<pitch>
					<step>A</step>
					<octave>3</octave>
				</pitch>
				<duration>20160</duration>
				<voice>1</voice>
				<type>half</type>
				<dot/>
				<stem default-y="-45.53">down</stem>
				<lyric number="1" justify="left" default-y="100.66">
					<syllabic>single</syllabic>
					<text font-family="Times New Roman" font-size="12" font-weight="normal" font-style="normal" xml:lang="en">pow'r</text>
				</lyric>
				<lyric number="2" justify="left" default-y="75.66">
					<syllabic>begin</syllabic>
					<text font-family="Times New Roman" font-size="12" font-weight="normal" font-style="normal" xml:lang="en">loud</text>
				</lyric>
				<lyric number="3" justify="left" default-y="50.66">
					<syllabic>end</syllabic>
					<text font-family="Times New Roman" font-size="12" font-weight="normal" font-style="normal" xml:lang="en">Thou</text>
				</lyric>
			</note>
			<note>
				<chord/>
				<pitch>
					<step>F</step>
					<octave>3</octave>
				</pitch>
				<duration>20160</duration>
				<voice>1</voice>
				<type>half</type>
				<dot/>
				<stem default-y="-45.53">down</stem>
			</note>
			<note print-lyric="no">
				<pitch>
					<step>A</step>
					<octave>3</octave>
				</pitch>
				<duration>6720</duration>
				<voice>1</voice>
				<type>quarter</type>
				<stem default-y="-45.53">down</stem>
				<lyric number="1" justify="left" default-y="100.66">
					<syllabic>single</syllabic>
					<text font-family="Times New Roman" font-size="12" font-weight="normal" font-style="normal" xml:lang="en">shall</text>
				</lyric>
				<lyric number="2" justify="center" default-y="75.66">
					<syllabic>single</syllabic>
					<text font-family="Times New Roman" font-size="12" font-weight="normal" font-style="normal" xml:lang="en">er</text>
				</lyric>
				<lyric number="3" justify="left" default-y="50.66">
					<syllabic>single</syllabic>
					<text font-family="Times New Roman" font-size="12" font-weight="normal" font-style="normal" xml:lang="en">the</text>
				</lyric>
			</note>
			<note>
				<chord/>
				<pitch>
					<step>F</step>
					<octave>3</octave>
				</pitch>
				<duration>6720</duration>
				<voice>1</voice>
				<type>quarter</type>
				<stem default-y="-45.53">down</stem>
			</note>
		</measure>
		<!--==========================[2,10]=============================-->
		<measure number="10" width="147">
			<note print-lyric="no">
				<pitch>
					<step>B</step>
					<alter>-1</alter>
					<octave>3</octave>
				</pitch>
				<duration>13440</duration>
				<voice>1</voice>
				<type>half</type>
				<stem default-y="-50.53">down</stem>
				<lyric number="1" justify="left" default-y="100.66">
					<syllabic>single</syllabic>
					<text font-family="Times New Roman" font-size="12" font-weight="normal" font-style="normal" xml:lang="en">be</text>
				</lyric>
				<lyric number="2" justify="left" default-y="75.66">
					<syllabic>single</syllabic>
					<text font-family="Times New Roman" font-size="12" font-weight="normal" font-style="normal" xml:lang="en">yet,</text>
				</lyric>
				<lyric number="3" justify="left" default-y="50.66">
					<syllabic>begin</syllabic>
					<text font-family="Times New Roman" font-size="12" font-weight="normal" font-style="normal" xml:lang="en">trem</text>
				</lyric>
			</note>
			<note>
				<chord/>
				<pitch>
					<step>E</step>
					<octave>3</octave>
				</pitch>
				<duration>13440</duration>
				<voice>1</voice>
				<type>half</type>
				<stem default-y="-50.53">down</stem>
			</note>
			<note print-lyric="no">
				<pitch>
					<step>A</step>
					<octave>3</octave>
				</pitch>
				<duration>13440</duration>
				<voice>1</voice>
				<type>half</type>
				<stem default-y="-67.37">down</stem>
				<lyric number="1" justify="center" default-y="100.66">
					<syllabic>end</syllabic>
					<text font-family="Times New Roman" font-size="12" font-weight="normal" font-style="normal" xml:lang="en">the</text>
				</lyric>
				<lyric number="2" justify="center" default-y="75.66">
					<syllabic>single</syllabic>
					<text font-family="Times New Roman" font-size="12" font-weight="normal" font-style="normal" xml:lang="en">and</text>
				</lyric>
				<lyric number="3" justify="center" default-y="50.66">
					<syllabic>single</syllabic>
					<text font-family="Times New Roman" font-size="12" font-weight="normal" font-style="normal" xml:lang="en">bling</text>
				</lyric>
			</note>
			<note>
				<chord/>
				<pitch>
					<step>A</step>
					<octave>2</octave>
				</pitch>
				<duration>13440</duration>
				<voice>1</voice>
				<type>half</type>
				<stem default-y="-70.96">down</stem>
			</note>
		</measure>
		<!--==========================[2,11]=============================-->
		<measure number="11" width="158">
			<note print-lyric="no">
				<pitch>
					<step>A</step>
					<octave>3</octave>
				</pitch>
				<duration>13440</duration>
				<voice>1</voice>
				<type>half</type>
				<stem default-y="-55.53">down</stem>
				<lyric number="1" justify="left" default-y="100.66">
					<syllabic>begin</syllabic>
					<text font-family="Times New Roman" font-size="12" font-weight="normal" font-style="normal" xml:lang="en">sin</text>
				</lyric>
				<lyric number="2" justify="left" default-y="75.66">
					<syllabic>end</syllabic>
					<text font-family="Times New Roman" font-size="12" font-weight="normal" font-style="normal" xml:lang="en">yet</text>
				</lyric>
				<lyric number="3" justify="left" default-y="50.66">
					<syllabic>begin</syllabic>
					<text font-family="Times New Roman" font-size="12" font-weight="normal" font-style="normal" xml:lang="en">sin</text>
				</lyric>
			</note>
			<note>
				<chord/>
				<pitch>
					<step>D</step>
					<octave>3</octave>
				</pitch>
				<duration>13440</duration>
				<voice>1</voice>
				<type>half</type>
				<stem default-y="-55.53">down</stem>
			</note>
			<note print-lyric="no">
				<pitch>
					<step>B</step>
					<alter>-1</alter>
					<octave>3</octave>
				</pitch>
				<duration>13440</duration>
				<voice>1</voice>
				<type>half</type>
				<stem default-y="-71.32">down</stem>
				<lyric number="1" justify="center" default-y="100.66">
					<syllabic>end</syllabic>
					<text font-family="Times New Roman" font-size="12" font-weight="normal" font-style="normal" xml:lang="en">ner's</text>
				</lyric>
				<lyric number="2" justify="left" default-y="75.66">
					<syllabic>single</syllabic>
					<text font-family="Times New Roman" font-size="12" font-weight="normal" font-style="normal" xml:lang="en">more</text>
				</lyric>
				<lyric number="3" justify="center" default-y="50.66">
					<syllabic>single</syllabic>
					<text font-family="Times New Roman" font-size="12" font-weight="normal" font-style="normal" xml:lang="en">ner's</text>
				</lyric>
			</note>
			<note>
				<chord/>
				<pitch>
					<step>G</step>
					<octave>2</octave>
				</pitch>
				<duration>13440</duration>
				<voice>1</voice>
				<type>half</type>
				<stem default-y="-85.96">down</stem>
			</note>
		</measure>
		<!--==========================[2,12]=============================-->
		<measure number="12" width="150">
			<print new-system="yes">
				<staff-layout number="1">
					<staff-distance>175.000</staff-distance>
				</staff-layout>
			</print>
			<attributes>
				<staff-details number="1" print-object="yes">
				</staff-details>
			</attributes>
			<note print-lyric="no">
				<pitch>
					<step>A</step>
					<octave>3</octave>
				</pitch>
				<duration>26880</duration>
				<voice>1</voice>
				<type>whole</type>
				<stem>none</stem>
				<lyric number="1" justify="center" default-y="100.66">
					<syllabic>single</syllabic>
					<text font-family="Times New Roman" font-size="12" font-weight="normal" font-style="normal" xml:lang="en">stay?</text>
				</lyric>
				<lyric number="2" justify="center" default-y="75.66">
					<syllabic>single</syllabic>
					<text font-family="Times New Roman" font-size="12" font-weight="normal" font-style="normal" xml:lang="en">dread;</text>
				</lyric>
				<lyric number="3" justify="center" default-y="50.66">
					<syllabic>single</syllabic>
					<text font-family="Times New Roman" font-size="12" font-weight="normal" font-style="normal" xml:lang="en">stay,</text>
				</lyric>
			</note>
			<note>
				<chord/>
				<pitch>
					<step>A</step>
					<octave>2</octave>
				</pitch>
				<duration>26880</duration>
				<voice>1</voice>
				<type>whole</type>
				<stem>none</stem>
			</note>
		</measure>
		<!--==========================[2,13]=============================-->
		<measure number="13" width="255">
			<note print-lyric="no">
				<pitch>
					<step>D</step>
					<octave>3</octave>
				</pitch>
				<duration>13440</duration>
				<voice>1</voice>
				<type>half</type>
				<stem default-y="14.74">up</stem>
				<lyric number="1" justify="left" default-y="100.66">
					<syllabic>single</syllabic>
					<text font-family="Times New Roman" font-size="12" font-weight="normal" font-style="normal" xml:lang="en">
How</text>
				</lyric>
				<lyric number="2" justify="left" default-y="75.66">
					<syllabic>single</syllabic>
					<text font-family="Times New Roman" font-size="12" font-weight="normal" font-style="normal" xml:lang="en">
Swells</text>
				</lyric>
				<lyric number="3" justify="left" default-y="50.66">
					<syllabic>single</syllabic>
					<text font-family="Times New Roman" font-size="12" font-weight="normal" font-style="normal" xml:lang="en">
Though</text>
				</lyric>
			</note>
			<backup>
				<duration>13440</duration>
			</backup>
			<note>
				<pitch>
					<step>D</step>
					<octave>3</octave>
				</pitch>
				<duration>13440</duration>
				<voice>2</voice>
				<type>half</type>
				<stem default-y="-55.53">down</stem>
			</note>
			<note print-lyric="no">
				<pitch>
					<step>D</step>
					<octave>3</octave>
				</pitch>
				<duration>6720</duration>
				<voice>1</voice>
				<type>quarter</type>
				<stem default-y="14.74">up</stem>
				<lyric number="1" justify="left" default-y="100.66">
					<syllabic>single</syllabic>
					<text font-family="Times New Roman" font-size="12" font-weight="normal" font-style="normal" xml:lang="en">shall</text>
				</lyric>
				<lyric number="2" justify="left" default-y="75.66">
					<syllabic>single</syllabic>
					<text font-family="Times New Roman" font-size="12" font-weight="normal" font-style="normal" xml:lang="en">the</text>
				</lyric>
				<lyric number="3" justify="left" default-y="50.66">
					<syllabic>single</syllabic>
					<text font-family="Times New Roman" font-size="12" font-weight="normal" font-style="normal" xml:lang="en">Heav'n</text>
				</lyric>
			</note>
			<backup>
				<duration>6720</duration>
			</backup>
			<note>
				<pitch>
					<step>D</step>
					<octave>3</octave>
				</pitch>
				<duration>6720</duration>
				<voice>2</voice>
				<type>quarter</type>
				<stem default-y="-55.53">down</stem>
			</note>
			<note print-lyric="no">
				<pitch>
					<step>D</step>
					<octave>3</octave>
				</pitch>
				<duration>6720</duration>
				<voice>1</voice>
				<type>quarter</type>
				<stem default-y="14.74">up</stem>
				<lyric number="1" justify="left" default-y="100.66">
					<syllabic>single</syllabic>
					<text font-family="Times New Roman" font-size="12" font-weight="normal" font-style="normal" xml:lang="en">he</text>
				</lyric>
				<lyric number="2" justify="left" default-y="75.66">
					<syllabic>single</syllabic>
					<text font-family="Times New Roman" font-size="12" font-weight="normal" font-style="normal" xml:lang="en">high</text>
				</lyric>
				<lyric number="3" justify="left" default-y="50.66">
					<syllabic>single</syllabic>
					<text font-family="Times New Roman" font-size="12" font-weight="normal" font-style="normal" xml:lang="en">and</text>
				</lyric>
			</note>
			<backup>
				<duration>6720</duration>
			</backup>
			<note>
				<pitch>
					<step>D</step>
					<octave>3</octave>
				</pitch>
				<duration>6720</duration>
				<voice>2</voice>
				<type>quarter</type>
				<stem default-y="-55.53">down</stem>
			</note>
		</measure>
		<!--==========================[2,14]=============================-->
		<measure number="14" width="151">
			<note print-lyric="no">
				<pitch>
					<step>A</step>
					<octave>3</octave>
				</pitch>
				<duration>20160</duration>
				<voice>1</voice>
				<type>half</type>
				<dot/>
				<stem default-y="30.53">up</stem>
				<lyric number="1" justify="left" default-y="100.66">
					<syllabic>single</syllabic>
					<text font-family="Times New Roman" font-size="12" font-weight="normal" font-style="normal" xml:lang="en">meet</text>
				</lyric>
				<lyric number="2" justify="left" default-y="75.66">
					<syllabic>single</syllabic>
					<text font-family="Times New Roman" font-size="12" font-weight="normal" font-style="normal" xml:lang="en">trump</text>
				</lyric>
				<lyric number="3" justify="left" default-y="50.66">
					<syllabic>single</syllabic>
					<text font-family="Times New Roman" font-size="12" font-weight="normal" font-style="normal" xml:lang="en">earth</text>
				</lyric>
			</note>
			<backup>
				<duration>20160</duration>
			</backup>
			<note>
				<pitch>
					<step>A</step>
					<octave>3</octave>
				</pitch>
				<duration>20160</duration>
				<voice>2</voice>
				<type>half</type>
				<dot/>
				<stem default-y="-35.53">down</stem>
			</note>
			<note print-lyric="no">
				<pitch>
					<step>B</step>
					<alter>-1</alter>
					<octave>3</octave>
				</pitch>
				<duration>6720</duration>
				<voice>2</voice>
				<type>quarter</type>
				<stem default-y="-67.37">down</stem>
				<lyric number="1" justify="left" default-y="100.66">
					<syllabic>single</syllabic>
					<text font-family="Times New Roman" font-size="12" font-weight="normal" font-style="normal" xml:lang="en">that</text>
				</lyric>
				<lyric number="2" justify="left" default-y="75.66">
					<syllabic>single</syllabic>
					<text font-family="Times New Roman" font-size="12" font-weight="normal" font-style="normal" xml:lang="en">that</text>
				</lyric>
				<lyric number="3" justify="left" default-y="50.66">
					<syllabic>single</syllabic>
					<text font-family="Times New Roman" font-size="12" font-weight="normal" font-style="normal" xml:lang="en">shall</text>
				</lyric>
			</note>
			<note>
				<chord/>
				<pitch>
					<step>A</step>
					<octave>2</octave>
				</pitch>
				<duration>6720</duration>
				<voice>2</voice>
				<type>quarter</type>
				<stem default-y="-75.87">down</stem>
			</note>
		</measure>
		<!--==========================[2,15]=============================-->
		<measure number="15" width="166">
			<note print-lyric="no">
				<pitch>
					<step>A</step>
					<octave>3</octave>
				</pitch>
				<duration>13440</duration>
				<voice>1</voice>
				<type>half</type>
				<stem default-y="-67.37">down</stem>
				<lyric number="1" justify="left" default-y="100.66">
					<syllabic>begin</syllabic>
					<text font-family="Times New Roman" font-size="12" font-weight="normal" font-style="normal" xml:lang="en">dread</text>
				</lyric>
				<lyric number="2" justify="left" default-y="75.66">
					<syllabic>end</syllabic>
					<text font-family="Times New Roman" font-size="12" font-weight="normal" font-style="normal" xml:lang="en">wakes</text>
				</lyric>
				<lyric number="3" justify="left" default-y="50.66">
					<syllabic>single</syllabic>
					<text font-family="Times New Roman" font-size="12" font-weight="normal" font-style="normal" xml:lang="en">pass</text>
				</lyric>
			</note>
			<note>
				<chord/>
				<pitch>
					<step>A</step>
					<octave>2</octave>
				</pitch>
				<duration>13440</duration>
				<voice>1</voice>
				<type>half</type>
				<stem default-y="-70.96">down</stem>
			</note>
			<note print-lyric="no">
				<pitch>
					<step>G</step>
					<octave>3</octave>
				</pitch>
				<duration>13440</duration>
				<voice>1</voice>
				<type>half</type>
				<stem default-y="-67.37">down</stem>
				<lyric number="1" justify="right" default-y="100.66">
					<syllabic>single</syllabic>
					<text font-family="Times New Roman" font-size="12" font-weight="normal" font-style="normal" xml:lang="en">ful</text>
				</lyric>
				<lyric number="2" justify="center" default-y="75.66">
					<syllabic>single</syllabic>
					<text font-family="Times New Roman" font-size="12" font-weight="normal" font-style="normal" xml:lang="en">the</text>
				</lyric>
				<lyric number="3" justify="center" default-y="50.66">
					<syllabic>single</syllabic>
					<text font-family="Times New Roman" font-size="12" font-weight="normal" font-style="normal" xml:lang="en">away.</text>
				</lyric>
			</note>
			<note>
				<chord/>
				<pitch>
					<step>A</step>
					<octave>2</octave>
				</pitch>
				<duration>13440</duration>
				<voice>1</voice>
				<type>half</type>
				<stem default-y="-67.37">down</stem>
			</note>
		</measure>
		<!--==========================[2,16]=============================-->
		<measure number="16" width="88">
			<note print-lyric="no">
				<pitch>
					<step>F</step>
					<octave>3</octave>
				</pitch>
				<duration>26880</duration>
				<voice>1</voice>
				<type>whole</type>
				<stem>none</stem>
				<lyric number="1" justify="left" default-y="100.66">
					<syllabic>single</syllabic>
					<text font-family="Times New Roman" font-size="12" font-weight="normal" font-style="normal" xml:lang="en">day?</text>
				</lyric>
				<lyric number="2" justify="left" default-y="75.66">
					<syllabic>single</syllabic>
					<text font-family="Times New Roman" font-size="12" font-weight="normal" font-style="normal" xml:lang="en">dead.</text>
				</lyric>
			</note>
			<note>
				<chord/>
				<pitch>
					<step>D</step>
					<octave>3</octave>
				</pitch>
				<duration>26880</duration>
				<voice>1</voice>
				<type>whole</type>
				<stem>none</stem>
			</note>
			<barline location="right">
				<repeat direction="backward" times="3"/>
			</barline>
		</measure>
	</part>
</score-partwise>
