<?xml version="1.0" encoding="UTF-8" standalone="no"?>
<!DOCTYPE score-partwise PUBLIC "-//Recordare//DTD MusicXML 2.0 Partwise//EN" "http://www.musicxml.org/dtds/partwise.dtd">
<score-partwise version="2.0">
	<work>
		<work-title>Psalm 34</work-title>
	</work>
	<identification>
		<creator type="composer">B. T. Stephenson</creator>
		<encoding>
			<software>PDFtoMusic Pro v1.6.5 Build 1B9E7 (c) Myriad - http://www.myriad-online.com</software>
			<?PDFtoMusic Document type 0100- 00000000?>
			<supports attribute="new-system" element="print" type="yes" value="yes"/>
			<supports attribute="new-page" element="print" type="yes" value="yes"/>
		</encoding>
	</identification>
	<defaults>
		<scaling>
			<millimeters>6.999002</millimeters>
			<tenths>40</tenths>
		</scaling>
		<page-layout>
			<page-height>1695.591</page-height>
			<page-width>1199.615</page-width>
			<page-margins type="both">
				<left-margin>57.151</left-margin>
				<right-margin>57.151</right-margin>
				<top-margin>57.151</top-margin>
				 <bottom-margin>57.151</bottom-margin>
			</page-margins>
		</page-layout>
		<appearance>
			<line-width type="stem">1.1001</line-width>
			<line-width type="beam">5.0204</line-width>
			<line-width type="staff">1.1001</line-width>
			<line-width type="light barline">1.6603</line-width>
			<line-width type="heavy barline">5.5004</line-width>
			<line-width type="leger">1.6002</line-width>
		</appearance>
	</defaults>
	<credit page="1">
		<credit-words  default-x="505.195" default-y="1577.255" justify="left" valign="baseline" font-family="Edwin" font-size="22" font-weight="normal" font-style="normal">Psalm 34</credit-words>
	</credit>
	<credit page="1">
		<credit-words  default-x="955.769" default-y="1514.007" justify="left" valign="baseline" font-family="Edwin" font-size="10" font-weight="normal" font-style="normal">B. T. Stephenson</credit-words>
	</credit>
	<part-list>
		<score-part id="P1">
			<part-name font-family="Edwin" font-size="10" font-weight="normal" font-style="normal">S.</part-name>
			<part-abbreviation font-family="Edwin" font-size="10" font-weight="normal" font-style="normal">S.</part-abbreviation>
			<score-instrument id="P1-I1">
				<instrument-name>Instrument 1</instrument-name>
			</score-instrument>
			<midi-instrument id="P1-I1">
				<midi-channel>1</midi-channel>
				<midi-bank>2</midi-bank>
				<midi-program>53</midi-program>
				<volume>50</volume>
				<pan>180</pan>
				<elevation>0</elevation>
				<?Myriad
				<iddigit>5210</iddigit>
				?>
			</midi-instrument>
		</score-part>
		<score-part id="P2">
			<part-name font-family="Edwin" font-size="10" font-weight="normal" font-style="normal">A.</part-name>
			<part-abbreviation font-family="Edwin" font-size="10" font-weight="normal" font-style="normal">A.</part-abbreviation>
			<score-instrument id="P2-I1">
				<instrument-name>Instrument 2</instrument-name>
			</score-instrument>
			<midi-instrument id="P2-I1">
				<midi-channel>2</midi-channel>
				<midi-bank>3</midi-bank>
				<midi-program>53</midi-program>
				<volume>50</volume>
				<pan>-90</pan>
				<elevation>0</elevation>
				<?Myriad
				<iddigit>5220</iddigit>
				?>
			</midi-instrument>
		</score-part>
		<score-part id="P3">
			<part-name font-family="Edwin" font-size="10" font-weight="normal" font-style="normal">T.</part-name>
			<part-abbreviation font-family="Edwin" font-size="10" font-weight="normal" font-style="normal">T.</part-abbreviation>
			<score-instrument id="P3-I1">
				<instrument-name>Instrument 3</instrument-name>
			</score-instrument>
			<midi-instrument id="P3-I1">
				<midi-channel>3</midi-channel>
				<midi-bank>4</midi-bank>
				<midi-program>53</midi-program>
				<volume>50</volume>
				<pan>90</pan>
				<elevation>0</elevation>
				<?Myriad
				<iddigit>5230</iddigit>
				?>
			</midi-instrument>
		</score-part>
		<score-part id="P4">
			<part-name font-family="Edwin" font-size="10" font-weight="normal" font-style="normal">B.</part-name>
			<part-abbreviation font-family="Edwin" font-size="10" font-weight="normal" font-style="normal">B.</part-abbreviation>
			<score-instrument id="P4-I1">
				<instrument-name>Instrument 4</instrument-name>
			</score-instrument>
			<midi-instrument id="P4-I1">
				<midi-channel>4</midi-channel>
				<midi-bank>1</midi-bank>
				<midi-program>53</midi-program>
				<volume>50</volume>
				<pan>0</pan>
				<elevation>0</elevation>
				<?Myriad
				<iddigit>5200</iddigit>
				?>
			</midi-instrument>
		</score-part>
	</part-list>
	<part id="P1">
		<!--==========================[1,1]=============================-->
		<measure number="1" width="148">
			<print new-page="yes">
				<system-layout>
					<system-margins>
						<left-margin>84.825</left-margin>
						<right-margin>27.218</right-margin>
					</system-margins>
					<top-system-distance>197.952</top-system-distance>
				</system-layout>
			</print>
			<attributes>
				<divisions>6720</divisions>
				<time symbol="cut">
					<beats>2</beats>
					<beat-type>2</beat-type>
				</time>
				<clef number="1">
					<sign>G</sign>
					<line>2</line>
				</clef>
				<staff-details number="1" print-object="yes">
					<staff-lines>5</staff-lines>
					<staff-size>100.00</staff-size>
				</staff-details>
			</attributes>
			<note>
				<pitch>
					<step>G</step>
					<octave>4</octave>
				</pitch>
				<duration>26880</duration>
				<voice>1</voice>
				<type>whole</type>
				<stem>none</stem>
			</note>
		</measure>
		<!--==========================[1,2]=============================-->
		<measure number="2" width="222">
			<note>
				<pitch>
					<step>C</step>
					<octave>5</octave>
				</pitch>
				<duration>6720</duration>
				<voice>1</voice>
				<type>quarter</type>
				<stem default-y="-48.05">down</stem>
			</note>
			<note>
				<pitch>
					<step>C</step>
					<octave>5</octave>
				</pitch>
				<duration>6720</duration>
				<voice>1</voice>
				<type>quarter</type>
				<stem default-y="-48.05">down</stem>
			</note>
			<note>
				<pitch>
					<step>B</step>
					<octave>4</octave>
				</pitch>
				<duration>6720</duration>
				<voice>1</voice>
				<type>quarter</type>
				<stem default-y="-51.80">down</stem>
			</note>
			<note>
				<pitch>
					<step>G</step>
					<octave>4</octave>
				</pitch>
				<duration>6720</duration>
				<voice>1</voice>
				<type>quarter</type>
				<stem default-y="3.20">up</stem>
			</note>
		</measure>
		<!--==========================[1,3]=============================-->
		<measure number="3" width="146">
			<note>
				<pitch>
					<step>C</step>
					<octave>5</octave>
				</pitch>
				<duration>10080</duration>
				<tie type="start"/>
				<voice>1</voice>
				<type>quarter</type>
				<dot/>
				<stem default-y="-48.05">down</stem>
				<notations>
					<tied type="start" number="1" placement="above" orientation="over"/>
				</notations>
			</note>
			<note>
				<pitch>
					<step>B</step>
					<octave>4</octave>
				</pitch>
				<duration>3360</duration>
				<voice>2</voice>
				<type>eighth</type>
				<stem default-y="-56.03">down</stem>
			</note>
			<backup>
				<duration>3360</duration>
			</backup>
			<note>
				<pitch>
					<step>C</step>
					<octave>5</octave>
				</pitch>
				<duration>6720</duration>
				<tie type="stop"/>
				<voice>1</voice>
				<type>quarter</type>
				<stem default-y="-48.05">down</stem>
				<notations>
					<tied type="stop" number="1"/>
				</notations>
			</note>
			<note>
				<pitch>
					<step>B</step>
					<octave>4</octave>
				</pitch>
				<duration>6720</duration>
				<voice>1</voice>
				<type>quarter</type>
				<stem default-y="-51.80">down</stem>
			</note>
		</measure>
		<!--==========================[1,4]=============================-->
		<measure number="4" width="73">
			<note>
				<pitch>
					<step>C</step>
					<octave>5</octave>
				</pitch>
				<duration>26880</duration>
				<voice>1</voice>
				<type>whole</type>
				<stem>none</stem>
			</note>
		</measure>
		<!--==========================[1,5]=============================-->
		<measure number="5" width="154">
			<note>
				<pitch>
					<step>B</step>
					<octave>4</octave>
				</pitch>
				<duration>13440</duration>
				<voice>1</voice>
				<type>half</type>
				<stem default-y="-51.80">down</stem>
			</note>
			<note>
				<pitch>
					<step>C</step>
					<octave>5</octave>
				</pitch>
				<duration>6720</duration>
				<voice>1</voice>
				<type>quarter</type>
				<stem default-y="-48.05">down</stem>
			</note>
			<note>
				<pitch>
					<step>E</step>
					<octave>5</octave>
				</pitch>
				<duration>6720</duration>
				<voice>1</voice>
				<type>quarter</type>
				<stem default-y="-40.55">down</stem>
			</note>
		</measure>
		<!--==========================[1,6]=============================-->
		<measure number="6" width="116">
			<note>
				<pitch>
					<step>D</step>
					<octave>5</octave>
				</pitch>
				<duration>13440</duration>
				<voice>1</voice>
				<type>half</type>
				<stem default-y="-44.30">down</stem>
			</note>
			<note>
				<pitch>
					<step>C</step>
					<alter>1</alter>
					<octave>5</octave>
				</pitch>
				<duration>13440</duration>
				<voice>1</voice>
				<type>half</type>
				<accidental>sharp</accidental>
				<stem default-y="-48.05">down</stem>
			</note>
		</measure>
		<!--==========================[1,7]=============================-->
		<measure number="7" width="109">
			<note>
				<pitch>
					<step>D</step>
					<octave>5</octave>
				</pitch>
				<duration>20160</duration>
				<voice>1</voice>
				<type>half</type>
				<dot/>
				<stem default-y="-44.30">down</stem>
			</note>
			<note>
				<rest>
				</rest>
				<duration>6720</duration>
				<voice>1</voice>
				<type>quarter</type>
			</note>
		</measure>
		<!--==========================[1,8]=============================-->
		<measure number="8" width="268">
			<print new-system="yes">
				<system-layout>
					<system-margins>
						<left-margin>63.538</left-margin>
						<right-margin>27.218</right-margin>
					</system-margins>
					<system-distance>108.146</system-distance>
				</system-layout>
			</print>
			<attributes>
				<staff-details number="1" print-object="yes">
				</staff-details>
			</attributes>
			<note>
				<rest>
				</rest>
				<duration>26880</duration>
				<voice>1</voice>
				<type>whole</type>
			</note>
		</measure>
		<!--==========================[1,9]=============================-->
		<measure number="9" width="239">
			<note>
				<rest>
				</rest>
				<duration>13440</duration>
				<voice>1</voice>
				<type>half</type>
			</note>
			<note>
				<rest>
				</rest>
				<duration>6720</duration>
				<voice>1</voice>
				<type>quarter</type>
			</note>
			<note>
				<pitch>
					<step>C</step>
					<octave>5</octave>
				</pitch>
				<duration>6720</duration>
				<voice>1</voice>
				<type>quarter</type>
				<stem default-y="-48.05">down</stem>
				<lyric number="1" justify="center" default-y="-77.20">
					<syllabic>single</syllabic>
					<text font-family="Edwin" font-size="10" font-weight="normal" font-style="normal" xml:lang="en">
The</text>
				</lyric>
			</note>
		</measure>
		<!--==========================[1,10]=============================-->
		<measure number="10" width="239">
			<note>
				<pitch>
					<step>E</step>
					<octave>5</octave>
				</pitch>
				<duration>6720</duration>
				<voice>1</voice>
				<type>quarter</type>
				<stem default-y="-40.55">down</stem>
				<lyric number="1" justify="center" default-y="-77.20">
					<syllabic>begin</syllabic>
					<text font-family="Edwin" font-size="10" font-weight="normal" font-style="normal" xml:lang="en">prais</text>
				</lyric>
			</note>
			<note>
				<pitch>
					<step>E</step>
					<octave>5</octave>
				</pitch>
				<duration>6720</duration>
				<voice>1</voice>
				<type>quarter</type>
				<stem default-y="-40.55">down</stem>
				<lyric number="1" justify="center" default-y="-77.20">
					<syllabic>end</syllabic>
					<text font-family="Edwin" font-size="10" font-weight="normal" font-style="normal" xml:lang="en">es</text>
				</lyric>
			</note>
			<note>
				<pitch>
					<step>E</step>
					<octave>5</octave>
				</pitch>
				<duration>6720</duration>
				<voice>1</voice>
				<type>quarter</type>
				<stem default-y="-40.55">down</stem>
				<lyric number="1" justify="center" default-y="-77.20">
					<syllabic>single</syllabic>
					<text font-family="Edwin" font-size="10" font-weight="normal" font-style="normal" xml:lang="en">of</text>
				</lyric>
			</note>
			<note>
				<pitch>
					<step>E</step>
					<octave>5</octave>
				</pitch>
				<duration>6720</duration>
				<voice>1</voice>
				<type>quarter</type>
				<stem default-y="-40.55">down</stem>
				<lyric number="1" justify="center" default-y="-77.20">
					<syllabic>single</syllabic>
					<text font-family="Edwin" font-size="10" font-weight="normal" font-style="normal" xml:lang="en">my</text>
				</lyric>
			</note>
		</measure>
		<!--==========================[1,11]=============================-->
		<measure number="11" width="246">
			<note>
				<pitch>
					<step>C</step>
					<octave>5</octave>
				</pitch>
				<duration>20160</duration>
				<voice>1</voice>
				<type>half</type>
				<dot/>
				<stem default-y="-48.05">down</stem>
				<lyric number="1" justify="center" default-y="-77.20">
					<syllabic>single</syllabic>
					<text font-family="Edwin" font-size="10" font-weight="normal" font-style="normal" xml:lang="en">God</text>
				</lyric>
			</note>
			<note>
				<pitch>
					<step>B</step>
					<octave>4</octave>
				</pitch>
				<duration>6720</duration>
				<voice>1</voice>
				<type>quarter</type>
				<stem default-y="-51.80">down</stem>
				<lyric number="1" justify="center" default-y="-77.20">
					<syllabic>single</syllabic>
					<text font-family="Edwin" font-size="10" font-weight="normal" font-style="normal" xml:lang="en">shall</text>
				</lyric>
			</note>
		</measure>
		<!--==========================[1,12]=============================-->
		<measure number="12" width="264">
			<print new-system="yes">
				<system-layout>
					<system-margins>
						<left-margin>63.538</left-margin>
						<right-margin>27.218</right-margin>
					</system-margins>
					<system-distance>108.146</system-distance>
				</system-layout>
			</print>
			<attributes>
				<staff-details number="1" print-object="yes">
				</staff-details>
			</attributes>
			<note>
				<pitch>
					<step>G</step>
					<octave>4</octave>
				</pitch>
				<duration>6720</duration>
				<voice>1</voice>
				<type>quarter</type>
				<stem default-y="3.20">up</stem>
				<lyric number="1" justify="center" default-y="-76.90">
					<syllabic>single</syllabic>
					<text font-family="Edwin" font-size="10" font-weight="normal" font-style="normal" xml:lang="en">still</text>
				</lyric>
			</note>
			<note>
				<pitch>
					<step>G</step>
					<octave>4</octave>
				</pitch>
				<duration>6720</duration>
				<voice>1</voice>
				<type>quarter</type>
				<stem default-y="3.20">up</stem>
				<lyric number="1" justify="center" default-y="-76.90">
					<syllabic>single</syllabic>
					<text font-family="Edwin" font-size="10" font-weight="normal" font-style="normal" xml:lang="en">
The</text>
				</lyric>
			</note>
			<note>
				<pitch>
					<step>C</step>
					<octave>5</octave>
				</pitch>
				<duration>6720</duration>
				<voice>1</voice>
				<type>quarter</type>
				<stem default-y="-48.05">down</stem>
				<lyric number="1" justify="center" default-y="-76.90">
					<syllabic>begin</syllabic>
					<text font-family="Edwin" font-size="10" font-weight="normal" font-style="normal" xml:lang="en">prais</text>
				</lyric>
			</note>
			<note>
				<pitch>
					<step>C</step>
					<octave>5</octave>
				</pitch>
				<duration>6720</duration>
				<voice>1</voice>
				<type>quarter</type>
				<stem default-y="-48.05">down</stem>
				<lyric number="1" justify="center" default-y="-76.90">
					<syllabic>end</syllabic>
					<text font-family="Edwin" font-size="10" font-weight="normal" font-style="normal" xml:lang="en">es</text>
				</lyric>
			</note>
		</measure>
		<!--==========================[1,13]=============================-->
		<measure number="13" width="237">
			<note>
				<pitch>
					<step>C</step>
					<octave>5</octave>
				</pitch>
				<duration>6720</duration>
				<voice>1</voice>
				<type>quarter</type>
				<stem default-y="-48.05">down</stem>
				<lyric number="1" justify="center" default-y="-76.90">
					<syllabic>single</syllabic>
					<text font-family="Edwin" font-size="10" font-weight="normal" font-style="normal" xml:lang="en">of</text>
				</lyric>
			</note>
			<note>
				<pitch>
					<step>C</step>
					<octave>5</octave>
				</pitch>
				<duration>6720</duration>
				<voice>1</voice>
				<type>quarter</type>
				<stem default-y="-48.05">down</stem>
				<lyric number="1" justify="center" default-y="-76.90">
					<syllabic>single</syllabic>
					<text font-family="Edwin" font-size="10" font-weight="normal" font-style="normal" xml:lang="en">my</text>
				</lyric>
			</note>
			<note>
				<pitch>
					<step>A</step>
					<octave>4</octave>
				</pitch>
				<duration>6720</duration>
				<voice>1</voice>
				<type>quarter</type>
				<stem default-y="6.95">up</stem>
				<lyric number="1" justify="center" default-y="-76.90">
					<syllabic>single</syllabic>
					<text font-family="Edwin" font-size="10" font-weight="normal" font-style="normal" xml:lang="en">God</text>
				</lyric>
			</note>
			<note>
				<pitch>
					<step>A</step>
					<octave>4</octave>
				</pitch>
				<duration>6720</duration>
				<voice>1</voice>
				<type>quarter</type>
				<stem default-y="6.95">up</stem>
				<lyric number="1" justify="center" default-y="-76.90">
					<syllabic>single</syllabic>
					<text font-family="Edwin" font-size="10" font-weight="normal" font-style="normal" xml:lang="en">shall</text>
				</lyric>
			</note>
		</measure>
		<!--==========================[1,14]=============================-->
		<measure number="14" width="188">
			<note>
				<pitch>
					<step>G</step>
					<octave>4</octave>
				</pitch>
				<duration>26880</duration>
				<voice>1</voice>
				<type>whole</type>
				<stem>none</stem>
				<lyric number="1" justify="center" default-y="-76.90">
					<syllabic>single</syllabic>
					<text font-family="Edwin" font-size="10" font-weight="normal" font-style="normal" xml:lang="en">still</text>
				</lyric>
			</note>
		</measure>
		<!--==========================[1,15]=============================-->
		<measure number="15" width="146">
			<note>
				<pitch>
					<step>B</step>
					<octave>4</octave>
				</pitch>
				<duration>13440</duration>
				<voice>1</voice>
				<type>half</type>
				<stem default-y="-51.80">down</stem>
				<lyric number="1" justify="center" default-y="-76.90">
					<syllabic>single</syllabic>
					<text font-family="Edwin" font-size="10" font-weight="normal" font-style="normal" xml:lang="en">
My</text>
				</lyric>
			</note>
			<note>
				<pitch>
					<step>C</step>
					<octave>5</octave>
				</pitch>
				<duration>10080</duration>
				<voice>1</voice>
				<type>quarter</type>
				<dot/>
				<stem default-y="-48.05">down</stem>
				<notations>
					<slur type="start" number="1" placement="above" orientation="over"/>
				</notations>
				<lyric number="1" justify="center" default-y="-76.90">
					<syllabic>single</syllabic>
					<text font-family="Edwin" font-size="10" font-weight="normal" font-style="normal" xml:lang="en">heart</text>
				</lyric>
			</note>
			<note>
				<pitch>
					<step>B</step>
					<octave>4</octave>
				</pitch>
				<duration>3360</duration>
				<voice>1</voice>
				<type>eighth</type>
				<stem default-y="-56.03">down</stem>
			</note>
		</measure>
		<!--==========================[1,16]=============================-->
		<measure number="16" width="157">
			<note>
				<pitch>
					<step>C</step>
					<octave>5</octave>
				</pitch>
				<duration>6720</duration>
				<voice>1</voice>
				<type>quarter</type>
				<stem default-y="-48.05">down</stem>
				<notations>
					<slur type="stop" number="1"/>
				</notations>
			</note>
			<note>
				<pitch>
					<step>G</step>
					<octave>4</octave>
				</pitch>
				<duration>6720</duration>
				<voice>1</voice>
				<type>quarter</type>
				<stem default-y="3.20">up</stem>
				<lyric number="1" justify="left" default-y="-76.90">
					<syllabic>single</syllabic>
					<text font-family="Edwin" font-size="10" font-weight="normal" font-style="normal" xml:lang="en">myheart</text>
				</lyric>
			</note>
			<note>
				<pitch>
					<step>C</step>
					<octave>5</octave>
				</pitch>
				<duration>10080</duration>
				<voice>1</voice>
				<type>quarter</type>
				<dot/>
				<stem default-y="-48.05">down</stem>
				<notations>
					<slur type="start" number="1" placement="above" orientation="over"/>
				</notations>
			</note>
			<note>
				<pitch>
					<step>D</step>
					<octave>5</octave>
				</pitch>
				<duration>3360</duration>
				<voice>1</voice>
				<type>eighth</type>
				<stem default-y="-46.03">down</stem>
				<notations>
					<slur type="stop" number="1"/>
				</notations>
			</note>
		</measure>
	</part>
	<part id="P2">
		<!--==========================[2,1]=============================-->
		<measure number="1" width="148">
			<print new-page="yes">
				<staff-layout number="1">
					<staff-distance>43.259</staff-distance>
				</staff-layout>
			</print>
			<attributes>
				<divisions>6720</divisions>
				<time symbol="cut">
					<beats>2</beats>
					<beat-type>2</beat-type>
				</time>
				<clef number="1">
					<sign>C</sign>
					<line>3</line>
				</clef>
				<staff-details number="1" print-object="yes">
					<staff-lines>5</staff-lines>
					<staff-size>100.00</staff-size>
				</staff-details>
			</attributes>
			<note>
				<pitch>
					<step>E</step>
					<octave>4</octave>
				</pitch>
				<duration>26880</duration>
				<voice>1</voice>
				<type>whole</type>
				<stem>none</stem>
				<lyric number="1" justify="center" default-y="-73.45">
					<syllabic>single</syllabic>
					<text font-family="Edwin" font-size="10" font-weight="normal" font-style="normal" xml:lang="en">
Thro'</text>
				</lyric>
			</note>
		</measure>
		<!--==========================[2,2]=============================-->
		<measure number="2" width="222">
			<note>
				<pitch>
					<step>G</step>
					<octave>4</octave>
				</pitch>
				<duration>6720</duration>
				<voice>1</voice>
				<type>quarter</type>
				<stem default-y="-35.55">down</stem>
				<lyric number="1" justify="center" default-y="-73.45">
					<syllabic>single</syllabic>
					<text font-family="Edwin" font-size="10" font-weight="normal" font-style="normal" xml:lang="en">all</text>
				</lyric>
			</note>
			<note>
				<pitch>
					<step>G</step>
					<octave>4</octave>
				</pitch>
				<duration>6720</duration>
				<voice>1</voice>
				<type>quarter</type>
				<stem default-y="-35.55">down</stem>
				<lyric number="1" justify="center" default-y="-73.45">
					<syllabic>single</syllabic>
					<text font-family="Edwin" font-size="10" font-weight="normal" font-style="normal" xml:lang="en">the</text>
				</lyric>
			</note>
			<note>
				<pitch>
					<step>G</step>
					<octave>4</octave>
				</pitch>
				<duration>6720</duration>
				<voice>1</voice>
				<type>quarter</type>
				<stem default-y="-35.55">down</stem>
				<lyric number="1" justify="center" default-y="-73.45">
					<syllabic>begin</syllabic>
					<text font-family="Edwin" font-size="10" font-weight="normal" font-style="normal" xml:lang="en">chang</text>
				</lyric>
			</note>
			<note>
				<pitch>
					<step>G</step>
					<octave>4</octave>
				</pitch>
				<duration>6720</duration>
				<voice>1</voice>
				<type>quarter</type>
				<stem default-y="-35.55">down</stem>
				<lyric number="1" justify="center" default-y="-73.45">
					<syllabic>end</syllabic>
					<text font-family="Edwin" font-size="10" font-weight="normal" font-style="normal" xml:lang="en">ing</text>
				</lyric>
			</note>
		</measure>
		<!--==========================[2,3]=============================-->
		<measure number="3" width="146">
			<note>
				<pitch>
					<step>G</step>
					<octave>4</octave>
				</pitch>
				<duration>10080</duration>
				<voice>1</voice>
				<type>quarter</type>
				<dot/>
				<stem default-y="-35.55">down</stem>
				<notations>
					<slur type="start" number="1" placement="above" orientation="over"/>
				</notations>
				<lyric number="1" justify="center" default-y="-73.45">
					<syllabic>single</syllabic>
					<text font-family="Edwin" font-size="10" font-weight="normal" font-style="normal" xml:lang="en">scenes</text>
				</lyric>
			</note>
			<note>
				<pitch>
					<step>F</step>
					<octave>4</octave>
				</pitch>
				<duration>3360</duration>
				<voice>2</voice>
				<type>eighth</type>
				<stem default-y="-41.03">down</stem>
			</note>
			<backup>
				<duration>3360</duration>
			</backup>
			<note>
				<pitch>
					<step>E</step>
					<octave>4</octave>
				</pitch>
				<duration>6720</duration>
				<voice>1</voice>
				<type>quarter</type>
				<stem default-y="-44.30">down</stem>
				<notations>
					<slur type="stop" number="1"/>
				</notations>
			</note>
			<note>
				<pitch>
					<step>D</step>
					<octave>4</octave>
				</pitch>
				<duration>6720</duration>
				<voice>1</voice>
				<type>quarter</type>
				<stem default-y="-48.05">down</stem>
				<lyric number="1" justify="center" default-y="-73.45">
					<syllabic>single</syllabic>
					<text font-family="Edwin" font-size="10" font-weight="normal" font-style="normal" xml:lang="en">of</text>
				</lyric>
			</note>
		</measure>
		<!--==========================[2,4]=============================-->
		<measure number="4" width="73">
			<note>
				<pitch>
					<step>E</step>
					<octave>4</octave>
				</pitch>
				<duration>26880</duration>
				<voice>1</voice>
				<type>whole</type>
				<stem>none</stem>
				<lyric number="1" justify="center" default-y="-73.45">
					<syllabic>single</syllabic>
					<text font-family="Edwin" font-size="10" font-weight="normal" font-style="normal" xml:lang="en">life</text>
				</lyric>
			</note>
		</measure>
		<!--==========================[2,5]=============================-->
		<measure number="5" width="154">
			<note>
				<pitch>
					<step>G</step>
					<octave>4</octave>
				</pitch>
				<duration>13440</duration>
				<voice>1</voice>
				<type>half</type>
				<stem default-y="-35.55">down</stem>
				<lyric number="1" justify="center" default-y="-73.45">
					<syllabic>single</syllabic>
					<text font-family="Edwin" font-size="10" font-weight="normal" font-style="normal" xml:lang="en">in</text>
				</lyric>
			</note>
			<note>
				<pitch>
					<step>G</step>
					<octave>4</octave>
				</pitch>
				<duration>6720</duration>
				<voice>1</voice>
				<type>quarter</type>
				<stem default-y="-35.55">down</stem>
				<lyric number="1" justify="center" default-y="-73.45">
					<syllabic>begin</syllabic>
					<text font-family="Edwin" font-size="10" font-weight="normal" font-style="normal" xml:lang="en">trou</text>
				</lyric>
			</note>
			<note>
				<pitch>
					<step>A</step>
					<octave>4</octave>
				</pitch>
				<duration>6720</duration>
				<voice>1</voice>
				<type>quarter</type>
				<stem default-y="-30.55">down</stem>
				<lyric number="1" justify="center" default-y="-73.45">
					<syllabic>end</syllabic>
					<text font-family="Edwin" font-size="10" font-weight="normal" font-style="normal" xml:lang="en">ble</text>
				</lyric>
			</note>
		</measure>
		<!--==========================[2,6]=============================-->
		<measure number="6" width="116">
			<note>
				<pitch>
					<step>A</step>
					<octave>4</octave>
				</pitch>
				<duration>13440</duration>
				<voice>1</voice>
				<type>half</type>
				<stem default-y="-30.55">down</stem>
				<lyric number="1" justify="center" default-y="-73.45">
					<syllabic>single</syllabic>
					<text font-family="Edwin" font-size="10" font-weight="normal" font-style="normal" xml:lang="en">and</text>
				</lyric>
			</note>
			<note>
				<pitch>
					<step>A</step>
					<octave>4</octave>
				</pitch>
				<duration>13440</duration>
				<voice>1</voice>
				<type>half</type>
				<stem default-y="-30.55">down</stem>
				<lyric number="1" justify="center" default-y="-73.45">
					<syllabic>single</syllabic>
					<text font-family="Edwin" font-size="10" font-weight="normal" font-style="normal" xml:lang="en">in</text>
				</lyric>
			</note>
		</measure>
		<!--==========================[2,7]=============================-->
		<measure number="7" width="109">
			<note>
				<pitch>
					<step>A</step>
					<octave>4</octave>
				</pitch>
				<duration>20160</duration>
				<voice>1</voice>
				<type>half</type>
				<dot/>
				<stem default-y="-30.55">down</stem>
				<lyric number="1" justify="center" default-y="-73.45">
					<syllabic>single</syllabic>
					<text font-family="Edwin" font-size="10" font-weight="normal" font-style="normal" xml:lang="en">
Joy</text>
				</lyric>
			</note>
			<note>
				<rest>
				</rest>
				<duration>6720</duration>
				<voice>1</voice>
				<type>quarter</type>
			</note>
		</measure>
		<!--==========================[2,8]=============================-->
		<measure number="8" width="268">
			<print new-system="yes">
				<staff-layout number="1">
					<staff-distance>67.157</staff-distance>
				</staff-layout>
			</print>
			<attributes>
				<staff-details number="1" print-object="yes">
				</staff-details>
			</attributes>
			<note>
				<rest>
				</rest>
				<duration>26880</duration>
				<voice>1</voice>
				<type>whole</type>
			</note>
		</measure>
		<!--==========================[2,9]=============================-->
		<measure number="9" width="239">
			<note>
				<rest>
				</rest>
				<duration>26880</duration>
				<voice>1</voice>
				<type>whole</type>
			</note>
		</measure>
		<!--==========================[2,10]=============================-->
		<measure number="10" width="239">
			<note>
				<rest>
				</rest>
				<duration>13440</duration>
				<voice>1</voice>
				<type>half</type>
			</note>
			<note>
				<rest>
				</rest>
				<duration>6720</duration>
				<voice>1</voice>
				<type>quarter</type>
			</note>
			<note>
				<pitch>
					<step>E</step>
					<octave>4</octave>
				</pitch>
				<duration>6720</duration>
				<voice>1</voice>
				<type>quarter</type>
				<stem default-y="-44.30">down</stem>
				<lyric number="1" justify="center" default-y="-70.55">
					<syllabic>single</syllabic>
					<text font-family="Edwin" font-size="10" font-weight="normal" font-style="normal" xml:lang="en">The</text>
				</lyric>
			</note>
		</measure>
		<!--==========================[2,11]=============================-->
		<measure number="11" width="246">
			<note>
				<pitch>
					<step>G</step>
					<octave>4</octave>
				</pitch>
				<duration>6720</duration>
				<voice>1</voice>
				<type>quarter</type>
				<stem default-y="-35.55">down</stem>
				<lyric number="1" justify="center" default-y="-70.55">
					<syllabic>begin</syllabic>
					<text font-family="Edwin" font-size="10" font-weight="normal" font-style="normal" xml:lang="en">prais</text>
				</lyric>
			</note>
			<note>
				<pitch>
					<step>G</step>
					<octave>4</octave>
				</pitch>
				<duration>6720</duration>
				<voice>1</voice>
				<type>quarter</type>
				<stem default-y="-35.55">down</stem>
				<lyric number="1" justify="center" default-y="-70.55">
					<syllabic>end</syllabic>
					<text font-family="Edwin" font-size="10" font-weight="normal" font-style="normal" xml:lang="en">es</text>
				</lyric>
			</note>
			<note>
				<pitch>
					<step>G</step>
					<octave>4</octave>
				</pitch>
				<duration>6720</duration>
				<voice>1</voice>
				<type>quarter</type>
				<stem default-y="-35.55">down</stem>
				<lyric number="1" justify="center" default-y="-70.55">
					<syllabic>single</syllabic>
					<text font-family="Edwin" font-size="10" font-weight="normal" font-style="normal" xml:lang="en">of</text>
				</lyric>
			</note>
			<note>
				<pitch>
					<step>G</step>
					<octave>4</octave>
				</pitch>
				<duration>6720</duration>
				<voice>1</voice>
				<type>quarter</type>
				<stem default-y="-35.55">down</stem>
				<lyric number="1" justify="center" default-y="-70.55">
					<syllabic>single</syllabic>
					<text font-family="Edwin" font-size="10" font-weight="normal" font-style="normal" xml:lang="en">my</text>
				</lyric>
			</note>
		</measure>
		<!--==========================[2,12]=============================-->
		<measure number="12" width="264">
			<print new-system="yes">
				<staff-layout number="1">
					<staff-distance>75.704</staff-distance>
				</staff-layout>
			</print>
			<attributes>
				<staff-details number="1" print-object="yes">
				</staff-details>
			</attributes>
			<note>
				<pitch>
					<step>E</step>
					<octave>4</octave>
				</pitch>
				<duration>20160</duration>
				<voice>1</voice>
				<type>half</type>
				<dot/>
				<stem default-y="-44.30">down</stem>
				<lyric number="1" justify="center" default-y="-73.45">
					<syllabic>single</syllabic>
					<text font-family="Edwin" font-size="10" font-weight="normal" font-style="normal" xml:lang="en">God</text>
				</lyric>
			</note>
			<note>
				<pitch>
					<step>G</step>
					<octave>4</octave>
				</pitch>
				<duration>6720</duration>
				<voice>1</voice>
				<type>quarter</type>
				<stem default-y="-35.55">down</stem>
				<lyric number="1" justify="center" default-y="-73.45">
					<syllabic>single</syllabic>
					<text font-family="Edwin" font-size="10" font-weight="normal" font-style="normal" xml:lang="en">
The</text>
				</lyric>
			</note>
		</measure>
		<!--==========================[2,13]=============================-->
		<measure number="13" width="237">
			<note>
				<pitch>
					<step>A</step>
					<octave>4</octave>
				</pitch>
				<duration>6720</duration>
				<voice>1</voice>
				<type>quarter</type>
				<stem default-y="-30.55">down</stem>
				<lyric number="1" justify="center" default-y="-73.45">
					<syllabic>begin</syllabic>
					<text font-family="Edwin" font-size="10" font-weight="normal" font-style="normal" xml:lang="en">prais</text>
				</lyric>
			</note>
			<note>
				<pitch>
					<step>A</step>
					<octave>4</octave>
				</pitch>
				<duration>6720</duration>
				<voice>1</voice>
				<type>quarter</type>
				<stem default-y="-30.55">down</stem>
				<lyric number="1" justify="center" default-y="-73.45">
					<syllabic>end</syllabic>
					<text font-family="Edwin" font-size="10" font-weight="normal" font-style="normal" xml:lang="en">es</text>
				</lyric>
			</note>
			<note>
				<pitch>
					<step>A</step>
					<octave>4</octave>
				</pitch>
				<duration>6720</duration>
				<voice>1</voice>
				<type>quarter</type>
				<stem default-y="-30.55">down</stem>
				<lyric number="1" justify="center" default-y="-73.45">
					<syllabic>single</syllabic>
					<text font-family="Edwin" font-size="10" font-weight="normal" font-style="normal" xml:lang="en">of</text>
				</lyric>
			</note>
			<note>
				<pitch>
					<step>F</step>
					<octave>4</octave>
				</pitch>
				<duration>6720</duration>
				<voice>1</voice>
				<type>quarter</type>
				<stem default-y="-40.55">down</stem>
				<lyric number="1" justify="center" default-y="-73.45">
					<syllabic>single</syllabic>
					<text font-family="Edwin" font-size="10" font-weight="normal" font-style="normal" xml:lang="en">my</text>
				</lyric>
			</note>
		</measure>
		<!--==========================[2,14]=============================-->
		<measure number="14" width="188">
			<note>
				<pitch>
					<step>G</step>
					<octave>4</octave>
				</pitch>
				<duration>6720</duration>
				<voice>1</voice>
				<type>quarter</type>
				<stem default-y="-35.55">down</stem>
				<lyric number="1" justify="left" default-y="-73.45">
					<syllabic>single</syllabic>
					<text font-family="Edwin" font-size="10" font-weight="normal" font-style="normal" xml:lang="en">Godshall</text>
				</lyric>
			</note>
			<note>
				<pitch>
					<step>E</step>
					<octave>4</octave>
				</pitch>
				<duration>6720</duration>
				<voice>1</voice>
				<type>quarter</type>
				<stem default-y="-44.30">down</stem>
			</note>
			<note>
				<pitch>
					<step>D</step>
					<octave>4</octave>
				</pitch>
				<duration>13440</duration>
				<voice>1</voice>
				<type>half</type>
				<stem default-y="-48.05">down</stem>
				<lyric number="1" justify="center" default-y="-73.45">
					<syllabic>single</syllabic>
					<text font-family="Edwin" font-size="10" font-weight="normal" font-style="normal" xml:lang="en">still</text>
				</lyric>
			</note>
		</measure>
		<!--==========================[2,15]=============================-->
		<measure number="15" width="146">
			<note>
				<pitch>
					<step>G</step>
					<octave>4</octave>
				</pitch>
				<duration>13440</duration>
				<voice>1</voice>
				<type>half</type>
				<stem default-y="-35.55">down</stem>
				<lyric number="1" justify="center" default-y="-73.45">
					<syllabic>single</syllabic>
					<text font-family="Edwin" font-size="10" font-weight="normal" font-style="normal" xml:lang="en">
My</text>
				</lyric>
			</note>
			<note>
				<pitch>
					<step>G</step>
					<octave>4</octave>
				</pitch>
				<duration>13440</duration>
				<voice>1</voice>
				<type>half</type>
				<stem default-y="-35.55">down</stem>
				<lyric number="1" justify="center" default-y="-73.45">
					<syllabic>single</syllabic>
					<text font-family="Edwin" font-size="10" font-weight="normal" font-style="normal" xml:lang="en">heart</text>
				</lyric>
			</note>
		</measure>
		<!--==========================[2,16]=============================-->
		<measure number="16" width="157">
			<note>
				<pitch>
					<step>G</step>
					<octave>4</octave>
				</pitch>
				<duration>13440</duration>
				<voice>1</voice>
				<type>half</type>
				<stem default-y="-35.55">down</stem>
			</note>
			<note>
				<pitch>
					<step>A</step>
					<octave>4</octave>
				</pitch>
				<duration>13440</duration>
				<voice>1</voice>
				<type>half</type>
				<stem default-y="-30.55">down</stem>
			</note>
		</measure>
	</part>
	<part id="P3">
		<!--==========================[3,1]=============================-->
		<measure number="1" width="148">
			<print new-page="yes">
				<staff-layout number="1">
					<staff-distance>69.666</staff-distance>
				</staff-layout>
			</print>
			<attributes>
				<divisions>6720</divisions>
				<time symbol="cut">
					<beats>2</beats>
					<beat-type>2</beat-type>
				</time>
				<clef number="1">
					<sign>G</sign>
					<line>2</line>
					<clef-octave-change>-1</clef-octave-change>
				</clef>
				<staff-details number="1" print-object="yes">
					<staff-lines>5</staff-lines>
					<staff-size>100.00</staff-size>
				</staff-details>
			</attributes>
			<note>
				<pitch>
					<step>C</step>
					<octave>4</octave>
				</pitch>
				<duration>26880</duration>
				<voice>1</voice>
				<type>whole</type>
				<stem>none</stem>
			</note>
		</measure>
		<!--==========================[3,2]=============================-->
		<measure number="2" width="222">
			<note>
				<pitch>
					<step>E</step>
					<octave>4</octave>
				</pitch>
				<duration>6720</duration>
				<voice>1</voice>
				<type>quarter</type>
				<stem default-y="-40.55">down</stem>
			</note>
			<note>
				<pitch>
					<step>E</step>
					<octave>4</octave>
				</pitch>
				<duration>6720</duration>
				<voice>1</voice>
				<type>quarter</type>
				<stem default-y="-40.55">down</stem>
			</note>
			<note>
				<pitch>
					<step>D</step>
					<octave>4</octave>
				</pitch>
				<duration>6720</duration>
				<voice>1</voice>
				<type>quarter</type>
				<stem default-y="-44.30">down</stem>
			</note>
			<note>
				<pitch>
					<step>C</step>
					<octave>4</octave>
				</pitch>
				<duration>6720</duration>
				<voice>1</voice>
				<type>quarter</type>
				<stem default-y="-48.05">down</stem>
			</note>
		</measure>
		<!--==========================[3,3]=============================-->
		<measure number="3" width="146">
			<note>
				<pitch>
					<step>C</step>
					<octave>4</octave>
				</pitch>
				<duration>10080</duration>
				<voice>1</voice>
				<type>quarter</type>
				<dot/>
				<stem default-y="-48.05">down</stem>
				<notations>
					<slur type="start" number="1" placement="above" orientation="over"/>
				</notations>
			</note>
			<note>
				<pitch>
					<step>D</step>
					<octave>4</octave>
				</pitch>
				<duration>3360</duration>
				<voice>2</voice>
				<type>eighth</type>
				<stem default-y="-46.03">down</stem>
			</note>
			<backup>
				<duration>3360</duration>
			</backup>
			<note>
				<pitch>
					<step>E</step>
					<octave>4</octave>
				</pitch>
				<duration>6720</duration>
				<voice>1</voice>
				<type>quarter</type>
				<stem default-y="-40.55">down</stem>
				<notations>
					<slur type="stop" number="1"/>
				</notations>
			</note>
			<note>
				<pitch>
					<step>D</step>
					<octave>4</octave>
				</pitch>
				<duration>6720</duration>
				<voice>1</voice>
				<type>quarter</type>
				<stem default-y="-44.30">down</stem>
			</note>
		</measure>
		<!--==========================[3,4]=============================-->
		<measure number="4" width="73">
			<note>
				<pitch>
					<step>C</step>
					<octave>4</octave>
				</pitch>
				<duration>26880</duration>
				<voice>1</voice>
				<type>whole</type>
				<stem>none</stem>
			</note>
		</measure>
		<!--==========================[3,5]=============================-->
		<measure number="5" width="154">
			<note>
				<pitch>
					<step>D</step>
					<octave>4</octave>
				</pitch>
				<duration>13440</duration>
				<voice>1</voice>
				<type>half</type>
				<stem default-y="-44.30">down</stem>
			</note>
			<note>
				<pitch>
					<step>E</step>
					<octave>4</octave>
				</pitch>
				<duration>6720</duration>
				<voice>1</voice>
				<type>quarter</type>
				<stem default-y="-40.55">down</stem>
			</note>
			<note>
				<pitch>
					<step>C</step>
					<octave>4</octave>
				</pitch>
				<duration>6720</duration>
				<voice>1</voice>
				<type>quarter</type>
				<stem default-y="-48.05">down</stem>
			</note>
		</measure>
		<!--==========================[3,6]=============================-->
		<measure number="6" width="116">
			<note>
				<pitch>
					<step>F</step>
					<octave>4</octave>
				</pitch>
				<duration>13440</duration>
				<voice>1</voice>
				<type>half</type>
				<stem default-y="-35.55">down</stem>
			</note>
			<note>
				<pitch>
					<step>E</step>
					<octave>4</octave>
				</pitch>
				<duration>13440</duration>
				<voice>1</voice>
				<type>half</type>
				<stem default-y="-40.55">down</stem>
			</note>
		</measure>
		<!--==========================[3,7]=============================-->
		<measure number="7" width="109">
			<note>
				<pitch>
					<step>D</step>
					<octave>4</octave>
				</pitch>
				<duration>20160</duration>
				<voice>1</voice>
				<type>half</type>
				<dot/>
				<stem default-y="-44.30">down</stem>
			</note>
			<note>
				<rest>
				</rest>
				<duration>6720</duration>
				<voice>1</voice>
				<type>quarter</type>
			</note>
		</measure>
		<!--==========================[3,8]=============================-->
		<measure number="8" width="268">
			<print new-system="yes">
				<staff-layout number="1">
					<staff-distance>59.702</staff-distance>
				</staff-layout>
			</print>
			<attributes>
				<staff-details number="1" print-object="yes">
				</staff-details>
			</attributes>
			<note>
				<rest>
				</rest>
				<duration>13440</duration>
				<voice>1</voice>
				<type>half</type>
			</note>
			<note>
				<rest>
					<display-step>G</display-step>
					<display-octave>3</display-octave>
				</rest>
				<duration>6720</duration>
				<voice>1</voice>
				<type>quarter</type>
			</note>
			<note>
				<pitch>
					<step>A</step>
					<octave>3</octave>
				</pitch>
				<duration>6720</duration>
				<voice>1</voice>
				<type>quarter</type>
				<stem default-y="6.95">up</stem>
				<lyric number="1" justify="center" default-y="-73.45">
					<syllabic>single</syllabic>
					<text font-family="Edwin" font-size="10" font-weight="normal" font-style="normal" xml:lang="en">
The</text>
				</lyric>
			</note>
		</measure>
		<!--==========================[3,9]=============================-->
		<measure number="9" width="239">
			<note>
				<pitch>
					<step>C</step>
					<octave>4</octave>
				</pitch>
				<duration>6720</duration>
				<voice>1</voice>
				<type>quarter</type>
				<stem default-y="-48.05">down</stem>
				<lyric number="1" justify="center" default-y="-73.45">
					<syllabic>begin</syllabic>
					<text font-family="Edwin" font-size="10" font-weight="normal" font-style="normal" xml:lang="en">prais</text>
				</lyric>
			</note>
			<note>
				<pitch>
					<step>C</step>
					<octave>4</octave>
				</pitch>
				<duration>6720</duration>
				<voice>1</voice>
				<type>quarter</type>
				<stem default-y="-48.05">down</stem>
				<lyric number="1" justify="center" default-y="-73.45">
					<syllabic>end</syllabic>
					<text font-family="Edwin" font-size="10" font-weight="normal" font-style="normal" xml:lang="en">es</text>
				</lyric>
			</note>
			<note>
				<pitch>
					<step>C</step>
					<octave>4</octave>
				</pitch>
				<duration>6720</duration>
				<voice>1</voice>
				<type>quarter</type>
				<stem default-y="-48.05">down</stem>
				<lyric number="1" justify="center" default-y="-73.45">
					<syllabic>single</syllabic>
					<text font-family="Edwin" font-size="10" font-weight="normal" font-style="normal" xml:lang="en">of</text>
				</lyric>
			</note>
			<note>
				<pitch>
					<step>C</step>
					<octave>4</octave>
				</pitch>
				<duration>6720</duration>
				<voice>1</voice>
				<type>quarter</type>
				<stem default-y="-48.05">down</stem>
				<lyric number="1" justify="center" default-y="-73.45">
					<syllabic>single</syllabic>
					<text font-family="Edwin" font-size="10" font-weight="normal" font-style="normal" xml:lang="en">my</text>
				</lyric>
			</note>
		</measure>
		<!--==========================[3,10]=============================-->
		<measure number="10" width="239">
			<note>
				<pitch>
					<step>A</step>
					<octave>3</octave>
				</pitch>
				<duration>13440</duration>
				<voice>1</voice>
				<type>half</type>
				<stem default-y="6.95">up</stem>
				<lyric number="1" justify="center" default-y="-73.45">
					<syllabic>single</syllabic>
					<text font-family="Edwin" font-size="10" font-weight="normal" font-style="normal" xml:lang="en">God</text>
				</lyric>
			</note>
			<note>
				<pitch>
					<step>G</step>
					<octave>3</octave>
				</pitch>
				<duration>13440</duration>
				<voice>1</voice>
				<type>half</type>
				<stem default-y="3.20">up</stem>
				<lyric number="1" justify="center" default-y="-73.45">
					<syllabic>single</syllabic>
					<text font-family="Edwin" font-size="10" font-weight="normal" font-style="normal" xml:lang="en">shall</text>
				</lyric>
			</note>
		</measure>
		<!--==========================[3,11]=============================-->
		<measure number="11" width="246">
			<note>
				<pitch>
					<step>C</step>
					<octave>4</octave>
				</pitch>
				<duration>20160</duration>
				<voice>1</voice>
				<type>half</type>
				<dot/>
				<stem default-y="-48.05">down</stem>
				<lyric number="1" justify="center" default-y="-73.45">
					<syllabic>single</syllabic>
					<text font-family="Edwin" font-size="10" font-weight="normal" font-style="normal" xml:lang="en">still</text>
				</lyric>
			</note>
			<note>
				<pitch>
					<step>D</step>
					<octave>4</octave>
				</pitch>
				<duration>6720</duration>
				<voice>1</voice>
				<type>quarter</type>
				<stem default-y="-44.30">down</stem>
				<lyric number="1" justify="center" default-y="-73.45">
					<syllabic>single</syllabic>
					<text font-family="Edwin" font-size="10" font-weight="normal" font-style="normal" xml:lang="en">
The</text>
				</lyric>
			</note>
		</measure>
		<!--==========================[3,12]=============================-->
		<measure number="12" width="264">
			<print new-system="yes">
				<staff-layout number="1">
					<staff-distance>75.364</staff-distance>
				</staff-layout>
			</print>
			<attributes>
				<staff-details number="1" print-object="yes">
				</staff-details>
			</attributes>
			<note>
				<pitch>
					<step>E</step>
					<octave>4</octave>
				</pitch>
				<duration>6720</duration>
				<voice>1</voice>
				<type>quarter</type>
				<stem default-y="-40.55">down</stem>
				<lyric number="1" justify="center" default-y="-73.45">
					<syllabic>begin</syllabic>
					<text font-family="Edwin" font-size="10" font-weight="normal" font-style="normal" xml:lang="en">prais</text>
				</lyric>
			</note>
			<note>
				<pitch>
					<step>E</step>
					<octave>4</octave>
				</pitch>
				<duration>6720</duration>
				<voice>1</voice>
				<type>quarter</type>
				<stem default-y="-40.55">down</stem>
				<lyric number="1" justify="center" default-y="-73.45">
					<syllabic>end</syllabic>
					<text font-family="Edwin" font-size="10" font-weight="normal" font-style="normal" xml:lang="en">es</text>
				</lyric>
			</note>
			<note>
				<pitch>
					<step>E</step>
					<octave>4</octave>
				</pitch>
				<duration>6720</duration>
				<voice>1</voice>
				<type>quarter</type>
				<stem default-y="-40.55">down</stem>
				<lyric number="1" justify="center" default-y="-73.45">
					<syllabic>single</syllabic>
					<text font-family="Edwin" font-size="10" font-weight="normal" font-style="normal" xml:lang="en">of</text>
				</lyric>
			</note>
			<note>
				<pitch>
					<step>E</step>
					<octave>4</octave>
				</pitch>
				<duration>6720</duration>
				<voice>1</voice>
				<type>quarter</type>
				<stem default-y="-40.55">down</stem>
				<lyric number="1" justify="center" default-y="-73.45">
					<syllabic>single</syllabic>
					<text font-family="Edwin" font-size="10" font-weight="normal" font-style="normal" xml:lang="en">my</text>
				</lyric>
			</note>
		</measure>
		<!--==========================[3,13]=============================-->
		<measure number="13" width="237">
			<note>
				<pitch>
					<step>C</step>
					<octave>4</octave>
				</pitch>
				<duration>13440</duration>
				<voice>1</voice>
				<type>half</type>
				<stem default-y="-48.05">down</stem>
				<lyric number="1" justify="center" default-y="-73.45">
					<syllabic>single</syllabic>
					<text font-family="Edwin" font-size="10" font-weight="normal" font-style="normal" xml:lang="en">God</text>
				</lyric>
			</note>
			<note>
				<pitch>
					<step>D</step>
					<octave>4</octave>
				</pitch>
				<duration>13440</duration>
				<voice>1</voice>
				<type>half</type>
				<stem default-y="-44.30">down</stem>
				<lyric number="1" justify="center" default-y="-73.45">
					<syllabic>single</syllabic>
					<text font-family="Edwin" font-size="10" font-weight="normal" font-style="normal" xml:lang="en">shall</text>
				</lyric>
			</note>
		</measure>
		<!--==========================[3,14]=============================-->
		<measure number="14" width="188">
			<note>
				<pitch>
					<step>B</step>
					<octave>3</octave>
				</pitch>
				<duration>26880</duration>
				<voice>1</voice>
				<type>whole</type>
				<stem>none</stem>
				<lyric number="1" justify="center" default-y="-73.45">
					<syllabic>single</syllabic>
					<text font-family="Edwin" font-size="10" font-weight="normal" font-style="normal" xml:lang="en">still</text>
				</lyric>
			</note>
		</measure>
		<!--==========================[3,15]=============================-->
		<measure number="15" width="146">
			<note>
				<pitch>
					<step>D</step>
					<octave>4</octave>
				</pitch>
				<duration>13440</duration>
				<voice>1</voice>
				<type>half</type>
				<stem default-y="-44.30">down</stem>
			</note>
			<note>
				<pitch>
					<step>E</step>
					<octave>4</octave>
				</pitch>
				<duration>10080</duration>
				<voice>1</voice>
				<type>quarter</type>
				<dot/>
				<stem default-y="-40.55">down</stem>
				<notations>
					<slur type="start" number="1" placement="above" orientation="over"/>
				</notations>
			</note>
			<note>
				<pitch>
					<step>F</step>
					<octave>4</octave>
				</pitch>
				<duration>3360</duration>
				<voice>1</voice>
				<type>eighth</type>
				<stem default-y="-36.03">down</stem>
			</note>
		</measure>
		<!--==========================[3,16]=============================-->
		<measure number="16" width="157">
			<note>
				<pitch>
					<step>E</step>
					<octave>4</octave>
				</pitch>
				<duration>10080</duration>
				<voice>1</voice>
				<type>quarter</type>
				<dot/>
				<stem default-y="-40.55">down</stem>
			</note>
			<note>
				<pitch>
					<step>D</step>
					<octave>4</octave>
				</pitch>
				<duration>3360</duration>
				<voice>1</voice>
				<type>eighth</type>
				<stem default-y="-46.03">down</stem>
			</note>
			<note>
				<pitch>
					<step>C</step>
					<octave>4</octave>
				</pitch>
				<duration>10080</duration>
				<voice>1</voice>
				<type>quarter</type>
				<dot/>
				<stem default-y="-48.05">down</stem>
			</note>
			<note>
				<pitch>
					<step>B</step>
					<octave>3</octave>
				</pitch>
				<duration>3360</duration>
				<voice>1</voice>
				<type>eighth</type>
				<stem default-y="-56.03">down</stem>
				<notations>
					<slur type="stop" number="1"/>
				</notations>
			</note>
		</measure>
	</part>
	<part id="P4">
		<!--==========================[4,1]=============================-->
		<measure number="1" width="148">
			<print new-page="yes">
				<staff-layout number="1">
					<staff-distance>43.258</staff-distance>
				</staff-layout>
			</print>
			<attributes>
				<divisions>6720</divisions>
				<time symbol="cut">
					<beats>2</beats>
					<beat-type>2</beat-type>
				</time>
				<clef number="1">
					<sign>F</sign>
					<line>4</line>
				</clef>
				<staff-details number="1" print-object="yes">
					<staff-lines>5</staff-lines>
					<staff-size>100.00</staff-size>
				</staff-details>
			</attributes>
			<note>
				<pitch>
					<step>C</step>
					<octave>4</octave>
				</pitch>
				<duration>26880</duration>
				<voice>1</voice>
				<type>whole</type>
				<stem>none</stem>
			</note>
		</measure>
		<!--==========================[4,2]=============================-->
		<measure number="2" width="222">
			<note>
				<pitch>
					<step>C</step>
					<octave>4</octave>
				</pitch>
				<duration>6720</duration>
				<voice>1</voice>
				<type>quarter</type>
				<stem default-y="-25.55">down</stem>
			</note>
			<note>
				<pitch>
					<step>C</step>
					<octave>4</octave>
				</pitch>
				<duration>6720</duration>
				<voice>1</voice>
				<type>quarter</type>
				<stem default-y="-25.55">down</stem>
			</note>
			<note>
				<pitch>
					<step>G</step>
					<octave>3</octave>
				</pitch>
				<duration>6720</duration>
				<voice>1</voice>
				<type>quarter</type>
				<stem default-y="-40.55">down</stem>
			</note>
			<note>
				<pitch>
					<step>G</step>
					<octave>3</octave>
				</pitch>
				<duration>6720</duration>
				<voice>1</voice>
				<type>quarter</type>
				<stem default-y="-40.55">down</stem>
			</note>
		</measure>
		<!--==========================[4,3]=============================-->
		<measure number="3" width="146">
			<note>
				<pitch>
					<step>E</step>
					<octave>3</octave>
				</pitch>
				<duration>10080</duration>
				<voice>1</voice>
				<type>quarter</type>
				<dot/>
				<stem default-y="-48.05">down</stem>
				<notations>
					<slur type="start" number="1" placement="above" orientation="over"/>
				</notations>
			</note>
			<note>
				<pitch>
					<step>D</step>
					<octave>3</octave>
				</pitch>
				<duration>3360</duration>
				<voice>2</voice>
				<type>eighth</type>
				<stem default-y="-56.03">down</stem>
			</note>
			<backup>
				<duration>3360</duration>
			</backup>
			<note>
				<pitch>
					<step>C</step>
					<octave>3</octave>
				</pitch>
				<duration>6720</duration>
				<voice>1</voice>
				<type>quarter</type>
				<stem default-y="6.95">up</stem>
				<notations>
					<slur type="stop" number="1"/>
				</notations>
			</note>
			<note>
				<pitch>
					<step>G</step>
					<octave>2</octave>
				</pitch>
				<duration>6720</duration>
				<voice>1</voice>
				<type>quarter</type>
				<stem default-y="-5.55">up</stem>
			</note>
		</measure>
		<!--==========================[4,4]=============================-->
		<measure number="4" width="73">
			<note>
				<pitch>
					<step>C</step>
					<octave>3</octave>
				</pitch>
				<duration>26880</duration>
				<voice>1</voice>
				<type>whole</type>
				<stem>none</stem>
			</note>
		</measure>
		<!--==========================[4,5]=============================-->
		<measure number="5" width="154">
			<note>
				<pitch>
					<step>G</step>
					<octave>3</octave>
				</pitch>
				<duration>13440</duration>
				<voice>1</voice>
				<type>half</type>
				<stem default-y="-40.55">down</stem>
			</note>
			<note>
				<pitch>
					<step>C</step>
					<octave>4</octave>
				</pitch>
				<duration>6720</duration>
				<voice>1</voice>
				<type>quarter</type>
				<stem default-y="-25.55">down</stem>
			</note>
			<note>
				<pitch>
					<step>A</step>
					<octave>3</octave>
				</pitch>
				<duration>6720</duration>
				<voice>1</voice>
				<type>quarter</type>
				<stem default-y="-35.55">down</stem>
			</note>
		</measure>
		<!--==========================[4,6]=============================-->
		<measure number="6" width="116">
			<note>
				<pitch>
					<step>F</step>
					<octave>3</octave>
				</pitch>
				<duration>10080</duration>
				<voice>1</voice>
				<type>quarter</type>
				<dot/>
				<stem default-y="-44.30">down</stem>
				<notations>
					<slur type="start" number="1" placement="above" orientation="over"/>
				</notations>
			</note>
			<note>
				<pitch>
					<step>G</step>
					<octave>3</octave>
				</pitch>
				<duration>3360</duration>
				<voice>1</voice>
				<type>eighth</type>
				<stem default-y="-41.03">down</stem>
				<notations>
					<slur type="stop" number="1"/>
				</notations>
			</note>
			<note>
				<pitch>
					<step>A</step>
					<octave>3</octave>
				</pitch>
				<duration>13440</duration>
				<voice>1</voice>
				<type>half</type>
				<stem default-y="-35.55">down</stem>
			</note>
		</measure>
		<!--==========================[4,7]=============================-->
		<measure number="7" width="109">
			<forward>
				<duration>14700</duration>
			</forward>
			<direction placement="below">
				<direction-type>
					<words font-family="Edwin" font-size="10" font-weight="normal" font-style="normal" relative-x="0.00" default-y="-77.21">The</words>
				</direction-type>
			</direction>
			<backup>
				<duration>14700</duration>
			</backup>
			<note>
				<pitch>
					<step>D</step>
					<octave>3</octave>
				</pitch>
				<duration>20160</duration>
				<voice>1</voice>
				<type>half</type>
				<dot/>
				<stem default-y="-51.80">down</stem>
			</note>
			<note>
				<pitch>
					<step>D</step>
					<octave>3</octave>
				</pitch>
				<duration>6720</duration>
				<voice>1</voice>
				<type>quarter</type>
				<stem default-y="-51.80">down</stem>
			</note>
		</measure>
		<!--==========================[4,8]=============================-->
		<measure number="8" width="268">
			<print new-system="yes">
				<staff-layout number="1">
					<staff-distance>66.257</staff-distance>
				</staff-layout>
			</print>
			<attributes>
				<staff-details number="1" print-object="yes">
				</staff-details>
			</attributes>
			<note>
				<pitch>
					<step>G</step>
					<octave>3</octave>
				</pitch>
				<duration>6720</duration>
				<voice>1</voice>
				<type>quarter</type>
				<stem default-y="-40.55">down</stem>
			</note>
			<note>
				<pitch>
					<step>G</step>
					<octave>3</octave>
				</pitch>
				<duration>6720</duration>
				<voice>1</voice>
				<type>quarter</type>
				<stem default-y="-40.55">down</stem>
			</note>
			<note>
				<pitch>
					<step>G</step>
					<octave>3</octave>
				</pitch>
				<duration>6720</duration>
				<voice>1</voice>
				<type>quarter</type>
				<stem default-y="-40.55">down</stem>
			</note>
			<forward>
				<duration>6720</duration>
			</forward>
			<direction placement="below">
				<direction-type>
					<words font-family="Edwin" font-size="10" font-weight="normal" font-style="normal" relative-x="0.00" default-y="-73.45">prais</words>
				</direction-type>
			</direction>
			<direction placement="below">
				<direction-type>
					<words font-family="Edwin" font-size="10" font-weight="normal" font-style="normal" relative-x="0.00" default-y="-73.45">es</words>
				</direction-type>
			</direction>
			<direction placement="below">
				<direction-type>
					<words font-family="Edwin" font-size="10" font-weight="normal" font-style="normal" relative-x="0.00" default-y="-73.45">of</words>
				</direction-type>
			</direction>
			<direction placement="below">
				<direction-type>
					<words font-family="Edwin" font-size="10" font-weight="normal" font-style="normal" relative-x="0.00" default-y="-73.45">my</words>
				</direction-type>
			</direction>
			<backup>
				<duration>6720</duration>
			</backup>
			<note>
				<pitch>
					<step>G</step>
					<octave>3</octave>
				</pitch>
				<duration>6720</duration>
				<voice>1</voice>
				<type>quarter</type>
				<stem default-y="-40.55">down</stem>
			</note>
		</measure>
		<!--==========================[4,9]=============================-->
		<measure number="9" width="239">
			<note>
				<pitch>
					<step>E</step>
					<octave>3</octave>
				</pitch>
				<duration>13440</duration>
				<voice>1</voice>
				<type>half</type>
				<stem default-y="-48.05">down</stem>
			</note>
			<forward>
				<duration>13440</duration>
			</forward>
			<direction placement="below">
				<direction-type>
					<words font-family="Edwin" font-size="10" font-weight="normal" font-style="normal" relative-x="0.00" default-y="-73.45">God</words>
				</direction-type>
			</direction>
			<direction placement="below">
				<direction-type>
					<words font-family="Edwin" font-size="10" font-weight="normal" font-style="normal" relative-x="0.00" default-y="-73.45">shall</words>
				</direction-type>
			</direction>
			<backup>
				<duration>13440</duration>
			</backup>
			<note>
				<pitch>
					<step>F</step>
					<octave>3</octave>
				</pitch>
				<duration>13440</duration>
				<voice>1</voice>
				<type>half</type>
				<stem default-y="-44.30">down</stem>
			</note>
		</measure>
		<!--==========================[4,10]=============================-->
		<measure number="10" width="239">
			<forward>
				<duration>26880</duration>
			</forward>
			<direction placement="below">
				<direction-type>
					<words font-family="Edwin" font-size="10" font-weight="normal" font-style="normal" relative-x="0.00" default-y="-73.45">still</words>
				</direction-type>
			</direction>
			<backup>
				<duration>26880</duration>
			</backup>
			<note>
				<pitch>
					<step>C</step>
					<octave>3</octave>
				</pitch>
				<duration>26880</duration>
				<tie type="start"/>
				<voice>1</voice>
				<type>whole</type>
				<stem>none</stem>
				<notations>
					<tied type="start" number="1" placement="below" orientation="under"/>
				</notations>
			</note>
		</measure>
		<!--==========================[4,11]=============================-->
		<measure number="11" width="246">
			<note>
				<pitch>
					<step>C</step>
					<octave>3</octave>
				</pitch>
				<duration>20160</duration>
				<tie type="stop"/>
				<voice>1</voice>
				<type>half</type>
				<dot/>
				<stem default-y="6.95">up</stem>
				<notations>
					<tied type="stop" number="1"/>
				</notations>
			</note>
			<forward>
				<duration>6720</duration>
			</forward>
			<direction placement="below">
				<direction-type>
					<words font-family="Edwin" font-size="10" font-weight="normal" font-style="normal" relative-x="0.00" default-y="-73.45">The</words>
				</direction-type>
			</direction>
			<backup>
				<duration>6720</duration>
			</backup>
			<note>
				<pitch>
					<step>G</step>
					<octave>3</octave>
				</pitch>
				<duration>6720</duration>
				<voice>1</voice>
				<type>quarter</type>
				<stem default-y="-40.55">down</stem>
			</note>
		</measure>
		<!--==========================[4,12]=============================-->
		<measure number="12" width="264">
			<print new-system="yes">
				<staff-layout number="1">
					<staff-distance>77.256</staff-distance>
				</staff-layout>
			</print>
			<attributes>
				<staff-details number="1" print-object="yes">
				</staff-details>
			</attributes>
			<note>
				<pitch>
					<step>C</step>
					<octave>4</octave>
				</pitch>
				<duration>6720</duration>
				<voice>1</voice>
				<type>quarter</type>
				<stem default-y="-25.55">down</stem>
			</note>
			<note>
				<pitch>
					<step>C</step>
					<octave>4</octave>
				</pitch>
				<duration>6720</duration>
				<voice>1</voice>
				<type>quarter</type>
				<stem default-y="-25.55">down</stem>
			</note>
			<note>
				<pitch>
					<step>C</step>
					<octave>4</octave>
				</pitch>
				<duration>6720</duration>
				<voice>1</voice>
				<type>quarter</type>
				<stem default-y="-25.55">down</stem>
			</note>
			<note>
				<pitch>
					<step>C</step>
					<octave>4</octave>
				</pitch>
				<duration>6720</duration>
				<voice>1</voice>
				<type>quarter</type>
				<stem default-y="-25.55">down</stem>
			</note>
		</measure>
		<!--==========================[4,13]=============================-->
		<measure number="13" width="237">
			<note>
				<pitch>
					<step>A</step>
					<octave>3</octave>
				</pitch>
				<duration>13440</duration>
				<voice>1</voice>
				<type>half</type>
				<stem default-y="-35.55">down</stem>
			</note>
			<note>
				<pitch>
					<step>D</step>
					<octave>3</octave>
				</pitch>
				<duration>13440</duration>
				<voice>1</voice>
				<type>half</type>
				<stem default-y="-51.80">down</stem>
			</note>
		</measure>
		<!--==========================[4,14]=============================-->
		<measure number="14" width="188">
			<note>
				<pitch>
					<step>G</step>
					<octave>3</octave>
				</pitch>
				<duration>26880</duration>
				<voice>1</voice>
				<type>whole</type>
				<stem>none</stem>
			</note>
		</measure>
		<!--==========================[4,15]=============================-->
		<measure number="15" width="146">
			<note>
				<pitch>
					<step>G</step>
					<octave>3</octave>
				</pitch>
				<duration>13440</duration>
				<voice>1</voice>
				<type>half</type>
				<stem default-y="-40.55">down</stem>
			</note>
			<note>
				<pitch>
					<step>C</step>
					<octave>4</octave>
				</pitch>
				<duration>10080</duration>
				<voice>1</voice>
				<type>quarter</type>
				<dot/>
				<stem default-y="-25.55">down</stem>
				<notations>
					<slur type="start" number="1" placement="above" orientation="over"/>
				</notations>
			</note>
			<note>
				<pitch>
					<step>D</step>
					<octave>4</octave>
				</pitch>
				<duration>3360</duration>
				<voice>1</voice>
				<type>eighth</type>
				<stem default-y="-21.03">down</stem>
			</note>
		</measure>
		<!--==========================[4,16]=============================-->
		<measure number="16" width="157">
			<note>
				<pitch>
					<step>C</step>
					<octave>4</octave>
				</pitch>
				<duration>10080</duration>
				<voice>1</voice>
				<type>quarter</type>
				<dot/>
				<stem default-y="-25.55">down</stem>
			</note>
			<note>
				<pitch>
					<step>B</step>
					<octave>3</octave>
				</pitch>
				<duration>3360</duration>
				<voice>1</voice>
				<type>eighth</type>
				<stem default-y="-31.03">down</stem>
			</note>
			<note>
				<pitch>
					<step>A</step>
					<octave>3</octave>
				</pitch>
				<duration>10080</duration>
				<voice>1</voice>
				<type>quarter</type>
				<dot/>
				<stem default-y="-35.55">down</stem>
			</note>
			<note>
				<pitch>
					<step>G</step>
					<octave>3</octave>
				</pitch>
				<duration>3360</duration>
				<voice>1</voice>
				<type>eighth</type>
				<stem default-y="-41.03">down</stem>
				<notations>
					<slur type="stop" number="1"/>
				</notations>
			</note>
		</measure>
	</part>
</score-partwise>
