<?xml version="1.0" encoding='UTF-8' standalone='no' ?>
<!DOCTYPE score-partwise PUBLIC "-//Recordare//DTD MusicXML 2.0 Partwise//EN" "http://www.musicxml.org/dtds/partwise.dtd">
<score-partwise version="2.0">
 <work>
  <work-title>Once in Royal David's City</work-title>
 </work>
 <identification>
  <encoding>
   <encoding-date>2012-06-28</encoding-date>
   <encoder>jsk9</encoder>
   <software>Sibelius 7.0.0</software>
   <software>Direct export, not from Dolet</software>
   <encoding-description>Sibelius / MusicXML 2.0</encoding-description>
   <supports element="print" type="yes" value="yes" attribute="new-system" />
   <supports element="print" type="yes" value="yes" attribute="new-page" />
   <supports element="accidental" type="yes" />
   <supports element="beam" type="yes" />
   <supports element="stem" type="yes" />
  </encoding>
 </identification>
 <defaults>
  <scaling>
   <millimeters>149.098</millimeters>
   <tenths>955</tenths>
  </scaling>
  <page-layout>
   <page-height>1465</page-height>
   <page-width>955</page-width>
   <page-margins type="both">
    <left-margin>112</left-margin>
    <right-margin>112</right-margin>
    <top-margin>81</top-margin>
    <bottom-margin>81</bottom-margin>
   </page-margins>
  </page-layout>
  <system-layout>
   <system-distance>40</system-distance>
  </system-layout>
  <appearance>
   <line-width type="stem">0.9375</line-width>
   <line-width type="beam">5</line-width>
   <line-width type="staff">0.9375</line-width>
   <line-width type="light barline">1.5625</line-width>
   <line-width type="heavy barline">5</line-width>
   <line-width type="leger">1.5625</line-width>
   <line-width type="ending">1.5625</line-width>
   <line-width type="wedge">1.25</line-width>
   <line-width type="enclosure">0.9375</line-width>
   <line-width type="tuplet bracket">1.25</line-width>
   <line-width type="bracket">5</line-width>
   <line-width type="dashes">1.5625</line-width>
   <line-width type="extend">0.9375</line-width>
   <line-width type="octave shift">1.5625</line-width>
   <line-width type="pedal">1.5625</line-width>
   <line-width type="slur middle">1.5625</line-width>
   <line-width type="slur tip">0.625</line-width>
   <line-width type="tie middle">1.5625</line-width>
   <line-width type="tie tip">0.625</line-width>
   <note-size type="cue">75</note-size>
   <note-size type="grace">60</note-size>
  </appearance>
  <music-font font-family="Opus Std" font-size="17.6825" />
  <lyric-font font-family="Times New Roman" font-size="9.9464" />
  <lyric-language xml:lang="en" />
 </defaults>
 <credit page="1">
  <credit-words default-x="477" default-y="1311" font-family="Times New Roman" font-size="20.031" justify="center" valign="middle">Once in Royal David's City</credit-words>
 </credit>
 <part-list>
  <score-part id="P1">
   <part-name>Piano</part-name>
   <part-name-display>
    <display-text>Piano</display-text>
   </part-name-display>
   <part-abbreviation>Pno.</part-abbreviation>
   <part-abbreviation-display>
    <display-text>Pno.</display-text>
   </part-abbreviation-display>
   <score-instrument id="P1-I1">
    <instrument-name>Piano (2)</instrument-name>
   </score-instrument>
  </score-part>
 </part-list>
 <part id="P1">
  <measure number="0" width="197">
   <print new-page="yes">
    <system-layout>
     <system-margins>
      <left-margin>0</left-margin>
      <right-margin>0</right-margin>
     </system-margins>
     <top-system-distance>163</top-system-distance>
    </system-layout>
   </print>
   <attributes>
    <divisions>256</divisions>
    <key color="#000000">
     <fifths>-1</fifths>
     <mode>major</mode>
    </key>
    <time color="#000000">
     <beats>4</beats>
     <beat-type>4</beat-type>
    </time>
    <staves>1</staves>
    <clef number="1" color="#000000">
     <sign>G</sign>
     <line>2</line>
    </clef>
    <staff-details number="1" print-object="yes" />
   </attributes>
   <note color="#000000" default-x="86">
    <pitch>
     <step>C</step>
     <octave>4</octave>
    </pitch>
    <duration>256</duration>
    <instrument id="P1-I1" />
    <voice>1</voice>
    <type>quarter</type>
    <stem>up</stem>
    <staff>1</staff>
    <lyric default-y="-76" number="1" color="#000000">
     <syllabic>single</syllabic>
     <text>1 Once</text>
    </lyric>
    <lyric default-y="-101" number="2" color="#000000">
     <syllabic>single</syllabic>
     <text>2 He</text>
    </lyric>
    <lyric default-y="-126" number="3" color="#000000">
     <syllabic>begin</syllabic>
     <text>3 Je</text>
    </lyric>
    <lyric default-y="-151" number="4" color="#000000">
     <syllabic>end</syllabic>
     <text>4 And</text>
    </lyric>
   </note>
   <note color="#000000" default-x="142">
    <pitch>
     <step>E</step>
     <octave>4</octave>
    </pitch>
    <duration>256</duration>
    <instrument id="P1-I1" />
    <voice>1</voice>
    <type>quarter</type>
    <stem>up</stem>
    <staff>1</staff>
    <lyric default-y="-76" number="1" color="#000000">
     <syllabic>single</syllabic>
     <text>in</text>
    </lyric>
    <lyric default-y="-101" number="2" color="#000000">
     <syllabic>single</syllabic>
     <text>came</text>
    </lyric>
    <lyric default-y="-126" number="3" color="#000000">
     <syllabic>single</syllabic>
     <text>sus</text>
    </lyric>
    <lyric default-y="-151" number="4" color="#000000">
     <syllabic>single</syllabic>
     <text>our</text>
    </lyric>
   </note>
  </measure>
  <measure number="1" width="289">
   <note color="#000000" default-x="15">
    <pitch>
     <step>F</step>
     <octave>4</octave>
    </pitch>
    <duration>384</duration>
    <instrument id="P1-I1" />
    <voice>1</voice>
    <type>quarter</type>
    <dot />
    <stem>up</stem>
    <staff>1</staff>
    <lyric default-y="-76" number="1" color="#000000">
     <syllabic>begin</syllabic>
     <text>ro</text>
    </lyric>
    <lyric default-y="-101" number="2" color="#000000">
     <syllabic>single</syllabic>
     <text>down</text>
    </lyric>
    <lyric default-y="-126" number="3" color="#000000">
     <syllabic>single</syllabic>
     <text>is</text>
    </lyric>
    <lyric default-y="-151" number="4" color="#000000">
     <syllabic>single</syllabic>
     <text>eyes</text>
    </lyric>
   </note>
   <note color="#000000" default-x="89">
    <pitch>
     <step>F</step>
     <octave>4</octave>
    </pitch>
    <duration>128</duration>
    <instrument id="P1-I1" />
    <voice>1</voice>
    <type>eighth</type>
    <stem>up</stem>
    <staff>1</staff>
    <lyric default-y="-76" number="1" color="#000000">
     <syllabic>end</syllabic>
     <text>yal</text>
    </lyric>
    <lyric default-y="-101" number="2" color="#000000">
     <syllabic>single</syllabic>
     <text>to</text>
    </lyric>
    <lyric default-y="-126" number="3" color="#000000">
     <syllabic>single</syllabic>
     <text>our</text>
    </lyric>
    <lyric default-y="-151" number="4" color="#000000">
     <syllabic>single</syllabic>
     <text>at</text>
    </lyric>
   </note>
   <note color="#000000" default-x="129">
    <pitch>
     <step>F</step>
     <octave>4</octave>
    </pitch>
    <duration>128</duration>
    <instrument id="P1-I1" />
    <voice>1</voice>
    <type>eighth</type>
    <stem>up</stem>
    <staff>1</staff>
    <beam number="1">begin</beam>
    <lyric default-y="-76" number="1" color="#000000">
     <syllabic>begin</syllabic>
     <text>Da</text>
    </lyric>
    <lyric default-y="-101" number="2" color="#000000">
     <syllabic>single</syllabic>
     <text>earth</text>
     <extend />
    </lyric>
    <lyric default-y="-126" number="3" color="#000000">
     <syllabic>begin</syllabic>
     <text>chil</text>
    </lyric>
    <lyric default-y="-151" number="4" color="#000000">
     <syllabic>end</syllabic>
     <text>last</text>
     <extend />
    </lyric>
   </note>
   <note color="#000000" default-x="169">
    <pitch>
     <step>E</step>
     <octave>4</octave>
    </pitch>
    <duration>128</duration>
    <instrument id="P1-I1" />
    <voice>1</voice>
    <type>eighth</type>
    <stem>up</stem>
    <staff>1</staff>
    <beam number="1">end</beam>
   </note>
   <note color="#000000" default-x="209">
    <pitch>
     <step>F</step>
     <octave>4</octave>
    </pitch>
    <duration>128</duration>
    <instrument id="P1-I1" />
    <voice>1</voice>
    <type>eighth</type>
    <stem>up</stem>
    <staff>1</staff>
    <beam number="1">begin</beam>
    <lyric default-y="-76" number="1" color="#000000">
     <syllabic>end</syllabic>
     <text>vid's</text>
     <extend />
    </lyric>
    <lyric default-y="-101" number="2" color="#000000">
     <syllabic>single</syllabic>
     <text>from</text>
     <extend />
    </lyric>
    <lyric default-y="-126" number="3" color="#000000">
     <syllabic>single</syllabic>
     <text>dhood's</text>
     <extend />
    </lyric>
    <lyric default-y="-151" number="4" color="#000000">
     <syllabic>single</syllabic>
     <text>shall</text>
     <extend />
    </lyric>
   </note>
   <note color="#000000" default-x="249">
    <pitch>
     <step>G</step>
     <octave>4</octave>
    </pitch>
    <duration>128</duration>
    <instrument id="P1-I1" />
    <voice>1</voice>
    <type>eighth</type>
    <stem>up</stem>
    <staff>1</staff>
    <beam number="1">end</beam>
   </note>
  </measure>
  <measure number="2" width="243">
   <note color="#000000" default-x="15">
    <pitch>
     <step>G</step>
     <octave>4</octave>
    </pitch>
    <duration>256</duration>
    <instrument id="P1-I1" />
    <voice>1</voice>
    <type>quarter</type>
    <stem>up</stem>
    <staff>1</staff>
    <lyric default-y="-76" number="1" color="#000000">
     <syllabic>begin</syllabic>
     <text>ci</text>
    </lyric>
    <lyric default-y="-101" number="2" color="#000000">
     <syllabic>begin</syllabic>
     <text>hea</text>
    </lyric>
    <lyric default-y="-126" number="3" color="#000000">
     <syllabic>begin</syllabic>
     <text>pat</text>
    </lyric>
    <lyric default-y="-151" number="4" color="#000000">
     <syllabic>end</syllabic>
     <text>see</text>
    </lyric>
   </note>
   <note color="#000000" default-x="70">
    <pitch>
     <step>F</step>
     <octave>4</octave>
    </pitch>
    <duration>256</duration>
    <instrument id="P1-I1" />
    <voice>1</voice>
    <type>quarter</type>
    <stem>up</stem>
    <staff>1</staff>
    <lyric default-y="-76" number="1" color="#000000">
     <syllabic>end</syllabic>
     <text>ty</text>
    </lyric>
    <lyric default-y="-101" number="2" color="#000000">
     <syllabic>end</syllabic>
     <text>ven</text>
    </lyric>
    <lyric default-y="-126" number="3" color="#000000">
     <syllabic>single</syllabic>
     <text>tern,</text>
    </lyric>
    <lyric default-y="-151" number="4" color="#000000">
     <syllabic>single</syllabic>
     <text>him,</text>
    </lyric>
   </note>
   <note color="#000000" default-x="133">
    <pitch>
     <step>F</step>
     <octave>4</octave>
    </pitch>
    <duration>256</duration>
    <instrument id="P1-I1" />
    <voice>1</voice>
    <type>quarter</type>
    <stem>up</stem>
    <staff>1</staff>
    <lyric default-y="-76" number="1" color="#000000">
     <syllabic>single</syllabic>
     <text>stood</text>
    </lyric>
    <lyric default-y="-101" number="2" color="#000000">
     <syllabic>single</syllabic>
     <text>who</text>
    </lyric>
    <lyric default-y="-126" number="3" color="#000000">
     <syllabic>single</syllabic>
     <text>day</text>
    </lyric>
    <lyric default-y="-151" number="4" color="#000000">
     <syllabic>single</syllabic>
     <text>through</text>
    </lyric>
   </note>
   <note color="#000000" default-x="188">
    <pitch>
     <step>A</step>
     <octave>4</octave>
    </pitch>
    <duration>256</duration>
    <instrument id="P1-I1" />
    <voice>1</voice>
    <type>quarter</type>
    <stem>up</stem>
    <staff>1</staff>
    <lyric default-y="-76" number="1" color="#000000">
     <syllabic>single</syllabic>
     <text>a</text>
    </lyric>
    <lyric default-y="-101" number="2" color="#000000">
     <syllabic>single</syllabic>
     <text>is</text>
    </lyric>
    <lyric default-y="-126" number="3" color="#000000">
     <syllabic>single</syllabic>
     <text>by</text>
    </lyric>
    <lyric default-y="-151" number="4" color="#000000">
     <syllabic>single</syllabic>
     <text>his</text>
    </lyric>
   </note>
  </measure>
  <measure number="3" width="299">
   <print new-system="yes">
    <system-layout>
     <system-margins>
      <left-margin>0</left-margin>
      <right-margin>0</right-margin>
     </system-margins>
     <system-distance>206</system-distance>
    </system-layout>
   </print>
   <attributes>
    <staff-details number="1" print-object="yes" />
   </attributes>
   <note color="#000000" default-x="68">
    <pitch>
     <step>C</step>
     <octave>5</octave>
    </pitch>
    <duration>384</duration>
    <instrument id="P1-I1" />
    <voice>1</voice>
    <type>quarter</type>
    <dot />
    <stem>down</stem>
    <staff>1</staff>
    <lyric default-y="-76" number="1" color="#000000">
     <syllabic>begin</syllabic>
     <text>low</text>
    </lyric>
    <lyric default-y="-101" number="2" color="#000000">
     <syllabic>single</syllabic>
     <text>God</text>
    </lyric>
    <lyric default-y="-126" number="3" color="#000000">
     <syllabic>single</syllabic>
     <text>day</text>
    </lyric>
    <lyric default-y="-151" number="4" color="#000000">
     <syllabic>single</syllabic>
     <text>own</text>
    </lyric>
   </note>
   <note color="#000000" default-x="131">
    <pitch>
     <step>A</step>
     <octave>4</octave>
    </pitch>
    <duration>128</duration>
    <instrument id="P1-I1" />
    <voice>1</voice>
    <type>eighth</type>
    <stem>up</stem>
    <staff>1</staff>
    <lyric default-y="-76" number="1" color="#000000">
     <syllabic>end</syllabic>
     <text>ly</text>
    </lyric>
    <lyric default-y="-101" number="2" color="#000000">
     <syllabic>single</syllabic>
     <text>and</text>
    </lyric>
    <lyric default-y="-126" number="3" color="#000000">
     <syllabic>single</syllabic>
     <text>like</text>
    </lyric>
    <lyric default-y="-151" number="4" color="#000000">
     <syllabic>begin</syllabic>
     <text>re</text>
    </lyric>
   </note>
   <note color="#000000" default-x="165">
    <pitch>
     <step>A</step>
     <octave>4</octave>
    </pitch>
    <duration>128</duration>
    <instrument id="P1-I1" />
    <voice>1</voice>
    <type>eighth</type>
    <stem>up</stem>
    <staff>1</staff>
    <beam number="1">begin</beam>
    <lyric default-y="-76" number="1" color="#000000">
     <syllabic>begin</syllabic>
     <text>cat</text>
    </lyric>
    <lyric default-y="-101" number="2" color="#000000">
     <syllabic>single</syllabic>
     <text>Lord</text>
     <extend />
    </lyric>
    <lyric default-y="-126" number="3" color="#000000">
     <syllabic>end</syllabic>
     <text>us</text>
     <extend />
    </lyric>
    <lyric default-y="-151" number="4" color="#000000">
     <syllabic>begin</syllabic>
     <text>deem</text>
    </lyric>
   </note>
   <note color="#000000" default-x="198">
    <pitch>
     <step>G</step>
     <octave>4</octave>
    </pitch>
    <duration>128</duration>
    <instrument id="P1-I1" />
    <voice>1</voice>
    <type>eighth</type>
    <stem>up</stem>
    <staff>1</staff>
    <beam number="1">end</beam>
   </note>
   <note color="#000000" default-x="231">
    <pitch>
     <step>F</step>
     <octave>4</octave>
    </pitch>
    <duration>128</duration>
    <instrument id="P1-I1" />
    <voice>1</voice>
    <type>eighth</type>
    <stem>up</stem>
    <staff>1</staff>
    <beam number="1">begin</beam>
    <lyric default-y="-76" number="1" color="#000000">
     <syllabic>end</syllabic>
     <text>tle</text>
     <extend />
    </lyric>
    <lyric default-y="-101" number="2" color="#000000">
     <syllabic>single</syllabic>
     <text>of</text>
     <extend />
    </lyric>
    <lyric default-y="-126" number="3" color="#000000">
     <syllabic>end</syllabic>
     <text>he</text>
     <extend />
    </lyric>
    <lyric default-y="-151" number="4" color="#000000">
     <syllabic>single</syllabic>
     <text>ing</text>
     <extend />
    </lyric>
   </note>
   <note color="#000000" default-x="265">
    <pitch>
     <step>E</step>
     <octave>4</octave>
    </pitch>
    <duration>128</duration>
    <instrument id="P1-I1" />
    <voice>1</voice>
    <type>eighth</type>
    <stem>up</stem>
    <staff>1</staff>
    <beam number="1">end</beam>
   </note>
  </measure>
  <measure number="4" width="186">
   <note color="#000000" default-x="15">
    <pitch>
     <step>C</step>
     <octave>4</octave>
    </pitch>
    <duration>512</duration>
    <instrument id="P1-I1" />
    <voice>1</voice>
    <type>half</type>
    <stem>up</stem>
    <staff>1</staff>
    <lyric default-y="-76" number="1" color="#000000">
     <syllabic>single</syllabic>
     <text>shed,</text>
    </lyric>
    <lyric default-y="-101" number="2" color="#000000">
     <syllabic>single</syllabic>
     <text>all,</text>
    </lyric>
    <lyric default-y="-126" number="3" color="#000000">
     <syllabic>single</syllabic>
     <text>grew;</text>
    </lyric>
    <lyric default-y="-151" number="4" color="#000000">
     <syllabic>single</syllabic>
     <text>love;</text>
    </lyric>
   </note>
   <note color="#000000" default-x="15">
    <chord />
    <pitch>
     <step>F</step>
     <octave>4</octave>
    </pitch>
    <duration>512</duration>
    <instrument id="P1-I1" />
    <type>half</type>
    <staff>1</staff>
   </note>
   <note color="#000000" default-x="93">
    <pitch>
     <step>C</step>
     <octave>4</octave>
    </pitch>
    <duration>256</duration>
    <instrument id="P1-I1" />
    <voice>1</voice>
    <type>quarter</type>
    <stem>up</stem>
    <staff>1</staff>
    <lyric default-y="-76" number="1" color="#000000">
     <syllabic>single</syllabic>
     <text>where</text>
    </lyric>
    <lyric default-y="-101" number="2" color="#000000">
     <syllabic>single</syllabic>
     <text>and</text>
    </lyric>
    <lyric default-y="-126" number="3" color="#000000">
     <syllabic>single</syllabic>
     <text>he</text>
    </lyric>
    <lyric default-y="-151" number="4" color="#000000">
     <syllabic>single</syllabic>
     <text>for</text>
    </lyric>
   </note>
   <note color="#000000" default-x="140">
    <pitch>
     <step>E</step>
     <octave>4</octave>
    </pitch>
    <duration>256</duration>
    <instrument id="P1-I1" />
    <voice>1</voice>
    <type>quarter</type>
    <stem>up</stem>
    <staff>1</staff>
    <lyric default-y="-76" number="1" color="#000000">
     <syllabic>single</syllabic>
     <text>a</text>
    </lyric>
    <lyric default-y="-101" number="2" color="#000000">
     <syllabic>single</syllabic>
     <text>his</text>
    </lyric>
    <lyric default-y="-126" number="3" color="#000000">
     <syllabic>single</syllabic>
     <text>was</text>
    </lyric>
    <lyric default-y="-151" number="4" color="#000000">
     <syllabic>single</syllabic>
     <text>that</text>
    </lyric>
   </note>
  </measure>
  <measure number="5" width="245">
   <note color="#000000" default-x="15">
    <pitch>
     <step>F</step>
     <octave>4</octave>
    </pitch>
    <duration>384</duration>
    <instrument id="P1-I1" />
    <voice>1</voice>
    <type>quarter</type>
    <dot />
    <stem>up</stem>
    <staff>1</staff>
    <lyric default-y="-76" number="1" color="#000000">
     <syllabic>begin</syllabic>
     <text>mo</text>
    </lyric>
    <lyric default-y="-101" number="2" color="#000000">
     <syllabic>begin</syllabic>
     <text>shel</text>
    </lyric>
    <lyric default-y="-126" number="3" color="#000000">
     <syllabic>begin</syllabic>
     <text>lit</text>
    </lyric>
    <lyric default-y="-151" number="4" color="#000000">
     <syllabic>end</syllabic>
     <text>child,</text>
    </lyric>
   </note>
   <note color="#000000" default-x="77">
    <pitch>
     <step>F</step>
     <octave>4</octave>
    </pitch>
    <duration>128</duration>
    <instrument id="P1-I1" />
    <voice>1</voice>
    <type>eighth</type>
    <stem>up</stem>
    <staff>1</staff>
    <lyric default-y="-76" number="1" color="#000000">
     <syllabic>end</syllabic>
     <text>ther</text>
    </lyric>
    <lyric default-y="-101" number="2" color="#000000">
     <syllabic>end</syllabic>
     <text>ter</text>
    </lyric>
    <lyric default-y="-126" number="3" color="#000000">
     <syllabic>single</syllabic>
     <text>tle,</text>
    </lyric>
    <lyric default-y="-151" number="4" color="#000000">
     <syllabic>single</syllabic>
     <text>so</text>
    </lyric>
   </note>
   <note color="#000000" default-x="110">
    <pitch>
     <step>F</step>
     <octave>4</octave>
    </pitch>
    <duration>128</duration>
    <instrument id="P1-I1" />
    <voice>1</voice>
    <type>eighth</type>
    <stem>up</stem>
    <staff>1</staff>
    <beam number="1">begin</beam>
    <lyric default-y="-76" number="1" color="#000000">
     <syllabic>single</syllabic>
     <text>laid</text>
     <extend />
    </lyric>
    <lyric default-y="-101" number="2" color="#000000">
     <syllabic>single</syllabic>
     <text>was</text>
     <extend />
    </lyric>
    <lyric default-y="-126" number="3" color="#000000">
     <syllabic>single</syllabic>
     <text>weak,</text>
     <extend />
    </lyric>
    <lyric default-y="-151" number="4" color="#000000">
     <syllabic>single</syllabic>
     <text>dear</text>
     <extend />
    </lyric>
   </note>
   <note color="#000000" default-x="144">
    <pitch>
     <step>E</step>
     <octave>4</octave>
    </pitch>
    <duration>128</duration>
    <instrument id="P1-I1" />
    <voice>1</voice>
    <type>eighth</type>
    <stem>up</stem>
    <staff>1</staff>
    <beam number="1">end</beam>
   </note>
   <note color="#000000" default-x="178">
    <pitch>
     <step>F</step>
     <octave>4</octave>
    </pitch>
    <duration>128</duration>
    <instrument id="P1-I1" />
    <voice>1</voice>
    <type>eighth</type>
    <stem>up</stem>
    <staff>1</staff>
    <beam number="1">begin</beam>
    <lyric default-y="-76" number="1" color="#000000">
     <syllabic>single</syllabic>
     <text>her</text>
     <extend />
    </lyric>
    <lyric default-y="-101" number="2" color="#000000">
     <syllabic>single</syllabic>
     <text>a</text>
     <extend />
    </lyric>
    <lyric default-y="-126" number="3" color="#000000">
     <syllabic>single</syllabic>
     <text>and</text>
     <extend />
    </lyric>
    <lyric default-y="-151" number="4" color="#000000">
     <syllabic>single</syllabic>
     <text>and</text>
     <extend />
    </lyric>
   </note>
   <note color="#000000" default-x="211">
    <pitch>
     <step>G</step>
     <octave>4</octave>
    </pitch>
    <duration>128</duration>
    <instrument id="P1-I1" />
    <voice>1</voice>
    <type>eighth</type>
    <stem>up</stem>
    <staff>1</staff>
    <beam number="1">end</beam>
   </note>
  </measure>
  <measure number="6" width="259">
   <print new-system="yes">
    <system-layout>
     <system-margins>
      <left-margin>0</left-margin>
      <right-margin>0</right-margin>
     </system-margins>
     <system-distance>205</system-distance>
    </system-layout>
   </print>
   <attributes>
    <staff-details number="1" print-object="yes" />
   </attributes>
   <note color="#000000" default-x="68">
    <pitch>
     <step>G</step>
     <octave>4</octave>
    </pitch>
    <duration>256</duration>
    <instrument id="P1-I1" />
    <voice>1</voice>
    <type>quarter</type>
    <stem>up</stem>
    <staff>1</staff>
    <lyric default-y="-73" number="1" color="#000000">
     <syllabic>begin</syllabic>
     <text>ba</text>
    </lyric>
    <lyric default-y="-98" number="2" color="#000000">
     <syllabic>begin</syllabic>
     <text>sta</text>
    </lyric>
    <lyric default-y="-123" number="3" color="#000000">
     <syllabic>begin</syllabic>
     <text>help</text>
    </lyric>
    <lyric default-y="-148" number="4" color="#000000">
     <syllabic>middle</syllabic>
     <text>gen</text>
    </lyric>
   </note>
   <note color="#000000" default-x="119">
    <pitch>
     <step>F</step>
     <octave>4</octave>
    </pitch>
    <duration>256</duration>
    <instrument id="P1-I1" />
    <voice>1</voice>
    <type>quarter</type>
    <stem>up</stem>
    <staff>1</staff>
    <lyric default-y="-73" number="1" color="#000000">
     <syllabic>end</syllabic>
     <text>by</text>
    </lyric>
    <lyric default-y="-98" number="2" color="#000000">
     <syllabic>end</syllabic>
     <text>ble,</text>
    </lyric>
    <lyric default-y="-123" number="3" color="#000000">
     <syllabic>end</syllabic>
     <text>less,</text>
    </lyric>
    <lyric default-y="-148" number="4" color="#000000">
     <syllabic>single</syllabic>
     <text>tle,</text>
    </lyric>
   </note>
   <note color="#000000" default-x="170">
    <pitch>
     <step>F</step>
     <octave>4</octave>
    </pitch>
    <duration>256</duration>
    <instrument id="P1-I1" />
    <voice>1</voice>
    <type>quarter</type>
    <stem>up</stem>
    <staff>1</staff>
    <lyric default-y="-73" number="1" color="#000000">
     <syllabic>single</syllabic>
     <text>in</text>
    </lyric>
    <lyric default-y="-98" number="2" color="#000000">
     <syllabic>single</syllabic>
     <text>and</text>
    </lyric>
    <lyric default-y="-123" number="3" color="#000000">
     <syllabic>single</syllabic>
     <text>tears</text>
    </lyric>
    <lyric default-y="-148" number="4" color="#000000">
     <syllabic>single</syllabic>
     <text>is</text>
    </lyric>
   </note>
   <note color="#000000" default-x="221">
    <pitch>
     <step>A</step>
     <octave>4</octave>
    </pitch>
    <duration>256</duration>
    <instrument id="P1-I1" />
    <voice>1</voice>
    <type>quarter</type>
    <stem>up</stem>
    <staff>1</staff>
    <lyric default-y="-73" number="1" color="#000000">
     <syllabic>single</syllabic>
     <text>a</text>
    </lyric>
    <lyric default-y="-98" number="2" color="#000000">
     <syllabic>single</syllabic>
     <text>his</text>
    </lyric>
    <lyric default-y="-123" number="3" color="#000000">
     <syllabic>single</syllabic>
     <text>and</text>
    </lyric>
    <lyric default-y="-148" number="4" color="#000000">
     <syllabic>single</syllabic>
     <text>our</text>
    </lyric>
   </note>
  </measure>
  <measure number="7" width="267">
   <note color="#000000" default-x="15">
    <pitch>
     <step>C</step>
     <octave>5</octave>
    </pitch>
    <duration>384</duration>
    <instrument id="P1-I1" />
    <voice>1</voice>
    <type>quarter</type>
    <dot />
    <stem>down</stem>
    <staff>1</staff>
    <lyric default-y="-73" number="1" color="#000000">
     <syllabic>begin</syllabic>
     <text>man</text>
    </lyric>
    <lyric default-y="-98" number="2" color="#000000">
     <syllabic>begin</syllabic>
     <text>cra</text>
    </lyric>
    <lyric default-y="-123" number="3" color="#000000">
     <syllabic>single</syllabic>
     <text>smiles</text>
    </lyric>
    <lyric default-y="-148" number="4" color="#000000">
     <syllabic>single</syllabic>
     <text>Lord</text>
    </lyric>
   </note>
   <note color="#000000" default-x="83">
    <pitch>
     <step>A</step>
     <octave>4</octave>
    </pitch>
    <duration>128</duration>
    <instrument id="P1-I1" />
    <voice>1</voice>
    <type>eighth</type>
    <stem>up</stem>
    <staff>1</staff>
    <lyric default-y="-73" number="1" color="#000000">
     <syllabic>end</syllabic>
     <text>ger</text>
    </lyric>
    <lyric default-y="-98" number="2" color="#000000">
     <syllabic>end</syllabic>
     <text>dle</text>
    </lyric>
    <lyric default-y="-123" number="3" color="#000000">
     <syllabic>single</syllabic>
     <text>like</text>
    </lyric>
    <lyric default-y="-148" number="4" color="#000000">
     <syllabic>single</syllabic>
     <text>in</text>
    </lyric>
   </note>
   <note color="#000000" default-x="120">
    <pitch>
     <step>A</step>
     <octave>4</octave>
    </pitch>
    <duration>128</duration>
    <instrument id="P1-I1" />
    <voice>1</voice>
    <type>eighth</type>
    <stem>up</stem>
    <staff>1</staff>
    <beam number="1">begin</beam>
    <lyric default-y="-73" number="1" color="#000000">
     <syllabic>single</syllabic>
     <text>for</text>
     <extend />
    </lyric>
    <lyric default-y="-98" number="2" color="#000000">
     <syllabic>single</syllabic>
     <text>was</text>
     <extend />
    </lyric>
    <lyric default-y="-123" number="3" color="#000000">
     <syllabic>single</syllabic>
     <text>us</text>
     <extend />
    </lyric>
    <lyric default-y="-148" number="4" color="#000000">
     <syllabic>single</syllabic>
     <text>heaven</text>
     <extend />
    </lyric>
   </note>
   <note color="#000000" default-x="157">
    <pitch>
     <step>G</step>
     <octave>4</octave>
    </pitch>
    <duration>128</duration>
    <instrument id="P1-I1" />
    <voice>1</voice>
    <type>eighth</type>
    <stem>up</stem>
    <staff>1</staff>
    <beam number="1">end</beam>
   </note>
   <note color="#000000" default-x="194">
    <pitch>
     <step>F</step>
     <octave>4</octave>
    </pitch>
    <duration>128</duration>
    <instrument id="P1-I1" />
    <voice>1</voice>
    <type>eighth</type>
    <stem>up</stem>
    <staff>1</staff>
    <beam number="1">begin</beam>
    <lyric default-y="-73" number="1" color="#000000">
     <syllabic>single</syllabic>
     <text>his</text>
     <extend />
    </lyric>
    <lyric default-y="-98" number="2" color="#000000">
     <syllabic>single</syllabic>
     <text>a</text>
     <extend />
    </lyric>
    <lyric default-y="-123" number="3" color="#000000">
     <syllabic>single</syllabic>
     <text>he</text>
     <extend />
    </lyric>
    <lyric default-y="-148" number="4" color="#000000">
     <syllabic>begin</syllabic>
     <text>a</text>
    </lyric>
   </note>
   <note color="#000000" default-x="231">
    <pitch>
     <step>E</step>
     <octave>4</octave>
    </pitch>
    <duration>128</duration>
    <instrument id="P1-I1" />
    <voice>1</voice>
    <type>eighth</type>
    <stem>up</stem>
    <staff>1</staff>
    <beam number="1">end</beam>
   </note>
  </measure>
  <measure number="8" width="203">
   <note color="#000000" default-x="15">
    <pitch>
     <step>F</step>
     <octave>4</octave>
    </pitch>
    <duration>512</duration>
    <instrument id="P1-I1" />
    <voice>1</voice>
    <type>half</type>
    <stem>up</stem>
    <staff>1</staff>
    <lyric default-y="-73" number="1" color="#000000">
     <syllabic>single</syllabic>
     <text>bed:</text>
    </lyric>
    <lyric default-y="-98" number="2" color="#000000">
     <syllabic>single</syllabic>
     <text>stall:</text>
    </lyric>
    <lyric default-y="-123" number="3" color="#000000">
     <syllabic>end</syllabic>
     <text>knew:</text>
    </lyric>
    <lyric default-y="-148" number="4" color="#000000">
     <syllabic>single</syllabic>
     <text>bove:</text>
    </lyric>
   </note>
   <note color="#000000" default-x="101">
    <pitch>
     <step>D</step>
     <octave>5</octave>
    </pitch>
    <duration>256</duration>
    <instrument id="P1-I1" />
    <voice>1</voice>
    <type>quarter</type>
    <stem>down</stem>
    <staff>1</staff>
    <lyric default-y="-73" number="1" color="#000000">
     <syllabic>begin</syllabic>
     <text>Ma</text>
    </lyric>
    <lyric default-y="-98" number="2" color="#000000">
     <syllabic>single</syllabic>
     <text>with</text>
    </lyric>
    <lyric default-y="-123" number="3" color="#000000">
     <syllabic>single</syllabic>
     <text>and</text>
    </lyric>
    <lyric default-y="-148" number="4" color="#000000">
     <syllabic>single</syllabic>
     <text>and</text>
    </lyric>
   </note>
   <note color="#000000" default-x="152">
    <pitch>
     <step>D</step>
     <octave>5</octave>
    </pitch>
    <duration>256</duration>
    <instrument id="P1-I1" />
    <voice>1</voice>
    <type>quarter</type>
    <stem>down</stem>
    <staff>1</staff>
    <lyric default-y="-73" number="1" color="#000000">
     <syllabic>end</syllabic>
     <text>ry</text>
    </lyric>
    <lyric default-y="-98" number="2" color="#000000">
     <syllabic>single</syllabic>
     <text>the</text>
    </lyric>
    <lyric default-y="-123" number="3" color="#000000">
     <syllabic>single</syllabic>
     <text>he</text>
    </lyric>
    <lyric default-y="-148" number="4" color="#000000">
     <syllabic>single</syllabic>
     <text>he</text>
    </lyric>
   </note>
  </measure>
  <measure number="9" width="395">
   <print new-system="yes">
    <system-layout>
     <system-margins>
      <left-margin>0</left-margin>
      <right-margin>0</right-margin>
     </system-margins>
     <system-distance>206</system-distance>
    </system-layout>
   </print>
   <attributes>
    <staff-details number="1" print-object="yes" />
   </attributes>
   <note color="#000000" default-x="68">
    <pitch>
     <step>C</step>
     <octave>5</octave>
    </pitch>
    <duration>384</duration>
    <instrument id="P1-I1" />
    <voice>1</voice>
    <type>quarter</type>
    <dot />
    <stem>down</stem>
    <staff>1</staff>
    <lyric default-y="-75" number="1" color="#000000">
     <syllabic>single</syllabic>
     <text>was</text>
    </lyric>
    <lyric default-y="-100" number="2" color="#000000">
     <syllabic>single</syllabic>
     <text>poor</text>
    </lyric>
    <lyric default-y="-125" number="3" color="#000000">
     <syllabic>single</syllabic>
     <text>feels</text>
    </lyric>
    <lyric default-y="-150" number="4" color="#000000">
     <syllabic>single</syllabic>
     <text>leads</text>
    </lyric>
   </note>
   <note color="#000000" default-x="176">
    <pitch>
     <step>F</step>
     <octave>4</octave>
    </pitch>
    <duration>128</duration>
    <instrument id="P1-I1" />
    <voice>1</voice>
    <type>eighth</type>
    <stem>up</stem>
    <staff>1</staff>
    <lyric default-y="-75" number="1" color="#000000">
     <syllabic>single</syllabic>
     <text>that</text>
    </lyric>
    <lyric default-y="-100" number="2" color="#000000">
     <syllabic>single</syllabic>
     <text>and</text>
    </lyric>
    <lyric default-y="-125" number="3" color="#000000">
     <syllabic>single</syllabic>
     <text>for</text>
    </lyric>
    <lyric default-y="-150" number="4" color="#000000">
     <syllabic>single</syllabic>
     <text>his</text>
    </lyric>
   </note>
   <note color="#000000" default-x="234">
    <pitch>
     <step>B</step>
     <alter>-1</alter>
     <octave>4</octave>
    </pitch>
    <duration>256</duration>
    <instrument id="P1-I1" />
    <voice>1</voice>
    <type>quarter</type>
    <stem>down</stem>
    <staff>1</staff>
    <lyric default-y="-75" number="1" color="#000000">
     <syllabic>begin</syllabic>
     <text>mo</text>
    </lyric>
    <lyric default-y="-100" number="2" color="#000000">
     <syllabic>single</syllabic>
     <text>meek</text>
    </lyric>
    <lyric default-y="-125" number="3" color="#000000">
     <syllabic>single</syllabic>
     <text>all</text>
    </lyric>
    <lyric default-y="-150" number="4" color="#000000">
     <syllabic>begin</syllabic>
     <text>chil</text>
    </lyric>
   </note>
   <note color="#000000" default-x="315">
    <pitch>
     <step>B</step>
     <alter>-1</alter>
     <octave>4</octave>
    </pitch>
    <duration>256</duration>
    <instrument id="P1-I1" />
    <voice>1</voice>
    <type>quarter</type>
    <stem>down</stem>
    <staff>1</staff>
    <lyric default-y="-75" number="1" color="#000000">
     <syllabic>end</syllabic>
     <text>ther</text>
    </lyric>
    <lyric default-y="-100" number="2" color="#000000">
     <syllabic>single</syllabic>
     <text>and</text>
    </lyric>
    <lyric default-y="-125" number="3" color="#000000">
     <syllabic>end</syllabic>
     <text>our</text>
    </lyric>
    <lyric default-y="-150" number="4" color="#000000">
     <syllabic>single</syllabic>
     <text>dren</text>
    </lyric>
   </note>
  </measure>
  <measure number="10" width="335">
   <note color="#000000" default-x="15">
    <pitch>
     <step>A</step>
     <octave>4</octave>
    </pitch>
    <duration>256</duration>
    <tie type="start" />
    <instrument id="P1-I1" />
    <voice>1</voice>
    <type>quarter</type>
    <stem>up</stem>
    <staff>1</staff>
    <notations>
     <tied type="start" />
    </notations>
    <lyric default-y="-75" number="1" color="#000000">
     <syllabic>single</syllabic>
     <text>mild,</text>
     <extend />
    </lyric>
    <lyric default-y="-100" number="2" color="#000000">
     <syllabic>begin</syllabic>
     <text>low</text>
    </lyric>
    <lyric default-y="-125" number="3" color="#000000">
     <syllabic>begin</syllabic>
     <text>sad</text>
    </lyric>
    <lyric default-y="-150" number="4" color="#000000">
     <syllabic>end</syllabic>
     <text>on</text>
     <extend />
    </lyric>
   </note>
   <note color="#000000" default-x="95">
    <pitch>
     <step>A</step>
     <octave>4</octave>
    </pitch>
    <duration>256</duration>
    <tie type="stop" />
    <instrument id="P1-I1" />
    <voice>1</voice>
    <type>quarter</type>
    <stem>up</stem>
    <staff>1</staff>
    <notations>
     <tied type="stop" />
    </notations>
    <lyric default-y="-100" number="1" color="#000000">
     <syllabic>end</syllabic>
     <text>ly</text>
    </lyric>
    <lyric default-y="-125" number="2" color="#000000">
     <syllabic>single</syllabic>
     <text>ness,</text>
    </lyric>
   </note>
   <note color="#000000" default-x="175">
    <pitch>
     <step>D</step>
     <octave>5</octave>
    </pitch>
    <duration>256</duration>
    <instrument id="P1-I1" />
    <voice>1</voice>
    <type>quarter</type>
    <stem>down</stem>
    <staff>1</staff>
    <lyric default-y="-75" number="1" color="#000000">
     <syllabic>begin</syllabic>
     <text>Je</text>
    </lyric>
    <lyric default-y="-100" number="2" color="#000000">
     <syllabic>single</syllabic>
     <text>lived</text>
    </lyric>
    <lyric default-y="-125" number="3" color="#000000">
     <syllabic>single</syllabic>
     <text>and</text>
    </lyric>
    <lyric default-y="-150" number="4" color="#000000">
     <syllabic>single</syllabic>
     <text>to</text>
    </lyric>
   </note>
   <note color="#000000" default-x="255">
    <pitch>
     <step>D</step>
     <octave>5</octave>
    </pitch>
    <duration>256</duration>
    <instrument id="P1-I1" />
    <voice>1</voice>
    <type>quarter</type>
    <stem>down</stem>
    <staff>1</staff>
    <lyric default-y="-75" number="1" color="#000000">
     <syllabic>end</syllabic>
     <text>sus</text>
    </lyric>
    <lyric default-y="-100" number="2" color="#000000">
     <syllabic>single</syllabic>
     <text>on</text>
    </lyric>
    <lyric default-y="-125" number="3" color="#000000">
     <syllabic>single</syllabic>
     <text>he</text>
    </lyric>
    <lyric default-y="-150" number="4" color="#000000">
     <syllabic>single</syllabic>
     <text>the</text>
    </lyric>
   </note>
  </measure>
  <measure number="11" width="519">
   <print new-system="yes">
    <system-layout>
     <system-margins>
      <left-margin>0</left-margin>
      <right-margin>0</right-margin>
     </system-margins>
     <system-distance>206</system-distance>
    </system-layout>
   </print>
   <attributes>
    <staff-details number="1" print-object="yes" />
   </attributes>
   <note color="#000000" default-x="68">
    <pitch>
     <step>C</step>
     <octave>5</octave>
    </pitch>
    <duration>384</duration>
    <instrument id="P1-I1" />
    <voice>1</voice>
    <type>quarter</type>
    <dot />
    <stem>down</stem>
    <staff>1</staff>
    <lyric default-y="-73" number="1" color="#000000">
     <syllabic>single</syllabic>
     <text>Christ</text>
    </lyric>
    <lyric default-y="-98" number="2" color="#000000">
     <syllabic>single</syllabic>
     <text>earth,</text>
    </lyric>
    <lyric default-y="-123" number="3" color="#000000">
     <syllabic>single</syllabic>
     <text>shares</text>
    </lyric>
    <lyric default-y="-148" number="4" color="#000000">
     <syllabic>single</syllabic>
     <text>place</text>
    </lyric>
   </note>
   <note color="#000000" default-x="190">
    <pitch>
     <step>A</step>
     <octave>4</octave>
    </pitch>
    <duration>128</duration>
    <instrument id="P1-I1" />
    <voice>1</voice>
    <type>eighth</type>
    <stem>up</stem>
    <staff>1</staff>
    <lyric default-y="-73" number="1" color="#000000">
     <syllabic>single</syllabic>
     <text>her</text>
    </lyric>
    <lyric default-y="-98" number="2" color="#000000">
     <syllabic>single</syllabic>
     <text>our</text>
    </lyric>
    <lyric default-y="-123" number="3" color="#000000">
     <syllabic>single</syllabic>
     <text>in</text>
    </lyric>
    <lyric default-y="-148" number="4" color="#000000">
     <syllabic>single</syllabic>
     <text>where</text>
    </lyric>
   </note>
   <note color="#000000" default-x="256">
    <pitch>
     <step>A</step>
     <octave>4</octave>
    </pitch>
    <duration>128</duration>
    <instrument id="P1-I1" />
    <voice>1</voice>
    <type>eighth</type>
    <stem>up</stem>
    <staff>1</staff>
    <beam number="1">begin</beam>
    <lyric default-y="-73" number="1" color="#000000">
     <syllabic>begin</syllabic>
     <text>lit</text>
    </lyric>
    <lyric default-y="-98" number="2" color="#000000">
     <syllabic>begin</syllabic>
     <text>Sa</text>
    </lyric>
    <lyric default-y="-123" number="3" color="#000000">
     <syllabic>single</syllabic>
     <text>all</text>
     <extend />
    </lyric>
    <lyric default-y="-148" number="4" color="#000000">
     <syllabic>single</syllabic>
     <text>he</text>
     <extend />
    </lyric>
   </note>
   <note color="#000000" default-x="322">
    <pitch>
     <step>G</step>
     <octave>4</octave>
    </pitch>
    <duration>128</duration>
    <instrument id="P1-I1" />
    <voice>1</voice>
    <type>eighth</type>
    <stem>up</stem>
    <staff>1</staff>
    <beam number="1">end</beam>
   </note>
   <note color="#000000" default-x="387">
    <pitch>
     <step>F</step>
     <octave>4</octave>
    </pitch>
    <duration>128</duration>
    <instrument id="P1-I1" />
    <voice>1</voice>
    <type>eighth</type>
    <stem>up</stem>
    <staff>1</staff>
    <beam number="1">begin</beam>
    <lyric default-y="-73" number="1" color="#000000">
     <syllabic>end</syllabic>
     <text>tle</text>
     <extend />
    </lyric>
    <lyric default-y="-98" number="2" color="#000000">
     <syllabic>end</syllabic>
     <text>vior</text>
     <extend />
    </lyric>
    <lyric default-y="-123" number="3" color="#000000">
     <syllabic>single</syllabic>
     <text>our</text>
     <extend />
    </lyric>
    <lyric default-y="-148" number="4" color="#000000">
     <syllabic>single</syllabic>
     <text>has</text>
     <extend />
    </lyric>
   </note>
   <note color="#000000" default-x="453">
    <pitch>
     <step>E</step>
     <octave>4</octave>
    </pitch>
    <duration>128</duration>
    <instrument id="P1-I1" />
    <voice>1</voice>
    <type>eighth</type>
    <stem>up</stem>
    <staff>1</staff>
    <beam number="1">end</beam>
   </note>
  </measure>
  <measure number="12" width="211">
   <note color="#000000" default-x="15">
    <pitch>
     <step>F</step>
     <octave>4</octave>
    </pitch>
    <duration>256</duration>
    <tie type="start" />
    <instrument id="P1-I1" />
    <voice>1</voice>
    <type>quarter</type>
    <stem>up</stem>
    <staff>1</staff>
    <notations>
     <tied type="start" />
    </notations>
    <lyric default-y="-73" number="1" color="#000000">
     <syllabic>single</syllabic>
     <text>child.</text>
    </lyric>
    <lyric default-y="-98" number="2" color="#000000">
     <syllabic>begin</syllabic>
     <text>ho</text>
    </lyric>
    <lyric default-y="-123" number="3" color="#000000">
     <syllabic>begin</syllabic>
     <text>glad</text>
    </lyric>
    <lyric default-y="-148" number="4" color="#000000">
     <syllabic>end</syllabic>
     <text>gone.</text>
    </lyric>
   </note>
   <note color="#000000" default-x="105">
    <pitch>
     <step>F</step>
     <octave>4</octave>
    </pitch>
    <duration>256</duration>
    <tie type="stop" />
    <instrument id="P1-I1" />
    <voice>1</voice>
    <type>quarter</type>
    <stem>up</stem>
    <staff>1</staff>
    <notations>
     <tied type="stop" />
    </notations>
    <lyric default-y="-98" number="1" color="#000000">
     <syllabic>end</syllabic>
     <text>ly.</text>
    </lyric>
    <lyric default-y="-123" number="2" color="#000000">
     <syllabic>single</syllabic>
     <text>ness.</text>
    </lyric>
   </note>
   <barline>
    <bar-style>light-heavy</bar-style>
   </barline>
  </measure>
 </part>
</score-partwise>
