<?xml version="1.0" encoding='UTF-8' standalone='no' ?>
<!DOCTYPE score-partwise PUBLIC "-//Recordare//DTD MusicXML 2.0 Partwise//EN" "http://www.musicxml.org/dtds/partwise.dtd">
<score-partwise version="2.0">
 <work>
  <work-title>For All the Saints</work-title>
 </work>
 <identification>
  <encoding>
   <encoding-date>2012-06-27</encoding-date>
   <encoder>jsk9</encoder>
   <software>Sibelius 7.0.0</software>
   <software>Direct export, not from Dolet</software>
   <encoding-description>Sibelius / MusicXML 2.0</encoding-description>
   <supports element="print" type="yes" value="yes" attribute="new-system" />
   <supports element="print" type="yes" value="yes" attribute="new-page" />
   <supports element="accidental" type="yes" />
   <supports element="beam" type="yes" />
   <supports element="stem" type="yes" />
  </encoding>
 </identification>
 <defaults>
  <scaling>
   <millimeters>149.098</millimeters>
   <tenths>955</tenths>
  </scaling>
  <page-layout>
   <page-height>1303</page-height>
   <page-width>955</page-width>
   <page-margins type="both">
    <left-margin>112</left-margin>
    <right-margin>112</right-margin>
    <top-margin>81</top-margin>
    <bottom-margin>81</bottom-margin>
   </page-margins>
  </page-layout>
  <system-layout>
   <system-distance>40</system-distance>
  </system-layout>
  <appearance>
   <line-width type="stem">0.9375</line-width>
   <line-width type="beam">5</line-width>
   <line-width type="staff">0.9375</line-width>
   <line-width type="light barline">1.5625</line-width>
   <line-width type="heavy barline">5</line-width>
   <line-width type="leger">1.5625</line-width>
   <line-width type="ending">1.5625</line-width>
   <line-width type="wedge">1.25</line-width>
   <line-width type="enclosure">0.9375</line-width>
   <line-width type="tuplet bracket">1.25</line-width>
   <line-width type="bracket">5</line-width>
   <line-width type="dashes">1.5625</line-width>
   <line-width type="extend">0.9375</line-width>
   <line-width type="octave shift">1.5625</line-width>
   <line-width type="pedal">1.5625</line-width>
   <line-width type="slur middle">1.5625</line-width>
   <line-width type="slur tip">0.625</line-width>
   <line-width type="tie middle">1.5625</line-width>
   <line-width type="tie tip">0.625</line-width>
   <note-size type="cue">75</note-size>
   <note-size type="grace">60</note-size>
  </appearance>
  <music-font font-family="Opus Std" font-size="17.6825" />
  <lyric-font font-family="Times New Roman" font-size="9.9464" />
  <lyric-language xml:lang="en" />
 </defaults>
 <credit page="1">
  <credit-words default-x="477" default-y="1148" font-family="Times New Roman" font-size="20.031" justify="center" valign="middle">For All the Saints</credit-words>
 </credit>
 <part-list>
  <score-part id="P1">
   <part-name>Piano</part-name>
   <part-name-display>
    <display-text>Piano</display-text>
   </part-name-display>
   <part-abbreviation>Pno.</part-abbreviation>
   <part-abbreviation-display>
    <display-text>Pno.</display-text>
   </part-abbreviation-display>
   <score-instrument id="P1-I1">
    <instrument-name>Piano (2)</instrument-name>
   </score-instrument>
  </score-part>
 </part-list>
 <part id="P1">
  <measure number="1" width="334">
   <print new-page="yes">
    <system-layout>
     <system-margins>
      <left-margin>0</left-margin>
      <right-margin>0</right-margin>
     </system-margins>
     <top-system-distance>163</top-system-distance>
    </system-layout>
   </print>
   <attributes>
    <divisions>256</divisions>
    <key color="#000000">
     <fifths>1</fifths>
     <mode>major</mode>
    </key>
    <time color="#000000">
     <beats>4</beats>
     <beat-type>4</beat-type>
    </time>
    <staves>1</staves>
    <clef number="1" color="#000000">
     <sign>G</sign>
     <line>2</line>
    </clef>
    <staff-details number="1" print-object="yes" />
   </attributes>
   <note default-x="88">
    <rest />
    <duration>256</duration>
    <instrument id="P1-I1" />
    <voice>1</voice>
    <type>quarter</type>
    <staff>1</staff>
   </note>
   <note color="#000000" default-x="139">
    <pitch>
     <step>D</step>
     <octave>5</octave>
    </pitch>
    <duration>256</duration>
    <instrument id="P1-I1" />
    <voice>1</voice>
    <type>quarter</type>
    <stem>down</stem>
    <staff>1</staff>
    <lyric default-y="-82" number="1" color="#000000">
     <syllabic>single</syllabic>
     <text>1  For</text>
    </lyric>
    <lyric default-y="-107" number="2" color="#000000">
     <syllabic>single</syllabic>
     <text>2  Thou</text>
    </lyric>
    <lyric default-y="-131" number="3" color="#000000">
     <syllabic>single</syllabic>
     <text>3  O</text>
    </lyric>
    <lyric default-y="-156" number="4" color="#000000">
     <syllabic>single</syllabic>
     <text>4  And</text>
    </lyric>
    <lyric default-y="-183" number="5" color="#000000">
     <syllabic>single</syllabic>
     <text>5  But</text>
    </lyric>
    <lyric default-y="-208" number="6" color="#000000">
     <syllabic>single</syllabic>
     <text>6  From</text>
    </lyric>
   </note>
   <note color="#000000" default-x="219">
    <pitch>
     <step>B</step>
     <octave>4</octave>
    </pitch>
    <duration>256</duration>
    <instrument id="P1-I1" />
    <voice>1</voice>
    <type>quarter</type>
    <stem>down</stem>
    <staff>1</staff>
    <lyric default-y="-82" number="1" color="#000000">
     <syllabic>single</syllabic>
     <text>all</text>
    </lyric>
    <lyric default-y="-107" number="2" color="#000000">
     <syllabic>single</syllabic>
     <text>wast</text>
    </lyric>
    <lyric default-y="-131" number="3" color="#000000">
     <syllabic>single</syllabic>
     <text>blest</text>
    </lyric>
    <lyric default-y="-156" number="4" color="#000000">
     <syllabic>single</syllabic>
     <text>when</text>
    </lyric>
    <lyric default-y="-183" number="5" color="#000000">
     <syllabic>single</syllabic>
     <text>lo!</text>
    </lyric>
    <lyric default-y="-208" number="6" color="#000000">
     <syllabic>single</syllabic>
     <text>earth's</text>
    </lyric>
   </note>
   <note color="#000000" default-x="277">
    <pitch>
     <step>A</step>
     <octave>4</octave>
    </pitch>
    <duration>256</duration>
    <instrument id="P1-I1" />
    <voice>1</voice>
    <type>quarter</type>
    <stem>up</stem>
    <staff>1</staff>
    <lyric default-y="-82" number="1" color="#000000">
     <syllabic>single</syllabic>
     <text>the</text>
    </lyric>
    <lyric default-y="-107" number="2" color="#000000">
     <syllabic>single</syllabic>
     <text>their</text>
    </lyric>
    <lyric default-y="-131" number="3" color="#000000">
     <syllabic>begin</syllabic>
     <text>com</text>
    </lyric>
    <lyric default-y="-156" number="4" color="#000000">
     <syllabic>single</syllabic>
     <text>the</text>
    </lyric>
    <lyric default-y="-183" number="5" color="#000000">
     <syllabic>single</syllabic>
     <text>there</text>
    </lyric>
    <lyric default-y="-208" number="6" color="#000000">
     <syllabic>single</syllabic>
     <text>wide</text>
    </lyric>
   </note>
  </measure>
  <measure number="2" width="169">
   <note color="#000000" default-x="15">
    <pitch>
     <step>G</step>
     <octave>4</octave>
    </pitch>
    <duration>768</duration>
    <instrument id="P1-I1" />
    <voice>1</voice>
    <type>half</type>
    <dot />
    <stem>up</stem>
    <staff>1</staff>
    <lyric default-y="-82" number="1" color="#000000">
     <syllabic>end</syllabic>
     <text>saints</text>
    </lyric>
    <lyric default-y="-107" number="2" color="#000000">
     <syllabic>single</syllabic>
     <text>rock,</text>
    </lyric>
    <lyric default-y="-131" number="3" color="#000000">
     <syllabic>begin</syllabic>
     <text>mu</text>
    </lyric>
    <lyric default-y="-156" number="4" color="#000000">
     <syllabic>single</syllabic>
     <text>strife</text>
    </lyric>
    <lyric default-y="-183" number="5" color="#000000">
     <syllabic>single</syllabic>
     <text>breaks</text>
    </lyric>
    <lyric default-y="-208" number="6" color="#000000">
     <syllabic>single</syllabic>
     <text>bounds</text>
    </lyric>
   </note>
   <note color="#000000" default-x="118">
    <pitch>
     <step>D</step>
     <octave>4</octave>
    </pitch>
    <duration>256</duration>
    <instrument id="P1-I1" />
    <voice>1</voice>
    <type>quarter</type>
    <stem>up</stem>
    <staff>1</staff>
    <lyric default-y="-82" number="1" color="#000000">
     <syllabic>end</syllabic>
     <text>who</text>
    </lyric>
    <lyric default-y="-107" number="2" color="#000000">
     <syllabic>single</syllabic>
     <text>their</text>
    </lyric>
    <lyric default-y="-131" number="3" color="#000000">
     <syllabic>single</syllabic>
     <text>nion,</text>
    </lyric>
    <lyric default-y="-156" number="4" color="#000000">
     <syllabic>single</syllabic>
     <text>is</text>
    </lyric>
    <lyric default-y="-183" number="5" color="#000000">
     <syllabic>single</syllabic>
     <text>a</text>
    </lyric>
    <lyric default-y="-208" number="6" color="#000000">
     <syllabic>single</syllabic>
     <text>and</text>
    </lyric>
   </note>
  </measure>
  <measure number="3" width="226">
   <note color="#000000" default-x="15">
    <pitch>
     <step>E</step>
     <octave>4</octave>
    </pitch>
    <duration>256</duration>
    <instrument id="P1-I1" />
    <voice>1</voice>
    <type>quarter</type>
    <stem>up</stem>
    <staff>1</staff>
    <lyric default-y="-82" number="1" color="#000000">
     <syllabic>single</syllabic>
     <text>from</text>
    </lyric>
    <lyric default-y="-107" number="2" color="#000000">
     <syllabic>begin</syllabic>
     <text>for</text>
    </lyric>
    <lyric default-y="-131" number="3" color="#000000">
     <syllabic>begin</syllabic>
     <text>fel</text>
    </lyric>
    <lyric default-y="-156" number="4" color="#000000">
     <syllabic>end</syllabic>
     <text>fierce,</text>
    </lyric>
    <lyric default-y="-183" number="5" color="#000000">
     <syllabic>single</syllabic>
     <text>yet</text>
    </lyric>
    <lyric default-y="-208" number="6" color="#000000">
     <syllabic>begin</syllabic>
     <text>o</text>
    </lyric>
   </note>
   <note color="#000000" default-x="74">
    <pitch>
     <step>G</step>
     <octave>4</octave>
    </pitch>
    <duration>256</duration>
    <instrument id="P1-I1" />
    <voice>1</voice>
    <type>quarter</type>
    <stem>up</stem>
    <staff>1</staff>
    <lyric default-y="-82" number="1" color="#000000">
     <syllabic>end</syllabic>
     <text>their</text>
    </lyric>
    <lyric default-y="-107" number="2" color="#000000">
     <syllabic>single</syllabic>
     <text>tress,</text>
    </lyric>
    <lyric default-y="-131" number="3" color="#000000">
     <syllabic>begin</syllabic>
     <text>lows</text>
    </lyric>
    <lyric default-y="-156" number="4" color="#000000">
     <syllabic>single</syllabic>
     <text>the</text>
    </lyric>
    <lyric default-y="-183" number="5" color="#000000">
     <syllabic>end</syllabic>
     <text>more</text>
    </lyric>
    <lyric default-y="-208" number="6" color="#000000">
     <syllabic>single</syllabic>
     <text>cean's</text>
    </lyric>
   </note>
   <note color="#000000" default-x="130">
    <pitch>
     <step>A</step>
     <octave>4</octave>
    </pitch>
    <duration>256</duration>
    <instrument id="P1-I1" />
    <voice>1</voice>
    <type>quarter</type>
    <stem>up</stem>
    <staff>1</staff>
    <lyric default-y="-82" number="1" color="#000000">
     <syllabic>middle</syllabic>
     <text>la</text>
    </lyric>
    <lyric default-y="-107" number="2" color="#000000">
     <syllabic>single</syllabic>
     <text>and</text>
    </lyric>
    <lyric default-y="-131" number="3" color="#000000">
     <syllabic>end</syllabic>
     <text>hip</text>
    </lyric>
    <lyric default-y="-156" number="4" color="#000000">
     <syllabic>begin</syllabic>
     <text>war</text>
    </lyric>
    <lyric default-y="-183" number="5" color="#000000">
     <syllabic>begin</syllabic>
     <text>glo</text>
    </lyric>
    <lyric default-y="-208" number="6" color="#000000">
     <syllabic>middle</syllabic>
     <text>farth</text>
    </lyric>
   </note>
   <note color="#000000" default-x="181">
    <pitch>
     <step>D</step>
     <octave>4</octave>
    </pitch>
    <duration>256</duration>
    <instrument id="P1-I1" />
    <voice>1</voice>
    <type>quarter</type>
    <stem>up</stem>
    <staff>1</staff>
    <lyric default-y="-82" number="1" color="#000000">
     <syllabic>single</syllabic>
     <text>bors</text>
    </lyric>
    <lyric default-y="-107" number="2" color="#000000">
     <syllabic>end</syllabic>
     <text>their</text>
    </lyric>
    <lyric default-y="-131" number="3" color="#000000">
     <syllabic>begin</syllabic>
     <text>di</text>
    </lyric>
    <lyric default-y="-156" number="4" color="#000000">
     <syllabic>single</syllabic>
     <text>fare</text>
    </lyric>
    <lyric default-y="-183" number="5" color="#000000">
     <syllabic>end</syllabic>
     <text>rious</text>
    </lyric>
    <lyric default-y="-208" number="6" color="#000000">
     <syllabic>single</syllabic>
     <text>est</text>
    </lyric>
   </note>
  </measure>
  <measure number="4" width="211">
   <print new-system="yes">
    <system-layout>
     <system-margins>
      <left-margin>0</left-margin>
      <right-margin>0</right-margin>
     </system-margins>
     <system-distance>237</system-distance>
    </system-layout>
   </print>
   <attributes>
    <staff-details number="1" print-object="yes" />
   </attributes>
   <note color="#000000" default-x="70">
    <pitch>
     <step>B</step>
     <octave>4</octave>
    </pitch>
    <duration>768</duration>
    <instrument id="P1-I1" />
    <voice>1</voice>
    <type>half</type>
    <dot />
    <stem>down</stem>
    <staff>1</staff>
    <lyric default-y="-82" number="1" color="#000000">
     <syllabic>end</syllabic>
     <text>rest,</text>
    </lyric>
    <lyric default-y="-107" number="2" color="#000000">
     <syllabic>single</syllabic>
     <text>might;</text>
    </lyric>
    <lyric default-y="-131" number="3" color="#000000">
     <syllabic>single</syllabic>
     <text>vine!</text>
    </lyric>
    <lyric default-y="-156" number="4" color="#000000">
     <syllabic>single</syllabic>
     <text>long,</text>
    </lyric>
    <lyric default-y="-181" number="5" color="#000000">
     <syllabic>single</syllabic>
     <text>day:</text>
    </lyric>
    <lyric default-y="-206" number="6" color="#000000">
     <syllabic>single</syllabic>
     <text>coast,</text>
    </lyric>
   </note>
   <note color="#000000" default-x="158">
    <pitch>
     <step>B</step>
     <octave>4</octave>
    </pitch>
    <duration>256</duration>
    <instrument id="P1-I1" />
    <voice>1</voice>
    <type>quarter</type>
    <stem>down</stem>
    <staff>1</staff>
    <lyric default-y="-82" number="1" color="#000000">
     <syllabic>single</syllabic>
     <text>who</text>
    </lyric>
    <lyric default-y="-107" number="2" color="#000000">
     <syllabic>single</syllabic>
     <text>thou,</text>
    </lyric>
    <lyric default-y="-131" number="3" color="#000000">
     <syllabic>single</syllabic>
     <text>We</text>
    </lyric>
    <lyric default-y="-156" number="4" color="#000000">
     <syllabic>single</syllabic>
     <text>steals</text>
    </lyric>
    <lyric default-y="-181" number="5" color="#000000">
     <syllabic>single</syllabic>
     <text>the</text>
    </lyric>
    <lyric default-y="-206" number="6" color="#000000">
     <syllabic>single</syllabic>
     <text>through</text>
    </lyric>
   </note>
  </measure>
  <measure number="5" width="147">
   <note color="#000000" default-x="15">
    <pitch>
     <step>A</step>
     <octave>4</octave>
    </pitch>
    <duration>768</duration>
    <instrument id="P1-I1" />
    <voice>1</voice>
    <type>half</type>
    <dot />
    <stem>up</stem>
    <staff>1</staff>
    <lyric default-y="-82" number="1" color="#000000">
     <syllabic>single</syllabic>
     <text>thee</text>
    </lyric>
    <lyric default-y="-107" number="2" color="#000000">
     <syllabic>single</syllabic>
     <text>Lord,</text>
    </lyric>
    <lyric default-y="-131" number="3" color="#000000">
     <syllabic>begin</syllabic>
     <text>fee</text>
    </lyric>
    <lyric default-y="-156" number="4" color="#000000">
     <syllabic>single</syllabic>
     <text>on</text>
    </lyric>
    <lyric default-y="-181" number="5" color="#000000">
     <syllabic>single</syllabic>
     <text>saints</text>
    </lyric>
    <lyric default-y="-206" number="6" color="#000000">
     <syllabic>single</syllabic>
     <text>gates</text>
    </lyric>
   </note>
   <note color="#000000" default-x="103">
    <pitch>
     <step>G</step>
     <octave>4</octave>
    </pitch>
    <duration>256</duration>
    <instrument id="P1-I1" />
    <voice>1</voice>
    <type>quarter</type>
    <stem>up</stem>
    <staff>1</staff>
    <lyric default-y="-82" number="1" color="#000000">
     <syllabic>end</syllabic>
     <text>by</text>
    </lyric>
    <lyric default-y="-107" number="2" color="#000000">
     <syllabic>single</syllabic>
     <text>their</text>
    </lyric>
    <lyric default-y="-131" number="3" color="#000000">
     <syllabic>single</syllabic>
     <text>bly</text>
    </lyric>
    <lyric default-y="-156" number="4" color="#000000">
     <syllabic>single</syllabic>
     <text>the</text>
    </lyric>
    <lyric default-y="-181" number="5" color="#000000">
     <syllabic>begin</syllabic>
     <text>tri</text>
    </lyric>
    <lyric default-y="-206" number="6" color="#000000">
     <syllabic>end</syllabic>
     <text>of</text>
    </lyric>
   </note>
  </measure>
  <measure number="6" width="163">
   <note color="#000000" default-x="15">
    <pitch>
     <step>F</step>
     <alter>1</alter>
     <octave>4</octave>
    </pitch>
    <duration>512</duration>
    <instrument id="P1-I1" />
    <voice>1</voice>
    <type>half</type>
    <stem>up</stem>
    <staff>1</staff>
    <lyric default-y="-82" number="1" color="#000000">
     <syllabic>single</syllabic>
     <text>faith</text>
    </lyric>
    <lyric default-y="-107" number="2" color="#000000">
     <syllabic>begin</syllabic>
     <text>cap</text>
    </lyric>
    <lyric default-y="-131" number="3" color="#000000">
     <syllabic>begin</syllabic>
     <text>strug</text>
    </lyric>
    <lyric default-y="-156" number="4" color="#000000">
     <syllabic>end</syllabic>
     <text>ear</text>
    </lyric>
    <lyric default-y="-181" number="5" color="#000000">
     <syllabic>begin</syllabic>
     <text>um</text>
    </lyric>
    <lyric default-y="-206" number="6" color="#000000">
     <syllabic>end</syllabic>
     <text>pearl</text>
    </lyric>
   </note>
   <note color="#000000" default-x="89">
    <pitch>
     <step>F</step>
     <alter>1</alter>
     <octave>4</octave>
    </pitch>
    <duration>512</duration>
    <instrument id="P1-I1" />
    <voice>1</voice>
    <type>half</type>
    <stem>up</stem>
    <staff>1</staff>
    <lyric default-y="-82" number="1" color="#000000">
     <syllabic>middle</syllabic>
     <text>be</text>
    </lyric>
    <lyric default-y="-107" number="2" color="#000000">
     <syllabic>single</syllabic>
     <text>tain</text>
    </lyric>
    <lyric default-y="-131" number="3" color="#000000">
     <syllabic>end</syllabic>
     <text>gle,</text>
    </lyric>
    <lyric default-y="-156" number="4" color="#000000">
     <syllabic>single</syllabic>
     <text>the</text>
    </lyric>
    <lyric default-y="-181" number="5" color="#000000">
     <syllabic>single</syllabic>
     <text>phant</text>
    </lyric>
    <lyric default-y="-206" number="6" color="#000000">
     <syllabic>single</syllabic>
     <text>stream</text>
    </lyric>
   </note>
  </measure>
  <measure number="7" width="208">
   <note color="#000000" default-x="15">
    <pitch>
     <step>G</step>
     <octave>4</octave>
    </pitch>
    <duration>256</duration>
    <instrument id="P1-I1" />
    <voice>1</voice>
    <type>quarter</type>
    <stem>up</stem>
    <staff>1</staff>
    <lyric default-y="-82" number="1" color="#000000">
     <syllabic>single</syllabic>
     <text>fore</text>
    </lyric>
    <lyric default-y="-107" number="2" color="#000000">
     <syllabic>single</syllabic>
     <text>in</text>
    </lyric>
    <lyric default-y="-131" number="3" color="#000000">
     <syllabic>single</syllabic>
     <text>they</text>
    </lyric>
    <lyric default-y="-156" number="4" color="#000000">
     <syllabic>begin</syllabic>
     <text>dis</text>
    </lyric>
    <lyric default-y="-181" number="5" color="#000000">
     <syllabic>single</syllabic>
     <text>rise</text>
    </lyric>
    <lyric default-y="-206" number="6" color="#000000">
     <syllabic>single</syllabic>
     <text>in</text>
    </lyric>
   </note>
   <note color="#000000" default-x="58">
    <pitch>
     <step>A</step>
     <octave>4</octave>
    </pitch>
    <duration>256</duration>
    <instrument id="P1-I1" />
    <voice>1</voice>
    <type>quarter</type>
    <stem>up</stem>
    <staff>1</staff>
    <lyric default-y="-82" number="1" color="#000000">
     <syllabic>single</syllabic>
     <text>the</text>
    </lyric>
    <lyric default-y="-107" number="2" color="#000000">
     <syllabic>end</syllabic>
     <text>the</text>
    </lyric>
    <lyric default-y="-131" number="3" color="#000000">
     <syllabic>single</syllabic>
     <text>in</text>
    </lyric>
    <lyric default-y="-156" number="4" color="#000000">
     <syllabic>single</syllabic>
     <text>tant</text>
    </lyric>
    <lyric default-y="-181" number="5" color="#000000">
     <syllabic>single</syllabic>
     <text>in</text>
    </lyric>
    <lyric default-y="-206" number="6" color="#000000">
     <syllabic>single</syllabic>
     <text>the</text>
    </lyric>
   </note>
   <note color="#000000" default-x="106">
    <pitch>
     <step>F</step>
     <alter>1</alter>
     <octave>4</octave>
    </pitch>
    <duration>256</duration>
    <instrument id="P1-I1" />
    <voice>1</voice>
    <type>quarter</type>
    <stem>up</stem>
    <staff>1</staff>
    <lyric default-y="-82" number="1" color="#000000">
     <syllabic>single</syllabic>
     <text>world</text>
    </lyric>
    <lyric default-y="-107" number="2" color="#000000">
     <syllabic>begin</syllabic>
     <text>well</text>
    </lyric>
    <lyric default-y="-131" number="3" color="#000000">
     <syllabic>begin</syllabic>
     <text>glo</text>
    </lyric>
    <lyric default-y="-156" number="4" color="#000000">
     <syllabic>middle</syllabic>
     <text>tri</text>
    </lyric>
    <lyric default-y="-181" number="5" color="#000000">
     <syllabic>single</syllabic>
     <text>bright</text>
    </lyric>
    <lyric default-y="-206" number="6" color="#000000">
     <syllabic>begin</syllabic>
     <text>count</text>
    </lyric>
   </note>
   <note color="#000000" default-x="164">
    <pitch>
     <step>E</step>
     <octave>4</octave>
    </pitch>
    <duration>256</duration>
    <instrument id="P1-I1" />
    <voice>1</voice>
    <type>quarter</type>
    <stem>up</stem>
    <staff>1</staff>
    <lyric default-y="-82" number="1" color="#000000">
     <syllabic>middle</syllabic>
     <text>con</text>
    </lyric>
    <lyric default-y="-107" number="2" color="#000000">
     <syllabic>end</syllabic>
     <text>fought</text>
    </lyric>
    <lyric default-y="-131" number="3" color="#000000">
     <syllabic>end</syllabic>
     <text>ry</text>
    </lyric>
    <lyric default-y="-156" number="4" color="#000000">
     <syllabic>single</syllabic>
     <text>umph</text>
    </lyric>
    <lyric default-y="-181" number="5" color="#000000">
     <syllabic>middle</syllabic>
     <text>ar</text>
    </lyric>
    <lyric default-y="-206" number="6" color="#000000">
     <syllabic>end</syllabic>
     <text>less</text>
    </lyric>
   </note>
  </measure>
  <measure number="8" width="173">
   <print new-system="yes">
    <system-layout>
     <system-margins>
      <left-margin>0</left-margin>
      <right-margin>0</right-margin>
     </system-margins>
     <system-distance>237</system-distance>
    </system-layout>
   </print>
   <attributes>
    <staff-details number="1" print-object="yes" />
   </attributes>
   <note color="#000000" default-x="70">
    <pitch>
     <step>D</step>
     <octave>4</octave>
    </pitch>
    <duration>768</duration>
    <instrument id="P1-I1" />
    <voice>1</voice>
    <type>half</type>
    <dot />
    <stem>up</stem>
    <staff>1</staff>
    <lyric default-y="-82" number="1" color="#000000">
     <syllabic>single</syllabic>
     <text>fessed,</text>
    </lyric>
    <lyric default-y="-107" number="2" color="#000000">
     <syllabic>single</syllabic>
     <text>fight;</text>
    </lyric>
    <lyric default-y="-131" number="3" color="#000000">
     <syllabic>single</syllabic>
     <text>shine.</text>
    </lyric>
    <lyric default-y="-156" number="4" color="#000000">
     <syllabic>single</syllabic>
     <text>song,</text>
    </lyric>
    <lyric default-y="-181" number="5" color="#000000">
     <syllabic>single</syllabic>
     <text>ray;</text>
    </lyric>
    <lyric default-y="-206" number="6" color="#000000">
     <syllabic>single</syllabic>
     <text>host,</text>
    </lyric>
   </note>
   <note color="#000000" default-x="140">
    <pitch>
     <step>D</step>
     <octave>4</octave>
    </pitch>
    <duration>256</duration>
    <instrument id="P1-I1" />
    <voice>1</voice>
    <type>quarter</type>
    <stem>up</stem>
    <staff>1</staff>
    <lyric default-y="-82" number="1" color="#000000">
     <syllabic>single</syllabic>
     <text>thy</text>
    </lyric>
    <lyric default-y="-131" number="2" color="#000000">
     <syllabic>single</syllabic>
     <text>Yet</text>
    </lyric>
    <lyric default-y="-156" number="3" color="#000000">
     <syllabic>single</syllabic>
     <text>and</text>
    </lyric>
    <lyric default-y="-181" number="4" color="#000000">
     <syllabic>single</syllabic>
     <text>the</text>
    </lyric>
   </note>
  </measure>
  <measure number="9" width="153">
   <note color="#000000" default-x="15">
    <pitch>
     <step>G</step>
     <octave>4</octave>
    </pitch>
    <duration>512</duration>
    <instrument id="P1-I1" />
    <voice>1</voice>
    <type>half</type>
    <stem>up</stem>
    <staff>1</staff>
    <lyric default-y="-82" number="1" color="#000000">
     <syllabic>single</syllabic>
     <text>name,</text>
    </lyric>
    <lyric default-y="-107" number="2" color="#000000">
     <syllabic>single</syllabic>
     <text>thou</text>
    </lyric>
    <lyric default-y="-131" number="3" color="#000000">
     <syllabic>single</syllabic>
     <text>all</text>
    </lyric>
    <lyric default-y="-156" number="4" color="#000000">
     <syllabic>single</syllabic>
     <text>hearts</text>
    </lyric>
    <lyric default-y="-181" number="5" color="#000000">
     <syllabic>single</syllabic>
     <text>King</text>
    </lyric>
    <lyric default-y="-206" number="6" color="#000000">
     <syllabic>begin</syllabic>
     <text>sing</text>
    </lyric>
   </note>
   <note color="#000000" default-x="73">
    <pitch>
     <step>G</step>
     <octave>4</octave>
    </pitch>
    <duration>512</duration>
    <instrument id="P1-I1" />
    <voice>1</voice>
    <type>half</type>
    <stem>up</stem>
    <staff>1</staff>
    <lyric default-y="-82" number="1" color="#000000">
     <syllabic>single</syllabic>
     <text>O</text>
    </lyric>
    <lyric default-y="-107" number="2" color="#000000">
     <syllabic>single</syllabic>
     <text>in  the</text>
    </lyric>
    <lyric default-y="-131" number="3" color="#000000">
     <syllabic>single</syllabic>
     <text>are</text>
    </lyric>
    <lyric default-y="-156" number="4" color="#000000">
     <syllabic>single</syllabic>
     <text>are</text>
    </lyric>
    <lyric default-y="-181" number="5" color="#000000">
     <syllabic>end</syllabic>
     <text>of</text>
    </lyric>
    <lyric default-y="-206" number="6" color="#000000">
     <syllabic>single</syllabic>
     <text>ing  to</text>
    </lyric>
   </note>
   <backup>
    <duration>1024</duration>
   </backup>
   <note print-object="no" default-x="15">
    <rest />
    <duration>512</duration>
    <instrument id="P1-I1" />
    <voice>3</voice>
    <type>half</type>
    <staff>1</staff>
   </note>
   <note color="#000000" default-x="90">
    <cue />
    <pitch>
     <step>G</step>
     <octave>4</octave>
    </pitch>
    <duration>256</duration>
    <instrument id="P1-I1" />
    <voice>3</voice>
    <type>quarter</type>
    <stem>up</stem>
    <staff>1</staff>
   </note>
   <note color="#000000" default-x="102">
    <cue />
    <pitch>
     <step>G</step>
     <octave>4</octave>
    </pitch>
    <duration>256</duration>
    <instrument id="P1-I1" />
    <voice>3</voice>
    <type>quarter</type>
    <stem>up</stem>
    <staff>1</staff>
   </note>
  </measure>
  <measure number="10" width="119">
   <note color="#000000" default-x="15">
    <pitch>
     <step>D</step>
     <octave>5</octave>
    </pitch>
    <duration>768</duration>
    <instrument id="P1-I1" />
    <voice>1</voice>
    <type>half</type>
    <dot />
    <stem>down</stem>
    <staff>1</staff>
    <lyric default-y="-82" number="1" color="#000000">
     <syllabic>begin</syllabic>
     <text>Je</text>
    </lyric>
    <lyric default-y="-107" number="2" color="#000000">
     <syllabic>begin</syllabic>
     <text>dark</text>
    </lyric>
    <lyric default-y="-131" number="3" color="#000000">
     <syllabic>end</syllabic>
     <text>one</text>
    </lyric>
    <lyric default-y="-156" number="4" color="#000000">
     <syllabic>end</syllabic>
     <text>brave</text>
    </lyric>
    <lyric default-y="-181" number="5" color="#000000">
     <syllabic>begin</syllabic>
     <text>glo</text>
    </lyric>
    <lyric default-y="-206" number="6" color="#000000">
     <syllabic>middle</syllabic>
     <text>Fa</text>
    </lyric>
   </note>
   <note color="#000000" default-x="84">
    <pitch>
     <step>D</step>
     <octave>5</octave>
    </pitch>
    <duration>256</duration>
    <instrument id="P1-I1" />
    <voice>1</voice>
    <type>quarter</type>
    <stem>up</stem>
    <staff>1</staff>
    <lyric default-y="-82" number="1" color="#000000">
     <syllabic>single</syllabic>
     <text>sus,</text>
    </lyric>
    <lyric default-y="-107" number="2" color="#000000">
     <syllabic>single</syllabic>
     <text>ness</text>
    </lyric>
    <lyric default-y="-131" number="3" color="#000000">
     <syllabic>single</syllabic>
     <text>in</text>
    </lyric>
    <lyric default-y="-156" number="4" color="#000000">
     <syllabic>begin</syllabic>
     <text>a</text>
    </lyric>
    <lyric default-y="-181" number="5" color="#000000">
     <syllabic>end</syllabic>
     <text>ry</text>
    </lyric>
    <lyric default-y="-206" number="6" color="#000000">
     <syllabic>single</syllabic>
     <text>ther,</text>
    </lyric>
   </note>
  </measure>
  <measure number="11" width="205">
   <note color="#000000" default-x="15">
    <pitch>
     <step>C</step>
     <octave>5</octave>
    </pitch>
    <duration>256</duration>
    <instrument id="P1-I1" />
    <voice>1</voice>
    <type>quarter</type>
    <stem>down</stem>
    <staff>1</staff>
    <lyric default-y="-82" number="1" color="#000000">
     <syllabic>single</syllabic>
     <text>be</text>
    </lyric>
    <lyric default-y="-107" number="2" color="#000000">
     <syllabic>end</syllabic>
     <text>drear,</text>
    </lyric>
    <lyric default-y="-131" number="3" color="#000000">
     <syllabic>single</syllabic>
     <text>thee,</text>
    </lyric>
    <lyric default-y="-156" number="4" color="#000000">
     <syllabic>single</syllabic>
     <text>gain</text>
    </lyric>
    <lyric default-y="-181" number="5" color="#000000">
     <syllabic>begin</syllabic>
     <text>pas</text>
    </lyric>
    <lyric default-y="-206" number="6" color="#000000">
     <syllabic>end</syllabic>
     <text>Son,</text>
    </lyric>
   </note>
   <note color="#000000" default-x="69">
    <pitch>
     <step>D</step>
     <octave>5</octave>
    </pitch>
    <duration>256</duration>
    <instrument id="P1-I1" />
    <voice>1</voice>
    <type>quarter</type>
    <stem>down</stem>
    <staff>1</staff>
    <lyric default-y="-82" number="1" color="#000000">
     <syllabic>begin</syllabic>
     <text>for</text>
    </lyric>
    <lyric default-y="-107" number="2" color="#000000">
     <syllabic>single</syllabic>
     <text>their</text>
    </lyric>
    <lyric default-y="-131" number="3" color="#000000">
     <syllabic>end</syllabic>
     <text>for</text>
    </lyric>
    <lyric default-y="-156" number="4" color="#000000">
     <syllabic>single</syllabic>
     <text>and</text>
    </lyric>
    <lyric default-y="-181" number="5" color="#000000">
     <syllabic>single</syllabic>
     <text>ses</text>
    </lyric>
    <lyric default-y="-206" number="6" color="#000000">
     <syllabic>single</syllabic>
     <text>and</text>
    </lyric>
   </note>
   <note color="#000000" default-x="104">
    <pitch>
     <step>C</step>
     <octave>5</octave>
    </pitch>
    <duration>128</duration>
    <instrument id="P1-I1" />
    <voice>1</voice>
    <type>eighth</type>
    <stem>down</stem>
    <staff>1</staff>
    <beam number="1">begin</beam>
    <lyric default-y="-82" number="1" color="#000000">
     <syllabic>begin</syllabic>
     <text>e</text>
    </lyric>
    <lyric default-y="-107" number="2" color="#000000">
     <syllabic>single</syllabic>
     <text>one</text>
     <extend />
    </lyric>
    <lyric default-y="-131" number="3" color="#000000">
     <syllabic>end</syllabic>
     <text>all</text>
     <extend />
    </lyric>
    <lyric default-y="-156" number="4" color="#000000">
     <syllabic>single</syllabic>
     <text>arms</text>
     <extend />
    </lyric>
    <lyric default-y="-181" number="5" color="#000000">
     <syllabic>single</syllabic>
     <text>on</text>
     <extend />
    </lyric>
    <lyric default-y="-206" number="6" color="#000000">
     <syllabic>begin</syllabic>
     <text>Ho</text>
    </lyric>
   </note>
   <note color="#000000" default-x="130">
    <pitch>
     <step>B</step>
     <octave>4</octave>
    </pitch>
    <duration>128</duration>
    <instrument id="P1-I1" />
    <voice>1</voice>
    <type>eighth</type>
    <stem>down</stem>
    <staff>1</staff>
    <beam number="1">end</beam>
   </note>
   <note color="#000000" default-x="155">
    <pitch>
     <step>A</step>
     <octave>4</octave>
    </pitch>
    <duration>128</duration>
    <instrument id="P1-I1" />
    <voice>1</voice>
    <type>eighth</type>
    <stem>up</stem>
    <staff>1</staff>
    <beam number="1">begin</beam>
    <lyric default-y="-82" number="1" color="#000000">
     <syllabic>single</syllabic>
     <text>ver</text>
     <extend />
    </lyric>
    <lyric default-y="-107" number="2" color="#000000">
     <syllabic>single</syllabic>
     <text>true</text>
     <extend />
    </lyric>
    <lyric default-y="-131" number="3" color="#000000">
     <syllabic>single</syllabic>
     <text>are</text>
     <extend />
    </lyric>
    <lyric default-y="-156" number="4" color="#000000">
     <syllabic>single</syllabic>
     <text>are</text>
     <extend />
    </lyric>
    <lyric default-y="-181" number="5" color="#000000">
     <syllabic>end</syllabic>
     <text>his</text>
     <extend />
    </lyric>
    <lyric default-y="-206" number="6" color="#000000">
     <syllabic>single</syllabic>
     <text>ly</text>
     <extend />
    </lyric>
   </note>
   <note color="#000000" default-x="180">
    <pitch>
     <step>G</step>
     <octave>4</octave>
    </pitch>
    <duration>128</duration>
    <instrument id="P1-I1" />
    <voice>1</voice>
    <type>eighth</type>
    <stem>up</stem>
    <staff>1</staff>
    <beam number="1">end</beam>
   </note>
  </measure>
  <measure number="12" width="79">
   <note color="#000000" default-x="15">
    <pitch>
     <step>A</step>
     <octave>4</octave>
    </pitch>
    <duration>512</duration>
    <instrument id="P1-I1" />
    <voice>1</voice>
    <type>half</type>
    <stem>up</stem>
    <staff>1</staff>
    <lyric default-y="-82" number="1" color="#000000">
     <syllabic>single</syllabic>
     <text>blest.</text>
    </lyric>
    <lyric default-y="-107" number="2" color="#000000">
     <syllabic>single</syllabic>
     <text>light.</text>
    </lyric>
    <lyric default-y="-131" number="3" color="#000000">
     <syllabic>single</syllabic>
     <text>thine.</text>
    </lyric>
    <lyric default-y="-156" number="4" color="#000000">
     <syllabic>single</syllabic>
     <text>strong.</text>
    </lyric>
    <lyric default-y="-178" number="5" color="#000000">
     <syllabic>single</syllabic>
     <text>way.</text>
    </lyric>
    <lyric default-y="-203" number="6" color="#000000">
     <syllabic>single</syllabic>
     <text>Ghost:</text>
    </lyric>
   </note>
   <barline>
    <bar-style>none</bar-style>
   </barline>
  </measure>
  <measure number="13" width="138">
   <print new-system="yes">
    <system-layout>
     <system-margins>
      <left-margin>0</left-margin>
      <right-margin>0</right-margin>
     </system-margins>
     <system-distance>252</system-distance>
    </system-layout>
   </print>
   <attributes>
    <staff-details number="1" print-object="yes" />
   </attributes>
   <note color="#000000" default-x="70">
    <pitch>
     <step>D</step>
     <octave>5</octave>
    </pitch>
    <duration>512</duration>
    <instrument id="P1-I1" />
    <voice>1</voice>
    <type>half</type>
    <stem>down</stem>
    <staff>1</staff>
    <notations>
     <slur color="#000000" type="start" orientation="over" />
    </notations>
    <lyric default-y="-82" number="1" color="#000000">
     <syllabic>begin</syllabic>
     <text>Al</text>
    </lyric>
   </note>
  </measure>
  <measure number="14" width="182">
   <note color="#000000" default-x="15">
    <pitch>
     <step>E</step>
     <octave>5</octave>
    </pitch>
    <duration>256</duration>
    <instrument id="P1-I1" />
    <voice>1</voice>
    <type>quarter</type>
    <stem>down</stem>
    <staff>1</staff>
    <notations>
     <slur color="#000000" type="stop" orientation="over" />
    </notations>
   </note>
   <note color="#000000" default-x="55">
    <pitch>
     <step>D</step>
     <octave>5</octave>
    </pitch>
    <duration>128</duration>
    <instrument id="P1-I1" />
    <voice>1</voice>
    <type>eighth</type>
    <stem>down</stem>
    <staff>1</staff>
    <beam number="1">begin</beam>
    <lyric default-y="-82" number="1" color="#000000">
     <syllabic>middle</syllabic>
     <text>le</text>
    </lyric>
   </note>
   <note color="#000000" default-x="84">
    <pitch>
     <step>C</step>
     <octave>5</octave>
    </pitch>
    <duration>128</duration>
    <instrument id="P1-I1" />
    <voice>1</voice>
    <type>eighth</type>
    <stem>down</stem>
    <staff>1</staff>
    <beam number="1">end</beam>
   </note>
   <note color="#000000" default-x="114">
    <pitch>
     <step>D</step>
     <octave>5</octave>
    </pitch>
    <duration>512</duration>
    <instrument id="P1-I1" />
    <voice>1</voice>
    <type>half</type>
    <stem>down</stem>
    <staff>1</staff>
    <lyric default-y="-82" number="1" color="#000000">
     <syllabic>middle</syllabic>
     <text>lu</text>
    </lyric>
   </note>
  </measure>
  <measure number="15" width="161">
   <note color="#000000" default-x="3">
    <pitch>
     <step>G</step>
     <octave>4</octave>
    </pitch>
    <duration>768</duration>
    <instrument id="P1-I1" />
    <voice>1</voice>
    <type>half</type>
    <dot />
    <stem>up</stem>
    <staff>1</staff>
    <lyric default-y="-82" number="1" color="#000000">
     <syllabic>end</syllabic>
     <text>ia!</text>
    </lyric>
   </note>
   <note color="#000000" default-x="102">
    <pitch>
     <step>A</step>
     <octave>4</octave>
    </pitch>
    <duration>128</duration>
    <instrument id="P1-I1" />
    <voice>1</voice>
    <type>eighth</type>
    <stem>up</stem>
    <staff>1</staff>
    <beam number="1">begin</beam>
    <notations>
     <slur color="#000000" type="start" orientation="over" />
    </notations>
    <lyric default-y="-82" number="1" color="#000000">
     <syllabic>begin</syllabic>
     <text>Al</text>
    </lyric>
   </note>
   <note color="#000000" default-x="132">
    <pitch>
     <step>B</step>
     <octave>4</octave>
    </pitch>
    <duration>128</duration>
    <instrument id="P1-I1" />
    <voice>1</voice>
    <type>eighth</type>
    <stem>up</stem>
    <staff>1</staff>
    <beam number="1">end</beam>
   </note>
  </measure>
  <measure number="16" width="164">
   <note color="#000000" default-x="15">
    <pitch>
     <step>C</step>
     <octave>5</octave>
    </pitch>
    <duration>256</duration>
    <instrument id="P1-I1" />
    <voice>1</voice>
    <type>quarter</type>
    <stem>down</stem>
    <staff>1</staff>
    <notations>
     <slur color="#000000" type="stop" orientation="over" />
    </notations>
   </note>
   <note color="#000000" default-x="55">
    <pitch>
     <step>B</step>
     <octave>4</octave>
    </pitch>
    <duration>256</duration>
    <instrument id="P1-I1" />
    <voice>1</voice>
    <type>quarter</type>
    <stem>down</stem>
    <staff>1</staff>
    <lyric default-y="-82" number="1" color="#000000">
     <syllabic>middle</syllabic>
     <text>le</text>
    </lyric>
   </note>
   <note color="#000000" default-x="95">
    <pitch>
     <step>A</step>
     <octave>4</octave>
    </pitch>
    <duration>512</duration>
    <instrument id="P1-I1" />
    <voice>1</voice>
    <type>half</type>
    <stem>up</stem>
    <staff>1</staff>
    <lyric default-y="-82" number="1" color="#000000">
     <syllabic>middle</syllabic>
     <text>lu</text>
    </lyric>
   </note>
  </measure>
  <measure number="17" width="83">
   <note color="#000000" default-x="15">
    <pitch>
     <step>G</step>
     <octave>4</octave>
    </pitch>
    <duration>1024</duration>
    <instrument id="P1-I1" />
    <voice>1</voice>
    <type>whole</type>
    <stem>up</stem>
    <staff>1</staff>
    <lyric default-y="-82" number="1" color="#000000">
     <syllabic>end</syllabic>
     <text>ia!</text>
    </lyric>
   </note>
   <barline>
    <bar-style>light-heavy</bar-style>
   </barline>
  </measure>
 </part>
</score-partwise>
