<?xml version="1.0" encoding='UTF-8' standalone='no' ?>
<!DOCTYPE score-partwise PUBLIC "-//Recordare//DTD MusicXML 2.0 Partwise//EN" "http://www.musicxml.org/dtds/partwise.dtd">
<score-partwise version="2.0">
 <work>
  <work-title>Of the Father's Love Begotten</work-title>
 </work>
 <identification>
  <encoding>
   <encoding-date>2012-06-28</encoding-date>
   <encoder>jsk9</encoder>
   <software>Sibelius 7.0.0</software>
   <software>Direct export, not from Dolet</software>
   <encoding-description>Sibelius / MusicXML 2.0</encoding-description>
   <supports element="print" type="yes" value="yes" attribute="new-system" />
   <supports element="print" type="yes" value="yes" attribute="new-page" />
   <supports element="accidental" type="yes" />
   <supports element="beam" type="yes" />
   <supports element="stem" type="yes" />
  </encoding>
 </identification>
 <defaults>
  <scaling>
   <millimeters>149.098</millimeters>
   <tenths>955</tenths>
  </scaling>
  <page-layout>
   <page-height>1628</page-height>
   <page-width>955</page-width>
   <page-margins type="both">
    <left-margin>112</left-margin>
    <right-margin>112</right-margin>
    <top-margin>81</top-margin>
    <bottom-margin>81</bottom-margin>
   </page-margins>
  </page-layout>
  <system-layout>
   <system-distance>40</system-distance>
  </system-layout>
  <appearance>
   <line-width type="stem">0.9375</line-width>
   <line-width type="beam">5</line-width>
   <line-width type="staff">0.9375</line-width>
   <line-width type="light barline">1.5625</line-width>
   <line-width type="heavy barline">5</line-width>
   <line-width type="leger">1.5625</line-width>
   <line-width type="ending">1.5625</line-width>
   <line-width type="wedge">1.25</line-width>
   <line-width type="enclosure">0.9375</line-width>
   <line-width type="tuplet bracket">1.25</line-width>
   <line-width type="bracket">5</line-width>
   <line-width type="dashes">1.5625</line-width>
   <line-width type="extend">0.9375</line-width>
   <line-width type="octave shift">1.5625</line-width>
   <line-width type="pedal">1.5625</line-width>
   <line-width type="slur middle">1.5625</line-width>
   <line-width type="slur tip">0.625</line-width>
   <line-width type="tie middle">1.5625</line-width>
   <line-width type="tie tip">0.625</line-width>
   <note-size type="cue">75</note-size>
   <note-size type="grace">60</note-size>
  </appearance>
  <music-font font-family="Opus Std" font-size="17.6825" />
  <lyric-font font-family="Times New Roman" font-size="9.9464" />
  <lyric-language xml:lang="en" />
 </defaults>
 <credit page="1">
  <credit-words default-x="477" default-y="1502" font-family="Times New Roman" font-size="20.031" justify="center" valign="middle">Of the Father's Love Begotten</credit-words>
 </credit>
 <part-list>
  <score-part id="P1">
   <part-name>Piano</part-name>
   <part-name-display>
    <display-text>Piano</display-text>
   </part-name-display>
   <part-abbreviation>Pno.</part-abbreviation>
   <part-abbreviation-display>
    <display-text>Pno.</display-text>
   </part-abbreviation-display>
   <score-instrument id="P1-I1">
    <instrument-name>Piano (2)</instrument-name>
   </score-instrument>
  </score-part>
 </part-list>
 <part id="P1">
  <measure number="1" width="730">
   <print new-page="yes">
    <system-layout>
     <system-margins>
      <left-margin>0</left-margin>
      <right-margin>0</right-margin>
     </system-margins>
     <top-system-distance>163</top-system-distance>
    </system-layout>
   </print>
   <attributes>
    <divisions>256</divisions>
    <key color="#000000">
     <fifths>-3</fifths>
     <mode>major</mode>
    </key>
    <time color="#000000">
     <beats>4</beats>
     <beat-type>4</beat-type>
    </time>
    <staves>1</staves>
    <clef number="1" color="#000000">
     <sign>G</sign>
     <line>2</line>
    </clef>
    <staff-details number="1" print-object="yes" />
   </attributes>
   <note color="#000000" default-x="91">
    <pitch>
     <step>E</step>
     <alter>-1</alter>
     <octave>4</octave>
    </pitch>
    <duration>128</duration>
    <instrument id="P1-I1" />
    <voice>1</voice>
    <type>eighth</type>
    <stem>up</stem>
    <staff>1</staff>
    <beam number="1">begin</beam>
    <lyric default-y="-78" number="1" color="#000000">
     <syllabic>single</syllabic>
     <text>1 Of</text>
    </lyric>
    <lyric default-y="-103" number="2" color="#000000">
     <syllabic>single</syllabic>
     <text>2 O</text>
    </lyric>
    <lyric default-y="-128" number="3" color="#000000">
     <syllabic>single</syllabic>
     <text>3 Let</text>
    </lyric>
    <lyric default-y="-153" number="4" color="#000000">
     <syllabic>single</syllabic>
     <text>4 Christ,</text>
    </lyric>
   </note>
   <note color="#000000" default-x="159">
    <pitch>
     <step>F</step>
     <octave>4</octave>
    </pitch>
    <duration>128</duration>
    <instrument id="P1-I1" />
    <voice>1</voice>
    <type>eighth</type>
    <stem>up</stem>
    <staff>1</staff>
    <beam number="1">end</beam>
    <lyric default-y="-78" number="1" color="#000000">
     <syllabic>single</syllabic>
     <text>the</text>
    </lyric>
    <lyric default-y="-103" number="2" color="#000000">
     <syllabic>single</syllabic>
     <text>that</text>
    </lyric>
    <lyric default-y="-128" number="3" color="#000000">
     <syllabic>single</syllabic>
     <text>the</text>
    </lyric>
    <lyric default-y="-153" number="4" color="#000000">
     <syllabic>single</syllabic>
     <text>to</text>
    </lyric>
   </note>
   <note color="#000000" default-x="227">
    <pitch>
     <step>G</step>
     <octave>4</octave>
    </pitch>
    <duration>128</duration>
    <instrument id="P1-I1" />
    <voice>1</voice>
    <type>eighth</type>
    <stem>up</stem>
    <staff>1</staff>
    <beam number="1">begin</beam>
    <lyric default-y="-78" number="1" color="#000000">
     <syllabic>begin</syllabic>
     <text>Fa</text>
    </lyric>
    <lyric default-y="-103" number="2" color="#000000">
     <syllabic>single</syllabic>
     <text>birth</text>
    </lyric>
    <lyric default-y="-128" number="3" color="#000000">
     <syllabic>single</syllabic>
     <text>heights</text>
    </lyric>
    <lyric default-y="-153" number="4" color="#000000">
     <syllabic>single</syllabic>
     <text>thee,</text>
    </lyric>
   </note>
   <note color="#000000" default-x="295">
    <pitch>
     <step>A</step>
     <alter>-1</alter>
     <octave>4</octave>
    </pitch>
    <duration>128</duration>
    <instrument id="P1-I1" />
    <voice>1</voice>
    <type>eighth</type>
    <stem>up</stem>
    <staff>1</staff>
    <beam number="1">end</beam>
    <lyric default-y="-78" number="1" color="#000000">
     <syllabic>end</syllabic>
     <text>ther's</text>
    </lyric>
    <lyric default-y="-103" number="2" color="#000000">
     <syllabic>begin</syllabic>
     <text>for</text>
    </lyric>
    <lyric default-y="-128" number="3" color="#000000">
     <syllabic>single</syllabic>
     <text>of</text>
    </lyric>
    <lyric default-y="-153" number="4" color="#000000">
     <syllabic>single</syllabic>
     <text>with</text>
    </lyric>
   </note>
   <note color="#000000" default-x="364">
    <pitch>
     <step>G</step>
     <octave>4</octave>
    </pitch>
    <duration>128</duration>
    <instrument id="P1-I1" />
    <voice>1</voice>
    <type>eighth</type>
    <stem>up</stem>
    <staff>1</staff>
    <beam number="1">begin</beam>
    <lyric default-y="-78" number="1" color="#000000">
     <syllabic>single</syllabic>
     <text>love</text>
    </lyric>
    <lyric default-y="-103" number="2" color="#000000">
     <syllabic>middle</syllabic>
     <text>e</text>
    </lyric>
    <lyric default-y="-128" number="3" color="#000000">
     <syllabic>single</syllabic>
     <text>heaven</text>
    </lyric>
    <lyric default-y="-153" number="4" color="#000000">
     <syllabic>single</syllabic>
     <text>God</text>
    </lyric>
   </note>
   <note color="#000000" default-x="432">
    <pitch>
     <step>F</step>
     <octave>4</octave>
    </pitch>
    <duration>128</duration>
    <instrument id="P1-I1" />
    <voice>1</voice>
    <type>eighth</type>
    <stem>up</stem>
    <staff>1</staff>
    <beam number="1">end</beam>
    <lyric default-y="-78" number="1" color="#000000">
     <syllabic>begin</syllabic>
     <text>be</text>
    </lyric>
    <lyric default-y="-103" number="2" color="#000000">
     <syllabic>end</syllabic>
     <text>ver</text>
    </lyric>
    <lyric default-y="-128" number="3" color="#000000">
     <syllabic>begin</syllabic>
     <text>a</text>
    </lyric>
    <lyric default-y="-153" number="4" color="#000000">
     <syllabic>end</syllabic>
     <text>the</text>
    </lyric>
   </note>
   <note color="#000000" default-x="500">
    <pitch>
     <step>G</step>
     <octave>4</octave>
    </pitch>
    <duration>128</duration>
    <instrument id="P1-I1" />
    <voice>1</voice>
    <type>eighth</type>
    <stem>up</stem>
    <staff>1</staff>
    <beam number="1">begin</beam>
    <notations>
     <slur color="#000000" type="start" orientation="under" />
    </notations>
    <lyric default-y="-78" number="1" color="#000000">
     <syllabic>middle</syllabic>
     <text>got</text>
    </lyric>
    <lyric default-y="-103" number="2" color="#000000">
     <syllabic>begin</syllabic>
     <text>bles</text>
    </lyric>
    <lyric default-y="-128" number="3" color="#000000">
     <syllabic>single</syllabic>
     <text>dore</text>
     <extend />
    </lyric>
    <lyric default-y="-153" number="4" color="#000000">
     <syllabic>begin</syllabic>
     <text>Fa</text>
    </lyric>
   </note>
   <note color="#000000" default-x="568">
    <pitch>
     <step>F</step>
     <octave>4</octave>
    </pitch>
    <duration>128</duration>
    <instrument id="P1-I1" />
    <voice>1</voice>
    <type>eighth</type>
    <stem>up</stem>
    <staff>1</staff>
    <beam number="1">end</beam>
    <notations>
     <slur color="#000000" type="stop" orientation="under" />
    </notations>
   </note>
   <note color="#000000" default-x="636">
    <pitch>
     <step>E</step>
     <alter>-1</alter>
     <octave>4</octave>
    </pitch>
    <duration>256</duration>
    <instrument id="P1-I1" />
    <voice>1</voice>
    <type>quarter</type>
    <stem>up</stem>
    <staff>1</staff>
    <lyric default-y="-78" number="1" color="#000000">
     <syllabic>end</syllabic>
     <text>ten,</text>
    </lyric>
    <lyric default-y="-103" number="2" color="#000000">
     <syllabic>end</syllabic>
     <text>sed,</text>
    </lyric>
    <lyric default-y="-128" number="3" color="#000000">
     <syllabic>end</syllabic>
     <text>him;</text>
    </lyric>
    <lyric default-y="-153" number="4" color="#000000">
     <syllabic>single</syllabic>
     <text>ther,</text>
    </lyric>
   </note>
  </measure>
  <measure number="2" width="730">
   <print new-system="yes">
    <system-layout>
     <system-margins>
      <left-margin>0</left-margin>
      <right-margin>0</right-margin>
     </system-margins>
     <system-distance>172</system-distance>
    </system-layout>
   </print>
   <attributes>
    <staff-details number="1" print-object="yes" />
   </attributes>
   <note color="#000000" default-x="91">
    <pitch>
     <step>G</step>
     <octave>4</octave>
    </pitch>
    <duration>128</duration>
    <instrument id="P1-I1" />
    <voice>1</voice>
    <type>eighth</type>
    <stem>up</stem>
    <staff>1</staff>
    <beam number="1">begin</beam>
    <lyric default-y="-78" number="1" color="#000000">
     <syllabic>single</syllabic>
     <text>ere</text>
    </lyric>
    <lyric default-y="-103" number="2" color="#000000">
     <syllabic>single</syllabic>
     <text>when</text>
    </lyric>
    <lyric default-y="-128" number="3" color="#000000">
     <syllabic>begin</syllabic>
     <text>an</text>
    </lyric>
    <lyric default-y="-153" number="4" color="#000000">
     <syllabic>end</syllabic>
     <text>and,</text>
    </lyric>
   </note>
   <note color="#000000" default-x="167">
    <pitch>
     <step>A</step>
     <alter>-1</alter>
     <octave>4</octave>
    </pitch>
    <duration>128</duration>
    <instrument id="P1-I1" />
    <voice>1</voice>
    <type>eighth</type>
    <stem>up</stem>
    <staff>1</staff>
    <beam number="1">end</beam>
    <lyric default-y="-78" number="1" color="#000000">
     <syllabic>single</syllabic>
     <text>the</text>
    </lyric>
    <lyric default-y="-103" number="2" color="#000000">
     <syllabic>single</syllabic>
     <text>a</text>
    </lyric>
    <lyric default-y="-128" number="3" color="#000000">
     <syllabic>single</syllabic>
     <text>gel</text>
    </lyric>
    <lyric default-y="-153" number="4" color="#000000">
     <syllabic>single</syllabic>
     <text>O</text>
    </lyric>
   </note>
   <note color="#000000" default-x="243">
    <pitch>
     <step>B</step>
     <alter>-1</alter>
     <octave>4</octave>
    </pitch>
    <duration>128</duration>
    <instrument id="P1-I1" />
    <voice>1</voice>
    <type>eighth</type>
    <stem>up</stem>
    <staff>1</staff>
    <beam number="1">begin</beam>
    <lyric default-y="-78" number="1" color="#000000">
     <syllabic>single</syllabic>
     <text>worlds</text>
    </lyric>
    <lyric default-y="-103" number="2" color="#000000">
     <syllabic>begin</syllabic>
     <text>vir</text>
    </lyric>
    <lyric default-y="-128" number="3" color="#000000">
     <syllabic>single</syllabic>
     <text>hosts</text>
    </lyric>
    <lyric default-y="-153" number="4" color="#000000">
     <syllabic>begin</syllabic>
     <text>Ho</text>
    </lyric>
   </note>
   <note color="#000000" default-x="320">
    <pitch>
     <step>C</step>
     <octave>5</octave>
    </pitch>
    <duration>128</duration>
    <instrument id="P1-I1" />
    <voice>1</voice>
    <type>eighth</type>
    <stem>up</stem>
    <staff>1</staff>
    <beam number="1">end</beam>
    <lyric default-y="-78" number="1" color="#000000">
     <syllabic>begin</syllabic>
     <text>be</text>
    </lyric>
    <lyric default-y="-103" number="2" color="#000000">
     <syllabic>end</syllabic>
     <text>gin,</text>
    </lyric>
    <lyric default-y="-128" number="3" color="#000000">
     <syllabic>end</syllabic>
     <text>his</text>
    </lyric>
    <lyric default-y="-153" number="4" color="#000000">
     <syllabic>single</syllabic>
     <text>ly</text>
    </lyric>
   </note>
   <note color="#000000" default-x="396">
    <pitch>
     <step>B</step>
     <alter>-1</alter>
     <octave>4</octave>
    </pitch>
    <duration>128</duration>
    <instrument id="P1-I1" />
    <voice>1</voice>
    <type>eighth</type>
    <stem>up</stem>
    <staff>1</staff>
    <beam number="1">begin</beam>
    <notations>
     <slur color="#000000" type="start" orientation="under" />
    </notations>
    <lyric default-y="-78" number="1" color="#000000">
     <syllabic>end</syllabic>
     <text>gan</text>
     <extend />
    </lyric>
    <lyric default-y="-103" number="2" color="#000000">
     <syllabic>single</syllabic>
     <text>blest</text>
     <extend />
    </lyric>
    <lyric default-y="-128" number="3" color="#000000">
     <syllabic>begin</syllabic>
     <text>prai</text>
    </lyric>
    <lyric default-y="-153" number="4" color="#000000">
     <syllabic>end</syllabic>
     <text>Ghost,</text>
     <extend />
    </lyric>
   </note>
   <note color="#000000" default-x="472">
    <pitch>
     <step>G</step>
     <octave>4</octave>
    </pitch>
    <duration>128</duration>
    <instrument id="P1-I1" />
    <voice>1</voice>
    <type>eighth</type>
    <stem>up</stem>
    <staff>1</staff>
    <beam number="1">end</beam>
    <notations>
     <slur color="#000000" type="stop" orientation="under" />
    </notations>
   </note>
   <note color="#000000" default-x="549">
    <pitch>
     <step>A</step>
     <alter>-1</alter>
     <octave>4</octave>
    </pitch>
    <duration>128</duration>
    <instrument id="P1-I1" />
    <voice>1</voice>
    <type>eighth</type>
    <stem>up</stem>
    <staff>1</staff>
    <beam number="1">begin</beam>
    <lyric default-y="-78" number="1" color="#000000">
     <syllabic>single</syllabic>
     <text>to</text>
    </lyric>
    <lyric default-y="-103" number="2" color="#000000">
     <syllabic>single</syllabic>
     <text>with</text>
    </lyric>
    <lyric default-y="-128" number="3" color="#000000">
     <syllabic>single</syllabic>
     <text>ses</text>
    </lyric>
    <lyric default-y="-153" number="4" color="#000000">
     <syllabic>single</syllabic>
     <text>to</text>
    </lyric>
   </note>
   <note color="#000000" default-x="625">
    <pitch>
     <step>B</step>
     <alter>-1</alter>
     <octave>4</octave>
    </pitch>
    <duration>256</duration>
    <instrument id="P1-I1" />
    <voice>1</voice>
    <type>quarter</type>
    <stem>down</stem>
    <staff>1</staff>
    <lyric default-y="-78" number="1" color="#000000">
     <syllabic>single</syllabic>
     <text>be,</text>
    </lyric>
    <lyric default-y="-103" number="2" color="#000000">
     <syllabic>single</syllabic>
     <text>grace,</text>
    </lyric>
    <lyric default-y="-128" number="3" color="#000000">
     <syllabic>single</syllabic>
     <text>sing:</text>
    </lyric>
    <lyric default-y="-153" number="4" color="#000000">
     <syllabic>single</syllabic>
     <text>thee,</text>
    </lyric>
   </note>
  </measure>
  <measure number="3" width="730">
   <print new-system="yes">
    <system-layout>
     <system-margins>
      <left-margin>0</left-margin>
      <right-margin>0</right-margin>
     </system-margins>
     <system-distance>172</system-distance>
    </system-layout>
   </print>
   <attributes>
    <staff-details number="1" print-object="yes" />
   </attributes>
   <note color="#000000" default-x="91">
    <pitch>
     <step>C</step>
     <octave>5</octave>
    </pitch>
    <duration>128</duration>
    <instrument id="P1-I1" />
    <voice>1</voice>
    <type>eighth</type>
    <stem>up</stem>
    <staff>1</staff>
    <beam number="1">begin</beam>
    <lyric default-y="-78" number="1" color="#000000">
     <syllabic>single</syllabic>
     <text>he</text>
    </lyric>
    <lyric default-y="-103" number="2" color="#000000">
     <syllabic>single</syllabic>
     <text>by</text>
    </lyric>
    <lyric default-y="-128" number="3" color="#000000">
     <syllabic>single</syllabic>
     <text>powers,</text>
    </lyric>
    <lyric default-y="-153" number="4" color="#000000">
     <syllabic>single</syllabic>
     <text>hymn</text>
    </lyric>
   </note>
   <note color="#000000" default-x="159">
    <pitch>
     <step>D</step>
     <octave>5</octave>
    </pitch>
    <duration>128</duration>
    <instrument id="P1-I1" />
    <voice>1</voice>
    <type>eighth</type>
    <stem>up</stem>
    <staff>1</staff>
    <beam number="1">end</beam>
    <lyric default-y="-78" number="1" color="#000000">
     <syllabic>single</syllabic>
     <text>is</text>
    </lyric>
    <lyric default-y="-103" number="2" color="#000000">
     <syllabic>single</syllabic>
     <text>the</text>
    </lyric>
    <lyric default-y="-128" number="3" color="#000000">
     <syllabic>begin</syllabic>
     <text>do</text>
    </lyric>
    <lyric default-y="-153" number="4" color="#000000">
     <syllabic>end</syllabic>
     <text>and</text>
    </lyric>
   </note>
   <note color="#000000" default-x="227">
    <pitch>
     <step>E</step>
     <alter>-1</alter>
     <octave>5</octave>
    </pitch>
    <duration>128</duration>
    <instrument id="P1-I1" />
    <voice>1</voice>
    <type>eighth</type>
    <stem>up</stem>
    <staff>1</staff>
    <beam number="1">begin</beam>
    <lyric default-y="-78" number="1" color="#000000">
     <syllabic>begin</syllabic>
     <text>Al</text>
    </lyric>
    <lyric default-y="-103" number="2" color="#000000">
     <syllabic>begin</syllabic>
     <text>Ho</text>
    </lyric>
    <lyric default-y="-128" number="3" color="#000000">
     <syllabic>begin</syllabic>
     <text>mi</text>
    </lyric>
    <lyric default-y="-153" number="4" color="#000000">
     <syllabic>end</syllabic>
     <text>chant</text>
    </lyric>
   </note>
   <note color="#000000" default-x="295">
    <pitch>
     <step>B</step>
     <alter>-1</alter>
     <octave>4</octave>
    </pitch>
    <duration>128</duration>
    <instrument id="P1-I1" />
    <voice>1</voice>
    <type>eighth</type>
    <stem>up</stem>
    <staff>1</staff>
    <beam number="1">end</beam>
    <lyric default-y="-78" number="1" color="#000000">
     <syllabic>end</syllabic>
     <text>pha</text>
    </lyric>
    <lyric default-y="-103" number="2" color="#000000">
     <syllabic>end</syllabic>
     <text>ly</text>
    </lyric>
    <lyric default-y="-128" number="3" color="#000000">
     <syllabic>single</syllabic>
     <text>nions,</text>
    </lyric>
    <lyric default-y="-153" number="4" color="#000000">
     <syllabic>single</syllabic>
     <text>and</text>
    </lyric>
   </note>
   <note color="#000000" default-x="364">
    <pitch>
     <step>B</step>
     <alter>-1</alter>
     <octave>4</octave>
    </pitch>
    <duration>128</duration>
    <instrument id="P1-I1" />
    <voice>1</voice>
    <type>eighth</type>
    <stem>up</stem>
    <staff>1</staff>
    <beam number="1">begin</beam>
    <lyric default-y="-78" number="1" color="#000000">
     <syllabic>single</syllabic>
     <text>and</text>
    </lyric>
    <lyric default-y="-103" number="2" color="#000000">
     <syllabic>single</syllabic>
     <text>Ghost</text>
    </lyric>
    <lyric default-y="-128" number="3" color="#000000">
     <syllabic>single</syllabic>
     <text>bow</text>
    </lyric>
    <lyric default-y="-153" number="4" color="#000000">
     <syllabic>single</syllabic>
     <text>high</text>
    </lyric>
   </note>
   <note color="#000000" default-x="432">
    <pitch>
     <step>A</step>
     <alter>-1</alter>
     <octave>4</octave>
    </pitch>
    <duration>128</duration>
    <instrument id="P1-I1" />
    <voice>1</voice>
    <type>eighth</type>
    <stem>up</stem>
    <staff>1</staff>
    <beam number="1">end</beam>
    <lyric default-y="-78" number="1" color="#000000">
     <syllabic>begin</syllabic>
     <text>O</text>
    </lyric>
    <lyric default-y="-103" number="2" color="#000000">
     <syllabic>begin</syllabic>
     <text>con</text>
    </lyric>
    <lyric default-y="-128" number="3" color="#000000">
     <syllabic>begin</syllabic>
     <text>be</text>
    </lyric>
    <lyric default-y="-153" number="4" color="#000000">
     <syllabic>middle</syllabic>
     <text>thanks</text>
    </lyric>
   </note>
   <note color="#000000" default-x="500">
    <pitch>
     <step>G</step>
     <octave>4</octave>
    </pitch>
    <duration>128</duration>
    <instrument id="P1-I1" />
    <voice>1</voice>
    <type>eighth</type>
    <stem>up</stem>
    <staff>1</staff>
    <beam number="1">begin</beam>
    <notations>
     <slur color="#000000" type="start" orientation="under" />
    </notations>
    <lyric default-y="-78" number="1" color="#000000">
     <syllabic>middle</syllabic>
     <text>me</text>
    </lyric>
    <lyric default-y="-103" number="2" color="#000000">
     <syllabic>middle</syllabic>
     <text>ceiv</text>
    </lyric>
    <lyric default-y="-128" number="3" color="#000000">
     <syllabic>end</syllabic>
     <text>fore</text>
     <extend />
    </lyric>
    <lyric default-y="-153" number="4" color="#000000">
     <syllabic>begin</syllabic>
     <text>gi</text>
    </lyric>
   </note>
   <note color="#000000" default-x="568">
    <pitch>
     <step>F</step>
     <octave>4</octave>
    </pitch>
    <duration>128</duration>
    <instrument id="P1-I1" />
    <voice>1</voice>
    <type>eighth</type>
    <stem>up</stem>
    <staff>1</staff>
    <beam number="1">end</beam>
    <notations>
     <slur color="#000000" type="stop" orientation="under" />
    </notations>
   </note>
   <note color="#000000" default-x="636">
    <pitch>
     <step>C</step>
     <octave>4</octave>
    </pitch>
    <duration>256</duration>
    <instrument id="P1-I1" />
    <voice>1</voice>
    <type>quarter</type>
    <stem>up</stem>
    <staff>1</staff>
    <lyric default-y="-78" number="1" color="#000000">
     <syllabic>end</syllabic>
     <text>ga</text>
    </lyric>
    <lyric default-y="-103" number="2" color="#000000">
     <syllabic>end</syllabic>
     <text>ing,</text>
    </lyric>
    <lyric default-y="-128" number="3" color="#000000">
     <syllabic>end</syllabic>
     <text>him,</text>
    </lyric>
    <lyric default-y="-153" number="4" color="#000000">
     <syllabic>single</syllabic>
     <text>ving</text>
    </lyric>
   </note>
   <note color="#000000" default-x="636">
    <chord />
    <pitch>
     <step>E</step>
     <alter>-1</alter>
     <octave>4</octave>
    </pitch>
    <duration>256</duration>
    <instrument id="P1-I1" />
    <type>quarter</type>
    <staff>1</staff>
   </note>
  </measure>
  <measure number="4" width="730">
   <print new-system="yes">
    <system-layout>
     <system-margins>
      <left-margin>0</left-margin>
      <right-margin>0</right-margin>
     </system-margins>
     <system-distance>166</system-distance>
    </system-layout>
   </print>
   <attributes>
    <staff-details number="1" print-object="yes" />
   </attributes>
   <note color="#000000" default-x="91">
    <pitch>
     <step>C</step>
     <octave>4</octave>
    </pitch>
    <duration>128</duration>
    <instrument id="P1-I1" />
    <voice>1</voice>
    <type>eighth</type>
    <stem>up</stem>
    <staff>1</staff>
    <beam number="1">begin</beam>
    <lyric default-y="-80" number="1" color="#000000">
     <syllabic>single</syllabic>
     <text>he</text>
    </lyric>
    <lyric default-y="-105" number="2" color="#000000">
     <syllabic>single</syllabic>
     <text>bore</text>
    </lyric>
    <lyric default-y="-130" number="3" color="#000000">
     <syllabic>single</syllabic>
     <text>and</text>
    </lyric>
    <lyric default-y="-155" number="4" color="#000000">
     <syllabic>single</syllabic>
     <text>and</text>
    </lyric>
   </note>
   <note color="#000000" default-x="168">
    <pitch>
     <step>D</step>
     <octave>4</octave>
    </pitch>
    <duration>128</duration>
    <instrument id="P1-I1" />
    <voice>1</voice>
    <type>eighth</type>
    <stem>up</stem>
    <staff>1</staff>
    <beam number="1">end</beam>
    <lyric default-y="-80" number="1" color="#000000">
     <syllabic>single</syllabic>
     <text>the</text>
    </lyric>
    <lyric default-y="-105" number="2" color="#000000">
     <syllabic>single</syllabic>
     <text>the</text>
    </lyric>
    <lyric default-y="-130" number="3" color="#000000">
     <syllabic>begin</syllabic>
     <text>ex</text>
    </lyric>
    <lyric default-y="-155" number="4" color="#000000">
     <syllabic>middle</syllabic>
     <text>un</text>
    </lyric>
   </note>
   <note color="#000000" default-x="245">
    <pitch>
     <step>E</step>
     <alter>-1</alter>
     <octave>4</octave>
    </pitch>
    <duration>128</duration>
    <instrument id="P1-I1" />
    <voice>1</voice>
    <type>eighth</type>
    <stem>up</stem>
    <staff>1</staff>
    <beam number="1">begin</beam>
    <lyric default-y="-80" number="1" color="#000000">
     <syllabic>single</syllabic>
     <text>source,</text>
    </lyric>
    <lyric default-y="-105" number="2" color="#000000">
     <syllabic>begin</syllabic>
     <text>Sa</text>
    </lyric>
    <lyric default-y="-130" number="3" color="#000000">
     <syllabic>end</syllabic>
     <text>tol</text>
    </lyric>
    <lyric default-y="-155" number="4" color="#000000">
     <syllabic>begin</syllabic>
     <text>wea</text>
    </lyric>
   </note>
   <note color="#000000" default-x="322">
    <pitch>
     <step>F</step>
     <octave>4</octave>
    </pitch>
    <duration>128</duration>
    <instrument id="P1-I1" />
    <voice>1</voice>
    <type>eighth</type>
    <stem>up</stem>
    <staff>1</staff>
    <beam number="1">end</beam>
    <lyric default-y="-80" number="1" color="#000000">
     <syllabic>single</syllabic>
     <text>the</text>
    </lyric>
    <lyric default-y="-105" number="2" color="#000000">
     <syllabic>end</syllabic>
     <text>vior</text>
    </lyric>
    <lyric default-y="-130" number="3" color="#000000">
     <syllabic>end</syllabic>
     <text>our</text>
    </lyric>
    <lyric default-y="-155" number="4" color="#000000">
     <syllabic>single</syllabic>
     <text>ried</text>
    </lyric>
   </note>
   <note color="#000000" default-x="400">
    <pitch>
     <step>E</step>
     <alter>-1</alter>
     <octave>4</octave>
    </pitch>
    <duration>128</duration>
    <instrument id="P1-I1" />
    <voice>1</voice>
    <type>eighth</type>
    <stem>up</stem>
    <staff>1</staff>
    <beam number="1">begin</beam>
    <notations>
     <slur color="#000000" type="start" orientation="under" />
    </notations>
    <lyric default-y="-80" number="1" color="#000000">
     <syllabic>begin</syllabic>
     <text>en</text>
    </lyric>
    <lyric default-y="-105" number="2" color="#000000">
     <syllabic>single</syllabic>
     <text>of</text>
     <extend />
    </lyric>
    <lyric default-y="-130" number="3" color="#000000">
     <syllabic>single</syllabic>
     <text>God</text>
     <extend />
    </lyric>
    <lyric default-y="-155" number="4" color="#000000">
     <syllabic>begin</syllabic>
     <text>prai</text>
    </lyric>
   </note>
   <note color="#000000" default-x="477">
    <pitch>
     <step>C</step>
     <octave>4</octave>
    </pitch>
    <duration>128</duration>
    <instrument id="P1-I1" />
    <voice>1</voice>
    <type>eighth</type>
    <stem>up</stem>
    <staff>1</staff>
    <beam number="1">end</beam>
    <notations>
     <slur color="#000000" type="stop" orientation="under" />
    </notations>
   </note>
   <note color="#000000" default-x="554">
    <pitch>
     <step>D</step>
     <octave>4</octave>
    </pitch>
    <duration>128</duration>
    <instrument id="P1-I1" />
    <voice>1</voice>
    <type>eighth</type>
    <stem>up</stem>
    <staff>1</staff>
    <beam number="1">begin</beam>
    <lyric default-y="-80" number="1" color="#000000">
     <syllabic>end</syllabic>
     <text>ding</text>
    </lyric>
    <lyric default-y="-105" number="2" color="#000000">
     <syllabic>single</syllabic>
     <text>our</text>
    </lyric>
    <lyric default-y="-130" number="3" color="#000000">
     <syllabic>end</syllabic>
     <text>and</text>
    </lyric>
    <lyric default-y="-155" number="4" color="#000000">
     <syllabic>single</syllabic>
     <text>ses</text>
    </lyric>
   </note>
   <note color="#000000" default-x="631">
    <pitch>
     <step>E</step>
     <alter>-1</alter>
     <octave>4</octave>
    </pitch>
    <duration>256</duration>
    <instrument id="P1-I1" />
    <voice>1</voice>
    <type>quarter</type>
    <stem>up</stem>
    <staff>1</staff>
    <lyric default-y="-80" number="1" color="#000000">
     <syllabic>single</syllabic>
     <text>he,</text>
    </lyric>
    <lyric default-y="-105" number="2" color="#000000">
     <syllabic>single</syllabic>
     <text>race;</text>
    </lyric>
    <lyric default-y="-130" number="3" color="#000000">
     <syllabic>single</syllabic>
     <text>King;</text>
    </lyric>
    <lyric default-y="-155" number="4" color="#000000">
     <syllabic>single</syllabic>
     <text>be:</text>
    </lyric>
   </note>
  </measure>
  <measure number="5" width="540">
   <print new-system="yes">
    <system-layout>
     <system-margins>
      <left-margin>0</left-margin>
      <right-margin>0</right-margin>
     </system-margins>
     <system-distance>207</system-distance>
    </system-layout>
   </print>
   <attributes>
    <staff-details number="1" print-object="yes" />
   </attributes>
   <note color="#000000" default-x="91">
    <pitch>
     <step>E</step>
     <alter>-1</alter>
     <octave>4</octave>
    </pitch>
    <duration>128</duration>
    <instrument id="P1-I1" />
    <voice>1</voice>
    <type>eighth</type>
    <stem>up</stem>
    <staff>1</staff>
    <beam number="1">begin</beam>
    <lyric default-y="-78" number="1" color="#000000">
     <syllabic>single</syllabic>
     <text>of</text>
    </lyric>
    <lyric default-y="-103" number="2" color="#000000">
     <syllabic>single</syllabic>
     <text>and</text>
    </lyric>
    <lyric default-y="-128" number="3" color="#000000">
     <syllabic>single</syllabic>
     <text>let</text>
    </lyric>
    <lyric default-y="-153" number="4" color="#000000">
     <syllabic>begin</syllabic>
     <text>ho</text>
    </lyric>
   </note>
   <note color="#000000" default-x="129">
    <pitch>
     <step>F</step>
     <octave>4</octave>
    </pitch>
    <duration>128</duration>
    <instrument id="P1-I1" />
    <voice>1</voice>
    <type>eighth</type>
    <stem>up</stem>
    <staff>1</staff>
    <beam number="1">end</beam>
    <lyric default-y="-78" number="1" color="#000000">
     <syllabic>single</syllabic>
     <text>the</text>
    </lyric>
    <lyric default-y="-103" number="2" color="#000000">
     <syllabic>single</syllabic>
     <text>the</text>
    </lyric>
    <lyric default-y="-128" number="3" color="#000000">
     <syllabic>end</syllabic>
     <text>no</text>
    </lyric>
    <lyric default-y="-153" number="4" color="#000000">
     <syllabic>single</syllabic>
     <text>nor,</text>
    </lyric>
   </note>
   <note color="#000000" default-x="179">
    <pitch>
     <step>G</step>
     <octave>4</octave>
    </pitch>
    <duration>128</duration>
    <instrument id="P1-I1" />
    <voice>1</voice>
    <type>eighth</type>
    <stem>up</stem>
    <staff>1</staff>
    <beam number="1">begin</beam>
    <lyric default-y="-78" number="1" color="#000000">
     <syllabic>single</syllabic>
     <text>things</text>
    </lyric>
    <lyric default-y="-103" number="2" color="#000000">
     <syllabic>single</syllabic>
     <text>babe,</text>
    </lyric>
    <lyric default-y="-128" number="3" color="#000000">
     <syllabic>single</syllabic>
     <text>tongue</text>
    </lyric>
    <lyric default-y="-153" number="4" color="#000000">
     <syllabic>begin</syllabic>
     <text>glo</text>
    </lyric>
   </note>
   <note color="#000000" default-x="230">
    <pitch>
     <step>A</step>
     <alter>-1</alter>
     <octave>4</octave>
    </pitch>
    <duration>128</duration>
    <instrument id="P1-I1" />
    <voice>1</voice>
    <type>eighth</type>
    <stem>up</stem>
    <staff>1</staff>
    <beam number="1">end</beam>
    <lyric default-y="-78" number="1" color="#000000">
     <syllabic>single</syllabic>
     <text>that</text>
    </lyric>
    <lyric default-y="-103" number="2" color="#000000">
     <syllabic>single</syllabic>
     <text>the</text>
    </lyric>
    <lyric default-y="-128" number="3" color="#000000">
     <syllabic>end</syllabic>
     <text>on</text>
    </lyric>
    <lyric default-y="-153" number="4" color="#000000">
     <syllabic>single</syllabic>
     <text>ry,</text>
    </lyric>
   </note>
   <note color="#000000" default-x="284">
    <pitch>
     <step>G</step>
     <octave>4</octave>
    </pitch>
    <duration>128</duration>
    <instrument id="P1-I1" />
    <voice>1</voice>
    <type>eighth</type>
    <stem>up</stem>
    <staff>1</staff>
    <beam number="1">begin</beam>
    <lyric default-y="-78" number="1" color="#000000">
     <syllabic>single</syllabic>
     <text>are,</text>
    </lyric>
    <lyric default-y="-103" number="2" color="#000000">
     <syllabic>single</syllabic>
     <text>world's</text>
    </lyric>
    <lyric default-y="-128" number="3" color="#000000">
     <syllabic>single</syllabic>
     <text>earth</text>
    </lyric>
    <lyric default-y="-153" number="4" color="#000000">
     <syllabic>single</syllabic>
     <text>and</text>
    </lyric>
   </note>
   <note color="#000000" default-x="337">
    <pitch>
     <step>F</step>
     <octave>4</octave>
    </pitch>
    <duration>128</duration>
    <instrument id="P1-I1" />
    <voice>1</voice>
    <type>eighth</type>
    <stem>up</stem>
    <staff>1</staff>
    <beam number="1">end</beam>
    <lyric default-y="-78" number="1" color="#000000">
     <syllabic>single</syllabic>
     <text>that</text>
    </lyric>
    <lyric default-y="-103" number="2" color="#000000">
     <syllabic>begin</syllabic>
     <text>Re</text>
    </lyric>
    <lyric default-y="-128" number="3" color="#000000">
     <syllabic>single</syllabic>
     <text>be</text>
    </lyric>
    <lyric default-y="-153" number="4" color="#000000">
     <syllabic>begin</syllabic>
     <text>do</text>
    </lyric>
   </note>
   <note color="#000000" default-x="368">
    <pitch>
     <step>B</step>
     <alter>-1</alter>
     <octave>4</octave>
    </pitch>
    <duration>128</duration>
    <instrument id="P1-I1" />
    <voice>1</voice>
    <type>eighth</type>
    <stem>up</stem>
    <staff>1</staff>
    <beam number="1">begin</beam>
    <notations>
     <slur color="#000000" type="start" orientation="under" />
    </notations>
    <lyric default-y="-78" number="1" color="#000000">
     <syllabic>single</syllabic>
     <text>have</text>
     <extend />
    </lyric>
    <lyric default-y="-103" number="2" color="#000000">
     <syllabic>middle</syllabic>
     <text>dee</text>
    </lyric>
    <lyric default-y="-128" number="3" color="#000000">
     <syllabic>middle</syllabic>
     <text>si</text>
    </lyric>
    <lyric default-y="-153" number="4" color="#000000">
     <syllabic>middle</syllabic>
     <text>mi</text>
    </lyric>
   </note>
   <note color="#000000" default-x="395">
    <pitch>
     <step>C</step>
     <octave>5</octave>
    </pitch>
    <duration>128</duration>
    <instrument id="P1-I1" />
    <voice>1</voice>
    <type>eighth</type>
    <stem>up</stem>
    <staff>1</staff>
    <beam number="1">end</beam>
   </note>
   <note color="#000000" default-x="422">
    <pitch>
     <step>B</step>
     <alter>-1</alter>
     <octave>4</octave>
    </pitch>
    <duration>128</duration>
    <instrument id="P1-I1" />
    <voice>1</voice>
    <type>eighth</type>
    <stem>up</stem>
    <staff>1</staff>
    <beam number="1">begin</beam>
   </note>
   <note color="#000000" default-x="449">
    <pitch>
     <step>G</step>
     <octave>4</octave>
    </pitch>
    <duration>128</duration>
    <instrument id="P1-I1" />
    <voice>1</voice>
    <type>eighth</type>
    <stem>up</stem>
    <staff>1</staff>
    <beam number="1">continue</beam>
   </note>
   <note color="#000000" default-x="476">
    <pitch>
     <step>A</step>
     <alter>-1</alter>
     <octave>4</octave>
    </pitch>
    <duration>128</duration>
    <instrument id="P1-I1" />
    <voice>1</voice>
    <type>eighth</type>
    <stem>up</stem>
    <staff>1</staff>
    <beam number="1">end</beam>
    <notations>
     <slur color="#000000" type="stop" orientation="under" />
    </notations>
   </note>
   <note color="#000000" default-x="503">
    <pitch>
     <step>B</step>
     <alter>-1</alter>
     <octave>4</octave>
    </pitch>
    <duration>256</duration>
    <instrument id="P1-I1" />
    <voice>1</voice>
    <type>quarter</type>
    <stem>up</stem>
    <staff>1</staff>
    <lyric default-y="-78" number="1" color="#000000">
     <syllabic>single</syllabic>
     <text>been,</text>
    </lyric>
    <lyric default-y="-103" number="2" color="#000000">
     <syllabic>end</syllabic>
     <text>mer,</text>
    </lyric>
    <lyric default-y="-128" number="3" color="#000000">
     <syllabic>end</syllabic>
     <text>lent,</text>
    </lyric>
    <lyric default-y="-153" number="4" color="#000000">
     <syllabic>single</syllabic>
     <text>nion,</text>
    </lyric>
   </note>
  </measure>
  <measure number="6" width="190">
   <note color="#000000" default-x="15">
    <pitch>
     <step>E</step>
     <alter>-1</alter>
     <octave>4</octave>
    </pitch>
    <duration>128</duration>
    <instrument id="P1-I1" />
    <voice>1</voice>
    <type>eighth</type>
    <stem>up</stem>
    <staff>1</staff>
    <beam number="1">begin</beam>
    <lyric default-y="-78" number="1" color="#000000">
     <syllabic>single</syllabic>
     <text>and</text>
    </lyric>
    <lyric default-y="-103" number="2" color="#000000">
     <syllabic>single</syllabic>
     <text>first</text>
    </lyric>
    <lyric default-y="-128" number="3" color="#000000">
     <syllabic>begin</syllabic>
     <text>ev</text>
    </lyric>
    <lyric default-y="-153" number="4" color="#000000">
     <syllabic>end</syllabic>
     <text>and</text>
    </lyric>
   </note>
   <note color="#000000" default-x="55">
    <pitch>
     <step>D</step>
     <octave>4</octave>
    </pitch>
    <duration>128</duration>
    <instrument id="P1-I1" />
    <voice>1</voice>
    <type>eighth</type>
    <stem>up</stem>
    <staff>1</staff>
    <beam number="1">end</beam>
    <lyric default-y="-78" number="1" color="#000000">
     <syllabic>single</syllabic>
     <text>that</text>
    </lyric>
    <lyric default-y="-103" number="2" color="#000000">
     <syllabic>begin</syllabic>
     <text>re</text>
    </lyric>
    <lyric default-y="-128" number="3" color="#000000">
     <syllabic>single</syllabic>
     <text>ery</text>
    </lyric>
    <lyric default-y="-153" number="4" color="#000000">
     <syllabic>begin</syllabic>
     <text>e</text>
    </lyric>
   </note>
   <note color="#000000" default-x="103">
    <pitch>
     <step>C</step>
     <octave>4</octave>
    </pitch>
    <duration>128</duration>
    <instrument id="P1-I1" />
    <voice>1</voice>
    <type>eighth</type>
    <stem>up</stem>
    <staff>1</staff>
    <beam number="1">begin</beam>
    <lyric default-y="-78" number="1" color="#000000">
     <syllabic>begin</syllabic>
     <text>fu</text>
    </lyric>
    <lyric default-y="-103" number="2" color="#000000">
     <syllabic>end</syllabic>
     <text>vealed</text>
    </lyric>
    <lyric default-y="-128" number="3" color="#000000">
     <syllabic>end</syllabic>
     <text>voice</text>
    </lyric>
    <lyric default-y="-153" number="4" color="#000000">
     <syllabic>begin</syllabic>
     <text>ter</text>
    </lyric>
   </note>
   <note color="#000000" default-x="153">
    <pitch>
     <step>D</step>
     <octave>4</octave>
    </pitch>
    <duration>128</duration>
    <instrument id="P1-I1" />
    <voice>1</voice>
    <type>eighth</type>
    <stem>up</stem>
    <staff>1</staff>
    <beam number="1">end</beam>
    <lyric default-y="-78" number="1" color="#000000">
     <syllabic>end</syllabic>
     <text>ture</text>
    </lyric>
    <lyric default-y="-103" number="2" color="#000000">
     <syllabic>single</syllabic>
     <text>his</text>
    </lyric>
    <lyric default-y="-128" number="3" color="#000000">
     <syllabic>end</syllabic>
     <text>in</text>
    </lyric>
    <lyric default-y="-153" number="4" color="#000000">
     <syllabic>single</syllabic>
     <text>nal</text>
    </lyric>
   </note>
   <barline>
    <bar-style>none</bar-style>
   </barline>
  </measure>
  <measure number="7" width="262">
   <print new-system="yes">
    <system-layout>
     <system-margins>
      <left-margin>0</left-margin>
      <right-margin>0</right-margin>
     </system-margins>
     <system-distance>185</system-distance>
    </system-layout>
   </print>
   <attributes>
    <staff-details number="1" print-object="yes" />
   </attributes>
   <note color="#000000" default-x="91">
    <pitch>
     <step>E</step>
     <alter>-1</alter>
     <octave>4</octave>
    </pitch>
    <duration>128</duration>
    <instrument id="P1-I1" />
    <voice>1</voice>
    <type>eighth</type>
    <stem>up</stem>
    <staff>1</staff>
    <beam number="1">begin</beam>
    <lyric default-y="-82" number="1" color="#000000">
     <syllabic>single</syllabic>
     <text>years</text>
    </lyric>
    <lyric default-y="-107" number="2" color="#000000">
     <syllabic>begin</syllabic>
     <text>sa</text>
    </lyric>
    <lyric default-y="-132" number="3" color="#000000">
     <syllabic>begin</syllabic>
     <text>con</text>
    </lyric>
    <lyric default-y="-157" number="4" color="#000000">
     <syllabic>middle</syllabic>
     <text>vic</text>
    </lyric>
   </note>
   <note color="#000000" default-x="143">
    <pitch>
     <step>C</step>
     <octave>4</octave>
    </pitch>
    <duration>128</duration>
    <instrument id="P1-I1" />
    <voice>1</voice>
    <type>eighth</type>
    <stem>up</stem>
    <staff>1</staff>
    <beam number="1">end</beam>
    <lyric default-y="-82" number="1" color="#000000">
     <syllabic>single</syllabic>
     <text>shall</text>
    </lyric>
    <lyric default-y="-107" number="2" color="#000000">
     <syllabic>end</syllabic>
     <text>cred</text>
    </lyric>
    <lyric default-y="-132" number="3" color="#000000">
     <syllabic>end</syllabic>
     <text>cert</text>
    </lyric>
    <lyric default-y="-157" number="4" color="#000000">
     <syllabic>begin</syllabic>
     <text>to</text>
    </lyric>
   </note>
   <note color="#000000" default-x="193">
    <pitch>
     <step>B</step>
     <alter>-1</alter>
     <octave>3</octave>
    </pitch>
    <duration>256</duration>
    <instrument id="P1-I1" />
    <voice>1</voice>
    <type>quarter</type>
    <stem>up</stem>
    <staff>1</staff>
    <lyric default-y="-82" number="1" color="#000000">
     <syllabic>single</syllabic>
     <text>see</text>
    </lyric>
    <lyric default-y="-107" number="2" color="#000000">
     <syllabic>single</syllabic>
     <text>face,</text>
    </lyric>
    <lyric default-y="-132" number="3" color="#000000">
     <syllabic>end</syllabic>
     <text>ring,</text>
    </lyric>
    <lyric default-y="-157" number="4" color="#000000">
     <syllabic>single</syllabic>
     <text>ry,</text>
    </lyric>
   </note>
  </measure>
  <measure number="8" width="468">
   <note color="#000000" default-x="15">
    <pitch>
     <step>E</step>
     <alter>-1</alter>
     <octave>4</octave>
    </pitch>
    <duration>128</duration>
    <instrument id="P1-I1" />
    <voice>1</voice>
    <type>eighth</type>
    <stem>up</stem>
    <staff>1</staff>
    <beam number="1">begin</beam>
    <lyric default-y="-82" number="1" color="#000000">
     <syllabic>begin</syllabic>
     <text>e</text>
    </lyric>
    <lyric default-y="-107" number="2" color="#000000">
     <syllabic>begin</syllabic>
     <text>e</text>
    </lyric>
    <lyric default-y="-132" number="3" color="#000000">
     <syllabic>begin</syllabic>
     <text>e</text>
    </lyric>
    <lyric default-y="-157" number="4" color="#000000">
     <syllabic>middle</syllabic>
     <text>e</text>
    </lyric>
   </note>
   <note color="#000000" default-x="65">
    <pitch>
     <step>F</step>
     <octave>4</octave>
    </pitch>
    <duration>128</duration>
    <instrument id="P1-I1" />
    <voice>1</voice>
    <type>eighth</type>
    <stem>up</stem>
    <staff>1</staff>
    <beam number="1">end</beam>
    <lyric default-y="-82" number="1" color="#000000">
     <syllabic>middle</syllabic>
     <text>ver</text>
    </lyric>
    <lyric default-y="-107" number="2" color="#000000">
     <syllabic>middle</syllabic>
     <text>ver</text>
    </lyric>
    <lyric default-y="-132" number="3" color="#000000">
     <syllabic>middle</syllabic>
     <text>ver</text>
    </lyric>
    <lyric default-y="-157" number="4" color="#000000">
     <syllabic>middle</syllabic>
     <text>ver</text>
    </lyric>
   </note>
   <note color="#000000" default-x="115">
    <pitch>
     <step>G</step>
     <octave>4</octave>
    </pitch>
    <duration>128</duration>
    <instrument id="P1-I1" />
    <voice>1</voice>
    <type>eighth</type>
    <stem>up</stem>
    <staff>1</staff>
    <beam number="1">begin</beam>
    <lyric default-y="-82" number="1" color="#000000">
     <syllabic>end</syllabic>
     <text>more</text>
    </lyric>
    <lyric default-y="-107" number="2" color="#000000">
     <syllabic>end</syllabic>
     <text>more</text>
    </lyric>
    <lyric default-y="-132" number="3" color="#000000">
     <syllabic>end</syllabic>
     <text>more</text>
    </lyric>
    <lyric default-y="-157" number="4" color="#000000">
     <syllabic>single</syllabic>
     <text>more</text>
    </lyric>
   </note>
   <note color="#000000" default-x="164">
    <pitch>
     <step>B</step>
     <alter>-1</alter>
     <octave>4</octave>
    </pitch>
    <duration>128</duration>
    <instrument id="P1-I1" />
    <voice>1</voice>
    <type>eighth</type>
    <stem>up</stem>
    <staff>1</staff>
    <beam number="1">end</beam>
    <lyric default-y="-82" number="1" color="#000000">
     <syllabic>single</syllabic>
     <text>and</text>
    </lyric>
    <lyric default-y="-107" number="2" color="#000000">
     <syllabic>single</syllabic>
     <text>and</text>
    </lyric>
    <lyric default-y="-132" number="3" color="#000000">
     <syllabic>single</syllabic>
     <text>and</text>
    </lyric>
    <lyric default-y="-157" number="4" color="#000000">
     <syllabic>single</syllabic>
     <text>and</text>
    </lyric>
   </note>
   <note color="#000000" default-x="214">
    <pitch>
     <step>G</step>
     <octave>4</octave>
    </pitch>
    <duration>128</duration>
    <instrument id="P1-I1" />
    <voice>1</voice>
    <type>eighth</type>
    <stem>up</stem>
    <staff>1</staff>
    <beam number="1">begin</beam>
    <lyric default-y="-82" number="1" color="#000000">
     <syllabic>begin</syllabic>
     <text>e</text>
    </lyric>
    <lyric default-y="-107" number="2" color="#000000">
     <syllabic>begin</syllabic>
     <text>e</text>
    </lyric>
    <lyric default-y="-132" number="3" color="#000000">
     <syllabic>begin</syllabic>
     <text>e</text>
    </lyric>
    <lyric default-y="-157" number="4" color="#000000">
     <syllabic>middle</syllabic>
     <text>e</text>
    </lyric>
   </note>
   <note color="#000000" default-x="264">
    <pitch>
     <step>E</step>
     <alter>-1</alter>
     <octave>4</octave>
    </pitch>
    <duration>128</duration>
    <instrument id="P1-I1" />
    <voice>1</voice>
    <type>eighth</type>
    <stem>up</stem>
    <staff>1</staff>
    <beam number="1">end</beam>
    <lyric default-y="-82" number="1" color="#000000">
     <syllabic>middle</syllabic>
     <text>ver</text>
    </lyric>
    <lyric default-y="-107" number="2" color="#000000">
     <syllabic>middle</syllabic>
     <text>ver</text>
    </lyric>
    <lyric default-y="-132" number="3" color="#000000">
     <syllabic>middle</syllabic>
     <text>ver</text>
    </lyric>
    <lyric default-y="-157" number="4" color="#000000">
     <syllabic>middle</syllabic>
     <text>ver</text>
    </lyric>
   </note>
   <note color="#000000" default-x="315">
    <pitch>
     <step>F</step>
     <octave>4</octave>
    </pitch>
    <duration>256</duration>
    <instrument id="P1-I1" />
    <voice>1</voice>
    <type>quarter</type>
    <stem>up</stem>
    <staff>1</staff>
    <notations>
     <slur color="#000000" type="start" orientation="under" />
    </notations>
    <lyric default-y="-82" number="1" color="#000000">
     <syllabic>end</syllabic>
     <text>more!</text>
    </lyric>
    <lyric default-y="-107" number="2" color="#000000">
     <syllabic>end</syllabic>
     <text>more!</text>
    </lyric>
    <lyric default-y="-132" number="3" color="#000000">
     <syllabic>single</syllabic>
     <text>more!</text>
    </lyric>
    <lyric default-y="-157" number="4" color="#000000">
     <syllabic>end</syllabic>
     <text>more!</text>
    </lyric>
   </note>
   <note color="#000000" default-x="384">
    <pitch>
     <step>E</step>
     <alter>-1</alter>
     <octave>4</octave>
    </pitch>
    <duration>256</duration>
    <instrument id="P1-I1" />
    <voice>1</voice>
    <type>quarter</type>
    <stem>up</stem>
    <staff>1</staff>
    <notations>
     <slur color="#000000" type="stop" orientation="under" />
    </notations>
   </note>
   <barline>
    <bar-style>light-heavy</bar-style>
   </barline>
  </measure>
 </part>
</score-partwise>
