<?xml version="1.0" encoding='UTF-8' standalone='no' ?>
<!DOCTYPE score-partwise PUBLIC "-//Recordare//DTD MusicXML 2.0 Partwise//EN" "http://www.musicxml.org/dtds/partwise.dtd">
<score-partwise version="2.0">
 <work>
  <work-title>Stand Up and Bless the Lord</work-title>
 </work>
 <identification>
  <encoding>
   <encoding-date>2012-06-28</encoding-date>
   <encoder>jsk9</encoder>
   <software>Sibelius 7.0.0</software>
   <software>Direct export, not from Dolet</software>
   <encoding-description>Sibelius / MusicXML 2.0</encoding-description>
   <supports element="print" type="yes" value="yes" attribute="new-system" />
   <supports element="print" type="yes" value="yes" attribute="new-page" />
   <supports element="accidental" type="yes" />
   <supports element="beam" type="yes" />
   <supports element="stem" type="yes" />
  </encoding>
 </identification>
 <defaults>
  <scaling>
   <millimeters>149.098</millimeters>
   <tenths>955</tenths>
  </scaling>
  <page-layout>
   <page-height>977</page-height>
   <page-width>955</page-width>
   <page-margins type="both">
    <left-margin>112</left-margin>
    <right-margin>112</right-margin>
    <top-margin>81</top-margin>
    <bottom-margin>81</bottom-margin>
   </page-margins>
  </page-layout>
  <system-layout>
   <system-distance>40</system-distance>
  </system-layout>
  <appearance>
   <line-width type="stem">0.9375</line-width>
   <line-width type="beam">5</line-width>
   <line-width type="staff">0.9375</line-width>
   <line-width type="light barline">1.5625</line-width>
   <line-width type="heavy barline">5</line-width>
   <line-width type="leger">1.5625</line-width>
   <line-width type="ending">1.5625</line-width>
   <line-width type="wedge">1.25</line-width>
   <line-width type="enclosure">0.9375</line-width>
   <line-width type="tuplet bracket">1.25</line-width>
   <line-width type="bracket">5</line-width>
   <line-width type="dashes">1.5625</line-width>
   <line-width type="extend">0.9375</line-width>
   <line-width type="octave shift">1.5625</line-width>
   <line-width type="pedal">1.5625</line-width>
   <line-width type="slur middle">1.5625</line-width>
   <line-width type="slur tip">0.625</line-width>
   <line-width type="tie middle">1.5625</line-width>
   <line-width type="tie tip">0.625</line-width>
   <note-size type="cue">75</note-size>
   <note-size type="grace">60</note-size>
  </appearance>
  <music-font font-family="Opus Std" font-size="17.6825" />
  <lyric-font font-family="Times New Roman" font-size="9.9464" />
  <lyric-language xml:lang="en" />
 </defaults>
 <credit page="1">
  <credit-words default-x="477" default-y="822" font-family="Times New Roman" font-size="20.031" justify="center" valign="middle">Stand Up and Bless the Lord</credit-words>
 </credit>
 <part-list>
  <score-part id="P1">
   <part-name>Piano</part-name>
   <part-name-display>
    <display-text>Piano</display-text>
   </part-name-display>
   <part-abbreviation>Pno.</part-abbreviation>
   <part-abbreviation-display>
    <display-text>Pno.</display-text>
   </part-abbreviation-display>
   <score-instrument id="P1-I1">
    <instrument-name>Piano (2)</instrument-name>
   </score-instrument>
  </score-part>
 </part-list>
 <part id="P1">
  <measure number="0" width="137">
   <print new-page="yes">
    <system-layout>
     <system-margins>
      <left-margin>0</left-margin>
      <right-margin>0</right-margin>
     </system-margins>
     <top-system-distance>163</top-system-distance>
    </system-layout>
   </print>
   <attributes>
    <divisions>256</divisions>
    <key color="#000000">
     <fifths>-1</fifths>
     <mode>major</mode>
    </key>
    <time color="#000000">
     <beats>4</beats>
     <beat-type>4</beat-type>
    </time>
    <staves>1</staves>
    <clef number="1" color="#000000">
     <sign>G</sign>
     <line>2</line>
    </clef>
    <staff-details number="1" print-object="yes" />
   </attributes>
   <note color="#000000" default-x="86">
    <pitch>
     <step>C</step>
     <octave>4</octave>
    </pitch>
    <duration>256</duration>
    <instrument id="P1-I1" />
    <voice>1</voice>
    <type>quarter</type>
    <stem>up</stem>
    <staff>1</staff>
    <lyric default-y="-88" number="1" color="#000000">
     <syllabic>single</syllabic>
     <text>1 Stand</text>
    </lyric>
    <lyric default-y="-113" number="2" color="#000000">
     <syllabic>single</syllabic>
     <text>2 O</text>
    </lyric>
    <lyric default-y="-138" number="3" color="#000000">
     <syllabic>single</syllabic>
     <text>3 God</text>
    </lyric>
    <lyric default-y="-163" number="4" color="#000000">
     <syllabic>single</syllabic>
     <text>4 Stand</text>
    </lyric>
   </note>
  </measure>
  <measure number="1" width="223">
   <note color="#000000" default-x="15">
    <pitch>
     <step>F</step>
     <octave>4</octave>
    </pitch>
    <duration>256</duration>
    <instrument id="P1-I1" />
    <voice>1</voice>
    <type>quarter</type>
    <stem>up</stem>
    <staff>1</staff>
    <lyric default-y="-88" number="1" color="#000000">
     <syllabic>single</syllabic>
     <text>up</text>
    </lyric>
    <lyric default-y="-113" number="2" color="#000000">
     <syllabic>single</syllabic>
     <text>for</text>
    </lyric>
    <lyric default-y="-138" number="3" color="#000000">
     <syllabic>single</syllabic>
     <text>is</text>
    </lyric>
    <lyric default-y="-163" number="4" color="#000000">
     <syllabic>single</syllabic>
     <text>up</text>
    </lyric>
   </note>
   <note color="#000000" default-x="55">
    <pitch>
     <step>F</step>
     <octave>4</octave>
    </pitch>
    <duration>256</duration>
    <instrument id="P1-I1" />
    <voice>1</voice>
    <type>quarter</type>
    <stem>up</stem>
    <staff>1</staff>
    <lyric default-y="-88" number="1" color="#000000">
     <syllabic>single</syllabic>
     <text>and</text>
    </lyric>
    <lyric default-y="-113" number="2" color="#000000">
     <syllabic>single</syllabic>
     <text>the</text>
    </lyric>
    <lyric default-y="-138" number="3" color="#000000">
     <syllabic>single</syllabic>
     <text>our</text>
    </lyric>
    <lyric default-y="-163" number="4" color="#000000">
     <syllabic>single</syllabic>
     <text>and</text>
    </lyric>
   </note>
   <note color="#000000" default-x="114">
    <pitch>
     <step>A</step>
     <octave>4</octave>
    </pitch>
    <duration>256</duration>
    <instrument id="P1-I1" />
    <voice>1</voice>
    <type>quarter</type>
    <stem>up</stem>
    <staff>1</staff>
    <lyric default-y="-88" number="1" color="#000000">
     <syllabic>single</syllabic>
     <text>bless</text>
    </lyric>
    <lyric default-y="-113" number="2" color="#000000">
     <syllabic>begin</syllabic>
     <text>li</text>
    </lyric>
    <lyric default-y="-138" number="3" color="#000000">
     <syllabic>single</syllabic>
     <text>strength</text>
    </lyric>
    <lyric default-y="-163" number="4" color="#000000">
     <syllabic>single</syllabic>
     <text>bless</text>
    </lyric>
   </note>
   <note color="#000000" default-x="165">
    <pitch>
     <step>G</step>
     <octave>4</octave>
    </pitch>
    <duration>128</duration>
    <instrument id="P1-I1" />
    <voice>1</voice>
    <type>eighth</type>
    <stem>up</stem>
    <staff>1</staff>
    <beam number="1">begin</beam>
    <lyric default-y="-88" number="1" color="#000000">
     <syllabic>single</syllabic>
     <text>the</text>
     <extend />
    </lyric>
    <lyric default-y="-113" number="2" color="#000000">
     <syllabic>end</syllabic>
     <text>ving</text>
     <extend />
    </lyric>
    <lyric default-y="-138" number="3" color="#000000">
     <syllabic>single</syllabic>
     <text>and</text>
     <extend />
    </lyric>
    <lyric default-y="-163" number="4" color="#000000">
     <syllabic>single</syllabic>
     <text>the</text>
     <extend />
    </lyric>
   </note>
   <note color="#000000" default-x="194">
    <pitch>
     <step>F</step>
     <octave>4</octave>
    </pitch>
    <duration>128</duration>
    <instrument id="P1-I1" />
    <voice>1</voice>
    <type>eighth</type>
    <stem>up</stem>
    <staff>1</staff>
    <beam number="1">end</beam>
   </note>
  </measure>
  <measure number="2" width="154">
   <note color="#000000" default-x="15">
    <pitch>
     <step>G</step>
     <octave>4</octave>
    </pitch>
    <duration>768</duration>
    <instrument id="P1-I1" />
    <voice>1</voice>
    <type>half</type>
    <dot />
    <stem>up</stem>
    <staff>1</staff>
    <lyric default-y="-88" number="1" color="#000000">
     <syllabic>single</syllabic>
     <text>Lord</text>
    </lyric>
    <lyric default-y="-113" number="2" color="#000000">
     <syllabic>single</syllabic>
     <text>flame,</text>
    </lyric>
    <lyric default-y="-138" number="3" color="#000000">
     <syllabic>single</syllabic>
     <text>song,</text>
    </lyric>
    <lyric default-y="-163" number="4" color="#000000">
     <syllabic>single</syllabic>
     <text>Lord,</text>
    </lyric>
   </note>
   <note color="#000000" default-x="95">
    <pitch>
     <step>A</step>
     <octave>4</octave>
    </pitch>
    <duration>128</duration>
    <instrument id="P1-I1" />
    <voice>1</voice>
    <type>eighth</type>
    <stem>up</stem>
    <staff>1</staff>
    <beam number="1">begin</beam>
    <lyric default-y="-88" number="1" color="#000000">
     <syllabic>single</syllabic>
     <text>you</text>
     <extend />
    </lyric>
    <lyric default-y="-113" number="2" color="#000000">
     <syllabic>single</syllabic>
     <text>from</text>
     <extend />
    </lyric>
    <lyric default-y="-138" number="3" color="#000000">
     <syllabic>single</syllabic>
     <text>and</text>
     <extend />
    </lyric>
    <lyric default-y="-163" number="4" color="#000000">
     <syllabic>single</syllabic>
     <text>the</text>
     <extend />
    </lyric>
   </note>
   <note color="#000000" default-x="125">
    <pitch>
     <step>B</step>
     <alter>-1</alter>
     <octave>4</octave>
    </pitch>
    <duration>128</duration>
    <instrument id="P1-I1" />
    <voice>1</voice>
    <type>eighth</type>
    <stem>up</stem>
    <staff>1</staff>
    <beam number="1">end</beam>
   </note>
   <backup>
    <duration>256</duration>
   </backup>
   <note print-object="no" default-x="95">
    <rest />
    <duration>256</duration>
    <instrument id="P1-I1" />
    <voice>2</voice>
    <type>quarter</type>
    <staff>1</staff>
   </note>
  </measure>
  <measure number="3" width="215">
   <note color="#000000" default-x="15">
    <pitch>
     <step>C</step>
     <octave>5</octave>
    </pitch>
    <duration>256</duration>
    <instrument id="P1-I1" />
    <voice>1</voice>
    <type>quarter</type>
    <stem>down</stem>
    <staff>1</staff>
    <lyric default-y="-88" number="1" color="#000000">
     <syllabic>begin</syllabic>
     <text>peo</text>
    </lyric>
    <lyric default-y="-113" number="2" color="#000000">
     <syllabic>single</syllabic>
     <text>God's</text>
    </lyric>
    <lyric default-y="-138" number="3" color="#000000">
     <syllabic>single</syllabic>
     <text>his</text>
    </lyric>
    <lyric default-y="-163" number="4" color="#000000">
     <syllabic>single</syllabic>
     <text>Lord</text>
    </lyric>
   </note>
   <note color="#000000" default-x="55">
    <pitch>
     <step>B</step>
     <alter>-1</alter>
     <octave>4</octave>
    </pitch>
    <duration>128</duration>
    <instrument id="P1-I1" />
    <voice>1</voice>
    <type>eighth</type>
    <stem>up</stem>
    <staff>1</staff>
    <beam number="1">begin</beam>
    <lyric default-y="-88" number="1" color="#000000">
     <syllabic>end</syllabic>
     <text>ple</text>
     <extend />
    </lyric>
    <lyric default-y="-113" number="2" color="#000000">
     <syllabic>single</syllabic>
     <text>own</text>
     <extend />
    </lyric>
    <lyric default-y="-138" number="3" color="#000000">
     <syllabic>begin</syllabic>
     <text>sal</text>
    </lyric>
    <lyric default-y="-163" number="4" color="#000000">
     <syllabic>end</syllabic>
     <text>your</text>
     <extend />
    </lyric>
   </note>
   <note color="#000000" default-x="88">
    <pitch>
     <step>A</step>
     <octave>4</octave>
    </pitch>
    <duration>128</duration>
    <instrument id="P1-I1" />
    <voice>1</voice>
    <type>eighth</type>
    <stem>up</stem>
    <staff>1</staff>
    <beam number="1">end</beam>
   </note>
   <note color="#000000" default-x="117">
    <pitch>
     <step>B</step>
     <alter>-1</alter>
     <octave>4</octave>
    </pitch>
    <duration>256</duration>
    <instrument id="P1-I1" />
    <voice>1</voice>
    <type>quarter</type>
    <stem>down</stem>
    <staff>1</staff>
    <lyric default-y="-88" number="1" color="#000000">
     <syllabic>single</syllabic>
     <text>of</text>
    </lyric>
    <lyric default-y="-113" number="2" color="#000000">
     <syllabic>begin</syllabic>
     <text>al</text>
    </lyric>
    <lyric default-y="-138" number="3" color="#000000">
     <syllabic>begin</syllabic>
     <text>va</text>
    </lyric>
    <lyric default-y="-163" number="4" color="#000000">
     <syllabic>end</syllabic>
     <text>God</text>
    </lyric>
   </note>
   <note color="#000000" default-x="175">
    <pitch>
     <step>A</step>
     <octave>4</octave>
    </pitch>
    <duration>256</duration>
    <instrument id="P1-I1" />
    <voice>1</voice>
    <type>quarter</type>
    <stem>up</stem>
    <staff>1</staff>
    <lyric default-y="-88" number="1" color="#000000">
     <syllabic>single</syllabic>
     <text>his</text>
    </lyric>
    <lyric default-y="-113" number="2" color="#000000">
     <syllabic>end</syllabic>
     <text>tar</text>
    </lyric>
    <lyric default-y="-138" number="3" color="#000000">
     <syllabic>single</syllabic>
     <text>tion</text>
    </lyric>
    <lyric default-y="-163" number="4" color="#000000">
     <syllabic>begin</syllabic>
     <text>a</text>
    </lyric>
   </note>
   <backup>
    <duration>512</duration>
   </backup>
   <note print-object="no" default-x="117">
    <rest />
    <duration>128</duration>
    <instrument id="P1-I1" />
    <voice>2</voice>
    <type>eighth</type>
    <staff>1</staff>
   </note>
   <note print-object="no" default-x="146">
    <rest />
    <duration>128</duration>
    <instrument id="P1-I1" />
    <voice>2</voice>
    <type>eighth</type>
    <staff>1</staff>
   </note>
  </measure>
  <measure number="4" width="255">
   <print new-system="yes">
    <system-layout>
     <system-margins>
      <left-margin>0</left-margin>
      <right-margin>0</right-margin>
     </system-margins>
     <system-distance>191</system-distance>
    </system-layout>
   </print>
   <attributes>
    <staff-details number="1" print-object="yes" />
   </attributes>
   <note color="#000000" default-x="68">
    <pitch>
     <step>G</step>
     <octave>4</octave>
    </pitch>
    <duration>768</duration>
    <instrument id="P1-I1" />
    <voice>1</voice>
    <type>half</type>
    <dot />
    <stem>up</stem>
    <staff>1</staff>
    <lyric default-y="-85" number="1" color="#000000">
     <syllabic>single</syllabic>
     <text>choice;</text>
    </lyric>
    <lyric default-y="-110" number="2" color="#000000">
     <syllabic>single</syllabic>
     <text>brought,</text>
    </lyric>
    <lyric default-y="-135" number="3" color="#000000">
     <syllabic>end</syllabic>
     <text>ours;</text>
    </lyric>
    <lyric default-y="-161" number="4" color="#000000">
     <syllabic>single</syllabic>
     <text>dore;</text>
    </lyric>
   </note>
   <barline>
    <bar-style>none</bar-style>
   </barline>
  </measure>
  <measure number="5" width="104">
   <note color="#000000" default-x="15">
    <pitch>
     <step>C</step>
     <octave>5</octave>
    </pitch>
    <duration>256</duration>
    <instrument id="P1-I1" />
    <voice>1</voice>
    <type>quarter</type>
    <stem>down</stem>
    <staff>1</staff>
    <lyric default-y="-85" number="1" color="#000000">
     <syllabic>single</syllabic>
     <text>stand</text>
    </lyric>
    <lyric default-y="-110" number="2" color="#000000">
     <syllabic>single</syllabic>
     <text>to</text>
    </lyric>
    <lyric default-y="-135" number="3" color="#000000">
     <syllabic>single</syllabic>
     <text>then</text>
    </lyric>
    <lyric default-y="-160" number="4" color="#000000">
     <syllabic>single</syllabic>
     <text>stand</text>
    </lyric>
   </note>
  </measure>
  <measure number="6" width="371">
   <note color="#000000" default-x="15">
    <pitch>
     <step>A</step>
     <octave>4</octave>
    </pitch>
    <duration>256</duration>
    <instrument id="P1-I1" />
    <voice>1</voice>
    <type>quarter</type>
    <stem>up</stem>
    <staff>1</staff>
    <lyric default-y="-85" number="1" color="#000000">
     <syllabic>single</syllabic>
     <text>up</text>
    </lyric>
    <lyric default-y="-110" number="2" color="#000000">
     <syllabic>single</syllabic>
     <text>touch</text>
    </lyric>
    <lyric default-y="-135" number="3" color="#000000">
     <syllabic>single</syllabic>
     <text>be</text>
    </lyric>
    <lyric default-y="-160" number="4" color="#000000">
     <syllabic>single</syllabic>
     <text>up</text>
    </lyric>
   </note>
   <note color="#000000" default-x="104">
    <pitch>
     <step>F</step>
     <octave>4</octave>
    </pitch>
    <duration>256</duration>
    <instrument id="P1-I1" />
    <voice>1</voice>
    <type>quarter</type>
    <stem>up</stem>
    <staff>1</staff>
    <lyric default-y="-85" number="1" color="#000000">
     <syllabic>single</syllabic>
     <text>and</text>
    </lyric>
    <lyric default-y="-110" number="2" color="#000000">
     <syllabic>single</syllabic>
     <text>our</text>
    </lyric>
    <lyric default-y="-135" number="3" color="#000000">
     <syllabic>single</syllabic>
     <text>his</text>
    </lyric>
    <lyric default-y="-160" number="4" color="#000000">
     <syllabic>single</syllabic>
     <text>and</text>
    </lyric>
   </note>
   <note color="#000000" default-x="193">
    <pitch>
     <step>G</step>
     <octave>4</octave>
    </pitch>
    <duration>256</duration>
    <instrument id="P1-I1" />
    <voice>1</voice>
    <type>quarter</type>
    <stem>up</stem>
    <staff>1</staff>
    <lyric default-y="-85" number="1" color="#000000">
     <syllabic>single</syllabic>
     <text>bless</text>
    </lyric>
    <lyric default-y="-110" number="2" color="#000000">
     <syllabic>single</syllabic>
     <text>lips,</text>
    </lyric>
    <lyric default-y="-135" number="3" color="#000000">
     <syllabic>single</syllabic>
     <text>love</text>
    </lyric>
    <lyric default-y="-160" number="4" color="#000000">
     <syllabic>single</syllabic>
     <text>bless</text>
    </lyric>
   </note>
   <note color="#000000" default-x="282">
    <pitch>
     <step>C</step>
     <octave>4</octave>
    </pitch>
    <duration>256</duration>
    <instrument id="P1-I1" />
    <voice>1</voice>
    <type>quarter</type>
    <stem>up</stem>
    <staff>1</staff>
    <lyric default-y="-85" number="1" color="#000000">
     <syllabic>single</syllabic>
     <text>the</text>
    </lyric>
    <lyric default-y="-110" number="2" color="#000000">
     <syllabic>single</syllabic>
     <text>our</text>
    </lyric>
    <lyric default-y="-135" number="3" color="#000000">
     <syllabic>single</syllabic>
     <text>in</text>
    </lyric>
    <lyric default-y="-160" number="4" color="#000000">
     <syllabic>single</syllabic>
     <text>his</text>
    </lyric>
   </note>
   <backup>
    <duration>256</duration>
   </backup>
   <note print-object="no" default-x="282">
    <rest />
    <duration>256</duration>
    <instrument id="P1-I1" />
    <voice>2</voice>
    <type>quarter</type>
    <staff>1</staff>
   </note>
  </measure>
  <measure number="7" width="308">
   <print new-system="yes">
    <system-layout>
     <system-margins>
      <left-margin>0</left-margin>
      <right-margin>0</right-margin>
     </system-margins>
     <system-distance>191</system-distance>
    </system-layout>
   </print>
   <attributes>
    <staff-details number="1" print-object="yes" />
   </attributes>
   <note color="#000000" default-x="68">
    <pitch>
     <step>F</step>
     <octave>4</octave>
    </pitch>
    <duration>256</duration>
    <instrument id="P1-I1" />
    <voice>1</voice>
    <type>quarter</type>
    <stem>up</stem>
    <staff>1</staff>
    <lyric default-y="-81" number="1" color="#000000">
     <syllabic>single</syllabic>
     <text>Lord</text>
    </lyric>
    <lyric default-y="-106" number="2" color="#000000">
     <syllabic>single</syllabic>
     <text>minds</text>
    </lyric>
    <lyric default-y="-131" number="3" color="#000000">
     <syllabic>single</syllabic>
     <text>Christ</text>
    </lyric>
    <lyric default-y="-156" number="4" color="#000000">
     <syllabic>begin</syllabic>
     <text>glo</text>
    </lyric>
   </note>
   <note color="#000000" default-x="127">
    <pitch>
     <step>A</step>
     <octave>4</octave>
    </pitch>
    <duration>256</duration>
    <instrument id="P1-I1" />
    <voice>1</voice>
    <type>quarter</type>
    <stem>up</stem>
    <staff>1</staff>
    <lyric default-y="-81" number="1" color="#000000">
     <syllabic>single</syllabic>
     <text>your</text>
    </lyric>
    <lyric default-y="-106" number="2" color="#000000">
     <syllabic>begin</syllabic>
     <text>in</text>
    </lyric>
    <lyric default-y="-131" number="3" color="#000000">
     <syllabic>middle</syllabic>
     <text>pro</text>
    </lyric>
    <lyric default-y="-156" number="4" color="#000000">
     <syllabic>end</syllabic>
     <text>rious</text>
    </lyric>
   </note>
   <note color="#000000" default-x="187">
    <pitch>
     <step>C</step>
     <octave>5</octave>
    </pitch>
    <duration>256</duration>
    <instrument id="P1-I1" />
    <voice>1</voice>
    <type>quarter</type>
    <stem>down</stem>
    <staff>1</staff>
    <lyric default-y="-81" number="1" color="#000000">
     <syllabic>single</syllabic>
     <text>God</text>
    </lyric>
    <lyric default-y="-106" number="2" color="#000000">
     <syllabic>end</syllabic>
     <text>spire,</text>
    </lyric>
    <lyric default-y="-131" number="3" color="#000000">
     <syllabic>single</syllabic>
     <text>claimed</text>
    </lyric>
    <lyric default-y="-156" number="4" color="#000000">
     <syllabic>single</syllabic>
     <text>name,</text>
    </lyric>
   </note>
   <note color="#000000" default-x="250">
    <pitch>
     <step>C</step>
     <octave>5</octave>
    </pitch>
    <duration>256</duration>
    <instrument id="P1-I1" />
    <voice>1</voice>
    <type>quarter</type>
    <stem>down</stem>
    <staff>1</staff>
    <lyric default-y="-81" number="1" color="#000000">
     <syllabic>single</syllabic>
     <text>with</text>
    </lyric>
    <lyric default-y="-106" number="2" color="#000000">
     <syllabic>single</syllabic>
     <text>and</text>
    </lyric>
    <lyric default-y="-131" number="3" color="#000000">
     <syllabic>single</syllabic>
     <text>with</text>
    </lyric>
    <lyric default-y="-156" number="4" color="#000000">
     <syllabic>single</syllabic>
     <text>both</text>
    </lyric>
   </note>
  </measure>
  <measure number="8" width="274">
   <note color="#000000" default-x="15">
    <pitch>
     <step>D</step>
     <octave>5</octave>
    </pitch>
    <duration>256</duration>
    <instrument id="P1-I1" />
    <voice>1</voice>
    <type>quarter</type>
    <stem>down</stem>
    <staff>1</staff>
    <lyric default-y="-81" number="1" color="#000000">
     <syllabic>single</syllabic>
     <text>heart</text>
    </lyric>
    <lyric default-y="-106" number="2" color="#000000">
     <syllabic>single</syllabic>
     <text>wing</text>
    </lyric>
    <lyric default-y="-131" number="3" color="#000000">
     <syllabic>single</syllabic>
     <text>all</text>
    </lyric>
    <lyric default-y="-156" number="4" color="#000000">
     <syllabic>single</syllabic>
     <text>now</text>
    </lyric>
   </note>
   <note color="#000000" default-x="73">
    <pitch>
     <step>C</step>
     <octave>5</octave>
    </pitch>
    <duration>128</duration>
    <instrument id="P1-I1" />
    <voice>1</voice>
    <type>eighth</type>
    <stem>down</stem>
    <staff>1</staff>
    <beam number="1">begin</beam>
    <lyric default-y="-81" number="1" color="#000000">
     <syllabic>single</syllabic>
     <text>and</text>
     <extend />
    </lyric>
    <lyric default-y="-106" number="2" color="#000000">
     <syllabic>single</syllabic>
     <text>to</text>
    </lyric>
    <lyric default-y="-131" number="3" color="#000000">
     <syllabic>single</syllabic>
     <text>our</text>
     <extend />
    </lyric>
    <lyric default-y="-156" number="4" color="#000000">
     <syllabic>single</syllabic>
     <text>and</text>
     <extend />
    </lyric>
   </note>
   <note color="#000000" default-x="115">
    <pitch>
     <step>B</step>
     <alter>-1</alter>
     <octave>4</octave>
    </pitch>
    <duration>128</duration>
    <instrument id="P1-I1" />
    <voice>1</voice>
    <type>eighth</type>
    <stem>down</stem>
    <staff>1</staff>
    <beam number="1">end</beam>
   </note>
   <note color="#000000" default-x="157">
    <pitch>
     <step>A</step>
     <octave>4</octave>
    </pitch>
    <duration>256</duration>
    <instrument id="P1-I1" />
    <voice>1</voice>
    <type>quarter</type>
    <stem>up</stem>
    <staff>1</staff>
    <lyric default-y="-81" number="1" color="#000000">
     <syllabic>single</syllabic>
     <text>soul</text>
    </lyric>
    <lyric default-y="-106" number="2" color="#000000">
     <syllabic>single</syllabic>
     <text>heaven</text>
    </lyric>
    <lyric default-y="-131" number="3" color="#000000">
     <syllabic>begin</syllabic>
     <text>ran</text>
    </lyric>
    <lyric default-y="-156" number="4" color="#000000">
     <syllabic>middle</syllabic>
     <text>e</text>
    </lyric>
   </note>
   <note color="#000000" default-x="216">
    <pitch>
     <step>G</step>
     <octave>4</octave>
    </pitch>
    <duration>256</duration>
    <instrument id="P1-I1" />
    <voice>1</voice>
    <type>quarter</type>
    <stem>up</stem>
    <staff>1</staff>
    <lyric default-y="-81" number="1" color="#000000">
     <syllabic>single</syllabic>
     <text>and</text>
    </lyric>
    <lyric default-y="-106" number="2" color="#000000">
     <syllabic>single</syllabic>
     <text>our</text>
    </lyric>
    <lyric default-y="-131" number="3" color="#000000">
     <syllabic>end</syllabic>
     <text>somed</text>
    </lyric>
    <lyric default-y="-156" number="4" color="#000000">
     <syllabic>begin</syllabic>
     <text>ver</text>
    </lyric>
   </note>
   <backup>
    <duration>768</duration>
   </backup>
   <note print-object="no" default-x="73">
    <rest />
    <duration>256</duration>
    <instrument id="P1-I1" />
    <voice>2</voice>
    <type>quarter</type>
    <staff>1</staff>
   </note>
  </measure>
  <measure number="9" width="148">
   <note color="#000000" default-x="15">
    <pitch>
     <step>F</step>
     <octave>4</octave>
    </pitch>
    <duration>768</duration>
    <instrument id="P1-I1" />
    <voice>1</voice>
    <type>half</type>
    <dot />
    <stem>up</stem>
    <staff>1</staff>
    <lyric default-y="-81" number="1" color="#000000">
     <syllabic>single</syllabic>
     <text>voice.</text>
    </lyric>
    <lyric default-y="-106" number="2" color="#000000">
     <syllabic>single</syllabic>
     <text>thought</text>
    </lyric>
    <lyric default-y="-131" number="3" color="#000000">
     <syllabic>end</syllabic>
     <text>powers.</text>
    </lyric>
    <lyric default-y="-156" number="4" color="#000000">
     <syllabic>single</syllabic>
     <text>more.</text>
    </lyric>
   </note>
   <barline>
    <bar-style>light-heavy</bar-style>
   </barline>
   <backup>
    <duration>768</duration>
   </backup>
   <note print-object="no" default-x="15">
    <rest />
    <duration>768</duration>
    <instrument id="P1-I1" />
    <voice>2</voice>
    <type>half</type>
    <dot />
    <staff>1</staff>
   </note>
  </measure>
 </part>
</score-partwise>
