<?xml version="1.0" encoding="UTF-8" standalone="no"?>
<!DOCTYPE score-partwise PUBLIC "-//Recordare//DTD MusicXML 2.0 Partwise//EN" "http://www.musicxml.org/dtds/partwise.dtd">
<score-partwise version="2.0">
	<work>
		<work-title>What grace, O Lord, and beauty shone</work-title>
	</work>
	<identification>
		<creator type="composer">Clinton
CM</creator>
		<creator type="poet">C.H.H. Parry, 1848-1918</creator>
		<encoding>
			<software>PDFtoMusic Pro v1.6.5 Build 1B9E7 (c) Myriad - http://www.myriad-online.com</software>
			<?PDFtoMusic Document type 0100- 00000000?>
			<supports attribute="new-system" element="print" type="yes" value="yes"/>
			<supports attribute="new-page" element="print" type="yes" value="yes"/>
		</encoding>
	</identification>
	<defaults>
		<scaling>
			<millimeters>7.111992</millimeters>
			<tenths>40</tenths>
		</scaling>
		<page-layout>
			<page-height>1571.430</page-height>
			<page-width>1214.287</page-width>
			<page-margins type="both">
				<left-margin>56.243</left-margin>
				<right-margin>56.243</right-margin>
				<top-margin>56.243</top-margin>
				 <bottom-margin>56.243</bottom-margin>
			</page-margins>
		</page-layout>
		<appearance>
			<line-width type="stem">0.2381</line-width>
			<line-width type="staff">0.7143</line-width>
			<line-width type="light barline">0.3323</line-width>
			<line-width type="heavy barline">3.3333</line-width>
			<line-width type="leger">0.7143</line-width>
		</appearance>
	</defaults>
	<credit page="1">
		<credit-words  default-x="71.191" default-y="1478.334" justify="left" valign="baseline" font-family="Times New Roman" font-size="10" font-weight="normal" font-style="normal">C.H.H. Parry, 1848-1918</credit-words>
	</credit>
	<credit page="1">
		<credit-words  default-x="183.333" default-y="686.429" justify="left" valign="baseline" font-family="Times New Roman" font-size="11" font-weight="bold" font-style="normal">For, ever on Thy burdened heart
A weight of sorrow hung;
Yet no ungentle, murmuring word
Escaped Thy silent tongue.</credit-words>
	</credit>
	<credit page="1">
		<credit-words  default-x="183.333" default-y="576.429" justify="left" valign="baseline" font-family="Times New Roman" font-size="11" font-weight="bold" font-style="normal">Thy foes might hate, despise, revile,
Thy friends unfaithful prove;
Unwearied in forgiveness still,
Thy heart could only love.</credit-words>
	</credit>
	<credit page="1">
		<credit-words  default-x="343.810" default-y="1514.525" justify="left" valign="baseline" font-family="Times New Roman" font-size="16" font-weight="bold" font-style="normal">What grace, O Lord, and beauty shone</credit-words>
	</credit>
	<credit page="1">
		<credit-words  default-x="492.857" default-y="279.762" justify="left" valign="baseline" font-family="Times New Roman" font-size="10" font-weight="normal" font-style="normal">www.smallchurchmusic.com</credit-words>
	</credit>
	<credit page="1">
		<credit-words  default-x="652.144" default-y="684.048" justify="left" valign="baseline" font-family="Times New Roman" font-size="11" font-weight="bold" font-style="normal">One with Thyself, may every eye
In us, Thy brethren, see
The gentleness and grace that spring
From union, Lord, with Thee.</credit-words>
	</credit>
	<credit page="1">
		<credit-words  default-x="877.143" default-y="498.572" justify="left" valign="baseline" font-family="Times New Roman" font-size="10" font-weight="normal" font-style="normal">Edward Denny</credit-words>
	</credit>
	<credit page="1">
		<credit-words  default-x="1083.572" default-y="1479.525" justify="left" valign="baseline" font-family="Times New Roman" font-size="10" font-weight="normal" font-style="normal">Clinton
CM</credit-words>
	</credit>
	<part-list>
		<score-part id="P1">
			<part-name></part-name>
			<score-instrument id="P1-I1">
				<instrument-name>Instrument 1</instrument-name>
			</score-instrument>
			<midi-instrument id="P1-I1">
				<midi-channel>1</midi-channel>
				<midi-bank>1</midi-bank>
				<midi-program>1</midi-program>
				<volume>50</volume>
				<pan>0</pan>
				<elevation>0</elevation>
				<?Myriad
				<iddigit>0</iddigit>
				?>
			</midi-instrument>
		</score-part>
	</part-list>
	<part id="P1">
		<!--==========================[1,1]=============================-->
		<measure number="1" width="124">
			<print new-page="yes">
				<system-layout>
					<system-margins>
						<left-margin>28.400</left-margin>
						<right-margin>14.881</right-margin>
					</system-margins>
					<top-system-distance>66.019</top-system-distance>
				</system-layout>
				<staff-layout number="2">
					<staff-distance>125.714</staff-distance>
				</staff-layout>
			</print>
			<attributes>
				<divisions>6720</divisions>
				<key>
					<fifths>1</fifths>
					<mode>major</mode>
				</key>
				<staves>2</staves>
				<clef number="1">
					<sign>G</sign>
					<line>2</line>
				</clef>
				<clef number="2">
					<sign>F</sign>
					<line>4</line>
				</clef>
				<staff-details number="1" print-object="yes">
					<staff-lines>5</staff-lines>
					<staff-size>100.00</staff-size>
				</staff-details>
				<staff-details number="2" print-object="yes">
					<staff-lines>5</staff-lines>
					<staff-size>100.00</staff-size>
				</staff-details>
			</attributes>
			<note>
				<pitch>
					<step>B</step>
					<octave>3</octave>
				</pitch>
				<duration>13440</duration>
				<voice>4</voice>
				<type>half</type>
				<stem default-y="-50.24">down</stem>
				<staff>2</staff>
			</note>
			<note>
				<chord/>
				<pitch>
					<step>E</step>
					<octave>3</octave>
				</pitch>
				<duration>13440</duration>
				<voice>4</voice>
				<type>half</type>
				<stem default-y="-50.24">down</stem>
				<staff>2</staff>
			</note>
			<backup>
				<duration>13440</duration>
			</backup>
			<note>
				<pitch>
					<step>G</step>
					<octave>4</octave>
				</pitch>
				<duration>13440</duration>
				<voice>1</voice>
				<type>half</type>
				<stem default-y="10.00">up</stem>
				<staff>1</staff>
			</note>
			<note>
				<chord/>
				<pitch>
					<step>B</step>
					<octave>4</octave>
				</pitch>
				<duration>13440</duration>
				<voice>1</voice>
				<type>half</type>
				<stem default-y="10.00">up</stem>
				<staff>1</staff>
			</note>
		</measure>
		<!--==========================[1,2]=============================-->
		<measure number="2" width="263">
			<note>
				<pitch>
					<step>F</step>
					<alter>1</alter>
					<octave>3</octave>
				</pitch>
				<duration>13440</duration>
				<voice>4</voice>
				<type>half</type>
				<stem default-y="-45.24">down</stem>
				<staff>2</staff>
			</note>
			<note>
				<chord/>
				<pitch>
					<step>B</step>
					<octave>3</octave>
				</pitch>
				<duration>13440</duration>
				<voice>4</voice>
				<type>half</type>
				<stem default-y="-45.24">down</stem>
				<staff>2</staff>
			</note>
			<note>
				<pitch>
					<step>G</step>
					<octave>3</octave>
				</pitch>
				<duration>13440</duration>
				<voice>4</voice>
				<type>half</type>
				<stem default-y="-40.24">down</stem>
				<staff>2</staff>
			</note>
			<note>
				<chord/>
				<pitch>
					<step>B</step>
					<octave>3</octave>
				</pitch>
				<duration>13440</duration>
				<voice>4</voice>
				<type>half</type>
				<stem default-y="-40.24">down</stem>
				<staff>2</staff>
			</note>
			<note>
				<pitch>
					<step>A</step>
					<octave>3</octave>
				</pitch>
				<duration>13440</duration>
				<voice>4</voice>
				<type>half</type>
				<stem default-y="-35.24">down</stem>
				<staff>2</staff>
			</note>
			<note>
				<pitch>
					<step>C</step>
					<octave>3</octave>
				</pitch>
				<duration>13440</duration>
				<voice>5</voice>
				<type>half</type>
				<stem default-y="-55.24">down</stem>
				<staff>2</staff>
			</note>
			<backup>
				<duration>13440</duration>
			</backup>
			<note>
				<pitch>
					<step>G</step>
					<octave>3</octave>
				</pitch>
				<duration>6720</duration>
				<voice>4</voice>
				<type>quarter</type>
				<stem default-y="20.00">up</stem>
				<staff>2</staff>
			</note>
			<note>
				<pitch>
					<step>A</step>
					<octave>3</octave>
				</pitch>
				<duration>6720</duration>
				<voice>4</voice>
				<type>quarter</type>
				<stem default-y="25.00">up</stem>
				<staff>2</staff>
			</note>
			<backup>
				<duration>53760</duration>
			</backup>
			<note>
				<pitch>
					<step>D</step>
					<alter>1</alter>
					<octave>4</octave>
				</pitch>
				<duration>13440</duration>
				<voice>1</voice>
				<type>half</type>
				<accidental>sharp</accidental>
				<stem default-y="10.00">up</stem>
				<staff>1</staff>
			</note>
			<note>
				<chord/>
				<pitch>
					<step>A</step>
					<octave>4</octave>
				</pitch>
				<duration>13440</duration>
				<voice>1</voice>
				<type>half</type>
				<stem default-y="10.00">up</stem>
				<staff>1</staff>
			</note>
			<note>
				<pitch>
					<step>E</step>
					<octave>4</octave>
				</pitch>
				<duration>13440</duration>
				<voice>1</voice>
				<type>half</type>
				<stem default-y="5.00">up</stem>
				<staff>1</staff>
			</note>
			<note>
				<chord/>
				<pitch>
					<step>G</step>
					<octave>4</octave>
				</pitch>
				<duration>13440</duration>
				<voice>1</voice>
				<type>half</type>
				<stem default-y="5.00">up</stem>
				<staff>1</staff>
			</note>
			<note>
				<pitch>
					<step>F</step>
					<alter>1</alter>
					<octave>4</octave>
				</pitch>
				<duration>13440</duration>
				<voice>1</voice>
				<type>half</type>
				<stem default-y="0.00">up</stem>
				<staff>1</staff>
			</note>
			<note>
				<chord/>
				<pitch>
					<step>C</step>
					<octave>4</octave>
				</pitch>
				<duration>13440</duration>
				<voice>1</voice>
				<type>half</type>
				<stem default-y="0.00">up</stem>
				<staff>1</staff>
			</note>
			<note>
				<pitch>
					<step>E</step>
					<octave>4</octave>
				</pitch>
				<duration>13440</duration>
				<voice>1</voice>
				<type>half</type>
				<stem default-y="-5.00">up</stem>
				<staff>1</staff>
			</note>
		</measure>
		<!--==========================[1,3]=============================-->
		<measure number="3" width="252">
			<note>
				<pitch>
					<step>B</step>
					<octave>2</octave>
				</pitch>
				<duration>13440</duration>
				<voice>4</voice>
				<type>half</type>
				<stem default-y="-55.24">down</stem>
				<staff>2</staff>
			</note>
			<backup>
				<duration>13440</duration>
			</backup>
			<note>
				<pitch>
					<step>B</step>
					<octave>3</octave>
				</pitch>
				<duration>20160</duration>
				<voice>5</voice>
				<type>half</type>
				<dot/>
				<stem default-y="30.00">up</stem>
				<staff>2</staff>
			</note>
			<backup>
				<duration>6720</duration>
			</backup>
			<note>
				<pitch>
					<step>B</step>
					<octave>2</octave>
				</pitch>
				<duration>13440</duration>
				<voice>4</voice>
				<type>half</type>
				<stem default-y="-55.24">down</stem>
				<staff>2</staff>
			</note>
			<backup>
				<duration>6720</duration>
			</backup>
			<note>
				<pitch>
					<step>A</step>
					<octave>3</octave>
				</pitch>
				<duration>6720</duration>
				<voice>5</voice>
				<type>quarter</type>
				<stem default-y="25.00">up</stem>
				<staff>2</staff>
			</note>
			<note>
				<pitch>
					<step>G</step>
					<octave>3</octave>
				</pitch>
				<duration>13440</duration>
				<voice>4</voice>
				<type>half</type>
				<stem default-y="-50.24">down</stem>
				<staff>2</staff>
			</note>
			<note>
				<chord/>
				<pitch>
					<step>E</step>
					<octave>3</octave>
				</pitch>
				<duration>13440</duration>
				<voice>4</voice>
				<type>half</type>
				<stem default-y="-50.24">down</stem>
				<staff>2</staff>
			</note>
			<note>
				<pitch>
					<step>B</step>
					<octave>3</octave>
				</pitch>
				<duration>13440</duration>
				<voice>4</voice>
				<type>half</type>
				<stem default-y="-55.24">down</stem>
				<staff>2</staff>
			</note>
			<note>
				<chord/>
				<pitch>
					<step>B</step>
					<octave>2</octave>
				</pitch>
				<duration>13440</duration>
				<voice>4</voice>
				<type>half</type>
				<stem default-y="-62.52">down</stem>
				<staff>2</staff>
			</note>
			<backup>
				<duration>53760</duration>
			</backup>
			<note>
				<pitch>
					<step>E</step>
					<octave>4</octave>
				</pitch>
				<duration>13440</duration>
				<voice>1</voice>
				<type>half</type>
				<stem default-y="5.00">up</stem>
				<staff>1</staff>
			</note>
			<note>
				<chord/>
				<pitch>
					<step>G</step>
					<octave>4</octave>
				</pitch>
				<duration>13440</duration>
				<voice>1</voice>
				<type>half</type>
				<stem default-y="5.00">up</stem>
				<staff>1</staff>
			</note>
			<note>
				<pitch>
					<step>F</step>
					<alter>1</alter>
					<octave>4</octave>
				</pitch>
				<duration>13440</duration>
				<voice>1</voice>
				<type>half</type>
				<stem default-y="0.00">up</stem>
				<staff>1</staff>
			</note>
			<note>
				<chord/>
				<pitch>
					<step>D</step>
					<alter>1</alter>
					<octave>4</octave>
				</pitch>
				<duration>13440</duration>
				<voice>1</voice>
				<type>half</type>
				<accidental>sharp</accidental>
				<stem default-y="0.00">up</stem>
				<staff>1</staff>
			</note>
			<note>
				<pitch>
					<step>E</step>
					<octave>4</octave>
				</pitch>
				<duration>13440</duration>
				<voice>1</voice>
				<type>half</type>
				<stem default-y="-5.00">up</stem>
				<staff>1</staff>
			</note>
			<note>
				<pitch>
					<step>F</step>
					<alter>1</alter>
					<octave>4</octave>
				</pitch>
				<duration>13440</duration>
				<voice>1</voice>
				<type>half</type>
				<stem default-y="0.00">up</stem>
				<staff>1</staff>
			</note>
			<note>
				<chord/>
				<pitch>
					<step>D</step>
					<alter>1</alter>
					<octave>4</octave>
				</pitch>
				<duration>13440</duration>
				<voice>1</voice>
				<type>half</type>
				<stem default-y="0.00">up</stem>
				<staff>1</staff>
			</note>
		</measure>
		<!--==========================[1,4]=============================-->
		<measure number="4" width="252">
			<note>
				<pitch>
					<step>E</step>
					<octave>3</octave>
				</pitch>
				<duration>13440</duration>
				<voice>4</voice>
				<type>half</type>
				<stem default-y="-50.24">down</stem>
				<staff>2</staff>
			</note>
			<note>
				<chord/>
				<pitch>
					<step>B</step>
					<octave>3</octave>
				</pitch>
				<duration>13440</duration>
				<voice>4</voice>
				<type>half</type>
				<stem default-y="-50.24">down</stem>
				<staff>2</staff>
			</note>
			<note>
				<pitch>
					<step>C</step>
					<octave>3</octave>
				</pitch>
				<duration>13440</duration>
				<voice>4</voice>
				<type>half</type>
				<stem default-y="-55.24">down</stem>
				<staff>2</staff>
			</note>
			<backup>
				<duration>13440</duration>
			</backup>
			<note>
				<pitch>
					<step>C</step>
					<octave>4</octave>
				</pitch>
				<duration>6720</duration>
				<voice>4</voice>
				<type>quarter</type>
				<stem default-y="35.00">up</stem>
				<staff>2</staff>
			</note>
			<note>
				<pitch>
					<step>B</step>
					<octave>3</octave>
				</pitch>
				<duration>6720</duration>
				<voice>4</voice>
				<type>quarter</type>
				<stem default-y="30.00">up</stem>
				<staff>2</staff>
			</note>
			<note>
				<pitch>
					<step>D</step>
					<octave>3</octave>
				</pitch>
				<duration>13440</duration>
				<voice>4</voice>
				<type>half</type>
				<stem default-y="-50.24">down</stem>
				<staff>2</staff>
			</note>
			<note>
				<chord/>
				<pitch>
					<step>A</step>
					<octave>3</octave>
				</pitch>
				<duration>13440</duration>
				<voice>4</voice>
				<type>half</type>
				<stem default-y="-50.24">down</stem>
				<staff>2</staff>
			</note>
			<note>
				<pitch>
					<step>D</step>
					<octave>4</octave>
				</pitch>
				<duration>13440</duration>
				<voice>4</voice>
				<type>half</type>
				<stem default-y="-50.24">down</stem>
				<staff>2</staff>
			</note>
			<note>
				<chord/>
				<pitch>
					<step>D</step>
					<octave>3</octave>
				</pitch>
				<duration>13440</duration>
				<voice>4</voice>
				<type>half</type>
				<stem default-y="-52.52">down</stem>
				<staff>2</staff>
			</note>
			<backup>
				<duration>53760</duration>
			</backup>
			<note>
				<pitch>
					<step>E</step>
					<octave>4</octave>
				</pitch>
				<duration>13440</duration>
				<voice>1</voice>
				<type>half</type>
				<stem default-y="5.00">up</stem>
				<staff>1</staff>
			</note>
			<note>
				<chord/>
				<pitch>
					<step>G</step>
					<octave>4</octave>
				</pitch>
				<duration>13440</duration>
				<voice>1</voice>
				<type>half</type>
				<stem default-y="5.00">up</stem>
				<staff>1</staff>
			</note>
			<note>
				<pitch>
					<step>E</step>
					<octave>5</octave>
				</pitch>
				<duration>13440</duration>
				<voice>1</voice>
				<type>half</type>
				<stem default-y="-55.24">down</stem>
				<staff>1</staff>
			</note>
			<note>
				<chord/>
				<pitch>
					<step>G</step>
					<octave>4</octave>
				</pitch>
				<duration>13440</duration>
				<voice>1</voice>
				<type>half</type>
				<stem default-y="-55.24">down</stem>
				<staff>1</staff>
			</note>
			<note>
				<pitch>
					<step>D</step>
					<octave>5</octave>
				</pitch>
				<duration>13440</duration>
				<voice>1</voice>
				<type>half</type>
				<stem default-y="-55.24">down</stem>
				<staff>1</staff>
			</note>
			<note>
				<chord/>
				<pitch>
					<step>G</step>
					<octave>4</octave>
				</pitch>
				<duration>13440</duration>
				<voice>1</voice>
				<type>half</type>
				<stem default-y="-55.24">down</stem>
				<staff>1</staff>
			</note>
			<note>
				<pitch>
					<step>C</step>
					<octave>5</octave>
				</pitch>
				<duration>13440</duration>
				<voice>1</voice>
				<type>half</type>
				<stem default-y="15.00">up</stem>
				<staff>1</staff>
			</note>
			<note>
				<chord/>
				<pitch>
					<step>F</step>
					<alter>1</alter>
					<octave>4</octave>
				</pitch>
				<duration>13440</duration>
				<voice>1</voice>
				<type>half</type>
				<stem default-y="15.00">up</stem>
				<staff>1</staff>
			</note>
		</measure>
		<!--==========================[1,5]=============================-->
		<measure number="5" width="165">
			<note>
				<pitch>
					<step>G</step>
					<octave>3</octave>
				</pitch>
				<duration>40320</duration>
				<voice>4</voice>
				<type>whole</type>
				<dot/>
				<stem>none</stem>
				<staff>2</staff>
			</note>
			<note>
				<chord/>
				<pitch>
					<step>D</step>
					<octave>4</octave>
				</pitch>
				<duration>40320</duration>
				<voice>4</voice>
				<type>whole</type>
				<dot/>
				<stem>none</stem>
				<staff>2</staff>
			</note>
			<note>
				<pitch>
					<step>D</step>
					<octave>4</octave>
				</pitch>
				<duration>13440</duration>
				<voice>4</voice>
				<type>half</type>
				<stem default-y="-30.24">down</stem>
				<staff>2</staff>
			</note>
			<note>
				<chord/>
				<pitch>
					<step>B</step>
					<octave>3</octave>
				</pitch>
				<duration>13440</duration>
				<voice>4</voice>
				<type>half</type>
				<stem default-y="-30.24">down</stem>
				<staff>2</staff>
			</note>
			<backup>
				<duration>53760</duration>
			</backup>
			<note>
				<pitch>
					<step>G</step>
					<octave>4</octave>
				</pitch>
				<duration>40320</duration>
				<voice>1</voice>
				<type>whole</type>
				<dot/>
				<stem>none</stem>
				<staff>1</staff>
			</note>
			<note>
				<chord/>
				<pitch>
					<step>B</step>
					<octave>4</octave>
				</pitch>
				<duration>40320</duration>
				<voice>1</voice>
				<type>whole</type>
				<dot/>
				<stem>none</stem>
				<staff>1</staff>
			</note>
			<note>
				<pitch>
					<step>G</step>
					<octave>4</octave>
				</pitch>
				<duration>13440</duration>
				<voice>1</voice>
				<type>half</type>
				<stem default-y="-55.24">down</stem>
				<staff>1</staff>
			</note>
			<note>
				<chord/>
				<pitch>
					<step>D</step>
					<octave>5</octave>
				</pitch>
				<duration>13440</duration>
				<voice>1</voice>
				<type>half</type>
				<stem default-y="-55.24">down</stem>
				<staff>1</staff>
			</note>
		</measure>
		<!--==========================[1,6]=============================-->
		<measure number="6" width="325">
			<print new-system="yes">
				<system-layout>
					<system-margins>
						<left-margin>28.400</left-margin>
						<right-margin>18.849</right-margin>
					</system-margins>
					<system-distance>170.714</system-distance>
				</system-layout>
				<staff-layout number="2">
					<staff-distance>120.714</staff-distance>
				</staff-layout>
			</print>
			<attributes>
				<staff-details number="1" print-object="yes">
				</staff-details>
				<staff-details number="2" print-object="yes">
				</staff-details>
			</attributes>
			<note>
				<pitch>
					<step>A</step>
					<octave>3</octave>
				</pitch>
				<duration>13440</duration>
				<voice>4</voice>
				<type>half</type>
				<stem default-y="-35.24">down</stem>
				<staff>2</staff>
			</note>
			<note>
				<chord/>
				<pitch>
					<step>E</step>
					<octave>4</octave>
				</pitch>
				<duration>13440</duration>
				<voice>4</voice>
				<type>half</type>
				<stem default-y="-35.24">down</stem>
				<staff>2</staff>
			</note>
			<note>
				<pitch>
					<step>D</step>
					<octave>3</octave>
				</pitch>
				<duration>13440</duration>
				<voice>4</voice>
				<type>half</type>
				<stem default-y="-52.52">down</stem>
				<staff>2</staff>
			</note>
			<note>
				<chord/>
				<pitch>
					<step>D</step>
					<octave>4</octave>
				</pitch>
				<duration>13440</duration>
				<voice>4</voice>
				<type>half</type>
				<stem default-y="-50.24">down</stem>
				<staff>2</staff>
			</note>
			<note>
				<pitch>
					<step>D</step>
					<octave>4</octave>
				</pitch>
				<duration>13440</duration>
				<voice>4</voice>
				<type>half</type>
				<stem default-y="-40.24">down</stem>
				<staff>2</staff>
			</note>
			<note>
				<chord/>
				<pitch>
					<step>G</step>
					<octave>3</octave>
				</pitch>
				<duration>13440</duration>
				<voice>4</voice>
				<type>half</type>
				<stem default-y="-40.24">down</stem>
				<staff>2</staff>
			</note>
			<note>
				<pitch>
					<step>B</step>
					<octave>3</octave>
				</pitch>
				<duration>13440</duration>
				<voice>4</voice>
				<type>half</type>
				<stem default-y="-40.24">down</stem>
				<staff>2</staff>
			</note>
			<note>
				<chord/>
				<pitch>
					<step>G</step>
					<octave>3</octave>
				</pitch>
				<duration>13440</duration>
				<voice>4</voice>
				<type>half</type>
				<stem default-y="-40.24">down</stem>
				<staff>2</staff>
			</note>
			<backup>
				<duration>53760</duration>
			</backup>
			<note>
				<pitch>
					<step>G</step>
					<octave>4</octave>
				</pitch>
				<duration>13440</duration>
				<voice>1</voice>
				<type>half</type>
				<stem default-y="15.00">up</stem>
				<staff>1</staff>
			</note>
			<note>
				<chord/>
				<pitch>
					<step>C</step>
					<octave>5</octave>
				</pitch>
				<duration>13440</duration>
				<voice>1</voice>
				<type>half</type>
				<stem default-y="15.00">up</stem>
				<staff>1</staff>
			</note>
			<note>
				<pitch>
					<step>F</step>
					<alter>1</alter>
					<octave>4</octave>
				</pitch>
				<duration>13440</duration>
				<voice>1</voice>
				<type>half</type>
				<stem default-y="15.00">up</stem>
				<staff>1</staff>
			</note>
			<note>
				<chord/>
				<pitch>
					<step>D</step>
					<octave>5</octave>
				</pitch>
				<duration>13440</duration>
				<voice>1</voice>
				<type>half</type>
				<stem default-y="15.00">up</stem>
				<staff>1</staff>
			</note>
			<note>
				<pitch>
					<step>G</step>
					<octave>4</octave>
				</pitch>
				<duration>13440</duration>
				<voice>1</voice>
				<type>half</type>
				<stem default-y="10.00">up</stem>
				<staff>1</staff>
			</note>
			<note>
				<chord/>
				<pitch>
					<step>B</step>
					<octave>4</octave>
				</pitch>
				<duration>13440</duration>
				<voice>1</voice>
				<type>half</type>
				<stem default-y="10.00">up</stem>
				<staff>1</staff>
			</note>
			<forward>
				<duration>13440</duration>
			</forward>
			<direction placement="below">
				<direction-type>
					<words font-family="Times New Roman" font-size="11" font-weight="bold" font-style="normal" relative-x="0.00" default-y="-276.07">What grace, O Lord, and</words>
				</direction-type>
				<staff>1</staff>
			</direction>
			<direction placement="below">
				<direction-type>
					<words font-family="Times New Roman" font-size="11" font-weight="bold" font-style="normal" relative-x="0.00" default-y="-298.21">Around Thy steps below!</words>
				</direction-type>
				<staff>1</staff>
			</direction>
			<direction placement="below">
				<direction-type>
					<words font-family="Times New Roman" font-size="11" font-weight="bold" font-style="normal" relative-x="0.00" default-y="-320.12">What patient love was</words>
				</direction-type>
				<staff>1</staff>
			</direction>
			<direction placement="below">
				<direction-type>
					<words font-family="Times New Roman" font-size="11" font-weight="bold" font-style="normal" relative-x="0.00" default-y="-342.26">Thy life and death of woe.</words>
				</direction-type>
				<staff>1</staff>
			</direction>
			<backup>
				<duration>13440</duration>
			</backup>
			<note>
				<pitch>
					<step>B</step>
					<octave>4</octave>
				</pitch>
				<duration>13440</duration>
				<voice>1</voice>
				<type>half</type>
				<stem default-y="10.00">up</stem>
				<staff>1</staff>
			</note>
			<note>
				<chord/>
				<pitch>
					<step>E</step>
					<octave>4</octave>
				</pitch>
				<duration>13440</duration>
				<voice>1</voice>
				<type>half</type>
				<stem default-y="10.00">up</stem>
				<staff>1</staff>
			</note>
		</measure>
		<!--==========================[1,7]=============================-->
		<measure number="7" width="271">
			<note>
				<pitch>
					<step>F</step>
					<alter>1</alter>
					<octave>3</octave>
				</pitch>
				<duration>13440</duration>
				<voice>4</voice>
				<type>half</type>
				<stem default-y="-45.24">down</stem>
				<staff>2</staff>
			</note>
			<note>
				<chord/>
				<pitch>
					<step>C</step>
					<octave>4</octave>
				</pitch>
				<duration>13440</duration>
				<voice>4</voice>
				<type>half</type>
				<stem default-y="-45.24">down</stem>
				<staff>2</staff>
			</note>
			<note>
				<pitch>
					<step>B</step>
					<octave>2</octave>
				</pitch>
				<duration>13440</duration>
				<voice>4</voice>
				<type>half</type>
				<stem default-y="-62.52">down</stem>
				<staff>2</staff>
			</note>
			<note>
				<chord/>
				<pitch>
					<step>B</step>
					<octave>3</octave>
				</pitch>
				<duration>13440</duration>
				<voice>4</voice>
				<type>half</type>
				<stem default-y="-55.24">down</stem>
				<staff>2</staff>
			</note>
			<note>
				<pitch>
					<step>B</step>
					<octave>3</octave>
				</pitch>
				<duration>13440</duration>
				<voice>4</voice>
				<type>half</type>
				<stem default-y="-50.24">down</stem>
				<staff>2</staff>
			</note>
			<note>
				<chord/>
				<pitch>
					<step>E</step>
					<octave>3</octave>
				</pitch>
				<duration>13440</duration>
				<voice>4</voice>
				<type>half</type>
				<stem default-y="-50.24">down</stem>
				<staff>2</staff>
			</note>
			<note>
				<pitch>
					<step>B</step>
					<octave>3</octave>
				</pitch>
				<duration>13440</duration>
				<voice>4</voice>
				<type>half</type>
				<stem default-y="-65.24">down</stem>
				<staff>2</staff>
			</note>
			<note>
				<chord/>
				<pitch>
					<step>G</step>
					<octave>2</octave>
				</pitch>
				<duration>13440</duration>
				<voice>4</voice>
				<type>half</type>
				<stem default-y="-82.52">down</stem>
				<staff>2</staff>
			</note>
			<backup>
				<duration>53760</duration>
			</backup>
			<note>
				<pitch>
					<step>E</step>
					<octave>4</octave>
				</pitch>
				<duration>13440</duration>
				<voice>1</voice>
				<type>half</type>
				<stem default-y="10.00">up</stem>
				<staff>1</staff>
			</note>
			<note>
				<chord/>
				<pitch>
					<step>A</step>
					<octave>4</octave>
				</pitch>
				<duration>13440</duration>
				<voice>1</voice>
				<type>half</type>
				<stem default-y="10.00">up</stem>
				<staff>1</staff>
			</note>
			<note>
				<pitch>
					<step>D</step>
					<alter>1</alter>
					<octave>4</octave>
				</pitch>
				<duration>13440</duration>
				<voice>1</voice>
				<type>half</type>
				<accidental>sharp</accidental>
				<stem default-y="10.00">up</stem>
				<staff>1</staff>
			</note>
			<note>
				<chord/>
				<pitch>
					<step>B</step>
					<octave>4</octave>
				</pitch>
				<duration>13440</duration>
				<voice>1</voice>
				<type>half</type>
				<stem default-y="10.00">up</stem>
				<staff>1</staff>
			</note>
			<note>
				<pitch>
					<step>G</step>
					<octave>4</octave>
				</pitch>
				<duration>13440</duration>
				<voice>1</voice>
				<type>half</type>
				<stem default-y="5.00">up</stem>
				<staff>1</staff>
			</note>
			<note>
				<chord/>
				<pitch>
					<step>E</step>
					<octave>4</octave>
				</pitch>
				<duration>13440</duration>
				<voice>1</voice>
				<type>half</type>
				<stem default-y="5.00">up</stem>
				<staff>1</staff>
			</note>
			<forward>
				<duration>13440</duration>
			</forward>
			<direction placement="below">
				<direction-type>
					<words font-family="Times New Roman" font-size="11" font-weight="bold" font-style="normal" relative-x="0.00" default-y="-320.12">seen in all</words>
				</direction-type>
				<staff>1</staff>
			</direction>
			<direction placement="below">
				<direction-type>
					<words font-family="Times New Roman" font-size="11" font-weight="bold" font-style="normal" relative-x="0.00" default-y="-276.07">beauty shone</words>
				</direction-type>
				<staff>1</staff>
			</direction>
			<direction placement="below">
				<direction-type>
					<words font-family="Times New Roman" font-size="11" font-weight="bold" font-style="normal" relative-x="0.00" default-y="-278.45">O</words>
				</direction-type>
				<staff>1</staff>
			</direction>
			<direction placement="below">
				<direction-type>
					<words font-family="Times New Roman" font-size="11" font-weight="bold" font-style="normal" relative-x="0.00" default-y="-300.60">Like</words>
				</direction-type>
				<staff>1</staff>
			</direction>
			<direction placement="below">
				<direction-type>
					<words font-family="Times New Roman" font-size="11" font-weight="bold" font-style="normal" relative-x="0.00" default-y="-322.74">Far</words>
				</direction-type>
				<staff>1</staff>
			</direction>
			<direction placement="below">
				<direction-type>
					<words font-family="Times New Roman" font-size="11" font-weight="bold" font-style="normal" relative-x="0.00" default-y="-344.64">The</words>
				</direction-type>
				<staff>1</staff>
			</direction>
			<backup>
				<duration>13440</duration>
			</backup>
			<note>
				<pitch>
					<step>B</step>
					<octave>4</octave>
				</pitch>
				<duration>13440</duration>
				<voice>1</voice>
				<type>half</type>
				<stem default-y="10.00">up</stem>
				<staff>1</staff>
			</note>
			<note>
				<chord/>
				<pitch>
					<step>E</step>
					<octave>4</octave>
				</pitch>
				<duration>13440</duration>
				<voice>1</voice>
				<type>half</type>
				<stem default-y="10.00">up</stem>
				<staff>1</staff>
			</note>
		</measure>
		<!--==========================[1,8]=============================-->
		<measure number="8" width="329">
			<note>
				<pitch>
					<step>A</step>
					<octave>2</octave>
				</pitch>
				<duration>13440</duration>
				<voice>4</voice>
				<type>half</type>
				<stem default-y="-77.52">down</stem>
				<staff>2</staff>
			</note>
			<note>
				<chord/>
				<pitch>
					<step>C</step>
					<octave>4</octave>
				</pitch>
				<duration>13440</duration>
				<voice>4</voice>
				<type>half</type>
				<stem default-y="-60.24">down</stem>
				<staff>2</staff>
			</note>
			<note>
				<pitch>
					<step>A</step>
					<octave>2</octave>
				</pitch>
				<duration>13440</duration>
				<voice>4</voice>
				<type>half</type>
				<stem default-y="-77.52">down</stem>
				<staff>2</staff>
			</note>
			<note>
				<chord/>
				<pitch>
					<step>C</step>
					<octave>4</octave>
				</pitch>
				<duration>13440</duration>
				<voice>4</voice>
				<type>half</type>
				<stem default-y="-60.24">down</stem>
				<staff>2</staff>
			</note>
			<note>
				<pitch>
					<step>B</step>
					<octave>2</octave>
				</pitch>
				<duration>13440</duration>
				<voice>4</voice>
				<type>half</type>
				<stem default-y="-55.24">down</stem>
				<staff>2</staff>
			</note>
			<backup>
				<duration>13440</duration>
			</backup>
			<note>
				<pitch>
					<step>B</step>
					<octave>3</octave>
				</pitch>
				<duration>13440</duration>
				<voice>5</voice>
				<type>half</type>
				<stem default-y="30.00">up</stem>
				<staff>2</staff>
				<notations>
					<slur type="start" number="1" placement="above" orientation="over"/>
				</notations>
			</note>
			<note>
				<pitch>
					<step>B</step>
					<octave>2</octave>
				</pitch>
				<duration>13440</duration>
				<voice>5</voice>
				<type>half</type>
				<stem default-y="-55.24">down</stem>
				<staff>2</staff>
			</note>
			<backup>
				<duration>13440</duration>
			</backup>
			<note>
				<pitch>
					<step>B</step>
					<octave>3</octave>
				</pitch>
				<duration>6720</duration>
				<voice>4</voice>
				<type>quarter</type>
				<stem default-y="30.00">up</stem>
				<staff>2</staff>
				<notations>
					<slur type="stop" number="1"/>
				</notations>
			</note>
			<note>
				<pitch>
					<step>A</step>
					<octave>3</octave>
				</pitch>
				<duration>6720</duration>
				<voice>4</voice>
				<type>quarter</type>
				<stem default-y="25.00">up</stem>
				<staff>2</staff>
			</note>
			<backup>
				<duration>53760</duration>
			</backup>
			<note>
				<pitch>
					<step>G</step>
					<octave>4</octave>
				</pitch>
				<duration>13440</duration>
				<voice>1</voice>
				<type>half</type>
				<stem default-y="10.00">up</stem>
				<staff>1</staff>
			</note>
			<note>
				<chord/>
				<pitch>
					<step>B</step>
					<octave>4</octave>
				</pitch>
				<duration>13440</duration>
				<voice>1</voice>
				<type>half</type>
				<stem default-y="10.00">up</stem>
				<staff>1</staff>
			</note>
			<note>
				<pitch>
					<step>F</step>
					<alter>1</alter>
					<octave>4</octave>
				</pitch>
				<duration>6720</duration>
				<voice>1</voice>
				<type>quarter</type>
				<stem default-y="-60.24">down</stem>
				<staff>1</staff>
			</note>
			<backup>
				<duration>6720</duration>
			</backup>
			<note>
				<pitch>
					<step>A</step>
					<octave>4</octave>
				</pitch>
				<duration>13440</duration>
				<voice>2</voice>
				<type>half</type>
				<stem default-y="10.00">up</stem>
				<staff>1</staff>
			</note>
			<backup>
				<duration>6720</duration>
			</backup>
			<note>
				<pitch>
					<step>E</step>
					<octave>4</octave>
				</pitch>
				<duration>6720</duration>
				<voice>1</voice>
				<type>quarter</type>
				<stem default-y="-65.24">down</stem>
				<staff>1</staff>
			</note>
			<note>
				<pitch>
					<step>F</step>
					<alter>1</alter>
					<octave>4</octave>
				</pitch>
				<duration>13440</duration>
				<tie type="start"/>
				<voice>1</voice>
				<type>half</type>
				<stem default-y="0.00">up</stem>
				<staff>1</staff>
				<notations>
					<tied type="start" number="1" placement="above" orientation="over"/>
				</notations>
			</note>
			<backup>
				<duration>13440</duration>
			</backup>
			<note>
				<pitch>
					<step>E</step>
					<octave>4</octave>
				</pitch>
				<duration>13440</duration>
				<voice>2</voice>
				<type>half</type>
				<stem default-y="-65.24">down</stem>
				<staff>1</staff>
			</note>
			<forward>
				<duration>13440</duration>
			</forward>
			<direction placement="below">
				<direction-type>
					<words font-family="Times New Roman" font-size="11" font-weight="bold" font-style="normal" relative-x="0.00" default-y="-278.45">give us hearts to love like Thee!</words>
				</direction-type>
				<staff>1</staff>
			</direction>
			<direction placement="below">
				<direction-type>
					<words font-family="Times New Roman" font-size="11" font-weight="bold" font-style="normal" relative-x="0.00" default-y="-322.74">more for others' sins than all</words>
				</direction-type>
				<staff>1</staff>
			</direction>
			<direction placement="below">
				<direction-type>
					<words font-family="Times New Roman" font-size="11" font-weight="bold" font-style="normal" relative-x="0.00" default-y="-344.64">wrongs that we receive.</words>
				</direction-type>
				<staff>1</staff>
			</direction>
			<direction placement="below">
				<direction-type>
					<words font-family="Times New Roman" font-size="11" font-weight="bold" font-style="normal" relative-x="0.00" default-y="-300.60">Thee, O Lord, to grieve</words>
				</direction-type>
				<staff>1</staff>
			</direction>
			<backup>
				<duration>13440</duration>
			</backup>
			<note>
				<pitch>
					<step>D</step>
					<alter>1</alter>
					<octave>4</octave>
				</pitch>
				<duration>13440</duration>
				<voice>2</voice>
				<type>half</type>
				<accidental>sharp</accidental>
				<stem default-y="-70.24">down</stem>
				<staff>1</staff>
			</note>
			<backup>
				<duration>13440</duration>
			</backup>
			<note>
				<pitch>
					<step>F</step>
					<alter>1</alter>
					<octave>4</octave>
				</pitch>
				<duration>6720</duration>
				<tie type="stop"/>
				<voice>1</voice>
				<type>quarter</type>
				<stem default-y="0.00">up</stem>
				<staff>1</staff>
				<notations>
					<tied type="stop" number="1"/>
				</notations>
			</note>
			<note>
				<pitch>
					<step>F</step>
					<alter>1</alter>
					<octave>4</octave>
				</pitch>
				<duration>6720</duration>
				<voice>1</voice>
				<type>quarter</type>
				<stem default-y="0.00">up</stem>
				<staff>1</staff>
			</note>
		</measure>
		<!--==========================[1,9]=============================-->
		<measure number="9" width="127">
			<note>
				<pitch>
					<step>G</step>
					<octave>3</octave>
				</pitch>
				<duration>40320</duration>
				<voice>1</voice>
				<type>whole</type>
				<dot/>
				<stem>none</stem>
				<staff>2</staff>
			</note>
			<note>
				<chord/>
				<pitch>
					<step>E</step>
					<octave>3</octave>
				</pitch>
				<duration>40320</duration>
				<voice>1</voice>
				<type>whole</type>
				<dot/>
				<stem>none</stem>
				<staff>2</staff>
			</note>
			<backup>
				<duration>40320</duration>
			</backup>
			<note>
				<pitch>
					<step>E</step>
					<octave>4</octave>
				</pitch>
				<duration>40320</duration>
				<voice>1</voice>
				<type>whole</type>
				<dot/>
				<stem>none</stem>
				<staff>1</staff>
			</note>
			<barline location="right">
				<bar-style>light-heavy</bar-style>
			</barline>
		</measure>
	</part>
</score-partwise>
