<?xml version='1.0' encoding='US-ASCII' standalone='no'?>
<!DOCTYPE score-partwise PUBLIC '-//Recordare//DTD MusicXML 1.0 Partwise//EN' 'http://www.musicxml.org/dtds/partwise.dtd'>
<score-partwise>
	<movement-title>There Is Room in My Heart for Thee</movement-title>
	<identification>
		<creator type='composer'>Timothy R. Matthews, 1876</creator>
		<creator type='lyricist'>Emily E. Elliott, 1864</creator>
		<rights>PUBLIC DOMAIN</rights>
		<encoding>
			<software>Sibelius</software>
			<software>Dolet for Sibelius 1.1</software>
		</encoding>
	</identification>
	<part-list>
		<score-part id='P1'>
			<part-name>Treble</part-name>
		</score-part>
		<score-part id='P2'>
			<part-name>Bass</part-name>
		</score-part>
	</part-list>
	<part id='P1'>
		<measure number='1'>
			<attributes>
				<divisions>768</divisions>
				<key>
					<fifths>2</fifths>
					<mode>major</mode>
				</key>
				<time>
					<beats>4</beats>
					<beat-type>4</beat-type>
				</time>
				<clef>
					<sign>G</sign>
					<line>2</line>
				</clef>
			</attributes>
			<direction placement='above'>
				<direction-type>
					<metronome>
						<beat-unit>quarter</beat-unit>
						<per-minute>90</per-minute>
					</metronome>
				</direction-type>
				<sound tempo='90'/>
			</direction>
			<note>
				<pitch>
					<step>D</step>
					<octave>4</octave>
				</pitch>
				<duration>384</duration>
				<voice>1</voice>
				<type>eighth</type>
				<beam number='1'>begin</beam>
				<notations>
					<slur type='start' number='1'/>
					<slur type='start' number='2'/>
				</notations>
				<lyric number='1'>
					<syllabic>end</syllabic>
					<text>1. Thou</text>
				</lyric>
				<lyric number='2'>
					<syllabic>middle</syllabic>
					<text>2. Heav</text>
				</lyric>
				<lyric number='3'>
					<syllabic>end</syllabic>
					<text>3. The</text>
				</lyric>
				<lyric number='4'>
					<syllabic>end</syllabic>
					<text>4. Thou</text>
				</lyric>
				<lyric number='5'>
					<syllabic>end</syllabic>
					<text>5. When</text>
				</lyric>
			</note>
			<backup>
				<duration>384</duration>
			</backup>
			<note>
				<pitch>
					<step>D</step>
					<octave>4</octave>
				</pitch>
				<duration>384</duration>
				<voice>2</voice>
				<type>eighth</type>
				<beam number='1'>begin</beam>
			</note>
			<note>
				<pitch>
					<step>D</step>
					<octave>4</octave>
				</pitch>
				<duration>384</duration>
				<voice>1</voice>
				<type>eighth</type>
				<beam number='1'>continue</beam>
				<notations>
					<slur type='stop' number='1'/>
					<slur type='stop' number='2'/>
				</notations>
				<lyric number='1'>
					<syllabic>end</syllabic>
					<text>didst</text>
				</lyric>
				<lyric number='2'>
					<syllabic>end</syllabic>
					<text>en&#8217;s</text>
				</lyric>
				<lyric number='5'>
					<syllabic>end</syllabic>
					<text>the</text>
				</lyric>
			</note>
			<note>
				<chord/>
				<pitch>
					<step>E</step>
					<octave>4</octave>
				</pitch>
				<duration>384</duration>
				<voice>1</voice>
				<type>eighth</type>
			</note>
			<backup>
				<duration>384</duration>
			</backup>
			<note>
				<rest/>
				<duration>384</duration>
				<voice>2</voice>
				<type>eighth</type>
			</note>
		</measure>
		<measure number='2'>
			<note>
				<pitch>
					<step>D</step>
					<octave>4</octave>
				</pitch>
				<duration>768</duration>
				<voice>1</voice>
				<type>quarter</type>
				<lyric number='1'>
					<syllabic>end</syllabic>
					<text>leave</text>
				</lyric>
				<lyric number='2'>
					<syllabic>middle</syllabic>
					<text>arch</text>
				</lyric>
				<lyric number='3'>
					<syllabic>middle</syllabic>
					<text>fox</text>
				</lyric>
				<lyric number='4'>
					<syllabic>middle</syllabic>
					<text>cam</text>
				</lyric>
				<lyric number='5'>
					<syllabic>end</syllabic>
					<text>heav&#8217;ns</text>
				</lyric>
			</note>
			<note>
				<chord/>
				<pitch>
					<step>F</step>
					<alter>1</alter>
					<octave>4</octave>
				</pitch>
				<duration>768</duration>
				<voice>1</voice>
				<type>quarter</type>
			</note>
			<note>
				<pitch>
					<step>D</step>
					<octave>4</octave>
				</pitch>
				<duration>384</duration>
				<voice>1</voice>
				<type>eighth</type>
				<beam number='1'>begin</beam>
				<notations>
					<slur type='start' number='1'/>
					<slur type='start' number='2'/>
				</notations>
				<lyric number='1'>
					<syllabic>end</syllabic>
					<text>Thy</text>
				</lyric>
				<lyric number='2'>
					<syllabic>end</syllabic>
					<text>es</text>
				</lyric>
				<lyric number='3'>
					<syllabic>end</syllabic>
					<text>es</text>
				</lyric>
				<lyric number='4'>
					<syllabic>end</syllabic>
					<text>est,</text>
				</lyric>
				<lyric number='5'>
					<syllabic>end</syllabic>
					<text>shall</text>
				</lyric>
			</note>
			<note>
				<chord/>
				<pitch>
					<step>F</step>
					<alter>1</alter>
					<octave>4</octave>
				</pitch>
				<duration>384</duration>
				<voice>1</voice>
				<type>eighth</type>
			</note>
			<note>
				<pitch>
					<step>D</step>
					<octave>4</octave>
				</pitch>
				<duration>384</duration>
				<voice>1</voice>
				<type>eighth</type>
				<beam number='1'>continue</beam>
				<notations>
					<slur type='stop' number='1'/>
					<slur type='stop' number='2'/>
				</notations>
				<lyric number='3'>
					<syllabic>end</syllabic>
					<text>found</text>
				</lyric>
				<lyric number='4'>
					<syllabic>end</syllabic>
					<text>O</text>
				</lyric>
			</note>
			<note>
				<chord/>
				<pitch>
					<step>F</step>
					<alter>1</alter>
					<octave>4</octave>
				</pitch>
				<duration>384</duration>
				<voice>1</voice>
				<type>eighth</type>
			</note>
			<note>
				<pitch>
					<step>B</step>
					<octave>3</octave>
				</pitch>
				<duration>768</duration>
				<voice>1</voice>
				<type>quarter</type>
				<lyric number='1'>
					<syllabic>end</syllabic>
					<text>throne</text>
				</lyric>
				<lyric number='2'>
					<syllabic>end</syllabic>
					<text>rang</text>
				</lyric>
				<lyric number='3'>
					<syllabic>end</syllabic>
					<text>rest,</text>
				</lyric>
				<lyric number='4'>
					<syllabic>end</syllabic>
					<text>Lord,</text>
				</lyric>
				<lyric number='5'>
					<syllabic>end</syllabic>
					<text>ring,</text>
				</lyric>
			</note>
			<note>
				<chord/>
				<pitch>
					<step>G</step>
					<octave>4</octave>
				</pitch>
				<duration>768</duration>
				<voice>1</voice>
				<type>quarter</type>
			</note>
			<note>
				<pitch>
					<step>C</step>
					<alter>1</alter>
					<octave>4</octave>
				</pitch>
				<duration>384</duration>
				<voice>1</voice>
				<type>eighth</type>
				<beam number='1'>begin</beam>
				<lyric number='1'>
					<syllabic>end</syllabic>
					<text>and</text>
				</lyric>
				<lyric number='2'>
					<syllabic>end</syllabic>
					<text>when</text>
				</lyric>
				<lyric number='3'>
					<syllabic>end</syllabic>
					<text>and</text>
				</lyric>
				<lyric number='4'>
					<syllabic>end</syllabic>
					<text>with</text>
				</lyric>
				<lyric number='5'>
					<syllabic>end</syllabic>
					<text>and</text>
				</lyric>
			</note>
			<note>
				<chord/>
				<pitch>
					<step>F</step>
					<alter>1</alter>
					<octave>4</octave>
				</pitch>
				<duration>384</duration>
				<voice>1</voice>
				<type>eighth</type>
			</note>
			<note>
				<pitch>
					<step>C</step>
					<alter>1</alter>
					<octave>4</octave>
				</pitch>
				<duration>384</duration>
				<voice>1</voice>
				<type>eighth</type>
				<beam number='1'>continue</beam>
				<lyric number='1'>
					<syllabic>end</syllabic>
					<text>Thy</text>
				</lyric>
				<lyric number='2'>
					<syllabic>end</syllabic>
					<text>the</text>
				</lyric>
				<lyric number='3'>
					<syllabic>end</syllabic>
					<text>the</text>
				</lyric>
				<lyric number='4'>
					<syllabic>end</syllabic>
					<text>the</text>
				</lyric>
				<lyric number='5'>
					<syllabic>end</syllabic>
					<text>her</text>
				</lyric>
			</note>
			<note>
				<chord/>
				<pitch>
					<step>E</step>
					<octave>4</octave>
				</pitch>
				<duration>384</duration>
				<voice>1</voice>
				<type>eighth</type>
			</note>
		</measure>
		<measure number='3'>
			<note>
				<pitch>
					<step>D</step>
					<octave>4</octave>
				</pitch>
				<duration>768</duration>
				<voice>1</voice>
				<type>quarter</type>
				<lyric number='1'>
					<syllabic>middle</syllabic>
					<text>king</text>
				</lyric>
				<lyric number='2'>
					<syllabic>middle</syllabic>
					<text>an</text>
				</lyric>
				<lyric number='3'>
					<syllabic>end</syllabic>
					<text>birds</text>
				</lyric>
				<lyric number='4'>
					<syllabic>middle</syllabic>
					<text>liv</text>
				</lyric>
				<lyric number='5'>
					<syllabic>end</syllabic>
					<text>choirs</text>
				</lyric>
			</note>
			<backup>
				<duration>768</duration>
			</backup>
			<note>
				<pitch>
					<step>D</step>
					<octave>4</octave>
				</pitch>
				<duration>768</duration>
				<voice>2</voice>
				<type>quarter</type>
			</note>
			<note>
				<pitch>
					<step>B</step>
					<octave>3</octave>
				</pitch>
				<duration>768</duration>
				<voice>1</voice>
				<type>quarter</type>
				<lyric number='1'>
					<syllabic>end</syllabic>
					<text>ly</text>
				</lyric>
				<lyric number='2'>
					<syllabic>end</syllabic>
					<text>gels</text>
				</lyric>
				<lyric number='3'>
					<syllabic>end</syllabic>
					<text>their</text>
				</lyric>
				<lyric number='4'>
					<syllabic>end</syllabic>
					<text>ing</text>
				</lyric>
				<lyric number='5'>
					<syllabic>end</syllabic>
					<text>shall</text>
				</lyric>
			</note>
			<note>
				<chord/>
				<pitch>
					<step>E</step>
					<octave>4</octave>
				</pitch>
				<duration>768</duration>
				<voice>1</voice>
				<type>quarter</type>
			</note>
			<backup>
				<duration>768</duration>
			</backup>
			<note>
				<rest/>
				<duration>768</duration>
				<voice>2</voice>
				<type>quarter</type>
			</note>
			<note>
				<pitch>
					<step>C</step>
					<alter>1</alter>
					<octave>4</octave>
				</pitch>
				<duration>768</duration>
				<voice>1</voice>
				<type>quarter</type>
				<lyric number='1'>
					<syllabic>end</syllabic>
					<text>crown,</text>
				</lyric>
				<lyric number='2'>
					<syllabic>end</syllabic>
					<text>sang,</text>
				</lyric>
				<lyric number='3'>
					<syllabic>end</syllabic>
					<text>nest</text>
				</lyric>
				<lyric number='4'>
					<syllabic>end</syllabic>
					<text>Word,</text>
				</lyric>
				<lyric number='5'>
					<syllabic>end</syllabic>
					<text>sing,</text>
				</lyric>
			</note>
			<note>
				<chord/>
				<pitch>
					<step>F</step>
					<alter>1</alter>
					<octave>4</octave>
				</pitch>
				<duration>768</duration>
				<voice>1</voice>
				<type>quarter</type>
			</note>
			<backup>
				<duration>768</duration>
			</backup>
			<note>
				<rest/>
				<duration>1536</duration>
				<voice>2</voice>
				<type>half</type>
			</note>
			<backup>
				<duration>768</duration>
			</backup>
			<note>
				<pitch>
					<step>D</step>
					<octave>4</octave>
				</pitch>
				<duration>384</duration>
				<voice>1</voice>
				<type>eighth</type>
				<beam number='1'>begin</beam>
				<notations>
					<slur type='start' number='1'/>
					<slur type='start' number='2'/>
				</notations>
				<lyric number='1'>
					<syllabic>end</syllabic>
					<text>When</text>
				</lyric>
				<lyric number='2'>
					<syllabic>middle</syllabic>
					<text>Pro</text>
					<extend/>
				</lyric>
				<lyric number='3'>
					<syllabic>end</syllabic>
					<text>In</text>
				</lyric>
				<lyric number='4'>
					<syllabic>end</syllabic>
					<text>That</text>
				</lyric>
				<lyric number='5'>
					<syllabic>end</syllabic>
					<text>At</text>
				</lyric>
			</note>
			<note>
				<chord/>
				<pitch>
					<step>F</step>
					<alter>1</alter>
					<octave>4</octave>
				</pitch>
				<duration>384</duration>
				<voice>1</voice>
				<type>eighth</type>
			</note>
			<note>
				<pitch>
					<step>D</step>
					<octave>4</octave>
				</pitch>
				<duration>384</duration>
				<voice>1</voice>
				<type>eighth</type>
				<beam number='1'>continue</beam>
				<notations>
					<slur type='stop' number='1'/>
					<slur type='stop' number='2'/>
				</notations>
				<lyric number='1'>
					<syllabic>end</syllabic>
					<text>Thou</text>
				</lyric>
				<lyric number='3'>
					<syllabic>end</syllabic>
					<text>the</text>
				</lyric>
				<lyric number='4'>
					<syllabic>end</syllabic>
					<text>should</text>
				</lyric>
				<lyric number='5'>
					<syllabic>end</syllabic>
					<text>Thy</text>
				</lyric>
			</note>
			<note>
				<chord/>
				<pitch>
					<step>G</step>
					<alter>1</alter>
					<octave>4</octave>
				</pitch>
				<duration>384</duration>
				<voice>1</voice>
				<type>eighth</type>
			</note>
		</measure>
		<measure number='4'>
			<note>
				<pitch>
					<step>C</step>
					<alter>1</alter>
					<octave>4</octave>
				</pitch>
				<duration>768</duration>
				<voice>1</voice>
				<type>quarter</type>
				<lyric number='1'>
					<syllabic>middle</syllabic>
					<text>cam</text>
				</lyric>
				<lyric number='2'>
					<syllabic>middle</syllabic>
					<text>claim</text>
				</lyric>
				<lyric number='3'>
					<syllabic>end</syllabic>
					<text>shade</text>
				</lyric>
				<lyric number='4'>
					<syllabic>end</syllabic>
					<text>set</text>
				</lyric>
				<lyric number='5'>
					<syllabic>middle</syllabic>
					<text>com</text>
				</lyric>
			</note>
			<note>
				<chord/>
				<pitch>
					<step>A</step>
					<octave>4</octave>
				</pitch>
				<duration>768</duration>
				<voice>1</voice>
				<type>quarter</type>
			</note>
			<backup>
				<duration>768</duration>
			</backup>
			<note>
				<rest/>
				<duration>1536</duration>
				<voice>2</voice>
				<type>half</type>
			</note>
			<backup>
				<duration>768</duration>
			</backup>
			<note>
				<pitch>
					<step>E</step>
					<octave>4</octave>
				</pitch>
				<duration>384</duration>
				<voice>1</voice>
				<type>eighth</type>
				<beam number='1'>begin</beam>
				<notations>
					<slur type='start' number='1'/>
					<slur type='start' number='2'/>
				</notations>
				<lyric number='1'>
					<syllabic>end</syllabic>
					<text>est</text>
				</lyric>
				<lyric number='2'>
					<syllabic>end</syllabic>
					<text>ing</text>
				</lyric>
				<lyric number='3'>
					<syllabic>end</syllabic>
					<text>of</text>
				</lyric>
				<lyric number='4'>
					<syllabic>end</syllabic>
					<text>Thy</text>
				</lyric>
				<lyric number='5'>
					<syllabic>end</syllabic>
					<text>ing</text>
				</lyric>
			</note>
			<note>
				<chord/>
				<pitch>
					<step>A</step>
					<octave>4</octave>
				</pitch>
				<duration>384</duration>
				<voice>1</voice>
				<type>eighth</type>
			</note>
			<note>
				<pitch>
					<step>E</step>
					<octave>4</octave>
				</pitch>
				<duration>384</duration>
				<voice>1</voice>
				<type>eighth</type>
				<beam number='1'>continue</beam>
				<notations>
					<slur type='stop' number='1'/>
					<slur type='stop' number='2'/>
				</notations>
				<lyric number='1'>
					<syllabic>end</syllabic>
					<text>to</text>
				</lyric>
				<lyric number='2'>
					<syllabic>end</syllabic>
					<text>Thy</text>
				</lyric>
				<lyric number='3'>
					<syllabic>end</syllabic>
					<text>the</text>
				</lyric>
				<lyric number='5'>
					<syllabic>end</syllabic>
					<text>to</text>
				</lyric>
			</note>
			<note>
				<chord/>
				<pitch>
					<step>A</step>
					<octave>4</octave>
				</pitch>
				<duration>384</duration>
				<voice>1</voice>
				<type>eighth</type>
			</note>
			<note>
				<pitch>
					<step>D</step>
					<octave>4</octave>
				</pitch>
				<duration>768</duration>
				<voice>1</voice>
				<type>quarter</type>
				<lyric number='1'>
					<syllabic>end</syllabic>
					<text>earth</text>
				</lyric>
				<lyric number='2'>
					<syllabic>middle</syllabic>
					<text>roy</text>
				</lyric>
				<lyric number='3'>
					<syllabic>middle</syllabic>
					<text>for</text>
				</lyric>
				<lyric number='4'>
					<syllabic>middle</syllabic>
					<text>peo</text>
				</lyric>
				<lyric number='5'>
					<syllabic>middle</syllabic>
					<text>vic</text>
				</lyric>
			</note>
			<note>
				<chord/>
				<pitch>
					<step>F</step>
					<alter>1</alter>
					<octave>4</octave>
				</pitch>
				<duration>768</duration>
				<voice>1</voice>
				<type>quarter</type>
			</note>
			<backup>
				<duration>768</duration>
			</backup>
			<note>
				<rest/>
				<duration>768</duration>
				<voice>2</voice>
				<type>quarter</type>
			</note>
			<note>
				<pitch>
					<step>D</step>
					<octave>4</octave>
				</pitch>
				<duration>384</duration>
				<voice>1</voice>
				<type>eighth</type>
				<beam number='1'>begin</beam>
				<notations>
					<slur type='start' number='1'/>
				</notations>
				<lyric number='1'>
					<syllabic>end</syllabic>
					<text>for</text>
				</lyric>
				<lyric number='2'>
					<syllabic>end</syllabic>
					<text>al</text>
				</lyric>
				<lyric number='3'>
					<syllabic>end</syllabic>
					<text>est</text>
				</lyric>
				<lyric number='4'>
					<syllabic>end</syllabic>
					<text>ple</text>
				</lyric>
				<lyric number='5'>
					<syllabic>middle</syllabic>
					<text>to</text>
					<extend/>
				</lyric>
			</note>
			<backup>
				<duration>384</duration>
			</backup>
			<note>
				<pitch>
					<step>D</step>
					<octave>4</octave>
				</pitch>
				<duration>384</duration>
				<voice>2</voice>
				<type>eighth</type>
				<beam number='1'>begin</beam>
				<notations>
					<slur type='start' number='2'/>
				</notations>
			</note>
			<note>
				<pitch>
					<step>D</step>
					<octave>4</octave>
				</pitch>
				<duration>384</duration>
				<voice>1</voice>
				<type>eighth</type>
				<beam number='1'>continue</beam>
				<notations>
					<slur type='stop' number='1'/>
				</notations>
				<lyric number='2'>
					<syllabic>middle</syllabic>
					<text>de</text>
				</lyric>
			</note>
			<backup>
				<duration>384</duration>
			</backup>
			<note>
				<pitch>
					<step>D</step>
					<octave>4</octave>
				</pitch>
				<duration>384</duration>
				<voice>2</voice>
				<type>eighth</type>
				<beam number='1'>continue</beam>
				<notations>
					<slur type='stop' number='2'/>
				</notations>
			</note>
		</measure>
		<measure number='5'>
			<note>
				<pitch>
					<step>C</step>
					<alter>1</alter>
					<octave>4</octave>
				</pitch>
				<duration>2304</duration>
				<voice>1</voice>
				<type>half</type>
				<dot/>
				<lyric number='1'>
					<syllabic>end</syllabic>
					<text>me;</text>
				</lyric>
				<lyric number='2'>
					<syllabic>end</syllabic>
					<text>gree;</text>
				</lyric>
				<lyric number='3'>
					<syllabic>end</syllabic>
					<text>tree;</text>
				</lyric>
				<lyric number='4'>
					<syllabic>end</syllabic>
					<text>free;</text>
				</lyric>
				<lyric number='5'>
					<syllabic>end</syllabic>
					<text>ry,</text>
				</lyric>
			</note>
			<note>
				<chord/>
				<pitch>
					<step>E</step>
					<octave>4</octave>
				</pitch>
				<duration>2304</duration>
				<voice>1</voice>
				<type>half</type>
				<dot/>
			</note>
		</measure>
		<measure number='6'>
			<note>
				<pitch>
					<step>C</step>
					<alter>1</alter>
					<octave>4</octave>
				</pitch>
				<duration>384</duration>
				<voice>1</voice>
				<type>eighth</type>
				<beam number='1'>begin</beam>
				<lyric number='1'>
					<syllabic>end</syllabic>
					<text>But</text>
				</lyric>
				<lyric number='2'>
					<syllabic>end</syllabic>
					<text>But</text>
				</lyric>
				<lyric number='3'>
					<syllabic>end</syllabic>
					<text>But</text>
				</lyric>
				<lyric number='4'>
					<syllabic>end</syllabic>
					<text>But</text>
				</lyric>
				<lyric number='5'>
					<syllabic>end</syllabic>
					<text>Let</text>
				</lyric>
			</note>
			<note>
				<chord/>
				<pitch>
					<step>E</step>
					<octave>4</octave>
				</pitch>
				<duration>384</duration>
				<voice>1</voice>
				<type>eighth</type>
			</note>
			<note>
				<pitch>
					<step>C</step>
					<alter>1</alter>
					<octave>4</octave>
				</pitch>
				<duration>384</duration>
				<voice>1</voice>
				<type>eighth</type>
				<beam number='1'>continue</beam>
				<lyric number='1'>
					<syllabic>end</syllabic>
					<text>in</text>
				</lyric>
				<lyric number='2'>
					<syllabic>end</syllabic>
					<text>of</text>
				</lyric>
				<lyric number='3'>
					<syllabic>end</syllabic>
					<text>Thy</text>
				</lyric>
				<lyric number='4'>
					<syllabic>end</syllabic>
					<text>with</text>
				</lyric>
				<lyric number='5'>
					<syllabic>end</syllabic>
					<text>Thy</text>
				</lyric>
			</note>
			<note>
				<chord/>
				<pitch>
					<step>E</step>
					<octave>4</octave>
				</pitch>
				<duration>384</duration>
				<voice>1</voice>
				<type>eighth</type>
			</note>
		</measure>
		<measure number='7'>
			<note>
				<pitch>
					<step>D</step>
					<octave>4</octave>
				</pitch>
				<duration>768</duration>
				<voice>1</voice>
				<type>quarter</type>
				<lyric number='1'>
					<syllabic>middle</syllabic>
					<text>Beth</text>
				</lyric>
				<lyric number='2'>
					<syllabic>middle</syllabic>
					<text>low</text>
				</lyric>
				<lyric number='3'>
					<syllabic>end</syllabic>
					<text>couch</text>
				</lyric>
				<lyric number='4'>
					<syllabic>middle</syllabic>
					<text>mock</text>
				</lyric>
				<lyric number='5'>
					<syllabic>end</syllabic>
					<text>voice</text>
				</lyric>
			</note>
			<note>
				<chord/>
				<pitch>
					<step>F</step>
					<alter>1</alter>
					<octave>4</octave>
				</pitch>
				<duration>768</duration>
				<voice>1</voice>
				<type>quarter</type>
			</note>
			<backup>
				<duration>768</duration>
			</backup>
			<note>
				<rest/>
				<duration>768</duration>
				<voice>2</voice>
				<type>quarter</type>
			</note>
			<note>
				<pitch>
					<step>F</step>
					<alter>1</alter>
					<octave>4</octave>
				</pitch>
				<duration>384</duration>
				<voice>1</voice>
				<type>eighth</type>
				<beam number='1'>begin</beam>
				<notations>
					<slur type='start' number='1'/>
					<slur type='start' number='2'/>
				</notations>
				<lyric number='1'>
					<syllabic>middle</syllabic>
					<text>le</text>
				</lyric>
				<lyric number='2'>
					<syllabic>end</syllabic>
					<text>ly</text>
				</lyric>
				<lyric number='3'>
					<syllabic>end</syllabic>
					<text>was</text>
				</lyric>
				<lyric number='4'>
					<syllabic>end</syllabic>
					<text>ing</text>
				</lyric>
				<lyric number='5'>
					<syllabic>end</syllabic>
					<text>call</text>
				</lyric>
			</note>
			<backup>
				<duration>384</duration>
			</backup>
			<note>
				<pitch>
					<step>F</step>
					<alter>1</alter>
					<octave>4</octave>
				</pitch>
				<duration>384</duration>
				<voice>2</voice>
				<type>eighth</type>
				<beam number='1'>begin</beam>
			</note>
			<note>
				<pitch>
					<step>F</step>
					<alter>1</alter>
					<octave>4</octave>
				</pitch>
				<duration>384</duration>
				<voice>1</voice>
				<type>eighth</type>
				<beam number='1'>continue</beam>
				<notations>
					<slur type='stop' number='1'/>
					<slur type='stop' number='2'/>
				</notations>
				<lyric number='1'>
					<syllabic>end</syllabic>
					<text>hem&#8217;s</text>
				</lyric>
				<lyric number='3'>
					<syllabic>end</syllabic>
					<text>the</text>
				</lyric>
				<lyric number='5'>
					<syllabic>end</syllabic>
					<text>me</text>
				</lyric>
			</note>
			<backup>
				<duration>384</duration>
			</backup>
			<note>
				<pitch>
					<step>F</step>
					<alter>1</alter>
					<octave>4</octave>
				</pitch>
				<duration>384</duration>
				<voice>2</voice>
				<type>eighth</type>
				<beam number='1'>continue</beam>
			</note>
			<note>
				<pitch>
					<step>F</step>
					<alter>1</alter>
					<octave>4</octave>
				</pitch>
				<duration>768</duration>
				<voice>1</voice>
				<type>quarter</type>
				<lyric number='1'>
					<syllabic>end</syllabic>
					<text>home</text>
				</lyric>
				<lyric number='2'>
					<syllabic>end</syllabic>
					<text>birth</text>
				</lyric>
				<lyric number='3'>
					<syllabic>end</syllabic>
					<text>sod,</text>
				</lyric>
				<lyric number='4'>
					<syllabic>end</syllabic>
					<text>scorn</text>
				</lyric>
				<lyric number='5'>
					<syllabic>end</syllabic>
					<text>home,</text>
				</lyric>
			</note>
			<note>
				<chord/>
				<pitch>
					<step>G</step>
					<alter>1</alter>
					<octave>4</octave>
				</pitch>
				<duration>768</duration>
				<voice>1</voice>
				<type>quarter</type>
			</note>
			<backup>
				<duration>768</duration>
			</backup>
			<note>
				<rest/>
				<duration>1536</duration>
				<voice>2</voice>
				<type>half</type>
			</note>
			<backup>
				<duration>768</duration>
			</backup>
			<note>
				<pitch>
					<step>E</step>
					<alter>1</alter>
					<octave>4</octave>
				</pitch>
				<duration>384</duration>
				<voice>1</voice>
				<type>eighth</type>
				<beam number='1'>begin</beam>
				<lyric number='1'>
					<syllabic>end</syllabic>
					<text>was</text>
				</lyric>
				<lyric number='2'>
					<syllabic>end</syllabic>
					<text>didst</text>
				</lyric>
				<lyric number='3'>
					<syllabic>end</syllabic>
					<text>O</text>
				</lyric>
				<lyric number='4'>
					<syllabic>end</syllabic>
					<text>and</text>
				</lyric>
				<lyric number='5'>
					<syllabic>middle</syllabic>
					<text>say</text>
				</lyric>
			</note>
			<note>
				<chord/>
				<pitch>
					<step>G</step>
					<alter>1</alter>
					<octave>4</octave>
				</pitch>
				<duration>384</duration>
				<voice>1</voice>
				<type>eighth</type>
			</note>
			<note>
				<pitch>
					<step>E</step>
					<alter>1</alter>
					<octave>4</octave>
				</pitch>
				<duration>384</duration>
				<voice>1</voice>
				<type>eighth</type>
				<beam number='1'>continue</beam>
				<lyric number='1'>
					<syllabic>end</syllabic>
					<text>there</text>
				</lyric>
				<lyric number='2'>
					<syllabic>end</syllabic>
					<text>Thou</text>
				</lyric>
				<lyric number='3'>
					<syllabic>end</syllabic>
					<text>Thou</text>
				</lyric>
				<lyric number='4'>
					<syllabic>end</syllabic>
					<text>with</text>
				</lyric>
				<lyric number='5'>
					<syllabic>end</syllabic>
					<text>ing,</text>
				</lyric>
			</note>
			<note>
				<chord/>
				<pitch>
					<step>G</step>
					<alter>1</alter>
					<octave>4</octave>
				</pitch>
				<duration>384</duration>
				<voice>1</voice>
				<type>eighth</type>
			</note>
		</measure>
		<measure number='8'>
			<note>
				<pitch>
					<step>C</step>
					<alter>1</alter>
					<octave>4</octave>
				</pitch>
				<duration>768</duration>
				<voice>1</voice>
				<type>quarter</type>
				<lyric number='1'>
					<syllabic>end</syllabic>
					<text>found</text>
				</lyric>
				<lyric number='2'>
					<syllabic>end</syllabic>
					<text>come</text>
				</lyric>
				<lyric number='3'>
					<syllabic>end</syllabic>
					<text>Son</text>
				</lyric>
				<lyric number='4'>
					<syllabic>end</syllabic>
					<text>crown</text>
				</lyric>
				<lyric number='5'>
					<syllabic>end</syllabic>
					<text>&#8220;Yet</text>
				</lyric>
			</note>
			<note>
				<chord/>
				<pitch>
					<step>A</step>
					<octave>4</octave>
				</pitch>
				<duration>768</duration>
				<voice>1</voice>
				<type>quarter</type>
			</note>
			<note>
				<pitch>
					<step>D</step>
					<octave>4</octave>
				</pitch>
				<duration>384</duration>
				<voice>1</voice>
				<type>eighth</type>
				<beam number='1'>begin</beam>
				<notations>
					<slur type='start' number='1'/>
					<slur type='start' number='2'/>
				</notations>
				<lyric number='1'>
					<syllabic>end</syllabic>
					<text>no</text>
				</lyric>
				<lyric number='2'>
					<syllabic>end</syllabic>
					<text>to</text>
				</lyric>
				<lyric number='3'>
					<syllabic>end</syllabic>
					<text>of</text>
				</lyric>
				<lyric number='4'>
					<syllabic>end</syllabic>
					<text>of</text>
				</lyric>
				<lyric number='5'>
					<syllabic>end</syllabic>
					<text>there</text>
				</lyric>
			</note>
			<note>
				<chord/>
				<pitch>
					<step>A</step>
					<octave>4</octave>
				</pitch>
				<duration>384</duration>
				<voice>1</voice>
				<type>eighth</type>
			</note>
			<note>
				<pitch>
					<step>D</step>
					<octave>4</octave>
				</pitch>
				<duration>384</duration>
				<voice>1</voice>
				<type>eighth</type>
				<beam number='1'>continue</beam>
				<notations>
					<slur type='stop' number='1'/>
					<slur type='stop' number='2'/>
				</notations>
				<lyric number='5'>
					<syllabic>end</syllabic>
					<text>is</text>
				</lyric>
			</note>
			<note>
				<chord/>
				<pitch>
					<step>A</step>
					<octave>4</octave>
				</pitch>
				<duration>384</duration>
				<voice>1</voice>
				<type>eighth</type>
			</note>
			<note>
				<pitch>
					<step>D</step>
					<octave>4</octave>
				</pitch>
				<duration>768</duration>
				<voice>1</voice>
				<type>quarter</type>
				<lyric number='1'>
					<syllabic>end</syllabic>
					<text>room</text>
				</lyric>
				<lyric number='2'>
					<syllabic>end</syllabic>
					<text>earth,</text>
				</lyric>
				<lyric number='3'>
					<syllabic>end</syllabic>
					<text>God,</text>
				</lyric>
				<lyric number='4'>
					<syllabic>end</syllabic>
					<text>thorn,</text>
				</lyric>
				<lyric number='5'>
					<syllabic>end</syllabic>
					<text>room,</text>
				</lyric>
			</note>
			<note>
				<chord/>
				<pitch>
					<step>B</step>
					<octave>4</octave>
				</pitch>
				<duration>768</duration>
				<voice>1</voice>
				<type>quarter</type>
			</note>
			<note>
				<pitch>
					<step>D</step>
					<octave>4</octave>
				</pitch>
				<duration>384</duration>
				<voice>1</voice>
				<type>eighth</type>
				<beam number='1'>begin</beam>
				<notations>
					<slur type='start' number='1'/>
					<slur type='start' number='2'/>
				</notations>
				<lyric number='1'>
					<syllabic>end</syllabic>
					<text>For</text>
				</lyric>
				<lyric number='2'>
					<syllabic>end</syllabic>
					<text>And</text>
				</lyric>
				<lyric number='3'>
					<syllabic>end</syllabic>
					<text>In</text>
				</lyric>
				<lyric number='4'>
					<syllabic>end</syllabic>
					<text>They</text>
				</lyric>
				<lyric number='5'>
					<syllabic>end</syllabic>
					<text>There</text>
				</lyric>
			</note>
			<note>
				<chord/>
				<pitch>
					<step>B</step>
					<octave>4</octave>
				</pitch>
				<duration>384</duration>
				<voice>1</voice>
				<type>eighth</type>
			</note>
			<note>
				<pitch>
					<step>D</step>
					<octave>4</octave>
				</pitch>
				<duration>384</duration>
				<voice>1</voice>
				<type>eighth</type>
				<beam number='1'>continue</beam>
				<notations>
					<slur type='stop' number='1'/>
					<slur type='stop' number='2'/>
				</notations>
				<lyric number='1'>
					<syllabic>end</syllabic>
					<text>Thy</text>
				</lyric>
				<lyric number='2'>
					<syllabic>end</syllabic>
					<text>in</text>
				</lyric>
				<lyric number='3'>
					<syllabic>end</syllabic>
					<text>the</text>
				</lyric>
				<lyric number='5'>
					<syllabic>end</syllabic>
					<text>is</text>
				</lyric>
			</note>
			<note>
				<chord/>
				<pitch>
					<step>B</step>
					<octave>4</octave>
				</pitch>
				<duration>384</duration>
				<voice>1</voice>
				<type>eighth</type>
			</note>
		</measure>
		<measure number='9'>
			<note>
				<pitch>
					<step>C</step>
					<alter>1</alter>
					<octave>4</octave>
				</pitch>
				<duration>768</duration>
				<voice>1</voice>
				<type>quarter</type>
				<lyric number='1'>
					<syllabic>middle</syllabic>
					<text>ho</text>
				</lyric>
				<lyric number='2'>
					<syllabic>end</syllabic>
					<text>great</text>
				</lyric>
				<lyric number='3'>
					<syllabic>middle</syllabic>
					<text>des</text>
				</lyric>
				<lyric number='4'>
					<syllabic>end</syllabic>
					<text>bore</text>
				</lyric>
				<lyric number='5'>
					<syllabic>end</syllabic>
					<text>room</text>
				</lyric>
			</note>
			<note>
				<chord/>
				<pitch>
					<step>C</step>
					<alter>1</alter>
					<octave>5</octave>
				</pitch>
				<duration>768</duration>
				<voice>1</voice>
				<type>quarter</type>
			</note>
			<backup>
				<duration>768</duration>
			</backup>
			<note>
				<rest/>
				<duration>1536</duration>
				<voice>2</voice>
				<type>half</type>
			</note>
			<backup>
				<duration>768</duration>
			</backup>
			<note>
				<pitch>
					<step>E</step>
					<octave>4</octave>
				</pitch>
				<duration>384</duration>
				<voice>1</voice>
				<type>eighth</type>
				<beam number='1'>begin</beam>
				<notations>
					<slur type='start' number='1'/>
					<slur type='start' number='2'/>
				</notations>
				<lyric number='1'>
					<syllabic>end</syllabic>
					<text>ly</text>
				</lyric>
				<lyric number='2'>
					<syllabic>middle</syllabic>
					<text>hu</text>
					<extend/>
				</lyric>
				<lyric number='3'>
					<syllabic>end</syllabic>
					<text>erts</text>
				</lyric>
				<lyric number='4'>
					<syllabic>end</syllabic>
					<text>Thee</text>
				</lyric>
				<lyric number='5'>
					<syllabic>end</syllabic>
					<text>at</text>
				</lyric>
			</note>
			<note>
				<chord/>
				<pitch>
					<step>A</step>
					<octave>4</octave>
				</pitch>
				<duration>384</duration>
				<voice>1</voice>
				<type>eighth</type>
			</note>
			<note>
				<pitch>
					<step>E</step>
					<octave>4</octave>
				</pitch>
				<duration>384</duration>
				<voice>1</voice>
				<type>eighth</type>
				<beam number='1'>continue</beam>
				<notations>
					<slur type='stop' number='1'/>
					<slur type='stop' number='2'/>
				</notations>
				<lyric number='1'>
					<syllabic>middle</syllabic>
					<text>na</text>
				</lyric>
				<lyric number='3'>
					<syllabic>end</syllabic>
					<text>of</text>
				</lyric>
				<lyric number='4'>
					<syllabic>end</syllabic>
					<text>to</text>
				</lyric>
				<lyric number='5'>
					<syllabic>end</syllabic>
					<text>My</text>
				</lyric>
			</note>
			<note>
				<chord/>
				<pitch>
					<step>A</step>
					<octave>4</octave>
				</pitch>
				<duration>384</duration>
				<voice>1</voice>
				<type>eighth</type>
			</note>
			<note>
				<pitch>
					<step>B</step>
					<octave>4</octave>
				</pitch>
				<duration>1152</duration>
				<voice>1</voice>
				<type>quarter</type>
				<dot/>
				<lyric number='1'>
					<syllabic>middle</syllabic>
					<text>tiv</text>
				</lyric>
				<lyric number='2'>
					<syllabic>middle</syllabic>
					<text>mil</text>
				</lyric>
				<lyric number='3'>
					<syllabic>middle</syllabic>
					<text>Gal</text>
				</lyric>
				<lyric number='4'>
					<syllabic>middle</syllabic>
					<text>Cal</text>
				</lyric>
				<lyric number='5'>
					<syllabic>end</syllabic>
					<text>side</text>
				</lyric>
			</note>
			<backup>
				<duration>1152</duration>
			</backup>
			<note>
				<pitch>
					<step>E</step>
					<octave>4</octave>
				</pitch>
				<duration>768</duration>
				<voice>2</voice>
				<type>quarter</type>
			</note>
			<note>
				<pitch>
					<step>D</step>
					<octave>4</octave>
				</pitch>
				<duration>768</duration>
				<voice>2</voice>
				<type>quarter</type>
			</note>
			<backup>
				<duration>384</duration>
			</backup>
			<note>
				<pitch>
					<step>C</step>
					<alter>1</alter>
					<octave>5</octave>
				</pitch>
				<duration>384</duration>
				<voice>1</voice>
				<type>eighth</type>
				<beam number='1'>continue</beam>
				<lyric number='1'>
					<syllabic>middle</syllabic>
					<text>i</text>
				</lyric>
				<lyric number='2'>
					<syllabic>middle</syllabic>
					<text>i</text>
				</lyric>
				<lyric number='3'>
					<syllabic>middle</syllabic>
					<text>i</text>
				</lyric>
				<lyric number='4'>
					<syllabic>middle</syllabic>
					<text>va</text>
				</lyric>
				<lyric number='5'>
					<syllabic>end</syllabic>
					<text>for</text>
				</lyric>
			</note>
		</measure>
		<measure number='10'>
			<note>
				<pitch>
					<step>C</step>
					<alter>1</alter>
					<octave>4</octave>
				</pitch>
				<duration>2304</duration>
				<voice>1</voice>
				<type>half</type>
				<dot/>
				<lyric number='1'>
					<syllabic>end</syllabic>
					<text>ty.</text>
				</lyric>
				<lyric number='2'>
					<syllabic>end</syllabic>
					<text>ty.</text>
				</lyric>
				<lyric number='3'>
					<syllabic>end</syllabic>
					<text>lee.</text>
				</lyric>
				<lyric number='4'>
					<syllabic>end</syllabic>
					<text>ry.</text>
				</lyric>
				<lyric number='5'>
					<syllabic>end</syllabic>
					<text>thee.&#8221;</text>
				</lyric>
			</note>
			<note>
				<chord/>
				<pitch>
					<step>A</step>
					<octave>4</octave>
				</pitch>
				<duration>2304</duration>
				<voice>1</voice>
				<type>half</type>
				<dot/>
			</note>
			<barline location='right'>
				<bar-style>light-light</bar-style>
			</barline>
		</measure>
		<measure number='11'>
			<direction>
				<direction-type>
					<words default-y='25' relative-x='-66'>Refrain</words>
				</direction-type>
			</direction>
			<note>
				<pitch>
					<step>C</step>
					<alter>1</alter>
					<octave>4</octave>
				</pitch>
				<duration>768</duration>
				<voice>1</voice>
				<type>quarter</type>
				<lyric number='1'>
					<syllabic>end</syllabic>
					<text>O</text>
				</lyric>
			</note>
			<note>
				<chord/>
				<pitch>
					<step>A</step>
					<octave>4</octave>
				</pitch>
				<duration>768</duration>
				<voice>1</voice>
				<type>quarter</type>
			</note>
		</measure>
		<measure number='12'>
			<note>
				<pitch>
					<step>D</step>
					<octave>4</octave>
				</pitch>
				<duration>768</duration>
				<voice>1</voice>
				<type>quarter</type>
				<lyric number='1'>
					<syllabic>end</syllabic>
					<text>come</text>
				</lyric>
			</note>
			<note>
				<chord/>
				<pitch>
					<step>A</step>
					<octave>4</octave>
				</pitch>
				<duration>768</duration>
				<voice>1</voice>
				<type>quarter</type>
			</note>
			<note>
				<pitch>
					<step>D</step>
					<octave>4</octave>
				</pitch>
				<duration>384</duration>
				<voice>1</voice>
				<type>eighth</type>
				<beam number='1'>begin</beam>
				<lyric number='1'>
					<syllabic>end</syllabic>
					<text>to</text>
				</lyric>
			</note>
			<note>
				<chord/>
				<pitch>
					<step>F</step>
					<alter>1</alter>
					<octave>4</octave>
				</pitch>
				<duration>384</duration>
				<voice>1</voice>
				<type>eighth</type>
			</note>
			<note>
				<pitch>
					<step>C</step>
					<alter>1</alter>
					<octave>4</octave>
				</pitch>
				<duration>384</duration>
				<voice>1</voice>
				<type>eighth</type>
				<beam number='1'>continue</beam>
				<lyric number='1'>
					<syllabic>end</syllabic>
					<text>my</text>
				</lyric>
			</note>
			<note>
				<chord/>
				<pitch>
					<step>G</step>
					<octave>4</octave>
				</pitch>
				<duration>384</duration>
				<voice>1</voice>
				<type>eighth</type>
			</note>
			<note>
				<pitch>
					<step>D</step>
					<octave>4</octave>
				</pitch>
				<duration>768</duration>
				<voice>1</voice>
				<type>quarter</type>
				<lyric number='1'>
					<syllabic>end</syllabic>
					<text>heart,</text>
				</lyric>
			</note>
			<note>
				<chord/>
				<pitch>
					<step>A</step>
					<octave>4</octave>
				</pitch>
				<duration>768</duration>
				<voice>1</voice>
				<type>quarter</type>
			</note>
			<note>
				<pitch>
					<step>F</step>
					<alter>1</alter>
					<octave>4</octave>
				</pitch>
				<duration>768</duration>
				<voice>1</voice>
				<type>quarter</type>
				<lyric number='1'>
					<syllabic>end</syllabic>
					<text>Lord</text>
				</lyric>
			</note>
			<note>
				<chord/>
				<pitch>
					<step>D</step>
					<octave>5</octave>
				</pitch>
				<duration>768</duration>
				<voice>1</voice>
				<type>quarter</type>
			</note>
		</measure>
		<measure number='13'>
			<note>
				<pitch>
					<step>G</step>
					<octave>4</octave>
				</pitch>
				<duration>1536</duration>
				<voice>1</voice>
				<type>half</type>
				<lyric number='1'>
					<syllabic>middle</syllabic>
					<text>Je</text>
				</lyric>
			</note>
			<note>
				<chord/>
				<pitch>
					<step>D</step>
					<octave>5</octave>
				</pitch>
				<duration>1536</duration>
				<voice>1</voice>
				<type>half</type>
			</note>
			<note>
				<pitch>
					<step>G</step>
					<octave>4</octave>
				</pitch>
				<duration>768</duration>
				<voice>1</voice>
				<type>quarter</type>
				<lyric number='1'>
					<syllabic>end</syllabic>
					<text>sus,</text>
				</lyric>
			</note>
			<note>
				<chord/>
				<pitch>
					<step>C</step>
					<alter>1</alter>
					<octave>5</octave>
				</pitch>
				<duration>768</duration>
				<voice>1</voice>
				<type>quarter</type>
			</note>
			<note>
				<pitch>
					<step>E</step>
					<octave>4</octave>
				</pitch>
				<duration>384</duration>
				<voice>1</voice>
				<type>eighth</type>
				<beam number='1'>begin</beam>
				<lyric number='1'>
					<syllabic>end</syllabic>
					<text>There</text>
				</lyric>
			</note>
			<note>
				<chord/>
				<pitch>
					<step>B</step>
					<octave>4</octave>
				</pitch>
				<duration>384</duration>
				<voice>1</voice>
				<type>eighth</type>
			</note>
			<note>
				<pitch>
					<step>E</step>
					<octave>4</octave>
				</pitch>
				<duration>384</duration>
				<voice>1</voice>
				<type>eighth</type>
				<beam number='1'>continue</beam>
				<lyric number='1'>
					<syllabic>end</syllabic>
					<text>is</text>
				</lyric>
			</note>
			<note>
				<chord/>
				<pitch>
					<step>B</step>
					<octave>4</octave>
				</pitch>
				<duration>384</duration>
				<voice>1</voice>
				<type>eighth</type>
			</note>
		</measure>
		<measure number='14'>
			<note>
				<pitch>
					<step>F</step>
					<alter>1</alter>
					<octave>4</octave>
				</pitch>
				<duration>768</duration>
				<voice>1</voice>
				<type>quarter</type>
				<lyric number='1'>
					<syllabic>end</syllabic>
					<text>room</text>
				</lyric>
			</note>
			<note>
				<chord/>
				<pitch>
					<step>A</step>
					<octave>4</octave>
				</pitch>
				<duration>768</duration>
				<voice>1</voice>
				<type>quarter</type>
			</note>
			<backup>
				<duration>768</duration>
			</backup>
			<note>
				<rest/>
				<duration>768</duration>
				<voice>2</voice>
				<type>quarter</type>
			</note>
			<note>
				<pitch>
					<step>D</step>
					<octave>4</octave>
				</pitch>
				<duration>384</duration>
				<voice>1</voice>
				<type>eighth</type>
				<beam number='1'>begin</beam>
				<lyric number='1'>
					<syllabic>end</syllabic>
					<text>in</text>
				</lyric>
			</note>
			<backup>
				<duration>384</duration>
			</backup>
			<note>
				<pitch>
					<step>D</step>
					<octave>4</octave>
				</pitch>
				<duration>384</duration>
				<voice>2</voice>
				<type>eighth</type>
				<beam number='1'>begin</beam>
			</note>
			<note>
				<pitch>
					<step>D</step>
					<octave>4</octave>
				</pitch>
				<duration>384</duration>
				<voice>1</voice>
				<type>eighth</type>
				<beam number='1'>continue</beam>
				<lyric number='1'>
					<syllabic>end</syllabic>
					<text>my</text>
				</lyric>
			</note>
			<note>
				<chord/>
				<pitch>
					<step>E</step>
					<octave>4</octave>
				</pitch>
				<duration>384</duration>
				<voice>1</voice>
				<type>eighth</type>
			</note>
			<backup>
				<duration>384</duration>
			</backup>
			<note>
				<rest/>
				<duration>384</duration>
				<voice>2</voice>
				<type>eighth</type>
			</note>
			<note>
				<pitch>
					<step>D</step>
					<octave>4</octave>
				</pitch>
				<duration>768</duration>
				<voice>1</voice>
				<type>quarter</type>
				<lyric number='1'>
					<syllabic>end</syllabic>
					<text>heart</text>
				</lyric>
			</note>
			<note>
				<chord/>
				<pitch>
					<step>F</step>
					<alter>1</alter>
					<octave>4</octave>
				</pitch>
				<duration>768</duration>
				<voice>1</voice>
				<type>quarter</type>
			</note>
			<backup>
				<duration>768</duration>
			</backup>
			<note>
				<rest/>
				<duration>1536</duration>
				<voice>2</voice>
				<type>half</type>
			</note>
			<backup>
				<duration>768</duration>
			</backup>
			<note>
				<pitch>
					<step>C</step>
					<alter>1</alter>
					<octave>4</octave>
				</pitch>
				<duration>384</duration>
				<voice>1</voice>
				<type>eighth</type>
				<beam number='1'>begin</beam>
				<notations>
					<slur type='start' number='1'/>
					<slur type='start' number='2'/>
				</notations>
				<lyric number='1'>
					<syllabic>end</syllabic>
					<text>for</text>
				</lyric>
			</note>
			<note>
				<chord/>
				<pitch>
					<step>E</step>
					<octave>4</octave>
				</pitch>
				<duration>384</duration>
				<voice>1</voice>
				<type>eighth</type>
			</note>
			<note>
				<pitch>
					<step>C</step>
					<alter>1</alter>
					<octave>4</octave>
				</pitch>
				<duration>384</duration>
				<voice>1</voice>
				<type>eighth</type>
				<beam number='1'>continue</beam>
				<notations>
					<slur type='stop' number='1'/>
					<slur type='stop' number='2'/>
				</notations>
			</note>
			<note>
				<chord/>
				<pitch>
					<step>E</step>
					<octave>4</octave>
				</pitch>
				<duration>384</duration>
				<voice>1</voice>
				<type>eighth</type>
			</note>
		</measure>
		<measure number='15'>
			<note>
				<pitch>
					<step>D</step>
					<octave>4</octave>
				</pitch>
				<duration>2304</duration>
				<voice>1</voice>
				<type>half</type>
				<dot/>
				<lyric number='1'>
					<syllabic>end</syllabic>
					<text>Thee.</text>
				</lyric>
			</note>
			<backup>
				<duration>2304</duration>
			</backup>
			<note>
				<pitch>
					<step>D</step>
					<octave>4</octave>
				</pitch>
				<duration>2304</duration>
				<voice>2</voice>
				<type>half</type>
				<dot/>
			</note>
			<barline location='right'>
				<bar-style>light-heavy</bar-style>
			</barline>
		</measure>
	</part>
	<part id='P2'>
		<measure number='1'>
			<attributes>
				<divisions>768</divisions>
				<key>
					<fifths>2</fifths>
					<mode>major</mode>
				</key>
				<time>
					<beats>4</beats>
					<beat-type>4</beat-type>
				</time>
				<clef>
					<sign>F</sign>
					<line>4</line>
				</clef>
			</attributes>
			<direction placement='above'>
				<direction-type>
					<metronome>
						<beat-unit>quarter</beat-unit>
						<per-minute>90</per-minute>
					</metronome>
				</direction-type>
				<sound tempo='90'/>
			</direction>
			<note>
				<pitch>
					<step>D</step>
					<octave>3</octave>
				</pitch>
				<duration>384</duration>
				<voice>1</voice>
				<type>eighth</type>
				<beam number='1'>begin</beam>
				<notations>
					<slur type='start' number='1'/>
					<slur type='start' number='2'/>
				</notations>
			</note>
			<note>
				<chord/>
				<pitch>
					<step>F</step>
					<alter>1</alter>
					<octave>3</octave>
				</pitch>
				<duration>384</duration>
				<voice>1</voice>
				<type>eighth</type>
			</note>
			<note>
				<pitch>
					<step>D</step>
					<octave>3</octave>
				</pitch>
				<duration>384</duration>
				<voice>1</voice>
				<type>eighth</type>
				<beam number='1'>continue</beam>
				<notations>
					<slur type='stop' number='1'/>
					<slur type='stop' number='2'/>
				</notations>
			</note>
			<note>
				<chord/>
				<pitch>
					<step>G</step>
					<octave>3</octave>
				</pitch>
				<duration>384</duration>
				<voice>1</voice>
				<type>eighth</type>
			</note>
		</measure>
		<measure number='2'>
			<note>
				<pitch>
					<step>D</step>
					<octave>3</octave>
				</pitch>
				<duration>768</duration>
				<voice>1</voice>
				<type>quarter</type>
			</note>
			<note>
				<chord/>
				<pitch>
					<step>A</step>
					<octave>3</octave>
				</pitch>
				<duration>768</duration>
				<voice>1</voice>
				<type>quarter</type>
			</note>
			<note>
				<pitch>
					<step>B</step>
					<octave>2</octave>
				</pitch>
				<duration>384</duration>
				<voice>1</voice>
				<type>eighth</type>
				<beam number='1'>begin</beam>
				<notations>
					<slur type='start' number='1'/>
					<slur type='start' number='2'/>
				</notations>
			</note>
			<note>
				<chord/>
				<pitch>
					<step>B</step>
					<octave>3</octave>
				</pitch>
				<duration>384</duration>
				<voice>1</voice>
				<type>eighth</type>
			</note>
			<note>
				<pitch>
					<step>B</step>
					<octave>2</octave>
				</pitch>
				<duration>384</duration>
				<voice>1</voice>
				<type>eighth</type>
				<beam number='1'>continue</beam>
				<notations>
					<slur type='stop' number='1'/>
					<slur type='stop' number='2'/>
				</notations>
			</note>
			<note>
				<chord/>
				<pitch>
					<step>B</step>
					<octave>3</octave>
				</pitch>
				<duration>384</duration>
				<voice>1</voice>
				<type>eighth</type>
			</note>
			<note>
				<pitch>
					<step>E</step>
					<octave>3</octave>
				</pitch>
				<duration>768</duration>
				<voice>1</voice>
				<type>quarter</type>
			</note>
			<note>
				<chord/>
				<pitch>
					<step>G</step>
					<octave>3</octave>
				</pitch>
				<duration>768</duration>
				<voice>1</voice>
				<type>quarter</type>
			</note>
			<note>
				<pitch>
					<step>A</step>
					<octave>2</octave>
				</pitch>
				<duration>384</duration>
				<voice>1</voice>
				<type>eighth</type>
				<beam number='1'>begin</beam>
			</note>
			<note>
				<chord/>
				<pitch>
					<step>A</step>
					<octave>3</octave>
				</pitch>
				<duration>384</duration>
				<voice>1</voice>
				<type>eighth</type>
			</note>
			<note>
				<pitch>
					<step>A</step>
					<octave>2</octave>
				</pitch>
				<duration>384</duration>
				<voice>1</voice>
				<type>eighth</type>
				<beam number='1'>continue</beam>
			</note>
			<note>
				<chord/>
				<pitch>
					<step>G</step>
					<octave>3</octave>
				</pitch>
				<duration>384</duration>
				<voice>1</voice>
				<type>eighth</type>
			</note>
		</measure>
		<measure number='3'>
			<note>
				<pitch>
					<step>B</step>
					<octave>2</octave>
				</pitch>
				<duration>768</duration>
				<voice>1</voice>
				<type>quarter</type>
			</note>
			<note>
				<chord/>
				<pitch>
					<step>F</step>
					<alter>1</alter>
					<octave>3</octave>
				</pitch>
				<duration>768</duration>
				<voice>1</voice>
				<type>quarter</type>
			</note>
			<note>
				<pitch>
					<step>G</step>
					<octave>2</octave>
				</pitch>
				<duration>768</duration>
				<voice>1</voice>
				<type>quarter</type>
			</note>
			<note>
				<chord/>
				<pitch>
					<step>B</step>
					<octave>3</octave>
				</pitch>
				<duration>768</duration>
				<voice>1</voice>
				<type>quarter</type>
			</note>
			<note>
				<pitch>
					<step>F</step>
					<alter>1</alter>
					<octave>2</octave>
				</pitch>
				<duration>768</duration>
				<voice>1</voice>
				<type>quarter</type>
			</note>
			<note>
				<chord/>
				<pitch>
					<step>A</step>
					<alter>1</alter>
					<octave>3</octave>
				</pitch>
				<duration>768</duration>
				<voice>1</voice>
				<type>quarter</type>
			</note>
			<note>
				<pitch>
					<step>B</step>
					<octave>2</octave>
				</pitch>
				<duration>384</duration>
				<voice>1</voice>
				<type>eighth</type>
				<beam number='1'>begin</beam>
				<notations>
					<slur type='start' number='1'/>
					<slur type='start' number='2'/>
				</notations>
			</note>
			<note>
				<chord/>
				<pitch>
					<step>B</step>
					<octave>3</octave>
				</pitch>
				<duration>384</duration>
				<voice>1</voice>
				<type>eighth</type>
			</note>
			<note>
				<pitch>
					<step>B</step>
					<octave>2</octave>
				</pitch>
				<duration>384</duration>
				<voice>1</voice>
				<type>eighth</type>
				<beam number='1'>continue</beam>
				<notations>
					<slur type='stop' number='1'/>
					<slur type='stop' number='2'/>
				</notations>
			</note>
			<note>
				<chord/>
				<pitch>
					<step>B</step>
					<octave>3</octave>
				</pitch>
				<duration>384</duration>
				<voice>1</voice>
				<type>eighth</type>
			</note>
		</measure>
		<measure number='4'>
			<note>
				<pitch>
					<step>A</step>
					<octave>2</octave>
				</pitch>
				<duration>768</duration>
				<voice>1</voice>
				<type>quarter</type>
			</note>
			<note>
				<chord/>
				<pitch>
					<step>E</step>
					<octave>3</octave>
				</pitch>
				<duration>768</duration>
				<voice>1</voice>
				<type>quarter</type>
			</note>
			<note>
				<pitch>
					<step>C</step>
					<alter>1</alter>
					<octave>3</octave>
				</pitch>
				<duration>384</duration>
				<voice>1</voice>
				<type>eighth</type>
				<beam number='1'>begin</beam>
				<notations>
					<slur type='start' number='1'/>
					<slur type='start' number='2'/>
				</notations>
			</note>
			<note>
				<chord/>
				<pitch>
					<step>A</step>
					<octave>3</octave>
				</pitch>
				<duration>384</duration>
				<voice>1</voice>
				<type>eighth</type>
			</note>
			<note>
				<pitch>
					<step>C</step>
					<alter>1</alter>
					<octave>3</octave>
				</pitch>
				<duration>384</duration>
				<voice>1</voice>
				<type>eighth</type>
				<beam number='1'>continue</beam>
				<notations>
					<slur type='stop' number='1'/>
					<slur type='stop' number='2'/>
				</notations>
			</note>
			<note>
				<chord/>
				<pitch>
					<step>A</step>
					<octave>3</octave>
				</pitch>
				<duration>384</duration>
				<voice>1</voice>
				<type>eighth</type>
			</note>
			<note>
				<pitch>
					<step>D</step>
					<octave>3</octave>
				</pitch>
				<duration>768</duration>
				<voice>1</voice>
				<type>quarter</type>
			</note>
			<note>
				<chord/>
				<pitch>
					<step>A</step>
					<octave>3</octave>
				</pitch>
				<duration>768</duration>
				<voice>1</voice>
				<type>quarter</type>
			</note>
			<note>
				<pitch>
					<step>F</step>
					<alter>1</alter>
					<octave>3</octave>
				</pitch>
				<duration>384</duration>
				<voice>1</voice>
				<type>eighth</type>
				<beam number='1'>begin</beam>
				<notations>
					<slur type='start' number='1'/>
					<slur type='start' number='2'/>
				</notations>
			</note>
			<note>
				<chord/>
				<pitch>
					<step>A</step>
					<octave>3</octave>
				</pitch>
				<duration>384</duration>
				<voice>1</voice>
				<type>eighth</type>
			</note>
			<note>
				<pitch>
					<step>F</step>
					<alter>1</alter>
					<octave>3</octave>
				</pitch>
				<duration>384</duration>
				<voice>1</voice>
				<type>eighth</type>
				<beam number='1'>continue</beam>
				<notations>
					<slur type='stop' number='1'/>
					<slur type='stop' number='2'/>
				</notations>
			</note>
			<note>
				<chord/>
				<pitch>
					<step>A</step>
					<octave>3</octave>
				</pitch>
				<duration>384</duration>
				<voice>1</voice>
				<type>eighth</type>
			</note>
		</measure>
		<measure number='5'>
			<note>
				<pitch>
					<step>A</step>
					<octave>3</octave>
				</pitch>
				<duration>2304</duration>
				<voice>1</voice>
				<type>half</type>
				<dot/>
			</note>
			<backup>
				<duration>2304</duration>
			</backup>
			<note>
				<pitch>
					<step>A</step>
					<octave>3</octave>
				</pitch>
				<duration>2304</duration>
				<voice>2</voice>
				<type>half</type>
				<dot/>
			</note>
		</measure>
		<measure number='6'>
			<note>
				<pitch>
					<step>A</step>
					<octave>2</octave>
				</pitch>
				<duration>384</duration>
				<voice>1</voice>
				<type>eighth</type>
				<beam number='1'>begin</beam>
			</note>
			<note>
				<chord/>
				<pitch>
					<step>A</step>
					<octave>3</octave>
				</pitch>
				<duration>384</duration>
				<voice>1</voice>
				<type>eighth</type>
			</note>
			<note>
				<pitch>
					<step>A</step>
					<octave>2</octave>
				</pitch>
				<duration>384</duration>
				<voice>1</voice>
				<type>eighth</type>
				<beam number='1'>continue</beam>
			</note>
			<note>
				<chord/>
				<pitch>
					<step>A</step>
					<octave>3</octave>
				</pitch>
				<duration>384</duration>
				<voice>1</voice>
				<type>eighth</type>
			</note>
		</measure>
		<measure number='7'>
			<note>
				<pitch>
					<step>D</step>
					<octave>3</octave>
				</pitch>
				<duration>768</duration>
				<voice>1</voice>
				<type>quarter</type>
			</note>
			<note>
				<chord/>
				<pitch>
					<step>A</step>
					<octave>3</octave>
				</pitch>
				<duration>768</duration>
				<voice>1</voice>
				<type>quarter</type>
			</note>
			<note>
				<pitch>
					<step>D</step>
					<octave>3</octave>
				</pitch>
				<duration>384</duration>
				<voice>1</voice>
				<type>eighth</type>
				<beam number='1'>begin</beam>
				<notations>
					<slur type='start' number='1'/>
					<slur type='start' number='2'/>
				</notations>
			</note>
			<note>
				<chord/>
				<pitch>
					<step>A</step>
					<octave>3</octave>
				</pitch>
				<duration>384</duration>
				<voice>1</voice>
				<type>eighth</type>
			</note>
			<note>
				<pitch>
					<step>D</step>
					<octave>3</octave>
				</pitch>
				<duration>384</duration>
				<voice>1</voice>
				<type>eighth</type>
				<beam number='1'>continue</beam>
				<notations>
					<slur type='stop' number='1'/>
					<slur type='stop' number='2'/>
				</notations>
			</note>
			<note>
				<chord/>
				<pitch>
					<step>A</step>
					<octave>3</octave>
				</pitch>
				<duration>384</duration>
				<voice>1</voice>
				<type>eighth</type>
			</note>
			<note>
				<pitch>
					<step>C</step>
					<alter>1</alter>
					<octave>3</octave>
				</pitch>
				<duration>768</duration>
				<voice>1</voice>
				<type>quarter</type>
			</note>
			<note>
				<chord/>
				<pitch>
					<step>B</step>
					<octave>3</octave>
				</pitch>
				<duration>768</duration>
				<voice>1</voice>
				<type>quarter</type>
			</note>
			<note>
				<pitch>
					<step>C</step>
					<alter>1</alter>
					<octave>3</octave>
				</pitch>
				<duration>384</duration>
				<voice>1</voice>
				<type>eighth</type>
				<beam number='1'>begin</beam>
			</note>
			<note>
				<chord/>
				<pitch>
					<step>B</step>
					<octave>3</octave>
				</pitch>
				<duration>384</duration>
				<voice>1</voice>
				<type>eighth</type>
			</note>
			<note>
				<pitch>
					<step>C</step>
					<alter>1</alter>
					<octave>3</octave>
				</pitch>
				<duration>384</duration>
				<voice>1</voice>
				<type>eighth</type>
				<beam number='1'>continue</beam>
			</note>
			<note>
				<chord/>
				<pitch>
					<step>B</step>
					<octave>3</octave>
				</pitch>
				<duration>384</duration>
				<voice>1</voice>
				<type>eighth</type>
			</note>
		</measure>
		<measure number='8'>
			<note>
				<pitch>
					<step>F</step>
					<alter>1</alter>
					<octave>3</octave>
				</pitch>
				<duration>768</duration>
				<voice>1</voice>
				<type>quarter</type>
			</note>
			<note>
				<chord/>
				<pitch>
					<step>A</step>
					<octave>3</octave>
				</pitch>
				<duration>768</duration>
				<voice>1</voice>
				<type>quarter</type>
			</note>
			<note>
				<pitch>
					<step>F</step>
					<octave>3</octave>
				</pitch>
				<duration>384</duration>
				<voice>1</voice>
				<type>eighth</type>
				<beam number='1'>begin</beam>
				<notations>
					<slur type='start' number='1'/>
					<slur type='start' number='2'/>
				</notations>
			</note>
			<note>
				<chord/>
				<pitch>
					<step>A</step>
					<octave>3</octave>
				</pitch>
				<duration>384</duration>
				<voice>1</voice>
				<type>eighth</type>
			</note>
			<note>
				<pitch>
					<step>F</step>
					<octave>3</octave>
				</pitch>
				<duration>384</duration>
				<voice>1</voice>
				<type>eighth</type>
				<beam number='1'>continue</beam>
				<notations>
					<slur type='stop' number='1'/>
					<slur type='stop' number='2'/>
				</notations>
			</note>
			<note>
				<chord/>
				<pitch>
					<step>A</step>
					<octave>3</octave>
				</pitch>
				<duration>384</duration>
				<voice>1</voice>
				<type>eighth</type>
			</note>
			<note>
				<pitch>
					<step>E</step>
					<octave>3</octave>
				</pitch>
				<duration>768</duration>
				<voice>1</voice>
				<type>quarter</type>
			</note>
			<note>
				<chord/>
				<pitch>
					<step>A</step>
					<octave>3</octave>
				</pitch>
				<duration>768</duration>
				<voice>1</voice>
				<type>quarter</type>
			</note>
			<note>
				<pitch>
					<step>E</step>
					<octave>3</octave>
				</pitch>
				<duration>384</duration>
				<voice>1</voice>
				<type>eighth</type>
				<beam number='1'>begin</beam>
				<notations>
					<slur type='start' number='1'/>
					<slur type='start' number='2'/>
				</notations>
			</note>
			<note>
				<chord/>
				<pitch>
					<step>G</step>
					<alter>1</alter>
					<octave>3</octave>
				</pitch>
				<duration>384</duration>
				<voice>1</voice>
				<type>eighth</type>
			</note>
			<note>
				<pitch>
					<step>E</step>
					<octave>3</octave>
				</pitch>
				<duration>384</duration>
				<voice>1</voice>
				<type>eighth</type>
				<beam number='1'>continue</beam>
				<notations>
					<slur type='stop' number='1'/>
					<slur type='stop' number='2'/>
				</notations>
			</note>
			<note>
				<chord/>
				<pitch>
					<step>G</step>
					<alter>1</alter>
					<octave>3</octave>
				</pitch>
				<duration>384</duration>
				<voice>1</voice>
				<type>eighth</type>
			</note>
		</measure>
		<measure number='9'>
			<note>
				<pitch>
					<step>A</step>
					<octave>2</octave>
				</pitch>
				<duration>768</duration>
				<voice>1</voice>
				<type>quarter</type>
			</note>
			<note>
				<chord/>
				<pitch>
					<step>A</step>
					<octave>3</octave>
				</pitch>
				<duration>768</duration>
				<voice>1</voice>
				<type>quarter</type>
			</note>
			<note>
				<pitch>
					<step>C</step>
					<alter>1</alter>
					<octave>3</octave>
				</pitch>
				<duration>384</duration>
				<voice>1</voice>
				<type>eighth</type>
				<beam number='1'>begin</beam>
				<notations>
					<slur type='start' number='1'/>
					<slur type='start' number='2'/>
				</notations>
			</note>
			<note>
				<chord/>
				<pitch>
					<step>A</step>
					<octave>3</octave>
				</pitch>
				<duration>384</duration>
				<voice>1</voice>
				<type>eighth</type>
			</note>
			<note>
				<pitch>
					<step>C</step>
					<alter>1</alter>
					<octave>3</octave>
				</pitch>
				<duration>384</duration>
				<voice>1</voice>
				<type>eighth</type>
				<beam number='1'>continue</beam>
				<notations>
					<slur type='stop' number='1'/>
					<slur type='stop' number='2'/>
				</notations>
			</note>
			<note>
				<chord/>
				<pitch>
					<step>A</step>
					<octave>3</octave>
				</pitch>
				<duration>384</duration>
				<voice>1</voice>
				<type>eighth</type>
			</note>
			<note>
				<pitch>
					<step>E</step>
					<octave>3</octave>
				</pitch>
				<duration>768</duration>
				<voice>1</voice>
				<type>quarter</type>
			</note>
			<note>
				<chord/>
				<pitch>
					<step>A</step>
					<octave>3</octave>
				</pitch>
				<duration>768</duration>
				<voice>1</voice>
				<type>quarter</type>
			</note>
			<note>
				<pitch>
					<step>E</step>
					<octave>3</octave>
				</pitch>
				<duration>768</duration>
				<voice>1</voice>
				<type>quarter</type>
			</note>
			<note>
				<chord/>
				<pitch>
					<step>G</step>
					<alter>1</alter>
					<octave>3</octave>
				</pitch>
				<duration>768</duration>
				<voice>1</voice>
				<type>quarter</type>
			</note>
		</measure>
		<measure number='10'>
			<note>
				<pitch>
					<step>A</step>
					<octave>2</octave>
				</pitch>
				<duration>2304</duration>
				<voice>1</voice>
				<type>half</type>
				<dot/>
			</note>
			<note>
				<chord/>
				<pitch>
					<step>A</step>
					<octave>3</octave>
				</pitch>
				<duration>2304</duration>
				<voice>1</voice>
				<type>half</type>
				<dot/>
			</note>
			<barline location='right'>
				<bar-style>light-light</bar-style>
			</barline>
		</measure>
		<measure number='11'>
			<note>
				<pitch>
					<step>A</step>
					<octave>2</octave>
				</pitch>
				<duration>768</duration>
				<voice>1</voice>
				<type>quarter</type>
				<lyric number='1'>
					<syllabic>end</syllabic>
					<text>My</text>
				</lyric>
			</note>
			<note>
				<chord/>
				<pitch>
					<step>G</step>
					<octave>3</octave>
				</pitch>
				<duration>768</duration>
				<voice>1</voice>
				<type>quarter</type>
			</note>
		</measure>
		<measure number='12'>
			<note>
				<pitch>
					<step>D</step>
					<octave>3</octave>
				</pitch>
				<duration>768</duration>
				<voice>1</voice>
				<type>quarter</type>
				<lyric number='1'>
					<syllabic>end</syllabic>
					<text>heart</text>
				</lyric>
			</note>
			<note>
				<chord/>
				<pitch>
					<step>F</step>
					<alter>1</alter>
					<octave>3</octave>
				</pitch>
				<duration>768</duration>
				<voice>1</voice>
				<type>quarter</type>
			</note>
			<note>
				<pitch>
					<step>D</step>
					<octave>3</octave>
				</pitch>
				<duration>384</duration>
				<voice>1</voice>
				<type>eighth</type>
				<beam number='1'>begin</beam>
				<lyric number='1'>
					<syllabic>end</syllabic>
					<text>shall</text>
				</lyric>
			</note>
			<note>
				<chord/>
				<pitch>
					<step>A</step>
					<octave>3</octave>
				</pitch>
				<duration>384</duration>
				<voice>1</voice>
				<type>eighth</type>
			</note>
			<note>
				<pitch>
					<step>E</step>
					<octave>3</octave>
				</pitch>
				<duration>384</duration>
				<voice>1</voice>
				<type>eighth</type>
				<beam number='1'>continue</beam>
				<lyric number='1'>
					<syllabic>middle</syllabic>
					<text>re</text>
				</lyric>
			</note>
			<note>
				<chord/>
				<pitch>
					<step>A</step>
					<octave>3</octave>
				</pitch>
				<duration>384</duration>
				<voice>1</voice>
				<type>eighth</type>
			</note>
			<note>
				<pitch>
					<step>F</step>
					<alter>1</alter>
					<octave>3</octave>
				</pitch>
				<duration>768</duration>
				<voice>1</voice>
				<type>quarter</type>
				<lyric number='1'>
					<syllabic>end</syllabic>
					<text>joice,</text>
				</lyric>
			</note>
			<note>
				<chord/>
				<pitch>
					<step>A</step>
					<octave>3</octave>
				</pitch>
				<duration>768</duration>
				<voice>1</voice>
				<type>quarter</type>
			</note>
			<note>
				<pitch>
					<step>D</step>
					<octave>3</octave>
				</pitch>
				<duration>768</duration>
				<voice>1</voice>
				<type>quarter</type>
				<lyric number='1'>
					<syllabic>end</syllabic>
					<text>Lord</text>
				</lyric>
			</note>
			<note>
				<chord/>
				<pitch>
					<step>A</step>
					<octave>3</octave>
				</pitch>
				<duration>768</duration>
				<voice>1</voice>
				<type>quarter</type>
			</note>
		</measure>
		<measure number='13'>
			<note>
				<pitch>
					<step>E</step>
					<octave>3</octave>
				</pitch>
				<duration>1536</duration>
				<voice>1</voice>
				<type>half</type>
				<lyric number='1'>
					<syllabic>middle</syllabic>
					<text>Je</text>
				</lyric>
			</note>
			<note>
				<chord/>
				<pitch>
					<step>A</step>
					<octave>3</octave>
				</pitch>
				<duration>1536</duration>
				<voice>1</voice>
				<type>half</type>
			</note>
			<note>
				<pitch>
					<step>E</step>
					<octave>3</octave>
				</pitch>
				<duration>768</duration>
				<voice>1</voice>
				<type>quarter</type>
				<lyric number='1'>
					<syllabic>end</syllabic>
					<text>sus,</text>
				</lyric>
			</note>
			<note>
				<chord/>
				<pitch>
					<step>A</step>
					<octave>3</octave>
				</pitch>
				<duration>768</duration>
				<voice>1</voice>
				<type>quarter</type>
			</note>
			<note>
				<pitch>
					<step>G</step>
					<octave>3</octave>
				</pitch>
				<duration>384</duration>
				<voice>1</voice>
				<type>eighth</type>
				<beam number='1'>begin</beam>
				<lyric number='1'>
					<syllabic>end</syllabic>
					<text>When</text>
				</lyric>
			</note>
			<note>
				<chord/>
				<pitch>
					<step>C</step>
					<alter>1</alter>
					<octave>4</octave>
				</pitch>
				<duration>384</duration>
				<voice>1</voice>
				<type>eighth</type>
			</note>
			<note>
				<pitch>
					<step>G</step>
					<octave>3</octave>
				</pitch>
				<duration>384</duration>
				<voice>1</voice>
				<type>eighth</type>
				<beam number='1'>continue</beam>
				<lyric number='1'>
					<syllabic>end</syllabic>
					<text>Thou</text>
				</lyric>
			</note>
			<note>
				<chord/>
				<pitch>
					<step>C</step>
					<alter>1</alter>
					<octave>4</octave>
				</pitch>
				<duration>384</duration>
				<voice>1</voice>
				<type>eighth</type>
			</note>
		</measure>
		<measure number='14'>
			<note>
				<pitch>
					<step>F</step>
					<alter>1</alter>
					<octave>3</octave>
				</pitch>
				<duration>768</duration>
				<voice>1</voice>
				<type>quarter</type>
				<lyric number='1'>
					<syllabic>middle</syllabic>
					<text>com</text>
				</lyric>
			</note>
			<note>
				<chord/>
				<pitch>
					<step>D</step>
					<octave>4</octave>
				</pitch>
				<duration>768</duration>
				<voice>1</voice>
				<type>quarter</type>
			</note>
			<note>
				<pitch>
					<step>B</step>
					<octave>2</octave>
				</pitch>
				<duration>384</duration>
				<voice>1</voice>
				<type>eighth</type>
				<beam number='1'>begin</beam>
				<lyric number='1'>
					<syllabic>end</syllabic>
					<text>est</text>
				</lyric>
			</note>
			<note>
				<chord/>
				<pitch>
					<step>G</step>
					<alter>1</alter>
					<octave>3</octave>
				</pitch>
				<duration>384</duration>
				<voice>1</voice>
				<type>eighth</type>
			</note>
			<note>
				<pitch>
					<step>B</step>
					<octave>2</octave>
				</pitch>
				<duration>384</duration>
				<voice>1</voice>
				<type>eighth</type>
				<beam number='1'>continue</beam>
				<lyric number='1'>
					<syllabic>end</syllabic>
					<text>and</text>
				</lyric>
			</note>
			<note>
				<chord/>
				<pitch>
					<step>G</step>
					<alter>1</alter>
					<octave>3</octave>
				</pitch>
				<duration>384</duration>
				<voice>1</voice>
				<type>eighth</type>
			</note>
			<note>
				<pitch>
					<step>A</step>
					<octave>2</octave>
				</pitch>
				<duration>768</duration>
				<voice>1</voice>
				<type>quarter</type>
				<lyric number='1'>
					<syllabic>middle</syllabic>
					<text>call</text>
				</lyric>
			</note>
			<note>
				<chord/>
				<pitch>
					<step>A</step>
					<octave>3</octave>
				</pitch>
				<duration>768</duration>
				<voice>1</voice>
				<type>quarter</type>
			</note>
			<note>
				<pitch>
					<step>A</step>
					<octave>2</octave>
				</pitch>
				<duration>384</duration>
				<voice>1</voice>
				<type>eighth</type>
				<beam number='1'>begin</beam>
				<notations>
					<slur type='start' number='1'/>
					<slur type='start' number='2'/>
				</notations>
				<lyric number='1'>
					<syllabic>end</syllabic>
					<text>est</text>
				</lyric>
			</note>
			<note>
				<chord/>
				<pitch>
					<step>A</step>
					<octave>3</octave>
				</pitch>
				<duration>384</duration>
				<voice>1</voice>
				<type>eighth</type>
			</note>
			<note>
				<pitch>
					<step>A</step>
					<octave>2</octave>
				</pitch>
				<duration>384</duration>
				<voice>1</voice>
				<type>eighth</type>
				<beam number='1'>continue</beam>
				<notations>
					<slur type='stop' number='1'/>
					<slur type='stop' number='2'/>
				</notations>
				<lyric number='1'>
					<syllabic>end</syllabic>
					<text>for</text>
				</lyric>
			</note>
			<note>
				<chord/>
				<pitch>
					<step>G</step>
					<octave>3</octave>
				</pitch>
				<duration>384</duration>
				<voice>1</voice>
				<type>eighth</type>
			</note>
		</measure>
		<measure number='15'>
			<note>
				<pitch>
					<step>D</step>
					<octave>3</octave>
				</pitch>
				<duration>2304</duration>
				<voice>1</voice>
				<type>half</type>
				<dot/>
				<lyric number='1'>
					<syllabic>end</syllabic>
					<text>me.</text>
				</lyric>
			</note>
			<note>
				<chord/>
				<pitch>
					<step>F</step>
					<alter>1</alter>
					<octave>3</octave>
				</pitch>
				<duration>2304</duration>
				<voice>1</voice>
				<type>half</type>
				<dot/>
			</note>
			<barline location='right'>
				<bar-style>light-heavy</bar-style>
			</barline>
		</measure>
	</part>
</score-partwise>
