<?xml version="1.0" encoding="UTF-8" standalone="no"?>
<!DOCTYPE score-partwise PUBLIC "-//Recordare//DTD MusicXML 2.0 Partwise//EN" "http://www.musicxml.org/dtds/partwise.dtd">
<score-partwise version="2.0">
	<identification>
		<creator type="poet">Margaret
     Timothy R. Matthews (1826-1910)</creator>
		<encoding>
			<software>PDFtoMusic Pro v1.6.5 Build 1B9E7 (c) Myriad - http://www.myriad-online.com</software>
			<?PDFtoMusic Document type 0100- 00000000?>
			<?Font corrections applied by user?>
			<supports attribute="new-system" element="print" type="yes" value="yes"/>
			<supports attribute="new-page" element="print" type="yes" value="yes"/>
		</encoding>
	</identification>
	<defaults>
		<scaling>
			<millimeters>5.757336</millimeters>
			<tenths>40</tenths>
		</scaling>
		<page-layout>
			<page-height>1941.176</page-height>
			<page-width>1499.999</page-width>
			<page-margins type="both">
				<left-margin>69.477</left-margin>
				<right-margin>69.477</right-margin>
				<top-margin>69.477</top-margin>
				 <bottom-margin>69.477</bottom-margin>
			</page-margins>
		</page-layout>
		<appearance>
			<line-width type="staff">0.8823</line-width>
			<line-width type="light barline">0.5090</line-width>
			<line-width type="heavy barline">9.1176</line-width>
		</appearance>
	</defaults>
	<credit page="1">
		<credit-words  default-x="203.235" default-y="375.382" justify="left" valign="baseline" font-family="Arial" font-size="10" font-weight="normal" font-style="normal">) )
            )</credit-words>
	</credit>
	<credit page="1">
		<credit-words  default-x="361.765" default-y="1322.725" justify="left" valign="baseline" font-family="Times New Roman" font-size="24" font-weight="bold" font-style="normal">Margaret
</credit-words>
		<credit-words   justify="left" valign="baseline" font-family="Times New Roman" font-size="12" font-weight="normal" font-style="normal">     Timothy R. Matthews (1826-1910)</credit-words>
	</credit>
	<credit page="1">
		<credit-words  default-x="425.000" default-y="92.846" justify="left" valign="baseline" font-family="Times New Roman" font-size="8" font-weight="normal" font-style="normal">Public domain</credit-words>
	</credit>
	<part-list>
		<score-part id="P1">
			<part-name></part-name>
			<score-instrument id="P1-I1">
				<instrument-name>Instrument 1</instrument-name>
			</score-instrument>
			<midi-instrument id="P1-I1">
				<midi-channel>1</midi-channel>
				<midi-bank>1</midi-bank>
				<midi-program>53</midi-program>
				<volume>50</volume>
				<pan>0</pan>
				<elevation>0</elevation>
				<?Myriad
				<iddigit>5201</iddigit>
				?>
			</midi-instrument>
		</score-part>
		<score-part id="P2">
			<part-name></part-name>
			<score-instrument id="P2-I1">
				<instrument-name>Instrument 2</instrument-name>
			</score-instrument>
			<midi-instrument id="P2-I1">
				<midi-channel>2</midi-channel>
				<midi-bank>1</midi-bank>
				<midi-program>25</midi-program>
				<volume>50</volume>
				<pan>0</pan>
				<elevation>0</elevation>
				<?Myriad
				<iddigit>2400</iddigit>
				?>
			</midi-instrument>
		</score-part>
	</part-list>
	<part id="P1">
		<!--==========================[1,1]=============================-->
		<measure number="1" width="176">
			<print new-page="yes">
				<system-layout>
					<system-margins>
						<left-margin>18.612</left-margin>
						<right-margin>547.794</right-margin>
					</system-margins>
					<top-system-distance>645.278</top-system-distance>
				</system-layout>
			</print>
			<attributes>
				<divisions>6720</divisions>
				<key>
					<fifths>2</fifths>
					<mode>major</mode>
				</key>
				<time>
					<beats>4</beats>
					<beat-type>4</beat-type>
				</time>
				<clef number="1">
					<sign>G</sign>
					<line>2</line>
				</clef>
				<staff-details number="1" print-object="yes">
					<staff-lines>5</staff-lines>
					<staff-tuning line="1">
						<tuning-step>A</tuning-step>
						<tuning-octave>3</tuning-octave>
					</staff-tuning>
					<staff-tuning line="2">
						<tuning-step>D</tuning-step>
						<tuning-octave>4</tuning-octave>
					</staff-tuning>
					<staff-tuning line="3">
						<tuning-step>G</tuning-step>
						<tuning-octave>4</tuning-octave>
					</staff-tuning>
					<staff-tuning line="4">
						<tuning-step>B</tuning-step>
						<tuning-octave>4</tuning-octave>
					</staff-tuning>
					<staff-tuning line="5">
						<tuning-step>E</tuning-step>
						<tuning-octave>5</tuning-octave>
					</staff-tuning>
					<staff-size>100.00</staff-size>
				</staff-details>
				<transpose>
					<chromatic>-2</chromatic>
				</transpose>
			</attributes>
			<forward>
				<duration>2940</duration>
			</forward>
			<direction placement="below">
				<direction-type>
					<words font-family="MSTT31c3f400" font-size="11" font-weight="normal" font-style="normal" relative-x="0.00" default-y="-30.45">1</words>
				</direction-type>
			</direction>
			<forward>
				<duration>840</duration>
			</forward>
			<direction placement="below">
				<direction-type>
					<words font-family="Arial" font-size="10" font-weight="normal" font-style="normal" relative-x="0.00" default-y="-45.45">..</words>
				</direction-type>
			</direction>
			<backup>
				<duration>3780</duration>
			</backup>
			<note>
				<pitch>
					<step>D</step>
					<octave>4</octave>
				</pitch>
				<duration>6720</duration>
				<voice>1</voice>
				<type>quarter</type>
				<stem default-y="-10.29">up</stem>
			</note>
			<backup>
				<duration>6720</duration>
			</backup>
			<note>
				<pitch>
					<step>D</step>
					<octave>4</octave>
				</pitch>
				<duration>6720</duration>
				<voice>2</voice>
				<type>quarter</type>
				<stem default-y="-80.59">down</stem>
			</note>
		</measure>
		<!--==========================[1,2]=============================-->
		<measure number="2" width="219">
			<direction placement="below">
				<direction-type>
					<words font-family="Arial" font-size="10" font-weight="normal" font-style="normal" relative-x="17.16" default-y="-45.45">. .</words>
				</direction-type>
			</direction>
			<direction placement="below">
				<direction-type>
					<words font-family="Arial" font-size="10" font-weight="normal" font-style="normal" relative-x="17.16" default-y="-35.45">. .</words>
				</direction-type>
			</direction>
			<direction placement="below">
				<direction-type>
					<words font-family="Arial" font-size="10" font-weight="normal" font-style="normal" relative-x="68.28" default-y="-45.45">.</words>
				</direction-type>
			</direction>
			<direction placement="below">
				<direction-type>
					<words font-family="Arial" font-size="10" font-weight="normal" font-style="normal" relative-x="68.28" default-y="-35.45">.</words>
				</direction-type>
			</direction>
			<direction placement="below">
				<direction-type>
					<words font-family="MSTT31c3f400" font-size="10" font-weight="normal" font-style="normal" relative-x="95.28" default-y="-50.00"> .</words>
				</direction-type>
			</direction>
			<direction placement="below">
				<direction-type>
					<words font-family="Arial" font-size="10" font-weight="normal" font-style="normal" relative-x="98.04" default-y="-55.45">.</words>
				</direction-type>
			</direction>
			<direction placement="below">
				<direction-type>
					<words font-family="Arial" font-size="10" font-weight="normal" font-style="normal" relative-x="98.04" default-y="-30.45">.</words>
				</direction-type>
			</direction>
			<direction placement="below">
				<direction-type>
					<words font-family="Arial" font-size="10" font-weight="normal" font-style="normal" relative-x="119.40" default-y="-35.45">.</words>
				</direction-type>
			</direction>
			<attributes>
				<time>
					<beats>1</beats>
					<beat-type>1</beat-type>
				</time>
			</attributes>
			<forward>
				<duration>7560</duration>
			</forward>
			<direction placement="below">
				<direction-type>
					<words font-family="Arial" font-size="10" font-weight="normal" font-style="normal" relative-x="0.00" default-y="-50.45">.</words>
				</direction-type>
			</direction>
			<direction placement="below">
				<direction-type>
					<words font-family="Arial" font-size="10" font-weight="normal" font-style="normal" relative-x="0.00" default-y="-40.45">.</words>
				</direction-type>
			</direction>
		</measure>
		<!--==========================[1,3]=============================-->
		<measure number="3" width="97">
			<forward>
				<duration>5460</duration>
			</forward>
			<direction placement="below">
				<direction-type>
					<words font-family="Arial" font-size="10" font-weight="normal" font-style="normal" relative-x="0.00" default-y="-45.45">.</words>
				</direction-type>
			</direction>
			<forward>
				<duration>7140</duration>
			</forward>
			<direction placement="below">
				<direction-type>
					<words font-family="Arial" font-size="10" font-weight="normal" font-style="normal" relative-x="0.00" default-y="-55.45">.</words>
				</direction-type>
			</direction>
			<direction placement="below">
				<direction-type>
					<words font-family="Arial" font-size="10" font-weight="normal" font-style="normal" relative-x="0.00" default-y="-40.45">.</words>
				</direction-type>
			</direction>
			<forward>
				<duration>10920</duration>
			</forward>
			<direction placement="below">
				<direction-type>
					<words font-family="Arial" font-size="10" font-weight="normal" font-style="normal" relative-x="0.00" default-y="-50.45">.</words>
				</direction-type>
			</direction>
			<direction placement="below">
				<direction-type>
					<words font-family="Arial" font-size="10" font-weight="normal" font-style="normal" relative-x="0.00" default-y="-35.45">. .</words>
				</direction-type>
			</direction>
		</measure>
		<!--==========================[1,4]=============================-->
		<measure number="4" width="100">
			<forward>
				<duration>3780</duration>
			</forward>
			<direction placement="below">
				<direction-type>
					<words font-family="Arial" font-size="10" font-weight="normal" font-style="normal" relative-x="0.00" default-y="-45.45">.</words>
				</direction-type>
			</direction>
			<forward>
				<duration>9660</duration>
			</forward>
			<direction placement="below">
				<direction-type>
					<words font-family="Arial" font-size="10" font-weight="normal" font-style="normal" relative-x="0.00" default-y="-30.45">#.</words>
				</direction-type>
			</direction>
			<forward>
				<duration>3360</duration>
			</forward>
			<direction placement="below">
				<direction-type>
					<words font-family="Arial" font-size="10" font-weight="normal" font-style="normal" relative-x="0.00" default-y="-45.45">.</words>
				</direction-type>
			</direction>
		</measure>
		<!--==========================[1,5]=============================-->
		<measure number="5" width="199">
			<forward>
				<duration>2520</duration>
			</forward>
			<direction placement="below">
				<direction-type>
					<words font-family="Arial" font-size="10" font-weight="normal" font-style="normal" relative-x="0.00" default-y="-50.45">.</words>
				</direction-type>
			</direction>
			<direction placement="below">
				<direction-type>
					<words font-family="Arial" font-size="10" font-weight="normal" font-style="normal" relative-x="0.00" default-y="-25.45">. .</words>
				</direction-type>
			</direction>
			<forward>
				<duration>3780</duration>
			</forward>
			<direction placement="below">
				<direction-type>
					<words font-family="Arial" font-size="10" font-weight="normal" font-style="normal" relative-x="0.00" default-y="-40.45">.</words>
				</direction-type>
			</direction>
			<forward>
				<duration>4620</duration>
			</forward>
			<direction placement="below">
				<direction-type>
					<words font-family="Arial" font-size="10" font-weight="normal" font-style="normal" relative-x="0.00" default-y="-40.45">.</words>
				</direction-type>
			</direction>
			<direction placement="below">
				<direction-type>
					<words font-family="Arial" font-size="10" font-weight="normal" font-style="normal" relative-x="0.00" default-y="-25.45">.</words>
				</direction-type>
			</direction>
			<forward>
				<duration>5040</duration>
			</forward>
			<direction placement="below">
				<direction-type>
					<words font-family="Arial" font-size="10" font-weight="normal" font-style="normal" relative-x="0.00" default-y="-45.45">. . .</words>
				</direction-type>
			</direction>
			<direction placement="below">
				<direction-type>
					<words font-family="Arial" font-size="10" font-weight="normal" font-style="normal" relative-x="0.00" default-y="-35.45">.</words>
				</direction-type>
			</direction>
		</measure>
		<!--==========================[1,6]=============================-->
		<measure number="6" width="208">
			<print new-system="yes">
				<system-layout>
					<system-margins>
						<left-margin>18.612</left-margin>
						<right-margin>547.794</right-margin>
					</system-margins>
					<system-distance>68.529</system-distance>
				</system-layout>
			</print>
			<attributes>
				<key>
					<fifths>0</fifths>
					<mode>major</mode>
				</key>
				<clef number="1">
					<sign>TAB</sign>
					<line>5</line>
				</clef>
				<staff-details number="1" print-object="yes">
				</staff-details>
			</attributes>
			<forward>
				<duration>2940</duration>
			</forward>
			<direction placement="below">
				<direction-type>
					<words font-family="Arial" font-size="10" font-weight="normal" font-style="normal" relative-x="0.00" default-y="-0.45">#</words>
				</direction-type>
			</direction>
			<forward>
				<duration>420</duration>
			</forward>
			<direction placement="below">
				<direction-type>
					<words font-family="Arial" font-size="10" font-weight="normal" font-style="normal" relative-x="0.00" default-y="-15.45">#</words>
				</direction-type>
			</direction>
			<backup>
				<duration>3360</duration>
			</backup>
			<note>
				<pitch>
					<step>D</step>
					<alter>1</alter>
					<octave>4</octave>
				</pitch>
				<duration>6720</duration>
				<voice>1</voice>
				<type>quarter</type>
				<stem>none</stem>
				<notations>
					<technical>
						<fret>6</fret>
						<string>5</string>
					</technical>
				</notations>
			</note>
			<forward>
				<duration>420</duration>
			</forward>
			<direction placement="below">
				<direction-type>
					<words font-family="Arial" font-size="10" font-weight="normal" font-style="normal" relative-x="0.00" default-y="-48.10">. .</words>
				</direction-type>
			</direction>
			<forward>
				<duration>1680</duration>
			</forward>
			<direction placement="below">
				<direction-type>
					<words font-family="Arial" font-size="10" font-weight="normal" font-style="normal" relative-x="0.00" default-y="-40.45">.</words>
				</direction-type>
			</direction>
			<forward>
				<duration>2100</duration>
			</forward>
			<direction placement="below">
				<direction-type>
					<words font-family="Arial" font-size="10" font-weight="normal" font-style="normal" relative-x="0.00" default-y="-50.45">.</words>
				</direction-type>
			</direction>
			<direction placement="below">
				<direction-type>
					<words font-family="Arial" font-size="10" font-weight="normal" font-style="normal" relative-x="0.00" default-y="-40.45">.</words>
				</direction-type>
			</direction>
			<backup>
				<duration>4200</duration>
			</backup>
			<note>
				<pitch>
					<step>D</step>
					<octave>4</octave>
				</pitch>
				<duration>6720</duration>
				<voice>1</voice>
				<type>quarter</type>
				<stem>none</stem>
				<notations>
					<technical>
						<fret>5</fret>
						<string>5</string>
					</technical>
				</notations>
			</note>
			<note>
				<chord/>
				<pitch>
					<step>D</step>
					<octave>4</octave>
				</pitch>
				<duration>6720</duration>
				<voice>1</voice>
				<type>quarter</type>
				<stem>none</stem>
				<notations>
					<technical>
						<fret>5</fret>
						<string>5</string>
					</technical>
				</notations>
			</note>
		</measure>
		<!--==========================[1,7]=============================-->
		<measure number="7" width="300">
			<forward>
				<duration>2100</duration>
			</forward>
			<direction placement="below">
				<direction-type>
					<words font-family="Arial" font-size="10" font-weight="normal" font-style="normal" relative-x="0.00" default-y="-45.45">.</words>
				</direction-type>
			</direction>
			<direction placement="below">
				<direction-type>
					<words font-family="Arial" font-size="10" font-weight="normal" font-style="normal" relative-x="0.00" default-y="-35.45">. . .</words>
				</direction-type>
			</direction>
			<forward>
				<duration>2940</duration>
			</forward>
			<direction placement="below">
				<direction-type>
					<words font-family="Arial" font-size="10" font-weight="normal" font-style="normal" relative-x="0.00" default-y="-70.45">) )</words>
				</direction-type>
			</direction>
			<forward>
				<duration>5460</duration>
			</forward>
			<direction placement="below">
				<direction-type>
					<words font-family="Arial" font-size="10" font-weight="normal" font-style="normal" relative-x="0.00" default-y="-30.45">#..</words>
				</direction-type>
			</direction>
			<forward>
				<duration>5460</duration>
			</forward>
			<direction placement="below">
				<direction-type>
					<words font-family="Arial" font-size="10" font-weight="normal" font-style="normal" relative-x="0.00" default-y="-35.45">h ..</words>
				</direction-type>
			</direction>
			<forward>
				<duration>5880</duration>
			</forward>
			<direction placement="below">
				<direction-type>
					<words font-family="Arial" font-size="10" font-weight="normal" font-style="normal" relative-x="0.00" default-y="-35.45">..</words>
				</direction-type>
			</direction>
		</measure>
		<!--==========================[1,8]=============================-->
		<measure number="8" width="285">
			<direction placement="below">
				<direction-type>
					<words font-family="Arial" font-size="10" font-weight="normal" font-style="normal" relative-x="21.72" default-y="-50.45">.</words>
				</direction-type>
			</direction>
			<direction placement="below">
				<direction-type>
					<words font-family="Arial" font-size="10" font-weight="normal" font-style="normal" relative-x="21.72" default-y="-25.45">.</words>
				</direction-type>
			</direction>
			<direction placement="below">
				<direction-type>
					<words font-family="Arial" font-size="10" font-weight="normal" font-style="normal" relative-x="58.44" default-y="-45.45">.</words>
				</direction-type>
			</direction>
			<direction placement="below">
				<direction-type>
					<words font-family="Arial" font-size="10" font-weight="normal" font-style="normal" relative-x="58.44" default-y="-25.45">.</words>
				</direction-type>
			</direction>
			<direction placement="below">
				<direction-type>
					<words font-family="Arial" font-size="10" font-weight="normal" font-style="normal" relative-x="92.76" default-y="-45.45">.</words>
				</direction-type>
			</direction>
			<direction placement="below">
				<direction-type>
					<words font-family="Arial" font-size="10" font-weight="normal" font-style="normal" relative-x="92.76" default-y="-25.45">.</words>
				</direction-type>
			</direction>
			<direction placement="below">
				<direction-type>
					<words font-family="Arial" font-size="10" font-weight="normal" font-style="normal" relative-x="127.08" default-y="-45.45">.</words>
				</direction-type>
			</direction>
			<direction placement="below">
				<direction-type>
					<words font-family="Arial" font-size="10" font-weight="normal" font-style="normal" relative-x="127.08" default-y="-20.45">.</words>
				</direction-type>
			</direction>
			<direction placement="below">
				<direction-type>
					<words font-family="Arial" font-size="10" font-weight="normal" font-style="normal" relative-x="163.80" default-y="-45.45">.</words>
				</direction-type>
			</direction>
			<direction placement="below">
				<direction-type>
					<words font-family="Arial" font-size="10" font-weight="normal" font-style="normal" relative-x="163.80" default-y="-20.45">.</words>
				</direction-type>
			</direction>
			<forward>
				<duration>4620</duration>
			</forward>
			<direction placement="below">
				<direction-type>
					<words font-family="Arial" font-size="10" font-weight="normal" font-style="normal" relative-x="0.00" default-y="-45.45">.</words>
				</direction-type>
			</direction>
			<direction placement="below">
				<direction-type>
					<words font-family="Arial" font-size="10" font-weight="normal" font-style="normal" relative-x="0.00" default-y="-20.45">.</words>
				</direction-type>
			</direction>
			<backup>
				<duration>4620</duration>
			</backup>
			<note>
				<pitch>
					<step>C</step>
					<octave>5</octave>
				</pitch>
				<duration>6720</duration>
				<voice>1</voice>
				<type>quarter</type>
				<stem>none</stem>
				<notations>
					<technical>
						<fret>1</fret>
						<string>2</string>
					</technical>
				</notations>
			</note>
			<note>
				<pitch>
					<step>C</step>
					<octave>5</octave>
				</pitch>
				<duration>6720</duration>
				<voice>1</voice>
				<type>quarter</type>
				<stem>none</stem>
				<notations>
					<technical>
						<fret>1</fret>
						<string>2</string>
					</technical>
				</notations>
			</note>
		</measure>
		<!--==========================[1,9]=============================-->
		<measure number="9" width="312">
			<print new-system="yes">
				<system-layout>
					<system-margins>
						<left-margin>18.612</left-margin>
						<right-margin>547.794</right-margin>
					</system-margins>
					<system-distance>68.529</system-distance>
				</system-layout>
			</print>
			<attributes>
				<staff-details number="1" print-object="yes">
				</staff-details>
			</attributes>
			<forward>
				<duration>840</duration>
			</forward>
			<direction placement="below">
				<direction-type>
					<words font-family="Arial" font-size="10" font-weight="normal" font-style="normal" relative-x="0.00" default-y="-0.45">#</words>
				</direction-type>
			</direction>
			<direction placement="below">
				<direction-type>
					<words font-family="Arial" font-size="10" font-weight="normal" font-style="normal" relative-x="0.00" default-y="-15.45">#</words>
				</direction-type>
			</direction>
			<forward>
				<duration>840</duration>
			</forward>
			<direction placement="below">
				<direction-type>
					<words font-family="MSTT31c3f400" font-size="10" font-weight="normal" font-style="normal" relative-x="0.00" default-y="-50.00"></words>
				</direction-type>
			</direction>
			<direction placement="below">
				<direction-type>
					<words font-family="Arial" font-size="10" font-weight="normal" font-style="normal" relative-x="0.00" default-y="-15.45">.</words>
				</direction-type>
			</direction>
			<forward>
				<duration>840</duration>
			</forward>
			<direction placement="below">
				<direction-type>
					<words font-family="Arial" font-size="10" font-weight="normal" font-style="normal" relative-x="0.00" default-y="-40.45">.</words>
				</direction-type>
			</direction>
			<direction placement="below">
				<direction-type>
					<words font-family="Arial" font-size="10" font-weight="normal" font-style="normal" relative-x="0.00" default-y="-25.45">.</words>
				</direction-type>
			</direction>
			<forward>
				<duration>840</duration>
			</forward>
			<direction placement="below">
				<direction-type>
					<words font-family="Arial" font-size="10" font-weight="normal" font-style="normal" relative-x="0.00" default-y="-40.45">.</words>
				</direction-type>
			</direction>
			<direction placement="below">
				<direction-type>
					<words font-family="Arial" font-size="10" font-weight="normal" font-style="normal" relative-x="0.00" default-y="-25.45">.</words>
				</direction-type>
			</direction>
			<forward>
				<duration>840</duration>
			</forward>
			<direction placement="below">
				<direction-type>
					<words font-family="Arial" font-size="10" font-weight="normal" font-style="normal" relative-x="0.00" default-y="-40.45">.</words>
				</direction-type>
			</direction>
			<direction placement="below">
				<direction-type>
					<words font-family="Arial" font-size="10" font-weight="normal" font-style="normal" relative-x="0.00" default-y="-20.45">..</words>
				</direction-type>
			</direction>
			<forward>
				<duration>840</duration>
			</forward>
			<direction placement="below">
				<direction-type>
					<words font-family="Arial" font-size="10" font-weight="normal" font-style="normal" relative-x="0.00" default-y="-45.45">. .</words>
				</direction-type>
			</direction>
			<forward>
				<duration>840</duration>
			</forward>
			<direction placement="below">
				<direction-type>
					<words font-family="Arial" font-size="10" font-weight="normal" font-style="normal" relative-x="0.00" default-y="-15.45">.</words>
				</direction-type>
			</direction>
			<backup>
				<duration>5880</duration>
			</backup>
			<note>
				<pitch>
					<step>D</step>
					<alter>1</alter>
					<octave>4</octave>
				</pitch>
				<duration>6720</duration>
				<voice>1</voice>
				<type>quarter</type>
				<stem>none</stem>
				<notations>
					<technical>
						<fret>6</fret>
						<string>5</string>
					</technical>
				</notations>
				<lyric number="1" justify="left" default-y="-50.45">
					<syllabic>single</syllabic>
					<text font-family="Arial" font-size="10" font-weight="normal" font-style="normal">
.</text>
				</lyric>
			</note>
		</measure>
		<!--==========================[1,10]=============================-->
		<measure number="10" width="97">
			<forward>
				<duration>4200</duration>
			</forward>
			<direction placement="below">
				<direction-type>
					<words font-family="Arial" font-size="10" font-weight="normal" font-style="normal" relative-x="0.00" default-y="-25.45">.</words>
				</direction-type>
			</direction>
			<backup>
				<duration>4200</duration>
			</backup>
			<note>
				<pitch>
					<step>G</step>
					<octave>4</octave>
				</pitch>
				<duration>6720</duration>
				<voice>1</voice>
				<type>quarter</type>
				<stem>none</stem>
				<notations>
					<technical>
						<fret>5</fret>
						<string>4</string>
					</technical>
				</notations>
				<lyric number="1" justify="left" default-y="-48.10">
					<syllabic>single</syllabic>
					<text font-family="Arial" font-size="10" font-weight="normal" font-style="normal">. .</text>
					<extend/>
				</lyric>
			</note>
			<note>
				<chord/>
				<pitch>
					<step>G</step>
					<octave>4</octave>
				</pitch>
				<duration>6720</duration>
				<voice>1</voice>
				<type>quarter</type>
				<stem>none</stem>
				<notations>
					<technical>
						<fret>5</fret>
						<string>4</string>
					</technical>
				</notations>
			</note>
		</measure>
		<!--==========================[1,11]=============================-->
		<measure number="11" width="207">
			<forward>
				<duration>3360</duration>
			</forward>
			<direction placement="below">
				<direction-type>
					<words font-family="Arial" font-size="10" font-weight="normal" font-style="normal" relative-x="0.00" default-y="-45.45">. .</words>
				</direction-type>
			</direction>
			<direction placement="below">
				<direction-type>
					<words font-family="Arial" font-size="10" font-weight="normal" font-style="normal" relative-x="0.00" default-y="-25.45">.</words>
				</direction-type>
			</direction>
			<forward>
				<duration>4200</duration>
			</forward>
			<direction placement="below">
				<direction-type>
					<words font-family="Arial" font-size="10" font-weight="normal" font-style="normal" relative-x="0.00" default-y="-35.45">.</words>
				</direction-type>
			</direction>
			<forward>
				<duration>5460</duration>
			</forward>
			<direction placement="below">
				<direction-type>
					<words font-family="Arial" font-size="10" font-weight="normal" font-style="normal" relative-x="0.00" default-y="-30.45">.</words>
				</direction-type>
			</direction>
			<forward>
				<duration>5460</duration>
			</forward>
			<direction placement="below">
				<direction-type>
					<words font-family="Arial" font-size="10" font-weight="normal" font-style="normal" relative-x="0.00" default-y="-45.45">.</words>
				</direction-type>
			</direction>
			<direction placement="below">
				<direction-type>
					<words font-family="Arial" font-size="10" font-weight="normal" font-style="normal" relative-x="0.00" default-y="-25.45">.</words>
				</direction-type>
			</direction>
			<forward>
				<duration>4200</duration>
			</forward>
			<direction placement="below">
				<direction-type>
					<words font-family="Arial" font-size="10" font-weight="normal" font-style="normal" relative-x="0.00" default-y="-35.45">.</words>
				</direction-type>
			</direction>
			<direction placement="below">
				<direction-type>
					<words font-family="Arial" font-size="10" font-weight="normal" font-style="normal" relative-x="0.00" default-y="-10.45">.</words>
				</direction-type>
			</direction>
		</measure>
		<!--==========================[1,12]=============================-->
		<measure number="12" width="176">
			<forward>
				<duration>2520</duration>
			</forward>
			<direction placement="below">
				<direction-type>
					<words font-family="Arial" font-size="10" font-weight="normal" font-style="normal" relative-x="0.00" default-y="-30.45">.</words>
				</direction-type>
			</direction>
			<direction placement="below">
				<direction-type>
					<words font-family="Arial" font-size="10" font-weight="normal" font-style="normal" relative-x="0.00" default-y="-15.45">.</words>
				</direction-type>
			</direction>
			<forward>
				<duration>2940</duration>
			</forward>
			<direction placement="below">
				<direction-type>
					<words font-family="Arial" font-size="10" font-weight="normal" font-style="normal" relative-x="0.00" default-y="-40.45">.</words>
				</direction-type>
			</direction>
			<direction placement="below">
				<direction-type>
					<words font-family="Arial" font-size="10" font-weight="normal" font-style="normal" relative-x="0.00" default-y="-20.45">.</words>
				</direction-type>
			</direction>
			<backup>
				<duration>5460</duration>
			</backup>
			<note>
				<pitch>
					<step>G</step>
					<octave>4</octave>
				</pitch>
				<duration>6720</duration>
				<voice>1</voice>
				<type>quarter</type>
				<stem>none</stem>
				<notations>
					<technical>
						<fret>5</fret>
						<string>4</string>
					</technical>
				</notations>
				<lyric number="1" justify="right" default-y="-50.45">
					<syllabic>single</syllabic>
					<text font-family="Arial" font-size="10" font-weight="normal" font-style="normal">.</text>
				</lyric>
			</note>
			<note>
				<chord/>
				<pitch>
					<step>E</step>
					<octave>5</octave>
				</pitch>
				<duration>6720</duration>
				<voice>1</voice>
				<type>quarter</type>
				<stem>none</stem>
				<notations>
					<technical>
						<fret>5</fret>
						<string>2</string>
					</technical>
				</notations>
			</note>
			<note>
				<chord/>
				<pitch>
					<step>G</step>
					<octave>4</octave>
				</pitch>
				<duration>6720</duration>
				<voice>1</voice>
				<type>quarter</type>
				<stem>none</stem>
				<notations>
					<technical>
						<fret>5</fret>
						<string>4</string>
					</technical>
				</notations>
			</note>
			<note>
				<chord/>
				<pitch>
					<step>E</step>
					<octave>5</octave>
				</pitch>
				<duration>6720</duration>
				<voice>1</voice>
				<type>quarter</type>
				<stem>none</stem>
				<notations>
					<technical>
						<fret>5</fret>
						<string>2</string>
					</technical>
				</notations>
			</note>
			<forward>
				<duration>4620</duration>
			</forward>
			<direction placement="below">
				<direction-type>
					<words font-family="Arial" font-size="10" font-weight="normal" font-style="normal" relative-x="0.00" default-y="-40.45">.</words>
				</direction-type>
			</direction>
			<direction placement="below">
				<direction-type>
					<words font-family="Arial" font-size="10" font-weight="normal" font-style="normal" relative-x="0.00" default-y="-20.45">.</words>
				</direction-type>
			</direction>
			<backup>
				<duration>4620</duration>
			</backup>
			<note>
				<pitch>
					<step>C</step>
					<octave>5</octave>
				</pitch>
				<duration>6720</duration>
				<voice>1</voice>
				<type>quarter</type>
				<stem>none</stem>
				<notations>
					<technical>
						<fret>1</fret>
						<string>2</string>
					</technical>
				</notations>
				<lyric number="2" justify="right" default-y="-105.45">
					<syllabic>single</syllabic>
					<text font-family="Arial" font-size="10" font-weight="normal" font-style="normal">.</text>
				</lyric>
			</note>
			<note>
				<pitch>
					<step>C</step>
					<octave>5</octave>
				</pitch>
				<duration>6720</duration>
				<voice>1</voice>
				<type>quarter</type>
				<stem>none</stem>
				<notations>
					<technical>
						<fret>1</fret>
						<string>2</string>
					</technical>
				</notations>
				<lyric number="2" justify="right" default-y="-105.45">
					<syllabic>single</syllabic>
					<text font-family="Arial" font-size="10" font-weight="normal" font-style="normal">.</text>
				</lyric>
			</note>
		</measure>
		<!--==========================[1,13]=============================-->
		<measure number="13" width="291">
			<print new-system="yes">
				<system-layout>
					<system-margins>
						<left-margin>18.612</left-margin>
						<right-margin>1000.000</right-margin>
					</system-margins>
					<system-distance>68.529</system-distance>
				</system-layout>
			</print>
			<attributes>
				<staff-details number="1" print-object="yes">
				</staff-details>
			</attributes>
			<forward>
				<duration>840</duration>
			</forward>
			<direction placement="below">
				<direction-type>
					<words font-family="Arial" font-size="10" font-weight="normal" font-style="normal" relative-x="0.00" default-y="-0.45">#</words>
				</direction-type>
			</direction>
			<direction placement="below">
				<direction-type>
					<words font-family="Arial" font-size="10" font-weight="normal" font-style="normal" relative-x="0.00" default-y="-15.45">#</words>
				</direction-type>
			</direction>
			<forward>
				<duration>840</duration>
			</forward>
			<direction placement="below">
				<direction-type>
					<words font-family="Arial" font-size="10" font-weight="normal" font-style="normal" relative-x="0.00" default-y="-35.45">.</words>
				</direction-type>
			</direction>
			<direction placement="below">
				<direction-type>
					<words font-family="Arial" font-size="10" font-weight="normal" font-style="normal" relative-x="0.00" default-y="-25.45">.</words>
				</direction-type>
			</direction>
			<forward>
				<duration>840</duration>
			</forward>
			<direction placement="below">
				<direction-type>
					<words font-family="Arial" font-size="10" font-weight="normal" font-style="normal" relative-x="0.00" default-y="-45.45">. .. .</words>
				</direction-type>
			</direction>
			<forward>
				<duration>1680</duration>
			</forward>
			<direction placement="below">
				<direction-type>
					<words font-family="Arial" font-size="10" font-weight="normal" font-style="normal" relative-x="0.00" default-y="-35.45">.</words>
				</direction-type>
			</direction>
			<forward>
				<duration>420</duration>
			</forward>
			<direction placement="below">
				<direction-type>
					<words font-family="Arial" font-size="10" font-weight="normal" font-style="normal" relative-x="0.00" default-y="-50.45">.</words>
				</direction-type>
			</direction>
			<direction placement="below">
				<direction-type>
					<words font-family="Arial" font-size="10" font-weight="normal" font-style="normal" relative-x="0.00" default-y="-40.45">.</words>
				</direction-type>
			</direction>
			<forward>
				<duration>1260</duration>
			</forward>
			<direction placement="below">
				<direction-type>
					<words font-family="Arial" font-size="10" font-weight="normal" font-style="normal" relative-x="0.00" default-y="-50.45">.</words>
				</direction-type>
			</direction>
			<direction placement="below">
				<direction-type>
					<words font-family="Arial" font-size="10" font-weight="normal" font-style="normal" relative-x="0.00" default-y="-40.45">.</words>
				</direction-type>
			</direction>
			<backup>
				<duration>5880</duration>
			</backup>
			<note>
				<pitch>
					<step>D</step>
					<alter>1</alter>
					<octave>4</octave>
				</pitch>
				<duration>6720</duration>
				<voice>1</voice>
				<type>quarter</type>
				<stem>none</stem>
				<notations>
					<technical>
						<fret>6</fret>
						<string>5</string>
					</technical>
				</notations>
			</note>
		</measure>
		<!--==========================[1,14]=============================-->
		<measure number="14" width="50">
			<note>
				<pitch>
					<step>D</step>
					<octave>4</octave>
				</pitch>
				<duration>6720</duration>
				<voice>1</voice>
				<type>quarter</type>
				<stem>none</stem>
				<notations>
					<technical>
						<fret>5</fret>
						<string>5</string>
					</technical>
				</notations>
			</note>
			<note>
				<chord/>
				<pitch>
					<step>D</step>
					<octave>4</octave>
				</pitch>
				<duration>6720</duration>
				<voice>1</voice>
				<type>quarter</type>
				<stem>none</stem>
				<notations>
					<technical>
						<fret>5</fret>
						<string>5</string>
					</technical>
				</notations>
			</note>
			<barline location="right">
				<bar-style>light-heavy</bar-style>
			</barline>
		</measure>
	</part>
	<part id="P2">
		<!--==========================[2,1]=============================-->
		<measure number="1" width="176">
			<print new-page="yes">
				<staff-layout number="1">
					<staff-distance>75.000</staff-distance>
				</staff-layout>
			</print>
			<attributes>
				<divisions>6720</divisions>
				<staff-details number="1" print-object="yes">
					<staff-lines>5</staff-lines>
					<staff-tuning line="1">
						<tuning-step>A</tuning-step>
						<tuning-octave>3</tuning-octave>
					</staff-tuning>
					<staff-tuning line="2">
						<tuning-step>D</tuning-step>
						<tuning-octave>4</tuning-octave>
					</staff-tuning>
					<staff-tuning line="3">
						<tuning-step>G</tuning-step>
						<tuning-octave>4</tuning-octave>
					</staff-tuning>
					<staff-tuning line="4">
						<tuning-step>B</tuning-step>
						<tuning-octave>4</tuning-octave>
					</staff-tuning>
					<staff-tuning line="5">
						<tuning-step>E</tuning-step>
						<tuning-octave>5</tuning-octave>
					</staff-tuning>
					<staff-size>100.00</staff-size>
				</staff-details>
				<transpose>
					<chromatic>0</chromatic>
					<octave-change>-1</octave-change>
				</transpose>
			</attributes>
			<direction placement="below">
				<direction-type>
					<words font-family="Arial" font-size="10" font-weight="normal" font-style="normal" relative-x="5.64" default-y="-40.45">g</words>
				</direction-type>
			</direction>
			<direction placement="below">
				<direction-type>
					<words font-family="Arial" font-size="10" font-weight="normal" font-style="normal" relative-x="33.96" default-y="-10.45">#</words>
				</direction-type>
			</direction>
			<direction placement="below">
				<direction-type>
					<words font-family="Arial" font-size="10" font-weight="normal" font-style="normal" relative-x="41.40" default-y="-25.45">#</words>
				</direction-type>
			</direction>
			<attributes>
				<time>
					<beats>4</beats>
					<beat-type>4</beat-type>
				</time>
			</attributes>
			<forward>
				<duration>5880</duration>
			</forward>
			<direction placement="below">
				<direction-type>
					<words font-family="Arial" font-size="10" font-weight="normal" font-style="normal" relative-x="0.00" default-y="-55.45">) )</words>
				</direction-type>
			</direction>
			<direction placement="below">
				<direction-type>
					<words font-family="Arial" font-size="10" font-weight="normal" font-style="normal" relative-x="0.00" default-y="-20.45">. .</words>
				</direction-type>
			</direction>
			<direction placement="below">
				<direction-type>
					<words font-family="Arial" font-size="10" font-weight="normal" font-style="normal" relative-x="0.00" default-y="-10.45">.</words>
				</direction-type>
			</direction>
			<forward>
				<duration>7140</duration>
			</forward>
			<direction placement="below">
				<direction-type>
					<words font-family="Arial" font-size="10" font-weight="normal" font-style="normal" relative-x="0.00" default-y="-5.45">.</words>
				</direction-type>
			</direction>
		</measure>
		<!--==========================[2,2]=============================-->
		<measure number="2" width="219">
			<forward>
				<duration>2520</duration>
			</forward>
			<direction placement="below">
				<direction-type>
					<words font-family="Arial" font-size="10" font-weight="normal" font-style="normal" relative-x="0.00" default-y="-20.45">.</words>
				</direction-type>
			</direction>
			<direction placement="below">
				<direction-type>
					<words font-family="Arial" font-size="10" font-weight="normal" font-style="normal" relative-x="0.00" default-y="-0.45">.</words>
				</direction-type>
			</direction>
			<forward>
				<duration>2940</duration>
			</forward>
			<direction placement="below">
				<direction-type>
					<words font-family="Arial" font-size="10" font-weight="normal" font-style="normal" relative-x="0.00" default-y="-30.45">.</words>
				</direction-type>
			</direction>
			<direction placement="above">
				<direction-type>
					<words font-family="Arial" font-size="10" font-weight="normal" font-style="normal" relative-x="0.00" default-y="4.55">.</words>
				</direction-type>
			</direction>
			<forward>
				<duration>4620</duration>
			</forward>
			<direction placement="below">
				<direction-type>
					<words font-family="Arial" font-size="10" font-weight="normal" font-style="normal" relative-x="0.00" default-y="-65.45">)</words>
				</direction-type>
			</direction>
			<direction placement="below">
				<direction-type>
					<words font-family="Arial" font-size="10" font-weight="normal" font-style="normal" relative-x="0.00" default-y="-30.45">.</words>
				</direction-type>
			</direction>
			<direction placement="above">
				<direction-type>
					<words font-family="Arial" font-size="10" font-weight="normal" font-style="normal" relative-x="0.00" default-y="4.55">.</words>
				</direction-type>
			</direction>
			<forward>
				<duration>4620</duration>
			</forward>
			<direction placement="below">
				<direction-type>
					<words font-family="Arial" font-size="10" font-weight="normal" font-style="normal" relative-x="0.00" default-y="-15.45">.</words>
				</direction-type>
			</direction>
			<direction placement="below">
				<direction-type>
					<words font-family="Arial" font-size="10" font-weight="normal" font-style="normal" relative-x="0.00" default-y="-5.45">.</words>
				</direction-type>
			</direction>
			<forward>
				<duration>2940</duration>
			</forward>
			<direction placement="below">
				<direction-type>
					<words font-family="Arial" font-size="10" font-weight="normal" font-style="normal" relative-x="0.00" default-y="-35.45">.</words>
				</direction-type>
			</direction>
			<direction placement="below">
				<direction-type>
					<words font-family="Arial" font-size="10" font-weight="normal" font-style="normal" relative-x="0.00" default-y="-0.45">.</words>
				</direction-type>
			</direction>
			<forward>
				<duration>4620</duration>
			</forward>
			<direction placement="below">
				<direction-type>
					<words font-family="Arial" font-size="10" font-weight="normal" font-style="normal" relative-x="0.00" default-y="-35.45">.</words>
				</direction-type>
			</direction>
			<direction placement="below">
				<direction-type>
					<words font-family="Arial" font-size="10" font-weight="normal" font-style="normal" relative-x="0.00" default-y="-5.45">.</words>
				</direction-type>
			</direction>
		</measure>
		<!--==========================[2,3]=============================-->
		<measure number="3" width="97">
			<forward>
				<duration>5460</duration>
			</forward>
			<direction placement="below">
				<direction-type>
					<words font-family="Arial" font-size="10" font-weight="normal" font-style="normal" relative-x="0.00" default-y="-30.45">.</words>
				</direction-type>
			</direction>
			<direction placement="below">
				<direction-type>
					<words font-family="Arial" font-size="10" font-weight="normal" font-style="normal" relative-x="0.00" default-y="-10.45">.</words>
				</direction-type>
			</direction>
			<forward>
				<duration>7140</duration>
			</forward>
			<direction placement="below">
				<direction-type>
					<words font-family="Arial" font-size="10" font-weight="normal" font-style="normal" relative-x="0.00" default-y="-40.45">.</words>
				</direction-type>
			</direction>
			<direction placement="above">
				<direction-type>
					<words font-family="Arial" font-size="10" font-weight="normal" font-style="normal" relative-x="0.00" default-y="4.55">.</words>
				</direction-type>
			</direction>
			<forward>
				<duration>7140</duration>
			</forward>
			<direction placement="below">
				<direction-type>
					<words font-family="Arial" font-size="10" font-weight="normal" font-style="normal" relative-x="0.00" default-y="-0.45">#.</words>
				</direction-type>
			</direction>
			<forward>
				<duration>3780</duration>
			</forward>
			<direction placement="below">
				<direction-type>
					<words font-family="Arial" font-size="10" font-weight="normal" font-style="normal" relative-x="0.00" default-y="-45.45">.</words>
				</direction-type>
			</direction>
		</measure>
		<!--==========================[2,4]=============================-->
		<measure number="4" width="100">
			<forward>
				<duration>3780</duration>
			</forward>
			<direction placement="below">
				<direction-type>
					<words font-family="Arial" font-size="10" font-weight="normal" font-style="normal" relative-x="0.00" default-y="-30.45">.</words>
				</direction-type>
			</direction>
			<direction placement="above">
				<direction-type>
					<words font-family="Arial" font-size="10" font-weight="normal" font-style="normal" relative-x="0.00" default-y="4.55">.</words>
				</direction-type>
			</direction>
			<forward>
				<duration>13020</duration>
			</forward>
			<direction placement="below">
				<direction-type>
					<words font-family="Arial" font-size="10" font-weight="normal" font-style="normal" relative-x="0.00" default-y="-30.45">.</words>
				</direction-type>
			</direction>
			<direction placement="above">
				<direction-type>
					<words font-family="Arial" font-size="10" font-weight="normal" font-style="normal" relative-x="0.00" default-y="4.55">.</words>
				</direction-type>
			</direction>
		</measure>
		<!--==========================[2,5]=============================-->
		<measure number="5" width="199">
			<forward>
				<duration>2520</duration>
			</forward>
			<direction placement="below">
				<direction-type>
					<words font-family="Arial" font-size="10" font-weight="normal" font-style="normal" relative-x="0.00" default-y="-35.45">.</words>
				</direction-type>
			</direction>
			<direction placement="below">
				<direction-type>
					<words font-family="Arial" font-size="10" font-weight="normal" font-style="normal" relative-x="0.00" default-y="-15.45">.</words>
				</direction-type>
			</direction>
			<forward>
				<duration>3780</duration>
			</forward>
			<direction placement="below">
				<direction-type>
					<words font-family="Arial" font-size="10" font-weight="normal" font-style="normal" relative-x="0.00" default-y="-25.45">.</words>
				</direction-type>
			</direction>
			<direction placement="below">
				<direction-type>
					<words font-family="Arial" font-size="10" font-weight="normal" font-style="normal" relative-x="0.00" default-y="-0.45">.</words>
				</direction-type>
			</direction>
			<forward>
				<duration>4620</duration>
			</forward>
			<direction placement="below">
				<direction-type>
					<words font-family="Arial" font-size="10" font-weight="normal" font-style="normal" relative-x="0.00" default-y="-60.45">)</words>
				</direction-type>
			</direction>
			<direction placement="below">
				<direction-type>
					<words font-family="Arial" font-size="10" font-weight="normal" font-style="normal" relative-x="0.00" default-y="-25.45">.</words>
				</direction-type>
			</direction>
			<direction placement="below">
				<direction-type>
					<words font-family="Arial" font-size="10" font-weight="normal" font-style="normal" relative-x="0.00" default-y="-0.45">.</words>
				</direction-type>
			</direction>
			<forward>
				<duration>5040</duration>
			</forward>
			<direction placement="below">
				<direction-type>
					<words font-family="Arial" font-size="10" font-weight="normal" font-style="normal" relative-x="0.00" default-y="-20.45">.</words>
				</direction-type>
			</direction>
			<direction placement="below">
				<direction-type>
					<words font-family="Arial" font-size="10" font-weight="normal" font-style="normal" relative-x="0.00" default-y="-0.45">. . .</words>
				</direction-type>
			</direction>
			<forward>
				<duration>3360</duration>
			</forward>
			<direction placement="below">
				<direction-type>
					<words font-family="Arial" font-size="10" font-weight="normal" font-style="normal" relative-x="0.00" default-y="-45.45">) )</words>
				</direction-type>
			</direction>
			<direction placement="below">
				<direction-type>
					<words font-family="Arial" font-size="10" font-weight="normal" font-style="normal" relative-x="0.00" default-y="-10.45">. .</words>
				</direction-type>
			</direction>
			<direction placement="above">
				<direction-type>
					<words font-family="Arial" font-size="10" font-weight="normal" font-style="normal" relative-x="0.00" default-y="34.55">) )</words>
				</direction-type>
			</direction>
		</measure>
		<!--==========================[2,6]=============================-->
		<measure number="6" width="208">
			<print new-system="yes">
				<staff-layout number="1">
					<staff-distance>75.000</staff-distance>
				</staff-layout>
			</print>
			<attributes>
				<clef number="1">
					<sign>TAB</sign>
					<line>5</line>
				</clef>
				<staff-details number="1" print-object="yes">
				</staff-details>
			</attributes>
			<forward>
				<duration>1260</duration>
			</forward>
			<direction placement="below">
				<direction-type>
					<words font-family="Arial" font-size="10" font-weight="normal" font-style="normal" relative-x="0.00" default-y="-10.45">#</words>
				</direction-type>
			</direction>
			<direction placement="below">
				<direction-type>
					<words font-family="Arial" font-size="10" font-weight="normal" font-style="normal" relative-x="0.00" default-y="-25.45">#</words>
				</direction-type>
			</direction>
			<forward>
				<duration>2520</duration>
			</forward>
			<direction placement="below">
				<direction-type>
					<words font-family="Arial" font-size="10" font-weight="normal" font-style="normal" relative-x="0.00" default-y="-70.45">)</words>
				</direction-type>
			</direction>
			<direction placement="below">
				<direction-type>
					<words font-family="Arial" font-size="10" font-weight="normal" font-style="normal" relative-x="0.00" default-y="-35.45">.</words>
				</direction-type>
			</direction>
			<direction placement="below">
				<direction-type>
					<words font-family="Arial" font-size="10" font-weight="normal" font-style="normal" relative-x="0.00" default-y="-0.45">.</words>
				</direction-type>
			</direction>
			<forward>
				<duration>1260</duration>
			</forward>
			<direction placement="below">
				<direction-type>
					<words font-family="Arial" font-size="10" font-weight="normal" font-style="normal" relative-x="0.00" default-y="-35.45">.</words>
				</direction-type>
			</direction>
			<direction placement="below">
				<direction-type>
					<words font-family="Arial" font-size="10" font-weight="normal" font-style="normal" relative-x="0.00" default-y="-0.45">.</words>
				</direction-type>
			</direction>
			<backup>
				<duration>5040</duration>
			</backup>
			<note>
				<pitch>
					<step>A</step>
					<octave>5</octave>
				</pitch>
				<duration>6720</duration>
				<voice>1</voice>
				<type>quarter</type>
				<stem>none</stem>
				<notations>
					<technical>
						<fret>5</fret>
						<string>1</string>
						<fingering placement="above" relative-x="0.00" relative-y="9.58">5</fingering>
					</technical>
				</notations>
			</note>
		</measure>
		<!--==========================[2,7]=============================-->
		<measure number="7" width="300">
			<forward>
				<duration>2100</duration>
			</forward>
			<direction placement="below">
				<direction-type>
					<words font-family="Arial" font-size="10" font-weight="normal" font-style="normal" relative-x="0.00" default-y="-20.45">. . .</words>
				</direction-type>
			</direction>
			<direction placement="below">
				<direction-type>
					<words font-family="Arial" font-size="10" font-weight="normal" font-style="normal" relative-x="0.00" default-y="-0.45">. . .</words>
				</direction-type>
			</direction>
			<forward>
				<duration>2940</duration>
			</forward>
			<direction placement="below">
				<direction-type>
					<words font-family="Arial" font-size="10" font-weight="normal" font-style="normal" relative-x="0.00" default-y="-55.45">) )</words>
				</direction-type>
			</direction>
			<forward>
				<duration>6720</duration>
			</forward>
			<direction placement="below">
				<direction-type>
					<words font-family="Arial" font-size="10" font-weight="normal" font-style="normal" relative-x="0.00" default-y="-25.45">.</words>
				</direction-type>
			</direction>
			<direction placement="above">
				<direction-type>
					<words font-family="Arial" font-size="10" font-weight="normal" font-style="normal" relative-x="0.00" default-y="4.55">.</words>
				</direction-type>
			</direction>
			<forward>
				<duration>5040</duration>
			</forward>
			<direction placement="below">
				<direction-type>
					<words font-family="Arial" font-size="10" font-weight="normal" font-style="normal" relative-x="0.00" default-y="-25.45">.</words>
				</direction-type>
			</direction>
			<direction placement="above">
				<direction-type>
					<words font-family="Arial" font-size="10" font-weight="normal" font-style="normal" relative-x="0.00" default-y="4.55">.</words>
				</direction-type>
			</direction>
			<forward>
				<duration>5040</duration>
			</forward>
			<direction placement="below">
				<direction-type>
					<words font-family="Arial" font-size="10" font-weight="normal" font-style="normal" relative-x="0.00" default-y="-25.45">.</words>
				</direction-type>
			</direction>
			<direction placement="above">
				<direction-type>
					<words font-family="Arial" font-size="10" font-weight="normal" font-style="normal" relative-x="0.00" default-y="4.55">.</words>
				</direction-type>
			</direction>
		</measure>
		<!--==========================[2,8]=============================-->
		<measure number="8" width="285">
			<forward>
				<duration>2100</duration>
			</forward>
			<direction placement="below">
				<direction-type>
					<words font-family="Arial" font-size="10" font-weight="normal" font-style="normal" relative-x="0.00" default-y="-10.45">. h .</words>
				</direction-type>
			</direction>
			<direction placement="below">
				<direction-type>
					<words font-family="Arial" font-size="10" font-weight="normal" font-style="normal" relative-x="0.00" default-y="-0.45">.</words>
				</direction-type>
			</direction>
			<forward>
				<duration>4620</duration>
			</forward>
			<direction placement="below">
				<direction-type>
					<words font-family="Arial" font-size="10" font-weight="normal" font-style="normal" relative-x="0.00" default-y="-45.45">)</words>
				</direction-type>
			</direction>
			<direction placement="below">
				<direction-type>
					<words font-family="Arial" font-size="10" font-weight="normal" font-style="normal" relative-x="0.00" default-y="-0.45">.</words>
				</direction-type>
			</direction>
			<forward>
				<duration>3780</duration>
			</forward>
			<direction placement="below">
				<direction-type>
					<words font-family="Arial" font-size="10" font-weight="normal" font-style="normal" relative-x="0.00" default-y="-45.45">)</words>
				</direction-type>
			</direction>
			<direction placement="below">
				<direction-type>
					<words font-family="Arial" font-size="10" font-weight="normal" font-style="normal" relative-x="0.00" default-y="-10.45">.</words>
				</direction-type>
			</direction>
			<direction placement="below">
				<direction-type>
					<words font-family="Arial" font-size="10" font-weight="normal" font-style="normal" relative-x="0.00" default-y="-0.45">.</words>
				</direction-type>
			</direction>
			<forward>
				<duration>3780</duration>
			</forward>
			<direction placement="below">
				<direction-type>
					<words font-family="Arial" font-size="10" font-weight="normal" font-style="normal" relative-x="0.00" default-y="-15.45">.</words>
				</direction-type>
			</direction>
			<direction placement="below">
				<direction-type>
					<words font-family="Arial" font-size="10" font-weight="normal" font-style="normal" relative-x="0.00" default-y="-0.45">.</words>
				</direction-type>
			</direction>
			<forward>
				<duration>2940</duration>
			</forward>
			<direction placement="below">
				<direction-type>
					<words font-family="Arial" font-size="10" font-weight="normal" font-style="normal" relative-x="0.00" default-y="-5.45">#.</words>
				</direction-type>
			</direction>
			<forward>
				<duration>1260</duration>
			</forward>
			<direction placement="below">
				<direction-type>
					<words font-family="Arial" font-size="10" font-weight="normal" font-style="normal" relative-x="0.00" default-y="-50.45">)</words>
				</direction-type>
			</direction>
			<direction placement="below">
				<direction-type>
					<words font-family="Arial" font-size="10" font-weight="normal" font-style="normal" relative-x="0.00" default-y="-15.45">.</words>
				</direction-type>
			</direction>
			<forward>
				<duration>4200</duration>
			</forward>
			<direction placement="below">
				<direction-type>
					<words font-family="Arial" font-size="10" font-weight="normal" font-style="normal" relative-x="0.00" default-y="-50.45">)</words>
				</direction-type>
			</direction>
			<direction placement="below">
				<direction-type>
					<words font-family="Arial" font-size="10" font-weight="normal" font-style="normal" relative-x="0.00" default-y="-15.45">.</words>
				</direction-type>
			</direction>
			<direction placement="below">
				<direction-type>
					<words font-family="Arial" font-size="10" font-weight="normal" font-style="normal" relative-x="0.00" default-y="-5.45">.</words>
				</direction-type>
			</direction>
		</measure>
		<!--==========================[2,9]=============================-->
		<measure number="9" width="312">
			<print new-system="yes">
				<staff-layout number="1">
					<staff-distance>75.000</staff-distance>
				</staff-layout>
			</print>
			<attributes>
				<staff-details number="1" print-object="yes">
				</staff-details>
			</attributes>
			<forward>
				<duration>3360</duration>
			</forward>
			<direction placement="below">
				<direction-type>
					<words font-family="Arial" font-size="10" font-weight="normal" font-style="normal" relative-x="0.00" default-y="-10.45">#</words>
				</direction-type>
			</direction>
			<forward>
				<duration>840</duration>
			</forward>
			<direction placement="below">
				<direction-type>
					<words font-family="Arial" font-size="10" font-weight="normal" font-style="normal" relative-x="0.00" default-y="-25.45">#</words>
				</direction-type>
			</direction>
			<forward>
				<duration>2940</duration>
			</forward>
			<direction placement="below">
				<direction-type>
					<words font-family="Arial" font-size="10" font-weight="normal" font-style="normal" relative-x="0.00" default-y="-35.45">.</words>
				</direction-type>
			</direction>
			<direction placement="below">
				<direction-type>
					<words font-family="Arial" font-size="10" font-weight="normal" font-style="normal" relative-x="0.00" default-y="-0.45">. .</words>
				</direction-type>
			</direction>
			<forward>
				<duration>2940</duration>
			</forward>
			<direction placement="below">
				<direction-type>
					<words font-family="Arial" font-size="10" font-weight="normal" font-style="normal" relative-x="0.00" default-y="-60.45">)</words>
				</direction-type>
			</direction>
			<direction placement="below">
				<direction-type>
					<words font-family="Arial" font-size="10" font-weight="normal" font-style="normal" relative-x="0.00" default-y="-25.45">.</words>
				</direction-type>
			</direction>
			<forward>
				<duration>3360</duration>
			</forward>
			<direction placement="below">
				<direction-type>
					<words font-family="Arial" font-size="10" font-weight="normal" font-style="normal" relative-x="0.00" default-y="-60.45">)</words>
				</direction-type>
			</direction>
			<direction placement="below">
				<direction-type>
					<words font-family="Arial" font-size="10" font-weight="normal" font-style="normal" relative-x="0.00" default-y="-25.45">.</words>
				</direction-type>
			</direction>
			<direction placement="below">
				<direction-type>
					<words font-family="Arial" font-size="10" font-weight="normal" font-style="normal" relative-x="0.00" default-y="-0.45">.</words>
				</direction-type>
			</direction>
			<forward>
				<duration>3780</duration>
			</forward>
			<direction placement="below">
				<direction-type>
					<words font-family="Arial" font-size="10" font-weight="normal" font-style="normal" relative-x="0.00" default-y="-15.45">.</words>
				</direction-type>
			</direction>
			<direction placement="below">
				<direction-type>
					<words font-family="Arial" font-size="10" font-weight="normal" font-style="normal" relative-x="0.00" default-y="-0.45">.</words>
				</direction-type>
			</direction>
			<forward>
				<duration>2940</duration>
			</forward>
			<direction placement="below">
				<direction-type>
					<words font-family="Arial" font-size="10" font-weight="normal" font-style="normal" relative-x="0.00" default-y="-5.45">#.</words>
				</direction-type>
			</direction>
			<forward>
				<duration>840</duration>
			</forward>
			<direction placement="below">
				<direction-type>
					<words font-family="Arial" font-size="10" font-weight="normal" font-style="normal" relative-x="0.00" default-y="-15.45">.</words>
				</direction-type>
			</direction>
		</measure>
		<!--==========================[2,10]=============================-->
		<measure number="10" width="97">
			<forward>
				<duration>4200</duration>
			</forward>
			<direction placement="below">
				<direction-type>
					<words font-family="Arial" font-size="10" font-weight="normal" font-style="normal" relative-x="0.00" default-y="-35.45">.</words>
				</direction-type>
			</direction>
			<direction placement="below">
				<direction-type>
					<words font-family="Arial" font-size="10" font-weight="normal" font-style="normal" relative-x="0.00" default-y="-5.45">.</words>
				</direction-type>
			</direction>
			<backup>
				<duration>4200</duration>
			</backup>
			<note>
				<pitch>
					<step>D</step>
					<octave>4</octave>
				</pitch>
				<duration>6720</duration>
				<voice>1</voice>
				<type>quarter</type>
				<stem>none</stem>
				<notations>
					<technical>
						<fret>5</fret>
						<string>5</string>
						<fingering placement="above" relative-x="0.00" relative-y="9.58">5</fingering>
					</technical>
				</notations>
			</note>
			<note>
				<chord/>
				<pitch>
					<step>A</step>
					<octave>5</octave>
				</pitch>
				<duration>6720</duration>
				<voice>1</voice>
				<type>quarter</type>
				<stem>none</stem>
				<notations>
					<technical>
						<fret>5</fret>
						<string>1</string>
						<fingering placement="above" relative-x="0.00" relative-y="9.58">5</fingering>
					</technical>
				</notations>
			</note>
		</measure>
		<!--==========================[2,11]=============================-->
		<measure number="11" width="207">
			<forward>
				<duration>3360</duration>
			</forward>
			<direction placement="below">
				<direction-type>
					<words font-family="Arial" font-size="10" font-weight="normal" font-style="normal" relative-x="0.00" default-y="-20.45">. .</words>
				</direction-type>
			</direction>
			<direction placement="below">
				<direction-type>
					<words font-family="Arial" font-size="10" font-weight="normal" font-style="normal" relative-x="0.00" default-y="-10.45">.</words>
				</direction-type>
			</direction>
			<forward>
				<duration>4200</duration>
			</forward>
			<direction placement="below">
				<direction-type>
					<words font-family="Arial" font-size="10" font-weight="normal" font-style="normal" relative-x="0.00" default-y="-55.45">)</words>
				</direction-type>
			</direction>
			<direction placement="below">
				<direction-type>
					<words font-family="Arial" font-size="10" font-weight="normal" font-style="normal" relative-x="0.00" default-y="-0.45">.</words>
				</direction-type>
			</direction>
			<forward>
				<duration>5460</duration>
			</forward>
			<direction placement="below">
				<direction-type>
					<words font-family="Arial" font-size="10" font-weight="normal" font-style="normal" relative-x="0.00" default-y="-50.45">)</words>
				</direction-type>
			</direction>
			<direction placement="below">
				<direction-type>
					<words font-family="Arial" font-size="10" font-weight="normal" font-style="normal" relative-x="0.00" default-y="-15.45">.</words>
				</direction-type>
			</direction>
			<direction placement="below">
				<direction-type>
					<words font-family="Arial" font-size="10" font-weight="normal" font-style="normal" relative-x="0.00" default-y="-0.45">.</words>
				</direction-type>
			</direction>
			<forward>
				<duration>5460</duration>
			</forward>
			<direction placement="below">
				<direction-type>
					<words font-family="Arial" font-size="10" font-weight="normal" font-style="normal" relative-x="0.00" default-y="-10.45">.</words>
				</direction-type>
			</direction>
			<direction placement="below">
				<direction-type>
					<words font-family="Arial" font-size="10" font-weight="normal" font-style="normal" relative-x="0.00" default-y="-0.45">. .</words>
				</direction-type>
			</direction>
			<forward>
				<duration>4200</duration>
			</forward>
			<direction placement="below">
				<direction-type>
					<words font-family="Arial" font-size="10" font-weight="normal" font-style="normal" relative-x="0.00" default-y="-20.45">.</words>
				</direction-type>
			</direction>
		</measure>
		<!--==========================[2,12]=============================-->
		<measure number="12" width="176">
			<forward>
				<duration>2100</duration>
			</forward>
			<direction placement="below">
				<direction-type>
					<words font-family="Arial" font-size="10" font-weight="normal" font-style="normal" relative-x="0.00" default-y="-15.45">.</words>
				</direction-type>
			</direction>
			<direction placement="below">
				<direction-type>
					<words font-family="Arial" font-size="10" font-weight="normal" font-style="normal" relative-x="0.00" default-y="-0.45">.</words>
				</direction-type>
			</direction>
			<forward>
				<duration>840</duration>
			</forward>
			<direction placement="above">
				<direction-type>
					<words font-family="MSTT31c3f400" font-size="10" font-weight="normal" font-style="normal" relative-x="0.00" default-y="10.00"></words>
				</direction-type>
			</direction>
			<forward>
				<duration>420</duration>
			</forward>
			<direction placement="below">
				<direction-type>
					<words font-family="Arial" font-size="10" font-weight="normal" font-style="normal" relative-x="0.00" default-y="-40.45">)</words>
				</direction-type>
			</direction>
			<direction placement="below">
				<direction-type>
					<words font-family="Arial" font-size="10" font-weight="normal" font-style="normal" relative-x="0.00" default-y="-5.45">.</words>
				</direction-type>
			</direction>
			<forward>
				<duration>1680</duration>
			</forward>
			<direction placement="below">
				<direction-type>
					<words font-family="Arial" font-size="10" font-weight="normal" font-style="normal" relative-x="0.00" default-y="-40.45">)</words>
				</direction-type>
			</direction>
			<direction placement="below">
				<direction-type>
					<words font-family="Arial" font-size="10" font-weight="normal" font-style="normal" relative-x="0.00" default-y="-5.45">.</words>
				</direction-type>
			</direction>
			<backup>
				<duration>5040</duration>
			</backup>
			<note>
				<pitch>
					<step>C</step>
					<octave>5</octave>
				</pitch>
				<duration>6720</duration>
				<voice>1</voice>
				<type>quarter</type>
				<stem>none</stem>
				<notations>
					<technical>
						<fret>5</fret>
						<string>3</string>
						<fingering placement="above" relative-x="0.00" relative-y="9.58">5</fingering>
					</technical>
				</notations>
			</note>
			<note>
				<chord/>
				<pitch>
					<step>A</step>
					<octave>5</octave>
				</pitch>
				<duration>6720</duration>
				<voice>1</voice>
				<type>quarter</type>
				<stem>none</stem>
				<notations>
					<technical>
						<fret>5</fret>
						<string>1</string>
						<fingering placement="above" relative-x="0.00" relative-y="9.58">5</fingering>
					</technical>
				</notations>
			</note>
		</measure>
		<!--==========================[2,13]=============================-->
		<measure number="13" width="291">
			<print new-system="yes">
				<staff-layout number="1">
					<staff-distance>75.000</staff-distance>
				</staff-layout>
			</print>
			<attributes>
				<staff-details number="1" print-object="yes">
				</staff-details>
			</attributes>
			<forward>
				<duration>3780</duration>
			</forward>
			<direction placement="below">
				<direction-type>
					<words font-family="Arial" font-size="10" font-weight="normal" font-style="normal" relative-x="0.00" default-y="-10.45">#</words>
				</direction-type>
			</direction>
			<forward>
				<duration>840</duration>
			</forward>
			<direction placement="below">
				<direction-type>
					<words font-family="Arial" font-size="10" font-weight="normal" font-style="normal" relative-x="0.00" default-y="-25.45">#</words>
				</direction-type>
			</direction>
			<forward>
				<duration>2520</duration>
			</forward>
			<direction placement="below">
				<direction-type>
					<words font-family="Arial" font-size="10" font-weight="normal" font-style="normal" relative-x="0.00" default-y="-10.45">.</words>
				</direction-type>
			</direction>
			<direction placement="above">
				<direction-type>
					<words font-family="Arial" font-size="10" font-weight="normal" font-style="normal" relative-x="0.00" default-y="14.55">.</words>
				</direction-type>
			</direction>
			<forward>
				<duration>2100</duration>
			</forward>
			<direction placement="below">
				<direction-type>
					<words font-family="Arial" font-size="10" font-weight="normal" font-style="normal" relative-x="0.00" default-y="-5.45">#. .</words>
				</direction-type>
			</direction>
			<forward>
				<duration>1260</duration>
			</forward>
			<direction placement="below">
				<direction-type>
					<words font-family="Arial" font-size="10" font-weight="normal" font-style="normal" relative-x="0.00" default-y="-30.45">. .</words>
				</direction-type>
			</direction>
			<forward>
				<duration>6300</duration>
			</forward>
			<direction placement="below">
				<direction-type>
					<words font-family="Arial" font-size="10" font-weight="normal" font-style="normal" relative-x="0.00" default-y="-35.45">. .</words>
				</direction-type>
			</direction>
			<direction placement="below">
				<direction-type>
					<words font-family="Arial" font-size="10" font-weight="normal" font-style="normal" relative-x="0.00" default-y="-0.45">. .</words>
				</direction-type>
			</direction>
			<forward>
				<duration>5460</duration>
			</forward>
			<direction placement="below">
				<direction-type>
					<words font-family="Arial" font-size="10" font-weight="normal" font-style="normal" relative-x="0.00" default-y="-5.45">h .</words>
				</direction-type>
			</direction>
			<forward>
				<duration>1260</duration>
			</forward>
			<direction placement="below">
				<direction-type>
					<words font-family="Arial" font-size="10" font-weight="normal" font-style="normal" relative-x="0.00" default-y="-35.45">.</words>
				</direction-type>
			</direction>
		</measure>
		<!--==========================[2,14]=============================-->
		<measure number="14" width="49">
			<note>
				<pitch>
					<step>C</step>
					<octave>5</octave>
				</pitch>
				<duration>6720</duration>
				<voice>1</voice>
				<type>quarter</type>
				<stem>none</stem>
				<notations>
					<technical>
						<fret>5</fret>
						<string>3</string>
						<fingering placement="above" relative-x="0.00" relative-y="9.58">5</fingering>
					</technical>
				</notations>
			</note>
			<note>
				<chord/>
				<pitch>
					<step>E</step>
					<octave>5</octave>
				</pitch>
				<duration>6720</duration>
				<voice>1</voice>
				<type>quarter</type>
				<stem>none</stem>
				<notations>
					<technical>
						<fret>5</fret>
						<string>2</string>
						<fingering placement="above" relative-x="0.00" relative-y="9.58">5</fingering>
					</technical>
				</notations>
			</note>
		</measure>
	</part>
</score-partwise>
