<?xml version="1.0" encoding="UTF-8" standalone="no"?>
<!DOCTYPE score-partwise PUBLIC "-//Recordare//DTD MusicXML 2.0 Partwise//EN" "http://www.musicxml.org/dtds/partwise.dtd">
<score-partwise version="2.0">
	<work>
		<work-title>Joseph D. Jones, 1868</work-title>
	</work>
	<identification>
		<creator type="poet">Gwalchmai</creator>
		<encoding>
			<software>PDFtoMusic Pro v1.6.5 Build 1B9E7 (c) Myriad - http://www.myriad-online.com</software>
			<?PDFtoMusic Document type 0100- 00000000?>
			<?Font corrections applied by user?>
			<supports attribute="new-system" element="print" type="yes" value="yes"/>
			<supports attribute="new-page" element="print" type="yes" value="yes"/>
		</encoding>
	</identification>
	<defaults>
		<scaling>
			<millimeters>5.757336</millimeters>
			<tenths>40</tenths>
		</scaling>
		<page-layout>
			<page-height>1941.176</page-height>
			<page-width>1499.999</page-width>
			<page-margins type="both">
				<left-margin>69.477</left-margin>
				<right-margin>69.477</right-margin>
				<top-margin>69.477</top-margin>
				 <bottom-margin>69.477</bottom-margin>
			</page-margins>
		</page-layout>
		<appearance>
			<line-width type="stem">0.2941</line-width>
			<line-width type="beam">5.0001</line-width>
			<line-width type="staff">0.8823</line-width>
			<line-width type="light barline">0.4493</line-width>
			<line-width type="leger">0.8823</line-width>
		</appearance>
	</defaults>
	<credit page="1">
		<credit-words  default-x="129.706" default-y="648.617" justify="left" valign="baseline" font-family="Arial" font-size="10" font-weight="normal" font-style="normal">#</credit-words>
	</credit>
	<credit page="1">
		<credit-words  default-x="129.706" default-y="483.617" justify="left" valign="baseline" font-family="Arial" font-size="10" font-weight="normal" font-style="normal">#  O</credit-words>
	</credit>
	<credit page="1">
		<credit-words  default-x="156.765" default-y="638.617" justify="left" valign="baseline" font-family="Arial" font-size="10" font-weight="normal" font-style="normal">O</credit-words>
	</credit>
	<credit page="1">
		<credit-words  default-x="156.765" default-y="613.617" justify="left" valign="baseline" font-family="Arial" font-size="10" font-weight="normal" font-style="normal">O</credit-words>
	</credit>
	<credit page="1">
		<credit-words  default-x="156.765" default-y="473.617" justify="left" valign="baseline" font-family="Arial" font-size="10" font-weight="normal" font-style="normal">O</credit-words>
	</credit>
	<credit page="1">
		<credit-words  default-x="338.823" default-y="1322.725" justify="left" valign="baseline" font-family="Times New Roman" font-size="24" font-weight="bold" font-style="normal">Gwalchmai</credit-words>
	</credit>
	<credit page="1">
		<credit-words  default-x="613.823" default-y="1248.926" justify="left" valign="baseline" font-family="Times New Roman" font-size="12" font-weight="normal" font-style="normal">Joseph D. Jones, 1868</credit-words>
	</credit>
	<part-list>
		<score-part id="P1">
			<part-name></part-name>
			<score-instrument id="P1-I1">
				<instrument-name>Instrument 1</instrument-name>
			</score-instrument>
			<midi-instrument id="P1-I1">
				<midi-channel>1</midi-channel>
				<midi-bank>1</midi-bank>
				<midi-program>25</midi-program>
				<volume>50</volume>
				<pan>0</pan>
				<elevation>0</elevation>
				<?Myriad
				<iddigit>2400</iddigit>
				?>
			</midi-instrument>
		</score-part>
		<score-part id="P2">
			<part-name></part-name>
			<score-instrument id="P2-I1">
				<instrument-name>Instrument 2</instrument-name>
			</score-instrument>
			<midi-instrument id="P2-I1">
				<midi-channel>2</midi-channel>
				<midi-bank>1</midi-bank>
				<midi-program>25</midi-program>
				<volume>50</volume>
				<pan>0</pan>
				<elevation>0</elevation>
				<?Myriad
				<iddigit>2400</iddigit>
				?>
			</midi-instrument>
		</score-part>
	</part-list>
	<part id="P1">
		<!--==========================[1,1]=============================-->
		<measure number="1" width="253">
			<print new-page="yes">
				<system-layout>
					<system-margins>
						<left-margin>18.612</left-margin>
						<right-margin>547.794</right-margin>
					</system-margins>
					<top-system-distance>662.043</top-system-distance>
				</system-layout>
			</print>
			<attributes>
				<divisions>6720</divisions>
				<key>
					<fifths>1</fifths>
					<mode>major</mode>
				</key>
				<time>
					<beats>4</beats>
					<beat-type>4</beat-type>
				</time>
				<clef number="1">
					<sign>G</sign>
					<line>2</line>
				</clef>
				<staff-details number="1" print-object="yes">
					<staff-lines>5</staff-lines>
					<staff-tuning line="1">
						<tuning-step>A</tuning-step>
						<tuning-octave>3</tuning-octave>
					</staff-tuning>
					<staff-tuning line="2">
						<tuning-step>D</tuning-step>
						<tuning-octave>4</tuning-octave>
					</staff-tuning>
					<staff-tuning line="3">
						<tuning-step>G</tuning-step>
						<tuning-octave>4</tuning-octave>
					</staff-tuning>
					<staff-tuning line="4">
						<tuning-step>B</tuning-step>
						<tuning-octave>4</tuning-octave>
					</staff-tuning>
					<staff-tuning line="5">
						<tuning-step>E</tuning-step>
						<tuning-octave>5</tuning-octave>
					</staff-tuning>
					<staff-size>100.00</staff-size>
				</staff-details>
				<transpose>
					<chromatic>5</chromatic>
					<octave-change>-1</octave-change>
				</transpose>
			</attributes>
			<note>
				<pitch>
					<step>B</step>
					<octave>4</octave>
				</pitch>
				<duration>6720</duration>
				<voice>1</voice>
				<type>quarter</type>
				<stem default-y="14.71">up</stem>
			</note>
			<note>
				<chord/>
				<pitch>
					<step>D</step>
					<octave>4</octave>
				</pitch>
				<duration>6720</duration>
				<voice>1</voice>
				<type>quarter</type>
				<stem default-y="14.71">up</stem>
			</note>
			<note>
				<pitch>
					<step>D</step>
					<octave>5</octave>
				</pitch>
				<duration>6720</duration>
				<voice>1</voice>
				<type>quarter</type>
				<stem default-y="24.71">up</stem>
			</note>
			<note>
				<chord/>
				<pitch>
					<step>F</step>
					<octave>4</octave>
				</pitch>
				<duration>6720</duration>
				<voice>1</voice>
				<type>quarter</type>
				<stem default-y="24.71">up</stem>
			</note>
			<note>
				<pitch>
					<step>G</step>
					<octave>4</octave>
				</pitch>
				<duration>6720</duration>
				<voice>1</voice>
				<type>quarter</type>
				<stem default-y="4.71">up</stem>
			</note>
			<backup>
				<duration>6720</duration>
			</backup>
			<note>
				<pitch>
					<step>G</step>
					<octave>4</octave>
				</pitch>
				<duration>3360</duration>
				<voice>2</voice>
				<type>eighth</type>
				<stem default-y="-70.59">down</stem>
				<beam number="1">begin</beam>
				<notations>
					<slur type="start" number="1" placement="below" orientation="under"/>
				</notations>
			</note>
			<note>
				<pitch>
					<step>D</step>
					<octave>4</octave>
				</pitch>
				<duration>3360</duration>
				<voice>2</voice>
				<type>eighth</type>
				<stem default-y="-85.59">down</stem>
				<beam number="1">end</beam>
				<notations>
					<slur type="stop" number="1"/>
				</notations>
			</note>
			<note>
				<pitch>
					<step>A</step>
					<octave>4</octave>
				</pitch>
				<duration>3360</duration>
				<voice>1</voice>
				<type>eighth</type>
				<stem default-y="14.71">up</stem>
				<beam number="1">begin</beam>
			</note>
			<note>
				<chord/>
				<pitch>
					<step>E</step>
					<octave>4</octave>
				</pitch>
				<duration>3360</duration>
				<voice>1</voice>
				<type>eighth</type>
				<stem default-y="14.71">up</stem>
				<notations>
					<slur type="start" number="1" placement="below" orientation="under"/>
				</notations>
			</note>
			<note>
				<pitch>
					<step>B</step>
					<octave>4</octave>
				</pitch>
				<duration>3360</duration>
				<voice>1</voice>
				<type>eighth</type>
				<stem default-y="20.00">up</stem>
				<beam number="1">end</beam>
			</note>
			<note>
				<chord/>
				<pitch>
					<step>G</step>
					<octave>4</octave>
				</pitch>
				<duration>3360</duration>
				<voice>1</voice>
				<type>eighth</type>
				<stem default-y="20.00">up</stem>
				<notations>
					<slur type="stop" number="1"/>
				</notations>
			</note>
		</measure>
		<!--==========================[1,2]=============================-->
		<measure number="2" width="100">
			<note>
				<pitch>
					<step>C</step>
					<octave>5</octave>
				</pitch>
				<duration>6720</duration>
				<voice>1</voice>
				<type>quarter</type>
				<stem default-y="19.71">up</stem>
			</note>
			<note>
				<chord/>
				<pitch>
					<step>D</step>
					<octave>4</octave>
				</pitch>
				<duration>6720</duration>
				<voice>1</voice>
				<type>quarter</type>
				<stem default-y="19.71">up</stem>
			</note>
			<note>
				<pitch>
					<step>B</step>
					<octave>4</octave>
				</pitch>
				<duration>6720</duration>
				<voice>1</voice>
				<type>quarter</type>
				<stem default-y="14.71">up</stem>
			</note>
			<note>
				<chord/>
				<pitch>
					<step>D</step>
					<octave>4</octave>
				</pitch>
				<duration>6720</duration>
				<voice>1</voice>
				<type>quarter</type>
				<stem default-y="14.71">up</stem>
			</note>
			<note>
				<pitch>
					<step>A</step>
					<octave>4</octave>
				</pitch>
				<duration>13440</duration>
				<voice>1</voice>
				<type>half</type>
				<stem default-y="9.71">up</stem>
			</note>
			<note>
				<chord/>
				<pitch>
					<step>D</step>
					<octave>4</octave>
				</pitch>
				<duration>13440</duration>
				<voice>1</voice>
				<type>half</type>
				<stem default-y="9.71">up</stem>
			</note>
		</measure>
		<!--==========================[1,3]=============================-->
		<measure number="3" width="134">
			<note>
				<pitch>
					<step>B</step>
					<octave>4</octave>
				</pitch>
				<duration>6720</duration>
				<voice>1</voice>
				<type>quarter</type>
				<stem default-y="14.71">up</stem>
			</note>
			<note>
				<chord/>
				<pitch>
					<step>D</step>
					<octave>4</octave>
				</pitch>
				<duration>6720</duration>
				<voice>1</voice>
				<type>quarter</type>
				<stem default-y="14.71">up</stem>
			</note>
			<note>
				<pitch>
					<step>C</step>
					<octave>5</octave>
				</pitch>
				<duration>6720</duration>
				<voice>1</voice>
				<type>quarter</type>
				<stem default-y="19.71">up</stem>
			</note>
			<note>
				<chord/>
				<pitch>
					<step>E</step>
					<octave>4</octave>
				</pitch>
				<duration>6720</duration>
				<voice>1</voice>
				<type>quarter</type>
				<stem default-y="19.71">up</stem>
			</note>
			<backup>
				<duration>6720</duration>
			</backup>
			<note>
				<pitch>
					<step>A</step>
					<octave>4</octave>
				</pitch>
				<duration>13440</duration>
				<voice>2</voice>
				<type>half</type>
				<stem default-y="9.71">up</stem>
			</note>
			<backup>
				<duration>13440</duration>
			</backup>
			<note>
				<pitch>
					<step>D</step>
					<octave>4</octave>
				</pitch>
				<duration>10080</duration>
				<voice>3</voice>
				<type>quarter</type>
				<dot/>
				<stem default-y="-80.59">down</stem>
				<notations>
					<slur type="start" number="1" placement="below" orientation="under"/>
				</notations>
			</note>
			<forward>
				<duration>3360</duration>
			</forward>
			<note>
				<pitch>
					<step>C</step>
					<octave>4</octave>
				</pitch>
				<duration>6720</duration>
				<voice>2</voice>
				<type>quarter</type>
				<stem default-y="-85.59">down</stem>
				<notations>
					<slur type="stop" number="1"/>
				</notations>
			</note>
		</measure>
		<!--==========================[1,4]=============================-->
		<measure number="4" width="104">
			<forward>
				<duration>5460</duration>
			</forward>
			<direction placement="below">
				<direction-type>
					<words font-family="Arial" font-size="10" font-weight="normal" font-style="normal" relative-x="0.00" default-y="-55.45">O</words>
				</direction-type>
			</direction>
			<direction placement="below">
				<direction-type>
					<words font-family="MSTT31c49e00" font-size="4" font-weight="normal" font-style="normal" relative-x="0.00" default-y="-30.45">O</words>
				</direction-type>
			</direction>
		</measure>
		<!--==========================[1,5]=============================-->
		<measure number="5" width="201">
			<forward>
				<duration>2520</duration>
			</forward>
			<direction placement="below">
				<direction-type>
					<words font-family="Arial" font-size="10" font-weight="normal" font-style="normal" relative-x="0.00" default-y="-45.45">.</words>
				</direction-type>
			</direction>
			<direction placement="below">
				<direction-type>
					<words font-family="Arial" font-size="10" font-weight="normal" font-style="normal" relative-x="0.00" default-y="-20.45">.</words>
				</direction-type>
			</direction>
			<forward>
				<duration>3780</duration>
			</forward>
			<direction placement="below">
				<direction-type>
					<words font-family="Arial" font-size="10" font-weight="normal" font-style="normal" relative-x="0.00" default-y="-35.45">.</words>
				</direction-type>
			</direction>
			<direction placement="below">
				<direction-type>
					<words font-family="Arial" font-size="10" font-weight="normal" font-style="normal" relative-x="0.00" default-y="-10.45">.</words>
				</direction-type>
			</direction>
			<forward>
				<duration>3360</duration>
			</forward>
			<direction placement="below">
				<direction-type>
					<words font-family="Arial" font-size="10" font-weight="normal" font-style="normal" relative-x="0.00" default-y="-30.45">.</words>
				</direction-type>
			</direction>
			<forward>
				<duration>3360</duration>
			</forward>
			<direction placement="below">
				<direction-type>
					<words font-family="Arial" font-size="10" font-weight="normal" font-style="normal" relative-x="0.00" default-y="-45.45">.</words>
				</direction-type>
			</direction>
			<forward>
				<duration>3780</duration>
			</forward>
			<direction placement="below">
				<direction-type>
					<words font-family="Arial" font-size="10" font-weight="normal" font-style="normal" relative-x="0.00" default-y="-40.45">.</words>
				</direction-type>
			</direction>
			<direction placement="below">
				<direction-type>
					<words font-family="Arial" font-size="10" font-weight="normal" font-style="normal" relative-x="0.00" default-y="-25.45">.</words>
				</direction-type>
			</direction>
			<forward>
				<duration>5040</duration>
			</forward>
			<direction placement="below">
				<direction-type>
					<words font-family="Arial" font-size="10" font-weight="normal" font-style="normal" relative-x="0.00" default-y="-30.45">.</words>
				</direction-type>
			</direction>
			<direction placement="below">
				<direction-type>
					<words font-family="Arial" font-size="10" font-weight="normal" font-style="normal" relative-x="0.00" default-y="-20.45">.</words>
				</direction-type>
			</direction>
			<forward>
				<duration>1260</duration>
			</forward>
			<direction placement="below">
				<direction-type>
					<words font-family="MSTT31c49e00" font-size="11" font-weight="normal" font-style="normal" relative-x="0.00" default-y="-5.45">1</words>
				</direction-type>
			</direction>
		</measure>
		<!--==========================[1,6]=============================-->
		<measure number="6" width="146">
			<print new-system="yes">
				<system-layout>
					<system-margins>
						<left-margin>18.612</left-margin>
						<right-margin>547.794</right-margin>
					</system-margins>
					<system-distance>85.294</system-distance>
				</system-layout>
			</print>
			<attributes>
				<key>
					<fifths>0</fifths>
					<mode>major</mode>
				</key>
				<clef number="1">
					<sign>TAB</sign>
					<line>5</line>
				</clef>
				<staff-details number="1" print-object="yes">
				</staff-details>
			</attributes>
			<forward>
				<duration>1680</duration>
			</forward>
			<direction placement="below">
				<direction-type>
					<words font-family="Arial" font-size="10" font-weight="normal" font-style="normal" relative-x="0.00" default-y="-0.45">#</words>
				</direction-type>
			</direction>
			<forward>
				<duration>1680</duration>
			</forward>
			<direction placement="below">
				<direction-type>
					<words font-family="Arial" font-size="10" font-weight="normal" font-style="normal" relative-x="0.00" default-y="-45.45">. .</words>
				</direction-type>
			</direction>
			<direction placement="below">
				<direction-type>
					<words font-family="Arial" font-size="10" font-weight="normal" font-style="normal" relative-x="0.00" default-y="-15.45">.</words>
				</direction-type>
			</direction>
			<forward>
				<duration>1680</duration>
			</forward>
			<direction placement="below">
				<direction-type>
					<words font-family="Arial" font-size="10" font-weight="normal" font-style="normal" relative-x="0.00" default-y="-20.45">.</words>
				</direction-type>
			</direction>
			<backup>
				<duration>5040</duration>
			</backup>
			<note>
				<pitch>
					<step>D</step>
					<alter>1</alter>
					<octave>4</octave>
				</pitch>
				<duration>6720</duration>
				<voice>1</voice>
				<type>quarter</type>
				<stem>none</stem>
				<notations>
					<technical>
						<fret>6</fret>
						<string>5</string>
					</technical>
				</notations>
			</note>
			<note>
				<pitch>
					<step>D</step>
					<octave>4</octave>
				</pitch>
				<duration>6720</duration>
				<voice>1</voice>
				<type>quarter</type>
				<stem>none</stem>
				<notations>
					<technical>
						<fret>5</fret>
						<string>5</string>
					</technical>
				</notations>
			</note>
			<note>
				<chord/>
				<pitch>
					<step>G</step>
					<octave>4</octave>
				</pitch>
				<duration>6720</duration>
				<voice>1</voice>
				<type>quarter</type>
				<stem>none</stem>
				<notations>
					<technical>
						<fret>5</fret>
						<string>4</string>
					</technical>
				</notations>
			</note>
			<note>
				<chord/>
				<pitch>
					<step>D</step>
					<octave>4</octave>
				</pitch>
				<duration>6720</duration>
				<voice>1</voice>
				<type>quarter</type>
				<stem>none</stem>
				<notations>
					<technical>
						<fret>5</fret>
						<string>5</string>
					</technical>
				</notations>
			</note>
			<note>
				<chord/>
				<pitch>
					<step>G</step>
					<octave>4</octave>
				</pitch>
				<duration>6720</duration>
				<voice>1</voice>
				<type>quarter</type>
				<stem>none</stem>
				<notations>
					<technical>
						<fret>5</fret>
						<string>4</string>
					</technical>
				</notations>
			</note>
		</measure>
		<!--==========================[1,7]=============================-->
		<measure number="7" width="57">
			<forward>
				<duration>9240</duration>
			</forward>
			<direction placement="below">
				<direction-type>
					<words font-family="Arial" font-size="10" font-weight="normal" font-style="normal" relative-x="0.00" default-y="-45.45">. .</words>
				</direction-type>
			</direction>
			<direction placement="below">
				<direction-type>
					<words font-family="Arial" font-size="10" font-weight="normal" font-style="normal" relative-x="0.00" default-y="-35.45">.</words>
				</direction-type>
			</direction>
			<forward>
				<duration>12180</duration>
			</forward>
			<direction placement="below">
				<direction-type>
					<words font-family="Arial" font-size="10" font-weight="normal" font-style="normal" relative-x="0.00" default-y="-30.45">.</words>
				</direction-type>
			</direction>
		</measure>
		<!--==========================[1,8]=============================-->
		<measure number="8" width="126">
			<forward>
				<duration>1260</duration>
			</forward>
			<direction placement="below">
				<direction-type>
					<words font-family="Arial" font-size="10" font-weight="normal" font-style="normal" relative-x="0.00" default-y="-45.45">.</words>
				</direction-type>
			</direction>
			<forward>
				<duration>1260</duration>
			</forward>
			<direction placement="below">
				<direction-type>
					<words font-family="Arial" font-size="10" font-weight="normal" font-style="normal" relative-x="0.00" default-y="-50.45">#.</words>
				</direction-type>
			</direction>
			<backup>
				<duration>2520</duration>
			</backup>
			<note>
				<pitch>
					<step>D</step>
					<octave>4</octave>
				</pitch>
				<duration>6720</duration>
				<voice>1</voice>
				<type>quarter</type>
				<stem>none</stem>
				<notations>
					<technical>
						<fret>5</fret>
						<string>5</string>
					</technical>
				</notations>
			</note>
			<note>
				<chord/>
				<pitch>
					<step>D</step>
					<octave>4</octave>
				</pitch>
				<duration>6720</duration>
				<voice>1</voice>
				<type>quarter</type>
				<stem>none</stem>
				<notations>
					<technical>
						<fret>5</fret>
						<string>5</string>
					</technical>
				</notations>
			</note>
		</measure>
		<!--==========================[1,9]=============================-->
		<measure number="9" width="69">
			<forward>
				<duration>7560</duration>
			</forward>
			<direction placement="below">
				<direction-type>
					<words font-family="MSTT31c49e00" font-size="4" font-weight="normal" font-style="normal" relative-x="0.00" default-y="-45.45">O O</words>
				</direction-type>
			</direction>
		</measure>
		<!--==========================[1,10]=============================-->
		<measure number="10" width="122">
			<forward>
				<duration>4200</duration>
			</forward>
			<direction placement="below">
				<direction-type>
					<words font-family="Arial" font-size="10" font-weight="normal" font-style="normal" relative-x="0.00" default-y="-45.45">. . . .</words>
				</direction-type>
			</direction>
			<forward>
				<duration>5880</duration>
			</forward>
			<direction placement="below">
				<direction-type>
					<words font-family="Arial" font-size="10" font-weight="normal" font-style="normal" relative-x="0.00" default-y="-30.45">.</words>
				</direction-type>
			</direction>
			<forward>
				<duration>5460</duration>
			</forward>
			<direction placement="below">
				<direction-type>
					<words font-family="Arial" font-size="10" font-weight="normal" font-style="normal" relative-x="0.00" default-y="-35.45">.</words>
				</direction-type>
			</direction>
		</measure>
		<!--==========================[1,11]=============================-->
		<measure number="11" width="110">
			<forward>
				<duration>840</duration>
			</forward>
			<direction placement="below">
				<direction-type>
					<words font-family="Arial" font-size="10" font-weight="normal" font-style="normal" relative-x="0.00" default-y="-55.45">.</words>
				</direction-type>
			</direction>
			<direction placement="below">
				<direction-type>
					<words font-family="Arial" font-size="10" font-weight="normal" font-style="normal" relative-x="0.00" default-y="-30.45">.</words>
				</direction-type>
			</direction>
			<forward>
				<duration>1680</duration>
			</forward>
			<direction placement="below">
				<direction-type>
					<words font-family="Arial" font-size="10" font-weight="normal" font-style="normal" relative-x="0.00" default-y="-40.45">.</words>
				</direction-type>
			</direction>
			<direction placement="below">
				<direction-type>
					<words font-family="Arial" font-size="10" font-weight="normal" font-style="normal" relative-x="0.00" default-y="-25.45">.</words>
				</direction-type>
			</direction>
			<forward>
				<duration>1680</duration>
			</forward>
			<direction placement="below">
				<direction-type>
					<words font-family="Arial" font-size="10" font-weight="normal" font-style="normal" relative-x="0.00" default-y="-45.45">#</words>
				</direction-type>
			</direction>
			<backup>
				<duration>4200</duration>
			</backup>
			<note>
				<pitch>
					<step>D</step>
					<octave>4</octave>
				</pitch>
				<duration>6720</duration>
				<voice>1</voice>
				<type>quarter</type>
				<stem>none</stem>
				<notations>
					<technical>
						<fret>5</fret>
						<string>5</string>
					</technical>
				</notations>
			</note>
			<note>
				<chord/>
				<pitch>
					<step>C</step>
					<octave>5</octave>
				</pitch>
				<duration>6720</duration>
				<voice>1</voice>
				<type>quarter</type>
				<stem>none</stem>
				<notations>
					<technical>
						<fret>5</fret>
						<string>3</string>
					</technical>
				</notations>
			</note>
			<note>
				<chord/>
				<pitch>
					<step>D</step>
					<octave>4</octave>
				</pitch>
				<duration>6720</duration>
				<voice>1</voice>
				<type>quarter</type>
				<stem>none</stem>
				<notations>
					<technical>
						<fret>5</fret>
						<string>5</string>
					</technical>
				</notations>
			</note>
			<note>
				<chord/>
				<pitch>
					<step>C</step>
					<octave>5</octave>
				</pitch>
				<duration>6720</duration>
				<voice>1</voice>
				<type>quarter</type>
				<stem>none</stem>
				<notations>
					<technical>
						<fret>5</fret>
						<string>3</string>
					</technical>
				</notations>
			</note>
		</measure>
		<!--==========================[1,12]=============================-->
		<measure number="12" width="161">
			<forward>
				<duration>840</duration>
			</forward>
			<direction placement="below">
				<direction-type>
					<words font-family="Arial" font-size="10" font-weight="normal" font-style="normal" relative-x="0.00" default-y="-45.45">. .</words>
				</direction-type>
			</direction>
			<direction placement="below">
				<direction-type>
					<words font-family="Arial" font-size="10" font-weight="normal" font-style="normal" relative-x="0.00" default-y="-20.45">.</words>
				</direction-type>
			</direction>
			<forward>
				<duration>840</duration>
			</forward>
			<direction placement="below">
				<direction-type>
					<words font-family="Arial" font-size="10" font-weight="normal" font-style="normal" relative-x="0.00" default-y="-10.45">. .</words>
				</direction-type>
			</direction>
			<forward>
				<duration>2100</duration>
			</forward>
			<direction placement="below">
				<direction-type>
					<words font-family="Arial" font-size="10" font-weight="normal" font-style="normal" relative-x="0.00" default-y="-15.45">#.</words>
				</direction-type>
			</direction>
			<backup>
				<duration>3780</duration>
			</backup>
			<note>
				<pitch>
					<step>G</step>
					<octave>4</octave>
				</pitch>
				<duration>6720</duration>
				<voice>1</voice>
				<type>quarter</type>
				<stem>none</stem>
				<notations>
					<technical>
						<fret>5</fret>
						<string>4</string>
					</technical>
				</notations>
			</note>
			<note>
				<chord/>
				<pitch>
					<step>G</step>
					<octave>4</octave>
				</pitch>
				<duration>6720</duration>
				<voice>1</voice>
				<type>quarter</type>
				<stem>none</stem>
				<notations>
					<technical>
						<fret>5</fret>
						<string>4</string>
					</technical>
				</notations>
			</note>
		</measure>
	</part>
	<part id="P2">
		<!--==========================[2,1]=============================-->
		<measure number="1" width="253">
			<print new-page="yes">
				<staff-layout number="1">
					<staff-distance>115.000</staff-distance>
				</staff-layout>
			</print>
			<attributes>
				<divisions>6720</divisions>
				<clef number="1">
					<sign>TAB</sign>
					<line>5</line>
				</clef>
				<staff-details number="1" print-object="yes">
					<staff-lines>5</staff-lines>
					<staff-tuning line="1">
						<tuning-step>A</tuning-step>
						<tuning-octave>3</tuning-octave>
					</staff-tuning>
					<staff-tuning line="2">
						<tuning-step>D</tuning-step>
						<tuning-octave>4</tuning-octave>
					</staff-tuning>
					<staff-tuning line="3">
						<tuning-step>G</tuning-step>
						<tuning-octave>4</tuning-octave>
					</staff-tuning>
					<staff-tuning line="4">
						<tuning-step>B</tuning-step>
						<tuning-octave>4</tuning-octave>
					</staff-tuning>
					<staff-tuning line="5">
						<tuning-step>E</tuning-step>
						<tuning-octave>5</tuning-octave>
					</staff-tuning>
					<staff-size>100.00</staff-size>
				</staff-details>
				<transpose>
					<chromatic>0</chromatic>
					<octave-change>-1</octave-change>
				</transpose>
			</attributes>
			<direction placement="below">
				<direction-type>
					<words font-family="Arial" font-size="10" font-weight="normal" font-style="normal" relative-x="33.96" default-y="-10.45">#</words>
				</direction-type>
			</direction>
			<attributes>
				<time>
					<beats>4</beats>
					<beat-type>4</beat-type>
				</time>
			</attributes>
			<forward>
				<duration>2940</duration>
			</forward>
			<direction placement="below">
				<direction-type>
					<words font-family="Arial" font-size="10" font-weight="normal" font-style="normal" relative-x="0.00" default-y="-5.45">.</words>
				</direction-type>
			</direction>
			<forward>
				<duration>4200</duration>
			</forward>
			<direction placement="below">
				<direction-type>
					<words font-family="Arial" font-size="10" font-weight="normal" font-style="normal" relative-x="0.00" default-y="-20.45">.</words>
				</direction-type>
			</direction>
			<direction placement="below">
				<direction-type>
					<words font-family="Arial" font-size="10" font-weight="normal" font-style="normal" relative-x="0.00" default-y="-0.45">.</words>
				</direction-type>
			</direction>
			<forward>
				<duration>3780</duration>
			</forward>
			<direction placement="below">
				<direction-type>
					<words font-family="Arial" font-size="10" font-weight="normal" font-style="normal" relative-x="0.00" default-y="-15.45">.</words>
				</direction-type>
			</direction>
			<direction placement="above">
				<direction-type>
					<words font-family="Arial" font-size="10" font-weight="normal" font-style="normal" relative-x="0.00" default-y="9.55">.</words>
				</direction-type>
			</direction>
			<forward>
				<duration>3780</duration>
			</forward>
			<direction placement="below">
				<direction-type>
					<words font-family="Arial" font-size="10" font-weight="normal" font-style="normal" relative-x="0.00" default-y="-20.45">.</words>
				</direction-type>
			</direction>
			<direction placement="above">
				<direction-type>
					<words font-family="Arial" font-size="10" font-weight="normal" font-style="normal" relative-x="0.00" default-y="4.55">.</words>
				</direction-type>
			</direction>
			<forward>
				<duration>4200</duration>
			</forward>
			<direction placement="below">
				<direction-type>
					<words font-family="Arial" font-size="10" font-weight="normal" font-style="normal" relative-x="0.00" default-y="-25.45">.</words>
				</direction-type>
			</direction>
			<direction placement="below">
				<direction-type>
					<words font-family="Arial" font-size="10" font-weight="normal" font-style="normal" relative-x="0.00" default-y="-0.45">.</words>
				</direction-type>
			</direction>
			<forward>
				<duration>3780</duration>
			</forward>
			<direction placement="below">
				<direction-type>
					<words font-family="Arial" font-size="10" font-weight="normal" font-style="normal" relative-x="0.00" default-y="-30.45">.</words>
				</direction-type>
			</direction>
			<direction placement="below">
				<direction-type>
					<words font-family="Arial" font-size="10" font-weight="normal" font-style="normal" relative-x="0.00" default-y="-5.45">.</words>
				</direction-type>
			</direction>
		</measure>
		<!--==========================[2,2]=============================-->
		<measure number="2" width="100">
			<forward>
				<duration>1260</duration>
			</forward>
			<direction placement="below">
				<direction-type>
					<words font-family="Arial" font-size="10" font-weight="normal" font-style="normal" relative-x="0.00" default-y="-35.45">.</words>
				</direction-type>
			</direction>
			<direction placement="below">
				<direction-type>
					<words font-family="Arial" font-size="10" font-weight="normal" font-style="normal" relative-x="0.00" default-y="-10.45">.</words>
				</direction-type>
			</direction>
			<forward>
				<duration>1680</duration>
			</forward>
			<direction placement="below">
				<direction-type>
					<words font-family="Arial" font-size="10" font-weight="normal" font-style="normal" relative-x="0.00" default-y="-40.45">.</words>
				</direction-type>
			</direction>
			<direction placement="below">
				<direction-type>
					<words font-family="Arial" font-size="10" font-weight="normal" font-style="normal" relative-x="0.00" default-y="-5.45">.</words>
				</direction-type>
			</direction>
			<forward>
				<duration>10500</duration>
			</forward>
			<note>
				<pitch>
					<step>C</step>
					<octave>5</octave>
				</pitch>
				<duration>6720</duration>
				<voice>1</voice>
				<type>quarter</type>
				<stem>none</stem>
				<notations>
					<technical>
						<fret>5</fret>
						<string>3</string>
						<fingering placement="above" relative-x="0.00" relative-y="9.58">5</fingering>
					</technical>
				</notations>
			</note>
			<note>
				<chord/>
				<pitch>
					<step>E</step>
					<octave>5</octave>
				</pitch>
				<duration>6720</duration>
				<voice>1</voice>
				<type>quarter</type>
				<stem>none</stem>
				<notations>
					<technical>
						<fret>5</fret>
						<string>2</string>
						<fingering placement="above" relative-x="0.00" relative-y="9.58">5</fingering>
					</technical>
				</notations>
			</note>
		</measure>
		<!--==========================[2,3]=============================-->
		<measure number="3" width="134">
			<forward>
				<duration>840</duration>
			</forward>
			<direction placement="below">
				<direction-type>
					<words font-family="Arial" font-size="10" font-weight="normal" font-style="normal" relative-x="0.00" default-y="-5.45">. .</words>
				</direction-type>
			</direction>
			<forward>
				<duration>1260</duration>
			</forward>
			<direction placement="below">
				<direction-type>
					<words font-family="Arial" font-size="10" font-weight="normal" font-style="normal" relative-x="0.00" default-y="-25.45">.</words>
				</direction-type>
			</direction>
			<forward>
				<duration>4620</duration>
			</forward>
			<note>
				<pitch>
					<step>C</step>
					<octave>5</octave>
				</pitch>
				<duration>6720</duration>
				<voice>1</voice>
				<type>quarter</type>
				<stem>none</stem>
				<notations>
					<technical>
						<fret>5</fret>
						<string>3</string>
						<fingering placement="above" relative-x="0.00" relative-y="9.58">5</fingering>
					</technical>
				</notations>
			</note>
			<note>
				<chord/>
				<pitch>
					<step>E</step>
					<octave>5</octave>
				</pitch>
				<duration>6720</duration>
				<voice>1</voice>
				<type>quarter</type>
				<stem>none</stem>
				<notations>
					<technical>
						<fret>5</fret>
						<string>2</string>
						<fingering placement="above" relative-x="0.00" relative-y="9.58">5</fingering>
					</technical>
				</notations>
			</note>
		</measure>
		<!--==========================[2,4]=============================-->
		<measure number="4" width="104">
			<forward>
				<duration>5460</duration>
			</forward>
			<direction placement="below">
				<direction-type>
					<words font-family="MSTT31c49e00" font-size="4" font-weight="normal" font-style="normal" relative-x="0.00" default-y="-40.45">O</words>
				</direction-type>
			</direction>
			<direction placement="below">
				<direction-type>
					<words font-family="MSTT31c49e00" font-size="4" font-weight="normal" font-style="normal" relative-x="0.00" default-y="-5.45">O</words>
				</direction-type>
			</direction>
			<forward>
				<duration>20580</duration>
			</forward>
			<direction placement="above">
				<direction-type>
					<words font-family="Times New Roman" font-size="10" font-weight="bold" font-style="italic" relative-x="0.00" default-y="86.03">Fine</words>
				</direction-type>
				<sound fine="yes"/>
			</direction>
		</measure>
		<!--==========================[2,5]=============================-->
		<measure number="5" width="201">
			<forward>
				<duration>2520</duration>
			</forward>
			<direction placement="below">
				<direction-type>
					<words font-family="Arial" font-size="10" font-weight="normal" font-style="normal" relative-x="0.00" default-y="-5.45">.</words>
				</direction-type>
			</direction>
			<forward>
				<duration>3780</duration>
			</forward>
			<direction placement="below">
				<direction-type>
					<words font-family="Arial" font-size="10" font-weight="normal" font-style="normal" relative-x="0.00" default-y="-20.45">.</words>
				</direction-type>
			</direction>
			<direction placement="below">
				<direction-type>
					<words font-family="Arial" font-size="10" font-weight="normal" font-style="normal" relative-x="0.00" default-y="-0.45">.</words>
				</direction-type>
			</direction>
			<forward>
				<duration>3360</duration>
			</forward>
			<direction placement="below">
				<direction-type>
					<words font-family="Arial" font-size="10" font-weight="normal" font-style="normal" relative-x="0.00" default-y="-15.45">.</words>
				</direction-type>
			</direction>
			<direction placement="above">
				<direction-type>
					<words font-family="Arial" font-size="10" font-weight="normal" font-style="normal" relative-x="0.00" default-y="9.55">.</words>
				</direction-type>
			</direction>
			<forward>
				<duration>3360</duration>
			</forward>
			<direction placement="below">
				<direction-type>
					<words font-family="Arial" font-size="10" font-weight="normal" font-style="normal" relative-x="0.00" default-y="-20.45">.</words>
				</direction-type>
			</direction>
			<direction placement="above">
				<direction-type>
					<words font-family="Arial" font-size="10" font-weight="normal" font-style="normal" relative-x="0.00" default-y="4.55">.</words>
				</direction-type>
			</direction>
			<forward>
				<duration>3780</duration>
			</forward>
			<direction placement="below">
				<direction-type>
					<words font-family="Arial" font-size="10" font-weight="normal" font-style="normal" relative-x="0.00" default-y="-25.45">.</words>
				</direction-type>
			</direction>
			<direction placement="below">
				<direction-type>
					<words font-family="Arial" font-size="10" font-weight="normal" font-style="normal" relative-x="0.00" default-y="-0.45">.</words>
				</direction-type>
			</direction>
			<forward>
				<duration>5040</duration>
			</forward>
			<direction placement="below">
				<direction-type>
					<words font-family="Arial" font-size="10" font-weight="normal" font-style="normal" relative-x="0.00" default-y="-30.45">.</words>
				</direction-type>
			</direction>
			<direction placement="below">
				<direction-type>
					<words font-family="Arial" font-size="10" font-weight="normal" font-style="normal" relative-x="0.00" default-y="-5.45">.</words>
				</direction-type>
			</direction>
		</measure>
		<!--==========================[2,6]=============================-->
		<measure number="6" width="146">
			<print new-system="yes">
				<staff-layout number="1">
					<staff-distance>115.000</staff-distance>
				</staff-layout>
			</print>
			<attributes>
				<staff-details number="1" print-object="yes">
				</staff-details>
			</attributes>
			<direction placement="below">
				<direction-type>
					<words font-family="Arial" font-size="10" font-weight="normal" font-style="normal" relative-x="33.96" default-y="-10.45"># .</words>
				</direction-type>
			</direction>
			<direction placement="below">
				<direction-type>
					<words font-family="Arial" font-size="10" font-weight="normal" font-style="normal" relative-x="57.24" default-y="-35.45">.</words>
				</direction-type>
			</direction>
			<direction placement="below">
				<direction-type>
					<words font-family="Arial" font-size="10" font-weight="normal" font-style="normal" relative-x="78.12" default-y="-40.45">.</words>
				</direction-type>
			</direction>
			<direction placement="below">
				<direction-type>
					<words font-family="Arial" font-size="10" font-weight="normal" font-style="normal" relative-x="78.12" default-y="-5.45">.</words>
				</direction-type>
			</direction>
			<forward>
				<duration>6720</duration>
			</forward>
			<direction placement="below">
				<direction-type>
					<words font-family="Times New Roman" font-size="10" font-weight="bold" font-style="italic" relative-x="0.00" default-y="-104.27">D.C.</words>
				</direction-type>
				<sound dacapo="yes"/>
			</direction>
			<backup>
				<duration>6720</duration>
			</backup>
			<note>
				<pitch>
					<step>C</step>
					<octave>5</octave>
				</pitch>
				<duration>6720</duration>
				<voice>1</voice>
				<type>quarter</type>
				<stem>none</stem>
				<notations>
					<technical>
						<fret>5</fret>
						<string>3</string>
						<fingering placement="above" relative-x="0.00" relative-y="9.58">5</fingering>
					</technical>
				</notations>
			</note>
			<note>
				<chord/>
				<pitch>
					<step>E</step>
					<octave>5</octave>
				</pitch>
				<duration>6720</duration>
				<voice>1</voice>
				<type>quarter</type>
				<stem>none</stem>
				<notations>
					<technical>
						<fret>5</fret>
						<string>2</string>
						<fingering placement="above" relative-x="0.00" relative-y="9.58">5</fingering>
					</technical>
				</notations>
			</note>
		</measure>
		<!--==========================[2,7]=============================-->
		<measure number="7" width="57">
			<forward>
				<duration>9240</duration>
			</forward>
			<direction placement="below">
				<direction-type>
					<words font-family="Arial" font-size="10" font-weight="normal" font-style="normal" relative-x="0.00" default-y="-20.45">.</words>
				</direction-type>
			</direction>
			<direction placement="below">
				<direction-type>
					<words font-family="Arial" font-size="10" font-weight="normal" font-style="normal" relative-x="0.00" default-y="-0.45">.</words>
				</direction-type>
			</direction>
			<forward>
				<duration>12180</duration>
			</forward>
			<direction placement="below">
				<direction-type>
					<words font-family="Arial" font-size="10" font-weight="normal" font-style="normal" relative-x="0.00" default-y="-40.45">.</words>
				</direction-type>
			</direction>
			<direction placement="above">
				<direction-type>
					<words font-family="Arial" font-size="10" font-weight="normal" font-style="normal" relative-x="0.00" default-y="4.55">.</words>
				</direction-type>
			</direction>
		</measure>
		<!--==========================[2,8]=============================-->
		<measure number="8" width="126">
			<direction placement="below">
				<direction-type>
					<words font-family="Arial" font-size="10" font-weight="normal" font-style="normal" relative-x="11.64" default-y="-0.45">..</words>
				</direction-type>
			</direction>
			<forward>
				<duration>6720</duration>
			</forward>
			<direction placement="below">
				<direction-type>
					<words font-family="Arial" font-size="10" font-weight="normal" font-style="normal" relative-x="0.00" default-y="-5.45">.</words>
				</direction-type>
			</direction>
			<direction placement="below">
				<direction-type>
					<words font-family="Times New Roman" font-size="10" font-weight="bold" font-style="italic" relative-x="0.00" default-y="-104.27">al Fine</words>
				</direction-type>
			</direction>
			<backup>
				<duration>6720</duration>
			</backup>
			<note>
				<pitch>
					<step>D</step>
					<octave>4</octave>
				</pitch>
				<duration>6720</duration>
				<voice>1</voice>
				<type>quarter</type>
				<stem>none</stem>
				<notations>
					<technical>
						<fret>5</fret>
						<string>5</string>
						<fingering placement="above" relative-x="0.00" relative-y="9.58">5</fingering>
					</technical>
				</notations>
			</note>
		</measure>
		<!--==========================[2,9]=============================-->
		<measure number="9" width="69">
			<forward>
				<duration>7560</duration>
			</forward>
			<direction placement="below">
				<direction-type>
					<words font-family="MSTT31c49e00" font-size="4" font-weight="normal" font-style="normal" relative-x="0.00" default-y="-20.45">O</words>
				</direction-type>
			</direction>
			<direction placement="below">
				<direction-type>
					<words font-family="MSTT31c49e00" font-size="4" font-weight="normal" font-style="normal" relative-x="0.00" default-y="-0.45">O</words>
				</direction-type>
			</direction>
		</measure>
		<!--==========================[2,10]=============================-->
		<measure number="10" width="122">
			<forward>
				<duration>4200</duration>
			</forward>
			<direction placement="below">
				<direction-type>
					<words font-family="Arial" font-size="10" font-weight="normal" font-style="normal" relative-x="0.00" default-y="-30.45">.</words>
				</direction-type>
			</direction>
			<direction placement="below">
				<direction-type>
					<words font-family="Arial" font-size="10" font-weight="normal" font-style="normal" relative-x="0.00" default-y="-5.45">.</words>
				</direction-type>
			</direction>
			<forward>
				<duration>5880</duration>
			</forward>
			<direction placement="below">
				<direction-type>
					<words font-family="Arial" font-size="10" font-weight="normal" font-style="normal" relative-x="0.00" default-y="-40.45">.</words>
				</direction-type>
			</direction>
			<direction placement="above">
				<direction-type>
					<words font-family="Arial" font-size="10" font-weight="normal" font-style="normal" relative-x="0.00" default-y="4.55">.</words>
				</direction-type>
			</direction>
			<forward>
				<duration>5460</duration>
			</forward>
			<direction placement="below">
				<direction-type>
					<words font-family="Arial" font-size="10" font-weight="normal" font-style="normal" relative-x="0.00" default-y="-20.45">.</words>
				</direction-type>
			</direction>
			<direction placement="below">
				<direction-type>
					<words font-family="Arial" font-size="10" font-weight="normal" font-style="normal" relative-x="0.00" default-y="-0.45">.</words>
				</direction-type>
			</direction>
			<forward>
				<duration>5460</duration>
			</forward>
			<direction placement="below">
				<direction-type>
					<words font-family="Arial" font-size="10" font-weight="normal" font-style="normal" relative-x="0.00" default-y="-30.45">.</words>
				</direction-type>
			</direction>
			<direction placement="below">
				<direction-type>
					<words font-family="Arial" font-size="10" font-weight="normal" font-style="normal" relative-x="0.00" default-y="-5.45">.</words>
				</direction-type>
			</direction>
		</measure>
		<!--==========================[2,11]=============================-->
		<measure number="11" width="110">
			<forward>
				<duration>840</duration>
			</forward>
			<direction placement="below">
				<direction-type>
					<words font-family="Arial" font-size="10" font-weight="normal" font-style="normal" relative-x="0.00" default-y="-15.45">. .</words>
				</direction-type>
			</direction>
			<direction placement="below">
				<direction-type>
					<words font-family="Arial" font-size="10" font-weight="normal" font-style="normal" relative-x="0.00" default-y="-5.45">.</words>
				</direction-type>
			</direction>
			<forward>
				<duration>1680</duration>
			</forward>
			<direction placement="below">
				<direction-type>
					<words font-family="Arial" font-size="10" font-weight="normal" font-style="normal" relative-x="0.00" default-y="-25.45">.</words>
				</direction-type>
			</direction>
			<backup>
				<duration>2520</duration>
			</backup>
			<note>
				<pitch>
					<step>G</step>
					<octave>4</octave>
				</pitch>
				<duration>6720</duration>
				<voice>1</voice>
				<type>quarter</type>
				<stem>none</stem>
				<notations>
					<technical>
						<fret>5</fret>
						<string>4</string>
						<fingering placement="above" relative-x="0.00" relative-y="9.58">5</fingering>
					</technical>
				</notations>
			</note>
			<note>
				<chord/>
				<pitch>
					<step>E</step>
					<octave>5</octave>
				</pitch>
				<duration>6720</duration>
				<voice>1</voice>
				<type>quarter</type>
				<stem>none</stem>
				<notations>
					<technical>
						<fret>5</fret>
						<string>2</string>
						<fingering placement="above" relative-x="0.00" relative-y="9.58">5</fingering>
					</technical>
				</notations>
			</note>
		</measure>
		<!--==========================[2,12]=============================-->
		<measure number="12" width="161">
			<forward>
				<duration>840</duration>
			</forward>
			<direction placement="below">
				<direction-type>
					<words font-family="Arial" font-size="10" font-weight="normal" font-style="normal" relative-x="0.00" default-y="-5.45">.</words>
				</direction-type>
			</direction>
			<forward>
				<duration>840</duration>
			</forward>
			<direction placement="below">
				<direction-type>
					<words font-family="Arial" font-size="10" font-weight="normal" font-style="normal" relative-x="0.00" default-y="-10.45">.</words>
				</direction-type>
			</direction>
			<direction placement="below">
				<direction-type>
					<words font-family="Arial" font-size="10" font-weight="normal" font-style="normal" relative-x="0.00" default-y="-0.45">.</words>
				</direction-type>
			</direction>
			<forward>
				<duration>1260</duration>
			</forward>
			<direction placement="above">
				<direction-type>
					<words font-family="Arial" font-size="10" font-weight="normal" font-style="normal" relative-x="0.00" default-y="4.55">.</words>
				</direction-type>
			</direction>
			<forward>
				<duration>1260</duration>
			</forward>
			<direction placement="below">
				<direction-type>
					<words font-family="Arial" font-size="10" font-weight="normal" font-style="normal" relative-x="0.00" default-y="-0.45">.</words>
				</direction-type>
			</direction>
			<forward>
				<duration>1260</duration>
			</forward>
			<direction placement="below">
				<direction-type>
					<words font-family="Arial" font-size="10" font-weight="normal" font-style="normal" relative-x="0.00" default-y="-5.45">.</words>
				</direction-type>
			</direction>
			<backup>
				<duration>5460</duration>
			</backup>
			<note>
				<pitch>
					<step>C</step>
					<octave>5</octave>
				</pitch>
				<duration>6720</duration>
				<voice>1</voice>
				<type>quarter</type>
				<stem>none</stem>
				<notations>
					<technical>
						<fret>5</fret>
						<string>3</string>
						<fingering placement="above" relative-x="0.00" relative-y="9.58">5</fingering>
					</technical>
				</notations>
			</note>
		</measure>
	</part>
</score-partwise>
