<?xml version="1.0" encoding="UTF-8" standalone="no"?>
<!DOCTYPE score-partwise PUBLIC "-//Recordare//DTD MusicXML 2.0 Partwise//EN" "http://www.musicxml.org/dtds/partwise.dtd">
<score-partwise version="2.0">
	<work>
		<work-title>Albert L. Peace, 1884</work-title>
	</work>
	<identification>
		<creator type="poet">St. Margaret</creator>
		<encoding>
			<software>PDFtoMusic Pro v1.6.5 Build 1B9E7 (c) Myriad - http://www.myriad-online.com</software>
			<?PDFtoMusic Document type 0100- 00000000?>
			<?Font corrections applied by user?>
			<supports attribute="new-system" element="print" type="yes" value="yes"/>
			<supports attribute="new-page" element="print" type="yes" value="yes"/>
		</encoding>
	</identification>
	<defaults>
		<scaling>
			<millimeters>5.757334</millimeters>
			<tenths>40</tenths>
		</scaling>
		<page-layout>
			<page-height>1941.176</page-height>
			<page-width>1500.000</page-width>
			<page-margins type="both">
				<left-margin>69.477</left-margin>
				<right-margin>69.477</right-margin>
				<top-margin>69.477</top-margin>
				 <bottom-margin>69.477</bottom-margin>
			</page-margins>
		</page-layout>
		<appearance>
			<line-width type="stem">0.2941</line-width>
			<line-width type="staff">0.8823</line-width>
			<line-width type="light barline">0.4804</line-width>
			<line-width type="heavy barline">9.1176</line-width>
			<line-width type="leger">0.8823</line-width>
		</appearance>
	</defaults>
	<credit page="1">
		<credit-words  default-x="323.235" default-y="1765.686" justify="left" valign="baseline" font-family="Times New Roman" font-size="24" font-weight="bold" font-style="normal">St. Margaret</credit-words>
	</credit>
	<credit page="1">
		<credit-words  default-x="425.294" default-y="533.833" justify="left" valign="baseline" font-family="Times New Roman" font-size="8" font-weight="normal" font-style="normal">Public domain</credit-words>
	</credit>
	<credit page="1">
		<credit-words  default-x="626.176" default-y="1693.333" justify="left" valign="baseline" font-family="Times New Roman" font-size="12" font-weight="normal" font-style="normal">Albert L. Peace, 1884</credit-words>
	</credit>
	<part-list>
		<score-part id="P1">
			<part-name></part-name>
			<score-instrument id="P1-I1">
				<instrument-name>Instrument 1</instrument-name>
			</score-instrument>
			<midi-instrument id="P1-I1">
				<midi-channel>1</midi-channel>
				<midi-bank>1</midi-bank>
				<midi-program>53</midi-program>
				<volume>50</volume>
				<pan>0</pan>
				<elevation>0</elevation>
				<?Myriad
				<iddigit>5201</iddigit>
				?>
			</midi-instrument>
		</score-part>
		<score-part id="P2">
			<part-name></part-name>
			<score-instrument id="P2-I1">
				<instrument-name>Instrument 2</instrument-name>
			</score-instrument>
			<midi-instrument id="P2-I1">
				<midi-channel>2</midi-channel>
				<midi-bank>1</midi-bank>
				<midi-program>25</midi-program>
				<volume>50</volume>
				<pan>0</pan>
				<elevation>0</elevation>
				<?Myriad
				<iddigit>2400</iddigit>
				?>
			</midi-instrument>
		</score-part>
	</part-list>
	<part id="P1">
		<!--==========================[1,1]=============================-->
		<measure number="1" width="157">
			<print new-page="yes">
				<system-layout>
					<system-margins>
						<left-margin>18.612</left-margin>
						<right-margin>547.794</right-margin>
					</system-margins>
					<top-system-distance>238.808</top-system-distance>
				</system-layout>
			</print>
			<attributes>
				<divisions>6720</divisions>
				<key>
					<fifths>-4</fifths>
					<mode>major</mode>
				</key>
				<clef number="1">
					<sign>G</sign>
					<line>2</line>
				</clef>
				<staff-details number="1" print-object="yes">
					<staff-lines>5</staff-lines>
					<staff-tuning line="1">
						<tuning-step>A</tuning-step>
						<tuning-octave>3</tuning-octave>
					</staff-tuning>
					<staff-tuning line="2">
						<tuning-step>D</tuning-step>
						<tuning-octave>4</tuning-octave>
					</staff-tuning>
					<staff-tuning line="3">
						<tuning-step>G</tuning-step>
						<tuning-octave>4</tuning-octave>
					</staff-tuning>
					<staff-tuning line="4">
						<tuning-step>B</tuning-step>
						<tuning-octave>4</tuning-octave>
					</staff-tuning>
					<staff-tuning line="5">
						<tuning-step>E</tuning-step>
						<tuning-octave>5</tuning-octave>
					</staff-tuning>
					<staff-size>100.00</staff-size>
				</staff-details>
				<transpose>
					<chromatic>-3</chromatic>
				</transpose>
			</attributes>
			<direction placement="above">
				<direction-type>
					<words font-family="Times New Roman" font-size="8" font-weight="bold" font-style="normal" relative-x="37.32" default-y="17.80">' </words>
				</direction-type>
				<direction-type>
					<metronome font-family="Times New Roman" font-size="8" font-weight="bold" font-style="normal" relative-x="79.93" default-y="17.80">
						<beat-unit>quarter</beat-unit>
						<per-minute>100</per-minute>
					</metronome>
				</direction-type>
				<sound tempo="100.00"/>
			</direction>
			<attributes>
				<time>
					<beats>4</beats>
					<beat-type>4</beat-type>
				</time>
			</attributes>
			<note>
				<pitch>
					<step>E</step>
					<octave>4</octave>
				</pitch>
				<duration>6720</duration>
				<voice>1</voice>
				<type>quarter</type>
				<stem default-y="-5.29">up</stem>
				<lyric number="1" justify="center" default-y="-135.45">
					<syllabic>begin</syllabic>
					<text font-family="Arial" font-size="10" font-weight="normal" font-style="normal">
.</text>
				</lyric>
			</note>
			<note>
				<chord/>
				<pitch>
					<step>C</step>
					<octave>4</octave>
				</pitch>
				<duration>6720</duration>
				<voice>1</voice>
				<type>quarter</type>
				<stem default-y="-5.29">up</stem>
			</note>
		</measure>
		<!--==========================[1,2]=============================-->
		<measure number="2" width="265">
			<direction placement="below">
				<direction-type>
					<words font-family="Arial" font-size="10" font-weight="normal" font-style="normal" relative-x="60.60" default-y="-75.45">) )</words>
				</direction-type>
			</direction>
			<note>
				<pitch>
					<step>E</step>
					<octave>4</octave>
				</pitch>
				<duration>10080</duration>
				<voice>1</voice>
				<type>quarter</type>
				<dot/>
				<stem default-y="-5.29">up</stem>
				<lyric number="2" justify="center" default-y="-125.45">
					<syllabic>end</syllabic>
					<text font-family="Arial" font-size="10" font-weight="normal" font-style="normal">..</text>
					<extend/>
				</lyric>
				<lyric number="3" justify="center" default-y="-135.45">
					<syllabic>begin</syllabic>
					<text font-family="Arial" font-size="10" font-weight="normal" font-style="normal">..</text>
				</lyric>
			</note>
			<backup>
				<duration>10080</duration>
			</backup>
			<note>
				<pitch>
					<step>E</step>
					<octave>4</octave>
				</pitch>
				<duration>10080</duration>
				<voice>2</voice>
				<type>quarter</type>
				<dot/>
				<stem default-y="-75.59">down</stem>
			</note>
			<backup>
				<duration>9660</duration>
			</backup>
			<direction placement="below">
				<direction-type>
					<words font-family="Arial" font-size="10" font-weight="normal" font-style="normal" relative-x="0.00" default-y="-40.45">. ..</words>
				</direction-type>
			</direction>
			<forward>
				<duration>7560</duration>
			</forward>
			<direction placement="below">
				<direction-type>
					<words font-family="Arial" font-size="10" font-weight="normal" font-style="normal" relative-x="0.00" default-y="-45.45">h .</words>
				</direction-type>
			</direction>
			<forward>
				<duration>1260</duration>
			</forward>
			<direction placement="below">
				<direction-type>
					<words font-family="Arial" font-size="10" font-weight="normal" font-style="normal" relative-x="0.00" default-y="-30.45">.</words>
				</direction-type>
			</direction>
			<forward>
				<duration>3780</duration>
			</forward>
			<direction placement="below">
				<direction-type>
					<words font-family="Arial" font-size="10" font-weight="normal" font-style="normal" relative-x="0.00" default-y="-45.45">.</words>
				</direction-type>
			</direction>
			<direction placement="below">
				<direction-type>
					<words font-family="Arial" font-size="10" font-weight="normal" font-style="normal" relative-x="0.00" default-y="-25.45">.</words>
				</direction-type>
			</direction>
			<backup>
				<duration>2940</duration>
			</backup>
			<note>
				<pitch>
					<step>E</step>
					<octave>4</octave>
				</pitch>
				<duration>6720</duration>
				<voice>1</voice>
				<type>quarter</type>
				<stem default-y="-5.29">up</stem>
				<lyric number="2" justify="center" default-y="-125.45">
					<syllabic>end</syllabic>
					<text font-family="Arial" font-size="10" font-weight="normal" font-style="normal">. . .</text>
					<extend/>
				</lyric>
				<lyric number="3" justify="center" default-y="-135.45">
					<syllabic>begin</syllabic>
					<text font-family="Arial" font-size="10" font-weight="normal" font-style="normal">. . . . .</text>
				</lyric>
			</note>
			<backup>
				<duration>6720</duration>
			</backup>
			<note>
				<pitch>
					<step>E</step>
					<octave>4</octave>
				</pitch>
				<duration>6720</duration>
				<voice>2</voice>
				<type>quarter</type>
				<stem default-y="-75.59">down</stem>
			</note>
			<attributes>
				<time>
					<beats>1</beats>
					<beat-type>1</beat-type>
					<beats>1</beats>
					<beat-type>1</beat-type>
				</time>
			</attributes>
		</measure>
		<!--==========================[1,3]=============================-->
		<measure number="5" width="121">
			<forward>
				<duration>8820</duration>
			</forward>
			<direction placement="below">
				<direction-type>
					<words font-family="Arial" font-size="10" font-weight="normal" font-style="normal" relative-x="0.00" default-y="-40.45">5.</words>
				</direction-type>
			</direction>
			<direction placement="below">
				<direction-type>
					<words font-family="Arial" font-size="4" font-weight="normal" font-style="normal" relative-x="0.00" default-y="-25.45">5</words>
				</direction-type>
			</direction>
			<direction placement="below">
				<direction-type>
					<words font-family="MSTT31c3c300" font-size="4" font-weight="normal" font-style="normal" relative-x="0.00" default-y="-25.45">5</words>
				</direction-type>
			</direction>
			<forward>
				<duration>5880</duration>
			</forward>
			<direction placement="below">
				<direction-type>
					<words font-family="Arial" font-size="10" font-weight="normal" font-style="normal" relative-x="0.00" default-y="-30.45">. .</words>
				</direction-type>
			</direction>
			<forward>
				<duration>5880</duration>
			</forward>
			<direction placement="below">
				<direction-type>
					<words font-family="Arial" font-size="10" font-weight="normal" font-style="normal" relative-x="0.00" default-y="-40.45">.</words>
				</direction-type>
			</direction>
		</measure>
		<!--==========================[1,4]=============================-->
		<measure number="6" width="250">
			<attributes>
				<staff-details number="1" print-object="yes">
				</staff-details>
				<measure-style>
					<multiple-rest>1</multiple-rest>
				</measure-style>
			</attributes>
			<forward>
				<duration>4200</duration>
			</forward>
			<direction placement="below">
				<direction-type>
					<words font-family="Arial" font-size="10" font-weight="normal" font-style="normal" relative-x="0.00" default-y="-40.45">.. .</words>
				</direction-type>
			</direction>
			<direction placement="below">
				<direction-type>
					<words font-family="Arial" font-size="10" font-weight="normal" font-style="normal" relative-x="0.00" default-y="-30.45">.. .</words>
				</direction-type>
			</direction>
			<forward>
				<duration>7560</duration>
			</forward>
			<direction placement="below">
				<direction-type>
					<words font-family="Arial" font-size="10" font-weight="normal" font-style="normal" relative-x="0.00" default-y="-40.45">.</words>
				</direction-type>
			</direction>
			<direction placement="below">
				<direction-type>
					<words font-family="Arial" font-size="10" font-weight="normal" font-style="normal" relative-x="0.00" default-y="-30.45">.</words>
				</direction-type>
			</direction>
			<forward>
				<duration>3780</duration>
			</forward>
			<direction placement="below">
				<direction-type>
					<words font-family="Arial" font-size="10" font-weight="normal" font-style="normal" relative-x="0.00" default-y="-40.45">.</words>
				</direction-type>
			</direction>
			<direction placement="below">
				<direction-type>
					<words font-family="Arial" font-size="10" font-weight="normal" font-style="normal" relative-x="0.00" default-y="-25.45">.</words>
				</direction-type>
			</direction>
			<forward>
				<duration>4200</duration>
			</forward>
			<direction placement="below">
				<direction-type>
					<words font-family="Arial" font-size="10" font-weight="normal" font-style="normal" relative-x="0.00" default-y="-30.45">.</words>
				</direction-type>
			</direction>
			<direction placement="below">
				<direction-type>
					<words font-family="Arial" font-size="10" font-weight="normal" font-style="normal" relative-x="0.00" default-y="-20.45">.</words>
				</direction-type>
			</direction>
			<forward>
				<duration>1260</duration>
			</forward>
			<direction placement="below">
				<direction-type>
					<words font-family="MSTT31c3c300" font-size="11" font-weight="normal" font-style="normal" relative-x="0.00" default-y="-5.45">1</words>
				</direction-type>
			</direction>
			<forward>
				<duration>2520</duration>
			</forward>
			<direction placement="below">
				<direction-type>
					<words font-family="Arial" font-size="10" font-weight="normal" font-style="normal" relative-x="0.00" default-y="-60.45">)</words>
				</direction-type>
			</direction>
			<direction placement="below">
				<direction-type>
					<words font-family="Arial" font-size="10" font-weight="normal" font-style="normal" relative-x="0.00" default-y="-25.45">.</words>
				</direction-type>
			</direction>
			<direction placement="below">
				<direction-type>
					<words font-family="Arial" font-size="10" font-weight="normal" font-style="normal" relative-x="0.00" default-y="-15.45">.</words>
				</direction-type>
			</direction>
			<note>
				<rest/>
				<duration>26880</duration>
				<voice>1</voice>
			</note>
		</measure>
		<!--==========================[1,5]=============================-->
		<measure number="7" width="175">
			<print new-system="yes">
				<system-layout>
					<system-margins>
						<left-margin>18.612</left-margin>
						<right-margin>547.794</right-margin>
					</system-margins>
					<system-distance>103.235</system-distance>
				</system-layout>
			</print>
			<barline location="left">
				<repeat direction="forward"/>
			</barline>
			<attributes>
				<key>
					<fifths>0</fifths>
					<mode>major</mode>
				</key>
				<clef number="1">
					<sign>TAB</sign>
					<line>5</line>
				</clef>
				<staff-details number="1" print-object="yes">
				</staff-details>
			</attributes>
			<forward>
				<duration>2520</duration>
			</forward>
			<direction placement="below">
				<direction-type>
					<words font-family="Arial" font-size="10" font-weight="normal" font-style="normal" relative-x="0.00" default-y="-20.45">b</words>
				</direction-type>
			</direction>
			<forward>
				<duration>420</duration>
			</forward>
			<direction placement="below">
				<direction-type>
					<words font-family="Arial" font-size="10" font-weight="normal" font-style="normal" relative-x="0.00" default-y="-5.45">b</words>
				</direction-type>
			</direction>
			<forward>
				<duration>840</duration>
			</forward>
			<direction placement="below">
				<direction-type>
					<words font-family="Arial" font-size="10" font-weight="normal" font-style="normal" relative-x="0.00" default-y="-25.45">b</words>
				</direction-type>
			</direction>
			<forward>
				<duration>420</duration>
			</forward>
			<direction placement="below">
				<direction-type>
					<words font-family="Arial" font-size="10" font-weight="normal" font-style="normal" relative-x="0.00" default-y="-10.45">b</words>
				</direction-type>
			</direction>
			<backup>
				<duration>4200</duration>
			</backup>
			<note>
				<pitch>
					<step>D</step>
					<alter>1</alter>
					<octave>4</octave>
				</pitch>
				<duration>6720</duration>
				<voice>1</voice>
				<type>quarter</type>
				<stem>none</stem>
				<notations>
					<technical>
						<fret>6</fret>
						<string>5</string>
					</technical>
				</notations>
			</note>
			<forward>
				<duration>4200</duration>
			</forward>
			<direction placement="below">
				<direction-type>
					<words font-family="Arial" font-size="10" font-weight="normal" font-style="normal" relative-x="0.00" default-y="-40.45">.</words>
				</direction-type>
			</direction>
			<direction placement="below">
				<direction-type>
					<words font-family="Arial" font-size="10" font-weight="normal" font-style="normal" relative-x="0.00" default-y="-10.45">.</words>
				</direction-type>
			</direction>
			<backup>
				<duration>4200</duration>
			</backup>
			<note>
				<pitch>
					<step>C</step>
					<octave>5</octave>
				</pitch>
				<duration>6720</duration>
				<voice>1</voice>
				<type>quarter</type>
				<stem>none</stem>
				<notations>
					<technical>
						<fret>5</fret>
						<string>3</string>
					</technical>
				</notations>
				<lyric number="2" justify="left" default-y="-130.45">
					<syllabic>middle</syllabic>
					<text font-family="Arial" font-size="10" font-weight="normal" font-style="normal">.</text>
				</lyric>
			</note>
			<note>
				<chord/>
				<pitch>
					<step>E</step>
					<octave>5</octave>
				</pitch>
				<duration>6720</duration>
				<voice>1</voice>
				<type>quarter</type>
				<stem>none</stem>
				<notations>
					<technical>
						<fret>5</fret>
						<string>2</string>
					</technical>
				</notations>
			</note>
			<note>
				<chord/>
				<pitch>
					<step>C</step>
					<octave>5</octave>
				</pitch>
				<duration>6720</duration>
				<voice>1</voice>
				<type>quarter</type>
				<stem>none</stem>
				<notations>
					<technical>
						<fret>5</fret>
						<string>3</string>
					</technical>
				</notations>
			</note>
			<note>
				<chord/>
				<pitch>
					<step>E</step>
					<octave>5</octave>
				</pitch>
				<duration>6720</duration>
				<voice>1</voice>
				<type>quarter</type>
				<stem>none</stem>
				<notations>
					<technical>
						<fret>5</fret>
						<string>2</string>
					</technical>
				</notations>
			</note>
		</measure>
		<!--==========================[1,6]=============================-->
		<measure number="8" width="255">
			<direction placement="below">
				<direction-type>
					<words font-family="Arial" font-size="10" font-weight="normal" font-style="normal" relative-x="30.60" default-y="-40.45">.. . h . . . .</words>
				</direction-type>
			</direction>
			<direction placement="below">
				<direction-type>
					<words font-family="Arial" font-size="10" font-weight="normal" font-style="normal" relative-x="30.60" default-y="-15.45">.. .</words>
				</direction-type>
			</direction>
			<forward>
				<duration>5040</duration>
			</forward>
			<direction placement="below">
				<direction-type>
					<words font-family="Arial" font-size="10" font-weight="normal" font-style="normal" relative-x="0.00" default-y="-15.45">.</words>
				</direction-type>
			</direction>
			<backup>
				<duration>5040</duration>
			</backup>
			<note>
				<pitch>
					<step>F</step>
					<octave>5</octave>
				</pitch>
				<duration>6720</duration>
				<voice>1</voice>
				<type>quarter</type>
				<stem>none</stem>
				<notations>
					<technical>
						<fret>1</fret>
						<string>1</string>
					</technical>
				</notations>
				<lyric number="1" justify="right" default-y="-125.45">
					<syllabic>end</syllabic>
					<text font-family="Arial" font-size="10" font-weight="normal" font-style="normal">.. .</text>
					<extend/>
				</lyric>
				<lyric number="2" justify="right" default-y="-135.45">
					<syllabic>begin</syllabic>
					<text font-family="Arial" font-size="10" font-weight="normal" font-style="normal">.. .</text>
				</lyric>
			</note>
			<forward>
				<duration>4200</duration>
			</forward>
			<direction placement="below">
				<direction-type>
					<words font-family="Arial" font-size="10" font-weight="normal" font-style="normal" relative-x="0.00" default-y="-20.45">.</words>
				</direction-type>
			</direction>
			<backup>
				<duration>4200</duration>
			</backup>
			<note>
				<pitch>
					<step>F</step>
					<octave>5</octave>
				</pitch>
				<duration>6720</duration>
				<voice>1</voice>
				<type>quarter</type>
				<stem>none</stem>
				<notations>
					<technical>
						<fret>1</fret>
						<string>1</string>
					</technical>
				</notations>
				<lyric number="1" justify="right" default-y="-125.45">
					<syllabic>end</syllabic>
					<text font-family="Arial" font-size="10" font-weight="normal" font-style="normal">.</text>
					<extend/>
				</lyric>
			</note>
			<forward>
				<duration>1260</duration>
			</forward>
			<direction placement="below">
				<direction-type>
					<words font-family="Arial" font-size="10" font-weight="normal" font-style="normal" relative-x="0.00" default-y="-25.45">.</words>
				</direction-type>
			</direction>
			<forward>
				<duration>2940</duration>
			</forward>
			<direction placement="below">
				<direction-type>
					<words font-family="Arial" font-size="10" font-weight="normal" font-style="normal" relative-x="0.00" default-y="-30.45">.</words>
				</direction-type>
			</direction>
			<backup>
				<duration>4200</duration>
			</backup>
			<note>
				<pitch>
					<step>C</step>
					<octave>5</octave>
				</pitch>
				<duration>6720</duration>
				<voice>1</voice>
				<type>quarter</type>
				<stem>none</stem>
				<notations>
					<technical>
						<fret>1</fret>
						<string>2</string>
					</technical>
				</notations>
				<lyric number="1" justify="right" default-y="-125.45">
					<syllabic>single</syllabic>
					<text font-family="Arial" font-size="10" font-weight="normal" font-style="normal">. . .</text>
					<extend/>
				</lyric>
			</note>
		</measure>
		<!--==========================[1,7]=============================-->
		<measure number="9" width="109">
			<forward>
				<duration>5040</duration>
			</forward>
			<direction placement="below">
				<direction-type>
					<words font-family="Arial" font-size="10" font-weight="normal" font-style="normal" relative-x="0.00" default-y="-50.45">.</words>
				</direction-type>
			</direction>
			<direction placement="below">
				<direction-type>
					<words font-family="Arial" font-size="10" font-weight="normal" font-style="normal" relative-x="0.00" default-y="-25.45">.</words>
				</direction-type>
			</direction>
			<backup>
				<duration>5040</duration>
			</backup>
			<note>
				<pitch>
					<step>D</step>
					<octave>4</octave>
				</pitch>
				<duration>6720</duration>
				<voice>1</voice>
				<type>quarter</type>
				<stem>none</stem>
				<notations>
					<technical>
						<fret>5</fret>
						<string>5</string>
					</technical>
				</notations>
				<lyric number="1" justify="center" default-y="-125.45">
					<syllabic>single</syllabic>
					<text font-family="Arial" font-size="10" font-weight="normal" font-style="normal">
5.</text>
				</lyric>
				<lyric number="2" justify="left" default-y="-135.45">
					<syllabic>single</syllabic>
					<text font-family="Arial" font-size="10" font-weight="normal" font-style="normal">.</text>
				</lyric>
			</note>
			<note>
				<chord/>
				<pitch>
					<step>C</step>
					<octave>5</octave>
				</pitch>
				<duration>6720</duration>
				<voice>1</voice>
				<type>quarter</type>
				<stem>none</stem>
				<notations>
					<technical>
						<fret>5</fret>
						<string>3</string>
					</technical>
				</notations>
			</note>
			<note>
				<chord/>
				<pitch>
					<step>D</step>
					<octave>4</octave>
				</pitch>
				<duration>6720</duration>
				<voice>1</voice>
				<type>quarter</type>
				<stem>none</stem>
				<notations>
					<technical>
						<fret>5</fret>
						<string>5</string>
					</technical>
				</notations>
			</note>
			<note>
				<chord/>
				<pitch>
					<step>C</step>
					<octave>5</octave>
				</pitch>
				<duration>6720</duration>
				<voice>1</voice>
				<type>quarter</type>
				<stem>none</stem>
				<notations>
					<technical>
						<fret>5</fret>
						<string>3</string>
					</technical>
				</notations>
			</note>
			<barline location="right">
				<repeat direction="backward" times="2"/>
			</barline>
		</measure>
		<!--==========================[1,8]=============================-->
		<measure number="10" width="254">
			<forward>
				<duration>3780</duration>
			</forward>
			<direction placement="below">
				<direction-type>
					<words font-family="Arial" font-size="10" font-weight="normal" font-style="normal" relative-x="0.00" default-y="-45.45">h .. . . . . .</words>
				</direction-type>
			</direction>
			<forward>
				<duration>1260</duration>
			</forward>
			<direction placement="below">
				<direction-type>
					<words font-family="Arial" font-size="10" font-weight="normal" font-style="normal" relative-x="0.00" default-y="-25.45">.. . . .</words>
				</direction-type>
			</direction>
			<forward>
				<duration>14280</duration>
			</forward>
			<direction placement="below">
				<direction-type>
					<words font-family="Arial" font-size="10" font-weight="normal" font-style="normal" relative-x="0.00" default-y="-30.45">.</words>
				</direction-type>
			</direction>
			<forward>
				<duration>3780</duration>
			</forward>
			<direction placement="below">
				<direction-type>
					<words font-family="Arial" font-size="10" font-weight="normal" font-style="normal" relative-x="0.00" default-y="-35.45">.</words>
				</direction-type>
			</direction>
		</measure>
		<!--==========================[1,9]=============================-->
		<measure number="11" width="227">
			<print new-system="yes">
				<system-layout>
					<system-margins>
						<left-margin>18.612</left-margin>
						<right-margin>936.274</right-margin>
					</system-margins>
					<system-distance>103.235</system-distance>
				</system-layout>
			</print>
			<attributes>
				<staff-details number="1" print-object="yes">
				</staff-details>
			</attributes>
			<forward>
				<duration>1260</duration>
			</forward>
			<direction placement="below">
				<direction-type>
					<words font-family="Arial" font-size="10" font-weight="normal" font-style="normal" relative-x="0.00" default-y="-20.45">b</words>
				</direction-type>
			</direction>
			<direction placement="below">
				<direction-type>
					<words font-family="Arial" font-size="10" font-weight="normal" font-style="normal" relative-x="0.00" default-y="-5.45">b</words>
				</direction-type>
			</direction>
			<forward>
				<duration>420</duration>
			</forward>
			<direction placement="below">
				<direction-type>
					<words font-family="Arial" font-size="10" font-weight="normal" font-style="normal" relative-x="0.00" default-y="-25.45">b</words>
				</direction-type>
			</direction>
			<direction placement="below">
				<direction-type>
					<words font-family="Arial" font-size="10" font-weight="normal" font-style="normal" relative-x="0.00" default-y="-10.45">b</words>
				</direction-type>
			</direction>
			<forward>
				<duration>1260</duration>
			</forward>
			<direction placement="below">
				<direction-type>
					<words font-family="Arial" font-size="10" font-weight="normal" font-style="normal" relative-x="0.00" default-y="-50.45">..</words>
				</direction-type>
			</direction>
			<direction placement="below">
				<direction-type>
					<words font-family="Arial" font-size="10" font-weight="normal" font-style="normal" relative-x="0.00" default-y="-40.45">.. .. . .</words>
				</direction-type>
			</direction>
			<forward>
				<duration>2100</duration>
			</forward>
			<direction placement="below">
				<direction-type>
					<words font-family="Arial" font-size="10" font-weight="normal" font-style="normal" relative-x="0.00" default-y="-30.45">.</words>
				</direction-type>
			</direction>
			<forward>
				<duration>840</duration>
			</forward>
			<direction placement="below">
				<direction-type>
					<words font-family="Arial" font-size="10" font-weight="normal" font-style="normal" relative-x="0.00" default-y="-25.45">.</words>
				</direction-type>
			</direction>
			<backup>
				<duration>5880</duration>
			</backup>
			<note>
				<pitch>
					<step>D</step>
					<alter>1</alter>
					<octave>4</octave>
				</pitch>
				<duration>6720</duration>
				<voice>1</voice>
				<type>quarter</type>
				<stem>none</stem>
				<notations>
					<technical>
						<fret>6</fret>
						<string>5</string>
					</technical>
				</notations>
			</note>
		</measure>
		<!--==========================[1,10]=============================-->
		<measure number="12" width="109">
			<forward>
				<duration>3360</duration>
			</forward>
			<direction placement="below">
				<direction-type>
					<words font-family="Arial" font-size="10" font-weight="normal" font-style="normal" relative-x="0.00" default-y="-30.45">. .</words>
				</direction-type>
			</direction>
			<forward>
				<duration>1680</duration>
			</forward>
			<direction placement="below">
				<direction-type>
					<words font-family="Arial" font-size="10" font-weight="normal" font-style="normal" relative-x="0.00" default-y="-20.45">.</words>
				</direction-type>
			</direction>
			<backup>
				<duration>5040</duration>
			</backup>
			<note>
				<pitch>
					<step>G</step>
					<octave>4</octave>
				</pitch>
				<duration>6720</duration>
				<voice>1</voice>
				<type>quarter</type>
				<stem>none</stem>
				<notations>
					<technical>
						<fret>5</fret>
						<string>4</string>
					</technical>
				</notations>
				<lyric number="1" justify="right" default-y="-125.45">
					<syllabic>single</syllabic>
					<text font-family="Arial" font-size="10" font-weight="normal" font-style="normal">. .</text>
					<extend/>
				</lyric>
			</note>
			<note>
				<chord/>
				<pitch>
					<step>C</step>
					<octave>5</octave>
				</pitch>
				<duration>6720</duration>
				<voice>1</voice>
				<type>quarter</type>
				<stem>none</stem>
				<notations>
					<technical>
						<fret>5</fret>
						<string>3</string>
					</technical>
				</notations>
			</note>
			<note>
				<chord/>
				<pitch>
					<step>G</step>
					<octave>4</octave>
				</pitch>
				<duration>6720</duration>
				<voice>1</voice>
				<type>quarter</type>
				<stem>none</stem>
				<notations>
					<technical>
						<fret>5</fret>
						<string>4</string>
					</technical>
				</notations>
			</note>
			<note>
				<chord/>
				<pitch>
					<step>C</step>
					<octave>5</octave>
				</pitch>
				<duration>6720</duration>
				<voice>1</voice>
				<type>quarter</type>
				<stem>none</stem>
				<notations>
					<technical>
						<fret>5</fret>
						<string>3</string>
					</technical>
				</notations>
			</note>
		</measure>
		<!--==========================[1,11]=============================-->
		<measure number="13" width="68">
			<note>
				<pitch>
					<step>D</step>
					<octave>4</octave>
				</pitch>
				<duration>6720</duration>
				<voice>1</voice>
				<type>quarter</type>
				<stem>none</stem>
				<notations>
					<technical>
						<fret>5</fret>
						<string>5</string>
					</technical>
				</notations>
				<lyric number="1" justify="center" default-y="-125.45">
					<syllabic>single</syllabic>
					<text font-family="Arial" font-size="10" font-weight="normal" font-style="normal">
5.</text>
				</lyric>
			</note>
			<note>
				<chord/>
				<pitch>
					<step>G</step>
					<octave>4</octave>
				</pitch>
				<duration>6720</duration>
				<voice>1</voice>
				<type>quarter</type>
				<stem>none</stem>
				<notations>
					<technical>
						<fret>5</fret>
						<string>4</string>
					</technical>
				</notations>
			</note>
			<note>
				<chord/>
				<pitch>
					<step>D</step>
					<octave>4</octave>
				</pitch>
				<duration>6720</duration>
				<voice>1</voice>
				<type>quarter</type>
				<stem>none</stem>
				<notations>
					<technical>
						<fret>5</fret>
						<string>5</string>
					</technical>
				</notations>
			</note>
			<note>
				<chord/>
				<pitch>
					<step>G</step>
					<octave>4</octave>
				</pitch>
				<duration>6720</duration>
				<voice>1</voice>
				<type>quarter</type>
				<stem>none</stem>
				<notations>
					<technical>
						<fret>5</fret>
						<string>4</string>
					</technical>
				</notations>
			</note>
			<barline location="right">
				<bar-style>light-heavy</bar-style>
			</barline>
		</measure>
	</part>
	<part id="P2">
		<!--==========================[2,1]=============================-->
		<measure number="1" width="157">
			<print new-page="yes">
				<staff-layout number="1">
					<staff-distance>95.000</staff-distance>
				</staff-layout>
			</print>
			<attributes>
				<divisions>6720</divisions>
				<clef number="1">
					<sign>TAB</sign>
					<line>5</line>
				</clef>
				<staff-details number="1" print-object="yes">
					<staff-lines>5</staff-lines>
					<staff-tuning line="1">
						<tuning-step>A</tuning-step>
						<tuning-octave>3</tuning-octave>
					</staff-tuning>
					<staff-tuning line="2">
						<tuning-step>D</tuning-step>
						<tuning-octave>4</tuning-octave>
					</staff-tuning>
					<staff-tuning line="3">
						<tuning-step>G</tuning-step>
						<tuning-octave>4</tuning-octave>
					</staff-tuning>
					<staff-tuning line="4">
						<tuning-step>B</tuning-step>
						<tuning-octave>4</tuning-octave>
					</staff-tuning>
					<staff-tuning line="5">
						<tuning-step>E</tuning-step>
						<tuning-octave>5</tuning-octave>
					</staff-tuning>
					<staff-size>100.00</staff-size>
				</staff-details>
				<transpose>
					<chromatic>5</chromatic>
					<octave-change>-1</octave-change>
				</transpose>
			</attributes>
			<direction placement="below">
				<direction-type>
					<words font-family="Arial" font-size="10" font-weight="normal" font-style="normal" relative-x="37.32" default-y="-30.45">b</words>
				</direction-type>
			</direction>
			<direction placement="below">
				<direction-type>
					<words font-family="Arial" font-size="10" font-weight="normal" font-style="normal" relative-x="43.80" default-y="-15.45">b</words>
				</direction-type>
			</direction>
			<direction placement="below">
				<direction-type>
					<words font-family="Arial" font-size="10" font-weight="normal" font-style="normal" relative-x="50.28" default-y="-35.45">b</words>
				</direction-type>
			</direction>
			<direction placement="below">
				<direction-type>
					<words font-family="Arial" font-size="10" font-weight="normal" font-style="normal" relative-x="56.76" default-y="-20.45">b</words>
				</direction-type>
			</direction>
			<attributes>
				<time>
					<beats>4</beats>
					<beat-type>4</beat-type>
				</time>
			</attributes>
			<forward>
				<duration>13440</duration>
			</forward>
			<direction placement="below">
				<direction-type>
					<words font-family="Arial" font-size="10" font-weight="normal" font-style="normal" relative-x="0.00" default-y="-35.45">.</words>
				</direction-type>
			</direction>
		</measure>
		<!--==========================[2,2]=============================-->
		<measure number="2" width="265">
			<forward>
				<duration>3360</duration>
			</forward>
			<direction placement="above">
				<direction-type>
					<words font-family="MSTT31c3c300" font-size="10" font-weight="normal" font-style="normal" relative-x="0.00" default-y="10.00"></words>
				</direction-type>
			</direction>
			<forward>
				<duration>3780</duration>
			</forward>
			<direction placement="below">
				<direction-type>
					<words font-family="Arial" font-size="10" font-weight="normal" font-style="normal" relative-x="0.00" default-y="-35.45">) ) )</words>
				</direction-type>
			</direction>
			<forward>
				<duration>12180</duration>
			</forward>
			<direction placement="below">
				<direction-type>
					<words font-family="Arial" font-size="10" font-weight="normal" font-style="normal" relative-x="0.00" default-y="-45.45">)</words>
				</direction-type>
			</direction>
			<direction placement="below">
				<direction-type>
					<words font-family="Arial" font-size="10" font-weight="normal" font-style="normal" relative-x="0.00" default-y="-10.45">.</words>
				</direction-type>
			</direction>
			<forward>
				<duration>3780</duration>
			</forward>
			<direction placement="below">
				<direction-type>
					<words font-family="Arial" font-size="10" font-weight="normal" font-style="normal" relative-x="0.00" default-y="-10.45">.</words>
				</direction-type>
			</direction>
		</measure>
		<!--==========================[2,3]=============================-->
		<measure number="5" width="121">
			<forward>
				<duration>3360</duration>
			</forward>
			<direction placement="above">
				<direction-type>
					<words font-family="Arial" font-size="10" font-weight="normal" font-style="normal" relative-x="0.00" default-y="4.55">. .</words>
				</direction-type>
			</direction>
			<forward>
				<duration>1680</duration>
			</forward>
			<direction placement="below">
				<direction-type>
					<words font-family="Arial" font-size="10" font-weight="normal" font-style="normal" relative-x="0.00" default-y="-15.45">.</words>
				</direction-type>
			</direction>
			<backup>
				<duration>5040</duration>
			</backup>
			<note>
				<pitch>
					<step>C</step>
					<octave>5</octave>
				</pitch>
				<duration>6720</duration>
				<voice>1</voice>
				<type>quarter</type>
				<stem>none</stem>
				<notations>
					<technical>
						<fret>5</fret>
						<string>3</string>
						<fingering placement="above" relative-x="0.00" relative-y="-15.42">5</fingering>
					</technical>
				</notations>
			</note>
		</measure>
		<!--==========================[2,4]=============================-->
		<measure number="6" width="250">
			<attributes>
				<staff-details number="1" print-object="yes">
				</staff-details>
				<measure-style>
					<multiple-rest>1</multiple-rest>
				</measure-style>
			</attributes>
			<forward>
				<duration>4200</duration>
			</forward>
			<direction placement="above">
				<direction-type>
					<words font-family="Arial" font-size="10" font-weight="normal" font-style="normal" relative-x="0.00" default-y="14.55">.. .</words>
				</direction-type>
			</direction>
			<forward>
				<duration>3360</duration>
			</forward>
			<direction placement="below">
				<direction-type>
					<words font-family="Arial" font-size="10" font-weight="normal" font-style="normal" relative-x="0.00" default-y="-20.45">)</words>
				</direction-type>
			</direction>
			<forward>
				<duration>4200</duration>
			</forward>
			<direction placement="below">
				<direction-type>
					<words font-family="Arial" font-size="10" font-weight="normal" font-style="normal" relative-x="0.00" default-y="-20.45">)</words>
				</direction-type>
			</direction>
			<direction placement="above">
				<direction-type>
					<words font-family="Arial" font-size="10" font-weight="normal" font-style="normal" relative-x="0.00" default-y="14.55">.</words>
				</direction-type>
			</direction>
			<forward>
				<duration>3780</duration>
			</forward>
			<direction placement="below">
				<direction-type>
					<words font-family="Arial" font-size="10" font-weight="normal" font-style="normal" relative-x="0.00" default-y="-25.45">)</words>
				</direction-type>
			</direction>
			<direction placement="above">
				<direction-type>
					<words font-family="Arial" font-size="10" font-weight="normal" font-style="normal" relative-x="0.00" default-y="9.55">.</words>
				</direction-type>
			</direction>
			<direction placement="above">
				<direction-type>
					<words font-family="Arial" font-size="10" font-weight="normal" font-style="normal" relative-x="0.00" default-y="19.55">.</words>
				</direction-type>
			</direction>
			<forward>
				<duration>4200</duration>
			</forward>
			<direction placement="below">
				<direction-type>
					<words font-family="Arial" font-size="10" font-weight="normal" font-style="normal" relative-x="0.00" default-y="-30.45">)</words>
				</direction-type>
			</direction>
			<direction placement="above">
				<direction-type>
					<words font-family="Arial" font-size="10" font-weight="normal" font-style="normal" relative-x="0.00" default-y="4.55">.</words>
				</direction-type>
			</direction>
			<direction placement="above">
				<direction-type>
					<words font-family="Arial" font-size="10" font-weight="normal" font-style="normal" relative-x="0.00" default-y="19.55">.</words>
				</direction-type>
			</direction>
			<forward>
				<duration>3780</duration>
			</forward>
			<direction placement="below">
				<direction-type>
					<words font-family="Arial" font-size="10" font-weight="normal" font-style="normal" relative-x="0.00" default-y="-35.45">)</words>
				</direction-type>
			</direction>
			<direction placement="below">
				<direction-type>
					<words font-family="Arial" font-size="10" font-weight="normal" font-style="normal" relative-x="0.00" default-y="-0.45">.</words>
				</direction-type>
			</direction>
			<direction placement="above">
				<direction-type>
					<words font-family="Arial" font-size="10" font-weight="normal" font-style="normal" relative-x="0.00" default-y="19.55">.</words>
				</direction-type>
			</direction>
			<note>
				<rest/>
				<duration>26880</duration>
				<voice>1</voice>
			</note>
		</measure>
		<!--==========================[2,5]=============================-->
		<measure number="7" width="174">
			<print new-system="yes">
				<staff-layout number="1">
					<staff-distance>95.000</staff-distance>
				</staff-layout>
			</print>
			<barline location="left">
				<repeat direction="forward"/>
			</barline>
			<attributes>
				<staff-details number="1" print-object="yes">
				</staff-details>
			</attributes>
			<forward>
				<duration>1680</duration>
			</forward>
			<direction placement="below">
				<direction-type>
					<words font-family="Arial" font-size="10" font-weight="normal" font-style="normal" relative-x="0.00" default-y="-30.45">b</words>
				</direction-type>
			</direction>
			<direction placement="below">
				<direction-type>
					<words font-family="Arial" font-size="10" font-weight="normal" font-style="normal" relative-x="0.00" default-y="-15.45">b</words>
				</direction-type>
			</direction>
			<forward>
				<duration>420</duration>
			</forward>
			<direction placement="below">
				<direction-type>
					<words font-family="Arial" font-size="10" font-weight="normal" font-style="normal" relative-x="0.00" default-y="-35.45">b</words>
				</direction-type>
			</direction>
			<forward>
				<duration>420</duration>
			</forward>
			<direction placement="below">
				<direction-type>
					<words font-family="Arial" font-size="10" font-weight="normal" font-style="normal" relative-x="0.00" default-y="-20.45">b</words>
				</direction-type>
			</direction>
			<forward>
				<duration>1260</duration>
			</forward>
			<direction placement="above">
				<direction-type>
					<words font-family="MSTT31c3c300" font-size="10" font-weight="normal" font-style="normal" relative-x="0.00" default-y="10.00"></words>
				</direction-type>
			</direction>
			<direction placement="above">
				<direction-type>
					<words font-family="MSTT31c3c300" font-size="10" font-weight="normal" font-style="normal" relative-x="0.00" default-y="10.00"></words>
				</direction-type>
			</direction>
			<direction placement="above">
				<direction-type>
					<words font-family="MSTT31c3c300" font-size="10" font-weight="normal" font-style="normal" relative-x="0.00" default-y="20.00"></words>
				</direction-type>
			</direction>
			<direction placement="above">
				<direction-type>
					<words font-family="MSTT31c3c300" font-size="10" font-weight="normal" font-style="normal" relative-x="0.00" default-y="20.00"></words>
				</direction-type>
			</direction>
			<forward>
				<duration>420</duration>
			</forward>
			<direction placement="above">
				<direction-type>
					<words font-family="Arial" font-size="10" font-weight="normal" font-style="normal" relative-x="0.00" default-y="21.90">.</words>
				</direction-type>
			</direction>
			<forward>
				<duration>1260</duration>
			</forward>
			<direction placement="below">
				<direction-type>
					<words font-family="Arial" font-size="10" font-weight="normal" font-style="normal" relative-x="0.00" default-y="-5.45">.</words>
				</direction-type>
			</direction>
			<backup>
				<duration>5460</duration>
			</backup>
			<note>
				<pitch>
					<step>E</step>
					<octave>5</octave>
				</pitch>
				<duration>6720</duration>
				<voice>1</voice>
				<type>quarter</type>
				<stem>none</stem>
				<notations>
					<technical>
						<fret>5</fret>
						<string>2</string>
						<fingering placement="above" relative-x="0.00" relative-y="9.58">5</fingering>
					</technical>
				</notations>
			</note>
		</measure>
		<!--==========================[2,6]=============================-->
		<measure number="8" width="255">
			<forward>
				<duration>7140</duration>
			</forward>
			<direction placement="below">
				<direction-type>
					<words font-family="Arial" font-size="10" font-weight="normal" font-style="normal" relative-x="0.00" default-y="-35.45">)</words>
				</direction-type>
			</direction>
			<forward>
				<duration>5040</duration>
			</forward>
			<direction placement="below">
				<direction-type>
					<words font-family="Arial" font-size="10" font-weight="normal" font-style="normal" relative-x="0.00" default-y="-40.45">) )</words>
				</direction-type>
			</direction>
			<direction placement="below">
				<direction-type>
					<words font-family="Arial" font-size="10" font-weight="normal" font-style="normal" relative-x="0.00" default-y="-5.45">. .</words>
				</direction-type>
			</direction>
			<forward>
				<duration>7140</duration>
			</forward>
			<direction placement="below">
				<direction-type>
					<words font-family="Arial" font-size="10" font-weight="normal" font-style="normal" relative-x="0.00" default-y="-60.45">) )</words>
				</direction-type>
			</direction>
			<direction placement="below">
				<direction-type>
					<words font-family="Arial" font-size="10" font-weight="normal" font-style="normal" relative-x="0.00" default-y="-25.45">. .</words>
				</direction-type>
			</direction>
		</measure>
		<!--==========================[2,7]=============================-->
		<measure number="9" width="109">
			<forward>
				<duration>5040</duration>
			</forward>
			<direction placement="below">
				<direction-type>
					<words font-family="Arial" font-size="10" font-weight="normal" font-style="normal" relative-x="0.00" default-y="-10.45">.</words>
				</direction-type>
			</direction>
			<backup>
				<duration>5040</duration>
			</backup>
			<note>
				<pitch>
					<step>E</step>
					<octave>5</octave>
				</pitch>
				<duration>6720</duration>
				<voice>1</voice>
				<type>quarter</type>
				<stem>none</stem>
				<notations>
					<technical>
						<fret>5</fret>
						<string>2</string>
						<fingering placement="above" relative-x="0.00" relative-y="-10.42">5</fingering>
					</technical>
				</notations>
			</note>
			<barline location="right">
				<repeat direction="backward" times="2"/>
			</barline>
		</measure>
		<!--==========================[2,8]=============================-->
		<measure number="10" width="254">
			<forward>
				<duration>5040</duration>
			</forward>
			<direction placement="below">
				<direction-type>
					<words font-family="Arial" font-size="10" font-weight="normal" font-style="normal" relative-x="0.00" default-y="-30.45">.. . . . . .</words>
				</direction-type>
			</direction>
			<direction placement="below">
				<direction-type>
					<words font-family="Arial" font-size="10" font-weight="normal" font-style="normal" relative-x="0.00" default-y="-10.45">.. . . .</words>
				</direction-type>
			</direction>
			<forward>
				<duration>3360</duration>
			</forward>
			<direction placement="below">
				<direction-type>
					<words font-family="Arial" font-size="10" font-weight="normal" font-style="normal" relative-x="0.00" default-y="-65.45">) ) ) ) )</words>
				</direction-type>
			</direction>
			<forward>
				<duration>10920</duration>
			</forward>
			<direction placement="below">
				<direction-type>
					<words font-family="Arial" font-size="10" font-weight="normal" font-style="normal" relative-x="0.00" default-y="-5.45">.</words>
				</direction-type>
			</direction>
			<forward>
				<duration>3780</duration>
			</forward>
			<direction placement="below">
				<direction-type>
					<words font-family="Arial" font-size="10" font-weight="normal" font-style="normal" relative-x="0.00" default-y="-0.45">.</words>
				</direction-type>
			</direction>
		</measure>
		<!--==========================[2,9]=============================-->
		<measure number="11" width="227">
			<print new-system="yes">
				<staff-layout number="1">
					<staff-distance>95.000</staff-distance>
				</staff-layout>
			</print>
			<attributes>
				<staff-details number="1" print-object="yes">
				</staff-details>
			</attributes>
			<forward>
				<duration>5040</duration>
			</forward>
			<direction placement="below">
				<direction-type>
					<words font-family="Arial" font-size="10" font-weight="normal" font-style="normal" relative-x="0.00" default-y="-30.45">b</words>
				</direction-type>
			</direction>
			<forward>
				<duration>1260</duration>
			</forward>
			<direction placement="below">
				<direction-type>
					<words font-family="Arial" font-size="10" font-weight="normal" font-style="normal" relative-x="0.00" default-y="-15.45">b</words>
				</direction-type>
			</direction>
			<forward>
				<duration>840</duration>
			</forward>
			<direction placement="below">
				<direction-type>
					<words font-family="Arial" font-size="10" font-weight="normal" font-style="normal" relative-x="0.00" default-y="-35.45">b</words>
				</direction-type>
			</direction>
			<forward>
				<duration>840</duration>
			</forward>
			<direction placement="below">
				<direction-type>
					<words font-family="Arial" font-size="10" font-weight="normal" font-style="normal" relative-x="0.00" default-y="-20.45">b</words>
				</direction-type>
			</direction>
			<forward>
				<duration>3780</duration>
			</forward>
			<direction placement="below">
				<direction-type>
					<words font-family="Arial" font-size="10" font-weight="normal" font-style="normal" relative-x="0.00" default-y="-15.45">.. .</words>
				</direction-type>
			</direction>
			<direction placement="below">
				<direction-type>
					<words font-family="Arial" font-size="10" font-weight="normal" font-style="normal" relative-x="0.00" default-y="-0.45">.. .</words>
				</direction-type>
			</direction>
			<forward>
				<duration>3780</duration>
			</forward>
			<direction placement="below">
				<direction-type>
					<words font-family="Arial" font-size="10" font-weight="normal" font-style="normal" relative-x="0.00" default-y="-50.45">)</words>
				</direction-type>
			</direction>
			<forward>
				<duration>5460</duration>
			</forward>
			<direction placement="below">
				<direction-type>
					<words font-family="Arial" font-size="10" font-weight="normal" font-style="normal" relative-x="0.00" default-y="-15.45">. .</words>
				</direction-type>
			</direction>
		</measure>
		<!--==========================[2,10]=============================-->
		<measure number="12" width="109">
			<note>
				<pitch>
					<step>C</step>
					<octave>5</octave>
				</pitch>
				<duration>6720</duration>
				<voice>1</voice>
				<type>quarter</type>
				<stem>none</stem>
				<notations>
					<technical>
						<fret>5</fret>
						<string>3</string>
						<fingering placement="above" relative-x="0.00" relative-y="9.58">5</fingering>
					</technical>
				</notations>
			</note>
			<note>
				<chord/>
				<pitch>
					<step>C</step>
					<octave>5</octave>
				</pitch>
				<duration>6720</duration>
				<voice>1</voice>
				<type>quarter</type>
				<stem>none</stem>
				<notations>
					<technical>
						<fret>5</fret>
						<string>3</string>
						<fingering placement="above" relative-x="0.00" relative-y="9.58">5</fingering>
					</technical>
				</notations>
			</note>
		</measure>
		<!--==========================[2,11]=============================-->
		<measure number="13" width="68">
			<note>
				<pitch>
					<step>D</step>
					<octave>4</octave>
				</pitch>
				<duration>6720</duration>
				<voice>1</voice>
				<type>quarter</type>
				<stem>none</stem>
				<notations>
					<technical>
						<fret>5</fret>
						<string>5</string>
						<fingering placement="above" relative-x="0.00" relative-y="-35.42">5</fingering>
					</technical>
				</notations>
			</note>
		</measure>
	</part>
</score-partwise>
