<?xml version="1.0" encoding='UTF-8' standalone='no' ?>
<!DOCTYPE score-partwise PUBLIC "-//Recordare//DTD MusicXML 3.0 Partwise//EN" "http://www.musicxml.org/dtds/partwise.dtd">
<score-partwise version="3.0">
 <work>
  <work-title>O Love That Will Not Let Me Go</work-title>
 </work>
 <identification>
  <rights>This hymn is in the public domain.  You may freely use this score for personal and congregational worship.  If you reproduce the score, please credit Hymnary.org as the source. </rights>
  <encoding>
   <encoding-date>2013-05-07</encoding-date>
   <encoder>Brian</encoder>
   <software>Sibelius 7.1.3</software>
   <software>Direct export, not from Dolet</software>
   <encoding-description>Sibelius / MusicXML 3.0</encoding-description>
   <supports element="print" type="yes" value="yes" attribute="new-system" />
   <supports element="print" type="yes" value="yes" attribute="new-page" />
   <supports element="accidental" type="yes" />
   <supports element="beam" type="yes" />
   <supports element="stem" type="yes" />
  </encoding>
 </identification>
 <defaults>
  <scaling>
   <millimeters>215.9</millimeters>
   <tenths>1384</tenths>
  </scaling>
  <page-layout>
   <page-height>1791</page-height>
   <page-width>1384</page-width>
   <page-margins type="both">
    <left-margin>162</left-margin>
    <right-margin>162</right-margin>
    <top-margin>81</top-margin>
    <bottom-margin>81</bottom-margin>
   </page-margins>
  </page-layout>
  <system-layout>
   <system-distance>40</system-distance>
  </system-layout>
  <appearance>
   <line-width type="stem">0.9375</line-width>
   <line-width type="beam">5</line-width>
   <line-width type="staff">0.9375</line-width>
   <line-width type="light barline">1.5625</line-width>
   <line-width type="heavy barline">5</line-width>
   <line-width type="leger">1.5625</line-width>
   <line-width type="ending">1.5625</line-width>
   <line-width type="wedge">1.25</line-width>
   <line-width type="enclosure">0.9375</line-width>
   <line-width type="tuplet bracket">1.25</line-width>
   <line-width type="bracket">5</line-width>
   <line-width type="dashes">1.5625</line-width>
   <line-width type="extend">0.9375</line-width>
   <line-width type="octave shift">1.5625</line-width>
   <line-width type="pedal">1.5625</line-width>
   <line-width type="slur middle">1.5625</line-width>
   <line-width type="slur tip">0.625</line-width>
   <line-width type="tie middle">1.5625</line-width>
   <line-width type="tie tip">0.625</line-width>
   <note-size type="cue">75</note-size>
   <note-size type="grace">60</note-size>
  </appearance>
  <music-font font-family="Opus Std" font-size="17.6825" />
  <lyric-font font-family="Times New Roman" font-size="9.9464" />
  <lyric-language xml:lang="en" />
 </defaults>
 <credit page="1">
  <credit-words default-x="692" default-y="90" font-family="Times New Roman" font-style="normal" font-size="20.031" font-weight="normal" justify="center" valign="middle">O Love That Will Not Let Me Go</credit-words>
 </credit>
 <credit page="1">
  <credit-words default-x="692" default-y="81" font-family="Times New Roman" font-style="normal" font-size="4.9732" font-weight="normal" justify="center" valign="middle">This hymn is in the public domain.  You may freely use this score for personal and congregational worship.  If you reproduce the score, please credit Hymnary.org as the source. </credit-words>
 </credit>
 <credit page="1">
  <credit-words default-x="162" default-y="143" font-family="Times New Roman" font-style="normal" font-size="10.0846" font-weight="normal" justify="left" valign="middle">Text: George Matheson (1842-1906)
Tune: Albert L. Peace (1844-1912)</credit-words>
 </credit>
 <credit page="1">
  <credit-words default-x="1221" default-y="169" font-family="Times New Roman" font-style="normal" font-size="10.0846" font-weight="normal" justify="right" valign="middle">88 88 6
ST. MARGARET
www.hymnary.org/text/o_love_that_wilt_not_let_me_go</credit-words>
 </credit>
 <part-list>
  <score-part id="P1">
   <part-name>Piano</part-name>
   <part-name-display>
    <display-text>Piano</display-text>
   </part-name-display>
   <part-abbreviation>Pno.</part-abbreviation>
   <part-abbreviation-display>
    <display-text>Pno.</display-text>
   </part-abbreviation-display>
   <score-instrument id="P1-I1">
    <instrument-name>Piano (2)</instrument-name>
    <instrument-sound>keyboard.piano.grand</instrument-sound>
    <solo />
    <virtual-instrument>
     <virtual-library>General MIDI</virtual-library>
     <virtual-name>Acoustic Piano</virtual-name>
    </virtual-instrument>
   </score-instrument>
  </score-part>
  <score-part id="P2">
   <part-name>Piano</part-name>
   <part-name-display>
    <display-text>Piano</display-text>
   </part-name-display>
   <part-abbreviation>Pno.</part-abbreviation>
   <part-abbreviation-display>
    <display-text>Pno.</display-text>
   </part-abbreviation-display>
   <score-instrument id="P2-I1">
    <instrument-name>Piano (2)</instrument-name>
    <instrument-sound>keyboard.piano.grand</instrument-sound>
    <solo />
    <virtual-instrument>
     <virtual-library>General MIDI</virtual-library>
     <virtual-name>Acoustic Piano</virtual-name>
    </virtual-instrument>
   </score-instrument>
  </score-part>
 </part-list>
 <part id="P1">
  <!--============== Part: P1, Measure: 0 ==============-->
  <measure number="0" width="213">
   <print new-page="yes">
    <system-layout>
     <system-margins>
      <left-margin>0</left-margin>
      <right-margin>0</right-margin>
     </system-margins>
     <top-system-distance>163</top-system-distance>
    </system-layout>
   </print>
   <attributes>
    <divisions>256</divisions>
    <key color="#000000">
     <fifths>1</fifths>
     <mode>major</mode>
    </key>
    <time color="#000000">
     <beats>4</beats>
     <beat-type>4</beat-type>
    </time>
    <staves>1</staves>
    <clef number="1" color="#000000">
     <sign>G</sign>
     <line>2</line>
    </clef>
    <staff-details number="1" print-object="yes" />
   </attributes>
   <note color="#000000" default-x="88" default-y="-10">
    <pitch>
     <step>B</step>
     <octave>3</octave>
    </pitch>
    <duration>256</duration>
    <instrument id="P1-I1" />
    <voice>1</voice>
    <type>quarter</type>
    <stem>up</stem>
    <staff>1</staff>
    <lyric default-y="-95" number="part1verse1" color="#000000">
     <syllabic>single</syllabic>
     <text>1 O</text>
    </lyric>
    <lyric default-y="-120" number="part1verse2" color="#000000">
     <syllabic>single</syllabic>
     <text>2 O</text>
    </lyric>
    <lyric default-y="-145" number="part1verse0" color="#000000">
     <syllabic>single</syllabic>
     <text>3 O</text>
    </lyric>
    <lyric default-y="-170" number="part1verse0" color="#000000">
     <syllabic>single</syllabic>
     <text>4 O</text>
    </lyric>
   </note>
   <note color="#000000" default-x="88">
    <chord />
    <pitch>
     <step>D</step>
     <octave>4</octave>
    </pitch>
    <duration>256</duration>
    <instrument id="P1-I1" />
    <type>quarter</type>
    <staff>1</staff>
   </note>
  </measure>
  <!--============== Part: P1, Measure: 1 ==============-->
  <measure number="1" width="638">
   <note color="#000000" default-x="15" default-y="-10">
    <pitch>
     <step>D</step>
     <octave>4</octave>
    </pitch>
    <duration>384</duration>
    <instrument id="P1-I1" />
    <voice>1</voice>
    <type>quarter</type>
    <dot />
    <stem>up</stem>
    <staff>1</staff>
    <lyric default-y="-95" number="part1verse1" color="#000000">
     <syllabic>single</syllabic>
     <text>Love</text>
    </lyric>
    <lyric default-y="-120" number="part1verse2" color="#000000">
     <syllabic>single</syllabic>
     <text>Light</text>
    </lyric>
    <lyric default-y="-145" number="part1verse0" color="#000000">
     <syllabic>single</syllabic>
     <text>Joy</text>
    </lyric>
    <lyric default-y="-170" number="part1verse0" color="#000000">
     <syllabic>single</syllabic>
     <text>Cross</text>
    </lyric>
   </note>
   <note color="#000000" default-x="184" default-y="-10">
    <pitch>
     <step>D</step>
     <octave>4</octave>
    </pitch>
    <duration>128</duration>
    <instrument id="P1-I1" />
    <voice>1</voice>
    <type>eighth</type>
    <stem>up</stem>
    <staff>1</staff>
    <lyric default-y="-95" number="part1verse1" color="#000000">
     <syllabic>single</syllabic>
     <text>that</text>
    </lyric>
    <lyric default-y="-120" number="part1verse2" color="#000000">
     <syllabic>single</syllabic>
     <text>that</text>
    </lyric>
    <lyric default-y="-145" number="part1verse0" color="#000000">
     <syllabic>single</syllabic>
     <text>that</text>
    </lyric>
    <lyric default-y="-170" number="part1verse0" color="#000000">
     <syllabic>single</syllabic>
     <text>that</text>
    </lyric>
   </note>
   <note color="#000000" default-x="275" default-y="-20">
    <pitch>
     <step>D</step>
     <octave>4</octave>
    </pitch>
    <duration>128</duration>
    <instrument id="P1-I1" />
    <voice>1</voice>
    <type>eighth</type>
    <stem>up</stem>
    <staff>1</staff>
    <lyric default-y="-95" number="part1verse1" color="#000000">
     <syllabic>single</syllabic>
     <text>will</text>
    </lyric>
    <lyric default-y="-120" number="part1verse2" color="#000000">
     <syllabic>begin</syllabic>
     <text>fol</text>
    </lyric>
    <lyric default-y="-145" number="part1verse0" color="#000000">
     <syllabic>begin</syllabic>
     <text>seek</text>
    </lyric>
    <lyric default-y="-170" number="part1verse0" color="#000000">
     <syllabic>middle</syllabic>
     <text>lift</text>
    </lyric>
   </note>
   <note color="#000000" default-x="365" default-y="-20">
    <pitch>
     <step>E</step>
     <octave>4</octave>
    </pitch>
    <duration>128</duration>
    <instrument id="P1-I1" />
    <voice>1</voice>
    <type>eighth</type>
    <stem>up</stem>
    <staff>1</staff>
    <lyric default-y="-95" number="part1verse1" color="#000000">
     <syllabic>single</syllabic>
     <text>not</text>
    </lyric>
    <lyric default-y="-120" number="part1verse2" color="#000000">
     <syllabic>end</syllabic>
     <text>lowest</text>
    </lyric>
    <lyric default-y="-145" number="part1verse0" color="#000000">
     <syllabic>end</syllabic>
     <text>est</text>
    </lyric>
    <lyric default-y="-170" number="part1verse0" color="#000000">
     <syllabic>single</syllabic>
     <text>est</text>
    </lyric>
   </note>
   <note color="#000000" default-x="456" default-y="-20">
    <pitch>
     <step>C</step>
     <alter>1</alter>
     <octave>4</octave>
    </pitch>
    <duration>128</duration>
    <instrument id="P1-I1" />
    <voice>1</voice>
    <type>eighth</type>
    <accidental>sharp</accidental>
    <stem>up</stem>
    <staff>1</staff>
    <lyric default-y="-95" number="part1verse1" color="#000000">
     <syllabic>single</syllabic>
     <text>let</text>
    </lyric>
    <lyric default-y="-120" number="part1verse2" color="#000000">
     <syllabic>single</syllabic>
     <text>all</text>
    </lyric>
    <lyric default-y="-145" number="part1verse0" color="#000000">
     <syllabic>single</syllabic>
     <text>me</text>
    </lyric>
    <lyric default-y="-170" number="part1verse0" color="#000000">
     <syllabic>single</syllabic>
     <text>up</text>
    </lyric>
   </note>
   <note color="#000000" default-x="456">
    <chord />
    <pitch>
     <step>F</step>
     <alter>1</alter>
     <octave>4</octave>
    </pitch>
    <duration>128</duration>
    <instrument id="P1-I1" />
    <type>eighth</type>
    <staff>1</staff>
   </note>
   <note color="#000000" default-x="547" default-y="-20">
    <pitch>
     <step>C</step>
     <alter>1</alter>
     <octave>4</octave>
    </pitch>
    <duration>128</duration>
    <instrument id="P1-I1" />
    <voice>1</voice>
    <type>eighth</type>
    <stem>up</stem>
    <staff>1</staff>
    <lyric default-y="-95" number="part1verse1" color="#000000">
     <syllabic>single</syllabic>
     <text>me</text>
    </lyric>
    <lyric default-y="-120" number="part1verse2" color="#000000">
     <syllabic>single</syllabic>
     <text>my</text>
    </lyric>
    <lyric default-y="-145" number="part1verse0" color="#000000">
     <syllabic>single</syllabic>
     <text>through</text>
    </lyric>
    <lyric default-y="-170" number="part1verse0" color="#000000">
     <syllabic>single</syllabic>
     <text>my</text>
    </lyric>
   </note>
   <note color="#000000" default-x="547">
    <chord />
    <pitch>
     <step>G</step>
     <octave>4</octave>
    </pitch>
    <duration>128</duration>
    <instrument id="P1-I1" />
    <type>eighth</type>
    <staff>1</staff>
   </note>
   <backup>
    <duration>1024</duration>
   </backup>
   <note color="#000000" default-x="15" default-y="-72">
    <pitch>
     <step>D</step>
     <octave>4</octave>
    </pitch>
    <duration>384</duration>
    <instrument id="P1-I1" />
    <voice>2</voice>
    <type>quarter</type>
    <dot />
    <stem>down</stem>
    <staff>1</staff>
   </note>
   <note color="#000000" default-x="184" default-y="-72">
    <pitch>
     <step>D</step>
     <octave>4</octave>
    </pitch>
    <duration>128</duration>
    <instrument id="P1-I1" />
    <voice>2</voice>
    <type>eighth</type>
    <stem>down</stem>
    <staff>1</staff>
   </note>
   <note color="#000000" default-x="275" default-y="-20">
    <pitch>
     <step>D</step>
     <octave>4</octave>
    </pitch>
    <duration>128</duration>
    <instrument id="P1-I1" />
    <voice>2</voice>
    <type>eighth</type>
    <stem>down</stem>
    <staff>1</staff>
   </note>
   <note color="#000000" default-x="365" default-y="-20">
    <pitch>
     <step>D</step>
     <octave>4</octave>
    </pitch>
    <duration>128</duration>
    <instrument id="P1-I1" />
    <voice>2</voice>
    <type>eighth</type>
    <stem>down</stem>
    <staff>1</staff>
   </note>
  </measure>
  <!--============== Part: P1, Measure: 2 ==============-->
  <measure number="2" width="206">
   <note color="#000000" default-x="15" default-y="5">
    <pitch>
     <step>G</step>
     <octave>4</octave>
    </pitch>
    <duration>512</duration>
    <instrument id="P1-I1" />
    <voice>1</voice>
    <type>half</type>
    <stem>up</stem>
    <staff>1</staff>
    <notations>
     <slur color="#000000" type="start" orientation="over" />
    </notations>
    <lyric default-y="-95" number="part1verse1" color="#000000">
     <syllabic>single</syllabic>
     <text>go,</text>
     <extend />
    </lyric>
    <lyric default-y="-120" number="part1verse2" color="#000000">
     <syllabic>single</syllabic>
     <text>way,</text>
     <extend />
    </lyric>
    <lyric default-y="-145" number="part1verse0" color="#000000">
     <syllabic>single</syllabic>
     <text>pain,</text>
     <extend />
    </lyric>
    <lyric default-y="-170" number="part1verse0" color="#000000">
     <syllabic>single</syllabic>
     <text>head,</text>
     <extend />
    </lyric>
   </note>
   <note color="#000000" default-x="128">
    <pitch>
     <step>F</step>
     <alter>1</alter>
     <octave>4</octave>
    </pitch>
    <duration>256</duration>
    <instrument id="P1-I1" />
    <voice>1</voice>
    <type>quarter</type>
    <stem>up</stem>
    <staff>1</staff>
    <notations>
     <slur color="#000000" type="stop" orientation="over" />
    </notations>
   </note>
   <barline>
    <bar-style>none</bar-style>
   </barline>
   <backup>
    <duration>768</duration>
   </backup>
   <note color="#000000" default-x="15" default-y="-72">
    <pitch>
     <step>D</step>
     <octave>4</octave>
    </pitch>
    <duration>768</duration>
    <instrument id="P1-I1" />
    <voice>2</voice>
    <type>half</type>
    <dot />
    <stem>down</stem>
    <staff>1</staff>
   </note>
  </measure>
  <!--============== Part: P1, Measure: 3 ==============-->
  <measure number="3" width="199">
   <print new-system="yes">
    <system-layout>
     <system-margins>
      <left-margin>0</left-margin>
      <right-margin>0</right-margin>
     </system-margins>
     <system-distance>68</system-distance>
    </system-layout>
   </print>
   <attributes>
    <staff-details number="1" print-object="yes" />
   </attributes>
   <note color="#000000" default-x="70">
    <pitch>
     <step>D</step>
     <octave>4</octave>
    </pitch>
    <duration>256</duration>
    <instrument id="P1-I1" />
    <voice>1</voice>
    <type>quarter</type>
    <stem>up</stem>
    <staff>1</staff>
    <lyric default-y="-95" number="part1verse1" color="#000000">
     <syllabic>single</syllabic>
     <text>I</text>
    </lyric>
    <lyric default-y="-120" number="part1verse2" color="#000000">
     <syllabic>single</syllabic>
     <text>I</text>
    </lyric>
    <lyric default-y="-145" number="part1verse0" color="#000000">
     <syllabic>single</syllabic>
     <text>I</text>
    </lyric>
    <lyric default-y="-170" number="part1verse0" color="#000000">
     <syllabic>single</syllabic>
     <text>I</text>
    </lyric>
   </note>
   <note color="#000000" default-x="70">
    <chord />
    <pitch>
     <step>F</step>
     <alter>1</alter>
     <octave>4</octave>
    </pitch>
    <duration>256</duration>
    <instrument id="P1-I1" />
    <type>quarter</type>
    <staff>1</staff>
   </note>
  </measure>
  <!--============== Part: P1, Measure: 4 ==============-->
  <measure number="4" width="655">
   <note color="#000000" default-x="15">
    <pitch>
     <step>D</step>
     <octave>4</octave>
    </pitch>
    <duration>384</duration>
    <instrument id="P1-I1" />
    <voice>1</voice>
    <type>quarter</type>
    <dot />
    <stem>up</stem>
    <staff>1</staff>
    <lyric default-y="-95" number="part1verse1" color="#000000">
     <syllabic>single</syllabic>
     <text>rest</text>
    </lyric>
    <lyric default-y="-120" number="part1verse2" color="#000000">
     <syllabic>single</syllabic>
     <text>yield</text>
    </lyric>
    <lyric default-y="-145" number="part1verse0" color="#000000">
     <syllabic>begin</syllabic>
     <text>can</text>
    </lyric>
    <lyric default-y="-170" number="part1verse0" color="#000000">
     <syllabic>end</syllabic>
     <text>dare</text>
    </lyric>
   </note>
   <note color="#000000" default-x="15">
    <chord />
    <pitch>
     <step>F</step>
     <alter>1</alter>
     <octave>4</octave>
    </pitch>
    <duration>256</duration>
    <instrument id="P1-I1" />
    <type>quarter</type>
    <dot />
    <staff>1</staff>
   </note>
   <note color="#000000" default-x="189">
    <pitch>
     <step>D</step>
     <octave>4</octave>
    </pitch>
    <duration>128</duration>
    <instrument id="P1-I1" />
    <voice>1</voice>
    <type>eighth</type>
    <stem>up</stem>
    <staff>1</staff>
    <lyric default-y="-95" number="part1verse1" color="#000000">
     <syllabic>single</syllabic>
     <text>my</text>
    </lyric>
    <lyric default-y="-120" number="part1verse2" color="#000000">
     <syllabic>single</syllabic>
     <text>my</text>
    </lyric>
    <lyric default-y="-145" number="part1verse0" color="#000000">
     <syllabic>single</syllabic>
     <text>not</text>
    </lyric>
    <lyric default-y="-170" number="part1verse0" color="#000000">
     <syllabic>single</syllabic>
     <text>not</text>
    </lyric>
   </note>
   <note color="#000000" default-x="189">
    <chord />
    <pitch>
     <step>F</step>
     <alter>1</alter>
     <octave>4</octave>
    </pitch>
    <duration>128</duration>
    <instrument id="P1-I1" />
    <type>eighth</type>
    <staff>1</staff>
   </note>
   <note color="#000000" default-x="282" default-y="-20">
    <pitch>
     <step>D</step>
     <octave>4</octave>
    </pitch>
    <duration>128</duration>
    <instrument id="P1-I1" />
    <voice>1</voice>
    <type>eighth</type>
    <stem>up</stem>
    <staff>1</staff>
    <lyric default-y="-95" number="part1verse1" color="#000000">
     <syllabic>begin</syllabic>
     <text>wea</text>
    </lyric>
    <lyric default-y="-120" number="part1verse2" color="#000000">
     <syllabic>begin</syllabic>
     <text>flick</text>
    </lyric>
    <lyric default-y="-145" number="part1verse0" color="#000000">
     <syllabic>single</syllabic>
     <text>close</text>
    </lyric>
    <lyric default-y="-170" number="part1verse0" color="#000000">
     <syllabic>single</syllabic>
     <text>ask</text>
    </lyric>
   </note>
   <note color="#000000" default-x="282">
    <chord />
    <pitch>
     <step>F</step>
     <alter>1</alter>
     <octave>4</octave>
    </pitch>
    <duration>128</duration>
    <instrument id="P1-I1" />
    <type>eighth</type>
    <staff>1</staff>
   </note>
   <note color="#000000" default-x="375" default-y="-20">
    <pitch>
     <step>D</step>
     <octave>4</octave>
    </pitch>
    <duration>128</duration>
    <instrument id="P1-I1" />
    <voice>1</voice>
    <type>eighth</type>
    <stem>up</stem>
    <staff>1</staff>
    <lyric default-y="-95" number="part1verse1" color="#000000">
     <syllabic>end</syllabic>
     <text>ry</text>
    </lyric>
    <lyric default-y="-120" number="part1verse2" color="#000000">
     <syllabic>end</syllabic>
     <text>ering</text>
    </lyric>
    <lyric default-y="-145" number="part1verse0" color="#000000">
     <syllabic>single</syllabic>
     <text>my</text>
    </lyric>
    <lyric default-y="-170" number="part1verse0" color="#000000">
     <syllabic>single</syllabic>
     <text>to</text>
    </lyric>
   </note>
   <note color="#000000" default-x="375">
    <chord />
    <pitch>
     <step>G</step>
     <octave>4</octave>
    </pitch>
    <duration>128</duration>
    <instrument id="P1-I1" />
    <type>eighth</type>
    <staff>1</staff>
   </note>
   <note color="#000000" default-x="469" default-y="-20">
    <pitch>
     <step>F</step>
     <alter>1</alter>
     <octave>4</octave>
    </pitch>
    <duration>128</duration>
    <instrument id="P1-I1" />
    <voice>1</voice>
    <type>eighth</type>
    <stem>up</stem>
    <staff>1</staff>
    <lyric default-y="-95" number="part1verse1" color="#000000">
     <syllabic>single</syllabic>
     <text>soul</text>
    </lyric>
    <lyric default-y="-120" number="part1verse2" color="#000000">
     <syllabic>single</syllabic>
     <text>torch</text>
    </lyric>
    <lyric default-y="-145" number="part1verse0" color="#000000">
     <syllabic>single</syllabic>
     <text>heart</text>
    </lyric>
    <lyric default-y="-170" number="part1verse0" color="#000000">
     <syllabic>single</syllabic>
     <text>fly</text>
    </lyric>
   </note>
   <note color="#000000" default-x="469">
    <chord />
    <pitch>
     <step>A</step>
     <octave>4</octave>
    </pitch>
    <duration>128</duration>
    <instrument id="P1-I1" />
    <type>eighth</type>
    <staff>1</staff>
   </note>
   <note color="#000000" default-x="562" default-y="-20">
    <pitch>
     <step>G</step>
     <octave>4</octave>
    </pitch>
    <duration>128</duration>
    <instrument id="P1-I1" />
    <voice>1</voice>
    <type>eighth</type>
    <stem>up</stem>
    <staff>1</staff>
    <lyric default-y="-95" number="part1verse1" color="#000000">
     <syllabic>single</syllabic>
     <text>in</text>
    </lyric>
    <lyric default-y="-120" number="part1verse2" color="#000000">
     <syllabic>single</syllabic>
     <text>to</text>
    </lyric>
    <lyric default-y="-145" number="part1verse0" color="#000000">
     <syllabic>single</syllabic>
     <text>to</text>
    </lyric>
    <lyric default-y="-170" number="part1verse0" color="#000000">
     <syllabic>single</syllabic>
     <text>from</text>
    </lyric>
   </note>
   <note color="#000000" default-x="562">
    <chord />
    <pitch>
     <step>B</step>
     <octave>4</octave>
    </pitch>
    <duration>128</duration>
    <instrument id="P1-I1" />
    <type>eighth</type>
    <staff>1</staff>
   </note>
  </measure>
  <!--============== Part: P1, Measure: 5 ==============-->
  <measure number="5" width="203">
   <note color="#000000" default-x="15" default-y="20">
    <pitch>
     <step>D</step>
     <octave>5</octave>
    </pitch>
    <duration>512</duration>
    <instrument id="P1-I1" />
    <voice>1</voice>
    <type>half</type>
    <stem>up</stem>
    <staff>1</staff>
    <notations>
     <slur color="#000000" type="start" orientation="over" />
    </notations>
    <lyric default-y="-95" number="part1verse1" color="#000000">
     <syllabic>single</syllabic>
     <text>thee;</text>
     <extend />
    </lyric>
    <lyric default-y="-120" number="part1verse2" color="#000000">
     <syllabic>single</syllabic>
     <text>thee;</text>
     <extend />
    </lyric>
    <lyric default-y="-145" number="part1verse0" color="#000000">
     <syllabic>single</syllabic>
     <text>thee;</text>
     <extend />
    </lyric>
    <lyric default-y="-170" number="part1verse0" color="#000000">
     <syllabic>single</syllabic>
     <text>thee;</text>
     <extend />
    </lyric>
   </note>
   <note color="#000000" default-x="123" default-y="17">
    <pitch>
     <step>C</step>
     <octave>5</octave>
    </pitch>
    <duration>256</duration>
    <instrument id="P1-I1" />
    <voice>1</voice>
    <type>quarter</type>
    <stem>up</stem>
    <staff>1</staff>
    <notations>
     <slur color="#000000" type="stop" orientation="over" />
    </notations>
   </note>
   <barline>
    <bar-style>none</bar-style>
   </barline>
   <backup>
    <duration>768</duration>
   </backup>
   <note color="#000000" default-x="15" default-y="-57">
    <pitch>
     <step>A</step>
     <octave>4</octave>
    </pitch>
    <duration>768</duration>
    <instrument id="P1-I1" />
    <voice>2</voice>
    <type>half</type>
    <dot />
    <stem>down</stem>
    <staff>1</staff>
   </note>
  </measure>
  <!--============== Part: P1, Measure: 6 ==============-->
  <measure number="6" width="180">
   <print new-system="yes">
    <system-layout>
     <system-margins>
      <left-margin>0</left-margin>
      <right-margin>0</right-margin>
     </system-margins>
     <system-distance>68</system-distance>
    </system-layout>
   </print>
   <attributes>
    <staff-details number="1" print-object="yes" />
   </attributes>
   <note color="#000000" default-x="70" default-y="17">
    <pitch>
     <step>D</step>
     <octave>4</octave>
    </pitch>
    <duration>256</duration>
    <instrument id="P1-I1" />
    <voice>1</voice>
    <type>quarter</type>
    <stem>up</stem>
    <staff>1</staff>
    <lyric default-y="-95" number="part1verse1" color="#000000">
     <syllabic>single</syllabic>
     <text>I</text>
    </lyric>
    <lyric default-y="-120" number="part1verse2" color="#000000">
     <syllabic>single</syllabic>
     <text>my</text>
    </lyric>
    <lyric default-y="-145" number="part1verse0" color="#000000">
     <syllabic>single</syllabic>
     <text>I</text>
    </lyric>
    <lyric default-y="-170" number="part1verse0" color="#000000">
     <syllabic>single</syllabic>
     <text>I</text>
    </lyric>
   </note>
   <note color="#000000" default-x="70">
    <chord />
    <pitch>
     <step>C</step>
     <octave>5</octave>
    </pitch>
    <duration>256</duration>
    <instrument id="P1-I1" />
    <type>quarter</type>
    <staff>1</staff>
   </note>
  </measure>
  <!--============== Part: P1, Measure: 7 ==============-->
  <measure number="7" width="564">
   <note color="#000000" default-x="15" default-y="15">
    <pitch>
     <step>D</step>
     <octave>4</octave>
    </pitch>
    <duration>384</duration>
    <instrument id="P1-I1" />
    <voice>1</voice>
    <type>quarter</type>
    <dot />
    <stem>up</stem>
    <staff>1</staff>
    <lyric default-y="-95" number="part1verse1" color="#000000">
     <syllabic>single</syllabic>
     <text>give</text>
    </lyric>
    <lyric default-y="-120" number="part1verse2" color="#000000">
     <syllabic>single</syllabic>
     <text>heart</text>
    </lyric>
    <lyric default-y="-145" number="part1verse0" color="#000000">
     <syllabic>single</syllabic>
     <text>trace</text>
    </lyric>
    <lyric default-y="-170" number="part1verse0" color="#000000">
     <syllabic>single</syllabic>
     <text>lay</text>
    </lyric>
   </note>
   <note color="#000000" default-x="15">
    <chord />
    <pitch>
     <step>B</step>
     <octave>4</octave>
    </pitch>
    <duration>256</duration>
    <instrument id="P1-I1" />
    <type>quarter</type>
    <dot />
    <staff>1</staff>
   </note>
   <note color="#000000" default-x="164" default-y="15">
    <pitch>
     <step>D</step>
     <octave>4</octave>
    </pitch>
    <duration>128</duration>
    <instrument id="P1-I1" />
    <voice>1</voice>
    <type>eighth</type>
    <stem>up</stem>
    <staff>1</staff>
    <lyric default-y="-95" number="part1verse1" color="#000000">
     <syllabic>single</syllabic>
     <text>thee</text>
    </lyric>
    <lyric default-y="-120" number="part1verse2" color="#000000">
     <syllabic>begin</syllabic>
     <text>re</text>
    </lyric>
    <lyric default-y="-145" number="part1verse0" color="#000000">
     <syllabic>single</syllabic>
     <text>the</text>
    </lyric>
    <lyric default-y="-170" number="part1verse0" color="#000000">
     <syllabic>single</syllabic>
     <text>in</text>
    </lyric>
   </note>
   <note color="#000000" default-x="164">
    <chord />
    <pitch>
     <step>B</step>
     <octave>4</octave>
    </pitch>
    <duration>128</duration>
    <instrument id="P1-I1" />
    <type>eighth</type>
    <staff>1</staff>
   </note>
   <note color="#000000" default-x="244" default-y="-20">
    <pitch>
     <step>D</step>
     <alter>1</alter>
     <octave>4</octave>
    </pitch>
    <duration>128</duration>
    <instrument id="P1-I1" />
    <voice>1</voice>
    <type>eighth</type>
    <accidental>sharp</accidental>
    <stem>up</stem>
    <staff>1</staff>
    <lyric default-y="-95" number="part1verse1" color="#000000">
     <syllabic>single</syllabic>
     <text>back</text>
    </lyric>
    <lyric default-y="-120" number="part1verse2" color="#000000">
     <syllabic>end</syllabic>
     <text>stores</text>
    </lyric>
    <lyric default-y="-145" number="part1verse0" color="#000000">
     <syllabic>begin</syllabic>
     <text>rain</text>
    </lyric>
    <lyric default-y="-170" number="part1verse0" color="#000000">
     <syllabic>end</syllabic>
     <text>dust</text>
    </lyric>
   </note>
   <note color="#000000" default-x="244">
    <chord />
    <pitch>
     <step>B</step>
     <octave>4</octave>
    </pitch>
    <duration>128</duration>
    <instrument id="P1-I1" />
    <type>eighth</type>
    <staff>1</staff>
   </note>
   <note color="#000000" default-x="324" default-y="-20">
    <pitch>
     <step>D</step>
     <alter>1</alter>
     <octave>4</octave>
    </pitch>
    <duration>128</duration>
    <instrument id="P1-I1" />
    <voice>1</voice>
    <type>eighth</type>
    <stem>up</stem>
    <staff>1</staff>
    <lyric default-y="-95" number="part1verse1" color="#000000">
     <syllabic>single</syllabic>
     <text>the</text>
    </lyric>
    <lyric default-y="-120" number="part1verse2" color="#000000">
     <syllabic>single</syllabic>
     <text>its</text>
    </lyric>
    <lyric default-y="-145" number="part1verse0" color="#000000">
     <syllabic>single</syllabic>
     <text>bow</text>
    </lyric>
    <lyric default-y="-170" number="part1verse0" color="#000000">
     <syllabic>single</syllabic>
     <text>life’s</text>
    </lyric>
   </note>
   <note color="#000000" default-x="324">
    <chord />
    <pitch>
     <step>A</step>
     <octave>4</octave>
    </pitch>
    <duration>128</duration>
    <instrument id="P1-I1" />
    <type>eighth</type>
    <staff>1</staff>
   </note>
   <note color="#000000" default-x="404" default-y="-20">
    <pitch>
     <step>D</step>
     <alter>1</alter>
     <octave>4</octave>
    </pitch>
    <duration>128</duration>
    <instrument id="P1-I1" />
    <voice>1</voice>
    <type>eighth</type>
    <stem>up</stem>
    <staff>1</staff>
    <lyric default-y="-95" number="part1verse1" color="#000000">
     <syllabic>single</syllabic>
     <text>life</text>
    </lyric>
    <lyric default-y="-120" number="part1verse2" color="#000000">
     <syllabic>begin</syllabic>
     <text>bor</text>
    </lyric>
    <lyric default-y="-145" number="part1verse0" color="#000000">
     <syllabic>single</syllabic>
     <text>through</text>
    </lyric>
    <lyric default-y="-170" number="part1verse0" color="#000000">
     <syllabic>begin</syllabic>
     <text>glo</text>
    </lyric>
   </note>
   <note color="#000000" default-x="404">
    <chord />
    <pitch>
     <step>G</step>
     <octave>4</octave>
    </pitch>
    <duration>128</duration>
    <instrument id="P1-I1" />
    <type>eighth</type>
    <staff>1</staff>
   </note>
   <note color="#000000" default-x="484" default-y="-20">
    <pitch>
     <step>D</step>
     <alter>1</alter>
     <octave>4</octave>
    </pitch>
    <duration>128</duration>
    <instrument id="P1-I1" />
    <voice>1</voice>
    <type>eighth</type>
    <stem>up</stem>
    <staff>1</staff>
    <lyric default-y="-95" number="part1verse1" color="#000000">
     <syllabic>single</syllabic>
     <text>I</text>
    </lyric>
    <lyric default-y="-120" number="part1verse2" color="#000000">
     <syllabic>end</syllabic>
     <text>rowed</text>
    </lyric>
    <lyric default-y="-145" number="part1verse0" color="#000000">
     <syllabic>end</syllabic>
     <text>the</text>
    </lyric>
    <lyric default-y="-170" number="part1verse0" color="#000000">
     <syllabic>single</syllabic>
     <text>ry</text>
    </lyric>
   </note>
   <note color="#000000" default-x="484">
    <chord />
    <pitch>
     <step>F</step>
     <alter>1</alter>
     <octave>4</octave>
    </pitch>
    <duration>128</duration>
    <instrument id="P1-I1" />
    <type>eighth</type>
    <staff>1</staff>
   </note>
  </measure>
  <!--============== Part: P1, Measure: 8 ==============-->
  <measure number="8" width="313">
   <note color="#000000" default-x="15" default-y="10">
    <pitch>
     <step>A</step>
     <octave>4</octave>
    </pitch>
    <duration>512</duration>
    <instrument id="P1-I1" />
    <voice>1</voice>
    <type>half</type>
    <stem>up</stem>
    <staff>1</staff>
    <notations>
     <slur color="#000000" type="start" orientation="over" />
    </notations>
    <lyric default-y="-95" number="part1verse1" color="#000000">
     <syllabic>single</syllabic>
     <text>owe,</text>
     <extend />
    </lyric>
    <lyric default-y="-120" number="part1verse2" color="#000000">
     <syllabic>single</syllabic>
     <text>ray,</text>
     <extend />
    </lyric>
    <lyric default-y="-145" number="part1verse0" color="#000000">
     <syllabic>single</syllabic>
     <text>rain,</text>
     <extend />
    </lyric>
    <lyric default-y="-170" number="part1verse0" color="#000000">
     <syllabic>single</syllabic>
     <text>dead,</text>
     <extend />
    </lyric>
   </note>
   <note color="#000000" default-x="123" default-y="5">
    <pitch>
     <step>G</step>
     <octave>4</octave>
    </pitch>
    <duration>256</duration>
    <instrument id="P1-I1" />
    <voice>1</voice>
    <type>quarter</type>
    <stem>up</stem>
    <staff>1</staff>
    <notations>
     <slur color="#000000" type="stop" orientation="over" />
    </notations>
   </note>
   <note color="#000000" default-x="234" default-y="5">
    <pitch>
     <step>B</step>
     <octave>3</octave>
    </pitch>
    <duration>256</duration>
    <instrument id="P1-I1" />
    <voice>1</voice>
    <type>quarter</type>
    <stem>up</stem>
    <staff>1</staff>
    <lyric default-y="-95" number="part1verse1" color="#000000">
     <syllabic>single</syllabic>
     <text>that</text>
    </lyric>
    <lyric default-y="-120" number="part1verse2" color="#000000">
     <syllabic>single</syllabic>
     <text>that</text>
    </lyric>
    <lyric default-y="-145" number="part1verse0" color="#000000">
     <syllabic>single</syllabic>
     <text>and</text>
    </lyric>
    <lyric default-y="-170" number="part1verse0" color="#000000">
     <syllabic>single</syllabic>
     <text>and</text>
    </lyric>
   </note>
   <note color="#000000" default-x="234">
    <chord />
    <pitch>
     <step>G</step>
     <octave>4</octave>
    </pitch>
    <duration>256</duration>
    <instrument id="P1-I1" />
    <type>quarter</type>
    <staff>1</staff>
   </note>
   <backup>
    <duration>1024</duration>
   </backup>
   <note color="#000000" default-x="15" default-y="-67">
    <pitch>
     <step>E</step>
     <octave>4</octave>
    </pitch>
    <duration>768</duration>
    <instrument id="P1-I1" />
    <voice>2</voice>
    <type>half</type>
    <dot />
    <stem>down</stem>
    <staff>1</staff>
   </note>
  </measure>
  <!--============== Part: P1, Measure: 9 ==============-->
  <measure number="9" width="435">
   <print new-system="yes">
    <system-layout>
     <system-margins>
      <left-margin>0</left-margin>
      <right-margin>0</right-margin>
     </system-margins>
     <system-distance>68</system-distance>
    </system-layout>
   </print>
   <attributes>
    <staff-details number="1" print-object="yes" />
   </attributes>
   <note color="#000000" default-x="73" default-y="5">
    <pitch>
     <step>C</step>
     <alter>1</alter>
     <octave>4</octave>
    </pitch>
    <duration>384</duration>
    <instrument id="P1-I1" />
    <voice>1</voice>
    <type>quarter</type>
    <dot />
    <accidental>sharp</accidental>
    <stem>up</stem>
    <staff>1</staff>
    <lyric default-y="-95" number="part1verse1" color="#000000">
     <syllabic>single</syllabic>
     <text>in</text>
    </lyric>
    <lyric default-y="-120" number="part1verse2" color="#000000">
     <syllabic>single</syllabic>
     <text>in</text>
    </lyric>
    <lyric default-y="-145" number="part1verse0" color="#000000">
     <syllabic>single</syllabic>
     <text>feel</text>
    </lyric>
    <lyric default-y="-170" number="part1verse0" color="#000000">
     <syllabic>single</syllabic>
     <text>from</text>
    </lyric>
   </note>
   <note color="#000000" default-x="73">
    <chord />
    <pitch>
     <step>G</step>
     <octave>4</octave>
    </pitch>
    <duration>256</duration>
    <instrument id="P1-I1" />
    <type>quarter</type>
    <dot />
    <staff>1</staff>
   </note>
   <note color="#000000" default-x="159" default-y="5">
    <pitch>
     <step>C</step>
     <alter>1</alter>
     <octave>4</octave>
    </pitch>
    <duration>128</duration>
    <instrument id="P1-I1" />
    <voice>1</voice>
    <type>eighth</type>
    <stem>up</stem>
    <staff>1</staff>
    <lyric default-y="-95" number="part1verse1" color="#000000">
     <syllabic>single</syllabic>
     <text>thine</text>
    </lyric>
    <lyric default-y="-120" number="part1verse2" color="#000000">
     <syllabic>single</syllabic>
     <text>thy</text>
    </lyric>
    <lyric default-y="-145" number="part1verse0" color="#000000">
     <syllabic>single</syllabic>
     <text>the</text>
    </lyric>
    <lyric default-y="-170" number="part1verse0" color="#000000">
     <syllabic>single</syllabic>
     <text>the</text>
    </lyric>
   </note>
   <note color="#000000" default-x="159">
    <chord />
    <pitch>
     <step>G</step>
     <octave>4</octave>
    </pitch>
    <duration>128</duration>
    <instrument id="P1-I1" />
    <type>eighth</type>
    <staff>1</staff>
   </note>
   <note color="#000000" default-x="212" default-y="-20">
    <pitch>
     <step>C</step>
     <alter>1</alter>
     <octave>4</octave>
    </pitch>
    <duration>128</duration>
    <instrument id="P1-I1" />
    <voice>1</voice>
    <type>eighth</type>
    <stem>up</stem>
    <staff>1</staff>
    <lyric default-y="-95" number="part1verse1" color="#000000">
     <syllabic>begin</syllabic>
     <text>o</text>
    </lyric>
    <lyric default-y="-120" number="part1verse2" color="#000000">
     <syllabic>begin</syllabic>
     <text>sun</text>
    </lyric>
    <lyric default-y="-145" number="part1verse0" color="#000000">
     <syllabic>begin</syllabic>
     <text>pro</text>
    </lyric>
    <lyric default-y="-170" number="part1verse0" color="#000000">
     <syllabic>end</syllabic>
     <text>ground</text>
    </lyric>
   </note>
   <note color="#000000" default-x="212">
    <chord />
    <pitch>
     <step>G</step>
     <octave>4</octave>
    </pitch>
    <duration>128</duration>
    <instrument id="P1-I1" />
    <type>eighth</type>
    <staff>1</staff>
   </note>
   <note color="#000000" default-x="274" default-y="-20">
    <pitch>
     <step>C</step>
     <alter>1</alter>
     <octave>4</octave>
    </pitch>
    <duration>128</duration>
    <instrument id="P1-I1" />
    <voice>1</voice>
    <type>eighth</type>
    <stem>up</stem>
    <staff>1</staff>
    <lyric default-y="-95" number="part1verse1" color="#000000">
     <syllabic>end</syllabic>
     <text>cean</text>
    </lyric>
    <lyric default-y="-120" number="part1verse2" color="#000000">
     <syllabic>end</syllabic>
     <text>shine’s</text>
    </lyric>
    <lyric default-y="-145" number="part1verse0" color="#000000">
     <syllabic>single</syllabic>
     <text>mise</text>
    </lyric>
    <lyric default-y="-170" number="part1verse0" color="#000000">
     <syllabic>single</syllabic>
     <text>there</text>
    </lyric>
   </note>
   <note color="#000000" default-x="274">
    <chord />
    <pitch>
     <step>G</step>
     <octave>4</octave>
    </pitch>
    <duration>128</duration>
    <instrument id="P1-I1" />
    <type>eighth</type>
    <staff>1</staff>
   </note>
   <note color="#000000" default-x="337" default-y="-20">
    <pitch>
     <step>C</step>
     <alter>1</alter>
     <octave>4</octave>
    </pitch>
    <duration>128</duration>
    <instrument id="P1-I1" />
    <voice>1</voice>
    <type>eighth</type>
    <stem>up</stem>
    <staff>1</staff>
    <lyric default-y="-95" number="part1verse1" color="#000000">
     <syllabic>single</syllabic>
     <text>depths</text>
    </lyric>
    <lyric default-y="-120" number="part1verse2" color="#000000">
     <syllabic>single</syllabic>
     <text>blaze</text>
    </lyric>
    <lyric default-y="-145" number="part1verse0" color="#000000">
     <syllabic>single</syllabic>
     <text>is</text>
    </lyric>
    <lyric default-y="-170" number="part1verse0" color="#000000">
     <syllabic>begin</syllabic>
     <text>blos</text>
    </lyric>
   </note>
   <note color="#000000" default-x="337">
    <chord />
    <pitch>
     <step>F</step>
     <alter>1</alter>
     <octave>4</octave>
    </pitch>
    <duration>128</duration>
    <instrument id="P1-I1" />
    <type>eighth</type>
    <staff>1</staff>
   </note>
   <note color="#000000" default-x="388" default-y="-20">
    <pitch>
     <step>C</step>
     <alter>1</alter>
     <octave>4</octave>
    </pitch>
    <duration>128</duration>
    <instrument id="P1-I1" />
    <voice>1</voice>
    <type>eighth</type>
    <stem>up</stem>
    <staff>1</staff>
    <lyric default-y="-95" number="part1verse1" color="#000000">
     <syllabic>single</syllabic>
     <text>its</text>
    </lyric>
    <lyric default-y="-120" number="part1verse2" color="#000000">
     <syllabic>single</syllabic>
     <text>its</text>
    </lyric>
    <lyric default-y="-145" number="part1verse0" color="#000000">
     <syllabic>end</syllabic>
     <text>not</text>
    </lyric>
    <lyric default-y="-170" number="part1verse0" color="#000000">
     <syllabic>single</syllabic>
     <text>soms</text>
    </lyric>
   </note>
   <note color="#000000" default-x="388">
    <chord />
    <pitch>
     <step>E</step>
     <octave>4</octave>
    </pitch>
    <duration>128</duration>
    <instrument id="P1-I1" />
    <type>eighth</type>
    <staff>1</staff>
   </note>
  </measure>
  <!--============== Part: P1, Measure: 10 ==============-->
  <measure number="10" width="279">
   <note color="#000000" default-x="15" default-y="-10">
    <pitch>
     <step>B</step>
     <octave>3</octave>
    </pitch>
    <duration>384</duration>
    <instrument id="P1-I1" />
    <voice>1</voice>
    <type>quarter</type>
    <dot />
    <stem>up</stem>
    <staff>1</staff>
    <lyric default-y="-95" number="part1verse1" color="#000000">
     <syllabic>single</syllabic>
     <text>flow</text>
    </lyric>
    <lyric default-y="-120" number="part1verse2" color="#000000">
     <syllabic>single</syllabic>
     <text>day</text>
    </lyric>
    <lyric default-y="-145" number="part1verse0" color="#000000">
     <syllabic>single</syllabic>
     <text>vain</text>
    </lyric>
    <lyric default-y="-170" number="part1verse0" color="#000000">
     <syllabic>single</syllabic>
     <text>red</text>
    </lyric>
   </note>
   <note color="#000000" default-x="15">
    <chord />
    <pitch>
     <step>D</step>
     <octave>4</octave>
    </pitch>
    <duration>256</duration>
    <instrument id="P1-I1" />
    <type>quarter</type>
    <dot />
    <staff>1</staff>
   </note>
   <note color="#000000" default-x="100" default-y="-5">
    <pitch>
     <step>E</step>
     <octave>4</octave>
    </pitch>
    <duration>128</duration>
    <instrument id="P1-I1" />
    <voice>1</voice>
    <type>eighth</type>
    <stem>up</stem>
    <staff>1</staff>
    <lyric default-y="-95" number="part1verse1" color="#000000">
     <syllabic>single</syllabic>
     <text>may</text>
    </lyric>
    <lyric default-y="-120" number="part1verse2" color="#000000">
     <syllabic>single</syllabic>
     <text>may</text>
    </lyric>
    <lyric default-y="-145" number="part1verse0" color="#000000">
     <syllabic>single</syllabic>
     <text>that</text>
    </lyric>
    <lyric default-y="-170" number="part1verse0" color="#000000">
     <syllabic>single</syllabic>
     <text>life</text>
    </lyric>
   </note>
   <note color="#000000" default-x="151">
    <pitch>
     <step>D</step>
     <octave>4</octave>
    </pitch>
    <duration>256</duration>
    <instrument id="P1-I1" />
    <voice>1</voice>
    <type>quarter</type>
    <stem>up</stem>
    <staff>1</staff>
    <lyric default-y="-95" number="part1verse1" color="#000000">
     <syllabic>begin</syllabic>
     <text>ri</text>
    </lyric>
    <lyric default-y="-120" number="part1verse2" color="#000000">
     <syllabic>begin</syllabic>
     <text>brigh</text>
    </lyric>
    <lyric default-y="-145" number="part1verse0" color="#000000">
     <syllabic>single</syllabic>
     <text>morn</text>
    </lyric>
    <lyric default-y="-170" number="part1verse0" color="#000000">
     <syllabic>single</syllabic>
     <text>that</text>
    </lyric>
   </note>
   <note color="#000000" default-x="151">
    <chord />
    <pitch>
     <step>F</step>
     <alter>1</alter>
     <octave>4</octave>
    </pitch>
    <duration>256</duration>
    <instrument id="P1-I1" />
    <type>quarter</type>
    <staff>1</staff>
   </note>
   <note color="#000000" default-x="215" default-y="5">
    <pitch>
     <step>D</step>
     <octave>4</octave>
    </pitch>
    <duration>256</duration>
    <instrument id="P1-I1" />
    <voice>1</voice>
    <type>quarter</type>
    <stem>up</stem>
    <staff>1</staff>
    <lyric default-y="-95" number="part1verse1" color="#000000">
     <syllabic>end</syllabic>
     <text>cher,</text>
    </lyric>
    <lyric default-y="-120" number="part1verse2" color="#000000">
     <syllabic>end</syllabic>
     <text>ter,</text>
    </lyric>
    <lyric default-y="-145" number="part1verse0" color="#000000">
     <syllabic>single</syllabic>
     <text>shall</text>
    </lyric>
    <lyric default-y="-170" number="part1verse0" color="#000000">
     <syllabic>single</syllabic>
     <text>shall</text>
    </lyric>
   </note>
   <note color="#000000" default-x="215">
    <chord />
    <pitch>
     <step>G</step>
     <octave>4</octave>
    </pitch>
    <duration>256</duration>
    <instrument id="P1-I1" />
    <type>quarter</type>
    <staff>1</staff>
   </note>
   <backup>
    <duration>640</duration>
   </backup>
   <note color="#000000" default-x="100" default-y="-72">
    <pitch>
     <step>D</step>
     <octave>4</octave>
    </pitch>
    <duration>128</duration>
    <instrument id="P1-I1" />
    <voice>2</voice>
    <type>eighth</type>
    <stem>down</stem>
    <staff>1</staff>
   </note>
  </measure>
  <!--============== Part: P1, Measure: 11 ==============-->
  <measure number="11" width="231">
   <note color="#000000" default-x="15" default-y="15">
    <pitch>
     <step>B</step>
     <octave>4</octave>
    </pitch>
    <duration>768</duration>
    <instrument id="P1-I1" />
    <voice>1</voice>
    <type>half</type>
    <dot />
    <stem>up</stem>
    <staff>1</staff>
    <lyric default-y="-95" number="part1verse1" color="#000000">
     <syllabic>begin</syllabic>
     <text>ful</text>
    </lyric>
    <lyric default-y="-120" number="part1verse2" color="#000000">
     <syllabic>begin</syllabic>
     <text>fair</text>
    </lyric>
    <lyric default-y="-145" number="part1verse0" color="#000000">
     <syllabic>begin</syllabic>
     <text>tear</text>
    </lyric>
    <lyric default-y="-170" number="part1verse0" color="#000000">
     <syllabic>middle</syllabic>
     <text>end</text>
    </lyric>
   </note>
   <note color="#000000" default-x="166" default-y="10">
    <pitch>
     <step>A</step>
     <octave>4</octave>
    </pitch>
    <duration>256</duration>
    <instrument id="P1-I1" />
    <voice>1</voice>
    <type>quarter</type>
    <stem>up</stem>
    <staff>1</staff>
    <lyric default-y="-95" number="part1verse1" color="#000000">
     <syllabic>end</syllabic>
     <text>ler</text>
    </lyric>
    <lyric default-y="-120" number="part1verse2" color="#000000">
     <syllabic>end</syllabic>
     <text>er</text>
    </lyric>
    <lyric default-y="-145" number="part1verse0" color="#000000">
     <syllabic>end</syllabic>
     <text>less</text>
    </lyric>
    <lyric default-y="-170" number="part1verse0" color="#000000">
     <syllabic>single</syllabic>
     <text>less</text>
    </lyric>
   </note>
   <backup>
    <duration>1024</duration>
   </backup>
   <note color="#000000" default-x="15" default-y="-60">
    <pitch>
     <step>G</step>
     <octave>4</octave>
    </pitch>
    <duration>512</duration>
    <instrument id="P1-I1" />
    <voice>2</voice>
    <type>half</type>
    <stem>down</stem>
    <staff>1</staff>
   </note>
   <note color="#000000" default-x="123">
    <pitch>
     <step>F</step>
     <alter>1</alter>
     <octave>4</octave>
    </pitch>
    <duration>512</duration>
    <instrument id="P1-I1" />
    <voice>2</voice>
    <type>half</type>
    <stem>up</stem>
    <staff>1</staff>
   </note>
  </measure>
  <!--============== Part: P1, Measure: 12 ==============-->
  <measure number="12" width="113">
   <note color="#000000" default-x="15" default-y="5">
    <pitch>
     <step>D</step>
     <octave>4</octave>
    </pitch>
    <duration>768</duration>
    <instrument id="P1-I1" />
    <voice>1</voice>
    <type>half</type>
    <dot />
    <stem>up</stem>
    <staff>1</staff>
    <lyric default-y="-95" number="part1verse1" color="#000000">
     <syllabic>single</syllabic>
     <text>be.</text>
    </lyric>
    <lyric default-y="-120" number="part1verse2" color="#000000">
     <syllabic>single</syllabic>
     <text>be.</text>
    </lyric>
    <lyric default-y="-145" number="part1verse0" color="#000000">
     <syllabic>single</syllabic>
     <text>be.</text>
    </lyric>
    <lyric default-y="-170" number="part1verse0" color="#000000">
     <syllabic>single</syllabic>
     <text>be.</text>
    </lyric>
   </note>
   <note color="#000000" default-x="15">
    <chord />
    <pitch>
     <step>G</step>
     <octave>4</octave>
    </pitch>
    <duration>512</duration>
    <instrument id="P1-I1" />
    <type>half</type>
    <dot />
    <staff>1</staff>
   </note>
   <barline>
    <bar-style>light-heavy</bar-style>
   </barline>
  </measure>
 </part>
 <part id="P2">
  <!--============== Part: P2, Measure: 0 ==============-->
  <measure number="0" width="213">
   <print new-page="yes">
    <system-layout>
     <system-margins>
      <left-margin>0</left-margin>
      <right-margin>0</right-margin>
     </system-margins>
    </system-layout>
    <staff-layout number="1">
     <staff-distance>176</staff-distance>
    </staff-layout>
   </print>
   <attributes>
    <divisions>256</divisions>
    <key color="#000000">
     <fifths>1</fifths>
     <mode>major</mode>
    </key>
    <time color="#000000">
     <beats>4</beats>
     <beat-type>4</beat-type>
    </time>
    <staves>1</staves>
    <clef number="1" color="#000000">
     <sign>F</sign>
     <line>4</line>
    </clef>
    <staff-details number="1" print-object="yes" />
   </attributes>
   <note color="#000000" default-x="88" default-y="-67">
    <pitch>
     <step>G</step>
     <octave>2</octave>
    </pitch>
    <duration>256</duration>
    <instrument id="P2-I1" />
    <voice>1</voice>
    <type>quarter</type>
    <stem>down</stem>
    <staff>1</staff>
   </note>
   <note color="#000000" default-x="88">
    <chord />
    <pitch>
     <step>G</step>
     <octave>3</octave>
    </pitch>
    <duration>256</duration>
    <instrument id="P2-I1" />
    <type>quarter</type>
    <staff>1</staff>
   </note>
  </measure>
  <!--============== Part: P2, Measure: 1 ==============-->
  <measure number="1" width="638">
   <note color="#000000" default-x="15" default-y="-40">
    <pitch>
     <step>G</step>
     <octave>3</octave>
    </pitch>
    <duration>384</duration>
    <instrument id="P2-I1" />
    <voice>1</voice>
    <type>quarter</type>
    <dot />
    <stem>down</stem>
    <staff>1</staff>
   </note>
   <note color="#000000" default-x="15">
    <chord />
    <pitch>
     <step>B</step>
     <octave>3</octave>
    </pitch>
    <duration>256</duration>
    <instrument id="P2-I1" />
    <type>quarter</type>
    <dot />
    <staff>1</staff>
   </note>
   <note color="#000000" default-x="184" default-y="-40">
    <pitch>
     <step>G</step>
     <octave>3</octave>
    </pitch>
    <duration>128</duration>
    <instrument id="P2-I1" />
    <voice>1</voice>
    <type>eighth</type>
    <stem>down</stem>
    <staff>1</staff>
   </note>
   <note color="#000000" default-x="184">
    <chord />
    <pitch>
     <step>B</step>
     <octave>3</octave>
    </pitch>
    <duration>128</duration>
    <instrument id="P2-I1" />
    <type>eighth</type>
    <staff>1</staff>
   </note>
   <note color="#000000" default-x="275" default-y="-20">
    <pitch>
     <step>G</step>
     <octave>3</octave>
    </pitch>
    <duration>128</duration>
    <instrument id="P2-I1" />
    <voice>1</voice>
    <type>eighth</type>
    <stem>down</stem>
    <staff>1</staff>
   </note>
   <note color="#000000" default-x="275">
    <chord />
    <pitch>
     <step>B</step>
     <octave>3</octave>
    </pitch>
    <duration>128</duration>
    <instrument id="P2-I1" />
    <type>eighth</type>
    <staff>1</staff>
   </note>
   <note color="#000000" default-x="365" default-y="-20">
    <pitch>
     <step>G</step>
     <octave>3</octave>
    </pitch>
    <duration>128</duration>
    <instrument id="P2-I1" />
    <voice>1</voice>
    <type>eighth</type>
    <stem>down</stem>
    <staff>1</staff>
   </note>
   <note color="#000000" default-x="365">
    <chord />
    <pitch>
     <step>B</step>
     <octave>3</octave>
    </pitch>
    <duration>128</duration>
    <instrument id="P2-I1" />
    <type>eighth</type>
    <staff>1</staff>
   </note>
   <note color="#000000" default-x="456" default-y="-20">
    <pitch>
     <step>E</step>
     <octave>3</octave>
    </pitch>
    <duration>128</duration>
    <instrument id="P2-I1" />
    <voice>1</voice>
    <type>eighth</type>
    <stem>down</stem>
    <staff>1</staff>
   </note>
   <note color="#000000" default-x="456">
    <chord />
    <pitch>
     <step>G</step>
     <octave>3</octave>
    </pitch>
    <duration>128</duration>
    <instrument id="P2-I1" />
    <type>eighth</type>
    <staff>1</staff>
   </note>
   <note color="#000000" default-x="547" default-y="-20">
    <pitch>
     <step>E</step>
     <octave>3</octave>
    </pitch>
    <duration>128</duration>
    <instrument id="P2-I1" />
    <voice>1</voice>
    <type>eighth</type>
    <stem>down</stem>
    <staff>1</staff>
   </note>
   <note color="#000000" default-x="547">
    <chord />
    <pitch>
     <step>G</step>
     <octave>3</octave>
    </pitch>
    <duration>128</duration>
    <instrument id="P2-I1" />
    <type>eighth</type>
    <staff>1</staff>
   </note>
  </measure>
  <!--============== Part: P2, Measure: 2 ==============-->
  <measure number="2" width="206">
   <note color="#000000" default-x="15" default-y="32">
    <pitch>
     <step>B</step>
     <octave>3</octave>
    </pitch>
    <duration>512</duration>
    <instrument id="P2-I1" />
    <voice>1</voice>
    <type>half</type>
    <stem>up</stem>
    <staff>1</staff>
    <notations>
     <slur color="#000000" type="start" orientation="over" />
    </notations>
   </note>
   <note color="#000000" default-x="128" default-y="27">
    <pitch>
     <step>A</step>
     <octave>3</octave>
    </pitch>
    <duration>256</duration>
    <instrument id="P2-I1" />
    <voice>1</voice>
    <type>quarter</type>
    <stem>up</stem>
    <staff>1</staff>
    <notations>
     <slur color="#000000" type="stop" orientation="over" />
    </notations>
   </note>
   <barline>
    <bar-style>none</bar-style>
   </barline>
   <backup>
    <duration>768</duration>
   </backup>
   <note color="#000000" default-x="15" default-y="-55">
    <pitch>
     <step>D</step>
     <octave>3</octave>
    </pitch>
    <duration>768</duration>
    <instrument id="P2-I1" />
    <voice>2</voice>
    <type>half</type>
    <dot />
    <stem>down</stem>
    <staff>1</staff>
   </note>
  </measure>
  <!--============== Part: P2, Measure: 3 ==============-->
  <measure number="3" width="199">
   <print new-system="yes">
    <system-layout>
     <system-margins>
      <left-margin>0</left-margin>
      <right-margin>0</right-margin>
     </system-margins>
    </system-layout>
    <staff-layout number="1">
     <staff-distance>180</staff-distance>
    </staff-layout>
   </print>
   <attributes>
    <staff-details number="1" print-object="yes" />
   </attributes>
   <note color="#000000" default-x="70" default-y="-55">
    <pitch>
     <step>D</step>
     <octave>3</octave>
    </pitch>
    <duration>256</duration>
    <instrument id="P2-I1" />
    <voice>1</voice>
    <type>quarter</type>
    <stem>down</stem>
    <staff>1</staff>
   </note>
   <note color="#000000" default-x="70">
    <chord />
    <pitch>
     <step>A</step>
     <octave>3</octave>
    </pitch>
    <duration>256</duration>
    <instrument id="P2-I1" />
    <type>quarter</type>
    <staff>1</staff>
   </note>
  </measure>
  <!--============== Part: P2, Measure: 4 ==============-->
  <measure number="4" width="655">
   <note color="#000000" default-x="15" default-y="37">
    <pitch>
     <step>C</step>
     <octave>4</octave>
    </pitch>
    <duration>384</duration>
    <instrument id="P2-I1" />
    <voice>1</voice>
    <type>quarter</type>
    <dot />
    <stem>up</stem>
    <staff>1</staff>
   </note>
   <note color="#000000" default-x="189" default-y="37">
    <pitch>
     <step>C</step>
     <octave>4</octave>
    </pitch>
    <duration>128</duration>
    <instrument id="P2-I1" />
    <voice>1</voice>
    <type>eighth</type>
    <stem>up</stem>
    <staff>1</staff>
   </note>
   <note color="#000000" default-x="282" default-y="-20">
    <pitch>
     <step>C</step>
     <octave>4</octave>
    </pitch>
    <duration>128</duration>
    <instrument id="P2-I1" />
    <voice>1</voice>
    <type>eighth</type>
    <stem>up</stem>
    <staff>1</staff>
   </note>
   <note color="#000000" default-x="375" default-y="-20">
    <pitch>
     <step>D</step>
     <octave>4</octave>
    </pitch>
    <duration>128</duration>
    <instrument id="P2-I1" />
    <voice>1</voice>
    <type>eighth</type>
    <stem>up</stem>
    <staff>1</staff>
   </note>
   <note color="#000000" default-x="469" default-y="-20">
    <pitch>
     <step>A</step>
     <octave>3</octave>
    </pitch>
    <duration>128</duration>
    <instrument id="P2-I1" />
    <voice>1</voice>
    <type>eighth</type>
    <stem>down</stem>
    <staff>1</staff>
   </note>
   <note color="#000000" default-x="469">
    <chord />
    <pitch>
     <step>D</step>
     <octave>4</octave>
    </pitch>
    <duration>128</duration>
    <instrument id="P2-I1" />
    <type>eighth</type>
    <staff>1</staff>
   </note>
   <note color="#000000" default-x="562" default-y="-20">
    <pitch>
     <step>G</step>
     <octave>3</octave>
    </pitch>
    <duration>128</duration>
    <instrument id="P2-I1" />
    <voice>1</voice>
    <type>eighth</type>
    <stem>down</stem>
    <staff>1</staff>
   </note>
   <note color="#000000" default-x="562">
    <chord />
    <pitch>
     <step>D</step>
     <octave>4</octave>
    </pitch>
    <duration>128</duration>
    <instrument id="P2-I1" />
    <type>eighth</type>
    <staff>1</staff>
   </note>
   <backup>
    <duration>1024</duration>
   </backup>
   <note color="#000000" default-x="15" default-y="-25">
    <pitch>
     <step>C</step>
     <octave>4</octave>
    </pitch>
    <duration>384</duration>
    <instrument id="P2-I1" />
    <voice>2</voice>
    <type>quarter</type>
    <dot />
    <stem>down</stem>
    <staff>1</staff>
   </note>
   <note color="#000000" default-x="189" default-y="-25">
    <pitch>
     <step>C</step>
     <octave>4</octave>
    </pitch>
    <duration>128</duration>
    <instrument id="P2-I1" />
    <voice>2</voice>
    <type>eighth</type>
    <stem>down</stem>
    <staff>1</staff>
   </note>
   <note color="#000000" default-x="282" default-y="-20">
    <pitch>
     <step>C</step>
     <octave>4</octave>
    </pitch>
    <duration>128</duration>
    <instrument id="P2-I1" />
    <voice>2</voice>
    <type>eighth</type>
    <stem>down</stem>
    <staff>1</staff>
   </note>
   <note color="#000000" default-x="375" default-y="-20">
    <pitch>
     <step>B</step>
     <octave>3</octave>
    </pitch>
    <duration>128</duration>
    <instrument id="P2-I1" />
    <voice>2</voice>
    <type>eighth</type>
    <stem>down</stem>
    <staff>1</staff>
   </note>
  </measure>
  <!--============== Part: P2, Measure: 5 ==============-->
  <measure number="5" width="203">
   <note color="#000000" default-x="15" default-y="-45">
    <pitch>
     <step>F</step>
     <alter>1</alter>
     <octave>3</octave>
    </pitch>
    <duration>768</duration>
    <instrument id="P2-I1" />
    <voice>1</voice>
    <type>half</type>
    <dot />
    <stem>down</stem>
    <staff>1</staff>
   </note>
   <note color="#000000" default-x="15">
    <chord />
    <pitch>
     <step>D</step>
     <octave>4</octave>
    </pitch>
    <duration>512</duration>
    <instrument id="P2-I1" />
    <type>half</type>
    <dot />
    <staff>1</staff>
   </note>
   <barline>
    <bar-style>none</bar-style>
   </barline>
  </measure>
  <!--============== Part: P2, Measure: 6 ==============-->
  <measure number="6" width="180">
   <print new-system="yes">
    <system-layout>
     <system-margins>
      <left-margin>0</left-margin>
      <right-margin>0</right-margin>
     </system-margins>
    </system-layout>
    <staff-layout number="1">
     <staff-distance>169</staff-distance>
    </staff-layout>
   </print>
   <attributes>
    <staff-details number="1" print-object="yes" />
   </attributes>
   <note color="#000000" default-x="70" default-y="-45">
    <pitch>
     <step>F</step>
     <alter>1</alter>
     <octave>3</octave>
    </pitch>
    <duration>256</duration>
    <instrument id="P2-I1" />
    <voice>1</voice>
    <type>quarter</type>
    <stem>down</stem>
    <staff>1</staff>
   </note>
   <note color="#000000" default-x="70">
    <chord />
    <pitch>
     <step>A</step>
     <octave>3</octave>
    </pitch>
    <duration>256</duration>
    <instrument id="P2-I1" />
    <type>quarter</type>
    <staff>1</staff>
   </note>
  </measure>
  <!--============== Part: P2, Measure: 7 ==============-->
  <measure number="7" width="564">
   <note color="#000000" default-x="15" default-y="-40">
    <pitch>
     <step>G</step>
     <octave>3</octave>
    </pitch>
    <duration>384</duration>
    <instrument id="P2-I1" />
    <voice>1</voice>
    <type>quarter</type>
    <dot />
    <stem>down</stem>
    <staff>1</staff>
   </note>
   <note color="#000000" default-x="15">
    <chord />
    <pitch>
     <step>B</step>
     <octave>3</octave>
    </pitch>
    <duration>256</duration>
    <instrument id="P2-I1" />
    <type>quarter</type>
    <dot />
    <staff>1</staff>
   </note>
   <note color="#000000" default-x="164" default-y="-40">
    <pitch>
     <step>G</step>
     <octave>3</octave>
    </pitch>
    <duration>128</duration>
    <instrument id="P2-I1" />
    <voice>1</voice>
    <type>eighth</type>
    <stem>down</stem>
    <staff>1</staff>
   </note>
   <note color="#000000" default-x="164">
    <chord />
    <pitch>
     <step>B</step>
     <octave>3</octave>
    </pitch>
    <duration>128</duration>
    <instrument id="P2-I1" />
    <type>eighth</type>
    <staff>1</staff>
   </note>
   <note color="#000000" default-x="244" default-y="-20">
    <pitch>
     <step>F</step>
     <alter>1</alter>
     <octave>3</octave>
    </pitch>
    <duration>128</duration>
    <instrument id="P2-I1" />
    <voice>1</voice>
    <type>eighth</type>
    <stem>down</stem>
    <staff>1</staff>
   </note>
   <note color="#000000" default-x="244">
    <chord />
    <pitch>
     <step>B</step>
     <octave>3</octave>
    </pitch>
    <duration>128</duration>
    <instrument id="P2-I1" />
    <type>eighth</type>
    <staff>1</staff>
   </note>
   <note color="#000000" default-x="324" default-y="-20">
    <pitch>
     <step>F</step>
     <alter>1</alter>
     <octave>3</octave>
    </pitch>
    <duration>128</duration>
    <instrument id="P2-I1" />
    <voice>1</voice>
    <type>eighth</type>
    <stem>down</stem>
    <staff>1</staff>
   </note>
   <note color="#000000" default-x="324">
    <chord />
    <pitch>
     <step>B</step>
     <octave>3</octave>
    </pitch>
    <duration>128</duration>
    <instrument id="P2-I1" />
    <type>eighth</type>
    <staff>1</staff>
   </note>
   <note color="#000000" default-x="404" default-y="-20">
    <pitch>
     <step>B</step>
     <octave>2</octave>
    </pitch>
    <duration>128</duration>
    <instrument id="P2-I1" />
    <voice>1</voice>
    <type>eighth</type>
    <stem>down</stem>
    <staff>1</staff>
   </note>
   <note color="#000000" default-x="404">
    <chord />
    <pitch>
     <step>B</step>
     <octave>3</octave>
    </pitch>
    <duration>128</duration>
    <instrument id="P2-I1" />
    <type>eighth</type>
    <staff>1</staff>
   </note>
   <note color="#000000" default-x="484" default-y="-20">
    <pitch>
     <step>B</step>
     <octave>2</octave>
    </pitch>
    <duration>128</duration>
    <instrument id="P2-I1" />
    <voice>1</voice>
    <type>eighth</type>
    <stem>down</stem>
    <staff>1</staff>
   </note>
   <note color="#000000" default-x="484">
    <chord />
    <pitch>
     <step>B</step>
     <octave>3</octave>
    </pitch>
    <duration>128</duration>
    <instrument id="P2-I1" />
    <type>eighth</type>
    <staff>1</staff>
   </note>
  </measure>
  <!--============== Part: P2, Measure: 8 ==============-->
  <measure number="8" width="313">
   <note color="#000000" default-x="15" default-y="-50">
    <pitch>
     <step>E</step>
     <octave>3</octave>
    </pitch>
    <duration>768</duration>
    <instrument id="P2-I1" />
    <voice>1</voice>
    <type>half</type>
    <dot />
    <stem>down</stem>
    <staff>1</staff>
   </note>
   <note color="#000000" default-x="15">
    <chord />
    <pitch>
     <step>B</step>
     <octave>3</octave>
    </pitch>
    <duration>512</duration>
    <instrument id="P2-I1" />
    <type>half</type>
    <dot />
    <staff>1</staff>
   </note>
   <note color="#000000" default-x="234" default-y="-50">
    <pitch>
     <step>E</step>
     <octave>3</octave>
    </pitch>
    <duration>256</duration>
    <instrument id="P2-I1" />
    <voice>1</voice>
    <type>quarter</type>
    <stem>down</stem>
    <staff>1</staff>
   </note>
   <note color="#000000" default-x="234">
    <chord />
    <pitch>
     <step>G</step>
     <octave>3</octave>
    </pitch>
    <duration>256</duration>
    <instrument id="P2-I1" />
    <type>quarter</type>
    <staff>1</staff>
   </note>
  </measure>
  <!--============== Part: P2, Measure: 9 ==============-->
  <measure number="9" width="435">
   <print new-system="yes">
    <system-layout>
     <system-margins>
      <left-margin>0</left-margin>
      <right-margin>0</right-margin>
     </system-margins>
    </system-layout>
    <staff-layout number="1">
     <staff-distance>168</staff-distance>
    </staff-layout>
   </print>
   <attributes>
    <staff-details number="1" print-object="yes" />
   </attributes>
   <note color="#000000" default-x="73" default-y="-62">
    <pitch>
     <step>A</step>
     <octave>2</octave>
    </pitch>
    <duration>384</duration>
    <instrument id="P2-I1" />
    <voice>1</voice>
    <type>quarter</type>
    <dot />
    <stem>down</stem>
    <staff>1</staff>
   </note>
   <note color="#000000" default-x="73">
    <chord />
    <pitch>
     <step>G</step>
     <octave>3</octave>
    </pitch>
    <duration>256</duration>
    <instrument id="P2-I1" />
    <type>quarter</type>
    <dot />
    <staff>1</staff>
   </note>
   <note color="#000000" default-x="159" default-y="-62">
    <pitch>
     <step>A</step>
     <octave>2</octave>
    </pitch>
    <duration>128</duration>
    <instrument id="P2-I1" />
    <voice>1</voice>
    <type>eighth</type>
    <stem>down</stem>
    <staff>1</staff>
   </note>
   <note color="#000000" default-x="159">
    <chord />
    <pitch>
     <step>G</step>
     <octave>3</octave>
    </pitch>
    <duration>128</duration>
    <instrument id="P2-I1" />
    <type>eighth</type>
    <staff>1</staff>
   </note>
   <note color="#000000" default-x="212" default-y="-20">
    <pitch>
     <step>A</step>
     <octave>2</octave>
    </pitch>
    <duration>128</duration>
    <instrument id="P2-I1" />
    <voice>1</voice>
    <type>eighth</type>
    <stem>down</stem>
    <staff>1</staff>
   </note>
   <note color="#000000" default-x="212">
    <chord />
    <pitch>
     <step>G</step>
     <octave>3</octave>
    </pitch>
    <duration>128</duration>
    <instrument id="P2-I1" />
    <type>eighth</type>
    <staff>1</staff>
   </note>
   <note color="#000000" default-x="274" default-y="-20">
    <pitch>
     <step>A</step>
     <octave>2</octave>
    </pitch>
    <duration>128</duration>
    <instrument id="P2-I1" />
    <voice>1</voice>
    <type>eighth</type>
    <stem>down</stem>
    <staff>1</staff>
   </note>
   <note color="#000000" default-x="274">
    <chord />
    <pitch>
     <step>G</step>
     <octave>3</octave>
    </pitch>
    <duration>128</duration>
    <instrument id="P2-I1" />
    <type>eighth</type>
    <staff>1</staff>
   </note>
   <note color="#000000" default-x="337" default-y="-20">
    <pitch>
     <step>A</step>
     <octave>2</octave>
    </pitch>
    <duration>128</duration>
    <instrument id="P2-I1" />
    <voice>1</voice>
    <type>eighth</type>
    <stem>down</stem>
    <staff>1</staff>
   </note>
   <note color="#000000" default-x="337">
    <chord />
    <pitch>
     <step>A</step>
     <octave>3</octave>
    </pitch>
    <duration>128</duration>
    <instrument id="P2-I1" />
    <type>eighth</type>
    <staff>1</staff>
   </note>
   <note color="#000000" default-x="388" default-y="-20">
    <pitch>
     <step>A</step>
     <octave>2</octave>
    </pitch>
    <duration>128</duration>
    <instrument id="P2-I1" />
    <voice>1</voice>
    <type>eighth</type>
    <stem>down</stem>
    <staff>1</staff>
   </note>
   <note color="#000000" default-x="388">
    <chord />
    <pitch>
     <step>G</step>
     <octave>3</octave>
    </pitch>
    <duration>128</duration>
    <instrument id="P2-I1" />
    <type>eighth</type>
    <staff>1</staff>
   </note>
  </measure>
  <!--============== Part: P2, Measure: 10 ==============-->
  <measure number="10" width="279">
   <note color="#000000" default-x="15" default-y="-55">
    <pitch>
     <step>D</step>
     <octave>3</octave>
    </pitch>
    <duration>384</duration>
    <instrument id="P2-I1" />
    <voice>1</voice>
    <type>quarter</type>
    <dot />
    <stem>down</stem>
    <staff>1</staff>
   </note>
   <note color="#000000" default-x="15">
    <chord />
    <pitch>
     <step>G</step>
     <octave>3</octave>
    </pitch>
    <duration>256</duration>
    <instrument id="P2-I1" />
    <type>quarter</type>
    <dot />
    <staff>1</staff>
   </note>
   <note color="#000000" default-x="100" default-y="-55">
    <pitch>
     <step>D</step>
     <octave>3</octave>
    </pitch>
    <duration>128</duration>
    <instrument id="P2-I1" />
    <voice>1</voice>
    <type>eighth</type>
    <stem>down</stem>
    <staff>1</staff>
   </note>
   <note color="#000000" default-x="100">
    <chord />
    <pitch>
     <step>G</step>
     <octave>3</octave>
    </pitch>
    <duration>128</duration>
    <instrument id="P2-I1" />
    <type>eighth</type>
    <staff>1</staff>
   </note>
   <note color="#000000" default-x="151" default-y="-55">
    <pitch>
     <step>D</step>
     <octave>3</octave>
    </pitch>
    <duration>256</duration>
    <instrument id="P2-I1" />
    <voice>1</voice>
    <type>quarter</type>
    <stem>down</stem>
    <staff>1</staff>
   </note>
   <note color="#000000" default-x="151">
    <chord />
    <pitch>
     <step>A</step>
     <octave>3</octave>
    </pitch>
    <duration>256</duration>
    <instrument id="P2-I1" />
    <type>quarter</type>
    <staff>1</staff>
   </note>
   <note color="#000000" default-x="215" default-y="-55">
    <pitch>
     <step>D</step>
     <octave>3</octave>
    </pitch>
    <duration>256</duration>
    <instrument id="P2-I1" />
    <voice>1</voice>
    <type>quarter</type>
    <stem>down</stem>
    <staff>1</staff>
   </note>
   <note color="#000000" default-x="215">
    <chord />
    <pitch>
     <step>B</step>
     <octave>3</octave>
    </pitch>
    <duration>256</duration>
    <instrument id="P2-I1" />
    <type>quarter</type>
    <staff>1</staff>
   </note>
  </measure>
  <!--============== Part: P2, Measure: 11 ==============-->
  <measure number="11" width="231">
   <note color="#000000" default-x="15" default-y="-55">
    <pitch>
     <step>D</step>
     <octave>3</octave>
    </pitch>
    <duration>512</duration>
    <instrument id="P2-I1" />
    <voice>1</voice>
    <type>half</type>
    <stem>down</stem>
    <staff>1</staff>
   </note>
   <note color="#000000" default-x="15">
    <chord />
    <pitch>
     <step>D</step>
     <octave>4</octave>
    </pitch>
    <duration>512</duration>
    <instrument id="P2-I1" />
    <type>half</type>
    <staff>1</staff>
   </note>
   <note color="#000000" default-x="123" default-y="-55">
    <pitch>
     <step>D</step>
     <octave>3</octave>
    </pitch>
    <duration>512</duration>
    <instrument id="P2-I1" />
    <voice>1</voice>
    <type>half</type>
    <stem>down</stem>
    <staff>1</staff>
   </note>
   <note color="#000000" default-x="123">
    <chord />
    <pitch>
     <step>C</step>
     <octave>4</octave>
    </pitch>
    <duration>512</duration>
    <instrument id="P2-I1" />
    <type>half</type>
    <staff>1</staff>
   </note>
  </measure>
  <!--============== Part: P2, Measure: 12 ==============-->
  <measure number="12" width="113">
   <note color="#000000" default-x="15" default-y="-67">
    <pitch>
     <step>G</step>
     <octave>2</octave>
    </pitch>
    <duration>768</duration>
    <instrument id="P2-I1" />
    <voice>1</voice>
    <type>half</type>
    <dot />
    <stem>down</stem>
    <staff>1</staff>
   </note>
   <note color="#000000" default-x="15">
    <chord />
    <pitch>
     <step>B</step>
     <octave>3</octave>
    </pitch>
    <duration>512</duration>
    <instrument id="P2-I1" />
    <type>half</type>
    <dot />
    <staff>1</staff>
   </note>
   <barline>
    <bar-style>light-heavy</bar-style>
   </barline>
  </measure>
 </part>
</score-partwise>
