<?xml version="1.0" encoding="UTF-8" standalone="no"?>
<!DOCTYPE score-partwise PUBLIC "-//Recordare//DTD MusicXML 2.0 Partwise//EN" "http://www.musicxml.org/dtds/partwise.dtd">
<score-partwise version="2.0">
	<work>
		<work-title>I will not let Thee go</work-title>
	</work>
	<identification>
		<creator type="composer">Tenax
12.4.4.10.6.6.10.6
            /</creator>
		<creator type="poet">A. Beer, 1874-</creator>
		<encoding>
			<software>PDFtoMusic Pro v1.6.5 Build 1B9E7 (c) Myriad - http://www.myriad-online.com</software>
			<?PDFtoMusic Document type 0100- 00000000?>
			<supports attribute="new-system" element="print" type="yes" value="yes"/>
			<supports attribute="new-page" element="print" type="yes" value="yes"/>
		</encoding>
	</identification>
	<defaults>
		<scaling>
			<millimeters>6.603995</millimeters>
			<tenths>40</tenths>
		</scaling>
		<page-layout>
			<page-height>1692.309</page-height>
			<page-width>1307.693</page-width>
			<page-margins type="both">
				<left-margin>60.569</left-margin>
				<right-margin>60.569</right-margin>
				<top-margin>60.569</top-margin>
				 <bottom-margin>60.569</bottom-margin>
			</page-margins>
		</page-layout>
		<appearance>
			<line-width type="stem">0.2564</line-width>
			<line-width type="staff">0.7692</line-width>
			<line-width type="light barline">0.3623</line-width>
			<line-width type="heavy barline">4.8718</line-width>
			<line-width type="leger">0.7692</line-width>
			<line-width type="ending">0.6410</line-width>
			<note-size type="grace">74.7864</note-size>
			<note-size type="cue">74.7864</note-size>
		</appearance>
	</defaults>
	<credit page="1">
		<credit-words  default-x="76.667" default-y="1598.462" justify="left" valign="baseline" font-family="Times New Roman" font-size="9" font-weight="normal" font-style="normal">A. Beer, 1874-</credit-words>
	</credit>
	<credit page="1">
		<credit-words  default-x="138.204" default-y="378.718" justify="left" valign="baseline" font-family="Times New Roman" font-size="9" font-weight="bold" font-style="normal">I will not let Thee go; should I forsake my bliss?
No, Lord, Thou'rt mine,
And I am Thine,
Thee will I hold when all things else I miss.
Though dark and sad the night,
Joy cometh with Thy light,
O Thou my Sun; should I forsake my bliss?
I will not let Thee go!</credit-words>
	</credit>
	<credit page="1">
		<credit-words  default-x="504.103" default-y="1630.513" justify="left" valign="baseline" font-family="Times New Roman" font-size="16" font-weight="bold" font-style="normal">I will not let Thee go</credit-words>
	</credit>
	<credit page="1">
		<credit-words  default-x="542.052" default-y="50.513" justify="left" valign="baseline" font-family="Times New Roman" font-size="9" font-weight="normal" font-style="normal">www.smallchurchmusic.com</credit-words>
	</credit>
	<credit page="1">
		<credit-words  default-x="840.770" default-y="251.795" justify="left" valign="baseline" font-family="Times New Roman" font-size="9" font-weight="normal" font-style="normal">Wolfgang Christoph Dessler</credit-words>
	</credit>
	<credit page="1">
		<credit-words  default-x="926.923" default-y="1576.924" justify="left" valign="baseline" font-family="Times New Roman" font-size="9" font-weight="bold" font-style="normal">/</credit-words>
	</credit>
	<credit page="1">
		<credit-words  default-x="1089.488" default-y="1617.437" justify="left" valign="baseline" font-family="Times New Roman" font-size="9" font-weight="normal" font-style="normal">Tenax
12.4.4.10.6.6.10.6
</credit-words>
		<credit-words   justify="left" valign="baseline" font-family="Times New Roman" font-size="9" font-weight="bold" font-style="normal">            /</credit-words>
	</credit>
	<part-list>
		<score-part id="P1">
			<part-name></part-name>
			<score-instrument id="P1-I1">
				<instrument-name>Instrument 1</instrument-name>
			</score-instrument>
			<midi-instrument id="P1-I1">
				<midi-channel>1</midi-channel>
				<midi-bank>1</midi-bank>
				<midi-program>1</midi-program>
				<volume>50</volume>
				<pan>0</pan>
				<elevation>0</elevation>
				<?Myriad
				<iddigit>0</iddigit>
				?>
			</midi-instrument>
		</score-part>
	</part-list>
	<part id="P1">
		<!--==========================[1,1]=============================-->
		<measure number="1" width="137">
			<print new-page="yes">
				<system-layout>
					<system-margins>
						<left-margin>29.302</left-margin>
						<right-margin>16.026</right-margin>
					</system-margins>
					<top-system-distance>70.072</top-system-distance>
				</system-layout>
				<staff-layout number="2">
					<staff-distance>66.923</staff-distance>
				</staff-layout>
			</print>
			<attributes>
				<divisions>6720</divisions>
				<key>
					<fifths>-3</fifths>
					<mode>major</mode>
				</key>
				<staves>2</staves>
				<clef number="1">
					<sign>G</sign>
					<line>2</line>
				</clef>
				<clef number="2">
					<sign>F</sign>
					<line>4</line>
				</clef>
				<staff-details number="1" print-object="yes">
					<staff-lines>5</staff-lines>
					<staff-size>100.00</staff-size>
				</staff-details>
				<staff-details number="2" print-object="yes">
					<staff-lines>5</staff-lines>
					<staff-size>100.00</staff-size>
				</staff-details>
			</attributes>
			<note>
				<pitch>
					<step>E</step>
					<alter>-1</alter>
					<octave>3</octave>
				</pitch>
				<duration>13440</duration>
				<voice>4</voice>
				<type>half</type>
				<stem default-y="-55.13">down</stem>
				<staff>2</staff>
			</note>
			<note>
				<chord/>
				<pitch>
					<step>C</step>
					<octave>3</octave>
				</pitch>
				<duration>13440</duration>
				<voice>4</voice>
				<type>half</type>
				<stem default-y="-55.13">down</stem>
				<staff>2</staff>
			</note>
			<backup>
				<duration>13440</duration>
			</backup>
			<note>
				<pitch>
					<step>C</step>
					<octave>4</octave>
				</pitch>
				<duration>13440</duration>
				<voice>1</voice>
				<type>half</type>
				<stem default-y="-14.87">up</stem>
				<staff>1</staff>
			</note>
		</measure>
		<!--==========================[1,2]=============================-->
		<measure number="2" width="229">
			<note>
				<pitch>
					<step>C</step>
					<octave>3</octave>
				</pitch>
				<duration>13440</duration>
				<voice>1</voice>
				<type>half</type>
				<stem default-y="-55.13">down</stem>
				<staff>2</staff>
			</note>
			<note>
				<chord/>
				<pitch>
					<step>G</step>
					<octave>3</octave>
				</pitch>
				<duration>13440</duration>
				<voice>1</voice>
				<type>half</type>
				<stem default-y="-55.13">down</stem>
				<staff>2</staff>
			</note>
			<note>
				<pitch>
					<step>G</step>
					<octave>3</octave>
				</pitch>
				<duration>13440</duration>
				<voice>1</voice>
				<type>half</type>
				<stem default-y="-50.26">down</stem>
				<staff>2</staff>
			</note>
			<note>
				<chord/>
				<pitch>
					<step>E</step>
					<alter>-1</alter>
					<octave>3</octave>
				</pitch>
				<duration>13440</duration>
				<voice>1</voice>
				<type>half</type>
				<stem default-y="-50.26">down</stem>
				<staff>2</staff>
			</note>
			<note>
				<pitch>
					<step>F</step>
					<octave>3</octave>
				</pitch>
				<duration>13440</duration>
				<voice>1</voice>
				<type>half</type>
				<stem default-y="-45.13">down</stem>
				<staff>2</staff>
			</note>
			<forward>
				<duration>6720</duration>
			</forward>
			<note>
				<pitch>
					<step>C</step>
					<octave>4</octave>
				</pitch>
				<duration>13440</duration>
				<voice>1</voice>
				<type>half</type>
				<stem default-y="-50.26">down</stem>
				<staff>2</staff>
			</note>
			<note>
				<chord/>
				<pitch>
					<step>E</step>
					<alter>-1</alter>
					<octave>3</octave>
				</pitch>
				<duration>13440</duration>
				<voice>1</voice>
				<type>half</type>
				<stem default-y="-50.26">down</stem>
				<staff>2</staff>
			</note>
			<backup>
				<duration>60480</duration>
			</backup>
			<note>
				<pitch>
					<step>C</step>
					<octave>4</octave>
				</pitch>
				<duration>13440</duration>
				<voice>2</voice>
				<type>half</type>
				<stem default-y="-4.87">up</stem>
				<staff>1</staff>
			</note>
			<note>
				<chord/>
				<pitch>
					<step>E</step>
					<alter>-1</alter>
					<octave>4</octave>
				</pitch>
				<duration>13440</duration>
				<voice>2</voice>
				<type>half</type>
				<stem default-y="-4.87">up</stem>
				<staff>1</staff>
			</note>
			<note>
				<pitch>
					<step>G</step>
					<octave>4</octave>
				</pitch>
				<duration>13440</duration>
				<voice>2</voice>
				<type>half</type>
				<stem default-y="4.87">up</stem>
				<staff>1</staff>
			</note>
			<note>
				<chord/>
				<pitch>
					<step>C</step>
					<octave>4</octave>
				</pitch>
				<duration>13440</duration>
				<voice>2</voice>
				<type>half</type>
				<stem default-y="4.87">up</stem>
				<staff>1</staff>
			</note>
			<note>
				<pitch>
					<step>C</step>
					<octave>4</octave>
				</pitch>
				<duration>6720</duration>
				<voice>2</voice>
				<type>quarter</type>
				<stem default-y="-75.13">down</stem>
				<staff>1</staff>
			</note>
			<backup>
				<duration>6720</duration>
			</backup>
			<note>
				<pitch>
					<step>A</step>
					<alter>-1</alter>
					<octave>4</octave>
				</pitch>
				<duration>13440</duration>
				<voice>3</voice>
				<type>half</type>
				<stem default-y="10.00">up</stem>
				<staff>1</staff>
			</note>
			<note>
				<pitch>
					<step>D</step>
					<octave>4</octave>
				</pitch>
				<duration>6720</duration>
				<voice>1</voice>
				<type>quarter</type>
				<stem default-y="-70.26">down</stem>
				<staff>1</staff>
			</note>
			<note>
				<pitch>
					<step>E</step>
					<alter>-1</alter>
					<octave>4</octave>
				</pitch>
				<duration>13440</duration>
				<voice>2</voice>
				<type>half</type>
				<stem default-y="4.87">up</stem>
				<staff>1</staff>
			</note>
			<note>
				<chord/>
				<pitch>
					<step>G</step>
					<octave>4</octave>
				</pitch>
				<duration>13440</duration>
				<voice>2</voice>
				<type>half</type>
				<stem default-y="4.87">up</stem>
				<staff>1</staff>
			</note>
		</measure>
		<!--==========================[1,3]=============================-->
		<measure number="3" width="208">
			<note>
				<pitch>
					<step>A</step>
					<alter>-1</alter>
					<octave>3</octave>
				</pitch>
				<duration>13440</duration>
				<voice>4</voice>
				<type>half</type>
				<stem default-y="-35.13">down</stem>
				<staff>2</staff>
			</note>
			<note>
				<chord/>
				<pitch>
					<step>C</step>
					<octave>4</octave>
				</pitch>
				<duration>13440</duration>
				<voice>4</voice>
				<type>half</type>
				<stem default-y="-35.13">down</stem>
				<staff>2</staff>
			</note>
			<note>
				<pitch>
					<step>A</step>
					<alter>-1</alter>
					<octave>3</octave>
				</pitch>
				<duration>13440</duration>
				<voice>4</voice>
				<type>half</type>
				<stem default-y="-45.13">down</stem>
				<staff>2</staff>
			</note>
			<note>
				<chord/>
				<pitch>
					<step>F</step>
					<octave>3</octave>
				</pitch>
				<duration>13440</duration>
				<voice>4</voice>
				<type>half</type>
				<stem default-y="-45.13">down</stem>
				<staff>2</staff>
			</note>
			<note>
				<pitch>
					<step>G</step>
					<octave>3</octave>
				</pitch>
				<duration>13440</duration>
				<voice>4</voice>
				<type>half</type>
				<stem default-y="-40.26">down</stem>
				<staff>2</staff>
			</note>
			<note>
				<pitch>
					<step>G</step>
					<octave>3</octave>
				</pitch>
				<duration>13440</duration>
				<voice>4</voice>
				<type>half</type>
				<stem default-y="-50.26">down</stem>
				<staff>2</staff>
			</note>
			<note>
				<chord/>
				<pitch>
					<step>E</step>
					<alter>-1</alter>
					<octave>3</octave>
				</pitch>
				<duration>13440</duration>
				<voice>4</voice>
				<type>half</type>
				<stem default-y="-50.26">down</stem>
				<staff>2</staff>
			</note>
			<backup>
				<duration>53760</duration>
			</backup>
			<note>
				<pitch>
					<step>F</step>
					<octave>4</octave>
				</pitch>
				<duration>13440</duration>
				<voice>1</voice>
				<type>half</type>
				<stem default-y="0.00">up</stem>
				<staff>1</staff>
			</note>
			<note>
				<pitch>
					<step>F</step>
					<octave>4</octave>
				</pitch>
				<duration>13440</duration>
				<voice>1</voice>
				<type>half</type>
				<stem default-y="14.87">up</stem>
				<staff>1</staff>
			</note>
			<note>
				<chord/>
				<pitch>
					<step>C</step>
					<octave>5</octave>
				</pitch>
				<duration>13440</duration>
				<voice>1</voice>
				<type>half</type>
				<stem default-y="14.87">up</stem>
				<staff>1</staff>
			</note>
			<note>
				<pitch>
					<step>B</step>
					<octave>4</octave>
				</pitch>
				<duration>13440</duration>
				<voice>1</voice>
				<type>half</type>
				<accidental>natural</accidental>
				<stem default-y="10.00">up</stem>
				<staff>1</staff>
			</note>
			<note>
				<chord/>
				<pitch>
					<step>D</step>
					<octave>4</octave>
				</pitch>
				<duration>13440</duration>
				<voice>1</voice>
				<type>half</type>
				<stem default-y="10.00">up</stem>
				<staff>1</staff>
			</note>
			<note>
				<pitch>
					<step>C</step>
					<octave>5</octave>
				</pitch>
				<duration>13440</duration>
				<voice>1</voice>
				<type>half</type>
				<stem default-y="19.59">up</stem>
				<staff>1</staff>
			</note>
			<note>
				<chord/>
				<pitch>
					<step>C</step>
					<octave>4</octave>
				</pitch>
				<duration>13440</duration>
				<voice>1</voice>
				<type>half</type>
				<stem default-y="14.87">up</stem>
				<staff>1</staff>
			</note>
		</measure>
		<!--==========================[1,4]=============================-->
		<measure number="4" width="208">
			<note>
				<pitch>
					<step>C</step>
					<octave>4</octave>
				</pitch>
				<duration>13440</duration>
				<voice>1</voice>
				<type>half</type>
				<stem default-y="-75.13">down</stem>
				<staff>1</staff>
			</note>
			<backup>
				<duration>13440</duration>
			</backup>
			<note>
				<cue/>
				<pitch>
					<step>A</step>
					<alter>-1</alter>
					<octave>4</octave>
				</pitch>
				<duration>26880</duration>
				<voice>2</voice>
				<type>whole</type>
				<stem>none</stem>
				<staff>1</staff>
			</note>
			<forward>
				<duration>13440</duration>
			</forward>
			<note>
				<pitch>
					<step>E</step>
					<alter>-1</alter>
					<octave>4</octave>
				</pitch>
				<duration>13440</duration>
				<voice>1</voice>
				<type>half</type>
				<stem default-y="-65.13">down</stem>
				<staff>1</staff>
			</note>
			<note>
				<grace/>
				<pitch>
					<step>D</step>
					<octave>4</octave>
				</pitch>
				<voice>1</voice>
				<type>whole</type>
				<stem>none</stem>
				<staff>1</staff>
			</note>
			<note>
				<pitch>
					<step>G</step>
					<octave>4</octave>
				</pitch>
				<duration>13440</duration>
				<voice>1</voice>
				<type>half</type>
				<stem default-y="4.87">up</stem>
				<staff>1</staff>
			</note>
			<note>
				<pitch>
					<step>F</step>
					<octave>4</octave>
				</pitch>
				<duration>13440</duration>
				<voice>1</voice>
				<type>half</type>
				<stem default-y="0.00">up</stem>
				<staff>1</staff>
			</note>
			<backup>
				<duration>53760</duration>
			</backup>
			<note>
				<cue/>
				<pitch>
					<step>F</step>
					<octave>3</octave>
				</pitch>
				<duration>26880</duration>
				<voice>5</voice>
				<type>whole</type>
				<stem>none</stem>
				<staff>2</staff>
			</note>
			<note>
				<pitch>
					<step>A</step>
					<alter>-1</alter>
					<octave>3</octave>
				</pitch>
				<duration>13440</duration>
				<voice>4</voice>
				<type>half</type>
				<stem default-y="24.87">up</stem>
				<staff>2</staff>
			</note>
			<note>
				<pitch>
					<step>C</step>
					<octave>4</octave>
				</pitch>
				<duration>13440</duration>
				<voice>4</voice>
				<type>half</type>
				<stem default-y="34.87">up</stem>
				<staff>2</staff>
			</note>
			<note>
				<cue/>
				<pitch>
					<step>B</step>
					<alter>-1</alter>
					<octave>2</octave>
				</pitch>
				<duration>26880</duration>
				<voice>5</voice>
				<type>whole</type>
				<stem>none</stem>
				<staff>2</staff>
			</note>
			<note>
				<pitch>
					<step>B</step>
					<alter>-1</alter>
					<octave>3</octave>
				</pitch>
				<duration>13440</duration>
				<voice>4</voice>
				<type>half</type>
				<stem default-y="30.00">up</stem>
				<staff>2</staff>
			</note>
			<note>
				<pitch>
					<step>A</step>
					<alter>-1</alter>
					<octave>3</octave>
				</pitch>
				<duration>13440</duration>
				<voice>4</voice>
				<type>half</type>
				<stem default-y="24.87">up</stem>
				<staff>2</staff>
			</note>
		</measure>
		<!--==========================[1,5]=============================-->
		<measure number="5" width="141">
			<note>
				<grace/>
				<pitch>
					<step>E</step>
					<alter>-1</alter>
					<octave>3</octave>
				</pitch>
				<voice>4</voice>
				<type>whole</type>
				<dot/>
				<stem>none</stem>
				<staff>2</staff>
			</note>
			<note>
				<grace/>
				<chord/>
				<pitch>
					<step>G</step>
					<octave>3</octave>
				</pitch>
				<voice>4</voice>
				<type>whole</type>
				<dot/>
				<stem>none</stem>
				<staff>2</staff>
			</note>
			<note>
				<pitch>
					<step>G</step>
					<octave>3</octave>
				</pitch>
				<duration>13440</duration>
				<voice>4</voice>
				<type>half</type>
				<stem default-y="-50.26">down</stem>
				<staff>2</staff>
			</note>
			<note>
				<chord/>
				<pitch>
					<step>E</step>
					<alter>-1</alter>
					<octave>3</octave>
				</pitch>
				<duration>13440</duration>
				<voice>4</voice>
				<type>half</type>
				<stem default-y="-50.26">down</stem>
				<staff>2</staff>
			</note>
			<backup>
				<duration>13440</duration>
			</backup>
			<note>
				<grace/>
				<pitch>
					<step>B</step>
					<alter>-1</alter>
					<octave>3</octave>
				</pitch>
				<voice>1</voice>
				<type>whole</type>
				<dot/>
				<stem>none</stem>
				<staff>1</staff>
			</note>
			<note>
				<grace/>
				<chord/>
				<pitch>
					<step>E</step>
					<alter>-1</alter>
					<octave>4</octave>
				</pitch>
				<voice>1</voice>
				<type>whole</type>
				<dot/>
				<stem>none</stem>
				<staff>1</staff>
			</note>
			<note>
				<pitch>
					<step>B</step>
					<alter>-1</alter>
					<octave>3</octave>
				</pitch>
				<duration>13440</duration>
				<voice>1</voice>
				<type>half</type>
				<stem default-y="-4.87">up</stem>
				<staff>1</staff>
			</note>
			<note>
				<chord/>
				<pitch>
					<step>E</step>
					<alter>-1</alter>
					<octave>4</octave>
				</pitch>
				<duration>13440</duration>
				<voice>1</voice>
				<type>half</type>
				<stem default-y="-4.87">up</stem>
				<staff>1</staff>
			</note>
		</measure>
		<!--==========================[1,6]=============================-->
		<measure number="6" width="214">
			<note>
				<pitch>
					<step>E</step>
					<alter>-1</alter>
					<octave>3</octave>
				</pitch>
				<duration>13440</duration>
				<voice>4</voice>
				<type>half</type>
				<stem default-y="-50.26">down</stem>
				<staff>2</staff>
			</note>
			<note>
				<chord/>
				<pitch>
					<step>G</step>
					<octave>3</octave>
				</pitch>
				<duration>13440</duration>
				<voice>4</voice>
				<type>half</type>
				<stem default-y="-50.26">down</stem>
				<staff>2</staff>
			</note>
			<note>
				<pitch>
					<step>D</step>
					<octave>3</octave>
				</pitch>
				<duration>13440</duration>
				<voice>4</voice>
				<type>half</type>
				<stem default-y="-50.26">down</stem>
				<staff>2</staff>
			</note>
			<note>
				<chord/>
				<pitch>
					<step>F</step>
					<alter>1</alter>
					<octave>3</octave>
				</pitch>
				<duration>13440</duration>
				<voice>4</voice>
				<type>half</type>
				<accidental>sharp</accidental>
				<stem default-y="-50.26">down</stem>
				<staff>2</staff>
			</note>
			<note>
				<pitch>
					<step>G</step>
					<octave>3</octave>
				</pitch>
				<duration>13440</duration>
				<voice>4</voice>
				<type>half</type>
				<stem default-y="29.59">up</stem>
				<staff>2</staff>
			</note>
			<note>
				<chord/>
				<pitch>
					<step>G</step>
					<octave>2</octave>
				</pitch>
				<duration>13440</duration>
				<voice>4</voice>
				<type>half</type>
				<stem default-y="20.00">up</stem>
				<staff>2</staff>
			</note>
			<note>
				<pitch>
					<step>B</step>
					<alter>-1</alter>
					<octave>3</octave>
				</pitch>
				<duration>13440</duration>
				<voice>4</voice>
				<type>half</type>
				<stem default-y="-40.26">down</stem>
				<staff>2</staff>
			</note>
			<note>
				<chord/>
				<pitch>
					<step>G</step>
					<octave>3</octave>
				</pitch>
				<duration>13440</duration>
				<voice>4</voice>
				<type>half</type>
				<stem default-y="-40.26">down</stem>
				<staff>2</staff>
			</note>
			<backup>
				<duration>53760</duration>
			</backup>
			<note>
				<pitch>
					<step>B</step>
					<alter>-1</alter>
					<octave>3</octave>
				</pitch>
				<duration>13440</duration>
				<voice>1</voice>
				<type>half</type>
				<stem default-y="4.87">up</stem>
				<staff>1</staff>
			</note>
			<note>
				<chord/>
				<pitch>
					<step>G</step>
					<octave>4</octave>
				</pitch>
				<duration>13440</duration>
				<voice>1</voice>
				<type>half</type>
				<stem default-y="4.87">up</stem>
				<staff>1</staff>
			</note>
			<note>
				<pitch>
					<step>C</step>
					<octave>4</octave>
				</pitch>
				<duration>13440</duration>
				<voice>1</voice>
				<type>half</type>
				<stem default-y="10.00">up</stem>
				<staff>1</staff>
			</note>
			<note>
				<chord/>
				<pitch>
					<step>A</step>
					<octave>4</octave>
				</pitch>
				<duration>13440</duration>
				<voice>1</voice>
				<type>half</type>
				<accidental>natural</accidental>
				<stem default-y="10.00">up</stem>
				<staff>1</staff>
			</note>
			<note>
				<pitch>
					<step>B</step>
					<alter>-1</alter>
					<octave>4</octave>
				</pitch>
				<duration>13440</duration>
				<voice>1</voice>
				<type>half</type>
				<stem default-y="14.98">up</stem>
				<staff>1</staff>
			</note>
			<note>
				<chord/>
				<pitch>
					<step>B</step>
					<alter>-1</alter>
					<octave>3</octave>
				</pitch>
				<duration>13440</duration>
				<voice>1</voice>
				<type>half</type>
				<stem default-y="10.00">up</stem>
				<staff>1</staff>
			</note>
			<note>
				<pitch>
					<step>G</step>
					<octave>4</octave>
				</pitch>
				<duration>13440</duration>
				<voice>1</voice>
				<type>half</type>
				<stem default-y="4.87">up</stem>
				<staff>1</staff>
			</note>
			<note>
				<chord/>
				<pitch>
					<step>D</step>
					<octave>4</octave>
				</pitch>
				<duration>13440</duration>
				<voice>1</voice>
				<type>half</type>
				<stem default-y="4.87">up</stem>
				<staff>1</staff>
			</note>
		</measure>
		<!--==========================[1,7]=============================-->
		<measure number="7" width="281">
			<print new-system="yes">
				<system-layout>
					<system-margins>
						<left-margin>29.302</left-margin>
						<right-margin>16.026</right-margin>
					</system-margins>
					<system-distance>73.333</system-distance>
				</system-layout>
				<staff-layout number="2">
					<staff-distance>66.410</staff-distance>
				</staff-layout>
			</print>
			<attributes>
				<staff-details number="1" print-object="yes">
				</staff-details>
				<staff-details number="2" print-object="yes">
				</staff-details>
			</attributes>
			<note>
				<pitch>
					<step>F</step>
					<octave>3</octave>
				</pitch>
				<duration>13440</duration>
				<voice>4</voice>
				<type>half</type>
				<stem default-y="-45.13">down</stem>
				<staff>2</staff>
			</note>
			<note>
				<chord/>
				<pitch>
					<step>D</step>
					<octave>4</octave>
				</pitch>
				<duration>13440</duration>
				<voice>4</voice>
				<type>half</type>
				<stem default-y="-45.13">down</stem>
				<staff>2</staff>
			</note>
			<note>
				<pitch>
					<step>F</step>
					<octave>3</octave>
				</pitch>
				<duration>13440</duration>
				<voice>4</voice>
				<type>half</type>
				<stem default-y="-45.13">down</stem>
				<staff>2</staff>
			</note>
			<note>
				<chord/>
				<pitch>
					<step>A</step>
					<octave>3</octave>
				</pitch>
				<duration>13440</duration>
				<voice>4</voice>
				<type>half</type>
				<accidental>natural</accidental>
				<stem default-y="-45.13">down</stem>
				<staff>2</staff>
			</note>
			<note>
				<pitch>
					<step>B</step>
					<alter>-1</alter>
					<octave>3</octave>
				</pitch>
				<duration>13440</duration>
				<voice>4</voice>
				<type>half</type>
				<stem default-y="-55.13">down</stem>
				<staff>2</staff>
			</note>
			<note>
				<chord/>
				<pitch>
					<step>B</step>
					<alter>-1</alter>
					<octave>2</octave>
				</pitch>
				<duration>13440</duration>
				<voice>4</voice>
				<type>half</type>
				<stem default-y="-62.46">down</stem>
				<staff>2</staff>
			</note>
			<note>
				<pitch>
					<step>D</step>
					<octave>3</octave>
				</pitch>
				<duration>6720</duration>
				<voice>4</voice>
				<type>quarter</type>
				<stem default-y="-50.26">down</stem>
				<staff>2</staff>
			</note>
			<backup>
				<duration>6720</duration>
			</backup>
			<note>
				<pitch>
					<step>F</step>
					<alter>1</alter>
					<octave>3</octave>
				</pitch>
				<duration>13440</duration>
				<voice>4</voice>
				<type>half</type>
				<accidental>sharp</accidental>
				<stem default-y="14.87">up</stem>
				<staff>2</staff>
			</note>
			<note>
				<pitch>
					<step>C</step>
					<octave>3</octave>
				</pitch>
				<duration>6720</duration>
				<voice>4</voice>
				<type>quarter</type>
				<stem default-y="-55.13">down</stem>
				<staff>2</staff>
			</note>
			<backup>
				<duration>60480</duration>
			</backup>
			<note>
				<pitch>
					<step>F</step>
					<octave>4</octave>
				</pitch>
				<duration>20160</duration>
				<voice>2</voice>
				<type>half</type>
				<dot/>
				<stem default-y="-60.26">down</stem>
				<staff>1</staff>
			</note>
			<backup>
				<duration>20160</duration>
			</backup>
			<note>
				<pitch>
					<step>B</step>
					<alter>-1</alter>
					<octave>4</octave>
				</pitch>
				<duration>13440</duration>
				<voice>1</voice>
				<type>half</type>
				<stem default-y="10.00">up</stem>
				<staff>1</staff>
			</note>
			<note>
				<pitch>
					<step>C</step>
					<octave>5</octave>
				</pitch>
				<duration>13440</duration>
				<voice>1</voice>
				<type>half</type>
				<stem default-y="14.87">up</stem>
				<staff>1</staff>
			</note>
			<backup>
				<duration>6720</duration>
			</backup>
			<note>
				<pitch>
					<step>E</step>
					<alter>-1</alter>
					<octave>4</octave>
				</pitch>
				<duration>6720</duration>
				<voice>2</voice>
				<type>quarter</type>
				<stem default-y="-65.13">down</stem>
				<staff>1</staff>
			</note>
			<forward>
				<duration>8400</duration>
			</forward>
			<direction placement="above">
				<direction-type>
					<words font-family="Times New Roman" font-size="9" font-weight="bold" font-style="normal" relative-x="0.00" default-y="15.51">/</words>
				</direction-type>
				<staff>1</staff>
			</direction>
			<backup>
				<duration>8400</duration>
			</backup>
			<note>
				<pitch>
					<step>D</step>
					<octave>5</octave>
				</pitch>
				<duration>13440</duration>
				<voice>1</voice>
				<type>half</type>
				<stem default-y="24.98">up</stem>
				<staff>1</staff>
			</note>
			<note>
				<chord/>
				<pitch>
					<step>D</step>
					<octave>4</octave>
				</pitch>
				<duration>13440</duration>
				<voice>1</voice>
				<type>half</type>
				<stem default-y="14.87">up</stem>
				<staff>1</staff>
			</note>
			<note>
				<pitch>
					<step>D</step>
					<octave>4</octave>
				</pitch>
				<duration>13440</duration>
				<voice>1</voice>
				<type>half</type>
				<stem default-y="-10.00">up</stem>
				<staff>1</staff>
			</note>
			<note>
				<chord/>
				<pitch>
					<step>A</step>
					<octave>3</octave>
				</pitch>
				<duration>13440</duration>
				<voice>1</voice>
				<type>half</type>
				<accidental>natural</accidental>
				<stem default-y="-10.00">up</stem>
				<staff>1</staff>
			</note>
		</measure>
		<!--==========================[1,8]=============================-->
		<measure number="8" width="172">
			<note>
				<pitch>
					<step>B</step>
					<alter>-1</alter>
					<octave>2</octave>
				</pitch>
				<duration>13440</duration>
				<voice>4</voice>
				<type>half</type>
				<stem default-y="-55.13">down</stem>
				<staff>2</staff>
			</note>
			<note>
				<chord/>
				<pitch>
					<step>G</step>
					<octave>3</octave>
				</pitch>
				<duration>13440</duration>
				<voice>4</voice>
				<type>half</type>
				<stem default-y="-55.13">down</stem>
				<staff>2</staff>
			</note>
			<note>
				<pitch>
					<step>G</step>
					<octave>2</octave>
				</pitch>
				<duration>13440</duration>
				<voice>4</voice>
				<type>half</type>
				<stem default-y="20.00">up</stem>
				<staff>2</staff>
			</note>
			<note>
				<chord/>
				<pitch>
					<step>G</step>
					<octave>3</octave>
				</pitch>
				<duration>13440</duration>
				<voice>4</voice>
				<type>half</type>
				<stem default-y="29.59">up</stem>
				<staff>2</staff>
			</note>
			<note>
				<pitch>
					<step>F</step>
					<alter>1</alter>
					<octave>3</octave>
				</pitch>
				<duration>13440</duration>
				<voice>4</voice>
				<type>half</type>
				<accidental>sharp</accidental>
				<stem default-y="14.98">up</stem>
				<staff>2</staff>
			</note>
			<note>
				<chord/>
				<pitch>
					<step>A</step>
					<octave>2</octave>
				</pitch>
				<duration>13440</duration>
				<voice>4</voice>
				<type>half</type>
				<accidental>natural</accidental>
				<stem default-y="14.87">up</stem>
				<staff>2</staff>
			</note>
			<note>
				<pitch>
					<step>A</step>
					<octave>3</octave>
				</pitch>
				<duration>13440</duration>
				<voice>4</voice>
				<type>half</type>
				<accidental>natural</accidental>
				<stem default-y="-55.13">down</stem>
				<staff>2</staff>
			</note>
			<note>
				<chord/>
				<pitch>
					<step>C</step>
					<octave>3</octave>
				</pitch>
				<duration>13440</duration>
				<voice>4</voice>
				<type>half</type>
				<stem default-y="-55.13">down</stem>
				<staff>2</staff>
			</note>
			<backup>
				<duration>53760</duration>
			</backup>
			<note>
				<pitch>
					<step>D</step>
					<octave>4</octave>
				</pitch>
				<duration>13440</duration>
				<voice>1</voice>
				<type>half</type>
				<stem default-y="4.87">up</stem>
				<staff>1</staff>
			</note>
			<note>
				<chord/>
				<pitch>
					<step>G</step>
					<octave>4</octave>
				</pitch>
				<duration>13440</duration>
				<voice>1</voice>
				<type>half</type>
				<stem default-y="4.87">up</stem>
				<staff>1</staff>
			</note>
			<note>
				<pitch>
					<step>B</step>
					<alter>-1</alter>
					<octave>4</octave>
				</pitch>
				<duration>13440</duration>
				<voice>1</voice>
				<type>half</type>
				<stem default-y="10.00">up</stem>
				<staff>1</staff>
			</note>
			<note>
				<chord/>
				<pitch>
					<step>D</step>
					<octave>4</octave>
				</pitch>
				<duration>13440</duration>
				<voice>1</voice>
				<type>half</type>
				<stem default-y="10.00">up</stem>
				<staff>1</staff>
			</note>
			<note>
				<pitch>
					<step>A</step>
					<octave>4</octave>
				</pitch>
				<duration>13440</duration>
				<voice>1</voice>
				<type>half</type>
				<accidental>natural</accidental>
				<stem default-y="10.00">up</stem>
				<staff>1</staff>
			</note>
			<note>
				<chord/>
				<pitch>
					<step>D</step>
					<octave>4</octave>
				</pitch>
				<duration>13440</duration>
				<voice>1</voice>
				<type>half</type>
				<stem default-y="10.00">up</stem>
				<staff>1</staff>
			</note>
			<note>
				<pitch>
					<step>F</step>
					<alter>1</alter>
					<octave>4</octave>
				</pitch>
				<duration>13440</duration>
				<voice>1</voice>
				<type>half</type>
				<accidental>sharp</accidental>
				<stem default-y="0.00">up</stem>
				<staff>1</staff>
			</note>
			<note>
				<chord/>
				<pitch>
					<step>D</step>
					<octave>4</octave>
				</pitch>
				<duration>13440</duration>
				<voice>1</voice>
				<type>half</type>
				<stem default-y="0.00">up</stem>
				<staff>1</staff>
			</note>
		</measure>
		<!--==========================[1,9]=============================-->
		<measure number="9" width="197">
			<note>
				<pitch>
					<step>G</step>
					<octave>3</octave>
				</pitch>
				<duration>13440</duration>
				<voice>4</voice>
				<type>half</type>
				<stem default-y="-55.13">down</stem>
				<staff>2</staff>
			</note>
			<note>
				<chord/>
				<pitch>
					<step>B</step>
					<octave>2</octave>
				</pitch>
				<duration>13440</duration>
				<voice>4</voice>
				<type>half</type>
				<accidental>natural</accidental>
				<stem default-y="-55.13">down</stem>
				<staff>2</staff>
			</note>
			<note>
				<pitch>
					<step>G</step>
					<octave>3</octave>
				</pitch>
				<duration>13440</duration>
				<voice>4</voice>
				<type>half</type>
				<stem default-y="-55.13">down</stem>
				<staff>2</staff>
			</note>
			<note>
				<chord/>
				<pitch>
					<step>B</step>
					<alter>-1</alter>
					<octave>2</octave>
				</pitch>
				<duration>13440</duration>
				<voice>4</voice>
				<type>half</type>
				<accidental>flat</accidental>
				<stem default-y="-55.13">down</stem>
				<staff>2</staff>
			</note>
			<note>
				<pitch>
					<step>A</step>
					<octave>2</octave>
				</pitch>
				<duration>13440</duration>
				<voice>4</voice>
				<type>half</type>
				<accidental>natural</accidental>
				<stem default-y="-60.26">down</stem>
				<staff>2</staff>
			</note>
			<backup>
				<duration>13440</duration>
			</backup>
			<note>
				<pitch>
					<step>A</step>
					<octave>3</octave>
				</pitch>
				<duration>13440</duration>
				<voice>5</voice>
				<type>half</type>
				<accidental>natural</accidental>
				<stem default-y="24.87">up</stem>
				<staff>2</staff>
				<notations>
					<slur type="start" number="1" placement="above" orientation="over"/>
				</notations>
			</note>
			<note>
				<pitch>
					<step>A</step>
					<octave>2</octave>
				</pitch>
				<duration>13440</duration>
				<voice>5</voice>
				<type>half</type>
				<stem default-y="-60.26">down</stem>
				<staff>2</staff>
			</note>
			<backup>
				<duration>13440</duration>
			</backup>
			<note>
				<pitch>
					<step>A</step>
					<octave>3</octave>
				</pitch>
				<duration>6720</duration>
				<voice>4</voice>
				<type>quarter</type>
				<stem default-y="24.87">up</stem>
				<staff>2</staff>
				<notations>
					<slur type="stop" number="1"/>
				</notations>
			</note>
			<note>
				<pitch>
					<step>G</step>
					<octave>3</octave>
				</pitch>
				<duration>6720</duration>
				<voice>4</voice>
				<type>quarter</type>
				<stem default-y="20.00">up</stem>
				<staff>2</staff>
			</note>
			<backup>
				<duration>53760</duration>
			</backup>
			<note>
				<pitch>
					<step>G</step>
					<octave>4</octave>
				</pitch>
				<duration>13440</duration>
				<voice>1</voice>
				<type>half</type>
				<stem default-y="4.87">up</stem>
				<staff>1</staff>
			</note>
			<note>
				<chord/>
				<pitch>
					<step>D</step>
					<octave>4</octave>
				</pitch>
				<duration>13440</duration>
				<voice>1</voice>
				<type>half</type>
				<stem default-y="4.87">up</stem>
				<staff>1</staff>
			</note>
			<note>
				<pitch>
					<step>D</step>
					<octave>4</octave>
				</pitch>
				<duration>13440</duration>
				<voice>1</voice>
				<type>half</type>
				<stem default-y="-10.00">up</stem>
				<staff>1</staff>
			</note>
			<note>
				<pitch>
					<step>F</step>
					<alter>1</alter>
					<octave>4</octave>
				</pitch>
				<duration>13440</duration>
				<voice>1</voice>
				<type>half</type>
				<accidental>sharp</accidental>
				<stem default-y="0.00">up</stem>
				<staff>1</staff>
			</note>
			<note>
				<chord/>
				<pitch>
					<step>D</step>
					<octave>4</octave>
				</pitch>
				<duration>13440</duration>
				<voice>1</voice>
				<type>half</type>
				<stem default-y="0.00">up</stem>
				<staff>1</staff>
			</note>
			<note>
				<pitch>
					<step>E</step>
					<octave>4</octave>
				</pitch>
				<duration>13440</duration>
				<voice>1</voice>
				<type>half</type>
				<accidental>natural</accidental>
				<stem default-y="-4.87">up</stem>
				<staff>1</staff>
			</note>
			<note>
				<chord/>
				<pitch>
					<step>C</step>
					<alter>1</alter>
					<octave>4</octave>
				</pitch>
				<duration>13440</duration>
				<voice>1</voice>
				<type>half</type>
				<accidental>sharp</accidental>
				<stem default-y="-4.87">up</stem>
				<staff>1</staff>
			</note>
		</measure>
		<!--==========================[1,10]=============================-->
		<measure number="10" width="128">
			<note>
				<grace/>
				<pitch>
					<step>F</step>
					<alter>1</alter>
					<octave>3</octave>
				</pitch>
				<voice>4</voice>
				<type>whole</type>
				<dot/>
				<accidental>sharp</accidental>
				<stem>none</stem>
				<staff>2</staff>
			</note>
			<note>
				<grace/>
				<chord/>
				<pitch>
					<step>D</step>
					<octave>3</octave>
				</pitch>
				<voice>4</voice>
				<type>whole</type>
				<dot/>
				<stem>none</stem>
				<staff>2</staff>
			</note>
			<note>
				<pitch>
					<step>F</step>
					<alter>1</alter>
					<octave>3</octave>
				</pitch>
				<duration>13440</duration>
				<voice>4</voice>
				<type>half</type>
				<accidental editorial="yes">sharp</accidental>
				<stem default-y="-55.13">down</stem>
				<staff>2</staff>
			</note>
			<note>
				<chord/>
				<pitch>
					<step>C</step>
					<octave>3</octave>
				</pitch>
				<duration>13440</duration>
				<voice>4</voice>
				<type>half</type>
				<stem default-y="-55.13">down</stem>
				<staff>2</staff>
			</note>
			<backup>
				<duration>13440</duration>
			</backup>
			<note>
				<grace/>
				<pitch>
					<step>D</step>
					<octave>4</octave>
				</pitch>
				<voice>1</voice>
				<type>whole</type>
				<dot/>
				<stem>none</stem>
				<staff>1</staff>
			</note>
			<forward>
				<duration>5040</duration>
			</forward>
			<direction placement="above">
				<direction-type>
					<words font-family="Times New Roman" font-size="9" font-weight="bold" font-style="normal" relative-x="0.00" default-y="11.15">/</words>
				</direction-type>
				<staff>1</staff>
			</direction>
			<backup>
				<duration>5040</duration>
			</backup>
			<note>
				<pitch>
					<step>A</step>
					<octave>3</octave>
				</pitch>
				<duration>13440</duration>
				<voice>1</voice>
				<type>half</type>
				<accidental>natural</accidental>
				<stem default-y="-10.00">up</stem>
				<staff>1</staff>
			</note>
			<note>
				<chord/>
				<pitch>
					<step>D</step>
					<octave>4</octave>
				</pitch>
				<duration>13440</duration>
				<voice>1</voice>
				<type>half</type>
				<stem default-y="-10.00">up</stem>
				<staff>1</staff>
			</note>
		</measure>
		<!--==========================[1,11]=============================-->
		<measure number="11" width="179">
			<note>
				<pitch>
					<step>B</step>
					<octave>2</octave>
				</pitch>
				<duration>13440</duration>
				<voice>4</voice>
				<type>half</type>
				<accidental>natural</accidental>
				<stem default-y="-55.13">down</stem>
				<staff>2</staff>
			</note>
			<note>
				<chord/>
				<pitch>
					<step>G</step>
					<octave>3</octave>
				</pitch>
				<duration>13440</duration>
				<voice>4</voice>
				<type>half</type>
				<stem default-y="-55.13">down</stem>
				<staff>2</staff>
			</note>
			<note>
				<pitch>
					<step>G</step>
					<octave>2</octave>
				</pitch>
				<duration>13440</duration>
				<voice>4</voice>
				<type>half</type>
				<stem default-y="10.00">up</stem>
				<staff>2</staff>
			</note>
			<note>
				<chord/>
				<pitch>
					<step>D</step>
					<octave>3</octave>
				</pitch>
				<duration>13440</duration>
				<voice>4</voice>
				<type>half</type>
				<stem default-y="10.00">up</stem>
				<staff>2</staff>
			</note>
			<note>
				<pitch>
					<step>G</step>
					<octave>3</octave>
				</pitch>
				<duration>13440</duration>
				<voice>4</voice>
				<type>half</type>
				<stem default-y="-60.26">down</stem>
				<staff>2</staff>
			</note>
			<note>
				<chord/>
				<pitch>
					<step>A</step>
					<octave>2</octave>
				</pitch>
				<duration>13440</duration>
				<voice>4</voice>
				<type>half</type>
				<accidental>natural</accidental>
				<stem default-y="-62.72">down</stem>
				<staff>2</staff>
			</note>
			<note>
				<pitch>
					<step>G</step>
					<octave>3</octave>
				</pitch>
				<duration>13440</duration>
				<voice>4</voice>
				<type>half</type>
				<stem default-y="-55.13">down</stem>
				<staff>2</staff>
			</note>
			<note>
				<chord/>
				<pitch>
					<step>B</step>
					<octave>2</octave>
				</pitch>
				<duration>13440</duration>
				<voice>4</voice>
				<type>half</type>
				<stem default-y="-55.13">down</stem>
				<staff>2</staff>
			</note>
			<backup>
				<duration>53760</duration>
			</backup>
			<note>
				<pitch>
					<step>D</step>
					<octave>4</octave>
				</pitch>
				<duration>13440</duration>
				<voice>1</voice>
				<type>half</type>
				<stem default-y="4.87">up</stem>
				<staff>1</staff>
			</note>
			<note>
				<chord/>
				<pitch>
					<step>G</step>
					<octave>4</octave>
				</pitch>
				<duration>13440</duration>
				<voice>1</voice>
				<type>half</type>
				<stem default-y="4.87">up</stem>
				<staff>1</staff>
			</note>
			<note>
				<pitch>
					<step>A</step>
					<alter>-1</alter>
					<octave>4</octave>
				</pitch>
				<duration>13440</duration>
				<voice>1</voice>
				<type>half</type>
				<accidental editorial="yes">flat</accidental>
				<stem default-y="10.00">up</stem>
				<staff>1</staff>
			</note>
			<note>
				<chord/>
				<pitch>
					<step>B</step>
					<octave>3</octave>
				</pitch>
				<duration>13440</duration>
				<voice>1</voice>
				<type>half</type>
				<accidental>natural</accidental>
				<stem default-y="10.00">up</stem>
				<staff>1</staff>
			</note>
			<note>
				<pitch>
					<step>G</step>
					<octave>4</octave>
				</pitch>
				<duration>13440</duration>
				<voice>1</voice>
				<type>half</type>
				<stem default-y="4.87">up</stem>
				<staff>1</staff>
			</note>
			<note>
				<chord/>
				<pitch>
					<step>C</step>
					<octave>4</octave>
				</pitch>
				<duration>13440</duration>
				<voice>1</voice>
				<type>half</type>
				<stem default-y="4.87">up</stem>
				<staff>1</staff>
			</note>
			<note>
				<pitch>
					<step>F</step>
					<octave>4</octave>
				</pitch>
				<duration>13440</duration>
				<voice>1</voice>
				<type>half</type>
				<stem default-y="0.00">up</stem>
				<staff>1</staff>
			</note>
			<note>
				<chord/>
				<pitch>
					<step>D</step>
					<octave>4</octave>
				</pitch>
				<duration>13440</duration>
				<voice>1</voice>
				<type>half</type>
				<stem default-y="0.00">up</stem>
				<staff>1</staff>
			</note>
		</measure>
		<!--==========================[1,12]=============================-->
		<measure number="12" width="180">
			<note>
				<grace/>
				<pitch>
					<step>C</step>
					<octave>3</octave>
				</pitch>
				<voice>4</voice>
				<type>whole</type>
				<dot/>
				<stem>none</stem>
				<staff>2</staff>
			</note>
			<note>
				<grace/>
				<chord/>
				<pitch>
					<step>G</step>
					<octave>3</octave>
				</pitch>
				<voice>4</voice>
				<type>whole</type>
				<dot/>
				<stem>none</stem>
				<staff>2</staff>
			</note>
			<note>
				<pitch>
					<step>C</step>
					<octave>3</octave>
				</pitch>
				<duration>13440</duration>
				<voice>4</voice>
				<type>half</type>
				<stem default-y="-55.13">down</stem>
				<staff>2</staff>
			</note>
			<note>
				<chord/>
				<pitch>
					<step>G</step>
					<octave>3</octave>
				</pitch>
				<duration>13440</duration>
				<voice>4</voice>
				<type>half</type>
				<stem default-y="-55.13">down</stem>
				<staff>2</staff>
			</note>
			<backup>
				<duration>13440</duration>
			</backup>
			<note>
				<grace/>
				<pitch>
					<step>E</step>
					<alter>-1</alter>
					<octave>4</octave>
				</pitch>
				<voice>1</voice>
				<type>whole</type>
				<dot/>
				<stem>none</stem>
				<staff>1</staff>
			</note>
			<note>
				<pitch>
					<step>D</step>
					<octave>4</octave>
				</pitch>
				<duration>13440</duration>
				<voice>1</voice>
				<type>half</type>
				<stem default-y="-70.26">down</stem>
				<staff>1</staff>
			</note>
			<backup>
				<duration>420</duration>
			</backup>
			<direction placement="above">
				<direction-type>
					<words font-family="Times New Roman" font-size="9" font-weight="bold" font-style="normal" relative-x="0.00" default-y="6.79">/</words>
				</direction-type>
				<staff>1</staff>
			</direction>
			<forward>
				<duration>420</duration>
			</forward>
			<note>
				<pitch>
					<step>B</step>
					<octave>3</octave>
				</pitch>
				<duration>13440</duration>
				<voice>1</voice>
				<type>half</type>
				<accidental>natural</accidental>
				<stem default-y="-80.26">down</stem>
				<staff>1</staff>
			</note>
			<note>
				<pitch>
					<step>C</step>
					<octave>4</octave>
				</pitch>
				<duration>13440</duration>
				<voice>1</voice>
				<type>half</type>
				<stem default-y="-75.13">down</stem>
				<staff>1</staff>
			</note>
			<note>
				<pitch>
					<step>E</step>
					<alter>-1</alter>
					<octave>4</octave>
				</pitch>
				<duration>13440</duration>
				<voice>1</voice>
				<type>half</type>
				<stem default-y="-4.87">up</stem>
				<staff>1</staff>
			</note>
		</measure>
		<!--==========================[1,13]=============================-->
		<measure number="13" width="298">
			<print new-system="yes">
				<system-layout>
					<system-margins>
						<left-margin>29.302</left-margin>
						<right-margin>16.026</right-margin>
					</system-margins>
					<system-distance>114.872</system-distance>
				</system-layout>
				<staff-layout number="2">
					<staff-distance>82.051</staff-distance>
				</staff-layout>
			</print>
			<attributes>
				<staff-details number="1" print-object="yes">
				</staff-details>
				<staff-details number="2" print-object="yes">
				</staff-details>
			</attributes>
			<note>
				<pitch>
					<step>C</step>
					<octave>4</octave>
				</pitch>
				<duration>13440</duration>
				<voice>4</voice>
				<type>half</type>
				<stem default-y="-60.26">down</stem>
				<staff>2</staff>
			</note>
			<note>
				<chord/>
				<pitch>
					<step>A</step>
					<alter>-1</alter>
					<octave>2</octave>
				</pitch>
				<duration>13440</duration>
				<voice>4</voice>
				<type>half</type>
				<stem default-y="-77.59">down</stem>
				<staff>2</staff>
			</note>
			<note>
				<pitch>
					<step>F</step>
					<octave>3</octave>
				</pitch>
				<duration>13440</duration>
				<voice>4</voice>
				<type>half</type>
				<stem default-y="14.98">up</stem>
				<staff>2</staff>
			</note>
			<note>
				<chord/>
				<pitch>
					<step>A</step>
					<alter>-1</alter>
					<octave>2</octave>
				</pitch>
				<duration>13440</duration>
				<voice>4</voice>
				<type>half</type>
				<stem default-y="14.87">up</stem>
				<staff>2</staff>
			</note>
			<note>
				<pitch>
					<step>B</step>
					<alter>-1</alter>
					<octave>2</octave>
				</pitch>
				<duration>13440</duration>
				<voice>4</voice>
				<type>half</type>
				<stem default-y="-55.13">down</stem>
				<staff>2</staff>
			</note>
			<note>
				<chord/>
				<pitch>
					<step>G</step>
					<octave>3</octave>
				</pitch>
				<duration>13440</duration>
				<voice>4</voice>
				<type>half</type>
				<stem default-y="-55.13">down</stem>
				<staff>2</staff>
			</note>
			<note>
				<pitch>
					<step>B</step>
					<alter>-1</alter>
					<octave>3</octave>
				</pitch>
				<duration>13440</duration>
				<voice>4</voice>
				<type>half</type>
				<stem default-y="-55.13">down</stem>
				<staff>2</staff>
			</note>
			<note>
				<chord/>
				<pitch>
					<step>B</step>
					<alter>-1</alter>
					<octave>2</octave>
				</pitch>
				<duration>13440</duration>
				<voice>4</voice>
				<type>half</type>
				<stem default-y="-62.46">down</stem>
				<staff>2</staff>
			</note>
			<backup>
				<duration>53760</duration>
			</backup>
			<note>
				<pitch>
					<step>E</step>
					<alter>-1</alter>
					<octave>4</octave>
				</pitch>
				<duration>13440</duration>
				<voice>1</voice>
				<type>half</type>
				<stem default-y="0.00">up</stem>
				<staff>1</staff>
			</note>
			<note>
				<chord/>
				<pitch>
					<step>F</step>
					<octave>4</octave>
				</pitch>
				<duration>13440</duration>
				<voice>1</voice>
				<type>half</type>
				<stem default-y="0.00">up</stem>
				<staff>1</staff>
			</note>
			<note>
				<pitch>
					<step>E</step>
					<alter>-1</alter>
					<octave>4</octave>
				</pitch>
				<duration>13440</duration>
				<voice>1</voice>
				<type>half</type>
				<stem default-y="14.87">up</stem>
				<staff>1</staff>
			</note>
			<note>
				<chord/>
				<pitch>
					<step>C</step>
					<octave>5</octave>
				</pitch>
				<duration>13440</duration>
				<voice>1</voice>
				<type>half</type>
				<stem default-y="14.87">up</stem>
				<staff>1</staff>
			</note>
			<note>
				<pitch>
					<step>E</step>
					<alter>-1</alter>
					<octave>4</octave>
				</pitch>
				<duration>13440</duration>
				<voice>1</voice>
				<type>half</type>
				<stem default-y="10.00">up</stem>
				<staff>1</staff>
			</note>
			<note>
				<chord/>
				<pitch>
					<step>B</step>
					<alter>-1</alter>
					<octave>4</octave>
				</pitch>
				<duration>13440</duration>
				<voice>1</voice>
				<type>half</type>
				<stem default-y="10.00">up</stem>
				<staff>1</staff>
			</note>
			<note>
				<pitch>
					<step>E</step>
					<alter>-1</alter>
					<octave>4</octave>
				</pitch>
				<duration>6720</duration>
				<voice>1</voice>
				<type>quarter</type>
				<stem default-y="-65.13">down</stem>
				<staff>1</staff>
			</note>
			<backup>
				<duration>6720</duration>
			</backup>
			<note>
				<pitch>
					<step>A</step>
					<alter>-1</alter>
					<octave>4</octave>
				</pitch>
				<duration>13440</duration>
				<voice>2</voice>
				<type>half</type>
				<stem default-y="10.00">up</stem>
				<staff>1</staff>
			</note>
			<backup>
				<duration>6720</duration>
			</backup>
			<note>
				<pitch>
					<step>D</step>
					<octave>4</octave>
				</pitch>
				<duration>6720</duration>
				<voice>1</voice>
				<type>quarter</type>
				<stem default-y="-70.26">down</stem>
				<staff>1</staff>
			</note>
		</measure>
		<!--==========================[1,14]=============================-->
		<measure number="14" width="131">
			<note>
				<grace/>
				<pitch>
					<step>B</step>
					<alter>-1</alter>
					<octave>3</octave>
				</pitch>
				<voice>4</voice>
				<type>whole</type>
				<dot/>
				<stem>none</stem>
				<staff>2</staff>
			</note>
			<note>
				<grace/>
				<chord/>
				<pitch>
					<step>E</step>
					<alter>-1</alter>
					<octave>3</octave>
				</pitch>
				<voice>4</voice>
				<type>whole</type>
				<dot/>
				<stem>none</stem>
				<staff>2</staff>
			</note>
			<note>
				<pitch>
					<step>D</step>
					<alter>-1</alter>
					<octave>3</octave>
				</pitch>
				<duration>13440</duration>
				<voice>4</voice>
				<type>half</type>
				<accidental>flat</accidental>
				<stem default-y="-50.26">down</stem>
				<staff>2</staff>
			</note>
			<note>
				<chord/>
				<pitch>
					<step>F</step>
					<octave>3</octave>
				</pitch>
				<duration>13440</duration>
				<voice>4</voice>
				<type>half</type>
				<stem default-y="-50.26">down</stem>
				<staff>2</staff>
			</note>
			<backup>
				<duration>13440</duration>
			</backup>
			<note>
				<grace/>
				<pitch>
					<step>E</step>
					<alter>-1</alter>
					<octave>4</octave>
				</pitch>
				<voice>1</voice>
				<type>whole</type>
				<dot/>
				<stem>none</stem>
				<staff>1</staff>
			</note>
			<note>
				<grace/>
				<chord/>
				<pitch>
					<step>G</step>
					<octave>4</octave>
				</pitch>
				<voice>1</voice>
				<type>whole</type>
				<dot/>
				<stem>none</stem>
				<staff>1</staff>
			</note>
			<forward>
				<duration>5040</duration>
			</forward>
			<direction placement="above">
				<direction-type>
					<words font-family="Times New Roman" font-size="9" font-weight="bold" font-style="normal" relative-x="0.00" default-y="15.26">/</words>
				</direction-type>
				<staff>1</staff>
			</direction>
			<backup>
				<duration>5040</duration>
			</backup>
			<note>
				<pitch>
					<step>F</step>
					<octave>4</octave>
				</pitch>
				<duration>13440</duration>
				<voice>1</voice>
				<type>half</type>
				<stem default-y="10.00">up</stem>
				<staff>1</staff>
			</note>
			<note>
				<chord/>
				<pitch>
					<step>B</step>
					<alter>-1</alter>
					<octave>4</octave>
				</pitch>
				<duration>13440</duration>
				<voice>1</voice>
				<type>half</type>
				<stem default-y="10.00">up</stem>
				<staff>1</staff>
			</note>
		</measure>
		<!--==========================[1,15]=============================-->
		<measure number="15" width="201">
			<note>
				<pitch>
					<step>C</step>
					<octave>3</octave>
				</pitch>
				<duration>13440</duration>
				<voice>4</voice>
				<type>half</type>
				<stem default-y="-55.13">down</stem>
				<staff>2</staff>
			</note>
			<note>
				<chord/>
				<pitch>
					<step>G</step>
					<octave>3</octave>
				</pitch>
				<duration>13440</duration>
				<voice>4</voice>
				<type>half</type>
				<stem default-y="-55.13">down</stem>
				<staff>2</staff>
			</note>
			<note>
				<pitch>
					<step>E</step>
					<octave>3</octave>
				</pitch>
				<duration>13440</duration>
				<voice>4</voice>
				<type>half</type>
				<accidental>natural</accidental>
				<stem default-y="-50.26">down</stem>
				<staff>2</staff>
			</note>
			<note>
				<chord/>
				<pitch>
					<step>C</step>
					<octave>4</octave>
				</pitch>
				<duration>13440</duration>
				<voice>4</voice>
				<type>half</type>
				<stem default-y="-50.26">down</stem>
				<staff>2</staff>
			</note>
			<note>
				<pitch>
					<step>C</step>
					<octave>4</octave>
				</pitch>
				<duration>13440</duration>
				<voice>4</voice>
				<type>half</type>
				<stem default-y="-45.13">down</stem>
				<staff>2</staff>
			</note>
			<note>
				<chord/>
				<pitch>
					<step>F</step>
					<octave>3</octave>
				</pitch>
				<duration>13440</duration>
				<voice>4</voice>
				<type>half</type>
				<stem default-y="-45.13">down</stem>
				<staff>2</staff>
			</note>
			<note>
				<pitch>
					<step>C</step>
					<octave>4</octave>
				</pitch>
				<duration>13440</duration>
				<voice>4</voice>
				<type>half</type>
				<stem default-y="-50.26">down</stem>
				<staff>2</staff>
			</note>
			<note>
				<chord/>
				<pitch>
					<step>E</step>
					<alter>-1</alter>
					<octave>3</octave>
				</pitch>
				<duration>13440</duration>
				<voice>4</voice>
				<type>half</type>
				<accidental>flat</accidental>
				<stem default-y="-50.26">down</stem>
				<staff>2</staff>
			</note>
			<backup>
				<duration>53760</duration>
			</backup>
			<note>
				<pitch>
					<step>E</step>
					<octave>4</octave>
				</pitch>
				<duration>13440</duration>
				<voice>1</voice>
				<type>half</type>
				<accidental>natural</accidental>
				<stem default-y="14.87">up</stem>
				<staff>1</staff>
			</note>
			<note>
				<chord/>
				<pitch>
					<step>C</step>
					<octave>5</octave>
				</pitch>
				<duration>13440</duration>
				<voice>1</voice>
				<type>half</type>
				<stem default-y="14.87">up</stem>
				<staff>1</staff>
			</note>
			<note>
				<pitch>
					<step>G</step>
					<octave>4</octave>
				</pitch>
				<duration>13440</duration>
				<voice>1</voice>
				<type>half</type>
				<stem default-y="10.00">up</stem>
				<staff>1</staff>
			</note>
			<note>
				<chord/>
				<pitch>
					<step>B</step>
					<alter>-1</alter>
					<octave>4</octave>
				</pitch>
				<duration>13440</duration>
				<voice>1</voice>
				<type>half</type>
				<stem default-y="10.00">up</stem>
				<staff>1</staff>
			</note>
			<note>
				<pitch>
					<step>A</step>
					<alter>-1</alter>
					<octave>4</octave>
				</pitch>
				<duration>13440</duration>
				<voice>1</voice>
				<type>half</type>
				<stem default-y="10.00">up</stem>
				<staff>1</staff>
			</note>
			<note>
				<chord/>
				<pitch>
					<step>F</step>
					<octave>4</octave>
				</pitch>
				<duration>13440</duration>
				<voice>1</voice>
				<type>half</type>
				<stem default-y="10.00">up</stem>
				<staff>1</staff>
			</note>
			<note>
				<pitch>
					<step>G</step>
					<alter>-1</alter>
					<octave>4</octave>
				</pitch>
				<duration>13440</duration>
				<voice>1</voice>
				<type>half</type>
				<accidental>flat</accidental>
				<stem default-y="10.00">up</stem>
				<staff>1</staff>
			</note>
			<note>
				<chord/>
				<pitch>
					<step>A</step>
					<alter>-1</alter>
					<octave>4</octave>
				</pitch>
				<duration>13440</duration>
				<voice>1</voice>
				<type>half</type>
				<stem default-y="10.00">up</stem>
				<staff>1</staff>
			</note>
		</measure>
		<!--==========================[1,16]=============================-->
		<measure number="16" width="210">
			<note>
				<pitch>
					<step>D</step>
					<alter>-1</alter>
					<octave>3</octave>
				</pitch>
				<duration>13440</duration>
				<voice>4</voice>
				<type>half</type>
				<accidental>flat</accidental>
				<stem default-y="-52.46">down</stem>
				<staff>2</staff>
			</note>
			<note>
				<chord/>
				<pitch>
					<step>D</step>
					<alter>-1</alter>
					<octave>4</octave>
				</pitch>
				<duration>13440</duration>
				<voice>4</voice>
				<type>half</type>
				<accidental>flat</accidental>
				<stem default-y="-50.26">down</stem>
				<staff>2</staff>
			</note>
			<note>
				<pitch>
					<step>B</step>
					<alter>-1</alter>
					<octave>2</octave>
				</pitch>
				<duration>13440</duration>
				<voice>4</voice>
				<type>half</type>
				<stem default-y="-82.46">down</stem>
				<staff>2</staff>
			</note>
			<note>
				<chord/>
				<pitch>
					<step>F</step>
					<octave>4</octave>
				</pitch>
				<duration>13440</duration>
				<voice>4</voice>
				<type>half</type>
				<stem default-y="-55.13">down</stem>
				<staff>2</staff>
			</note>
			<note>
				<pitch>
					<step>E</step>
					<alter>-1</alter>
					<octave>4</octave>
				</pitch>
				<duration>13440</duration>
				<voice>4</voice>
				<type>half</type>
				<stem default-y="-50.26">down</stem>
				<staff>2</staff>
			</note>
			<note>
				<chord/>
				<pitch>
					<step>E</step>
					<alter>-1</alter>
					<octave>3</octave>
				</pitch>
				<duration>13440</duration>
				<voice>4</voice>
				<type>half</type>
				<stem default-y="-50.26">down</stem>
				<staff>2</staff>
			</note>
			<note>
				<pitch>
					<step>E</step>
					<alter>-1</alter>
					<octave>4</octave>
				</pitch>
				<duration>13440</duration>
				<voice>4</voice>
				<type>half</type>
				<stem default-y="-50.26">down</stem>
				<staff>2</staff>
			</note>
			<note>
				<chord/>
				<pitch>
					<step>E</step>
					<alter>-1</alter>
					<octave>3</octave>
				</pitch>
				<duration>13440</duration>
				<voice>4</voice>
				<type>half</type>
				<stem default-y="-50.26">down</stem>
				<staff>2</staff>
			</note>
			<backup>
				<duration>53760</duration>
			</backup>
			<note>
				<pitch>
					<step>F</step>
					<octave>4</octave>
				</pitch>
				<duration>13440</duration>
				<voice>1</voice>
				<type>half</type>
				<stem default-y="10.00">up</stem>
				<staff>1</staff>
			</note>
			<note>
				<chord/>
				<pitch>
					<step>A</step>
					<alter>-1</alter>
					<octave>4</octave>
				</pitch>
				<duration>13440</duration>
				<voice>1</voice>
				<type>half</type>
				<stem default-y="10.00">up</stem>
				<staff>1</staff>
			</note>
			<note>
				<pitch>
					<step>D</step>
					<alter>-1</alter>
					<octave>5</octave>
				</pitch>
				<duration>13440</duration>
				<voice>1</voice>
				<type>half</type>
				<accidental>flat</accidental>
				<stem default-y="-55.13">down</stem>
				<staff>1</staff>
			</note>
			<note>
				<chord/>
				<pitch>
					<step>A</step>
					<alter>-1</alter>
					<octave>4</octave>
				</pitch>
				<duration>13440</duration>
				<voice>1</voice>
				<type>half</type>
				<stem default-y="-55.13">down</stem>
				<staff>1</staff>
			</note>
			<note>
				<pitch>
					<step>A</step>
					<alter>-1</alter>
					<octave>4</octave>
				</pitch>
				<duration>13440</duration>
				<voice>1</voice>
				<type>half</type>
				<stem default-y="10.00">up</stem>
				<staff>1</staff>
			</note>
			<note>
				<chord/>
				<pitch>
					<step>B</step>
					<alter>-1</alter>
					<octave>4</octave>
				</pitch>
				<duration>13440</duration>
				<voice>1</voice>
				<type>half</type>
				<stem default-y="10.00">up</stem>
				<staff>1</staff>
			</note>
			<note>
				<pitch>
					<step>B</step>
					<alter>-1</alter>
					<octave>4</octave>
				</pitch>
				<duration>13440</duration>
				<voice>1</voice>
				<type>half</type>
				<stem default-y="10.00">up</stem>
				<staff>1</staff>
			</note>
			<note>
				<chord/>
				<pitch>
					<step>G</step>
					<octave>4</octave>
				</pitch>
				<duration>13440</duration>
				<voice>1</voice>
				<type>half</type>
				<stem default-y="10.00">up</stem>
				<staff>1</staff>
			</note>
		</measure>
		<!--==========================[1,17]=============================-->
		<measure number="17" width="113">
			<barline location="left">
				<ending type="start" number="1,2"/>
			</barline>
			<note>
				<pitch>
					<step>E</step>
					<alter>-1</alter>
					<octave>4</octave>
				</pitch>
				<duration>13440</duration>
				<voice>4</voice>
				<type>half</type>
				<stem default-y="-35.13">down</stem>
				<staff>2</staff>
			</note>
			<note>
				<chord/>
				<pitch>
					<step>A</step>
					<alter>-1</alter>
					<octave>3</octave>
				</pitch>
				<duration>13440</duration>
				<voice>4</voice>
				<type>half</type>
				<stem default-y="-35.13">down</stem>
				<staff>2</staff>
			</note>
			<note>
				<pitch>
					<step>F</step>
					<octave>3</octave>
				</pitch>
				<duration>13440</duration>
				<voice>4</voice>
				<type>half</type>
				<stem default-y="-45.13">down</stem>
				<staff>2</staff>
			</note>
			<note>
				<chord/>
				<pitch>
					<step>A</step>
					<alter>-1</alter>
					<octave>3</octave>
				</pitch>
				<duration>13440</duration>
				<voice>4</voice>
				<type>half</type>
				<stem default-y="-45.13">down</stem>
				<staff>2</staff>
			</note>
			<backup>
				<duration>19320</duration>
			</backup>
			<direction placement="above">
				<direction-type>
					<words font-family="Times New Roman" font-size="9" font-weight="bold" font-style="normal" relative-x="0.00" default-y="13.97">/</words>
				</direction-type>
				<staff>1</staff>
			</direction>
			<backup>
				<duration>7560</duration>
			</backup>
			<note>
				<pitch>
					<step>E</step>
					<alter>-1</alter>
					<octave>4</octave>
				</pitch>
				<duration>13440</duration>
				<voice>1</voice>
				<type>half</type>
				<stem default-y="14.87">up</stem>
				<staff>1</staff>
			</note>
			<note>
				<chord/>
				<pitch>
					<step>C</step>
					<octave>5</octave>
				</pitch>
				<duration>13440</duration>
				<voice>1</voice>
				<type>half</type>
				<stem default-y="14.87">up</stem>
				<staff>1</staff>
			</note>
			<note>
				<pitch>
					<step>F</step>
					<octave>4</octave>
				</pitch>
				<duration>13440</duration>
				<voice>1</voice>
				<type>half</type>
				<stem default-y="14.87">up</stem>
				<staff>1</staff>
			</note>
			<note>
				<chord/>
				<pitch>
					<step>C</step>
					<octave>5</octave>
				</pitch>
				<duration>13440</duration>
				<voice>1</voice>
				<type>half</type>
				<stem default-y="14.87">up</stem>
				<staff>1</staff>
			</note>
		</measure>
		<!--==========================[1,18]=============================-->
		<measure number="18" width="186">
			<note>
				<grace/>
				<pitch>
					<step>E</step>
					<alter>-1</alter>
					<octave>5</octave>
				</pitch>
				<voice>1</voice>
				<type>whole</type>
				<stem>none</stem>
				<staff>1</staff>
			</note>
			<note>
				<grace/>
				<chord/>
				<pitch>
					<step>G</step>
					<octave>4</octave>
				</pitch>
				<voice>1</voice>
				<type>whole</type>
				<stem>none</stem>
				<staff>1</staff>
			</note>
			<note>
				<grace/>
				<chord/>
				<pitch>
					<step>A</step>
					<alter>-1</alter>
					<octave>4</octave>
				</pitch>
				<voice>1</voice>
				<type>whole</type>
				<stem>none</stem>
				<staff>1</staff>
			</note>
			<note>
				<pitch>
					<step>D</step>
					<octave>5</octave>
				</pitch>
				<duration>13440</duration>
				<voice>1</voice>
				<type>half</type>
				<stem default-y="14.87">up</stem>
				<staff>1</staff>
			</note>
			<note>
				<pitch>
					<step>C</step>
					<octave>5</octave>
				</pitch>
				<duration>13440</duration>
				<voice>1</voice>
				<type>half</type>
				<stem default-y="14.87">up</stem>
				<staff>1</staff>
			</note>
			<backup>
				<duration>26880</duration>
			</backup>
			<note>
				<grace/>
				<pitch>
					<step>E</step>
					<alter>-1</alter>
					<octave>3</octave>
				</pitch>
				<voice>4</voice>
				<type>whole</type>
				<stem>none</stem>
				<staff>2</staff>
			</note>
			<note>
				<grace/>
				<chord/>
				<pitch>
					<step>C</step>
					<octave>4</octave>
				</pitch>
				<voice>4</voice>
				<type>whole</type>
				<stem>none</stem>
				<staff>2</staff>
			</note>
			<note>
				<cue/>
				<pitch>
					<step>F</step>
					<octave>3</octave>
				</pitch>
				<duration>26880</duration>
				<voice>4</voice>
				<type>whole</type>
				<stem>none</stem>
				<staff>2</staff>
			</note>
			<note>
				<pitch>
					<step>F</step>
					<octave>4</octave>
				</pitch>
				<duration>13440</duration>
				<voice>5</voice>
				<type>half</type>
				<stem default-y="50.00">up</stem>
				<staff>2</staff>
			</note>
			<backup>
				<duration>13440</duration>
			</backup>
			<note>
				<pitch>
					<step>F</step>
					<octave>4</octave>
				</pitch>
				<duration>13440</duration>
				<voice>4</voice>
				<type>half</type>
				<stem default-y="50.00">up</stem>
				<staff>2</staff>
			</note>
		</measure>
		<!--==========================[1,19]=============================-->
		<measure number="19" width="281">
			<print new-system="yes">
				<system-layout>
					<system-margins>
						<left-margin>29.302</left-margin>
						<right-margin>22.436</right-margin>
					</system-margins>
					<system-distance>114.616</system-distance>
				</system-layout>
				<staff-layout number="2">
					<staff-distance>82.051</staff-distance>
				</staff-layout>
			</print>
			<attributes>
				<staff-details number="1" print-object="yes">
				</staff-details>
				<staff-details number="2" print-object="yes">
				</staff-details>
			</attributes>
			<note>
				<cue/>
				<pitch>
					<step>G</step>
					<octave>3</octave>
				</pitch>
				<duration>26880</duration>
				<voice>1</voice>
				<type>whole</type>
				<stem>none</stem>
				<staff>2</staff>
			</note>
			<note>
				<chord/>
				<pitch>
					<step>D</step>
					<octave>4</octave>
				</pitch>
				<duration>26880</duration>
				<voice>1</voice>
				<type>whole</type>
				<stem>none</stem>
				<staff>2</staff>
			</note>
			<note>
				<cue/>
				<pitch>
					<step>G</step>
					<octave>2</octave>
				</pitch>
				<duration>26880</duration>
				<voice>1</voice>
				<type>whole</type>
				<stem>none</stem>
				<staff>2</staff>
			</note>
			<note>
				<chord/>
				<pitch>
					<step>D</step>
					<octave>4</octave>
				</pitch>
				<duration>26880</duration>
				<voice>1</voice>
				<type>whole</type>
				<stem>none</stem>
				<staff>2</staff>
			</note>
			<backup>
				<duration>53760</duration>
			</backup>
			<note>
				<grace/>
				<pitch>
					<step>G</step>
					<octave>4</octave>
				</pitch>
				<voice>2</voice>
				<type>whole</type>
				<dot/>
				<stem>none</stem>
				<staff>1</staff>
			</note>
			<note>
				<cue/>
				<pitch>
					<step>C</step>
					<octave>5</octave>
				</pitch>
				<duration>26880</duration>
				<voice>2</voice>
				<type>whole</type>
				<stem>none</stem>
				<staff>1</staff>
			</note>
			<forward>
				<duration>26880</duration>
			</forward>
			<note>
				<cue/>
				<pitch>
					<step>B</step>
					<octave>4</octave>
				</pitch>
				<duration>26880</duration>
				<voice>2</voice>
				<type>whole</type>
				<accidental>natural</accidental>
				<stem>none</stem>
				<staff>1</staff>
			</note>
			<forward>
				<duration>40320</duration>
			</forward>
			<direction placement="below">
				<direction-type>
					<words font-family="Times New Roman" font-size="9" font-weight="bold" font-style="normal" relative-x="0.00" default-y="-240.90">I will not let Thee go; Thou</words>
				</direction-type>
				<staff>1</staff>
			</direction>
			<direction placement="below">
				<direction-type>
					<words font-family="Times New Roman" font-size="9" font-weight="bold" font-style="normal" relative-x="0.00" default-y="-261.15">Heap ill on ill</words>
				</direction-type>
				<staff>1</staff>
			</direction>
			<direction placement="below">
				<direction-type>
					<words font-family="Times New Roman" font-size="9" font-weight="bold" font-style="normal" relative-x="0.00" default-y="-281.67">I trust Thee still,</words>
				</direction-type>
				<staff>1</staff>
			</direction>
			<direction placement="below">
				<direction-type>
					<words font-family="Times New Roman" font-size="9" font-weight="bold" font-style="normal" relative-x="0.00" default-y="-302.18">E'en when it seems that</words>
				</direction-type>
				<staff>1</staff>
			</direction>
			<direction placement="below">
				<direction-type>
					<words font-family="Times New Roman" font-size="9" font-weight="bold" font-style="normal" relative-x="0.00" default-y="-322.69">Do as Thou wilt with me,</words>
				</direction-type>
				<staff>1</staff>
			</direction>
			<direction placement="below">
				<direction-type>
					<words font-family="Times New Roman" font-size="9" font-weight="bold" font-style="normal" relative-x="0.00" default-y="-343.21">I yet will cling to Thee,</words>
				</direction-type>
				<staff>1</staff>
			</direction>
			<direction placement="below">
				<direction-type>
					<words font-family="Times New Roman" font-size="9" font-weight="bold" font-style="normal" relative-x="0.00" default-y="-363.72">Hide Thou Thy face, yet,</words>
				</direction-type>
				<staff>1</staff>
			</direction>
			<direction placement="below">
				<direction-type>
					<words font-family="Times New Roman" font-size="9" font-weight="bold" font-style="normal" relative-x="0.00" default-y="-383.98">I will not let Thee go!</words>
				</direction-type>
				<staff>1</staff>
			</direction>
			<backup>
				<duration>13440</duration>
			</backup>
			<note>
				<pitch>
					<step>F</step>
					<octave>4</octave>
				</pitch>
				<duration>13440</duration>
				<voice>1</voice>
				<type>half</type>
				<stem default-y="-60.26">down</stem>
				<staff>1</staff>
			</note>
		</measure>
		<!--==========================[1,20]=============================-->
		<measure number="20" width="110">
			<note>
				<cue/>
				<pitch>
					<step>C</step>
					<octave>4</octave>
				</pitch>
				<duration>26880</duration>
				<voice>1</voice>
				<type>whole</type>
				<dot/>
				<stem>none</stem>
				<staff>2</staff>
			</note>
			<note>
				<cue/>
				<chord/>
				<pitch>
					<step>C</step>
					<octave>3</octave>
				</pitch>
				<duration>26880</duration>
				<voice>1</voice>
				<type>whole</type>
				<dot/>
				<stem>none</stem>
				<staff>2</staff>
			</note>
			<direction placement="below">
				<direction-type>
					<words font-family="Times New Roman" font-size="9" font-weight="bold" font-style="normal" relative-x="0.00" default-y="-302.18">thou wouldst</words>
				</direction-type>
				<staff>1</staff>
			</direction>
			<direction placement="below">
				<direction-type>
					<words font-family="Times New Roman" font-size="9" font-weight="bold" font-style="normal" relative-x="0.00" default-y="-363.72">Help in time</words>
				</direction-type>
				<staff>1</staff>
			</direction>
			<direction placement="below">
				<direction-type>
					<words font-family="Times New Roman" font-size="9" font-weight="bold" font-style="normal" relative-x="0.00" default-y="-240.90">Help in time</words>
				</direction-type>
				<staff>1</staff>
			</direction>
			<backup>
				<duration>40320</duration>
			</backup>
			<note>
				<cue/>
				<pitch>
					<step>E</step>
					<alter>-1</alter>
					<octave>4</octave>
				</pitch>
				<duration>26880</duration>
				<voice>1</voice>
				<type>whole</type>
				<dot/>
				<stem>none</stem>
				<staff>1</staff>
			</note>
			<note>
				<cue/>
				<chord/>
				<pitch>
					<step>C</step>
					<octave>5</octave>
				</pitch>
				<duration>26880</duration>
				<voice>1</voice>
				<type>whole</type>
				<dot/>
				<stem>none</stem>
				<staff>1</staff>
			</note>
			<barline location="right">
				<repeat direction="backward" times="2"/>
			</barline>
		</measure>
		<!--==========================[1,21]=============================-->
		<measure number="21" width="229">
			<barline location="left">
				<ending type="start" number="3"/>
			</barline>
			<note>
				<pitch>
					<step>C</step>
					<octave>5</octave>
				</pitch>
				<duration>13440</duration>
				<voice>1</voice>
				<type>half</type>
				<stem default-y="-55.13">down</stem>
				<staff>1</staff>
			</note>
			<note>
				<chord/>
				<pitch>
					<step>A</step>
					<alter>-1</alter>
					<octave>4</octave>
				</pitch>
				<duration>13440</duration>
				<voice>1</voice>
				<type>half</type>
				<stem default-y="-55.13">down</stem>
				<staff>1</staff>
			</note>
			<note>
				<pitch>
					<step>C</step>
					<octave>5</octave>
				</pitch>
				<duration>13440</duration>
				<voice>1</voice>
				<type>half</type>
				<stem default-y="14.87">up</stem>
				<staff>1</staff>
			</note>
			<note>
				<chord/>
				<pitch>
					<step>E</step>
					<alter>-1</alter>
					<octave>4</octave>
				</pitch>
				<duration>13440</duration>
				<voice>1</voice>
				<type>half</type>
				<stem default-y="14.87">up</stem>
				<staff>1</staff>
			</note>
			<forward>
				<duration>13440</duration>
			</forward>
			<direction placement="above">
				<direction-type>
					<words font-family="Times New Roman" font-size="9" font-weight="bold" font-style="normal" relative-x="0.00" default-y="13.46">/</words>
				</direction-type>
				<staff>1</staff>
			</direction>
			<backup>
				<duration>13440</duration>
			</backup>
			<note>
				<pitch>
					<step>F</step>
					<octave>4</octave>
				</pitch>
				<duration>13440</duration>
				<voice>1</voice>
				<type>half</type>
				<stem default-y="14.87">up</stem>
				<staff>1</staff>
			</note>
			<note>
				<chord/>
				<pitch>
					<step>C</step>
					<octave>5</octave>
				</pitch>
				<duration>13440</duration>
				<voice>1</voice>
				<type>half</type>
				<stem default-y="14.87">up</stem>
				<staff>1</staff>
			</note>
			<forward>
				<duration>13440</duration>
			</forward>
			<direction placement="below">
				<direction-type>
					<words font-family="Times New Roman" font-size="9" font-weight="bold" font-style="normal" relative-x="0.00" default-y="-302.18">slay indeed!</words>
				</direction-type>
				<staff>1</staff>
			</direction>
			<direction placement="below">
				<direction-type>
					<words font-family="Times New Roman" font-size="9" font-weight="bold" font-style="normal" relative-x="0.00" default-y="-363.72">of need,</words>
				</direction-type>
				<staff>1</staff>
			</direction>
			<direction placement="below">
				<direction-type>
					<words font-family="Times New Roman" font-size="9" font-weight="bold" font-style="normal" relative-x="0.00" default-y="-240.90">of need!</words>
				</direction-type>
				<staff>1</staff>
			</direction>
			<direction placement="below">
				<direction-type>
					<words font-family="Times New Roman" font-size="9" font-weight="bold" font-style="normal" relative-x="0.00" default-y="-239.36">I will</words>
				</direction-type>
				<staff>1</staff>
			</direction>
			<direction placement="below">
				<direction-type>
					<words font-family="Times New Roman" font-size="9" font-weight="bold" font-style="normal" relative-x="0.00" default-y="-259.62">Not</words>
				</direction-type>
				<staff>1</staff>
			</direction>
			<direction placement="below">
				<direction-type>
					<words font-family="Times New Roman" font-size="9" font-weight="bold" font-style="normal" relative-x="0.00" default-y="-280.39">Me</words>
				</direction-type>
				<staff>1</staff>
			</direction>
			<direction placement="below">
				<direction-type>
					<words font-family="Times New Roman" font-size="9" font-weight="bold" font-style="normal" relative-x="0.00" default-y="-300.90">Who</words>
				</direction-type>
				<staff>1</staff>
			</direction>
			<direction placement="below">
				<direction-type>
					<words font-family="Times New Roman" font-size="9" font-weight="bold" font-style="normal" relative-x="0.00" default-y="-321.15">Thou</words>
				</direction-type>
				<staff>1</staff>
			</direction>
			<direction placement="below">
				<direction-type>
					<words font-family="Times New Roman" font-size="9" font-weight="bold" font-style="normal" relative-x="0.00" default-y="-341.67">I say</words>
				</direction-type>
				<staff>1</staff>
			</direction>
			<direction placement="below">
				<direction-type>
					<words font-family="Times New Roman" font-size="9" font-weight="bold" font-style="normal" relative-x="0.00" default-y="-362.18">E'en</words>
				</direction-type>
				<staff>1</staff>
			</direction>
			<direction placement="below">
				<direction-type>
					<words font-family="Times New Roman" font-size="9" font-weight="bold" font-style="normal" relative-x="0.00" default-y="-382.69">I will</words>
				</direction-type>
				<staff>1</staff>
			</direction>
			<backup>
				<duration>13440</duration>
			</backup>
			<note>
				<pitch>
					<step>F</step>
					<octave>4</octave>
				</pitch>
				<duration>13440</duration>
				<voice>1</voice>
				<type>half</type>
				<stem default-y="14.87">up</stem>
				<staff>1</staff>
			</note>
			<note>
				<chord/>
				<pitch>
					<step>C</step>
					<octave>5</octave>
				</pitch>
				<duration>13440</duration>
				<voice>1</voice>
				<type>half</type>
				<stem default-y="14.87">up</stem>
				<staff>1</staff>
			</note>
			<backup>
				<duration>53760</duration>
			</backup>
			<note>
				<pitch>
					<step>A</step>
					<alter>-1</alter>
					<octave>2</octave>
				</pitch>
				<duration>13440</duration>
				<voice>4</voice>
				<type>half</type>
				<stem default-y="-87.59">down</stem>
				<staff>2</staff>
			</note>
			<note>
				<chord/>
				<pitch>
					<step>E</step>
					<alter>-1</alter>
					<octave>4</octave>
				</pitch>
				<duration>13440</duration>
				<voice>4</voice>
				<type>half</type>
				<stem default-y="-60.26">down</stem>
				<staff>2</staff>
			</note>
			<note>
				<pitch>
					<step>E</step>
					<alter>-1</alter>
					<octave>4</octave>
				</pitch>
				<duration>13440</duration>
				<voice>4</voice>
				<type>half</type>
				<stem default-y="-35.13">down</stem>
				<staff>2</staff>
			</note>
			<note>
				<chord/>
				<pitch>
					<step>A</step>
					<alter>-1</alter>
					<octave>3</octave>
				</pitch>
				<duration>13440</duration>
				<voice>4</voice>
				<type>half</type>
				<stem default-y="-35.13">down</stem>
				<staff>2</staff>
			</note>
			<note>
				<pitch>
					<step>A</step>
					<alter>-1</alter>
					<octave>3</octave>
				</pitch>
				<duration>13440</duration>
				<voice>4</voice>
				<type>half</type>
				<stem default-y="-35.13">down</stem>
				<staff>2</staff>
			</note>
			<note>
				<chord/>
				<pitch>
					<step>C</step>
					<octave>4</octave>
				</pitch>
				<duration>13440</duration>
				<voice>4</voice>
				<type>half</type>
				<stem default-y="-35.13">down</stem>
				<staff>2</staff>
			</note>
			<note>
				<pitch>
					<step>A</step>
					<alter>-1</alter>
					<octave>3</octave>
				</pitch>
				<duration>13440</duration>
				<voice>4</voice>
				<type>half</type>
				<stem default-y="-45.13">down</stem>
				<staff>2</staff>
			</note>
			<note>
				<chord/>
				<pitch>
					<step>F</step>
					<octave>3</octave>
				</pitch>
				<duration>13440</duration>
				<voice>4</voice>
				<type>half</type>
				<stem default-y="-45.13">down</stem>
				<staff>2</staff>
			</note>
		</measure>
		<!--==========================[1,22]=============================-->
		<measure number="22" width="200">
			<note>
				<grace/>
				<pitch>
					<step>E</step>
					<alter>-1</alter>
					<octave>5</octave>
				</pitch>
				<voice>1</voice>
				<type>whole</type>
				<stem>none</stem>
				<staff>1</staff>
			</note>
			<note>
				<grace/>
				<chord/>
				<pitch>
					<step>G</step>
					<octave>4</octave>
				</pitch>
				<voice>1</voice>
				<type>whole</type>
				<stem>none</stem>
				<staff>1</staff>
			</note>
			<note>
				<grace/>
				<chord/>
				<pitch>
					<step>A</step>
					<alter>-1</alter>
					<octave>4</octave>
				</pitch>
				<voice>1</voice>
				<type>whole</type>
				<stem>none</stem>
				<staff>1</staff>
			</note>
			<note>
				<pitch>
					<step>D</step>
					<octave>5</octave>
				</pitch>
				<duration>13440</duration>
				<voice>1</voice>
				<type>half</type>
				<stem default-y="14.87">up</stem>
				<staff>1</staff>
			</note>
			<forward>
				<duration>13440</duration>
			</forward>
			<direction placement="below">
				<direction-type>
					<words font-family="Times New Roman" font-size="9" font-weight="bold" font-style="normal" relative-x="0.00" default-y="-280.39">from His care,</words>
				</direction-type>
				<staff>1</staff>
			</direction>
			<direction placement="below">
				<direction-type>
					<words font-family="Times New Roman" font-size="9" font-weight="bold" font-style="normal" relative-x="0.00" default-y="-259.62">Death can tear</words>
				</direction-type>
				<staff>1</staff>
			</direction>
			<direction placement="below">
				<direction-type>
					<words font-family="Times New Roman" font-size="9" font-weight="bold" font-style="normal" relative-x="0.00" default-y="-300.90">for my sake His soul</words>
				</direction-type>
				<staff>1</staff>
			</direction>
			<direction placement="below">
				<direction-type>
					<words font-family="Times New Roman" font-size="9" font-weight="bold" font-style="normal" relative-x="0.00" default-y="-341.67">in love to Thee,</words>
				</direction-type>
				<staff>1</staff>
			</direction>
			<direction placement="below">
				<direction-type>
					<words font-family="Times New Roman" font-size="9" font-weight="bold" font-style="normal" relative-x="0.00" default-y="-362.18">when my heart shall</words>
				</direction-type>
				<staff>1</staff>
			</direction>
			<direction placement="below">
				<direction-type>
					<words font-family="Times New Roman" font-size="9" font-weight="bold" font-style="normal" relative-x="0.00" default-y="-239.36">not let Thee go, my God,</words>
				</direction-type>
				<staff>1</staff>
			</direction>
			<direction placement="below">
				<direction-type>
					<words font-family="Times New Roman" font-size="9" font-weight="bold" font-style="normal" relative-x="0.00" default-y="-321.15">diedst for love to me,</words>
				</direction-type>
				<staff>1</staff>
			</direction>
			<direction placement="below">
				<direction-type>
					<words font-family="Times New Roman" font-size="9" font-weight="bold" font-style="normal" relative-x="0.00" default-y="-382.69">not let Thee go!</words>
				</direction-type>
				<staff>1</staff>
			</direction>
			<backup>
				<duration>13440</duration>
			</backup>
			<note>
				<pitch>
					<step>C</step>
					<octave>5</octave>
				</pitch>
				<duration>13440</duration>
				<voice>1</voice>
				<type>half</type>
				<stem default-y="14.87">up</stem>
				<staff>1</staff>
			</note>
			<backup>
				<duration>26880</duration>
			</backup>
			<note>
				<grace/>
				<pitch>
					<step>E</step>
					<alter>-1</alter>
					<octave>3</octave>
				</pitch>
				<voice>4</voice>
				<type>whole</type>
				<stem>none</stem>
				<staff>2</staff>
			</note>
			<note>
				<grace/>
				<chord/>
				<pitch>
					<step>C</step>
					<octave>4</octave>
				</pitch>
				<voice>4</voice>
				<type>whole</type>
				<stem>none</stem>
				<staff>2</staff>
			</note>
			<note>
				<cue/>
				<pitch>
					<step>F</step>
					<octave>3</octave>
				</pitch>
				<duration>26880</duration>
				<voice>4</voice>
				<type>whole</type>
				<stem>none</stem>
				<staff>2</staff>
			</note>
			<note>
				<pitch>
					<step>F</step>
					<octave>4</octave>
				</pitch>
				<duration>13440</duration>
				<voice>5</voice>
				<type>half</type>
				<stem default-y="50.00">up</stem>
				<staff>2</staff>
			</note>
			<note>
				<pitch>
					<step>F</step>
					<octave>4</octave>
				</pitch>
				<duration>13440</duration>
				<voice>4</voice>
				<type>half</type>
				<stem default-y="50.00">up</stem>
				<staff>2</staff>
			</note>
		</measure>
		<!--==========================[1,23]=============================-->
		<measure number="23" width="201">
			<note>
				<pitch>
					<step>D</step>
					<octave>4</octave>
				</pitch>
				<duration>26880</duration>
				<voice>1</voice>
				<type>whole</type>
				<stem>none</stem>
				<staff>2</staff>
			</note>
			<note>
				<cue/>
				<chord/>
				<pitch>
					<step>G</step>
					<octave>3</octave>
				</pitch>
				<duration>26880</duration>
				<voice>1</voice>
				<type>whole</type>
				<stem>none</stem>
				<staff>2</staff>
			</note>
			<note>
				<cue/>
				<pitch>
					<step>G</step>
					<octave>2</octave>
				</pitch>
				<duration>26880</duration>
				<voice>1</voice>
				<type>whole</type>
				<stem>none</stem>
				<staff>2</staff>
			</note>
			<note>
				<chord/>
				<pitch>
					<step>D</step>
					<octave>4</octave>
				</pitch>
				<duration>26880</duration>
				<voice>1</voice>
				<type>whole</type>
				<stem>none</stem>
				<staff>2</staff>
			</note>
			<backup>
				<duration>53760</duration>
			</backup>
			<note>
				<grace/>
				<pitch>
					<step>G</step>
					<octave>4</octave>
				</pitch>
				<voice>2</voice>
				<type>whole</type>
				<dot/>
				<stem>none</stem>
				<staff>1</staff>
			</note>
			<note>
				<cue/>
				<pitch>
					<step>C</step>
					<octave>5</octave>
				</pitch>
				<duration>26880</duration>
				<voice>2</voice>
				<type>whole</type>
				<stem>none</stem>
				<staff>1</staff>
			</note>
			<forward>
				<duration>26880</duration>
			</forward>
			<note>
				<cue/>
				<pitch>
					<step>B</step>
					<octave>4</octave>
				</pitch>
				<duration>26880</duration>
				<voice>2</voice>
				<type>whole</type>
				<accidental>natural</accidental>
				<stem>none</stem>
				<staff>1</staff>
			</note>
			<forward>
				<duration>40320</duration>
			</forward>
			<direction placement="below">
				<direction-type>
					<words font-family="Times New Roman" font-size="9" font-weight="bold" font-style="normal" relative-x="0.00" default-y="-362.18">break, my God, my Life,</words>
				</direction-type>
				<staff>1</staff>
			</direction>
			<direction placement="below">
				<direction-type>
					<words font-family="Times New Roman" font-size="9" font-weight="bold" font-style="normal" relative-x="0.00" default-y="-300.90">in death outpoured.</words>
				</direction-type>
				<staff>1</staff>
			</direction>
			<direction placement="below">
				<direction-type>
					<words font-family="Times New Roman" font-size="9" font-weight="bold" font-style="normal" relative-x="0.00" default-y="-239.36">my Life, my Lord!</words>
				</direction-type>
				<staff>1</staff>
			</direction>
			<backup>
				<duration>13440</duration>
			</backup>
			<note>
				<pitch>
					<step>F</step>
					<octave>4</octave>
				</pitch>
				<duration>13440</duration>
				<voice>1</voice>
				<type>half</type>
				<stem default-y="-60.26">down</stem>
				<staff>1</staff>
			</note>
		</measure>
		<!--==========================[1,24]=============================-->
		<measure number="24" width="111">
			<note>
				<cue/>
				<pitch>
					<step>C</step>
					<octave>4</octave>
				</pitch>
				<duration>26880</duration>
				<voice>1</voice>
				<type>whole</type>
				<dot/>
				<stem>none</stem>
				<staff>2</staff>
			</note>
			<note>
				<cue/>
				<chord/>
				<pitch>
					<step>C</step>
					<octave>3</octave>
				</pitch>
				<duration>26880</duration>
				<voice>1</voice>
				<type>whole</type>
				<dot/>
				<stem>none</stem>
				<staff>2</staff>
			</note>
			<direction placement="below">
				<direction-type>
					<words font-family="Times New Roman" font-size="9" font-weight="bold" font-style="normal" relative-x="0.00" default-y="-362.18">my Lord,</words>
				</direction-type>
				<staff>1</staff>
			</direction>
			<backup>
				<duration>40320</duration>
			</backup>
			<note>
				<cue/>
				<pitch>
					<step>E</step>
					<octave>4</octave>
				</pitch>
				<duration>26880</duration>
				<voice>1</voice>
				<type>whole</type>
				<dot/>
				<accidental>natural</accidental>
				<stem>none</stem>
				<staff>1</staff>
			</note>
			<note>
				<cue/>
				<chord/>
				<pitch>
					<step>C</step>
					<octave>5</octave>
				</pitch>
				<duration>26880</duration>
				<voice>1</voice>
				<type>whole</type>
				<dot/>
				<stem>none</stem>
				<staff>1</staff>
			</note>
			<barline location="right">
				<bar-style>light-heavy</bar-style>
			</barline>
		</measure>
	</part>
</score-partwise>
