<?xml version="1.0" encoding="UTF-8" standalone="no"?>
<!DOCTYPE score-partwise PUBLIC "-//Recordare//DTD MusicXML 2.0 Partwise//EN" "http://www.musicxml.org/dtds/partwise.dtd">
<score-partwise version="2.0">
	<work>
		<work-title>William Jones, 1789</work-title>
	</work>
	<identification>
		<creator type="poet">St. Stephen</creator>
		<encoding>
			<software>PDFtoMusic Pro v1.6.5 Build 1B9E7 (c) Myriad - http://www.myriad-online.com</software>
			<?PDFtoMusic Document type 0100- 00000000?>
			<?Font corrections applied by user?>
			<supports attribute="new-system" element="print" type="yes" value="yes"/>
			<supports attribute="new-page" element="print" type="yes" value="yes"/>
		</encoding>
	</identification>
	<defaults>
		<scaling>
			<millimeters>5.757304</millimeters>
			<tenths>40</tenths>
		</scaling>
		<page-layout>
			<page-height>1941.186</page-height>
			<page-width>1500.008</page-width>
			<page-margins type="both">
				<left-margin>69.477</left-margin>
				<right-margin>69.477</right-margin>
				<top-margin>69.477</top-margin>
				 <bottom-margin>69.477</bottom-margin>
			</page-margins>
		</page-layout>
		<appearance>
			<line-width type="stem">0.2941</line-width>
			<line-width type="beam">5.0001</line-width>
			<line-width type="staff">0.8823</line-width>
			<line-width type="light barline">0.4635</line-width>
			<line-width type="heavy barline">9.1177</line-width>
			<line-width type="leger">0.8824</line-width>
		</appearance>
	</defaults>
	<credit page="1">
		<credit-words  default-x="340.296" default-y="1322.732" justify="left" valign="baseline" font-family="Times New Roman" font-size="24" font-weight="bold" font-style="normal">St. Stephen</credit-words>
	</credit>
	<credit page="1">
		<credit-words  default-x="425.002" default-y="92.847" justify="left" valign="baseline" font-family="Times New Roman" font-size="8" font-weight="normal" font-style="normal">Public domain</credit-words>
	</credit>
	<credit page="1">
		<credit-words  default-x="635.592" default-y="1248.933" justify="left" valign="baseline" font-family="Times New Roman" font-size="12" font-weight="normal" font-style="normal">William Jones, 1789</credit-words>
	</credit>
	<part-list>
		<score-part id="P1">
			<part-name></part-name>
			<score-instrument id="P1-I1">
				<instrument-name>Instrument 1</instrument-name>
			</score-instrument>
			<midi-instrument id="P1-I1">
				<midi-channel>1</midi-channel>
				<midi-bank>1</midi-bank>
				<midi-program>25</midi-program>
				<volume>50</volume>
				<pan>0</pan>
				<elevation>0</elevation>
				<?Myriad
				<iddigit>2400</iddigit>
				?>
			</midi-instrument>
		</score-part>
		<score-part id="P2">
			<part-name></part-name>
			<score-instrument id="P2-I1">
				<instrument-name>Instrument 2</instrument-name>
			</score-instrument>
			<midi-instrument id="P2-I1">
				<midi-channel>2</midi-channel>
				<midi-bank>1</midi-bank>
				<midi-program>25</midi-program>
				<volume>50</volume>
				<pan>0</pan>
				<elevation>0</elevation>
				<?Myriad
				<iddigit>2400</iddigit>
				?>
			</midi-instrument>
		</score-part>
	</part-list>
	<part id="P1">
		<!--==========================[1,1]=============================-->
		<measure number="1" width="123">
			<print new-page="yes">
				<system-layout>
					<system-margins>
						<left-margin>18.612</left-margin>
						<right-margin>547.797</right-margin>
					</system-margins>
					<top-system-distance>705.870</top-system-distance>
				</system-layout>
			</print>
			<attributes>
				<divisions>6720</divisions>
				<key>
					<fifths>1</fifths>
					<mode>major</mode>
				</key>
				<time>
					<beats>4</beats>
					<beat-type>4</beat-type>
				</time>
				<clef number="1">
					<sign>G</sign>
					<line>2</line>
				</clef>
				<staff-details number="1" print-object="yes">
					<staff-lines>5</staff-lines>
					<staff-tuning line="1">
						<tuning-step>A</tuning-step>
						<tuning-octave>3</tuning-octave>
					</staff-tuning>
					<staff-tuning line="2">
						<tuning-step>D</tuning-step>
						<tuning-octave>4</tuning-octave>
					</staff-tuning>
					<staff-tuning line="3">
						<tuning-step>G</tuning-step>
						<tuning-octave>4</tuning-octave>
					</staff-tuning>
					<staff-tuning line="4">
						<tuning-step>B</tuning-step>
						<tuning-octave>4</tuning-octave>
					</staff-tuning>
					<staff-tuning line="5">
						<tuning-step>E</tuning-step>
						<tuning-octave>5</tuning-octave>
					</staff-tuning>
					<staff-size>100.00</staff-size>
				</staff-details>
				<transpose>
					<chromatic>5</chromatic>
					<octave-change>-1</octave-change>
				</transpose>
			</attributes>
			<note>
				<pitch>
					<step>B</step>
					<octave>4</octave>
				</pitch>
				<duration>6720</duration>
				<voice>1</voice>
				<type>quarter</type>
				<stem default-y="14.71">up</stem>
			</note>
			<note>
				<chord/>
				<pitch>
					<step>D</step>
					<octave>4</octave>
				</pitch>
				<duration>6720</duration>
				<voice>1</voice>
				<type>quarter</type>
				<stem default-y="14.71">up</stem>
			</note>
		</measure>
		<!--==========================[1,2]=============================-->
		<measure number="2" width="166">
			<note>
				<pitch>
					<step>D</step>
					<octave>5</octave>
				</pitch>
				<duration>6720</duration>
				<voice>1</voice>
				<type>quarter</type>
				<stem default-y="24.71">up</stem>
			</note>
			<note>
				<chord/>
				<pitch>
					<step>D</step>
					<octave>4</octave>
				</pitch>
				<duration>6720</duration>
				<voice>1</voice>
				<type>quarter</type>
				<stem default-y="24.71">up</stem>
			</note>
			<note>
				<pitch>
					<step>B</step>
					<octave>4</octave>
				</pitch>
				<duration>6720</duration>
				<voice>1</voice>
				<type>quarter</type>
				<stem default-y="14.71">up</stem>
			</note>
			<note>
				<chord/>
				<pitch>
					<step>D</step>
					<octave>4</octave>
				</pitch>
				<duration>6720</duration>
				<voice>1</voice>
				<type>quarter</type>
				<stem default-y="14.71">up</stem>
			</note>
			<note>
				<pitch>
					<step>G</step>
					<octave>4</octave>
				</pitch>
				<duration>6720</duration>
				<voice>1</voice>
				<type>quarter</type>
				<stem default-y="4.71">up</stem>
			</note>
			<note>
				<chord/>
				<pitch>
					<step>E</step>
					<octave>4</octave>
				</pitch>
				<duration>6720</duration>
				<voice>1</voice>
				<type>quarter</type>
				<stem default-y="4.71">up</stem>
			</note>
			<note>
				<pitch>
					<step>A</step>
					<octave>4</octave>
				</pitch>
				<duration>3360</duration>
				<voice>1</voice>
				<type>eighth</type>
				<stem default-y="14.71">up</stem>
				<beam number="1">begin</beam>
				<notations>
					<slur type="start" number="1" placement="above" orientation="over"/>
				</notations>
			</note>
			<note>
				<pitch>
					<step>G</step>
					<octave>4</octave>
				</pitch>
				<duration>3360</duration>
				<voice>1</voice>
				<type>eighth</type>
				<stem default-y="10.00">up</stem>
				<beam number="1">end</beam>
				<notations>
					<slur type="stop" number="1"/>
				</notations>
			</note>
			<backup>
				<duration>6720</duration>
			</backup>
			<note>
				<pitch>
					<step>E</step>
					<octave>4</octave>
				</pitch>
				<duration>6720</duration>
				<voice>2</voice>
				<type>quarter</type>
				<stem default-y="-75.59">down</stem>
			</note>
		</measure>
		<!--==========================[1,3]=============================-->
		<measure number="3" width="220">
			<note>
				<pitch>
					<step>F</step>
					<octave>4</octave>
				</pitch>
				<duration>6720</duration>
				<voice>1</voice>
				<type>quarter</type>
				<stem default-y="-0.29">up</stem>
			</note>
			<note>
				<chord/>
				<pitch>
					<step>D</step>
					<octave>4</octave>
				</pitch>
				<duration>6720</duration>
				<voice>1</voice>
				<type>quarter</type>
				<stem default-y="-0.29">up</stem>
			</note>
			<note>
				<pitch>
					<step>G</step>
					<octave>4</octave>
				</pitch>
				<duration>6720</duration>
				<voice>1</voice>
				<type>quarter</type>
				<stem default-y="4.71">up</stem>
			</note>
			<backup>
				<duration>6720</duration>
			</backup>
			<note>
				<pitch>
					<step>D</step>
					<octave>4</octave>
				</pitch>
				<duration>3360</duration>
				<voice>2</voice>
				<type>eighth</type>
				<stem default-y="-85.59">down</stem>
				<beam number="1">begin</beam>
				<notations>
					<slur type="start" number="1" placement="below" orientation="under"/>
				</notations>
			</note>
			<note>
				<pitch>
					<step>C</step>
					<alter>1</alter>
					<octave>4</octave>
				</pitch>
				<duration>3360</duration>
				<voice>2</voice>
				<type>eighth</type>
				<accidental>sharp</accidental>
				<stem default-y="-90.59">down</stem>
				<beam number="1">end</beam>
				<notations>
					<slur type="stop" number="1"/>
				</notations>
			</note>
			<note>
				<pitch>
					<step>A</step>
					<octave>4</octave>
				</pitch>
				<duration>6720</duration>
				<voice>1</voice>
				<type>quarter</type>
				<stem default-y="9.71">up</stem>
			</note>
			<note>
				<chord/>
				<pitch>
					<step>D</step>
					<octave>4</octave>
				</pitch>
				<duration>6720</duration>
				<voice>1</voice>
				<type>quarter</type>
				<stem default-y="9.71">up</stem>
			</note>
			<note>
				<pitch>
					<step>B</step>
					<octave>4</octave>
				</pitch>
				<duration>3360</duration>
				<voice>1</voice>
				<type>eighth</type>
				<stem default-y="19.71">up</stem>
				<beam number="1">begin</beam>
				<notations>
					<slur type="start" number="1" placement="above" orientation="over"/>
				</notations>
			</note>
			<note>
				<pitch>
					<step>C</step>
					<octave>5</octave>
				</pitch>
				<duration>3360</duration>
				<voice>1</voice>
				<type>eighth</type>
				<accidental>natural</accidental>
				<stem default-y="25.00">up</stem>
				<beam number="1">end</beam>
				<notations>
					<slur type="stop" number="1"/>
				</notations>
			</note>
			<backup>
				<duration>6720</duration>
			</backup>
			<note>
				<pitch>
					<step>D</step>
					<octave>4</octave>
				</pitch>
				<duration>6720</duration>
				<voice>2</voice>
				<type>quarter</type>
				<stem default-y="-80.59">down</stem>
			</note>
		</measure>
		<!--==========================[1,4]=============================-->
		<measure number="4" width="194">
			<note>
				<pitch>
					<step>D</step>
					<octave>5</octave>
				</pitch>
				<duration>6720</duration>
				<voice>1</voice>
				<type>quarter</type>
				<stem default-y="24.71">up</stem>
			</note>
			<note>
				<chord/>
				<pitch>
					<step>D</step>
					<octave>4</octave>
				</pitch>
				<duration>6720</duration>
				<voice>1</voice>
				<type>quarter</type>
				<stem default-y="24.71">up</stem>
			</note>
			<note>
				<pitch>
					<step>G</step>
					<octave>4</octave>
				</pitch>
				<duration>3360</duration>
				<voice>1</voice>
				<type>eighth</type>
				<stem default-y="9.71">up</stem>
				<beam number="1">begin</beam>
			</note>
			<note>
				<chord/>
				<pitch>
					<step>B</step>
					<octave>3</octave>
				</pitch>
				<duration>3360</duration>
				<voice>1</voice>
				<type>eighth</type>
				<stem default-y="9.71">up</stem>
				<notations>
					<slur type="start" number="1" placement="below" orientation="under"/>
				</notations>
			</note>
			<note>
				<pitch>
					<step>A</step>
					<octave>4</octave>
				</pitch>
				<duration>3360</duration>
				<voice>1</voice>
				<type>eighth</type>
				<stem default-y="14.71">up</stem>
				<beam number="1">end</beam>
			</note>
			<note>
				<chord/>
				<pitch>
					<step>C</step>
					<octave>4</octave>
				</pitch>
				<duration>3360</duration>
				<voice>1</voice>
				<type>eighth</type>
				<stem default-y="14.71">up</stem>
				<notations>
					<slur type="stop" number="1"/>
				</notations>
			</note>
			<note>
				<pitch>
					<step>B</step>
					<octave>4</octave>
				</pitch>
				<duration>6720</duration>
				<voice>1</voice>
				<type>quarter</type>
				<stem default-y="14.71">up</stem>
			</note>
			<note>
				<chord/>
				<pitch>
					<step>D</step>
					<octave>4</octave>
				</pitch>
				<duration>6720</duration>
				<voice>1</voice>
				<type>quarter</type>
				<stem default-y="14.71">up</stem>
			</note>
			<note>
				<pitch>
					<step>A</step>
					<octave>4</octave>
				</pitch>
				<duration>6720</duration>
				<voice>1</voice>
				<type>quarter</type>
				<stem default-y="9.71">up</stem>
			</note>
			<backup>
				<duration>6720</duration>
			</backup>
			<note>
				<pitch>
					<step>D</step>
					<octave>4</octave>
				</pitch>
				<duration>3360</duration>
				<voice>2</voice>
				<type>eighth</type>
				<stem default-y="-85.59">down</stem>
				<beam number="1">begin</beam>
				<notations>
					<slur type="start" number="1" placement="below" orientation="under"/>
				</notations>
			</note>
			<note>
				<pitch>
					<step>C</step>
					<octave>4</octave>
				</pitch>
				<duration>3360</duration>
				<voice>2</voice>
				<type>eighth</type>
				<stem default-y="-90.29">down</stem>
				<beam number="1">end</beam>
				<notations>
					<slur type="stop" number="1"/>
				</notations>
			</note>
		</measure>
		<!--==========================[1,5]=============================-->
		<measure number="5" width="34">
			<forward>
				<duration>18060</duration>
			</forward>
			<direction placement="below">
				<direction-type>
					<words font-family="Arial" font-size="10" font-weight="normal" font-style="normal" relative-x="0.00" default-y="-30.45">5.</words>
				</direction-type>
			</direction>
			<direction placement="below">
				<direction-type>
					<words font-family="MSTT31c3f700" font-size="4" font-weight="normal" font-style="normal" relative-x="0.00" default-y="-30.45">5</words>
				</direction-type>
			</direction>
		</measure>
		<!--==========================[1,6]=============================-->
		<measure number="6" width="53">
			<forward>
				<duration>1680</duration>
			</forward>
			<direction placement="below">
				<direction-type>
					<words font-family="Arial" font-size="10" font-weight="normal" font-style="normal" relative-x="0.00" default-y="-53.10">.</words>
				</direction-type>
			</direction>
			<forward>
				<duration>10080</duration>
			</forward>
			<direction placement="below">
				<direction-type>
					<words font-family="Arial" font-size="10" font-weight="normal" font-style="normal" relative-x="0.00" default-y="-45.45">.</words>
				</direction-type>
			</direction>
			<direction placement="below">
				<direction-type>
					<words font-family="Arial" font-size="10" font-weight="normal" font-style="normal" relative-x="0.00" default-y="-20.45">.</words>
				</direction-type>
			</direction>
		</measure>
		<!--==========================[1,7]=============================-->
		<measure number="7" width="165">
			<print new-system="yes">
				<system-layout>
					<system-margins>
						<left-margin>18.612</left-margin>
						<right-margin>790.445</right-margin>
					</system-margins>
					<system-distance>149.118</system-distance>
				</system-layout>
			</print>
			<attributes>
				<key>
					<fifths>0</fifths>
					<mode>major</mode>
				</key>
				<clef number="1">
					<sign>TAB</sign>
					<line>5</line>
				</clef>
				<staff-details number="1" print-object="yes">
				</staff-details>
			</attributes>
			<forward>
				<duration>6720</duration>
			</forward>
			<direction placement="below">
				<direction-type>
					<words font-family="Arial" font-size="10" font-weight="normal" font-style="normal" relative-x="0.00" default-y="-0.45">#</words>
				</direction-type>
			</direction>
			<direction placement="below">
				<direction-type>
					<words font-family="MSTT31c3f700" font-size="10" font-weight="normal" font-style="normal" relative-x="0.00" default-y="-50.00"></words>
				</direction-type>
			</direction>
			<direction placement="below">
				<direction-type>
					<words font-family="Arial" font-size="10" font-weight="normal" font-style="normal" relative-x="0.00" default-y="-15.45">.</words>
				</direction-type>
			</direction>
			<direction placement="below">
				<direction-type>
					<words font-family="Arial" font-size="10" font-weight="normal" font-style="normal" relative-x="0.00" default-y="-45.45">. .</words>
				</direction-type>
			</direction>
			<direction placement="below">
				<direction-type>
					<words font-family="Arial" font-size="10" font-weight="normal" font-style="normal" relative-x="0.00" default-y="-25.45">.</words>
				</direction-type>
			</direction>
			<direction placement="below">
				<direction-type>
					<words font-family="Arial" font-size="10" font-weight="normal" font-style="normal" relative-x="0.00" default-y="-20.45">.</words>
				</direction-type>
			</direction>
			<direction placement="below">
				<direction-type>
					<words font-family="Arial" font-size="10" font-weight="normal" font-style="normal" relative-x="0.00" default-y="-30.45">.</words>
				</direction-type>
			</direction>
			<direction placement="below">
				<direction-type>
					<words font-family="Arial" font-size="10" font-weight="normal" font-style="normal" relative-x="0.00" default-y="-15.45">.</words>
				</direction-type>
			</direction>
			<direction placement="below">
				<direction-type>
					<words font-family="Arial" font-size="10" font-weight="normal" font-style="normal" relative-x="0.00" default-y="-50.45">.</words>
				</direction-type>
			</direction>
			<backup>
				<duration>6720</duration>
			</backup>
			<note>
				<pitch>
					<step>D</step>
					<alter>1</alter>
					<octave>4</octave>
				</pitch>
				<duration>6720</duration>
				<voice>1</voice>
				<type>quarter</type>
				<stem>none</stem>
				<notations>
					<technical>
						<fret>6</fret>
						<string>5</string>
					</technical>
				</notations>
			</note>
		</measure>
		<!--==========================[1,8]=============================-->
		<measure number="8" width="163">
			<forward>
				<duration>2940</duration>
			</forward>
			<direction placement="below">
				<direction-type>
					<words font-family="Arial" font-size="10" font-weight="normal" font-style="normal" relative-x="0.00" default-y="-30.45">.</words>
				</direction-type>
			</direction>
			<direction placement="below">
				<direction-type>
					<words font-family="Arial" font-size="10" font-weight="normal" font-style="normal" relative-x="0.00" default-y="-10.45">.</words>
				</direction-type>
			</direction>
			<forward>
				<duration>3780</duration>
			</forward>
			<direction placement="below">
				<direction-type>
					<words font-family="Arial" font-size="10" font-weight="normal" font-style="normal" relative-x="0.00" default-y="-40.45">.</words>
				</direction-type>
			</direction>
			<direction placement="below">
				<direction-type>
					<words font-family="Arial" font-size="10" font-weight="normal" font-style="normal" relative-x="0.00" default-y="-25.45">.</words>
				</direction-type>
			</direction>
			<forward>
				<duration>4200</duration>
			</forward>
			<direction placement="below">
				<direction-type>
					<words font-family="Arial" font-size="10" font-weight="normal" font-style="normal" relative-x="0.00" default-y="-30.45">.</words>
				</direction-type>
			</direction>
			<forward>
				<duration>3780</duration>
			</forward>
			<direction placement="below">
				<direction-type>
					<words font-family="Arial" font-size="10" font-weight="normal" font-style="normal" relative-x="0.00" default-y="-45.45">.</words>
				</direction-type>
			</direction>
			<direction placement="below">
				<direction-type>
					<words font-family="Arial" font-size="10" font-weight="normal" font-style="normal" relative-x="0.00" default-y="-35.45">.</words>
				</direction-type>
			</direction>
			<forward>
				<duration>4200</duration>
			</forward>
			<direction placement="below">
				<direction-type>
					<words font-family="Arial" font-size="10" font-weight="normal" font-style="normal" relative-x="0.00" default-y="-40.45">.</words>
				</direction-type>
			</direction>
		</measure>
		<!--==========================[1,9]=============================-->
		<measure number="9" width="163">
			<forward>
				<duration>2940</duration>
			</forward>
			<direction placement="below">
				<direction-type>
					<words font-family="Arial" font-size="10" font-weight="normal" font-style="normal" relative-x="0.00" default-y="-45.45">.</words>
				</direction-type>
			</direction>
			<forward>
				<duration>3780</duration>
			</forward>
			<direction placement="below">
				<direction-type>
					<words font-family="Arial" font-size="10" font-weight="normal" font-style="normal" relative-x="0.00" default-y="-30.45">.</words>
				</direction-type>
			</direction>
			<forward>
				<duration>4200</duration>
			</forward>
			<direction placement="below">
				<direction-type>
					<words font-family="Arial" font-size="10" font-weight="normal" font-style="normal" relative-x="0.00" default-y="-25.45">.</words>
				</direction-type>
			</direction>
			<forward>
				<duration>3780</duration>
			</forward>
			<direction placement="below">
				<direction-type>
					<words font-family="Arial" font-size="10" font-weight="normal" font-style="normal" relative-x="0.00" default-y="-45.45">. .</words>
				</direction-type>
			</direction>
			<direction placement="below">
				<direction-type>
					<words font-family="Arial" font-size="10" font-weight="normal" font-style="normal" relative-x="0.00" default-y="-20.45">.</words>
				</direction-type>
			</direction>
			<forward>
				<duration>4200</duration>
			</forward>
			<direction placement="below">
				<direction-type>
					<words font-family="Arial" font-size="10" font-weight="normal" font-style="normal" relative-x="0.00" default-y="-25.45">.</words>
				</direction-type>
			</direction>
		</measure>
		<!--==========================[1,10]=============================-->
		<measure number="10" width="30">
			<forward>
				<duration>6720</duration>
			</forward>
			<direction placement="below">
				<direction-type>
					<words font-family="Arial" font-size="10" font-weight="normal" font-style="normal" relative-x="0.00" default-y="-50.45">.</words>
				</direction-type>
			</direction>
			<direction placement="below">
				<direction-type>
					<words font-family="Arial" font-size="10" font-weight="normal" font-style="normal" relative-x="0.00" default-y="-55.45">. .</words>
				</direction-type>
			</direction>
			<direction placement="below">
				<direction-type>
					<words font-family="Arial" font-size="10" font-weight="normal" font-style="normal" relative-x="0.00" default-y="-50.45">.</words>
				</direction-type>
			</direction>
			<direction placement="below">
				<direction-type>
					<words font-family="Arial" font-size="10" font-weight="normal" font-style="normal" relative-x="0.00" default-y="-50.45">.</words>
				</direction-type>
			</direction>
			<backup>
				<duration>6720</duration>
			</backup>
			<note>
				<pitch>
					<step>G</step>
					<octave>4</octave>
				</pitch>
				<duration>6720</duration>
				<voice>1</voice>
				<type>quarter</type>
				<stem>none</stem>
				<notations>
					<technical>
						<fret>5</fret>
						<string>4</string>
					</technical>
				</notations>
			</note>
			<note>
				<chord/>
				<pitch>
					<step>G</step>
					<octave>4</octave>
				</pitch>
				<duration>6720</duration>
				<voice>1</voice>
				<type>quarter</type>
				<stem>none</stem>
				<notations>
					<technical>
						<fret>5</fret>
						<string>4</string>
					</technical>
				</notations>
			</note>
			<barline location="right">
				<bar-style>light-light</bar-style>
			</barline>
		</measure>
		<!--==========================[1,11]=============================-->
		<measure number="11" width="29">
			<forward>
				<duration>3360</duration>
			</forward>
			<direction placement="below">
				<direction-type>
					<words font-family="Arial" font-size="10" font-weight="normal" font-style="normal" relative-x="0.00" default-y="-53.10">.</words>
				</direction-type>
			</direction>
		</measure>
	</part>
	<part id="P2">
		<!--==========================[2,1]=============================-->
		<measure number="1" width="123">
			<print new-page="yes">
				<staff-layout number="1">
					<staff-distance>130.001</staff-distance>
				</staff-layout>
			</print>
			<attributes>
				<divisions>6720</divisions>
				<clef number="1">
					<sign>TAB</sign>
					<line>5</line>
				</clef>
				<staff-details number="1" print-object="yes">
					<staff-lines>5</staff-lines>
					<staff-tuning line="1">
						<tuning-step>A</tuning-step>
						<tuning-octave>3</tuning-octave>
					</staff-tuning>
					<staff-tuning line="2">
						<tuning-step>D</tuning-step>
						<tuning-octave>4</tuning-octave>
					</staff-tuning>
					<staff-tuning line="3">
						<tuning-step>G</tuning-step>
						<tuning-octave>4</tuning-octave>
					</staff-tuning>
					<staff-tuning line="4">
						<tuning-step>B</tuning-step>
						<tuning-octave>4</tuning-octave>
					</staff-tuning>
					<staff-tuning line="5">
						<tuning-step>E</tuning-step>
						<tuning-octave>5</tuning-octave>
					</staff-tuning>
					<staff-size>100.00</staff-size>
				</staff-details>
				<transpose>
					<chromatic>0</chromatic>
					<octave-change>-1</octave-change>
				</transpose>
			</attributes>
			<direction placement="below">
				<direction-type>
					<words font-family="Arial" font-size="10" font-weight="normal" font-style="normal" relative-x="33.96" default-y="-10.45">#</words>
				</direction-type>
			</direction>
			<attributes>
				<time>
					<beats>4</beats>
					<beat-type>4</beat-type>
				</time>
			</attributes>
			<forward>
				<duration>12180</duration>
			</forward>
			<direction placement="below">
				<direction-type>
					<words font-family="Arial" font-size="10" font-weight="normal" font-style="normal" relative-x="0.00" default-y="-5.45">.</words>
				</direction-type>
			</direction>
			<direction placement="above">
				<direction-type>
					<words font-family="Arial" font-size="10" font-weight="normal" font-style="normal" relative-x="0.00" default-y="4.55">.</words>
				</direction-type>
			</direction>
		</measure>
		<!--==========================[2,2]=============================-->
		<measure number="2" width="166">
			<forward>
				<duration>3780</duration>
			</forward>
			<direction placement="below">
				<direction-type>
					<words font-family="Arial" font-size="10" font-weight="normal" font-style="normal" relative-x="0.00" default-y="-10.45">.</words>
				</direction-type>
			</direction>
			<direction placement="below">
				<direction-type>
					<words font-family="Arial" font-size="10" font-weight="normal" font-style="normal" relative-x="0.00" default-y="-0.45">.</words>
				</direction-type>
			</direction>
			<forward>
				<duration>4620</duration>
			</forward>
			<direction placement="below">
				<direction-type>
					<words font-family="Arial" font-size="10" font-weight="normal" font-style="normal" relative-x="0.00" default-y="-5.45">.</words>
				</direction-type>
			</direction>
			<forward>
				<duration>4620</duration>
			</forward>
			<direction placement="below">
				<direction-type>
					<words font-family="Arial" font-size="10" font-weight="normal" font-style="normal" relative-x="0.00" default-y="-15.45">.</words>
				</direction-type>
			</direction>
			<direction placement="above">
				<direction-type>
					<words font-family="Arial" font-size="10" font-weight="normal" font-style="normal" relative-x="0.00" default-y="4.55">.</words>
				</direction-type>
			</direction>
			<forward>
				<duration>4620</duration>
			</forward>
			<direction placement="below">
				<direction-type>
					<words font-family="Arial" font-size="10" font-weight="normal" font-style="normal" relative-x="0.00" default-y="-25.45">.</words>
				</direction-type>
			</direction>
			<direction placement="above">
				<direction-type>
					<words font-family="Arial" font-size="10" font-weight="normal" font-style="normal" relative-x="0.00" default-y="9.55">.</words>
				</direction-type>
			</direction>
			<forward>
				<duration>4620</duration>
			</forward>
			<direction placement="above">
				<direction-type>
					<words font-family="Arial" font-size="10" font-weight="normal" font-style="normal" relative-x="0.00" default-y="4.55">.</words>
				</direction-type>
			</direction>
		</measure>
		<!--==========================[2,3]=============================-->
		<measure number="3" width="220">
			<forward>
				<duration>2520</duration>
			</forward>
			<direction placement="below">
				<direction-type>
					<words font-family="Arial" font-size="10" font-weight="normal" font-style="normal" relative-x="0.00" default-y="-20.45">.</words>
				</direction-type>
			</direction>
			<direction placement="below">
				<direction-type>
					<words font-family="Arial" font-size="10" font-weight="normal" font-style="normal" relative-x="0.00" default-y="-0.45">.</words>
				</direction-type>
			</direction>
			<forward>
				<duration>3780</duration>
			</forward>
			<direction placement="below">
				<direction-type>
					<words font-family="Arial" font-size="10" font-weight="normal" font-style="normal" relative-x="0.00" default-y="-15.45">.</words>
				</direction-type>
			</direction>
			<direction placement="below">
				<direction-type>
					<words font-family="Arial" font-size="10" font-weight="normal" font-style="normal" relative-x="0.00" default-y="-5.45">.</words>
				</direction-type>
			</direction>
			<forward>
				<duration>8400</duration>
			</forward>
			<direction placement="below">
				<direction-type>
					<words font-family="Arial" font-size="10" font-weight="normal" font-style="normal" relative-x="0.00" default-y="-20.45">.</words>
				</direction-type>
			</direction>
			<direction placement="below">
				<direction-type>
					<words font-family="Arial" font-size="10" font-weight="normal" font-style="normal" relative-x="0.00" default-y="-10.45">.</words>
				</direction-type>
			</direction>
			<forward>
				<duration>3360</duration>
			</forward>
			<direction placement="below">
				<direction-type>
					<words font-family="Arial" font-size="10" font-weight="normal" font-style="normal" relative-x="0.00" default-y="-40.45">.</words>
				</direction-type>
			</direction>
			<direction placement="below">
				<direction-type>
					<words font-family="Arial" font-size="10" font-weight="normal" font-style="normal" relative-x="0.00" default-y="-5.45">.</words>
				</direction-type>
			</direction>
			<forward>
				<duration>5040</duration>
			</forward>
			<direction placement="below">
				<direction-type>
					<words font-family="Arial" font-size="10" font-weight="normal" font-style="normal" relative-x="0.00" default-y="-35.45">.</words>
				</direction-type>
			</direction>
		</measure>
		<!--==========================[2,4]=============================-->
		<measure number="4" width="194">
			<forward>
				<duration>2940</duration>
			</forward>
			<direction placement="below">
				<direction-type>
					<words font-family="Arial" font-size="10" font-weight="normal" font-style="normal" relative-x="0.00" default-y="-30.45">.</words>
				</direction-type>
			</direction>
			<direction placement="below">
				<direction-type>
					<words font-family="Arial" font-size="10" font-weight="normal" font-style="normal" relative-x="0.00" default-y="-5.45">. .</words>
				</direction-type>
			</direction>
			<forward>
				<duration>4200</duration>
			</forward>
			<direction placement="below">
				<direction-type>
					<words font-family="Arial" font-size="10" font-weight="normal" font-style="normal" relative-x="0.00" default-y="-15.45">.</words>
				</direction-type>
			</direction>
			<forward>
				<duration>7560</duration>
			</forward>
			<direction placement="below">
				<direction-type>
					<words font-family="Arial" font-size="10" font-weight="normal" font-style="normal" relative-x="0.00" default-y="-20.45">. .</words>
				</direction-type>
			</direction>
			<direction placement="below">
				<direction-type>
					<words font-family="Arial" font-size="10" font-weight="normal" font-style="normal" relative-x="0.00" default-y="-5.45">.</words>
				</direction-type>
			</direction>
			<forward>
				<duration>4200</duration>
			</forward>
			<direction placement="below">
				<direction-type>
					<words font-family="Arial" font-size="10" font-weight="normal" font-style="normal" relative-x="0.00" default-y="-10.45">.</words>
				</direction-type>
			</direction>
		</measure>
		<!--==========================[2,5]=============================-->
		<measure number="5" width="34">
			<note>
				<pitch>
					<step>D</step>
					<octave>4</octave>
				</pitch>
				<duration>6720</duration>
				<voice>1</voice>
				<type>quarter</type>
				<stem>none</stem>
				<notations>
					<technical>
						<fret>5</fret>
						<string>5</string>
						<fingering placement="above" relative-x="0.00" relative-y="9.58">5</fingering>
					</technical>
				</notations>
			</note>
			<note>
				<chord/>
				<pitch>
					<step>E</step>
					<octave>5</octave>
				</pitch>
				<duration>6720</duration>
				<voice>1</voice>
				<type>quarter</type>
				<stem>none</stem>
				<notations>
					<technical>
						<fret>5</fret>
						<string>2</string>
						<fingering placement="above" relative-x="0.00" relative-y="9.58">5</fingering>
					</technical>
				</notations>
			</note>
		</measure>
		<!--==========================[2,6]=============================-->
		<measure number="6" width="53">
			<forward>
				<duration>11760</duration>
			</forward>
			<direction placement="below">
				<direction-type>
					<words font-family="Arial" font-size="10" font-weight="normal" font-style="normal" relative-x="0.00" default-y="-5.45">.</words>
				</direction-type>
			</direction>
		</measure>
		<!--==========================[2,7]=============================-->
		<measure number="7" width="165">
			<print new-system="yes">
				<staff-layout number="1">
					<staff-distance>130.001</staff-distance>
				</staff-layout>
			</print>
			<attributes>
				<staff-details number="1" print-object="yes">
				</staff-details>
			</attributes>
			<forward>
				<duration>6720</duration>
			</forward>
			<direction placement="below">
				<direction-type>
					<words font-family="Arial" font-size="10" font-weight="normal" font-style="normal" relative-x="0.00" default-y="-10.45">#</words>
				</direction-type>
			</direction>
			<forward>
				<duration>4200</duration>
			</forward>
			<direction placement="below">
				<direction-type>
					<words font-family="Arial" font-size="10" font-weight="normal" font-style="normal" relative-x="0.00" default-y="-15.45">.</words>
				</direction-type>
			</direction>
			<direction placement="below">
				<direction-type>
					<words font-family="Arial" font-size="10" font-weight="normal" font-style="normal" relative-x="0.00" default-y="-5.45">.</words>
				</direction-type>
			</direction>
			<forward>
				<duration>3780</duration>
			</forward>
			<direction placement="below">
				<direction-type>
					<words font-family="Arial" font-size="10" font-weight="normal" font-style="normal" relative-x="0.00" default-y="-10.45">.</words>
				</direction-type>
			</direction>
			<direction placement="below">
				<direction-type>
					<words font-family="Arial" font-size="10" font-weight="normal" font-style="normal" relative-x="0.00" default-y="-0.45">.</words>
				</direction-type>
			</direction>
			<forward>
				<duration>4200</duration>
			</forward>
			<direction placement="below">
				<direction-type>
					<words font-family="Arial" font-size="10" font-weight="normal" font-style="normal" relative-x="0.00" default-y="-5.45">. .</words>
				</direction-type>
			</direction>
			<forward>
				<duration>3780</duration>
			</forward>
			<direction placement="below">
				<direction-type>
					<words font-family="Arial" font-size="10" font-weight="normal" font-style="normal" relative-x="0.00" default-y="-15.45">.</words>
				</direction-type>
			</direction>
		</measure>
		<!--==========================[2,8]=============================-->
		<measure number="8" width="163">
			<forward>
				<duration>2940</duration>
			</forward>
			<direction placement="below">
				<direction-type>
					<words font-family="Arial" font-size="10" font-weight="normal" font-style="normal" relative-x="0.00" default-y="-30.45">.</words>
				</direction-type>
			</direction>
			<direction placement="below">
				<direction-type>
					<words font-family="Arial" font-size="10" font-weight="normal" font-style="normal" relative-x="0.00" default-y="-5.45">.</words>
				</direction-type>
			</direction>
			<forward>
				<duration>3780</duration>
			</forward>
			<direction placement="below">
				<direction-type>
					<words font-family="Arial" font-size="10" font-weight="normal" font-style="normal" relative-x="0.00" default-y="-25.45">.</words>
				</direction-type>
			</direction>
			<direction placement="above">
				<direction-type>
					<words font-family="Arial" font-size="10" font-weight="normal" font-style="normal" relative-x="0.00" default-y="9.55">.</words>
				</direction-type>
			</direction>
			<forward>
				<duration>4200</duration>
			</forward>
			<direction placement="above">
				<direction-type>
					<words font-family="Arial" font-size="10" font-weight="normal" font-style="normal" relative-x="0.00" default-y="4.55">.</words>
				</direction-type>
			</direction>
			<forward>
				<duration>3780</duration>
			</forward>
			<direction placement="below">
				<direction-type>
					<words font-family="Arial" font-size="10" font-weight="normal" font-style="normal" relative-x="0.00" default-y="-20.45">.</words>
				</direction-type>
			</direction>
			<direction placement="below">
				<direction-type>
					<words font-family="Arial" font-size="10" font-weight="normal" font-style="normal" relative-x="0.00" default-y="-0.45">.</words>
				</direction-type>
			</direction>
			<forward>
				<duration>4200</duration>
			</forward>
			<direction placement="below">
				<direction-type>
					<words font-family="Arial" font-size="10" font-weight="normal" font-style="normal" relative-x="0.00" default-y="-15.45">.</words>
				</direction-type>
			</direction>
			<direction placement="below">
				<direction-type>
					<words font-family="Arial" font-size="10" font-weight="normal" font-style="normal" relative-x="0.00" default-y="-5.45">.</words>
				</direction-type>
			</direction>
			<forward>
				<duration>3780</duration>
			</forward>
			<direction placement="below">
				<direction-type>
					<words font-family="Arial" font-size="10" font-weight="normal" font-style="normal" relative-x="0.00" default-y="-10.45">.</words>
				</direction-type>
			</direction>
			<direction placement="below">
				<direction-type>
					<words font-family="Arial" font-size="10" font-weight="normal" font-style="normal" relative-x="0.00" default-y="-0.45">.</words>
				</direction-type>
			</direction>
		</measure>
		<!--==========================[2,9]=============================-->
		<measure number="9" width="163">
			<forward>
				<duration>2940</duration>
			</forward>
			<direction placement="below">
				<direction-type>
					<words font-family="Arial" font-size="10" font-weight="normal" font-style="normal" relative-x="0.00" default-y="-5.45">. .</words>
				</direction-type>
			</direction>
			<direction placement="above">
				<direction-type>
					<words font-family="Arial" font-size="10" font-weight="normal" font-style="normal" relative-x="0.00" default-y="4.55">.</words>
				</direction-type>
			</direction>
			<forward>
				<duration>3780</duration>
			</forward>
			<direction placement="below">
				<direction-type>
					<words font-family="Arial" font-size="10" font-weight="normal" font-style="normal" relative-x="0.00" default-y="-15.45">.</words>
				</direction-type>
			</direction>
			<forward>
				<duration>7980</duration>
			</forward>
			<direction placement="below">
				<direction-type>
					<words font-family="Arial" font-size="10" font-weight="normal" font-style="normal" relative-x="0.00" default-y="-20.45">. .</words>
				</direction-type>
			</direction>
			<direction placement="below">
				<direction-type>
					<words font-family="Arial" font-size="10" font-weight="normal" font-style="normal" relative-x="0.00" default-y="-5.45">.</words>
				</direction-type>
			</direction>
			<forward>
				<duration>4200</duration>
			</forward>
			<direction placement="below">
				<direction-type>
					<words font-family="Arial" font-size="10" font-weight="normal" font-style="normal" relative-x="0.00" default-y="-10.45">.</words>
				</direction-type>
			</direction>
		</measure>
		<!--==========================[2,10]=============================-->
		<measure number="10" width="30">
			<note>
				<pitch>
					<step>D</step>
					<octave>4</octave>
				</pitch>
				<duration>6720</duration>
				<voice>1</voice>
				<type>quarter</type>
				<stem>none</stem>
				<notations>
					<technical>
						<fret>5</fret>
						<string>5</string>
						<fingering placement="above" relative-x="0.00" relative-y="9.58">5</fingering>
					</technical>
				</notations>
			</note>
			<note>
				<chord/>
				<pitch>
					<step>E</step>
					<octave>5</octave>
				</pitch>
				<duration>6720</duration>
				<voice>1</voice>
				<type>quarter</type>
				<stem>none</stem>
				<notations>
					<technical>
						<fret>5</fret>
						<string>2</string>
						<fingering placement="above" relative-x="0.00" relative-y="9.58">5</fingering>
					</technical>
				</notations>
			</note>
			<barline location="right">
				<bar-style>light-light</bar-style>
			</barline>
		</measure>
		<!--==========================[2,11]=============================-->
		<measure number="11" width="29">
		</measure>
	</part>
</score-partwise>
