<?xml version="1.0" encoding="UTF-8" standalone="no"?>
<!DOCTYPE score-partwise PUBLIC "-//Recordare//DTD MusicXML 2.0 Partwise//EN" "http://www.musicxml.org/dtds/partwise.dtd">
<score-partwise version="2.0">
	<identification>
		<creator type="poet">Es Ist Das Heil
           Wittenberg Gesangbuch, 1524</creator>
		<encoding>
			<software>PDFtoMusic Pro v1.6.5 Build 1B9E7 (c) Myriad - http://www.myriad-online.com</software>
			<?PDFtoMusic Document type 0100- 00000000?>
			<?Font corrections applied by user?>
			<supports attribute="new-system" element="print" type="yes" value="yes"/>
			<supports attribute="new-page" element="print" type="yes" value="yes"/>
		</encoding>
	</identification>
	<defaults>
		<scaling>
			<millimeters>5.757329</millimeters>
			<tenths>40</tenths>
		</scaling>
		<page-layout>
			<page-height>1941.178</page-height>
			<page-width>1500.001</page-width>
			<page-margins type="both">
				<left-margin>69.477</left-margin>
				<right-margin>69.477</right-margin>
				<top-margin>69.477</top-margin>
				 <bottom-margin>69.477</bottom-margin>
			</page-margins>
		</page-layout>
		<appearance>
			<line-width type="stem">0.2941</line-width>
			<line-width type="beam">5.0001</line-width>
			<line-width type="staff">0.8824</line-width>
			<line-width type="light barline">0.4634</line-width>
			<line-width type="heavy barline">5.3921</line-width>
			<line-width type="leger">0.8823</line-width>
			<note-size type="grace">85.7844</note-size>
		</appearance>
	</defaults>
	<credit page="1">
		<credit-words  default-x="296.177" default-y="1322.727" justify="left" valign="baseline" font-family="Times New Roman" font-size="24" font-weight="bold" font-style="normal">Es Ist Das Heil
</credit-words>
		<credit-words   justify="left" valign="baseline" font-family="Times New Roman" font-size="12" font-weight="normal" font-style="normal">           Wittenberg Gesangbuch, 1524</credit-words>
	</credit>
	<credit page="1">
		<credit-words  default-x="421.471" default-y="92.846" justify="left" valign="baseline" font-family="Times New Roman" font-size="8" font-weight="normal" font-style="normal">(public domain)</credit-words>
	</credit>
	<credit page="1">
		<credit-words  default-x="497.353" default-y="1178.913" justify="left" valign="baseline" font-family="Arial" font-size="10" font-weight="normal" font-style="normal">,</credit-words>
	</credit>
	<part-list>
		<score-part id="P1">
			<part-name></part-name>
			<score-instrument id="P1-I1">
				<instrument-name>Instrument 1</instrument-name>
			</score-instrument>
			<midi-instrument id="P1-I1">
				<midi-channel>1</midi-channel>
				<midi-bank>1</midi-bank>
				<midi-program>53</midi-program>
				<volume>50</volume>
				<pan>0</pan>
				<elevation>0</elevation>
				<?Myriad
				<iddigit>5201</iddigit>
				?>
			</midi-instrument>
		</score-part>
		<score-part id="P2">
			<part-name></part-name>
			<score-instrument id="P2-I1">
				<instrument-name>Instrument 2</instrument-name>
			</score-instrument>
			<midi-instrument id="P2-I1">
				<midi-channel>2</midi-channel>
				<midi-bank>1</midi-bank>
				<midi-program>25</midi-program>
				<volume>50</volume>
				<pan>0</pan>
				<elevation>0</elevation>
				<?Myriad
				<iddigit>2400</iddigit>
				?>
			</midi-instrument>
		</score-part>
	</part-list>
	<part id="P1">
		<!--==========================[1,1]=============================-->
		<measure number="1" width="68">
			<print new-page="yes">
				<system-layout>
					<system-margins>
						<left-margin>18.612</left-margin>
						<right-margin>547.795</right-margin>
					</system-margins>
					<top-system-distance>707.338</top-system-distance>
				</system-layout>
			</print>
			<attributes>
				<divisions>6720</divisions>
				<key>
					<fifths>2</fifths>
					<mode>major</mode>
				</key>
				<clef number="1">
					<sign>G</sign>
					<line>2</line>
				</clef>
				<staff-details number="1" print-object="yes">
					<staff-lines>5</staff-lines>
					<staff-tuning line="1">
						<tuning-step>A</tuning-step>
						<tuning-octave>3</tuning-octave>
					</staff-tuning>
					<staff-tuning line="2">
						<tuning-step>D</tuning-step>
						<tuning-octave>4</tuning-octave>
					</staff-tuning>
					<staff-tuning line="3">
						<tuning-step>G</tuning-step>
						<tuning-octave>4</tuning-octave>
					</staff-tuning>
					<staff-tuning line="4">
						<tuning-step>B</tuning-step>
						<tuning-octave>4</tuning-octave>
					</staff-tuning>
					<staff-tuning line="5">
						<tuning-step>E</tuning-step>
						<tuning-octave>5</tuning-octave>
					</staff-tuning>
					<staff-size>100.00</staff-size>
				</staff-details>
				<transpose>
					<chromatic>-2</chromatic>
				</transpose>
			</attributes>
			<barline location="right">
				<bar-style>heavy</bar-style>
			</barline>
		</measure>
		<!--==========================[1,2]=============================-->
		<measure number="2" width="54">
			<barline location="left">
				<repeat direction="forward"/>
			</barline>
			<note>
				<grace/>
				<pitch>
					<step>A</step>
					<octave>5</octave>
				</pitch>
				<voice>1</voice>
				<type>quarter</type>
				<stem default-y="28.49">up</stem>
			</note>
			<forward>
				<duration>1260</duration>
			</forward>
			<direction placement="above">
				<direction-type>
					<words font-family="Times New Roman" font-size="8" font-weight="bold" font-style="normal" relative-x="0.00" default-y="2.50"></words>
				</direction-type>
				<direction-type>
					<metronome font-family="Times New Roman" font-size="8" font-weight="bold" font-style="normal" relative-x="33.66" default-y="2.50">
						<beat-unit>quarter</beat-unit>
						<per-minute>110</per-minute>
					</metronome>
				</direction-type>
				<sound tempo="110.00"/>
			</direction>
			<backup>
				<duration>1260</duration>
			</backup>
			<note>
				<pitch>
					<step>A</step>
					<octave>4</octave>
				</pitch>
				<duration>6720</duration>
				<voice>1</voice>
				<type>quarter</type>
				<stem default-y="9.71">up</stem>
				<lyric number="1" justify="center" default-y="-145.45">
					<syllabic>single</syllabic>
					<text font-family="Arial" font-size="10" font-weight="normal" font-style="normal">
.</text>
					<extend/>
				</lyric>
			</note>
			<note>
				<chord/>
				<pitch>
					<step>F</step>
					<octave>4</octave>
				</pitch>
				<duration>6720</duration>
				<voice>1</voice>
				<type>quarter</type>
				<stem default-y="9.71">up</stem>
			</note>
		</measure>
		<!--==========================[1,3]=============================-->
		<measure number="3" width="235">
			<note>
				<pitch>
					<step>A</step>
					<octave>4</octave>
				</pitch>
				<duration>6720</duration>
				<voice>1</voice>
				<type>quarter</type>
				<stem default-y="9.71">up</stem>
				<lyric number="1" justify="center" default-y="-140.45">
					<syllabic>single</syllabic>
					<text font-family="Arial" font-size="10" font-weight="normal" font-style="normal">.</text>
				</lyric>
			</note>
			<note>
				<chord/>
				<pitch>
					<step>E</step>
					<octave>4</octave>
				</pitch>
				<duration>6720</duration>
				<voice>1</voice>
				<type>quarter</type>
				<stem default-y="9.71">up</stem>
			</note>
			<note>
				<pitch>
					<step>A</step>
					<octave>4</octave>
				</pitch>
				<duration>6720</duration>
				<voice>1</voice>
				<type>quarter</type>
				<stem default-y="9.71">up</stem>
			</note>
			<note>
				<chord/>
				<pitch>
					<step>E</step>
					<octave>4</octave>
				</pitch>
				<duration>6720</duration>
				<voice>1</voice>
				<type>quarter</type>
				<stem default-y="9.71">up</stem>
			</note>
			<note>
				<pitch>
					<step>A</step>
					<octave>4</octave>
				</pitch>
				<duration>6720</duration>
				<voice>1</voice>
				<type>quarter</type>
				<stem default-y="9.71">up</stem>
				<lyric number="1" justify="center" default-y="-145.45">
					<syllabic>single</syllabic>
					<text font-family="Arial" font-size="10" font-weight="normal" font-style="normal">.</text>
				</lyric>
			</note>
			<note>
				<chord/>
				<pitch>
					<step>F</step>
					<octave>4</octave>
				</pitch>
				<duration>6720</duration>
				<voice>1</voice>
				<type>quarter</type>
				<stem default-y="9.71">up</stem>
			</note>
			<note>
				<pitch>
					<step>C</step>
					<octave>5</octave>
				</pitch>
				<duration>6720</duration>
				<voice>1</voice>
				<type>quarter</type>
				<accidental>natural</accidental>
				<stem default-y="19.71">up</stem>
			</note>
			<note>
				<chord/>
				<pitch>
					<step>C</step>
					<octave>4</octave>
				</pitch>
				<duration>6720</duration>
				<voice>1</voice>
				<type>quarter</type>
				<accidental>natural</accidental>
				<stem default-y="19.71">up</stem>
			</note>
			<note>
				<pitch>
					<step>B</step>
					<octave>4</octave>
				</pitch>
				<duration>6720</duration>
				<voice>1</voice>
				<type>quarter</type>
				<stem default-y="14.71">up</stem>
			</note>
			<note>
				<chord/>
				<pitch>
					<step>D</step>
					<octave>4</octave>
				</pitch>
				<duration>6720</duration>
				<voice>1</voice>
				<type>quarter</type>
				<stem default-y="14.71">up</stem>
			</note>
			<note>
				<pitch>
					<step>A</step>
					<octave>4</octave>
				</pitch>
				<duration>6720</duration>
				<voice>1</voice>
				<type>quarter</type>
				<stem default-y="9.71">up</stem>
			</note>
			<backup>
				<duration>6720</duration>
			</backup>
			<note>
				<pitch>
					<step>D</step>
					<octave>4</octave>
				</pitch>
				<duration>3360</duration>
				<voice>2</voice>
				<type>eighth</type>
				<stem default-y="-85.59">down</stem>
				<beam number="1">begin</beam>
				<notations>
					<slur type="start" number="1" placement="below" orientation="under"/>
				</notations>
			</note>
			<note>
				<pitch>
					<step>C</step>
					<octave>4</octave>
				</pitch>
				<duration>3360</duration>
				<voice>2</voice>
				<type>eighth</type>
				<stem default-y="-90.59">down</stem>
				<beam number="1">end</beam>
				<notations>
					<slur type="stop" number="1"/>
				</notations>
			</note>
		</measure>
		<!--==========================[1,4]=============================-->
		<measure number="4" width="83">
			<forward>
				<duration>1260</duration>
			</forward>
			<direction placement="below">
				<direction-type>
					<words font-family="MSTT31c39a00" font-size="4" font-weight="normal" font-style="normal" relative-x="0.00" default-y="-30.45">5</words>
				</direction-type>
			</direction>
			<direction placement="below">
				<direction-type>
					<words font-family="Arial" font-size="10" font-weight="normal" font-style="normal" relative-x="0.00" default-y="-30.45">5.</words>
				</direction-type>
			</direction>
			<forward>
				<duration>1260</duration>
			</forward>
			<direction placement="below">
				<direction-type>
					<words font-family="Arial" font-size="10" font-weight="normal" font-style="normal" relative-x="0.00" default-y="-53.10">.</words>
				</direction-type>
			</direction>
			<forward>
				<duration>2100</duration>
			</forward>
			<direction placement="below">
				<direction-type>
					<words font-family="Arial" font-size="10" font-weight="normal" font-style="normal" relative-x="0.00" default-y="-40.45">.</words>
				</direction-type>
			</direction>
			<direction placement="below">
				<direction-type>
					<words font-family="Arial" font-size="10" font-weight="normal" font-style="normal" relative-x="0.00" default-y="-25.45">.</words>
				</direction-type>
			</direction>
		</measure>
		<!--==========================[1,5]=============================-->
		<measure number="5" width="246">
			<direction placement="below">
				<direction-type>
					<words font-family="Arial" font-size="10" font-weight="normal" font-style="normal" relative-x="16.20" default-y="-45.45">. . .</words>
				</direction-type>
			</direction>
			<direction placement="below">
				<direction-type>
					<words font-family="Arial" font-size="10" font-weight="normal" font-style="normal" relative-x="16.20" default-y="-35.45">.</words>
				</direction-type>
			</direction>
			<direction placement="below">
				<direction-type>
					<words font-family="Arial" font-size="10" font-weight="normal" font-style="normal" relative-x="57.00" default-y="-35.45">.</words>
				</direction-type>
			</direction>
			<direction placement="below">
				<direction-type>
					<words font-family="Arial" font-size="10" font-weight="normal" font-style="normal" relative-x="77.40" default-y="-30.45">#.</words>
				</direction-type>
			</direction>
			<direction placement="below">
				<direction-type>
					<words font-family="Arial" font-size="10" font-weight="normal" font-style="normal" relative-x="88.20" default-y="-40.45">.</words>
				</direction-type>
			</direction>
			<direction placement="below">
				<direction-type>
					<words font-family="Arial" font-size="10" font-weight="normal" font-style="normal" relative-x="129.00" default-y="-40.45">.</words>
				</direction-type>
			</direction>
			<direction placement="below">
				<direction-type>
					<words font-family="Arial" font-size="10" font-weight="normal" font-style="normal" relative-x="129.00" default-y="-25.45">.</words>
				</direction-type>
			</direction>
			<direction placement="below">
				<direction-type>
					<words font-family="Arial" font-size="10" font-weight="normal" font-style="normal" relative-x="160.20" default-y="-40.45">.</words>
				</direction-type>
			</direction>
			<direction placement="below">
				<direction-type>
					<words font-family="Arial" font-size="10" font-weight="normal" font-style="normal" relative-x="160.20" default-y="-20.45">.</words>
				</direction-type>
			</direction>
			<direction placement="below">
				<direction-type>
					<words font-family="Arial" font-size="10" font-weight="normal" font-style="normal" relative-x="180.60" default-y="-45.45">.</words>
				</direction-type>
			</direction>
		</measure>
		<!--==========================[1,6]=============================-->
		<measure number="6" width="57">
			<forward>
				<duration>2100</duration>
			</forward>
			<direction placement="below">
				<direction-type>
					<words font-family="MSTT31c39a00" font-size="4" font-weight="normal" font-style="normal" relative-x="0.00" default-y="-25.45">5</words>
				</direction-type>
			</direction>
			<direction placement="below">
				<direction-type>
					<words font-family="Arial" font-size="10" font-weight="normal" font-style="normal" relative-x="0.00" default-y="-25.45">5.</words>
				</direction-type>
			</direction>
			<forward>
				<duration>1680</duration>
			</forward>
			<direction placement="below">
				<direction-type>
					<words font-family="Arial" font-size="10" font-weight="normal" font-style="normal" relative-x="0.00" default-y="-48.10">.</words>
				</direction-type>
			</direction>
			<forward>
				<duration>2100</duration>
			</forward>
			<direction placement="below">
				<direction-type>
					<words font-family="Arial" font-size="10" font-weight="normal" font-style="normal" relative-x="0.00" default-y="-20.45">:</words>
				</direction-type>
			</direction>
			<barline location="right">
				<bar-style>heavy</bar-style>
			</barline>
		</measure>
		<!--==========================[1,7]=============================-->
		<measure number="7" width="48">
			<barline location="left">
				<bar-style>heavy</bar-style>
			</barline>
			<direction placement="below">
				<direction-type>
					<words font-family="Arial" font-size="10" font-weight="normal" font-style="normal" relative-x="18.36" default-y="-40.45">.</words>
				</direction-type>
			</direction>
			<direction placement="below">
				<direction-type>
					<words font-family="Arial" font-size="10" font-weight="normal" font-style="normal" relative-x="18.36" default-y="-25.45">.</words>
				</direction-type>
			</direction>
		</measure>
		<!--==========================[1,8]=============================-->
		<measure number="8" width="320">
			<print new-system="yes">
				<system-layout>
					<system-margins>
						<left-margin>18.612</left-margin>
						<right-margin>547.795</right-margin>
					</system-margins>
					<system-distance>155.588</system-distance>
				</system-layout>
			</print>
			<attributes>
				<key>
					<fifths>0</fifths>
					<mode>major</mode>
				</key>
				<clef number="1">
					<sign>TAB</sign>
					<line>5</line>
				</clef>
				<staff-details number="1" print-object="yes">
				</staff-details>
			</attributes>
			<forward>
				<duration>840</duration>
			</forward>
			<direction placement="below">
				<direction-type>
					<words font-family="Arial" font-size="10" font-weight="normal" font-style="normal" relative-x="0.00" default-y="-0.45">#</words>
				</direction-type>
			</direction>
			<direction placement="below">
				<direction-type>
					<words font-family="Arial" font-size="10" font-weight="normal" font-style="normal" relative-x="0.00" default-y="-15.45">#</words>
				</direction-type>
			</direction>
			<forward>
				<duration>840</duration>
			</forward>
			<direction placement="below">
				<direction-type>
					<words font-family="Arial" font-size="10" font-weight="normal" font-style="normal" relative-x="0.00" default-y="-35.45">.</words>
				</direction-type>
			</direction>
			<direction placement="below">
				<direction-type>
					<words font-family="Arial" font-size="10" font-weight="normal" font-style="normal" relative-x="0.00" default-y="-10.45">..</words>
				</direction-type>
			</direction>
			<forward>
				<duration>420</duration>
			</forward>
			<direction placement="below">
				<direction-type>
					<words font-family="Arial" font-size="10" font-weight="normal" font-style="normal" relative-x="0.00" default-y="-25.45">. .</words>
				</direction-type>
			</direction>
			<forward>
				<duration>420</duration>
			</forward>
			<direction placement="below">
				<direction-type>
					<words font-family="Arial" font-size="10" font-weight="normal" font-style="normal" relative-x="0.00" default-y="-15.45">.</words>
				</direction-type>
			</direction>
			<forward>
				<duration>840</duration>
			</forward>
			<direction placement="below">
				<direction-type>
					<words font-family="Arial" font-size="10" font-weight="normal" font-style="normal" relative-x="0.00" default-y="-30.45">. .</words>
				</direction-type>
			</direction>
			<direction placement="below">
				<direction-type>
					<words font-family="Arial" font-size="10" font-weight="normal" font-style="normal" relative-x="0.00" default-y="-20.45">.</words>
				</direction-type>
			</direction>
			<forward>
				<duration>420</duration>
			</forward>
			<direction placement="below">
				<direction-type>
					<words font-family="Arial" font-size="10" font-weight="normal" font-style="normal" relative-x="0.00" default-y="-15.45">.</words>
				</direction-type>
			</direction>
			<forward>
				<duration>840</duration>
			</forward>
			<direction placement="below">
				<direction-type>
					<words font-family="Arial" font-size="10" font-weight="normal" font-style="normal" relative-x="0.00" default-y="-35.45">.</words>
				</direction-type>
			</direction>
			<direction placement="below">
				<direction-type>
					<words font-family="Arial" font-size="10" font-weight="normal" font-style="normal" relative-x="0.00" default-y="-10.45">.</words>
				</direction-type>
			</direction>
			<forward>
				<duration>840</duration>
			</forward>
			<direction placement="below">
				<direction-type>
					<words font-family="Arial" font-size="10" font-weight="normal" font-style="normal" relative-x="0.00" default-y="-40.45">.</words>
				</direction-type>
			</direction>
			<direction placement="below">
				<direction-type>
					<words font-family="Arial" font-size="10" font-weight="normal" font-style="normal" relative-x="0.00" default-y="-20.45">.</words>
				</direction-type>
			</direction>
			<forward>
				<duration>420</duration>
			</forward>
			<direction placement="below">
				<direction-type>
					<words font-family="Arial" font-size="10" font-weight="normal" font-style="normal" relative-x="0.00" default-y="-45.45">.</words>
				</direction-type>
			</direction>
			<backup>
				<duration>5880</duration>
			</backup>
			<note>
				<pitch>
					<step>D</step>
					<alter>1</alter>
					<octave>4</octave>
				</pitch>
				<duration>6720</duration>
				<voice>1</voice>
				<type>quarter</type>
				<stem>none</stem>
				<notations>
					<technical>
						<fret>6</fret>
						<string>5</string>
					</technical>
				</notations>
				<lyric number="1" justify="left" default-y="-145.45">
					<syllabic>single</syllabic>
					<text font-family="Arial" font-size="10" font-weight="normal" font-style="normal">. .</text>
				</lyric>
			</note>
		</measure>
		<!--==========================[1,9]=============================-->
		<measure number="9" width="92">
			<forward>
				<duration>2520</duration>
			</forward>
			<direction placement="below">
				<direction-type>
					<words font-family="Arial" font-size="10" font-weight="normal" font-style="normal" relative-x="0.00" default-y="-48.10">.</words>
				</direction-type>
			</direction>
			<forward>
				<duration>1260</duration>
			</forward>
			<direction placement="above">
				<direction-type>
					<words font-family="Arial" font-size="10" font-weight="normal" font-style="normal" relative-x="0.00" default-y="14.55">,</words>
				</direction-type>
			</direction>
			<forward>
				<duration>840</duration>
			</forward>
			<direction placement="below">
				<direction-type>
					<words font-family="Arial" font-size="10" font-weight="normal" font-style="normal" relative-x="0.00" default-y="-40.45">.</words>
				</direction-type>
			</direction>
			<direction placement="below">
				<direction-type>
					<words font-family="Arial" font-size="10" font-weight="normal" font-style="normal" relative-x="0.00" default-y="-25.45">.</words>
				</direction-type>
			</direction>
			<backup>
				<duration>4620</duration>
			</backup>
			<note>
				<pitch>
					<step>G</step>
					<octave>4</octave>
				</pitch>
				<duration>6720</duration>
				<voice>1</voice>
				<type>quarter</type>
				<stem>none</stem>
				<notations>
					<technical>
						<fret>5</fret>
						<string>4</string>
					</technical>
				</notations>
			</note>
			<note>
				<chord/>
				<pitch>
					<step>G</step>
					<octave>4</octave>
				</pitch>
				<duration>6720</duration>
				<voice>1</voice>
				<type>quarter</type>
				<stem>none</stem>
				<notations>
					<technical>
						<fret>5</fret>
						<string>4</string>
					</technical>
				</notations>
			</note>
		</measure>
		<!--==========================[1,10]=============================-->
		<measure number="10" width="246">
			<direction placement="below">
				<direction-type>
					<words font-family="Arial" font-size="10" font-weight="normal" font-style="normal" relative-x="18.60" default-y="-45.45">.</words>
				</direction-type>
			</direction>
			<direction placement="below">
				<direction-type>
					<words font-family="Arial" font-size="10" font-weight="normal" font-style="normal" relative-x="18.60" default-y="-10.45">..</words>
				</direction-type>
			</direction>
			<direction placement="below">
				<direction-type>
					<words font-family="Arial" font-size="10" font-weight="normal" font-style="normal" relative-x="41.40" default-y="-35.45">. .</words>
				</direction-type>
			</direction>
			<direction placement="below">
				<direction-type>
					<words font-family="Arial" font-size="10" font-weight="normal" font-style="normal" relative-x="64.20" default-y="-15.45">.</words>
				</direction-type>
			</direction>
			<direction placement="below">
				<direction-type>
					<words font-family="Arial" font-size="10" font-weight="normal" font-style="normal" relative-x="87.00" default-y="-45.45">. .</words>
				</direction-type>
			</direction>
			<direction placement="below">
				<direction-type>
					<words font-family="Arial" font-size="10" font-weight="normal" font-style="normal" relative-x="87.00" default-y="-20.45">.</words>
				</direction-type>
			</direction>
			<direction placement="below">
				<direction-type>
					<words font-family="Arial" font-size="10" font-weight="normal" font-style="normal" relative-x="109.80" default-y="-35.45">.</words>
				</direction-type>
			</direction>
			<direction placement="below">
				<direction-type>
					<words font-family="Arial" font-size="10" font-weight="normal" font-style="normal" relative-x="132.60" default-y="-50.45">.</words>
				</direction-type>
			</direction>
			<direction placement="below">
				<direction-type>
					<words font-family="Arial" font-size="10" font-weight="normal" font-style="normal" relative-x="132.60" default-y="-25.45">.</words>
				</direction-type>
			</direction>
			<direction placement="below">
				<direction-type>
					<words font-family="Arial" font-size="10" font-weight="normal" font-style="normal" relative-x="155.40" default-y="-45.45">.</words>
				</direction-type>
			</direction>
			<direction placement="below">
				<direction-type>
					<words font-family="Arial" font-size="10" font-weight="normal" font-style="normal" relative-x="178.20" default-y="-40.45">.</words>
				</direction-type>
			</direction>
			<direction placement="below">
				<direction-type>
					<words font-family="Arial" font-size="10" font-weight="normal" font-style="normal" relative-x="178.20" default-y="-30.45">.</words>
				</direction-type>
			</direction>
		</measure>
		<!--==========================[1,11]=============================-->
		<measure number="11" width="134">
			<forward>
				<duration>2520</duration>
			</forward>
			<direction placement="below">
				<direction-type>
					<words font-family="Arial" font-size="10" font-weight="normal" font-style="normal" relative-x="0.00" default-y="-48.10">.</words>
				</direction-type>
			</direction>
			<forward>
				<duration>420</duration>
			</forward>
			<direction placement="above">
				<direction-type>
					<words font-family="Arial" font-size="10" font-weight="normal" font-style="normal" relative-x="0.00" default-y="14.55">,</words>
				</direction-type>
			</direction>
			<forward>
				<duration>840</duration>
			</forward>
			<direction placement="below">
				<direction-type>
					<words font-family="Arial" font-size="10" font-weight="normal" font-style="normal" relative-x="0.00" default-y="-55.45">.</words>
				</direction-type>
			</direction>
			<direction placement="below">
				<direction-type>
					<words font-family="Arial" font-size="10" font-weight="normal" font-style="normal" relative-x="0.00" default-y="-45.45">.</words>
				</direction-type>
			</direction>
			<backup>
				<duration>3780</duration>
			</backup>
			<note>
				<pitch>
					<step>D</step>
					<octave>4</octave>
				</pitch>
				<duration>6720</duration>
				<voice>1</voice>
				<type>quarter</type>
				<stem>none</stem>
				<notations>
					<technical>
						<fret>5</fret>
						<string>5</string>
					</technical>
				</notations>
			</note>
			<note>
				<chord/>
				<pitch>
					<step>D</step>
					<octave>4</octave>
				</pitch>
				<duration>6720</duration>
				<voice>1</voice>
				<type>quarter</type>
				<stem>none</stem>
				<notations>
					<technical>
						<fret>5</fret>
						<string>5</string>
					</technical>
				</notations>
			</note>
		</measure>
		<!--==========================[1,12]=============================-->
		<measure number="12" width="113">
			<print new-system="yes">
				<system-layout>
					<system-margins>
						<left-margin>18.612</left-margin>
						<right-margin>1020.834</right-margin>
					</system-margins>
					<system-distance>155.588</system-distance>
				</system-layout>
			</print>
			<attributes>
				<staff-details number="1" print-object="yes">
				</staff-details>
			</attributes>
			<forward>
				<duration>2100</duration>
			</forward>
			<direction placement="below">
				<direction-type>
					<words font-family="Arial" font-size="10" font-weight="normal" font-style="normal" relative-x="0.00" default-y="-0.45">#</words>
				</direction-type>
			</direction>
			<forward>
				<duration>840</duration>
			</forward>
			<direction placement="below">
				<direction-type>
					<words font-family="Arial" font-size="10" font-weight="normal" font-style="normal" relative-x="0.00" default-y="-15.45">#</words>
				</direction-type>
			</direction>
			<forward>
				<duration>1260</duration>
			</forward>
			<direction placement="below">
				<direction-type>
					<words font-family="MSTT31c39a00" font-size="10" font-weight="normal" font-style="normal" relative-x="0.00" default-y="-50.00"></words>
				</direction-type>
			</direction>
			<direction placement="below">
				<direction-type>
					<words font-family="Arial" font-size="10" font-weight="normal" font-style="normal" relative-x="0.00" default-y="-40.45">. .</words>
				</direction-type>
			</direction>
			<forward>
				<duration>1680</duration>
			</forward>
			<direction placement="below">
				<direction-type>
					<words font-family="Arial" font-size="10" font-weight="normal" font-style="normal" relative-x="0.00" default-y="-30.45">.</words>
				</direction-type>
			</direction>
			<backup>
				<duration>5880</duration>
			</backup>
			<note>
				<pitch>
					<step>D</step>
					<alter>1</alter>
					<octave>4</octave>
				</pitch>
				<duration>6720</duration>
				<voice>1</voice>
				<type>quarter</type>
				<stem>none</stem>
				<notations>
					<technical>
						<fret>6</fret>
						<string>5</string>
					</technical>
				</notations>
				<lyric number="1" justify="left" default-y="-55.45">
					<syllabic>single</syllabic>
					<text font-family="Arial" font-size="10" font-weight="normal" font-style="normal">.</text>
				</lyric>
			</note>
		</measure>
		<!--==========================[1,13]=============================-->
		<measure number="13" width="157">
			<direction placement="below">
				<direction-type>
					<words font-family="Arial" font-size="10" font-weight="normal" font-style="normal" relative-x="10.44" default-y="-45.45">.</words>
				</direction-type>
			</direction>
			<direction placement="below">
				<direction-type>
					<words font-family="Arial" font-size="10" font-weight="normal" font-style="normal" relative-x="10.44" default-y="-35.45">.</words>
				</direction-type>
			</direction>
			<direction placement="below">
				<direction-type>
					<words font-family="Arial" font-size="10" font-weight="normal" font-style="normal" relative-x="49.80" default-y="-40.45">.</words>
				</direction-type>
			</direction>
			<direction placement="below">
				<direction-type>
					<words font-family="Arial" font-size="10" font-weight="normal" font-style="normal" relative-x="69.48" default-y="-45.45">.</words>
				</direction-type>
			</direction>
			<direction placement="below">
				<direction-type>
					<words font-family="Arial" font-size="10" font-weight="normal" font-style="normal" relative-x="89.16" default-y="-40.45">.</words>
				</direction-type>
			</direction>
		</measure>
		<!--==========================[1,14]=============================-->
		<measure number="14" width="50">
			<note>
				<pitch>
					<step>D</step>
					<octave>4</octave>
				</pitch>
				<duration>6720</duration>
				<voice>1</voice>
				<type>quarter</type>
				<stem>none</stem>
				<notations>
					<technical>
						<fret>5</fret>
						<string>5</string>
					</technical>
				</notations>
				<lyric number="1" justify="right" default-y="-50.45">
					<syllabic>single</syllabic>
					<text font-family="Arial" font-size="10" font-weight="normal" font-style="normal">. . .</text>
					<extend/>
				</lyric>
			</note>
			<note>
				<chord/>
				<pitch>
					<step>D</step>
					<octave>4</octave>
				</pitch>
				<duration>6720</duration>
				<voice>1</voice>
				<type>quarter</type>
				<stem>none</stem>
				<notations>
					<technical>
						<fret>5</fret>
						<string>5</string>
					</technical>
				</notations>
			</note>
			<barline location="right">
				<bar-style>light-heavy</bar-style>
			</barline>
		</measure>
	</part>
	<part id="P2">
		<!--==========================[2,1]=============================-->
		<measure number="1" width="68">
			<print new-page="yes">
				<staff-layout number="1">
					<staff-distance>120.000</staff-distance>
				</staff-layout>
			</print>
			<attributes>
				<divisions>6720</divisions>
				<clef number="1">
					<sign>TAB</sign>
					<line>5</line>
				</clef>
				<staff-details number="1" print-object="yes">
					<staff-lines>5</staff-lines>
					<staff-tuning line="1">
						<tuning-step>A</tuning-step>
						<tuning-octave>3</tuning-octave>
					</staff-tuning>
					<staff-tuning line="2">
						<tuning-step>D</tuning-step>
						<tuning-octave>4</tuning-octave>
					</staff-tuning>
					<staff-tuning line="3">
						<tuning-step>G</tuning-step>
						<tuning-octave>4</tuning-octave>
					</staff-tuning>
					<staff-tuning line="4">
						<tuning-step>B</tuning-step>
						<tuning-octave>4</tuning-octave>
					</staff-tuning>
					<staff-tuning line="5">
						<tuning-step>E</tuning-step>
						<tuning-octave>5</tuning-octave>
					</staff-tuning>
					<staff-size>100.00</staff-size>
				</staff-details>
				<transpose>
					<chromatic>0</chromatic>
					<octave-change>-1</octave-change>
				</transpose>
			</attributes>
			<direction placement="below">
				<direction-type>
					<words font-family="Arial" font-size="10" font-weight="normal" font-style="normal" relative-x="33.96" default-y="-10.45">#</words>
				</direction-type>
			</direction>
			<direction placement="below">
				<direction-type>
					<words font-family="Arial" font-size="10" font-weight="normal" font-style="normal" relative-x="41.40" default-y="-25.45">#</words>
				</direction-type>
			</direction>
		</measure>
		<!--==========================[2,2]=============================-->
		<measure number="2" width="54">
			<barline location="left">
				<repeat direction="forward"/>
			</barline>
			<forward>
				<duration>420</duration>
			</forward>
			<direction placement="below">
				<direction-type>
					<words font-family="Arial" font-size="10" font-weight="normal" font-style="normal" relative-x="0.00" default-y="-20.45">: .</words>
				</direction-type>
			</direction>
		</measure>
		<!--==========================[2,3]=============================-->
		<measure number="3" width="235">
			<forward>
				<duration>3360</duration>
			</forward>
			<direction placement="below">
				<direction-type>
					<words font-family="Arial" font-size="10" font-weight="normal" font-style="normal" relative-x="0.00" default-y="-25.45">.</words>
				</direction-type>
			</direction>
			<forward>
				<duration>4200</duration>
			</forward>
			<direction placement="below">
				<direction-type>
					<words font-family="Arial" font-size="10" font-weight="normal" font-style="normal" relative-x="0.00" default-y="-35.45">.</words>
				</direction-type>
			</direction>
			<direction placement="above">
				<direction-type>
					<words font-family="Arial" font-size="10" font-weight="normal" font-style="normal" relative-x="0.00" default-y="9.55">.</words>
				</direction-type>
			</direction>
			<forward>
				<duration>4200</duration>
			</forward>
			<direction placement="below">
				<direction-type>
					<words font-family="Arial" font-size="10" font-weight="normal" font-style="normal" relative-x="0.00" default-y="-20.45">.</words>
				</direction-type>
			</direction>
			<forward>
				<duration>6720</duration>
			</forward>
			<direction placement="below">
				<direction-type>
					<words font-family="Arial" font-size="10" font-weight="normal" font-style="normal" relative-x="0.00" default-y="-15.45">.</words>
				</direction-type>
			</direction>
			<direction placement="below">
				<direction-type>
					<words font-family="Arial" font-size="10" font-weight="normal" font-style="normal" relative-x="0.00" default-y="-5.45">.</words>
				</direction-type>
			</direction>
			<forward>
				<duration>4200</duration>
			</forward>
			<direction placement="below">
				<direction-type>
					<words font-family="Arial" font-size="10" font-weight="normal" font-style="normal" relative-x="0.00" default-y="-10.45">.</words>
				</direction-type>
			</direction>
			<direction placement="below">
				<direction-type>
					<words font-family="Arial" font-size="10" font-weight="normal" font-style="normal" relative-x="0.00" default-y="-0.45">.</words>
				</direction-type>
			</direction>
			<forward>
				<duration>4620</duration>
			</forward>
			<direction placement="below">
				<direction-type>
					<words font-family="Arial" font-size="10" font-weight="normal" font-style="normal" relative-x="0.00" default-y="-5.45">.</words>
				</direction-type>
			</direction>
			<forward>
				<duration>4200</duration>
			</forward>
			<direction placement="below">
				<direction-type>
					<words font-family="Arial" font-size="10" font-weight="normal" font-style="normal" relative-x="0.00" default-y="-20.45">.</words>
				</direction-type>
			</direction>
			<direction placement="below">
				<direction-type>
					<words font-family="Arial" font-size="10" font-weight="normal" font-style="normal" relative-x="0.00" default-y="-10.45">.</words>
				</direction-type>
			</direction>
		</measure>
		<!--==========================[2,4]=============================-->
		<measure number="4" width="83">
			<forward>
				<duration>4620</duration>
			</forward>
			<direction placement="below">
				<direction-type>
					<words font-family="Arial" font-size="10" font-weight="normal" font-style="normal" relative-x="0.00" default-y="-25.45">.</words>
				</direction-type>
			</direction>
			<direction placement="below">
				<direction-type>
					<words font-family="Arial" font-size="10" font-weight="normal" font-style="normal" relative-x="0.00" default-y="-15.45">.</words>
				</direction-type>
			</direction>
			<backup>
				<duration>4620</duration>
			</backup>
			<note>
				<pitch>
					<step>C</step>
					<octave>5</octave>
				</pitch>
				<duration>6720</duration>
				<voice>1</voice>
				<type>quarter</type>
				<stem>none</stem>
				<notations>
					<technical>
						<fret>5</fret>
						<string>3</string>
						<fingering placement="above" relative-x="0.00" relative-y="9.58">5</fingering>
					</technical>
				</notations>
			</note>
			<note>
				<chord/>
				<pitch>
					<step>E</step>
					<octave>5</octave>
				</pitch>
				<duration>6720</duration>
				<voice>1</voice>
				<type>quarter</type>
				<stem>none</stem>
				<notations>
					<technical>
						<fret>5</fret>
						<string>2</string>
						<fingering placement="above" relative-x="0.00" relative-y="9.58">5</fingering>
					</technical>
				</notations>
			</note>
		</measure>
		<!--==========================[2,5]=============================-->
		<measure number="5" width="246">
			<direction placement="below">
				<direction-type>
					<words font-family="Arial" font-size="10" font-weight="normal" font-style="normal" relative-x="16.20" default-y="-20.45">.</words>
				</direction-type>
			</direction>
			<direction placement="below">
				<direction-type>
					<words font-family="Arial" font-size="10" font-weight="normal" font-style="normal" relative-x="16.20" default-y="-10.45">. .</words>
				</direction-type>
			</direction>
			<direction placement="below">
				<direction-type>
					<words font-family="Arial" font-size="10" font-weight="normal" font-style="normal" relative-x="36.60" default-y="-0.45">.</words>
				</direction-type>
			</direction>
			<direction placement="below">
				<direction-type>
					<words font-family="Arial" font-size="10" font-weight="normal" font-style="normal" relative-x="57.00" default-y="-30.45">.</words>
				</direction-type>
			</direction>
			<direction placement="above">
				<direction-type>
					<words font-family="Arial" font-size="10" font-weight="normal" font-style="normal" relative-x="57.00" default-y="4.55">.</words>
				</direction-type>
			</direction>
			<direction placement="below">
				<direction-type>
					<words font-family="Arial" font-size="10" font-weight="normal" font-style="normal" relative-x="88.20" default-y="-15.45">.</words>
				</direction-type>
			</direction>
			<direction placement="above">
				<direction-type>
					<words font-family="Arial" font-size="10" font-weight="normal" font-style="normal" relative-x="88.20" default-y="4.55">.</words>
				</direction-type>
			</direction>
			<direction placement="below">
				<direction-type>
					<words font-family="Arial" font-size="10" font-weight="normal" font-style="normal" relative-x="108.60" default-y="-20.45">.</words>
				</direction-type>
			</direction>
			<direction placement="below">
				<direction-type>
					<words font-family="Arial" font-size="10" font-weight="normal" font-style="normal" relative-x="129.00" default-y="-25.45">.</words>
				</direction-type>
			</direction>
			<direction placement="below">
				<direction-type>
					<words font-family="Arial" font-size="10" font-weight="normal" font-style="normal" relative-x="129.00" default-y="-0.45">.</words>
				</direction-type>
			</direction>
			<direction placement="below">
				<direction-type>
					<words font-family="Arial" font-size="10" font-weight="normal" font-style="normal" relative-x="149.40" default-y="-5.45">#.</words>
				</direction-type>
			</direction>
			<direction placement="below">
				<direction-type>
					<words font-family="Arial" font-size="10" font-weight="normal" font-style="normal" relative-x="160.20" default-y="-15.45">.</words>
				</direction-type>
			</direction>
		</measure>
		<!--==========================[2,6]=============================-->
		<measure number="6" width="57">
			<forward>
				<duration>5880</duration>
			</forward>
			<direction placement="below">
				<direction-type>
					<words font-family="Arial" font-size="10" font-weight="normal" font-style="normal" relative-x="0.00" default-y="-20.45">:</words>
				</direction-type>
			</direction>
			<backup>
				<duration>5880</duration>
			</backup>
			<note>
				<pitch>
					<step>D</step>
					<octave>4</octave>
				</pitch>
				<duration>6720</duration>
				<voice>1</voice>
				<type>quarter</type>
				<stem>none</stem>
				<notations>
					<technical>
						<fret>5</fret>
						<string>5</string>
						<fingering placement="above" relative-x="0.00" relative-y="9.58">5</fingering>
					</technical>
				</notations>
			</note>
			<note>
				<chord/>
				<pitch>
					<step>A</step>
					<octave>5</octave>
				</pitch>
				<duration>6720</duration>
				<voice>1</voice>
				<type>quarter</type>
				<stem>none</stem>
				<notations>
					<technical>
						<fret>5</fret>
						<string>1</string>
						<fingering placement="above" relative-x="0.00" relative-y="9.58">5</fingering>
					</technical>
				</notations>
			</note>
		</measure>
		<!--==========================[2,7]=============================-->
		<measure number="7" width="48">
			<direction placement="below">
				<direction-type>
					<words font-family="Arial" font-size="10" font-weight="normal" font-style="normal" relative-x="18.36" default-y="-25.45">.</words>
				</direction-type>
			</direction>
			<direction placement="below">
				<direction-type>
					<words font-family="Arial" font-size="10" font-weight="normal" font-style="normal" relative-x="18.36" default-y="-0.45">.</words>
				</direction-type>
			</direction>
		</measure>
		<!--==========================[2,8]=============================-->
		<measure number="8" width="320">
			<print new-system="yes">
				<staff-layout number="1">
					<staff-distance>120.000</staff-distance>
				</staff-layout>
			</print>
			<attributes>
				<staff-details number="1" print-object="yes">
				</staff-details>
			</attributes>
			<forward>
				<duration>840</duration>
			</forward>
			<direction placement="below">
				<direction-type>
					<words font-family="Arial" font-size="10" font-weight="normal" font-style="normal" relative-x="0.00" default-y="-10.45">#</words>
				</direction-type>
			</direction>
			<direction placement="below">
				<direction-type>
					<words font-family="Arial" font-size="10" font-weight="normal" font-style="normal" relative-x="0.00" default-y="-25.45">#</words>
				</direction-type>
			</direction>
			<forward>
				<duration>840</duration>
			</forward>
			<direction placement="below">
				<direction-type>
					<words font-family="Arial" font-size="10" font-weight="normal" font-style="normal" relative-x="0.00" default-y="-20.45">.</words>
				</direction-type>
			</direction>
			<direction placement="below">
				<direction-type>
					<words font-family="Arial" font-size="10" font-weight="normal" font-style="normal" relative-x="0.00" default-y="-0.45">.</words>
				</direction-type>
			</direction>
			<forward>
				<duration>420</duration>
			</forward>
			<direction placement="above">
				<direction-type>
					<words font-family="MSTT31c39a00" font-size="10" font-weight="normal" font-style="normal" relative-x="0.00" default-y="10.00"></words>
				</direction-type>
			</direction>
			<direction placement="below">
				<direction-type>
					<words font-family="Arial" font-size="10" font-weight="normal" font-style="normal" relative-x="0.00" default-y="-10.45">.</words>
				</direction-type>
			</direction>
			<forward>
				<duration>1260</duration>
			</forward>
			<direction placement="below">
				<direction-type>
					<words font-family="Arial" font-size="10" font-weight="normal" font-style="normal" relative-x="0.00" default-y="-5.45">. .</words>
				</direction-type>
			</direction>
			<forward>
				<duration>420</duration>
			</forward>
			<direction placement="below">
				<direction-type>
					<words font-family="Arial" font-size="10" font-weight="normal" font-style="normal" relative-x="0.00" default-y="-15.45">.</words>
				</direction-type>
			</direction>
			<forward>
				<duration>840</duration>
			</forward>
			<direction placement="below">
				<direction-type>
					<words font-family="Arial" font-size="10" font-weight="normal" font-style="normal" relative-x="0.00" default-y="-20.45">.</words>
				</direction-type>
			</direction>
			<direction placement="below">
				<direction-type>
					<words font-family="Arial" font-size="10" font-weight="normal" font-style="normal" relative-x="0.00" default-y="-0.45">.</words>
				</direction-type>
			</direction>
			<forward>
				<duration>420</duration>
			</forward>
			<direction placement="below">
				<direction-type>
					<words font-family="Arial" font-size="10" font-weight="normal" font-style="normal" relative-x="0.00" default-y="-5.45">#.</words>
				</direction-type>
			</direction>
			<forward>
				<duration>420</duration>
			</forward>
			<direction placement="below">
				<direction-type>
					<words font-family="Arial" font-size="10" font-weight="normal" font-style="normal" relative-x="0.00" default-y="-15.45">.</words>
				</direction-type>
			</direction>
		</measure>
		<!--==========================[2,9]=============================-->
		<measure number="9" width="92">
			<forward>
				<duration>4620</duration>
			</forward>
			<direction placement="below">
				<direction-type>
					<words font-family="Arial" font-size="10" font-weight="normal" font-style="normal" relative-x="0.00" default-y="-25.45">.</words>
				</direction-type>
			</direction>
			<direction placement="below">
				<direction-type>
					<words font-family="Arial" font-size="10" font-weight="normal" font-style="normal" relative-x="0.00" default-y="-0.45">.</words>
				</direction-type>
			</direction>
			<backup>
				<duration>4620</duration>
			</backup>
			<note>
				<pitch>
					<step>D</step>
					<octave>4</octave>
				</pitch>
				<duration>6720</duration>
				<voice>1</voice>
				<type>quarter</type>
				<stem>none</stem>
				<notations>
					<technical>
						<fret>5</fret>
						<string>5</string>
						<fingering placement="above" relative-x="0.00" relative-y="9.58">5</fingering>
					</technical>
				</notations>
			</note>
			<note>
				<chord/>
				<pitch>
					<step>A</step>
					<octave>5</octave>
				</pitch>
				<duration>6720</duration>
				<voice>1</voice>
				<type>quarter</type>
				<stem>none</stem>
				<notations>
					<technical>
						<fret>5</fret>
						<string>1</string>
						<fingering placement="above" relative-x="0.00" relative-y="9.58">5</fingering>
					</technical>
				</notations>
			</note>
		</measure>
		<!--==========================[2,10]=============================-->
		<measure number="10" width="246">
			<direction placement="below">
				<direction-type>
					<words font-family="Arial" font-size="10" font-weight="normal" font-style="normal" relative-x="18.60" default-y="-30.45">.</words>
				</direction-type>
			</direction>
			<direction placement="above">
				<direction-type>
					<words font-family="Arial" font-size="10" font-weight="normal" font-style="normal" relative-x="18.60" default-y="4.55">.</words>
				</direction-type>
			</direction>
			<direction placement="below">
				<direction-type>
					<words font-family="Arial" font-size="10" font-weight="normal" font-style="normal" relative-x="41.40" default-y="-10.45">.</words>
				</direction-type>
			</direction>
			<direction placement="below">
				<direction-type>
					<words font-family="Arial" font-size="10" font-weight="normal" font-style="normal" relative-x="41.40" default-y="-0.45">.</words>
				</direction-type>
			</direction>
			<direction placement="below">
				<direction-type>
					<words font-family="Arial" font-size="10" font-weight="normal" font-style="normal" relative-x="87.00" default-y="-5.45">.</words>
				</direction-type>
			</direction>
			<direction placement="above">
				<direction-type>
					<words font-family="Arial" font-size="10" font-weight="normal" font-style="normal" relative-x="87.00" default-y="4.55">. .</words>
				</direction-type>
			</direction>
			<direction placement="below">
				<direction-type>
					<words font-family="Arial" font-size="10" font-weight="normal" font-style="normal" relative-x="109.80" default-y="-30.45">.</words>
				</direction-type>
			</direction>
			<direction placement="below">
				<direction-type>
					<words font-family="Arial" font-size="10" font-weight="normal" font-style="normal" relative-x="132.60" default-y="-10.45">.</words>
				</direction-type>
			</direction>
			<direction placement="below">
				<direction-type>
					<words font-family="Arial" font-size="10" font-weight="normal" font-style="normal" relative-x="132.60" default-y="-0.45">.</words>
				</direction-type>
			</direction>
			<direction placement="below">
				<direction-type>
					<words font-family="Arial" font-size="10" font-weight="normal" font-style="normal" relative-x="178.20" default-y="-15.45">.</words>
				</direction-type>
			</direction>
			<direction placement="above">
				<direction-type>
					<words font-family="Arial" font-size="10" font-weight="normal" font-style="normal" relative-x="178.20" default-y="4.55">.</words>
				</direction-type>
			</direction>
		</measure>
		<!--==========================[2,11]=============================-->
		<measure number="11" width="134">
			<forward>
				<duration>840</duration>
			</forward>
			<direction placement="below">
				<direction-type>
					<words font-family="Arial" font-size="10" font-weight="normal" font-style="normal" relative-x="0.00" default-y="-0.45"># 5</words>
				</direction-type>
			</direction>
			<forward>
				<duration>2940</duration>
			</forward>
			<direction placement="below">
				<direction-type>
					<words font-family="Arial" font-size="10" font-weight="normal" font-style="normal" relative-x="0.00" default-y="-30.45">.</words>
				</direction-type>
			</direction>
			<direction placement="below">
				<direction-type>
					<words font-family="Arial" font-size="10" font-weight="normal" font-style="normal" relative-x="0.00" default-y="-10.45">.</words>
				</direction-type>
			</direction>
			<forward>
				<duration>1260</duration>
			</forward>
			<direction placement="below">
				<direction-type>
					<words font-family="Arial" font-size="10" font-weight="normal" font-style="normal" relative-x="0.00" default-y="-35.45">.</words>
				</direction-type>
			</direction>
			<backup>
				<duration>5040</duration>
			</backup>
			<note>
				<pitch>
					<step>E</step>
					<octave>5</octave>
				</pitch>
				<duration>6720</duration>
				<voice>1</voice>
				<type>quarter</type>
				<stem>none</stem>
				<notations>
					<technical>
						<fret>5</fret>
						<string>2</string>
						<fingering placement="above" relative-x="0.00" relative-y="9.58">5</fingering>
					</technical>
				</notations>
			</note>
			<note>
				<chord/>
				<pitch>
					<step>A</step>
					<octave>5</octave>
				</pitch>
				<duration>6720</duration>
				<voice>1</voice>
				<type>quarter</type>
				<stem>none</stem>
				<notations>
					<technical>
						<fret>5</fret>
						<string>1</string>
					</technical>
				</notations>
			</note>
		</measure>
		<!--==========================[2,12]=============================-->
		<measure number="12" width="113">
			<print new-system="yes">
				<staff-layout number="1">
					<staff-distance>120.000</staff-distance>
				</staff-layout>
			</print>
			<attributes>
				<staff-details number="1" print-object="yes">
				</staff-details>
			</attributes>
			<forward>
				<duration>2100</duration>
			</forward>
			<direction placement="below">
				<direction-type>
					<words font-family="Arial" font-size="10" font-weight="normal" font-style="normal" relative-x="0.00" default-y="-10.45">#</words>
				</direction-type>
			</direction>
			<forward>
				<duration>840</duration>
			</forward>
			<direction placement="below">
				<direction-type>
					<words font-family="Arial" font-size="10" font-weight="normal" font-style="normal" relative-x="0.00" default-y="-25.45">#</words>
				</direction-type>
			</direction>
			<forward>
				<duration>1260</duration>
			</forward>
			<direction placement="below">
				<direction-type>
					<words font-family="Arial" font-size="10" font-weight="normal" font-style="normal" relative-x="0.00" default-y="-40.45">.</words>
				</direction-type>
			</direction>
			<direction placement="below">
				<direction-type>
					<words font-family="Arial" font-size="10" font-weight="normal" font-style="normal" relative-x="0.00" default-y="-5.45">.</words>
				</direction-type>
			</direction>
			<forward>
				<duration>1680</duration>
			</forward>
			<direction placement="below">
				<direction-type>
					<words font-family="Arial" font-size="10" font-weight="normal" font-style="normal" relative-x="0.00" default-y="-50.45">.</words>
				</direction-type>
			</direction>
			<direction placement="above">
				<direction-type>
					<words font-family="Arial" font-size="10" font-weight="normal" font-style="normal" relative-x="0.00" default-y="4.55">.</words>
				</direction-type>
			</direction>
		</measure>
		<!--==========================[2,13]=============================-->
		<measure number="13" width="157">
			<direction placement="below">
				<direction-type>
					<words font-family="Arial" font-size="10" font-weight="normal" font-style="normal" relative-x="10.44" default-y="-45.45">.</words>
				</direction-type>
			</direction>
			<direction placement="below">
				<direction-type>
					<words font-family="Arial" font-size="10" font-weight="normal" font-style="normal" relative-x="10.44" default-y="-0.45">.</words>
				</direction-type>
			</direction>
			<direction placement="below">
				<direction-type>
					<words font-family="Arial" font-size="10" font-weight="normal" font-style="normal" relative-x="30.12" default-y="-40.45">.</words>
				</direction-type>
			</direction>
			<direction placement="below">
				<direction-type>
					<words font-family="Arial" font-size="10" font-weight="normal" font-style="normal" relative-x="49.80" default-y="-35.45">.</words>
				</direction-type>
			</direction>
			<direction placement="below">
				<direction-type>
					<words font-family="Arial" font-size="10" font-weight="normal" font-style="normal" relative-x="49.80" default-y="-0.45">.</words>
				</direction-type>
			</direction>
			<direction placement="below">
				<direction-type>
					<words font-family="Arial" font-size="10" font-weight="normal" font-style="normal" relative-x="69.48" default-y="-30.45">.</words>
				</direction-type>
			</direction>
			<direction placement="below">
				<direction-type>
					<words font-family="Arial" font-size="10" font-weight="normal" font-style="normal" relative-x="69.48" default-y="-10.45">.</words>
				</direction-type>
			</direction>
			<direction placement="below">
				<direction-type>
					<words font-family="Arial" font-size="10" font-weight="normal" font-style="normal" relative-x="89.16" default-y="-35.45">.</words>
				</direction-type>
			</direction>
			<direction placement="below">
				<direction-type>
					<words font-family="Arial" font-size="10" font-weight="normal" font-style="normal" relative-x="89.16" default-y="-0.45">.</words>
				</direction-type>
			</direction>
			<direction placement="below">
				<direction-type>
					<words font-family="Arial" font-size="10" font-weight="normal" font-style="normal" relative-x="108.84" default-y="-5.45">.</words>
				</direction-type>
			</direction>
		</measure>
		<!--==========================[2,14]=============================-->
		<measure number="14" width="49">
			<note>
				<pitch>
					<step>C</step>
					<octave>5</octave>
				</pitch>
				<duration>6720</duration>
				<voice>1</voice>
				<type>quarter</type>
				<stem>none</stem>
				<notations>
					<technical>
						<fret>5</fret>
						<string>3</string>
						<fingering placement="above" relative-x="0.00" relative-y="9.58">5</fingering>
					</technical>
				</notations>
			</note>
			<note>
				<chord/>
				<pitch>
					<step>E</step>
					<octave>5</octave>
				</pitch>
				<duration>6720</duration>
				<voice>1</voice>
				<type>quarter</type>
				<stem>none</stem>
				<notations>
					<technical>
						<fret>5</fret>
						<string>2</string>
						<fingering placement="above" relative-x="0.00" relative-y="9.58">5</fingering>
					</technical>
				</notations>
			</note>
		</measure>
	</part>
</score-partwise>
