<?xml version="1.0" encoding='UTF-8' standalone='no' ?>
<!DOCTYPE score-partwise PUBLIC "-//Recordare//DTD MusicXML 2.0 Partwise//EN" "http://www.musicxml.org/dtds/partwise.dtd">
<score-partwise version="2.0">
 <work>
  <work-title>While Shepherds Watched Their Flock</work-title>
 </work>
 <identification>
  <encoding>
   <encoding-date>2012-06-26</encoding-date>
   <encoder>jsk9</encoder>
   <software>Sibelius 7.0.0</software>
   <software>Direct export, not from Dolet</software>
   <encoding-description>Sibelius / MusicXML 2.0</encoding-description>
   <supports element="print" type="yes" value="yes" attribute="new-system" />
   <supports element="print" type="yes" value="yes" attribute="new-page" />
   <supports element="accidental" type="yes" />
   <supports element="beam" type="yes" />
   <supports element="stem" type="yes" />
  </encoding>
 </identification>
 <defaults>
  <scaling>
   <millimeters>215.9</millimeters>
   <tenths>1384</tenths>
  </scaling>
  <page-layout>
   <page-height>1791</page-height>
   <page-width>1384</page-width>
   <page-margins type="both">
    <left-margin>162</left-margin>
    <right-margin>162</right-margin>
    <top-margin>81</top-margin>
    <bottom-margin>81</bottom-margin>
   </page-margins>
  </page-layout>
  <system-layout>
   <system-distance>40</system-distance>
  </system-layout>
  <appearance>
   <line-width type="stem">0.9375</line-width>
   <line-width type="beam">5</line-width>
   <line-width type="staff">0.9375</line-width>
   <line-width type="light barline">1.5625</line-width>
   <line-width type="heavy barline">5</line-width>
   <line-width type="leger">1.5625</line-width>
   <line-width type="ending">1.5625</line-width>
   <line-width type="wedge">1.25</line-width>
   <line-width type="enclosure">0.9375</line-width>
   <line-width type="tuplet bracket">1.25</line-width>
   <line-width type="bracket">5</line-width>
   <line-width type="dashes">1.5625</line-width>
   <line-width type="extend">0.9375</line-width>
   <line-width type="octave shift">1.5625</line-width>
   <line-width type="pedal">1.5625</line-width>
   <line-width type="slur middle">1.5625</line-width>
   <line-width type="slur tip">0.625</line-width>
   <line-width type="tie middle">1.5625</line-width>
   <line-width type="tie tip">0.625</line-width>
   <note-size type="cue">75</note-size>
   <note-size type="grace">60</note-size>
  </appearance>
  <music-font font-family="Opus Std" font-size="17.6825" />
  <lyric-font font-family="Times New Roman" font-size="9.9464" />
  <lyric-language xml:lang="en" />
 </defaults>
 <credit page="1">
  <credit-words default-x="692" default-y="1637" font-family="Times New Roman" font-size="20.031" justify="center" valign="middle">While Shepherds Watched Their Flock</credit-words>
 </credit>
 <credit page="1">
  <credit-words default-x="162" default-y="171" font-family="Times New Roman" font-size="10.0846" justify="left" valign="middle">Text: Nahum Tate (1652-1715); para. Luke 2:8-14
Tune: Weyman's Melodia Sacra, 1815;
    arr. George Frideric Handel (1685-1759)</credit-words>
 </credit>
 <credit page="1">
  <credit-words default-x="1221" default-y="169" font-family="Times New Roman" font-size="10.0846" justify="right" valign="middle">CM
CHRISTMAS
http://www.hymnary.org/hymn/WAR2003/228</credit-words>
 </credit>
 <part-list>
  <score-part id="P1">
   <part-name>Piano</part-name>
   <part-name-display>
    <display-text>Piano</display-text>
   </part-name-display>
   <part-abbreviation>Pno.</part-abbreviation>
   <part-abbreviation-display>
    <display-text>Pno.</display-text>
   </part-abbreviation-display>
   <score-instrument id="P1-I1">
    <instrument-name>Piano (2)</instrument-name>
   </score-instrument>
  </score-part>
  <score-part id="P2">
   <part-name>Piano</part-name>
   <part-name-display>
    <display-text>Piano</display-text>
   </part-name-display>
   <part-abbreviation>Pno.</part-abbreviation>
   <part-abbreviation-display>
    <display-text>Pno.</display-text>
   </part-abbreviation-display>
   <score-instrument id="P2-I1">
    <instrument-name>Piano (2)</instrument-name>
   </score-instrument>
  </score-part>
 </part-list>
 <part id="P1">
  <measure number="0" width="175">
   <print new-page="yes">
    <system-layout>
     <system-margins>
      <left-margin>0</left-margin>
      <right-margin>0</right-margin>
     </system-margins>
     <top-system-distance>163</top-system-distance>
    </system-layout>
   </print>
   <attributes>
    <divisions>256</divisions>
    <key color="#000000">
     <fifths>0</fifths>
     <mode>major</mode>
    </key>
    <time color="#000000">
     <beats>4</beats>
     <beat-type>4</beat-type>
    </time>
    <staves>1</staves>
    <clef number="1" color="#000000">
     <sign>G</sign>
     <line>2</line>
    </clef>
    <staff-details number="1" print-object="yes" />
   </attributes>
   <note color="#000000" default-x="75">
    <pitch>
     <step>E</step>
     <octave>4</octave>
    </pitch>
    <duration>192</duration>
    <instrument id="P1-I1" />
    <voice>1</voice>
    <type>eighth</type>
    <dot />
    <stem>up</stem>
    <staff>1</staff>
    <beam number="1">begin</beam>
    <lyric default-y="-104" number="1" color="#000000">
     <syllabic>single</syllabic>
     <text>1 While</text>
     <extend />
    </lyric>
    <lyric default-y="-129" number="2" color="#000000">
     <syllabic>single</syllabic>
     <text>2 &quot;Fear</text>
     <extend />
    </lyric>
    <lyric default-y="-154" number="3" color="#000000">
     <syllabic>single</syllabic>
     <text>3 &quot;To</text>
     <extend />
    </lyric>
    <lyric default-y="-179" number="4" color="#000000">
     <syllabic>single</syllabic>
     <text>4 &quot;The</text>
     <extend />
    </lyric>
    <lyric default-y="-204" number="5" color="#000000">
     <syllabic>single</syllabic>
     <text>5 Thus</text>
     <extend />
    </lyric>
    <lyric default-y="-229" number="6" color="#000000">
     <syllabic>single</syllabic>
     <text>6 &quot;All</text>
     <extend />
    </lyric>
   </note>
   <note color="#000000" default-x="136">
    <pitch>
     <step>F</step>
     <octave>4</octave>
    </pitch>
    <duration>64</duration>
    <instrument id="P1-I1" />
    <voice>1</voice>
    <type>16th</type>
    <stem>up</stem>
    <staff>1</staff>
    <beam number="1">end</beam>
   </note>
   <backup>
    <duration>256</duration>
   </backup>
   <note color="#000000" default-x="75">
    <pitch>
     <step>C</step>
     <octave>4</octave>
    </pitch>
    <duration>256</duration>
    <instrument id="P1-I1" />
    <voice>2</voice>
    <type>quarter</type>
    <stem>down</stem>
    <staff>1</staff>
   </note>
  </measure>
  <measure number="1" width="362">
   <note color="#000000" default-x="15">
    <pitch>
     <step>C</step>
     <octave>4</octave>
    </pitch>
    <duration>256</duration>
    <instrument id="P1-I1" />
    <voice>1</voice>
    <type>quarter</type>
    <stem>up</stem>
    <staff>1</staff>
    <lyric default-y="-104" number="1" color="#000000">
     <syllabic>begin</syllabic>
     <text>shep</text>
    </lyric>
    <lyric default-y="-129" number="2" color="#000000">
     <syllabic>single</syllabic>
     <text>not!&quot;</text>
    </lyric>
    <lyric default-y="-154" number="3" color="#000000">
     <syllabic>single</syllabic>
     <text>you,</text>
    </lyric>
    <lyric default-y="-179" number="4" color="#000000">
     <syllabic>begin</syllabic>
     <text>heaven</text>
    </lyric>
    <lyric default-y="-204" number="5" color="#000000">
     <syllabic>end</syllabic>
     <text>spoke</text>
    </lyric>
    <lyric default-y="-229" number="6" color="#000000">
     <syllabic>begin</syllabic>
     <text>glo</text>
    </lyric>
   </note>
   <note color="#000000" default-x="15">
    <chord />
    <pitch>
     <step>G</step>
     <octave>4</octave>
    </pitch>
    <duration>256</duration>
    <instrument id="P1-I1" />
    <type>quarter</type>
    <staff>1</staff>
   </note>
   <note color="#000000" default-x="86">
    <pitch>
     <step>E</step>
     <octave>4</octave>
    </pitch>
    <duration>256</duration>
    <instrument id="P1-I1" />
    <voice>1</voice>
    <type>quarter</type>
    <stem>up</stem>
    <staff>1</staff>
    <lyric default-y="-104" number="1" color="#000000">
     <syllabic>end</syllabic>
     <text>herds</text>
    </lyric>
    <lyric default-y="-129" number="2" color="#000000">
     <syllabic>single</syllabic>
     <text>said</text>
    </lyric>
    <lyric default-y="-154" number="3" color="#000000">
     <syllabic>end</syllabic>
     <text>in</text>
    </lyric>
    <lyric default-y="-179" number="4" color="#000000">
     <syllabic>single</syllabic>
     <text>ly</text>
    </lyric>
    <lyric default-y="-204" number="5" color="#000000">
     <syllabic>single</syllabic>
     <text>the</text>
    </lyric>
    <lyric default-y="-229" number="6" color="#000000">
     <syllabic>single</syllabic>
     <text>ry</text>
    </lyric>
   </note>
   <note color="#000000" default-x="86">
    <chord />
    <pitch>
     <step>C</step>
     <octave>5</octave>
    </pitch>
    <duration>256</duration>
    <instrument id="P1-I1" />
    <type>quarter</type>
    <staff>1</staff>
   </note>
   <note color="#000000" default-x="157">
    <pitch>
     <step>B</step>
     <octave>4</octave>
    </pitch>
    <duration>256</duration>
    <instrument id="P1-I1" />
    <voice>1</voice>
    <type>quarter</type>
    <stem>up</stem>
    <staff>1</staff>
    <lyric default-y="-104" number="1" color="#000000">
     <syllabic>single</syllabic>
     <text>watched</text>
    </lyric>
    <lyric default-y="-129" number="2" color="#000000">
     <syllabic>single</syllabic>
     <text>he,</text>
    </lyric>
    <lyric default-y="-154" number="3" color="#000000">
     <syllabic>begin</syllabic>
     <text>Da</text>
    </lyric>
    <lyric default-y="-179" number="4" color="#000000">
     <syllabic>end</syllabic>
     <text>babe</text>
    </lyric>
    <lyric default-y="-204" number="5" color="#000000">
     <syllabic>begin</syllabic>
     <text>se</text>
    </lyric>
    <lyric default-y="-229" number="6" color="#000000">
     <syllabic>end</syllabic>
     <text>be</text>
    </lyric>
   </note>
   <note color="#000000" default-x="259">
    <pitch>
     <step>F</step>
     <octave>4</octave>
    </pitch>
    <duration>256</duration>
    <instrument id="P1-I1" />
    <voice>1</voice>
    <type>quarter</type>
    <stem>up</stem>
    <staff>1</staff>
    <lyric default-y="-104" number="1" color="#000000">
     <syllabic>single</syllabic>
     <text>their</text>
    </lyric>
    <lyric default-y="-129" number="2" color="#000000">
     <syllabic>single</syllabic>
     <text>for</text>
    </lyric>
    <lyric default-y="-154" number="3" color="#000000">
     <syllabic>single</syllabic>
     <text>vid's</text>
    </lyric>
    <lyric default-y="-179" number="4" color="#000000">
     <syllabic>single</syllabic>
     <text>you</text>
    </lyric>
    <lyric default-y="-204" number="5" color="#000000">
     <syllabic>single</syllabic>
     <text>raph,</text>
    </lyric>
    <lyric default-y="-229" number="6" color="#000000">
     <syllabic>single</syllabic>
     <text>to</text>
    </lyric>
   </note>
   <note color="#000000" default-x="259">
    <chord />
    <pitch>
     <step>A</step>
     <octave>4</octave>
    </pitch>
    <duration>256</duration>
    <instrument id="P1-I1" />
    <type>quarter</type>
    <staff>1</staff>
   </note>
   <backup>
    <duration>512</duration>
   </backup>
   <note color="#000000" default-x="157">
    <pitch>
     <step>D</step>
     <octave>4</octave>
    </pitch>
    <duration>128</duration>
    <instrument id="P1-I1" />
    <voice>2</voice>
    <type>eighth</type>
    <stem>down</stem>
    <staff>1</staff>
    <beam number="1">begin</beam>
   </note>
   <note color="#000000" default-x="208">
    <pitch>
     <step>E</step>
     <octave>4</octave>
    </pitch>
    <duration>128</duration>
    <instrument id="P1-I1" />
    <voice>2</voice>
    <type>eighth</type>
    <stem>down</stem>
    <staff>1</staff>
    <beam number="1">end</beam>
   </note>
  </measure>
  <measure number="2" width="357">
   <note color="#000000" default-x="15">
    <pitch>
     <step>C</step>
     <octave>4</octave>
    </pitch>
    <duration>256</duration>
    <instrument id="P1-I1" />
    <voice>1</voice>
    <type>quarter</type>
    <stem>up</stem>
    <staff>1</staff>
    <lyric default-y="-104" number="1" color="#000000">
     <syllabic>single</syllabic>
     <text>flocks</text>
    </lyric>
    <lyric default-y="-129" number="2" color="#000000">
     <syllabic>begin</syllabic>
     <text>migh</text>
    </lyric>
    <lyric default-y="-154" number="3" color="#000000">
     <syllabic>single</syllabic>
     <text>town,</text>
    </lyric>
    <lyric default-y="-179" number="4" color="#000000">
     <syllabic>single</syllabic>
     <text>there</text>
    </lyric>
    <lyric default-y="-204" number="5" color="#000000">
     <syllabic>single</syllabic>
     <text>and</text>
    </lyric>
    <lyric default-y="-229" number="6" color="#000000">
     <syllabic>single</syllabic>
     <text>God</text>
    </lyric>
   </note>
   <note color="#000000" default-x="15">
    <chord />
    <pitch>
     <step>G</step>
     <octave>4</octave>
    </pitch>
    <duration>256</duration>
    <instrument id="P1-I1" />
    <type>quarter</type>
    <staff>1</staff>
   </note>
   <note color="#000000" default-x="85">
    <pitch>
     <step>C</step>
     <octave>4</octave>
    </pitch>
    <duration>192</duration>
    <instrument id="P1-I1" />
    <voice>1</voice>
    <type>eighth</type>
    <dot />
    <stem>up</stem>
    <staff>1</staff>
    <beam number="1">begin</beam>
    <lyric default-y="-104" number="1" color="#000000">
     <syllabic>single</syllabic>
     <text>by</text>
     <extend />
    </lyric>
    <lyric default-y="-129" number="2" color="#000000">
     <syllabic>end</syllabic>
     <text>ty</text>
     <extend />
    </lyric>
    <lyric default-y="-154" number="3" color="#000000">
     <syllabic>single</syllabic>
     <text>this</text>
     <extend />
    </lyric>
    <lyric default-y="-179" number="4" color="#000000">
     <syllabic>single</syllabic>
     <text>shall</text>
     <extend />
    </lyric>
    <lyric default-y="-204" number="5" color="#000000">
     <syllabic>begin</syllabic>
     <text>forth</text>
    </lyric>
    <lyric default-y="-229" number="6" color="#000000">
     <syllabic>end</syllabic>
     <text>on</text>
     <extend />
    </lyric>
   </note>
   <note color="#000000" default-x="146">
    <pitch>
     <step>D</step>
     <octave>4</octave>
    </pitch>
    <duration>64</duration>
    <instrument id="P1-I1" />
    <voice>1</voice>
    <type>16th</type>
    <stem>up</stem>
    <staff>1</staff>
    <beam number="1">end</beam>
   </note>
   <note color="#000000" default-x="185">
    <pitch>
     <step>C</step>
     <octave>4</octave>
    </pitch>
    <duration>256</duration>
    <instrument id="P1-I1" />
    <voice>1</voice>
    <type>quarter</type>
    <stem>up</stem>
    <staff>1</staff>
    <lyric default-y="-104" number="1" color="#000000">
     <syllabic>single</syllabic>
     <text>night,</text>
    </lyric>
    <lyric default-y="-129" number="2" color="#000000">
     <syllabic>single</syllabic>
     <text>dread</text>
    </lyric>
    <lyric default-y="-154" number="3" color="#000000">
     <syllabic>single</syllabic>
     <text>day</text>
    </lyric>
    <lyric default-y="-179" number="4" color="#000000">
     <syllabic>single</syllabic>
     <text>find</text>
    </lyric>
    <lyric default-y="-204" number="5" color="#000000">
     <syllabic>single</syllabic>
     <text>with</text>
    </lyric>
    <lyric default-y="-229" number="6" color="#000000">
     <syllabic>single</syllabic>
     <text>high,</text>
    </lyric>
   </note>
   <note color="#000000" default-x="185">
    <chord />
    <pitch>
     <step>E</step>
     <octave>4</octave>
    </pitch>
    <duration>256</duration>
    <instrument id="P1-I1" />
    <type>quarter</type>
    <staff>1</staff>
   </note>
   <note color="#000000" default-x="256">
    <pitch>
     <step>E</step>
     <octave>4</octave>
    </pitch>
    <duration>192</duration>
    <instrument id="P1-I1" />
    <voice>1</voice>
    <type>eighth</type>
    <dot />
    <stem>up</stem>
    <staff>1</staff>
    <beam number="1">begin</beam>
    <lyric default-y="-104" number="1" color="#000000">
     <syllabic>single</syllabic>
     <text>all</text>
     <extend />
    </lyric>
    <lyric default-y="-129" number="2" color="#000000">
     <syllabic>single</syllabic>
     <text>had</text>
     <extend />
    </lyric>
    <lyric default-y="-154" number="3" color="#000000">
     <syllabic>single</syllabic>
     <text>is</text>
     <extend />
    </lyric>
    <lyric default-y="-179" number="4" color="#000000">
     <syllabic>single</syllabic>
     <text>to</text>
     <extend />
    </lyric>
    <lyric default-y="-204" number="5" color="#000000">
     <syllabic>begin</syllabic>
     <text>ap</text>
    </lyric>
    <lyric default-y="-229" number="6" color="#000000">
     <syllabic>end</syllabic>
     <text>and</text>
     <extend />
    </lyric>
   </note>
   <note color="#000000" default-x="317">
    <pitch>
     <step>F</step>
     <octave>4</octave>
    </pitch>
    <duration>64</duration>
    <instrument id="P1-I1" />
    <voice>1</voice>
    <type>16th</type>
    <stem>up</stem>
    <staff>1</staff>
    <beam number="1">end</beam>
   </note>
   <backup>
    <duration>768</duration>
   </backup>
   <note color="#000000" default-x="85">
    <pitch>
     <step>C</step>
     <octave>4</octave>
    </pitch>
    <duration>192</duration>
    <instrument id="P1-I1" />
    <voice>2</voice>
    <type>eighth</type>
    <dot />
    <stem>down</stem>
    <staff>1</staff>
    <beam number="1">begin</beam>
   </note>
   <note color="#000000" default-x="146">
    <pitch>
     <step>B</step>
     <octave>3</octave>
    </pitch>
    <duration>64</duration>
    <instrument id="P1-I1" />
    <voice>2</voice>
    <type>16th</type>
    <stem>down</stem>
    <staff>1</staff>
    <beam number="1">end</beam>
   </note>
   <forward>
    <duration>256</duration>
   </forward>
   <note color="#000000" default-x="256">
    <pitch>
     <step>C</step>
     <octave>4</octave>
    </pitch>
    <duration>256</duration>
    <instrument id="P1-I1" />
    <voice>2</voice>
    <type>quarter</type>
    <stem>down</stem>
    <staff>1</staff>
   </note>
  </measure>
  <measure number="3" width="163">
   <note color="#000000" default-x="15">
    <pitch>
     <step>C</step>
     <octave>4</octave>
    </pitch>
    <duration>256</duration>
    <instrument id="P1-I1" />
    <voice>1</voice>
    <type>quarter</type>
    <stem>up</stem>
    <staff>1</staff>
    <lyric default-y="-104" number="1" color="#000000">
     <syllabic>begin</syllabic>
     <text>seat</text>
    </lyric>
    <lyric default-y="-129" number="2" color="#000000">
     <syllabic>single</syllabic>
     <text>seized</text>
    </lyric>
    <lyric default-y="-154" number="3" color="#000000">
     <syllabic>single</syllabic>
     <text>born</text>
    </lyric>
    <lyric default-y="-179" number="4" color="#000000">
     <syllabic>begin</syllabic>
     <text>hu</text>
    </lyric>
    <lyric default-y="-204" number="5" color="#000000">
     <syllabic>end</syllabic>
     <text>peared</text>
    </lyric>
    <lyric default-y="-229" number="6" color="#000000">
     <syllabic>single</syllabic>
     <text>to</text>
    </lyric>
   </note>
   <note color="#000000" default-x="15">
    <chord />
    <pitch>
     <step>G</step>
     <octave>4</octave>
    </pitch>
    <duration>256</duration>
    <instrument id="P1-I1" />
    <type>quarter</type>
    <staff>1</staff>
   </note>
   <note color="#000000" default-x="85">
    <pitch>
     <step>C</step>
     <octave>4</octave>
    </pitch>
    <duration>256</duration>
    <instrument id="P1-I1" />
    <voice>1</voice>
    <type>quarter</type>
    <stem>up</stem>
    <staff>1</staff>
    <lyric default-y="-104" number="1" color="#000000">
     <syllabic>end</syllabic>
     <text>ed</text>
    </lyric>
    <lyric default-y="-129" number="2" color="#000000">
     <syllabic>single</syllabic>
     <text>their</text>
    </lyric>
    <lyric default-y="-154" number="3" color="#000000">
     <syllabic>single</syllabic>
     <text>of</text>
    </lyric>
    <lyric default-y="-179" number="4" color="#000000">
     <syllabic>single</syllabic>
     <text>man</text>
    </lyric>
    <lyric default-y="-204" number="5" color="#000000">
     <syllabic>single</syllabic>
     <text>a</text>
    </lyric>
    <lyric default-y="-229" number="6" color="#000000">
     <syllabic>single</syllabic>
     <text>the</text>
    </lyric>
   </note>
   <note color="#000000" default-x="85">
    <chord />
    <pitch>
     <step>G</step>
     <octave>4</octave>
    </pitch>
    <duration>256</duration>
    <instrument id="P1-I1" />
    <type>quarter</type>
    <staff>1</staff>
   </note>
   <barline>
    <bar-style>none</bar-style>
   </barline>
  </measure>
  <measure number="4" width="235">
   <print new-system="yes">
    <system-layout>
     <system-margins>
      <left-margin>0</left-margin>
      <right-margin>0</right-margin>
     </system-margins>
     <system-distance>57</system-distance>
    </system-layout>
   </print>
   <attributes>
    <staff-details number="1" print-object="yes" />
   </attributes>
   <note color="#000000" default-x="57">
    <pitch>
     <step>G</step>
     <octave>4</octave>
    </pitch>
    <duration>256</duration>
    <instrument id="P1-I1" />
    <voice>1</voice>
    <type>quarter</type>
    <stem>up</stem>
    <staff>1</staff>
    <lyric default-y="-105" number="1" color="#000000">
     <syllabic>single</syllabic>
     <text>on</text>
    </lyric>
    <lyric default-y="-130" number="2" color="#000000">
     <syllabic>begin</syllabic>
     <text>trou</text>
    </lyric>
    <lyric default-y="-155" number="3" color="#000000">
     <syllabic>begin</syllabic>
     <text>Da</text>
    </lyric>
    <lyric default-y="-180" number="4" color="#000000">
     <syllabic>end</syllabic>
     <text>view</text>
    </lyric>
    <lyric default-y="-205" number="5" color="#000000">
     <syllabic>begin</syllabic>
     <text>shin</text>
    </lyric>
    <lyric default-y="-230" number="6" color="#000000">
     <syllabic>end</syllabic>
     <text>earth</text>
    </lyric>
   </note>
   <note color="#000000" default-x="146">
    <pitch>
     <step>D</step>
     <octave>4</octave>
    </pitch>
    <duration>128</duration>
    <instrument id="P1-I1" />
    <voice>1</voice>
    <type>eighth</type>
    <stem>up</stem>
    <staff>1</staff>
    <beam number="1">begin</beam>
    <lyric default-y="-105" number="1" color="#000000">
     <syllabic>single</syllabic>
     <text>the</text>
     <extend />
    </lyric>
    <lyric default-y="-130" number="2" color="#000000">
     <syllabic>end</syllabic>
     <text>bled</text>
     <extend />
    </lyric>
    <lyric default-y="-155" number="3" color="#000000">
     <syllabic>single</syllabic>
     <text>vid's</text>
     <extend />
    </lyric>
    <lyric default-y="-180" number="4" color="#000000">
     <syllabic>begin</syllabic>
     <text>dis</text>
    </lyric>
    <lyric default-y="-205" number="5" color="#000000">
     <syllabic>end</syllabic>
     <text>ing</text>
     <extend />
    </lyric>
    <lyric default-y="-230" number="6" color="#000000">
     <syllabic>single</syllabic>
     <text>be</text>
     <extend />
    </lyric>
   </note>
   <note color="#000000" default-x="146">
    <chord />
    <pitch>
     <step>F</step>
     <octave>4</octave>
    </pitch>
    <duration>128</duration>
    <instrument id="P1-I1" />
    <type>eighth</type>
    <staff>1</staff>
   </note>
   <note color="#000000" default-x="190">
    <pitch>
     <step>C</step>
     <octave>4</octave>
    </pitch>
    <duration>128</duration>
    <instrument id="P1-I1" />
    <voice>1</voice>
    <type>eighth</type>
    <stem>up</stem>
    <staff>1</staff>
    <beam number="1">end</beam>
   </note>
   <note color="#000000" default-x="190">
    <chord />
    <pitch>
     <step>E</step>
     <octave>4</octave>
    </pitch>
    <duration>128</duration>
    <instrument id="P1-I1" />
    <type>eighth</type>
    <staff>1</staff>
   </note>
   <backup>
    <duration>512</duration>
   </backup>
   <note color="#000000" default-x="57">
    <pitch>
     <step>C</step>
     <octave>4</octave>
    </pitch>
    <duration>128</duration>
    <instrument id="P1-I1" />
    <voice>2</voice>
    <type>eighth</type>
    <stem>down</stem>
    <staff>1</staff>
    <beam number="1">begin</beam>
   </note>
   <note color="#000000" default-x="101">
    <pitch>
     <step>E</step>
     <octave>4</octave>
    </pitch>
    <duration>128</duration>
    <instrument id="P1-I1" />
    <voice>2</voice>
    <type>eighth</type>
    <stem>down</stem>
    <staff>1</staff>
    <beam number="1">end</beam>
   </note>
  </measure>
  <measure number="5" width="273">
   <note color="#000000" default-x="15">
    <pitch>
     <step>C</step>
     <octave>4</octave>
    </pitch>
    <duration>256</duration>
    <instrument id="P1-I1" />
    <voice>1</voice>
    <type>quarter</type>
    <stem>up</stem>
    <staff>1</staff>
    <notations>
     <slur color="#000000" type="start" orientation="under" />
     <slur color="#000000" type="start" orientation="over" number="2" />
    </notations>
    <lyric default-y="-105" number="1" color="#000000">
     <syllabic>single</syllabic>
     <text>ground,</text>
     <extend />
    </lyric>
    <lyric default-y="-130" number="2" color="#000000">
     <syllabic>single</syllabic>
     <text>mind;</text>
     <extend />
    </lyric>
    <lyric default-y="-155" number="3" color="#000000">
     <syllabic>single</syllabic>
     <text>line</text>
     <extend />
    </lyric>
    <lyric default-y="-180" number="4" color="#000000">
     <syllabic>single</syllabic>
     <text>played,</text>
     <extend />
    </lyric>
    <lyric default-y="-205" number="5" color="#000000">
     <syllabic>single</syllabic>
     <text>throng</text>
     <extend />
    </lyric>
    <lyric default-y="-230" number="6" color="#000000">
     <syllabic>single</syllabic>
     <text>peace;</text>
     <extend />
    </lyric>
   </note>
   <note color="#000000" default-x="15">
    <chord />
    <pitch>
     <step>E</step>
     <octave>4</octave>
    </pitch>
    <duration>256</duration>
    <instrument id="P1-I1" />
    <type>quarter</type>
    <staff>1</staff>
   </note>
   <note color="#000000" default-x="76">
    <pitch>
     <step>B</step>
     <octave>3</octave>
    </pitch>
    <duration>512</duration>
    <instrument id="P1-I1" />
    <voice>1</voice>
    <type>half</type>
    <stem>up</stem>
    <staff>1</staff>
   </note>
   <note color="#000000" default-x="76">
    <chord />
    <pitch>
     <step>D</step>
     <octave>4</octave>
    </pitch>
    <duration>512</duration>
    <instrument id="P1-I1" />
    <type>half</type>
    <staff>1</staff>
    <notations>
     <slur color="#000000" type="stop" orientation="under" />
     <slur color="#000000" type="stop" orientation="over" number="2" />
    </notations>
   </note>
   <note color="#000000" default-x="180">
    <pitch>
     <step>B</step>
     <octave>4</octave>
    </pitch>
    <duration>128</duration>
    <instrument id="P1-I1" />
    <voice>1</voice>
    <type>eighth</type>
    <stem>up</stem>
    <staff>1</staff>
    <beam number="1">begin</beam>
    <lyric default-y="-105" number="1" color="#000000">
     <syllabic>single</syllabic>
     <text>the</text>
     <extend />
    </lyric>
    <lyric default-y="-130" number="2" color="#000000">
     <syllabic>single</syllabic>
     <text>&quot;Glad</text>
     <extend />
    </lyric>
    <lyric default-y="-155" number="3" color="#000000">
     <syllabic>single</syllabic>
     <text>a</text>
     <extend />
    </lyric>
    <lyric default-y="-180" number="4" color="#000000">
     <syllabic>single</syllabic>
     <text>all</text>
     <extend />
    </lyric>
    <lyric default-y="-205" number="5" color="#000000">
     <syllabic>single</syllabic>
     <text>of</text>
     <extend />
    </lyric>
    <lyric default-y="-230" number="6" color="#000000">
     <syllabic>single</syllabic>
     <text>good</text>
     <extend />
    </lyric>
   </note>
   <note color="#000000" default-x="229">
    <pitch>
     <step>C</step>
     <octave>5</octave>
    </pitch>
    <duration>128</duration>
    <instrument id="P1-I1" />
    <voice>1</voice>
    <type>eighth</type>
    <stem>up</stem>
    <staff>1</staff>
    <beam number="1">end</beam>
   </note>
   <backup>
    <duration>256</duration>
   </backup>
   <note color="#000000" default-x="180">
    <pitch>
     <step>G</step>
     <octave>4</octave>
    </pitch>
    <duration>256</duration>
    <instrument id="P1-I1" />
    <voice>2</voice>
    <type>quarter</type>
    <stem>down</stem>
    <staff>1</staff>
   </note>
  </measure>
  <measure number="6" width="316">
   <note color="#000000" default-x="15">
    <pitch>
     <step>D</step>
     <octave>5</octave>
    </pitch>
    <duration>256</duration>
    <instrument id="P1-I1" />
    <voice>1</voice>
    <type>quarter</type>
    <stem>up</stem>
    <staff>1</staff>
    <lyric default-y="-105" number="1" color="#000000">
     <syllabic>begin</syllabic>
     <text>an</text>
    </lyric>
    <lyric default-y="-130" number="2" color="#000000">
     <syllabic>begin</syllabic>
     <text>ti</text>
    </lyric>
    <lyric default-y="-155" number="3" color="#000000">
     <syllabic>begin</syllabic>
     <text>Sa</text>
    </lyric>
    <lyric default-y="-180" number="4" color="#000000">
     <syllabic>middle</syllabic>
     <text>sim</text>
    </lyric>
    <lyric default-y="-205" number="5" color="#000000">
     <syllabic>middle</syllabic>
     <text>an</text>
    </lyric>
    <lyric default-y="-230" number="6" color="#000000">
     <syllabic>end</syllabic>
     <text>will</text>
    </lyric>
   </note>
   <note color="#000000" default-x="104">
    <pitch>
     <step>E</step>
     <octave>4</octave>
    </pitch>
    <duration>256</duration>
    <instrument id="P1-I1" />
    <voice>1</voice>
    <type>quarter</type>
    <stem>up</stem>
    <staff>1</staff>
    <lyric default-y="-105" number="1" color="#000000">
     <syllabic>end</syllabic>
     <text>gel</text>
    </lyric>
    <lyric default-y="-130" number="2" color="#000000">
     <syllabic>end</syllabic>
     <text>dings</text>
    </lyric>
    <lyric default-y="-155" number="3" color="#000000">
     <syllabic>single</syllabic>
     <text>vior</text>
    </lyric>
    <lyric default-y="-180" number="4" color="#000000">
     <syllabic>single</syllabic>
     <text>ply</text>
    </lyric>
    <lyric default-y="-205" number="5" color="#000000">
     <syllabic>single</syllabic>
     <text>gels</text>
    </lyric>
    <lyric default-y="-230" number="6" color="#000000">
     <syllabic>begin</syllabic>
     <text>hen</text>
    </lyric>
   </note>
   <note color="#000000" default-x="104">
    <chord />
    <pitch>
     <step>G</step>
     <octave>4</octave>
    </pitch>
    <duration>256</duration>
    <instrument id="P1-I1" />
    <type>quarter</type>
    <staff>1</staff>
   </note>
   <note color="#000000" default-x="193">
    <pitch>
     <step>D</step>
     <octave>4</octave>
    </pitch>
    <duration>256</duration>
    <instrument id="P1-I1" />
    <voice>1</voice>
    <type>quarter</type>
    <stem>up</stem>
    <staff>1</staff>
    <lyric default-y="-105" number="1" color="#000000">
     <syllabic>single</syllabic>
     <text>of</text>
    </lyric>
    <lyric default-y="-130" number="2" color="#000000">
     <syllabic>single</syllabic>
     <text>of</text>
    </lyric>
    <lyric default-y="-155" number="3" color="#000000">
     <syllabic>end</syllabic>
     <text>who</text>
    </lyric>
    <lyric default-y="-180" number="4" color="#000000">
     <syllabic>single</syllabic>
     <text>wrapped</text>
    </lyric>
    <lyric default-y="-205" number="5" color="#000000">
     <syllabic>begin</syllabic>
     <text>prais</text>
    </lyric>
    <lyric default-y="-230" number="6" color="#000000">
     <syllabic>end</syllabic>
     <text>ceforth</text>
    </lyric>
   </note>
   <note color="#000000" default-x="193">
    <chord />
    <pitch>
     <step>F</step>
     <octave>4</octave>
    </pitch>
    <duration>256</duration>
    <instrument id="P1-I1" />
    <type>quarter</type>
    <staff>1</staff>
   </note>
   <note color="#000000" default-x="254">
    <pitch>
     <step>B</step>
     <octave>3</octave>
    </pitch>
    <duration>256</duration>
    <instrument id="P1-I1" />
    <voice>1</voice>
    <type>quarter</type>
    <stem>up</stem>
    <staff>1</staff>
    <lyric default-y="-105" number="1" color="#000000">
     <syllabic>single</syllabic>
     <text>the</text>
    </lyric>
    <lyric default-y="-130" number="2" color="#000000">
     <syllabic>single</syllabic>
     <text>great</text>
    </lyric>
    <lyric default-y="-155" number="3" color="#000000">
     <syllabic>single</syllabic>
     <text>is</text>
    </lyric>
    <lyric default-y="-180" number="4" color="#000000">
     <syllabic>single</syllabic>
     <text>in</text>
    </lyric>
    <lyric default-y="-205" number="5" color="#000000">
     <syllabic>single</syllabic>
     <text>ing</text>
    </lyric>
    <lyric default-y="-230" number="6" color="#000000">
     <syllabic>single</syllabic>
     <text>from</text>
    </lyric>
   </note>
   <note color="#000000" default-x="254">
    <chord />
    <pitch>
     <step>F</step>
     <octave>4</octave>
    </pitch>
    <duration>256</duration>
    <instrument id="P1-I1" />
    <type>quarter</type>
    <staff>1</staff>
   </note>
   <backup>
    <duration>1024</duration>
   </backup>
   <note color="#000000" default-x="15">
    <pitch>
     <step>G</step>
     <octave>4</octave>
    </pitch>
    <duration>128</duration>
    <instrument id="P1-I1" />
    <voice>2</voice>
    <type>eighth</type>
    <stem>down</stem>
    <staff>1</staff>
    <beam number="1">begin</beam>
   </note>
   <note color="#000000" default-x="59">
    <pitch>
     <step>F</step>
     <octave>4</octave>
    </pitch>
    <duration>128</duration>
    <instrument id="P1-I1" />
    <voice>2</voice>
    <type>eighth</type>
    <stem>down</stem>
    <staff>1</staff>
    <beam number="1">end</beam>
   </note>
  </measure>
  <measure number="7" width="233">
   <note color="#000000" default-x="15">
    <pitch>
     <step>C</step>
     <octave>4</octave>
    </pitch>
    <duration>256</duration>
    <instrument id="P1-I1" />
    <voice>1</voice>
    <type>quarter</type>
    <stem>up</stem>
    <staff>1</staff>
    <lyric default-y="-105" number="1" color="#000000">
     <syllabic>single</syllabic>
     <text>Lord</text>
    </lyric>
    <lyric default-y="-130" number="2" color="#000000">
     <syllabic>single</syllabic>
     <text>joy</text>
    </lyric>
    <lyric default-y="-155" number="3" color="#000000">
     <syllabic>single</syllabic>
     <text>Christ</text>
    </lyric>
    <lyric default-y="-180" number="4" color="#000000">
     <syllabic>begin</syllabic>
     <text>swadd</text>
    </lyric>
    <lyric default-y="-205" number="5" color="#000000">
     <syllabic>end</syllabic>
     <text>God,</text>
    </lyric>
    <lyric default-y="-230" number="6" color="#000000">
     <syllabic>single</syllabic>
     <text>heaven</text>
    </lyric>
   </note>
   <note color="#000000" default-x="15">
    <chord />
    <pitch>
     <step>F</step>
     <octave>4</octave>
    </pitch>
    <duration>256</duration>
    <instrument id="P1-I1" />
    <type>quarter</type>
    <staff>1</staff>
   </note>
   <note color="#000000" default-x="76">
    <pitch>
     <step>E</step>
     <octave>4</octave>
    </pitch>
    <duration>128</duration>
    <instrument id="P1-I1" />
    <voice>1</voice>
    <type>eighth</type>
    <stem>up</stem>
    <staff>1</staff>
    <beam number="1">begin</beam>
    <lyric default-y="-105" number="1" color="#000000">
     <syllabic>single</syllabic>
     <text>came</text>
     <extend />
    </lyric>
    <lyric default-y="-130" number="2" color="#000000">
     <syllabic>single</syllabic>
     <text>I</text>
     <extend />
    </lyric>
    <lyric default-y="-155" number="3" color="#000000">
     <syllabic>single</syllabic>
     <text>the</text>
     <extend />
    </lyric>
    <lyric default-y="-180" number="4" color="#000000">
     <syllabic>single</syllabic>
     <text>ling</text>
     <extend />
    </lyric>
    <lyric default-y="-205" number="5" color="#000000">
     <syllabic>single</syllabic>
     <text>who</text>
     <extend />
    </lyric>
    <lyric default-y="-230" number="6" color="#000000">
     <syllabic>single</syllabic>
     <text>to</text>
     <extend />
    </lyric>
   </note>
   <note color="#000000" default-x="120">
    <pitch>
     <step>D</step>
     <octave>4</octave>
    </pitch>
    <duration>128</duration>
    <instrument id="P1-I1" />
    <voice>1</voice>
    <type>eighth</type>
    <stem>up</stem>
    <staff>1</staff>
    <beam number="1">end</beam>
   </note>
   <note color="#000000" default-x="165">
    <pitch>
     <step>C</step>
     <octave>4</octave>
    </pitch>
    <duration>256</duration>
    <instrument id="P1-I1" />
    <voice>1</voice>
    <type>quarter</type>
    <stem>up</stem>
    <staff>1</staff>
    <lyric default-y="-105" number="1" color="#000000">
     <syllabic>single</syllabic>
     <text>down,</text>
    </lyric>
    <lyric default-y="-130" number="2" color="#000000">
     <syllabic>single</syllabic>
     <text>bring</text>
    </lyric>
    <lyric default-y="-155" number="3" color="#000000">
     <syllabic>single</syllabic>
     <text>Lord;</text>
    </lyric>
    <lyric default-y="-180" number="4" color="#000000">
     <syllabic>single</syllabic>
     <text>bands,</text>
    </lyric>
    <lyric default-y="-205" number="5" color="#000000">
     <syllabic>single</syllabic>
     <text>thus</text>
    </lyric>
    <lyric default-y="-230" number="6" color="#000000">
     <syllabic>single</syllabic>
     <text>all</text>
    </lyric>
   </note>
   <note color="#000000" default-x="165">
    <chord />
    <pitch>
     <step>E</step>
     <octave>4</octave>
    </pitch>
    <duration>256</duration>
    <instrument id="P1-I1" />
    <type>quarter</type>
    <staff>1</staff>
   </note>
   <barline>
    <bar-style>none</bar-style>
   </barline>
   <backup>
    <duration>512</duration>
   </backup>
   <note color="#000000" default-x="76">
    <pitch>
     <step>C</step>
     <octave>4</octave>
    </pitch>
    <duration>256</duration>
    <instrument id="P1-I1" />
    <voice>2</voice>
    <type>quarter</type>
    <stem>down</stem>
    <staff>1</staff>
   </note>
  </measure>
  <measure number="8" width="135">
   <print new-system="yes">
    <system-layout>
     <system-margins>
      <left-margin>0</left-margin>
      <right-margin>0</right-margin>
     </system-margins>
     <system-distance>56</system-distance>
    </system-layout>
   </print>
   <attributes>
    <staff-details number="1" print-object="yes" />
   </attributes>
   <note color="#000000" default-x="57">
    <pitch>
     <step>C</step>
     <octave>5</octave>
    </pitch>
    <duration>128</duration>
    <instrument id="P1-I1" />
    <voice>1</voice>
    <type>eighth</type>
    <stem>up</stem>
    <staff>1</staff>
    <beam number="1">begin</beam>
    <lyric default-y="-105" number="1" color="#000000">
     <syllabic>single</syllabic>
     <text>and</text>
     <extend />
    </lyric>
    <lyric default-y="-130" number="2" color="#000000">
     <syllabic>single</syllabic>
     <text>to</text>
     <extend />
    </lyric>
    <lyric default-y="-155" number="3" color="#000000">
     <syllabic>single</syllabic>
     <text>and</text>
     <extend />
    </lyric>
    <lyric default-y="-180" number="4" color="#000000">
     <syllabic>single</syllabic>
     <text>and</text>
     <extend />
    </lyric>
    <lyric default-y="-205" number="5" color="#000000">
     <syllabic>begin</syllabic>
     <text>ad</text>
    </lyric>
    <lyric default-y="-230" number="6" color="#000000">
     <syllabic>middle</syllabic>
     <text>be</text>
    </lyric>
   </note>
   <note color="#000000" default-x="96">
    <pitch>
     <step>B</step>
     <octave>4</octave>
    </pitch>
    <duration>128</duration>
    <instrument id="P1-I1" />
    <voice>1</voice>
    <type>eighth</type>
    <stem>up</stem>
    <staff>1</staff>
    <beam number="1">end</beam>
   </note>
   <backup>
    <duration>256</duration>
   </backup>
   <note color="#000000" default-x="57">
    <pitch>
     <step>E</step>
     <octave>4</octave>
    </pitch>
    <duration>256</duration>
    <instrument id="P1-I1" />
    <voice>2</voice>
    <type>quarter</type>
    <stem>down</stem>
    <staff>1</staff>
   </note>
  </measure>
  <measure number="9" width="262">
   <note color="#000000" default-x="15">
    <pitch>
     <step>F</step>
     <octave>4</octave>
    </pitch>
    <duration>256</duration>
    <instrument id="P1-I1" />
    <voice>1</voice>
    <type>quarter</type>
    <stem>up</stem>
    <staff>1</staff>
    <lyric default-y="-105" number="1" color="#000000">
     <syllabic>begin</syllabic>
     <text>glo</text>
    </lyric>
    <lyric default-y="-130" number="2" color="#000000">
     <syllabic>single</syllabic>
     <text>you</text>
    </lyric>
    <lyric default-y="-155" number="3" color="#000000">
     <syllabic>end</syllabic>
     <text>this</text>
    </lyric>
    <lyric default-y="-180" number="4" color="#000000">
     <syllabic>single</syllabic>
     <text>in</text>
    </lyric>
    <lyric default-y="-205" number="5" color="#000000">
     <syllabic>single</syllabic>
     <text>dressed</text>
    </lyric>
    <lyric default-y="-230" number="6" color="#000000">
     <syllabic>single</syllabic>
     <text>gin</text>
    </lyric>
   </note>
   <note color="#000000" default-x="15">
    <chord />
    <pitch>
     <step>A</step>
     <octave>4</octave>
    </pitch>
    <duration>256</duration>
    <instrument id="P1-I1" />
    <type>quarter</type>
    <staff>1</staff>
   </note>
   <note color="#000000" default-x="76">
    <pitch>
     <step>E</step>
     <octave>4</octave>
    </pitch>
    <duration>256</duration>
    <instrument id="P1-I1" />
    <voice>1</voice>
    <type>quarter</type>
    <stem>up</stem>
    <staff>1</staff>
    <lyric default-y="-105" number="1" color="#000000">
     <syllabic>end</syllabic>
     <text>ry</text>
    </lyric>
    <lyric default-y="-130" number="2" color="#000000">
     <syllabic>single</syllabic>
     <text>and</text>
    </lyric>
    <lyric default-y="-155" number="3" color="#000000">
     <syllabic>single</syllabic>
     <text>shall</text>
    </lyric>
    <lyric default-y="-180" number="4" color="#000000">
     <syllabic>single</syllabic>
     <text>a</text>
    </lyric>
    <lyric default-y="-205" number="5" color="#000000">
     <syllabic>single</syllabic>
     <text>their</text>
    </lyric>
    <lyric default-y="-230" number="6" color="#000000">
     <syllabic>single</syllabic>
     <text>and</text>
    </lyric>
   </note>
   <note color="#000000" default-x="76">
    <chord />
    <pitch>
     <step>G</step>
     <octave>4</octave>
    </pitch>
    <duration>256</duration>
    <instrument id="P1-I1" />
    <type>quarter</type>
    <staff>1</staff>
   </note>
   <note color="#000000" default-x="154">
    <pitch>
     <step>C</step>
     <octave>4</octave>
    </pitch>
    <duration>256</duration>
    <instrument id="P1-I1" />
    <voice>1</voice>
    <type>quarter</type>
    <stem>up</stem>
    <staff>1</staff>
    <lyric default-y="-105" number="1" color="#000000">
     <syllabic>single</syllabic>
     <text>shone</text>
    </lyric>
    <lyric default-y="-130" number="2" color="#000000">
     <syllabic>begin</syllabic>
     <text>hu</text>
    </lyric>
    <lyric default-y="-155" number="3" color="#000000">
     <syllabic>single</syllabic>
     <text>be</text>
    </lyric>
    <lyric default-y="-180" number="4" color="#000000">
     <syllabic>begin</syllabic>
     <text>man</text>
    </lyric>
    <lyric default-y="-205" number="5" color="#000000">
     <syllabic>middle</syllabic>
     <text>joy</text>
    </lyric>
    <lyric default-y="-230" number="6" color="#000000">
     <syllabic>middle</syllabic>
     <text>ne</text>
    </lyric>
   </note>
   <note color="#000000" default-x="154">
    <chord />
    <pitch>
     <step>F</step>
     <octave>4</octave>
    </pitch>
    <duration>256</duration>
    <instrument id="P1-I1" />
    <type>quarter</type>
    <staff>1</staff>
   </note>
   <note color="#000000" default-x="208">
    <pitch>
     <step>C</step>
     <octave>4</octave>
    </pitch>
    <duration>256</duration>
    <instrument id="P1-I1" />
    <voice>1</voice>
    <type>quarter</type>
    <stem>up</stem>
    <staff>1</staff>
    <lyric default-y="-105" number="1" color="#000000">
     <syllabic>begin</syllabic>
     <text>a</text>
    </lyric>
    <lyric default-y="-130" number="2" color="#000000">
     <syllabic>middle</syllabic>
     <text>man</text>
    </lyric>
    <lyric default-y="-155" number="3" color="#000000">
     <syllabic>end</syllabic>
     <text>the</text>
    </lyric>
    <lyric default-y="-180" number="4" color="#000000">
     <syllabic>single</syllabic>
     <text>ger</text>
    </lyric>
    <lyric default-y="-205" number="5" color="#000000">
     <syllabic>single</syllabic>
     <text>ful</text>
    </lyric>
    <lyric default-y="-230" number="6" color="#000000">
     <syllabic>single</syllabic>
     <text>ver</text>
    </lyric>
   </note>
   <note color="#000000" default-x="208">
    <chord />
    <pitch>
     <step>E</step>
     <octave>4</octave>
    </pitch>
    <duration>256</duration>
    <instrument id="P1-I1" />
    <type>quarter</type>
    <staff>1</staff>
   </note>
  </measure>
  <measure number="10" width="236">
   <note color="#000000" default-x="15">
    <pitch>
     <step>A</step>
     <octave>4</octave>
    </pitch>
    <duration>256</duration>
    <instrument id="P1-I1" />
    <voice>1</voice>
    <type>quarter</type>
    <stem>up</stem>
    <staff>1</staff>
    <notations>
     <slur color="#000000" type="start" orientation="over" />
    </notations>
    <lyric default-y="-105" number="1" color="#000000">
     <syllabic>end</syllabic>
     <text>round,</text>
     <extend />
    </lyric>
    <lyric default-y="-130" number="2" color="#000000">
     <syllabic>end</syllabic>
     <text>kind,</text>
     <extend />
    </lyric>
    <lyric default-y="-155" number="3" color="#000000">
     <syllabic>single</syllabic>
     <text>sign,</text>
     <extend />
    </lyric>
    <lyric default-y="-180" number="4" color="#000000">
     <syllabic>single</syllabic>
     <text>laid,</text>
     <extend />
    </lyric>
    <lyric default-y="-205" number="5" color="#000000">
     <syllabic>single</syllabic>
     <text>song,</text>
     <extend />
    </lyric>
    <lyric default-y="-230" number="6" color="#000000">
     <syllabic>single</syllabic>
     <text>cease,</text>
     <extend />
    </lyric>
   </note>
   <note color="#000000" default-x="69">
    <pitch>
     <step>G</step>
     <octave>4</octave>
    </pitch>
    <duration>512</duration>
    <instrument id="P1-I1" />
    <voice>1</voice>
    <type>half</type>
    <stem>up</stem>
    <staff>1</staff>
    <notations>
     <slur color="#000000" type="stop" orientation="over" />
    </notations>
   </note>
   <note color="#000000" default-x="160">
    <pitch>
     <step>D</step>
     <octave>4</octave>
    </pitch>
    <duration>256</duration>
    <instrument id="P1-I1" />
    <voice>1</voice>
    <type>quarter</type>
    <stem>up</stem>
    <staff>1</staff>
    <lyric default-y="-105" number="1" color="#000000">
     <syllabic>single</syllabic>
     <text>and</text>
    </lyric>
    <lyric default-y="-130" number="2" color="#000000">
     <syllabic>single</syllabic>
     <text>to</text>
    </lyric>
    <lyric default-y="-155" number="3" color="#000000">
     <syllabic>single</syllabic>
     <text>and</text>
    </lyric>
    <lyric default-y="-180" number="4" color="#000000">
     <syllabic>single</syllabic>
     <text>and</text>
    </lyric>
    <lyric default-y="-205" number="5" color="#000000">
     <syllabic>begin</syllabic>
     <text>ad</text>
    </lyric>
    <lyric default-y="-230" number="6" color="#000000">
     <syllabic>middle</syllabic>
     <text>be</text>
    </lyric>
   </note>
   <note color="#000000" default-x="160">
    <chord />
    <pitch>
     <step>D</step>
     <octave>5</octave>
    </pitch>
    <duration>256</duration>
    <instrument id="P1-I1" />
    <type>quarter</type>
    <staff>1</staff>
   </note>
   <backup>
    <duration>1024</duration>
   </backup>
   <note color="#000000" default-x="15">
    <pitch>
     <step>C</step>
     <octave>4</octave>
    </pitch>
    <duration>768</duration>
    <instrument id="P1-I1" />
    <voice>2</voice>
    <type>half</type>
    <dot />
    <stem>down</stem>
    <staff>1</staff>
   </note>
  </measure>
  <measure number="11" width="285">
   <note color="#000000" default-x="15">
    <pitch>
     <step>E</step>
     <octave>4</octave>
    </pitch>
    <duration>256</duration>
    <instrument id="P1-I1" />
    <voice>1</voice>
    <type>quarter</type>
    <stem>up</stem>
    <staff>1</staff>
    <lyric default-y="-105" number="1" color="#000000">
     <syllabic>begin</syllabic>
     <text>glo</text>
    </lyric>
    <lyric default-y="-130" number="2" color="#000000">
     <syllabic>single</syllabic>
     <text>you</text>
    </lyric>
    <lyric default-y="-155" number="3" color="#000000">
     <syllabic>end</syllabic>
     <text>this</text>
    </lyric>
    <lyric default-y="-180" number="4" color="#000000">
     <syllabic>single</syllabic>
     <text>in</text>
    </lyric>
    <lyric default-y="-205" number="5" color="#000000">
     <syllabic>single</syllabic>
     <text>dressed</text>
    </lyric>
    <lyric default-y="-230" number="6" color="#000000">
     <syllabic>single</syllabic>
     <text>gin</text>
    </lyric>
   </note>
   <note color="#000000" default-x="15">
    <chord />
    <pitch>
     <step>G</step>
     <octave>4</octave>
    </pitch>
    <duration>256</duration>
    <instrument id="P1-I1" />
    <type>quarter</type>
    <staff>1</staff>
   </note>
   <note color="#000000" default-x="76">
    <pitch>
     <step>C</step>
     <octave>5</octave>
    </pitch>
    <duration>256</duration>
    <instrument id="P1-I1" />
    <voice>1</voice>
    <type>quarter</type>
    <stem>up</stem>
    <staff>1</staff>
    <lyric default-y="-105" number="1" color="#000000">
     <syllabic>end</syllabic>
     <text>ry</text>
    </lyric>
    <lyric default-y="-130" number="2" color="#000000">
     <syllabic>single</syllabic>
     <text>and</text>
    </lyric>
    <lyric default-y="-155" number="3" color="#000000">
     <syllabic>single</syllabic>
     <text>shall</text>
    </lyric>
    <lyric default-y="-180" number="4" color="#000000">
     <syllabic>single</syllabic>
     <text>a</text>
    </lyric>
    <lyric default-y="-205" number="5" color="#000000">
     <syllabic>single</syllabic>
     <text>their</text>
    </lyric>
    <lyric default-y="-230" number="6" color="#000000">
     <syllabic>single</syllabic>
     <text>and</text>
    </lyric>
   </note>
   <note color="#000000" default-x="153">
    <pitch>
     <step>C</step>
     <octave>4</octave>
    </pitch>
    <duration>256</duration>
    <instrument id="P1-I1" />
    <voice>1</voice>
    <type>quarter</type>
    <stem>up</stem>
    <staff>1</staff>
    <lyric default-y="-105" number="1" color="#000000">
     <syllabic>single</syllabic>
     <text>shone</text>
    </lyric>
    <lyric default-y="-130" number="2" color="#000000">
     <syllabic>begin</syllabic>
     <text>hu</text>
    </lyric>
    <lyric default-y="-155" number="3" color="#000000">
     <syllabic>single</syllabic>
     <text>be</text>
    </lyric>
    <lyric default-y="-180" number="4" color="#000000">
     <syllabic>begin</syllabic>
     <text>man</text>
    </lyric>
    <lyric default-y="-205" number="5" color="#000000">
     <syllabic>middle</syllabic>
     <text>joy</text>
    </lyric>
    <lyric default-y="-230" number="6" color="#000000">
     <syllabic>middle</syllabic>
     <text>ne</text>
    </lyric>
   </note>
   <note color="#000000" default-x="153">
    <chord />
    <pitch>
     <step>E</step>
     <octave>4</octave>
    </pitch>
    <duration>256</duration>
    <instrument id="P1-I1" />
    <type>quarter</type>
    <staff>1</staff>
   </note>
   <note color="#000000" default-x="206">
    <pitch>
     <step>B</step>
     <octave>3</octave>
    </pitch>
    <duration>256</duration>
    <instrument id="P1-I1" />
    <voice>1</voice>
    <type>quarter</type>
    <stem>up</stem>
    <staff>1</staff>
    <lyric default-y="-105" number="1" color="#000000">
     <syllabic>begin</syllabic>
     <text>a</text>
    </lyric>
    <lyric default-y="-130" number="2" color="#000000">
     <syllabic>middle</syllabic>
     <text>man</text>
    </lyric>
    <lyric default-y="-155" number="3" color="#000000">
     <syllabic>end</syllabic>
     <text>the</text>
    </lyric>
    <lyric default-y="-180" number="4" color="#000000">
     <syllabic>single</syllabic>
     <text>ger</text>
    </lyric>
    <lyric default-y="-205" number="5" color="#000000">
     <syllabic>single</syllabic>
     <text>ful</text>
    </lyric>
    <lyric default-y="-230" number="6" color="#000000">
     <syllabic>single</syllabic>
     <text>ver</text>
    </lyric>
   </note>
   <note color="#000000" default-x="206">
    <chord />
    <pitch>
     <step>D</step>
     <octave>4</octave>
    </pitch>
    <duration>256</duration>
    <instrument id="P1-I1" />
    <type>quarter</type>
    <staff>1</staff>
   </note>
   <backup>
    <duration>768</duration>
   </backup>
   <note color="#000000" default-x="76">
    <pitch>
     <step>C</step>
     <octave>4</octave>
    </pitch>
    <duration>192</duration>
    <instrument id="P1-I1" />
    <voice>2</voice>
    <type>eighth</type>
    <dot />
    <stem>down</stem>
    <staff>1</staff>
    <beam number="1">begin</beam>
   </note>
   <note color="#000000" default-x="123">
    <pitch>
     <step>D</step>
     <octave>4</octave>
    </pitch>
    <duration>64</duration>
    <instrument id="P1-I1" />
    <voice>2</voice>
    <type>16th</type>
    <stem>down</stem>
    <staff>1</staff>
    <beam number="1">end</beam>
   </note>
  </measure>
  <measure number="12" width="139">
   <note color="#000000" default-x="15">
    <pitch>
     <step>C</step>
     <octave>4</octave>
    </pitch>
    <duration>768</duration>
    <instrument id="P1-I1" />
    <voice>1</voice>
    <type>half</type>
    <dot />
    <stem>up</stem>
    <staff>1</staff>
    <lyric default-y="-105" number="1" color="#000000">
     <syllabic>end</syllabic>
     <text>round.</text>
    </lyric>
    <lyric default-y="-130" number="2" color="#000000">
     <syllabic>end</syllabic>
     <text>kind.</text>
    </lyric>
    <lyric default-y="-155" number="3" color="#000000">
     <syllabic>single</syllabic>
     <text>sign:</text>
    </lyric>
    <lyric default-y="-180" number="4" color="#000000">
     <syllabic>single</syllabic>
     <text>laid.&quot;</text>
    </lyric>
    <lyric default-y="-205" number="5" color="#000000">
     <syllabic>single</syllabic>
     <text>song:</text>
    </lyric>
    <lyric default-y="-230" number="6" color="#000000">
     <syllabic>single</syllabic>
     <text>cease!&quot;</text>
    </lyric>
   </note>
   <barline>
    <bar-style>light-heavy</bar-style>
   </barline>
   <backup>
    <duration>768</duration>
   </backup>
   <note color="#000000" default-x="15">
    <pitch>
     <step>C</step>
     <octave>4</octave>
    </pitch>
    <duration>768</duration>
    <instrument id="P1-I1" />
    <voice>2</voice>
    <type>half</type>
    <dot />
    <stem>down</stem>
    <staff>1</staff>
   </note>
  </measure>
 </part>
 <part id="P2">
  <measure number="0" width="175">
   <print new-page="yes">
    <system-layout>
     <system-margins>
      <left-margin>0</left-margin>
      <right-margin>0</right-margin>
     </system-margins>
    </system-layout>
    <staff-layout number="1">
     <staff-distance>222</staff-distance>
    </staff-layout>
   </print>
   <attributes>
    <divisions>256</divisions>
    <key color="#000000">
     <fifths>0</fifths>
     <mode>major</mode>
    </key>
    <time color="#000000">
     <beats>4</beats>
     <beat-type>4</beat-type>
    </time>
    <staves>1</staves>
    <clef number="1" color="#000000">
     <sign>F</sign>
     <line>4</line>
    </clef>
    <staff-details number="1" print-object="yes" />
   </attributes>
   <note color="#000000" default-x="75">
    <pitch>
     <step>G</step>
     <octave>3</octave>
    </pitch>
    <duration>256</duration>
    <instrument id="P2-I1" />
    <voice>1</voice>
    <type>quarter</type>
    <stem>up</stem>
    <staff>1</staff>
   </note>
   <backup>
    <duration>256</duration>
   </backup>
   <note color="#000000" default-x="75">
    <pitch>
     <step>C</step>
     <octave>3</octave>
    </pitch>
    <duration>192</duration>
    <instrument id="P2-I1" />
    <voice>2</voice>
    <type>eighth</type>
    <dot />
    <stem>down</stem>
    <staff>1</staff>
    <beam number="1">begin</beam>
   </note>
   <note color="#000000" default-x="136">
    <pitch>
     <step>D</step>
     <octave>3</octave>
    </pitch>
    <duration>64</duration>
    <instrument id="P2-I1" />
    <voice>2</voice>
    <type>16th</type>
    <stem>down</stem>
    <staff>1</staff>
    <beam number="1">end</beam>
   </note>
  </measure>
  <measure number="1" width="362">
   <note color="#000000" default-x="15">
    <pitch>
     <step>E</step>
     <octave>3</octave>
    </pitch>
    <duration>256</duration>
    <instrument id="P2-I1" />
    <voice>1</voice>
    <type>quarter</type>
    <stem>down</stem>
    <staff>1</staff>
   </note>
   <note color="#000000" default-x="15">
    <chord />
    <pitch>
     <step>G</step>
     <octave>3</octave>
    </pitch>
    <duration>256</duration>
    <instrument id="P2-I1" />
    <type>quarter</type>
    <staff>1</staff>
   </note>
   <note color="#000000" default-x="86">
    <pitch>
     <step>C</step>
     <octave>3</octave>
    </pitch>
    <duration>256</duration>
    <instrument id="P2-I1" />
    <voice>1</voice>
    <type>quarter</type>
    <stem>down</stem>
    <staff>1</staff>
   </note>
   <note color="#000000" default-x="86">
    <chord />
    <pitch>
     <step>G</step>
     <octave>3</octave>
    </pitch>
    <duration>256</duration>
    <instrument id="P2-I1" />
    <type>quarter</type>
    <staff>1</staff>
   </note>
   <note color="#000000" default-x="157">
    <pitch>
     <step>G</step>
     <octave>3</octave>
    </pitch>
    <duration>256</duration>
    <instrument id="P2-I1" />
    <voice>1</voice>
    <type>quarter</type>
    <stem>up</stem>
    <staff>1</staff>
   </note>
   <note color="#000000" default-x="259">
    <pitch>
     <step>A</step>
     <octave>3</octave>
    </pitch>
    <duration>128</duration>
    <instrument id="P2-I1" />
    <voice>1</voice>
    <type>eighth</type>
    <stem>up</stem>
    <staff>1</staff>
    <beam number="1">begin</beam>
   </note>
   <note color="#000000" default-x="310">
    <pitch>
     <step>B</step>
     <octave>3</octave>
    </pitch>
    <duration>128</duration>
    <instrument id="P2-I1" />
    <voice>1</voice>
    <type>eighth</type>
    <stem>up</stem>
    <staff>1</staff>
    <beam number="1">end</beam>
   </note>
   <backup>
    <duration>512</duration>
   </backup>
   <note color="#000000" default-x="157">
    <pitch>
     <step>G</step>
     <octave>3</octave>
    </pitch>
    <duration>256</duration>
    <instrument id="P2-I1" />
    <voice>2</voice>
    <type>quarter</type>
    <stem>down</stem>
    <staff>1</staff>
   </note>
   <note color="#000000" default-x="259">
    <pitch>
     <step>F</step>
     <octave>3</octave>
    </pitch>
    <duration>256</duration>
    <instrument id="P2-I1" />
    <voice>2</voice>
    <type>quarter</type>
    <stem>down</stem>
    <staff>1</staff>
   </note>
  </measure>
  <measure number="2" width="357">
   <note color="#000000" default-x="15">
    <pitch>
     <step>E</step>
     <octave>3</octave>
    </pitch>
    <duration>256</duration>
    <instrument id="P2-I1" />
    <voice>1</voice>
    <type>quarter</type>
    <stem>down</stem>
    <staff>1</staff>
   </note>
   <note color="#000000" default-x="15">
    <chord />
    <pitch>
     <step>C</step>
     <octave>4</octave>
    </pitch>
    <duration>256</duration>
    <instrument id="P2-I1" />
    <type>quarter</type>
    <staff>1</staff>
   </note>
   <note color="#000000" default-x="85">
    <pitch>
     <step>G</step>
     <octave>3</octave>
    </pitch>
    <duration>256</duration>
    <instrument id="P2-I1" />
    <voice>1</voice>
    <type>quarter</type>
    <stem>up</stem>
    <staff>1</staff>
   </note>
   <note color="#000000" default-x="185">
    <pitch>
     <step>C</step>
     <octave>3</octave>
    </pitch>
    <duration>256</duration>
    <instrument id="P2-I1" />
    <voice>1</voice>
    <type>quarter</type>
    <stem>down</stem>
    <staff>1</staff>
   </note>
   <note color="#000000" default-x="185">
    <chord />
    <pitch>
     <step>G</step>
     <octave>3</octave>
    </pitch>
    <duration>256</duration>
    <instrument id="P2-I1" />
    <type>quarter</type>
    <staff>1</staff>
   </note>
   <note color="#000000" default-x="256">
    <pitch>
     <step>G</step>
     <octave>3</octave>
    </pitch>
    <duration>256</duration>
    <instrument id="P2-I1" />
    <voice>1</voice>
    <type>quarter</type>
    <stem>up</stem>
    <staff>1</staff>
   </note>
   <backup>
    <duration>768</duration>
   </backup>
   <note color="#000000" default-x="85">
    <pitch>
     <step>E</step>
     <octave>3</octave>
    </pitch>
    <duration>192</duration>
    <instrument id="P2-I1" />
    <voice>2</voice>
    <type>eighth</type>
    <dot />
    <stem>down</stem>
    <staff>1</staff>
    <beam number="1">begin</beam>
   </note>
   <note color="#000000" default-x="146">
    <pitch>
     <step>D</step>
     <octave>3</octave>
    </pitch>
    <duration>64</duration>
    <instrument id="P2-I1" />
    <voice>2</voice>
    <type>16th</type>
    <stem>down</stem>
    <staff>1</staff>
    <beam number="1">end</beam>
   </note>
   <forward>
    <duration>256</duration>
   </forward>
   <note color="#000000" default-x="256">
    <pitch>
     <step>C</step>
     <octave>3</octave>
    </pitch>
    <duration>192</duration>
    <instrument id="P2-I1" />
    <voice>2</voice>
    <type>eighth</type>
    <dot />
    <stem>down</stem>
    <staff>1</staff>
    <beam number="1">begin</beam>
   </note>
   <note color="#000000" default-x="317">
    <pitch>
     <step>D</step>
     <octave>3</octave>
    </pitch>
    <duration>64</duration>
    <instrument id="P2-I1" />
    <voice>2</voice>
    <type>16th</type>
    <stem>down</stem>
    <staff>1</staff>
    <beam number="1">end</beam>
   </note>
  </measure>
  <measure number="3" width="163">
   <note color="#000000" default-x="15">
    <pitch>
     <step>E</step>
     <octave>3</octave>
    </pitch>
    <duration>256</duration>
    <instrument id="P2-I1" />
    <voice>1</voice>
    <type>quarter</type>
    <stem>down</stem>
    <staff>1</staff>
   </note>
   <note color="#000000" default-x="15">
    <chord />
    <pitch>
     <step>G</step>
     <octave>3</octave>
    </pitch>
    <duration>256</duration>
    <instrument id="P2-I1" />
    <type>quarter</type>
    <staff>1</staff>
   </note>
   <note color="#000000" default-x="85">
    <pitch>
     <step>C</step>
     <octave>3</octave>
    </pitch>
    <duration>256</duration>
    <instrument id="P2-I1" />
    <voice>1</voice>
    <type>quarter</type>
    <stem>down</stem>
    <staff>1</staff>
   </note>
   <note color="#000000" default-x="85">
    <chord />
    <pitch>
     <step>E</step>
     <octave>3</octave>
    </pitch>
    <duration>256</duration>
    <instrument id="P2-I1" />
    <type>quarter</type>
    <staff>1</staff>
   </note>
   <barline>
    <bar-style>none</bar-style>
   </barline>
  </measure>
  <measure number="4" width="235">
   <print new-system="yes">
    <system-layout>
     <system-margins>
      <left-margin>0</left-margin>
      <right-margin>0</right-margin>
     </system-margins>
    </system-layout>
    <staff-layout number="1">
     <staff-distance>243</staff-distance>
    </staff-layout>
   </print>
   <attributes>
    <staff-details number="1" print-object="yes" />
   </attributes>
   <note color="#000000" default-x="57">
    <pitch>
     <step>E</step>
     <octave>3</octave>
    </pitch>
    <duration>256</duration>
    <instrument id="P2-I1" />
    <voice>1</voice>
    <type>quarter</type>
    <stem>down</stem>
    <staff>1</staff>
   </note>
   <note color="#000000" default-x="57">
    <chord />
    <pitch>
     <step>C</step>
     <octave>4</octave>
    </pitch>
    <duration>256</duration>
    <instrument id="P2-I1" />
    <type>quarter</type>
    <staff>1</staff>
   </note>
   <note color="#000000" default-x="146">
    <pitch>
     <step>F</step>
     <octave>3</octave>
    </pitch>
    <duration>256</duration>
    <instrument id="P2-I1" />
    <voice>1</voice>
    <type>quarter</type>
    <stem>down</stem>
    <staff>1</staff>
   </note>
   <note color="#000000" default-x="146">
    <chord />
    <pitch>
     <step>A</step>
     <octave>3</octave>
    </pitch>
    <duration>256</duration>
    <instrument id="P2-I1" />
    <type>quarter</type>
    <staff>1</staff>
   </note>
  </measure>
  <measure number="5" width="273">
   <note color="#000000" default-x="15">
    <pitch>
     <step>G</step>
     <octave>3</octave>
    </pitch>
    <duration>768</duration>
    <instrument id="P2-I1" />
    <voice>1</voice>
    <type>half</type>
    <dot />
    <stem>up</stem>
    <staff>1</staff>
   </note>
   <note color="#000000" default-x="180">
    <pitch>
     <step>D</step>
     <octave>4</octave>
    </pitch>
    <duration>256</duration>
    <instrument id="P2-I1" />
    <voice>1</voice>
    <type>quarter</type>
    <stem>up</stem>
    <staff>1</staff>
   </note>
   <backup>
    <duration>1024</duration>
   </backup>
   <note color="#000000" default-x="15">
    <pitch>
     <step>G</step>
     <octave>3</octave>
    </pitch>
    <duration>768</duration>
    <instrument id="P2-I1" />
    <voice>2</voice>
    <type>half</type>
    <dot />
    <stem>down</stem>
    <staff>1</staff>
   </note>
   <note color="#000000" default-x="180">
    <pitch>
     <step>G</step>
     <octave>2</octave>
    </pitch>
    <duration>128</duration>
    <instrument id="P2-I1" />
    <voice>2</voice>
    <type>eighth</type>
    <stem>down</stem>
    <staff>1</staff>
    <beam number="1">begin</beam>
   </note>
   <note color="#000000" default-x="229">
    <pitch>
     <step>A</step>
     <octave>2</octave>
    </pitch>
    <duration>128</duration>
    <instrument id="P2-I1" />
    <voice>2</voice>
    <type>eighth</type>
    <stem>down</stem>
    <staff>1</staff>
    <beam number="1">end</beam>
   </note>
  </measure>
  <measure number="6" width="316">
   <note color="#000000" default-x="15">
    <pitch>
     <step>B</step>
     <octave>2</octave>
    </pitch>
    <duration>256</duration>
    <instrument id="P2-I1" />
    <voice>1</voice>
    <type>quarter</type>
    <stem>down</stem>
    <staff>1</staff>
   </note>
   <note color="#000000" default-x="15">
    <chord />
    <pitch>
     <step>D</step>
     <octave>4</octave>
    </pitch>
    <duration>256</duration>
    <instrument id="P2-I1" />
    <type>quarter</type>
    <staff>1</staff>
   </note>
   <note color="#000000" default-x="104">
    <pitch>
     <step>C</step>
     <octave>4</octave>
    </pitch>
    <duration>128</duration>
    <instrument id="P2-I1" />
    <voice>1</voice>
    <type>eighth</type>
    <stem>up</stem>
    <staff>1</staff>
    <beam number="1">begin</beam>
   </note>
   <note color="#000000" default-x="148">
    <pitch>
     <step>B</step>
     <alter>-1</alter>
     <octave>3</octave>
    </pitch>
    <duration>128</duration>
    <instrument id="P2-I1" />
    <voice>1</voice>
    <type>eighth</type>
    <accidental>flat</accidental>
    <stem>up</stem>
    <staff>1</staff>
    <beam number="1">end</beam>
   </note>
   <note color="#000000" default-x="193">
    <pitch>
     <step>D</step>
     <octave>3</octave>
    </pitch>
    <duration>256</duration>
    <instrument id="P2-I1" />
    <voice>1</voice>
    <type>quarter</type>
    <stem>down</stem>
    <staff>1</staff>
   </note>
   <note color="#000000" default-x="193">
    <chord />
    <pitch>
     <step>A</step>
     <octave>3</octave>
    </pitch>
    <duration>256</duration>
    <instrument id="P2-I1" />
    <type>quarter</type>
    <staff>1</staff>
   </note>
   <note color="#000000" default-x="254">
    <pitch>
     <step>G</step>
     <octave>2</octave>
    </pitch>
    <duration>256</duration>
    <instrument id="P2-I1" />
    <voice>1</voice>
    <type>quarter</type>
    <stem>down</stem>
    <staff>1</staff>
   </note>
   <note color="#000000" default-x="254">
    <chord />
    <pitch>
     <step>G</step>
     <octave>3</octave>
    </pitch>
    <duration>256</duration>
    <instrument id="P2-I1" />
    <type>quarter</type>
    <staff>1</staff>
   </note>
   <backup>
    <duration>768</duration>
   </backup>
   <note color="#000000" default-x="104">
    <pitch>
     <step>C</step>
     <octave>3</octave>
    </pitch>
    <duration>256</duration>
    <instrument id="P2-I1" />
    <voice>2</voice>
    <type>quarter</type>
    <stem>down</stem>
    <staff>1</staff>
   </note>
  </measure>
  <measure number="7" width="233">
   <note color="#000000" default-x="15">
    <pitch>
     <step>C</step>
     <octave>3</octave>
    </pitch>
    <duration>256</duration>
    <instrument id="P2-I1" />
    <voice>1</voice>
    <type>quarter</type>
    <stem>down</stem>
    <staff>1</staff>
   </note>
   <note color="#000000" default-x="15">
    <chord />
    <pitch>
     <step>A</step>
     <octave>3</octave>
    </pitch>
    <duration>256</duration>
    <instrument id="P2-I1" />
    <type>quarter</type>
    <staff>1</staff>
   </note>
   <note color="#000000" default-x="76">
    <pitch>
     <step>G</step>
     <octave>3</octave>
    </pitch>
    <duration>128</duration>
    <instrument id="P2-I1" />
    <voice>1</voice>
    <type>eighth</type>
    <stem>up</stem>
    <staff>1</staff>
    <beam number="1">begin</beam>
   </note>
   <note color="#000000" default-x="120">
    <pitch>
     <step>F</step>
     <octave>3</octave>
    </pitch>
    <duration>128</duration>
    <instrument id="P2-I1" />
    <voice>1</voice>
    <type>eighth</type>
    <stem>up</stem>
    <staff>1</staff>
    <beam number="1">end</beam>
   </note>
   <note color="#000000" default-x="165">
    <pitch>
     <step>C</step>
     <octave>3</octave>
    </pitch>
    <duration>256</duration>
    <instrument id="P2-I1" />
    <voice>1</voice>
    <type>quarter</type>
    <stem>down</stem>
    <staff>1</staff>
   </note>
   <note color="#000000" default-x="165">
    <chord />
    <pitch>
     <step>G</step>
     <octave>3</octave>
    </pitch>
    <duration>256</duration>
    <instrument id="P2-I1" />
    <type>quarter</type>
    <staff>1</staff>
   </note>
   <barline>
    <bar-style>none</bar-style>
   </barline>
   <backup>
    <duration>512</duration>
   </backup>
   <note color="#000000" default-x="76">
    <pitch>
     <step>C</step>
     <octave>3</octave>
    </pitch>
    <duration>256</duration>
    <instrument id="P2-I1" />
    <voice>2</voice>
    <type>quarter</type>
    <stem>down</stem>
    <staff>1</staff>
   </note>
  </measure>
  <measure number="8" width="135">
   <print new-system="yes">
    <system-layout>
     <system-margins>
      <left-margin>0</left-margin>
      <right-margin>0</right-margin>
     </system-margins>
    </system-layout>
    <staff-layout number="1">
     <staff-distance>237</staff-distance>
    </staff-layout>
   </print>
   <attributes>
    <staff-details number="1" print-object="yes" />
   </attributes>
   <note color="#000000" default-x="57">
    <pitch>
     <step>C</step>
     <octave>3</octave>
    </pitch>
    <duration>256</duration>
    <instrument id="P2-I1" />
    <voice>1</voice>
    <type>quarter</type>
    <stem>down</stem>
    <staff>1</staff>
   </note>
   <note color="#000000" default-x="57">
    <chord />
    <pitch>
     <step>G</step>
     <octave>3</octave>
    </pitch>
    <duration>256</duration>
    <instrument id="P2-I1" />
    <type>quarter</type>
    <staff>1</staff>
   </note>
  </measure>
  <measure number="9" width="262">
   <note color="#000000" default-x="15">
    <pitch>
     <step>C</step>
     <octave>3</octave>
    </pitch>
    <duration>256</duration>
    <instrument id="P2-I1" />
    <voice>1</voice>
    <type>quarter</type>
    <stem>down</stem>
    <staff>1</staff>
   </note>
   <note color="#000000" default-x="15">
    <chord />
    <pitch>
     <step>C</step>
     <octave>4</octave>
    </pitch>
    <duration>256</duration>
    <instrument id="P2-I1" />
    <type>quarter</type>
    <staff>1</staff>
   </note>
   <note color="#000000" default-x="76">
    <pitch>
     <step>C</step>
     <octave>4</octave>
    </pitch>
    <duration>128</duration>
    <instrument id="P2-I1" />
    <voice>1</voice>
    <type>eighth</type>
    <stem>up</stem>
    <staff>1</staff>
    <beam number="1">begin</beam>
   </note>
   <note color="#000000" default-x="115">
    <pitch>
     <step>B</step>
     <octave>3</octave>
    </pitch>
    <duration>128</duration>
    <instrument id="P2-I1" />
    <voice>1</voice>
    <type>eighth</type>
    <stem>up</stem>
    <staff>1</staff>
    <beam number="1">end</beam>
   </note>
   <note color="#000000" default-x="154">
    <pitch>
     <step>C</step>
     <octave>3</octave>
    </pitch>
    <duration>256</duration>
    <instrument id="P2-I1" />
    <voice>1</voice>
    <type>quarter</type>
    <stem>down</stem>
    <staff>1</staff>
   </note>
   <note color="#000000" default-x="154">
    <chord />
    <pitch>
     <step>A</step>
     <octave>3</octave>
    </pitch>
    <duration>256</duration>
    <instrument id="P2-I1" />
    <type>quarter</type>
    <staff>1</staff>
   </note>
   <note color="#000000" default-x="208">
    <pitch>
     <step>C</step>
     <octave>3</octave>
    </pitch>
    <duration>256</duration>
    <instrument id="P2-I1" />
    <voice>1</voice>
    <type>quarter</type>
    <stem>down</stem>
    <staff>1</staff>
   </note>
   <note color="#000000" default-x="208">
    <chord />
    <pitch>
     <step>G</step>
     <octave>3</octave>
    </pitch>
    <duration>256</duration>
    <instrument id="P2-I1" />
    <type>quarter</type>
    <staff>1</staff>
   </note>
   <backup>
    <duration>768</duration>
   </backup>
   <note color="#000000" default-x="76">
    <pitch>
     <step>C</step>
     <octave>3</octave>
    </pitch>
    <duration>256</duration>
    <instrument id="P2-I1" />
    <voice>2</voice>
    <type>quarter</type>
    <stem>down</stem>
    <staff>1</staff>
   </note>
  </measure>
  <measure number="10" width="236">
   <note color="#000000" default-x="15">
    <pitch>
     <step>F</step>
     <octave>3</octave>
    </pitch>
    <duration>256</duration>
    <instrument id="P2-I1" />
    <voice>1</voice>
    <type>quarter</type>
    <stem>up</stem>
    <staff>1</staff>
    <notations>
     <slur color="#000000" type="start" orientation="over" />
    </notations>
   </note>
   <note color="#000000" default-x="69">
    <pitch>
     <step>E</step>
     <octave>3</octave>
    </pitch>
    <duration>512</duration>
    <instrument id="P2-I1" />
    <voice>1</voice>
    <type>half</type>
    <stem>up</stem>
    <staff>1</staff>
    <notations>
     <slur color="#000000" type="stop" orientation="over" />
    </notations>
   </note>
   <note color="#000000" default-x="160">
    <pitch>
     <step>A</step>
     <octave>3</octave>
    </pitch>
    <duration>192</duration>
    <instrument id="P2-I1" />
    <voice>1</voice>
    <type>eighth</type>
    <dot />
    <stem>up</stem>
    <staff>1</staff>
    <beam number="1">begin</beam>
   </note>
   <note color="#000000" default-x="206">
    <pitch>
     <step>B</step>
     <octave>3</octave>
    </pitch>
    <duration>64</duration>
    <instrument id="P2-I1" />
    <voice>1</voice>
    <type>16th</type>
    <stem>up</stem>
    <staff>1</staff>
    <beam number="1">end</beam>
   </note>
   <backup>
    <duration>1024</duration>
   </backup>
   <note color="#000000" default-x="15">
    <pitch>
     <step>C</step>
     <octave>3</octave>
    </pitch>
    <duration>768</duration>
    <instrument id="P2-I1" />
    <voice>2</voice>
    <type>half</type>
    <dot />
    <stem>down</stem>
    <staff>1</staff>
   </note>
   <note color="#000000" default-x="160">
    <pitch>
     <step>F</step>
     <octave>3</octave>
    </pitch>
    <duration>256</duration>
    <instrument id="P2-I1" />
    <voice>2</voice>
    <type>quarter</type>
    <stem>down</stem>
    <staff>1</staff>
   </note>
  </measure>
  <measure number="11" width="285">
   <note color="#000000" default-x="15">
    <pitch>
     <step>E</step>
     <octave>3</octave>
    </pitch>
    <duration>256</duration>
    <instrument id="P2-I1" />
    <voice>1</voice>
    <type>quarter</type>
    <stem>down</stem>
    <staff>1</staff>
   </note>
   <note color="#000000" default-x="15">
    <chord />
    <pitch>
     <step>C</step>
     <octave>4</octave>
    </pitch>
    <duration>256</duration>
    <instrument id="P2-I1" />
    <type>quarter</type>
    <staff>1</staff>
   </note>
   <note color="#000000" default-x="76">
    <pitch>
     <step>E</step>
     <octave>3</octave>
    </pitch>
    <duration>192</duration>
    <instrument id="P2-I1" />
    <voice>1</voice>
    <type>eighth</type>
    <dot />
    <stem>down</stem>
    <staff>1</staff>
    <beam number="1">begin</beam>
   </note>
   <note color="#000000" default-x="76">
    <chord />
    <pitch>
     <step>G</step>
     <octave>3</octave>
    </pitch>
    <duration>128</duration>
    <instrument id="P2-I1" />
    <type>eighth</type>
    <dot />
    <staff>1</staff>
   </note>
   <note color="#000000" default-x="123">
    <pitch>
     <step>F</step>
     <octave>3</octave>
    </pitch>
    <duration>64</duration>
    <instrument id="P2-I1" />
    <voice>1</voice>
    <type>16th</type>
    <stem>down</stem>
    <staff>1</staff>
    <beam number="1">end</beam>
   </note>
   <note color="#000000" default-x="123">
    <chord />
    <pitch>
     <step>A</step>
     <octave>3</octave>
    </pitch>
    <duration>64</duration>
    <instrument id="P2-I1" />
    <type>16th</type>
    <staff>1</staff>
   </note>
   <note color="#000000" default-x="153">
    <pitch>
     <step>G</step>
     <octave>3</octave>
    </pitch>
    <duration>256</duration>
    <instrument id="P2-I1" />
    <voice>1</voice>
    <type>quarter</type>
    <stem>up</stem>
    <staff>1</staff>
   </note>
   <note color="#000000" default-x="206">
    <pitch>
     <step>G</step>
     <octave>3</octave>
    </pitch>
    <duration>128</duration>
    <instrument id="P2-I1" />
    <voice>1</voice>
    <type>eighth</type>
    <stem>up</stem>
    <staff>1</staff>
    <beam number="1">begin</beam>
   </note>
   <note color="#000000" default-x="245">
    <pitch>
     <step>F</step>
     <octave>3</octave>
    </pitch>
    <duration>128</duration>
    <instrument id="P2-I1" />
    <voice>1</voice>
    <type>eighth</type>
    <stem>up</stem>
    <staff>1</staff>
    <beam number="1">end</beam>
   </note>
   <backup>
    <duration>512</duration>
   </backup>
   <note color="#000000" default-x="153">
    <pitch>
     <step>G</step>
     <octave>3</octave>
    </pitch>
    <duration>256</duration>
    <instrument id="P2-I1" />
    <voice>2</voice>
    <type>quarter</type>
    <stem>down</stem>
    <staff>1</staff>
   </note>
   <note color="#000000" default-x="206">
    <pitch>
     <step>G</step>
     <octave>2</octave>
    </pitch>
    <duration>256</duration>
    <instrument id="P2-I1" />
    <voice>2</voice>
    <type>quarter</type>
    <stem>down</stem>
    <staff>1</staff>
   </note>
  </measure>
  <measure number="12" width="139">
   <note color="#000000" default-x="15">
    <pitch>
     <step>C</step>
     <octave>3</octave>
    </pitch>
    <duration>768</duration>
    <instrument id="P2-I1" />
    <voice>1</voice>
    <type>half</type>
    <dot />
    <stem>down</stem>
    <staff>1</staff>
   </note>
   <note color="#000000" default-x="15">
    <chord />
    <pitch>
     <step>E</step>
     <octave>3</octave>
    </pitch>
    <duration>512</duration>
    <instrument id="P2-I1" />
    <type>half</type>
    <dot />
    <staff>1</staff>
   </note>
   <barline>
    <bar-style>light-heavy</bar-style>
   </barline>
  </measure>
 </part>
</score-partwise>
