<?xml version="1.0" encoding="UTF-8" standalone="no"?>
<!DOCTYPE score-partwise PUBLIC "-//Recordare//DTD MusicXML 2.0 Partwise//EN" "http://www.musicxml.org/dtds/partwise.dtd">
<score-partwise version="2.0">
	<work>
		<work-title>Let the song go round the earth</work-title>
	</work>
	<identification>
		<creator type="composer">Heaven
75.75.77</creator>
		<creator type="poet">B.L. Selby, 1853-1919</creator>
		<encoding>
			<software>PDFtoMusic Pro v1.6.5 Build 1B9E7 (c) Myriad - http://www.myriad-online.com</software>
			<?PDFtoMusic Document type 0100- 00000000?>
			<supports attribute="new-system" element="print" type="yes" value="yes"/>
			<supports attribute="new-page" element="print" type="yes" value="yes"/>
		</encoding>
	</identification>
	<defaults>
		<scaling>
			<millimeters>7.111990</millimeters>
			<tenths>40</tenths>
		</scaling>
		<page-layout>
			<page-height>1571.431</page-height>
			<page-width>1214.287</page-width>
			<page-margins type="both">
				<left-margin>56.243</left-margin>
				<right-margin>56.243</right-margin>
				<top-margin>56.243</top-margin>
				 <bottom-margin>56.243</bottom-margin>
			</page-margins>
		</page-layout>
		<appearance>
			<line-width type="stem">0.2381</line-width>
			<line-width type="staff">0.7143</line-width>
			<line-width type="light barline">0.3637</line-width>
			<line-width type="heavy barline">3.3333</line-width>
			<line-width type="leger">0.7143</line-width>
		</appearance>
	</defaults>
	<credit page="1">
		<credit-words  default-x="71.191" default-y="1442.144" justify="left" valign="baseline" font-family="Times New Roman" font-size="10" font-weight="normal" font-style="normal">B.L. Selby, 1853-1919</credit-words>
	</credit>
	<credit page="1">
		<credit-words  default-x="255.953" default-y="423.810" justify="left" valign="baseline" font-family="Times New Roman" font-size="11" font-weight="bold" font-style="normal">Let the song go round the earth,
From the eastern sea,
Where the daylight has its birth,
Glad, and bright, and free;
China's millions join the strains,
Waft them on to India's plains.</credit-words>
	</credit>
	<credit page="1">
		<credit-words  default-x="255.953" default-y="269.524" justify="left" valign="baseline" font-family="Times New Roman" font-size="11" font-weight="bold" font-style="normal">Let the song go round the earth,
Lands where Islam's sway
Darkly broods o'er home and hearth,
Cast their bonds away;
Let His praise from Afric's shore
Rise and swell her wide lands o'er.</credit-words>
	</credit>
	<credit page="1">
		<credit-words  default-x="366.429" default-y="1484.525" justify="left" valign="baseline" font-family="Times New Roman" font-size="18" font-weight="bold" font-style="normal">Let the song go round the earth</credit-words>
	</credit>
	<credit page="1">
		<credit-words  default-x="492.858" default-y="100.000" justify="left" valign="baseline" font-family="Times New Roman" font-size="10" font-weight="normal" font-style="normal">www.smallchurchmusic.com</credit-words>
	</credit>
	<credit page="1">
		<credit-words  default-x="708.334" default-y="425.000" justify="left" valign="baseline" font-family="Times New Roman" font-size="11" font-weight="bold" font-style="normal">Let the song go round the earth,
Jesus Christ is King!
With the story of His worth
Let the whole world ring;
Him creation all adore
Evermore and evermore.</credit-words>
	</credit>
	<credit page="1">
		<credit-words  default-x="863.334" default-y="240.000" justify="left" valign="baseline" font-family="Times New Roman" font-size="10" font-weight="normal" font-style="normal">Sarah G. Stock</credit-words>
	</credit>
	<credit page="1">
		<credit-words  default-x="1072.382" default-y="1448.096" justify="left" valign="baseline" font-family="Times New Roman" font-size="10" font-weight="normal" font-style="normal">Heaven
75.75.77</credit-words>
	</credit>
	<part-list>
		<score-part id="P1">
			<part-name></part-name>
			<score-instrument id="P1-I1">
				<instrument-name>Instrument 1</instrument-name>
			</score-instrument>
			<midi-instrument id="P1-I1">
				<midi-channel>1</midi-channel>
				<midi-bank>1</midi-bank>
				<midi-program>1</midi-program>
				<volume>50</volume>
				<pan>0</pan>
				<elevation>0</elevation>
				<?Myriad
				<iddigit>0</iddigit>
				?>
			</midi-instrument>
		</score-part>
	</part-list>
	<part id="P1">
		<!--==========================[1,1]=============================-->
		<measure number="1" width="206">
			<print new-page="yes">
				<system-layout>
					<system-margins>
						<left-margin>28.400</left-margin>
						<right-margin>14.881</right-margin>
					</system-margins>
					<top-system-distance>101.733</top-system-distance>
				</system-layout>
				<staff-layout number="2">
					<staff-distance>91.905</staff-distance>
				</staff-layout>
			</print>
			<attributes>
				<divisions>6720</divisions>
				<key>
					<fifths>-2</fifths>
					<mode>major</mode>
				</key>
				<staves>2</staves>
				<clef number="1">
					<sign>G</sign>
					<line>2</line>
				</clef>
				<clef number="2">
					<sign>F</sign>
					<line>4</line>
				</clef>
				<staff-details number="1" print-object="yes">
					<staff-lines>5</staff-lines>
					<staff-size>100.00</staff-size>
				</staff-details>
				<staff-details number="2" print-object="yes">
					<staff-lines>5</staff-lines>
					<staff-size>100.00</staff-size>
				</staff-details>
			</attributes>
			<note>
				<pitch>
					<step>D</step>
					<octave>3</octave>
				</pitch>
				<duration>13440</duration>
				<voice>4</voice>
				<type>half</type>
				<stem default-y="-50.24">down</stem>
				<staff>2</staff>
			</note>
			<note>
				<pitch>
					<step>C</step>
					<octave>3</octave>
				</pitch>
				<duration>13440</duration>
				<voice>4</voice>
				<type>half</type>
				<stem default-y="-55.24">down</stem>
				<staff>2</staff>
			</note>
			<note>
				<chord/>
				<pitch>
					<step>E</step>
					<alter>-1</alter>
					<octave>3</octave>
				</pitch>
				<duration>13440</duration>
				<voice>4</voice>
				<type>half</type>
				<stem default-y="-55.24">down</stem>
				<staff>2</staff>
			</note>
			<backup>
				<duration>26880</duration>
			</backup>
			<note>
				<pitch>
					<step>B</step>
					<alter>-1</alter>
					<octave>3</octave>
				</pitch>
				<duration>13440</duration>
				<voice>1</voice>
				<type>half</type>
				<stem default-y="0.00">up</stem>
				<staff>1</staff>
			</note>
			<note>
				<chord/>
				<pitch>
					<step>F</step>
					<octave>4</octave>
				</pitch>
				<duration>13440</duration>
				<voice>1</voice>
				<type>half</type>
				<stem default-y="0.00">up</stem>
				<staff>1</staff>
			</note>
			<note>
				<pitch>
					<step>A</step>
					<octave>3</octave>
				</pitch>
				<duration>6720</duration>
				<voice>2</voice>
				<type>quarter</type>
				<stem default-y="-85.24">down</stem>
				<staff>1</staff>
			</note>
			<backup>
				<duration>6720</duration>
			</backup>
			<note>
				<pitch>
					<step>E</step>
					<alter>-1</alter>
					<octave>4</octave>
				</pitch>
				<duration>13440</duration>
				<voice>1</voice>
				<type>half</type>
				<stem default-y="-5.00">up</stem>
				<staff>1</staff>
			</note>
			<backup>
				<duration>6720</duration>
			</backup>
			<note>
				<pitch>
					<step>B</step>
					<alter>-1</alter>
					<octave>3</octave>
				</pitch>
				<duration>6720</duration>
				<voice>2</voice>
				<type>quarter</type>
				<stem default-y="-80.24">down</stem>
				<staff>1</staff>
			</note>
		</measure>
		<!--==========================[1,2]=============================-->
		<measure number="2" width="225">
			<note>
				<pitch>
					<step>B</step>
					<alter>-1</alter>
					<octave>2</octave>
				</pitch>
				<duration>13440</duration>
				<voice>4</voice>
				<type>half</type>
				<stem default-y="-55.24">down</stem>
				<staff>2</staff>
			</note>
			<note>
				<chord/>
				<pitch>
					<step>F</step>
					<octave>3</octave>
				</pitch>
				<duration>13440</duration>
				<voice>4</voice>
				<type>half</type>
				<stem default-y="-55.24">down</stem>
				<staff>2</staff>
			</note>
			<note>
				<pitch>
					<step>C</step>
					<octave>3</octave>
				</pitch>
				<duration>13440</duration>
				<voice>4</voice>
				<type>half</type>
				<stem default-y="-55.24">down</stem>
				<staff>2</staff>
			</note>
			<note>
				<chord/>
				<pitch>
					<step>F</step>
					<octave>3</octave>
				</pitch>
				<duration>13440</duration>
				<voice>4</voice>
				<type>half</type>
				<stem default-y="-55.24">down</stem>
				<staff>2</staff>
			</note>
			<note>
				<pitch>
					<step>F</step>
					<octave>3</octave>
				</pitch>
				<duration>13440</duration>
				<voice>4</voice>
				<type>half</type>
				<stem default-y="-50.24">down</stem>
				<staff>2</staff>
			</note>
			<note>
				<chord/>
				<pitch>
					<step>D</step>
					<octave>3</octave>
				</pitch>
				<duration>13440</duration>
				<voice>4</voice>
				<type>half</type>
				<stem default-y="-50.24">down</stem>
				<staff>2</staff>
			</note>
			<note>
				<pitch>
					<step>F</step>
					<alter>1</alter>
					<octave>3</octave>
				</pitch>
				<duration>13440</duration>
				<voice>4</voice>
				<type>half</type>
				<accidental>sharp</accidental>
				<stem default-y="-50.24">down</stem>
				<staff>2</staff>
			</note>
			<note>
				<chord/>
				<pitch>
					<step>D</step>
					<octave>3</octave>
				</pitch>
				<duration>13440</duration>
				<voice>4</voice>
				<type>half</type>
				<stem default-y="-50.24">down</stem>
				<staff>2</staff>
			</note>
			<backup>
				<duration>53760</duration>
			</backup>
			<note>
				<pitch>
					<step>B</step>
					<alter>-1</alter>
					<octave>3</octave>
				</pitch>
				<duration>13440</duration>
				<voice>1</voice>
				<type>half</type>
				<stem default-y="-10.00">up</stem>
				<staff>1</staff>
			</note>
			<note>
				<chord/>
				<pitch>
					<step>D</step>
					<octave>4</octave>
				</pitch>
				<duration>13440</duration>
				<voice>1</voice>
				<type>half</type>
				<stem default-y="-10.00">up</stem>
				<staff>1</staff>
			</note>
			<note>
				<pitch>
					<step>A</step>
					<octave>3</octave>
				</pitch>
				<duration>13440</duration>
				<voice>1</voice>
				<type>half</type>
				<stem default-y="0.00">up</stem>
				<staff>1</staff>
			</note>
			<note>
				<chord/>
				<pitch>
					<step>F</step>
					<octave>4</octave>
				</pitch>
				<duration>13440</duration>
				<voice>1</voice>
				<type>half</type>
				<stem default-y="0.00">up</stem>
				<staff>1</staff>
			</note>
			<note>
				<pitch>
					<step>B</step>
					<alter>-1</alter>
					<octave>4</octave>
				</pitch>
				<duration>13440</duration>
				<voice>1</voice>
				<type>half</type>
				<stem default-y="14.86">up</stem>
				<staff>1</staff>
			</note>
			<note>
				<chord/>
				<pitch>
					<step>B</step>
					<alter>-1</alter>
					<octave>3</octave>
				</pitch>
				<duration>13440</duration>
				<voice>1</voice>
				<type>half</type>
				<stem default-y="10.00">up</stem>
				<staff>1</staff>
			</note>
			<note>
				<pitch>
					<step>A</step>
					<octave>4</octave>
				</pitch>
				<duration>13440</duration>
				<voice>1</voice>
				<type>half</type>
				<stem default-y="10.00">up</stem>
				<staff>1</staff>
			</note>
			<note>
				<chord/>
				<pitch>
					<step>C</step>
					<octave>4</octave>
				</pitch>
				<duration>13440</duration>
				<voice>1</voice>
				<type>half</type>
				<stem default-y="10.00">up</stem>
				<staff>1</staff>
			</note>
		</measure>
		<!--==========================[1,3]=============================-->
		<measure number="3" width="201">
			<note>
				<pitch>
					<step>E</step>
					<alter>-1</alter>
					<octave>3</octave>
				</pitch>
				<duration>26880</duration>
				<voice>4</voice>
				<type>whole</type>
				<stem>none</stem>
				<staff>2</staff>
			</note>
			<note>
				<chord/>
				<pitch>
					<step>G</step>
					<octave>3</octave>
				</pitch>
				<duration>26880</duration>
				<voice>4</voice>
				<type>whole</type>
				<stem>none</stem>
				<staff>2</staff>
			</note>
			<note>
				<pitch>
					<step>C</step>
					<octave>4</octave>
				</pitch>
				<duration>13440</duration>
				<voice>4</voice>
				<type>half</type>
				<stem default-y="-50.24">down</stem>
				<staff>2</staff>
			</note>
			<note>
				<chord/>
				<pitch>
					<step>E</step>
					<alter>-1</alter>
					<octave>3</octave>
				</pitch>
				<duration>13440</duration>
				<voice>4</voice>
				<type>half</type>
				<stem default-y="-50.24">down</stem>
				<staff>2</staff>
			</note>
			<note>
				<pitch>
					<step>D</step>
					<octave>4</octave>
				</pitch>
				<duration>13440</duration>
				<voice>4</voice>
				<type>half</type>
				<stem default-y="-50.24">down</stem>
				<staff>2</staff>
			</note>
			<note>
				<chord/>
				<pitch>
					<step>D</step>
					<octave>3</octave>
				</pitch>
				<duration>13440</duration>
				<voice>4</voice>
				<type>half</type>
				<stem default-y="-52.52">down</stem>
				<staff>2</staff>
			</note>
			<backup>
				<duration>53760</duration>
			</backup>
			<note>
				<pitch>
					<step>B</step>
					<alter>-1</alter>
					<octave>3</octave>
				</pitch>
				<duration>26880</duration>
				<voice>1</voice>
				<type>whole</type>
				<stem>none</stem>
				<staff>1</staff>
			</note>
			<note>
				<chord/>
				<pitch>
					<step>G</step>
					<octave>4</octave>
				</pitch>
				<duration>26880</duration>
				<voice>1</voice>
				<type>whole</type>
				<stem>none</stem>
				<staff>1</staff>
			</note>
			<note>
				<pitch>
					<step>A</step>
					<octave>4</octave>
				</pitch>
				<duration>13440</duration>
				<voice>1</voice>
				<type>half</type>
				<stem default-y="10.00">up</stem>
				<staff>1</staff>
			</note>
			<note>
				<chord/>
				<pitch>
					<step>F</step>
					<octave>4</octave>
				</pitch>
				<duration>13440</duration>
				<voice>1</voice>
				<type>half</type>
				<stem default-y="10.00">up</stem>
				<staff>1</staff>
			</note>
			<note>
				<pitch>
					<step>F</step>
					<octave>4</octave>
				</pitch>
				<duration>13440</duration>
				<voice>1</voice>
				<type>half</type>
				<stem default-y="10.00">up</stem>
				<staff>1</staff>
			</note>
			<note>
				<chord/>
				<pitch>
					<step>B</step>
					<alter>-1</alter>
					<octave>4</octave>
				</pitch>
				<duration>13440</duration>
				<voice>1</voice>
				<type>half</type>
				<stem default-y="10.00">up</stem>
				<staff>1</staff>
			</note>
		</measure>
		<!--==========================[1,4]=============================-->
		<measure number="4" width="197">
			<note>
				<pitch>
					<step>F</step>
					<octave>4</octave>
				</pitch>
				<duration>40320</duration>
				<voice>2</voice>
				<type>whole</type>
				<dot/>
				<stem>none</stem>
				<staff>1</staff>
			</note>
			<backup>
				<duration>40320</duration>
			</backup>
			<note>
				<pitch>
					<step>D</step>
					<octave>5</octave>
				</pitch>
				<duration>26880</duration>
				<voice>1</voice>
				<type>whole</type>
				<stem>none</stem>
				<staff>1</staff>
			</note>
			<note>
				<pitch>
					<step>C</step>
					<octave>5</octave>
				</pitch>
				<duration>26880</duration>
				<voice>1</voice>
				<type>whole</type>
				<stem>none</stem>
				<staff>1</staff>
			</note>
			<backup>
				<duration>13440</duration>
			</backup>
			<note>
				<pitch>
					<step>E</step>
					<alter>-1</alter>
					<octave>4</octave>
				</pitch>
				<duration>13440</duration>
				<voice>2</voice>
				<type>half</type>
				<stem default-y="-65.24">down</stem>
				<staff>1</staff>
			</note>
			<backup>
				<duration>53760</duration>
			</backup>
			<note>
				<pitch>
					<step>F</step>
					<octave>3</octave>
				</pitch>
				<duration>26880</duration>
				<voice>4</voice>
				<type>whole</type>
				<stem>none</stem>
				<staff>2</staff>
			</note>
			<backup>
				<duration>26880</duration>
			</backup>
			<note>
				<pitch>
					<step>B</step>
					<alter>-1</alter>
					<octave>3</octave>
				</pitch>
				<duration>26880</duration>
				<voice>5</voice>
				<type>whole</type>
				<stem>none</stem>
				<staff>2</staff>
			</note>
			<note>
				<pitch>
					<step>F</step>
					<octave>2</octave>
				</pitch>
				<duration>26880</duration>
				<voice>5</voice>
				<type>whole</type>
				<stem>none</stem>
				<staff>2</staff>
			</note>
			<backup>
				<duration>26880</duration>
			</backup>
			<note>
				<pitch>
					<step>G</step>
					<octave>3</octave>
				</pitch>
				<duration>13440</duration>
				<voice>4</voice>
				<type>half</type>
				<stem default-y="20.00">up</stem>
				<staff>2</staff>
			</note>
			<note>
				<pitch>
					<step>A</step>
					<octave>3</octave>
				</pitch>
				<duration>13440</duration>
				<voice>4</voice>
				<type>half</type>
				<stem default-y="25.00">up</stem>
				<staff>2</staff>
			</note>
		</measure>
		<!--==========================[1,5]=============================-->
		<measure number="5" width="226">
			<note>
				<pitch>
					<step>B</step>
					<alter>-1</alter>
					<octave>2</octave>
				</pitch>
				<duration>26880</duration>
				<voice>1</voice>
				<type>whole</type>
				<stem>none</stem>
				<staff>2</staff>
			</note>
			<note>
				<chord/>
				<pitch>
					<step>B</step>
					<alter>-1</alter>
					<octave>3</octave>
				</pitch>
				<duration>26880</duration>
				<voice>1</voice>
				<type>whole</type>
				<stem>none</stem>
				<staff>2</staff>
			</note>
			<note>
				<pitch>
					<step>B</step>
					<alter>-1</alter>
					<octave>2</octave>
				</pitch>
				<duration>13440</duration>
				<voice>3</voice>
				<type>half</type>
				<stem default-y="-55.24">down</stem>
				<staff>2</staff>
			</note>
			<backup>
				<duration>13440</duration>
			</backup>
			<note>
				<pitch>
					<step>B</step>
					<alter>-1</alter>
					<octave>3</octave>
				</pitch>
				<duration>6720</duration>
				<voice>2</voice>
				<type>quarter</type>
				<stem default-y="30.00">up</stem>
				<staff>2</staff>
			</note>
			<forward>
				<duration>6720</duration>
			</forward>
			<note>
				<pitch>
					<step>A</step>
					<alter>-1</alter>
					<octave>3</octave>
				</pitch>
				<duration>6720</duration>
				<voice>1</voice>
				<type>quarter</type>
				<accidental>flat</accidental>
				<stem default-y="25.00">up</stem>
				<staff>2</staff>
			</note>
			<note>
				<pitch>
					<step>E</step>
					<alter>-1</alter>
					<octave>3</octave>
				</pitch>
				<duration>13440</duration>
				<voice>1</voice>
				<type>half</type>
				<stem default-y="-50.24">down</stem>
				<staff>2</staff>
			</note>
			<note>
				<chord/>
				<pitch>
					<step>G</step>
					<octave>3</octave>
				</pitch>
				<duration>13440</duration>
				<voice>1</voice>
				<type>half</type>
				<stem default-y="-50.24">down</stem>
				<staff>2</staff>
			</note>
			<backup>
				<duration>60480</duration>
			</backup>
			<note>
				<pitch>
					<step>D</step>
					<octave>4</octave>
				</pitch>
				<duration>26880</duration>
				<voice>2</voice>
				<type>whole</type>
				<stem>none</stem>
				<staff>1</staff>
			</note>
			<backup>
				<duration>26880</duration>
			</backup>
			<note>
				<pitch>
					<step>B</step>
					<alter>-1</alter>
					<octave>4</octave>
				</pitch>
				<duration>26880</duration>
				<voice>3</voice>
				<type>whole</type>
				<stem>none</stem>
				<staff>1</staff>
			</note>
			<note>
				<pitch>
					<step>D</step>
					<octave>4</octave>
				</pitch>
				<duration>13440</duration>
				<voice>1</voice>
				<type>half</type>
				<stem default-y="0.00">up</stem>
				<staff>1</staff>
			</note>
			<note>
				<chord/>
				<pitch>
					<step>F</step>
					<octave>4</octave>
				</pitch>
				<duration>13440</duration>
				<voice>1</voice>
				<type>half</type>
				<stem default-y="0.00">up</stem>
				<staff>1</staff>
			</note>
			<forward>
				<duration>6720</duration>
			</forward>
			<note>
				<pitch>
					<step>E</step>
					<alter>-1</alter>
					<octave>4</octave>
				</pitch>
				<duration>13440</duration>
				<voice>2</voice>
				<type>half</type>
				<stem default-y="-5.00">up</stem>
				<staff>1</staff>
			</note>
			<note>
				<chord/>
				<pitch>
					<step>C</step>
					<octave>4</octave>
				</pitch>
				<duration>13440</duration>
				<voice>2</voice>
				<type>half</type>
				<stem default-y="-5.00">up</stem>
				<staff>1</staff>
			</note>
		</measure>
		<!--==========================[1,6]=============================-->
		<measure number="6" width="322">
			<print new-system="yes">
				<system-layout>
					<system-margins>
						<left-margin>28.400</left-margin>
						<right-margin>14.881</right-margin>
					</system-margins>
					<system-distance>121.429</system-distance>
				</system-layout>
				<staff-layout number="2">
					<staff-distance>82.619</staff-distance>
				</staff-layout>
			</print>
			<attributes>
				<staff-details number="1" print-object="yes">
				</staff-details>
				<staff-details number="2" print-object="yes">
				</staff-details>
			</attributes>
			<note>
				<pitch>
					<step>D</step>
					<octave>3</octave>
				</pitch>
				<duration>13440</duration>
				<voice>4</voice>
				<type>half</type>
				<stem default-y="-50.24">down</stem>
				<staff>2</staff>
			</note>
			<note>
				<chord/>
				<pitch>
					<step>F</step>
					<alter>1</alter>
					<octave>3</octave>
				</pitch>
				<duration>13440</duration>
				<voice>4</voice>
				<type>half</type>
				<accidental>sharp</accidental>
				<stem default-y="-50.24">down</stem>
				<staff>2</staff>
			</note>
			<note>
				<pitch>
					<step>B</step>
					<alter>-1</alter>
					<octave>2</octave>
				</pitch>
				<duration>13440</duration>
				<voice>4</voice>
				<type>half</type>
				<stem default-y="-55.24">down</stem>
				<staff>2</staff>
			</note>
			<note>
				<chord/>
				<pitch>
					<step>G</step>
					<octave>3</octave>
				</pitch>
				<duration>13440</duration>
				<voice>4</voice>
				<type>half</type>
				<stem default-y="-55.24">down</stem>
				<staff>2</staff>
			</note>
			<note>
				<pitch>
					<step>G</step>
					<octave>3</octave>
				</pitch>
				<duration>13440</duration>
				<voice>4</voice>
				<type>half</type>
				<stem default-y="-55.24">down</stem>
				<staff>2</staff>
			</note>
			<note>
				<chord/>
				<pitch>
					<step>C</step>
					<octave>3</octave>
				</pitch>
				<duration>13440</duration>
				<voice>4</voice>
				<type>half</type>
				<stem default-y="-55.24">down</stem>
				<staff>2</staff>
			</note>
			<note>
				<pitch>
					<step>F</step>
					<alter>1</alter>
					<octave>3</octave>
				</pitch>
				<duration>13440</duration>
				<voice>4</voice>
				<type>half</type>
				<stem default-y="-50.24">down</stem>
				<staff>2</staff>
			</note>
			<note>
				<chord/>
				<pitch>
					<step>D</step>
					<octave>3</octave>
				</pitch>
				<duration>13440</duration>
				<voice>4</voice>
				<type>half</type>
				<stem default-y="-50.24">down</stem>
				<staff>2</staff>
			</note>
			<backup>
				<duration>53760</duration>
			</backup>
			<note>
				<pitch>
					<step>A</step>
					<octave>3</octave>
				</pitch>
				<duration>13440</duration>
				<voice>1</voice>
				<type>half</type>
				<stem default-y="-10.00">up</stem>
				<staff>1</staff>
			</note>
			<note>
				<chord/>
				<pitch>
					<step>D</step>
					<octave>4</octave>
				</pitch>
				<duration>13440</duration>
				<voice>1</voice>
				<type>half</type>
				<stem default-y="-10.00">up</stem>
				<staff>1</staff>
			</note>
			<note>
				<pitch>
					<step>D</step>
					<octave>4</octave>
				</pitch>
				<duration>13440</duration>
				<voice>1</voice>
				<type>half</type>
				<stem default-y="5.00">up</stem>
				<staff>1</staff>
			</note>
			<note>
				<chord/>
				<pitch>
					<step>G</step>
					<octave>4</octave>
				</pitch>
				<duration>13440</duration>
				<voice>1</voice>
				<type>half</type>
				<stem default-y="5.00">up</stem>
				<staff>1</staff>
			</note>
			<note>
				<pitch>
					<step>E</step>
					<alter>-1</alter>
					<octave>4</octave>
				</pitch>
				<duration>13440</duration>
				<voice>1</voice>
				<type>half</type>
				<stem default-y="10.00">up</stem>
				<staff>1</staff>
			</note>
			<note>
				<chord/>
				<pitch>
					<step>B</step>
					<alter>-1</alter>
					<octave>4</octave>
				</pitch>
				<duration>13440</duration>
				<voice>1</voice>
				<type>half</type>
				<stem default-y="10.00">up</stem>
				<staff>1</staff>
			</note>
			<note>
				<pitch>
					<step>A</step>
					<octave>4</octave>
				</pitch>
				<duration>13440</duration>
				<voice>1</voice>
				<type>half</type>
				<stem default-y="10.00">up</stem>
				<staff>1</staff>
			</note>
			<note>
				<chord/>
				<pitch>
					<step>C</step>
					<octave>4</octave>
				</pitch>
				<duration>13440</duration>
				<voice>1</voice>
				<type>half</type>
				<stem default-y="10.00">up</stem>
				<staff>1</staff>
			</note>
		</measure>
		<!--==========================[1,7]=============================-->
		<measure number="7" width="254">
			<note>
				<pitch>
					<step>G</step>
					<octave>2</octave>
				</pitch>
				<duration>26880</duration>
				<voice>5</voice>
				<type>whole</type>
				<stem>none</stem>
				<staff>2</staff>
			</note>
			<backup>
				<duration>26880</duration>
			</backup>
			<note>
				<pitch>
					<step>G</step>
					<octave>3</octave>
				</pitch>
				<duration>13440</duration>
				<voice>4</voice>
				<type>half</type>
				<stem default-y="20.00">up</stem>
				<staff>2</staff>
			</note>
			<note>
				<pitch>
					<step>B</step>
					<alter>-1</alter>
					<octave>3</octave>
				</pitch>
				<duration>13440</duration>
				<voice>4</voice>
				<type>half</type>
				<stem default-y="30.00">up</stem>
				<staff>2</staff>
			</note>
			<note>
				<pitch>
					<step>A</step>
					<octave>3</octave>
				</pitch>
				<duration>13440</duration>
				<voice>4</voice>
				<type>half</type>
				<stem default-y="44.86">up</stem>
				<staff>2</staff>
			</note>
			<note>
				<chord/>
				<pitch>
					<step>F</step>
					<octave>2</octave>
				</pitch>
				<duration>13440</duration>
				<voice>4</voice>
				<type>half</type>
				<accidental editorial="yes">natural</accidental>
				<stem default-y="25.00">up</stem>
				<staff>2</staff>
			</note>
			<note>
				<pitch>
					<step>G</step>
					<octave>3</octave>
				</pitch>
				<duration>13440</duration>
				<voice>4</voice>
				<type>half</type>
				<stem default-y="39.86">up</stem>
				<staff>2</staff>
			</note>
			<note>
				<chord/>
				<pitch>
					<step>E</step>
					<octave>2</octave>
				</pitch>
				<duration>13440</duration>
				<voice>4</voice>
				<type>half</type>
				<accidental>natural</accidental>
				<stem default-y="20.00">up</stem>
				<staff>2</staff>
			</note>
			<backup>
				<duration>53760</duration>
			</backup>
			<note>
				<pitch>
					<step>B</step>
					<alter>-1</alter>
					<octave>3</octave>
				</pitch>
				<duration>26880</duration>
				<voice>1</voice>
				<type>whole</type>
				<stem>none</stem>
				<staff>1</staff>
			</note>
			<note>
				<chord/>
				<pitch>
					<step>G</step>
					<octave>4</octave>
				</pitch>
				<duration>26880</duration>
				<voice>1</voice>
				<type>whole</type>
				<stem>none</stem>
				<staff>1</staff>
			</note>
			<note>
				<pitch>
					<step>D</step>
					<octave>4</octave>
				</pitch>
				<duration>13440</duration>
				<voice>1</voice>
				<type>half</type>
				<stem default-y="10.00">up</stem>
				<staff>1</staff>
			</note>
			<note>
				<chord/>
				<pitch>
					<step>A</step>
					<octave>4</octave>
				</pitch>
				<duration>13440</duration>
				<voice>1</voice>
				<type>half</type>
				<stem default-y="10.00">up</stem>
				<staff>1</staff>
			</note>
			<note>
				<pitch>
					<step>B</step>
					<alter>-1</alter>
					<octave>4</octave>
				</pitch>
				<duration>13440</duration>
				<voice>1</voice>
				<type>half</type>
				<stem default-y="10.00">up</stem>
				<staff>1</staff>
			</note>
			<note>
				<chord/>
				<pitch>
					<step>C</step>
					<alter>1</alter>
					<octave>4</octave>
				</pitch>
				<duration>13440</duration>
				<voice>1</voice>
				<type>half</type>
				<accidental>sharp</accidental>
				<stem default-y="10.00">up</stem>
				<staff>1</staff>
			</note>
		</measure>
		<!--==========================[1,8]=============================-->
		<measure number="8" width="250">
			<note>
				<pitch>
					<step>F</step>
					<octave>2</octave>
				</pitch>
				<duration>13440</duration>
				<voice>4</voice>
				<type>half</type>
				<stem default-y="-70.24">down</stem>
				<staff>2</staff>
			</note>
			<backup>
				<duration>13440</duration>
			</backup>
			<note>
				<pitch>
					<step>A</step>
					<octave>3</octave>
				</pitch>
				<duration>26880</duration>
				<voice>5</voice>
				<type>whole</type>
				<stem>none</stem>
				<staff>2</staff>
			</note>
			<backup>
				<duration>13440</duration>
			</backup>
			<note>
				<pitch>
					<step>G</step>
					<octave>2</octave>
				</pitch>
				<duration>13440</duration>
				<voice>4</voice>
				<type>half</type>
				<stem default-y="-65.24">down</stem>
				<staff>2</staff>
			</note>
			<note>
				<pitch>
					<step>G</step>
					<octave>3</octave>
				</pitch>
				<duration>26880</duration>
				<voice>4</voice>
				<type>whole</type>
				<stem>none</stem>
				<staff>2</staff>
			</note>
			<backup>
				<duration>26880</duration>
			</backup>
			<note>
				<pitch>
					<step>A</step>
					<octave>2</octave>
				</pitch>
				<duration>26880</duration>
				<voice>5</voice>
				<type>whole</type>
				<stem>none</stem>
				<staff>2</staff>
			</note>
			<backup>
				<duration>53760</duration>
			</backup>
			<note>
				<pitch>
					<step>D</step>
					<octave>4</octave>
				</pitch>
				<duration>26880</duration>
				<voice>1</voice>
				<type>whole</type>
				<stem>none</stem>
				<staff>1</staff>
			</note>
			<note>
				<chord/>
				<pitch>
					<step>A</step>
					<octave>4</octave>
				</pitch>
				<duration>26880</duration>
				<voice>1</voice>
				<type>whole</type>
				<stem>none</stem>
				<staff>1</staff>
			</note>
			<note>
				<pitch>
					<step>E</step>
					<octave>4</octave>
				</pitch>
				<duration>26880</duration>
				<voice>1</voice>
				<type>whole</type>
				<accidental>natural</accidental>
				<stem>none</stem>
				<staff>1</staff>
			</note>
			<note>
				<pitch>
					<step>D</step>
					<octave>4</octave>
				</pitch>
				<duration>13440</duration>
				<voice>1</voice>
				<type>half</type>
				<stem default-y="-70.24">down</stem>
				<staff>1</staff>
			</note>
			<note>
				<pitch>
					<step>C</step>
					<alter>1</alter>
					<octave>4</octave>
				</pitch>
				<duration>13440</duration>
				<voice>1</voice>
				<type>half</type>
				<accidental>sharp</accidental>
				<stem default-y="-75.24">down</stem>
				<staff>1</staff>
			</note>
		</measure>
		<!--==========================[1,9]=============================-->
		<measure number="9" width="230">
			<note>
				<pitch>
					<step>D</step>
					<octave>3</octave>
				</pitch>
				<duration>26880</duration>
				<voice>4</voice>
				<type>whole</type>
				<stem>none</stem>
				<staff>2</staff>
			</note>
			<note>
				<chord/>
				<pitch>
					<step>F</step>
					<octave>3</octave>
				</pitch>
				<duration>26880</duration>
				<voice>4</voice>
				<type>whole</type>
				<stem>none</stem>
				<staff>2</staff>
			</note>
			<note>
				<pitch>
					<step>G</step>
					<octave>3</octave>
				</pitch>
				<duration>13440</duration>
				<voice>4</voice>
				<type>half</type>
				<stem default-y="-40.24">down</stem>
				<staff>2</staff>
			</note>
			<note>
				<pitch>
					<step>F</step>
					<octave>3</octave>
				</pitch>
				<duration>13440</duration>
				<voice>4</voice>
				<type>half</type>
				<stem default-y="-45.24">down</stem>
				<staff>2</staff>
			</note>
			<note>
				<chord/>
				<pitch>
					<step>G</step>
					<octave>3</octave>
				</pitch>
				<duration>13440</duration>
				<voice>4</voice>
				<type>half</type>
				<stem default-y="-45.24">down</stem>
				<staff>2</staff>
			</note>
			<backup>
				<duration>53760</duration>
			</backup>
			<note>
				<pitch>
					<step>D</step>
					<octave>4</octave>
				</pitch>
				<duration>26880</duration>
				<voice>1</voice>
				<type>whole</type>
				<stem>none</stem>
				<staff>1</staff>
			</note>
			<note>
				<pitch>
					<step>B</step>
					<octave>3</octave>
				</pitch>
				<duration>13440</duration>
				<voice>1</voice>
				<type>half</type>
				<accidental>natural</accidental>
				<stem default-y="-5.00">up</stem>
				<staff>1</staff>
			</note>
			<note>
				<chord/>
				<pitch>
					<step>E</step>
					<alter>-1</alter>
					<octave>4</octave>
				</pitch>
				<duration>13440</duration>
				<voice>1</voice>
				<type>half</type>
				<accidental editorial="yes">flat</accidental>
				<stem default-y="-5.00">up</stem>
				<staff>1</staff>
			</note>
			<note>
				<pitch>
					<step>B</step>
					<octave>3</octave>
				</pitch>
				<duration>13440</duration>
				<voice>1</voice>
				<type>half</type>
				<stem default-y="-10.00">up</stem>
				<staff>1</staff>
			</note>
			<note>
				<chord/>
				<pitch>
					<step>D</step>
					<octave>4</octave>
				</pitch>
				<duration>13440</duration>
				<voice>1</voice>
				<type>half</type>
				<stem default-y="-10.00">up</stem>
				<staff>1</staff>
			</note>
		</measure>
		<!--==========================[1,10]=============================-->
		<measure number="10" width="340">
			<print new-system="yes">
				<system-layout>
					<system-margins>
						<left-margin>28.400</left-margin>
						<right-margin>18.849</right-margin>
					</system-margins>
					<system-distance>121.667</system-distance>
				</system-layout>
				<staff-layout number="2">
					<staff-distance>92.619</staff-distance>
				</staff-layout>
			</print>
			<attributes>
				<staff-details number="1" print-object="yes">
				</staff-details>
				<staff-details number="2" print-object="yes">
				</staff-details>
			</attributes>
			<note>
				<pitch>
					<step>E</step>
					<alter>-1</alter>
					<octave>3</octave>
				</pitch>
				<duration>13440</duration>
				<voice>4</voice>
				<type>half</type>
				<stem default-y="-50.24">down</stem>
				<staff>2</staff>
			</note>
			<note>
				<chord/>
				<pitch>
					<step>G</step>
					<octave>3</octave>
				</pitch>
				<duration>13440</duration>
				<voice>4</voice>
				<type>half</type>
				<stem default-y="-50.24">down</stem>
				<staff>2</staff>
			</note>
			<note>
				<pitch>
					<step>G</step>
					<octave>3</octave>
				</pitch>
				<duration>13440</duration>
				<voice>4</voice>
				<type>half</type>
				<stem default-y="-55.24">down</stem>
				<staff>2</staff>
			</note>
			<note>
				<chord/>
				<pitch>
					<step>C</step>
					<octave>3</octave>
				</pitch>
				<duration>13440</duration>
				<voice>4</voice>
				<type>half</type>
				<stem default-y="-55.24">down</stem>
				<staff>2</staff>
			</note>
			<note>
				<pitch>
					<step>A</step>
					<octave>3</octave>
				</pitch>
				<duration>13440</duration>
				<voice>4</voice>
				<type>half</type>
				<stem default-y="-55.24">down</stem>
				<staff>2</staff>
			</note>
			<note>
				<chord/>
				<pitch>
					<step>C</step>
					<octave>3</octave>
				</pitch>
				<duration>13440</duration>
				<voice>4</voice>
				<type>half</type>
				<stem default-y="-55.24">down</stem>
				<staff>2</staff>
			</note>
			<note>
				<pitch>
					<step>B</step>
					<alter>-1</alter>
					<octave>3</octave>
				</pitch>
				<duration>13440</duration>
				<voice>4</voice>
				<type>half</type>
				<stem default-y="-55.24">down</stem>
				<staff>2</staff>
			</note>
			<note>
				<chord/>
				<pitch>
					<step>B</step>
					<alter>-1</alter>
					<octave>2</octave>
				</pitch>
				<duration>13440</duration>
				<voice>4</voice>
				<type>half</type>
				<stem default-y="-62.52">down</stem>
				<staff>2</staff>
			</note>
			<backup>
				<duration>53760</duration>
			</backup>
			<note>
				<pitch>
					<step>C</step>
					<octave>4</octave>
				</pitch>
				<duration>13440</duration>
				<voice>1</voice>
				<type>half</type>
				<stem default-y="-15.00">up</stem>
				<staff>1</staff>
			</note>
			<note>
				<pitch>
					<step>E</step>
					<alter>-1</alter>
					<octave>4</octave>
				</pitch>
				<duration>13440</duration>
				<voice>1</voice>
				<type>half</type>
				<stem default-y="-5.00">up</stem>
				<staff>1</staff>
			</note>
			<note>
				<chord/>
				<pitch>
					<step>C</step>
					<octave>4</octave>
				</pitch>
				<duration>13440</duration>
				<voice>1</voice>
				<type>half</type>
				<stem default-y="-5.00">up</stem>
				<staff>1</staff>
			</note>
			<note>
				<pitch>
					<step>A</step>
					<octave>4</octave>
				</pitch>
				<duration>13440</duration>
				<voice>1</voice>
				<type>half</type>
				<stem default-y="10.00">up</stem>
				<staff>1</staff>
			</note>
			<note>
				<chord/>
				<pitch>
					<step>E</step>
					<alter>-1</alter>
					<octave>4</octave>
				</pitch>
				<duration>13440</duration>
				<voice>1</voice>
				<type>half</type>
				<stem default-y="10.00">up</stem>
				<staff>1</staff>
			</note>
			<forward>
				<duration>13440</duration>
			</forward>
			<direction placement="below">
				<direction-type>
					<words font-family="Times New Roman" font-size="11" font-weight="bold" font-style="normal" relative-x="0.00" default-y="-257.74">Let the song go round</words>
				</direction-type>
				<staff>1</staff>
			</direction>
			<direction placement="below">
				<direction-type>
					<words font-family="Times New Roman" font-size="11" font-weight="bold" font-style="normal" relative-x="0.00" default-y="-279.88">Jesus Christ is Lord!</words>
				</direction-type>
				<staff>1</staff>
			</direction>
			<direction placement="below">
				<direction-type>
					<words font-family="Times New Roman" font-size="11" font-weight="bold" font-style="normal" relative-x="0.00" default-y="-302.02">Sound His praises,</words>
				</direction-type>
				<staff>1</staff>
			</direction>
			<direction placement="below">
				<direction-type>
					<words font-family="Times New Roman" font-size="11" font-weight="bold" font-style="normal" relative-x="0.00" default-y="-323.93">Be His Name adored;</words>
				</direction-type>
				<staff>1</staff>
			</direction>
			<direction placement="below">
				<direction-type>
					<words font-family="Times New Roman" font-size="11" font-weight="bold" font-style="normal" relative-x="0.00" default-y="-346.07">Every clime and</words>
				</direction-type>
				<staff>1</staff>
			</direction>
			<direction placement="below">
				<direction-type>
					<words font-family="Times New Roman" font-size="11" font-weight="bold" font-style="normal" relative-x="0.00" default-y="-367.98">Join the grand, the</words>
				</direction-type>
				<staff>1</staff>
			</direction>
			<backup>
				<duration>13440</duration>
			</backup>
			<note>
				<pitch>
					<step>G</step>
					<octave>4</octave>
				</pitch>
				<duration>13440</duration>
				<voice>1</voice>
				<type>half</type>
				<stem default-y="5.00">up</stem>
				<staff>1</staff>
			</note>
			<note>
				<chord/>
				<pitch>
					<step>E</step>
					<alter>-1</alter>
					<octave>4</octave>
				</pitch>
				<duration>13440</duration>
				<voice>1</voice>
				<type>half</type>
				<stem default-y="5.00">up</stem>
				<staff>1</staff>
			</note>
		</measure>
		<!--==========================[1,11]=============================-->
		<measure number="11" width="296">
			<note>
				<pitch>
					<step>A</step>
					<octave>2</octave>
				</pitch>
				<duration>13440</duration>
				<voice>4</voice>
				<type>half</type>
				<stem default-y="-60.24">down</stem>
				<staff>2</staff>
			</note>
			<backup>
				<duration>13440</duration>
			</backup>
			<note>
				<pitch>
					<step>C</step>
					<octave>4</octave>
				</pitch>
				<duration>26880</duration>
				<voice>5</voice>
				<type>whole</type>
				<stem>none</stem>
				<staff>2</staff>
			</note>
			<backup>
				<duration>13440</duration>
			</backup>
			<note>
				<pitch>
					<step>E</step>
					<alter>-1</alter>
					<octave>3</octave>
				</pitch>
				<duration>13440</duration>
				<voice>4</voice>
				<type>half</type>
				<stem default-y="-50.24">down</stem>
				<staff>2</staff>
			</note>
			<note>
				<pitch>
					<step>D</step>
					<octave>3</octave>
				</pitch>
				<duration>13440</duration>
				<voice>4</voice>
				<type>half</type>
				<stem default-y="-50.24">down</stem>
				<staff>2</staff>
			</note>
			<note>
				<chord/>
				<pitch>
					<step>B</step>
					<alter>-1</alter>
					<octave>3</octave>
				</pitch>
				<duration>13440</duration>
				<voice>4</voice>
				<type>half</type>
				<stem default-y="-50.24">down</stem>
				<staff>2</staff>
			</note>
			<note>
				<pitch>
					<step>D</step>
					<octave>3</octave>
				</pitch>
				<duration>13440</duration>
				<voice>5</voice>
				<type>half</type>
				<stem default-y="-50.24">down</stem>
				<staff>2</staff>
			</note>
			<backup>
				<duration>13440</duration>
			</backup>
			<note>
				<pitch>
					<step>D</step>
					<octave>4</octave>
				</pitch>
				<duration>6720</duration>
				<voice>4</voice>
				<type>quarter</type>
				<stem default-y="40.00">up</stem>
				<staff>2</staff>
			</note>
			<note>
				<pitch>
					<step>C</step>
					<octave>4</octave>
				</pitch>
				<duration>6720</duration>
				<voice>4</voice>
				<type>quarter</type>
				<stem default-y="35.00">up</stem>
				<staff>2</staff>
			</note>
			<backup>
				<duration>53760</duration>
			</backup>
			<note>
				<pitch>
					<step>F</step>
					<octave>4</octave>
				</pitch>
				<duration>26880</duration>
				<voice>1</voice>
				<type>whole</type>
				<stem>none</stem>
				<staff>1</staff>
			</note>
			<note>
				<pitch>
					<step>B</step>
					<alter>-1</alter>
					<octave>4</octave>
				</pitch>
				<duration>13440</duration>
				<voice>1</voice>
				<type>half</type>
				<stem default-y="10.00">up</stem>
				<staff>1</staff>
			</note>
			<note>
				<chord/>
				<pitch>
					<step>F</step>
					<octave>4</octave>
				</pitch>
				<duration>13440</duration>
				<voice>1</voice>
				<type>half</type>
				<stem default-y="10.00">up</stem>
				<staff>1</staff>
			</note>
			<forward>
				<duration>13440</duration>
			</forward>
			<direction placement="below">
				<direction-type>
					<words font-family="Times New Roman" font-size="11" font-weight="bold" font-style="normal" relative-x="0.00" default-y="-346.07">every tongue</words>
				</direction-type>
				<staff>1</staff>
			</direction>
			<direction placement="below">
				<direction-type>
					<words font-family="Times New Roman" font-size="11" font-weight="bold" font-style="normal" relative-x="0.00" default-y="-302.02">tell His worth,</words>
				</direction-type>
				<staff>1</staff>
			</direction>
			<direction placement="below">
				<direction-type>
					<words font-family="Times New Roman" font-size="11" font-weight="bold" font-style="normal" relative-x="0.00" default-y="-367.98">glorious song!</words>
				</direction-type>
				<staff>1</staff>
			</direction>
			<direction placement="below">
				<direction-type>
					<words font-family="Times New Roman" font-size="11" font-weight="bold" font-style="normal" relative-x="0.00" default-y="-257.74">the earth,</words>
				</direction-type>
				<staff>1</staff>
			</direction>
			<backup>
				<duration>13440</duration>
			</backup>
			<note>
				<pitch>
					<step>A</step>
					<octave>4</octave>
				</pitch>
				<duration>13440</duration>
				<voice>1</voice>
				<type>half</type>
				<stem default-y="10.00">up</stem>
				<staff>1</staff>
			</note>
			<note>
				<chord/>
				<pitch>
					<step>F</step>
					<octave>4</octave>
				</pitch>
				<duration>13440</duration>
				<voice>1</voice>
				<type>half</type>
				<stem default-y="10.00">up</stem>
				<staff>1</staff>
			</note>
		</measure>
		<!--==========================[1,12]=============================-->
		<measure number="12" width="292">
			<note>
				<pitch>
					<step>E</step>
					<alter>-1</alter>
					<octave>3</octave>
				</pitch>
				<duration>13440</duration>
				<voice>4</voice>
				<type>half</type>
				<stem default-y="-50.24">down</stem>
				<staff>2</staff>
			</note>
			<note>
				<chord/>
				<pitch>
					<step>B</step>
					<alter>-1</alter>
					<octave>3</octave>
				</pitch>
				<duration>13440</duration>
				<voice>4</voice>
				<type>half</type>
				<stem default-y="-50.24">down</stem>
				<staff>2</staff>
			</note>
			<note>
				<pitch>
					<step>G</step>
					<octave>3</octave>
				</pitch>
				<duration>13440</duration>
				<voice>4</voice>
				<type>half</type>
				<stem default-y="-40.24">down</stem>
				<staff>2</staff>
			</note>
			<note>
				<chord/>
				<pitch>
					<step>B</step>
					<alter>-1</alter>
					<octave>3</octave>
				</pitch>
				<duration>13440</duration>
				<voice>4</voice>
				<type>half</type>
				<stem default-y="-40.24">down</stem>
				<staff>2</staff>
			</note>
			<note>
				<pitch>
					<step>A</step>
					<octave>3</octave>
				</pitch>
				<duration>13440</duration>
				<voice>4</voice>
				<type>half</type>
				<stem default-y="-50.24">down</stem>
				<staff>2</staff>
			</note>
			<note>
				<chord/>
				<pitch>
					<step>D</step>
					<octave>3</octave>
				</pitch>
				<duration>13440</duration>
				<voice>4</voice>
				<type>half</type>
				<stem default-y="-50.24">down</stem>
				<staff>2</staff>
			</note>
			<note>
				<pitch>
					<step>A</step>
					<octave>3</octave>
				</pitch>
				<duration>13440</duration>
				<voice>4</voice>
				<type>half</type>
				<stem default-y="-45.24">down</stem>
				<staff>2</staff>
			</note>
			<note>
				<chord/>
				<pitch>
					<step>F</step>
					<octave>3</octave>
				</pitch>
				<duration>13440</duration>
				<voice>4</voice>
				<type>half</type>
				<stem default-y="-45.24">down</stem>
				<staff>2</staff>
			</note>
			<backup>
				<duration>53760</duration>
			</backup>
			<note>
				<pitch>
					<step>G</step>
					<octave>4</octave>
				</pitch>
				<duration>13440</duration>
				<voice>1</voice>
				<type>half</type>
				<stem default-y="5.00">up</stem>
				<staff>1</staff>
			</note>
			<note>
				<pitch>
					<step>D</step>
					<octave>4</octave>
				</pitch>
				<duration>13440</duration>
				<voice>1</voice>
				<type>half</type>
				<stem default-y="10.00">up</stem>
				<staff>1</staff>
			</note>
			<note>
				<chord/>
				<pitch>
					<step>B</step>
					<alter>-1</alter>
					<octave>4</octave>
				</pitch>
				<duration>13440</duration>
				<voice>1</voice>
				<type>half</type>
				<stem default-y="10.00">up</stem>
				<staff>1</staff>
			</note>
			<note>
				<pitch>
					<step>F</step>
					<octave>4</octave>
				</pitch>
				<duration>20160</duration>
				<voice>2</voice>
				<type>half</type>
				<dot/>
				<stem default-y="-60.24">down</stem>
				<staff>1</staff>
			</note>
			<backup>
				<duration>20160</duration>
			</backup>
			<note>
				<pitch>
					<step>D</step>
					<octave>5</octave>
				</pitch>
				<duration>13440</duration>
				<voice>1</voice>
				<type>half</type>
				<stem default-y="15.00">up</stem>
				<staff>1</staff>
			</note>
			<note>
				<pitch>
					<step>C</step>
					<octave>5</octave>
				</pitch>
				<duration>13440</duration>
				<voice>1</voice>
				<type>half</type>
				<stem default-y="15.00">up</stem>
				<staff>1</staff>
			</note>
			<forward>
				<duration>6720</duration>
			</forward>
			<direction placement="below">
				<direction-type>
					<words font-family="Times New Roman" font-size="11" font-weight="bold" font-style="normal" relative-x="0.00" default-y="-256.55">Let the song go round the earth,</words>
				</direction-type>
				<staff>1</staff>
			</direction>
			<direction placement="below">
				<direction-type>
					<words font-family="Times New Roman" font-size="11" font-weight="bold" font-style="normal" relative-x="0.00" default-y="-278.69">Where the summer smiles;</words>
				</direction-type>
				<staff>1</staff>
			</direction>
			<direction placement="below">
				<direction-type>
					<words font-family="Times New Roman" font-size="11" font-weight="bold" font-style="normal" relative-x="0.00" default-y="-300.59">Let the notes of holy mirth</words>
				</direction-type>
				<staff>1</staff>
			</direction>
			<direction placement="below">
				<direction-type>
					<words font-family="Times New Roman" font-size="11" font-weight="bold" font-style="normal" relative-x="0.00" default-y="-322.74">Break from distant isles;</words>
				</direction-type>
				<staff>1</staff>
			</direction>
			<direction placement="below">
				<direction-type>
					<words font-family="Times New Roman" font-size="11" font-weight="bold" font-style="normal" relative-x="0.00" default-y="-344.64">Inland forests, dark and dim,</words>
				</direction-type>
				<staff>1</staff>
			</direction>
			<direction placement="below">
				<direction-type>
					<words font-family="Times New Roman" font-size="11" font-weight="bold" font-style="normal" relative-x="0.00" default-y="-366.79">Ice bound coasts give back the</words>
				</direction-type>
				<staff>1</staff>
			</direction>
			<backup>
				<duration>6720</duration>
			</backup>
			<note>
				<pitch>
					<step>E</step>
					<alter>-1</alter>
					<octave>4</octave>
				</pitch>
				<duration>6720</duration>
				<voice>2</voice>
				<type>quarter</type>
				<stem default-y="-65.24">down</stem>
				<staff>1</staff>
			</note>
		</measure>
		<!--==========================[1,13]=============================-->
		<measure number="13" width="125">
			<note>
				<pitch>
					<step>B</step>
					<alter>-1</alter>
					<octave>3</octave>
				</pitch>
				<duration>26880</duration>
				<voice>4</voice>
				<type>whole</type>
				<stem>none</stem>
				<staff>2</staff>
			</note>
			<note>
				<chord/>
				<pitch>
					<step>B</step>
					<alter>-1</alter>
					<octave>2</octave>
				</pitch>
				<duration>26880</duration>
				<voice>4</voice>
				<type>whole</type>
				<stem>none</stem>
				<staff>2</staff>
			</note>
			<direction placement="below">
				<direction-type>
					<words font-family="Times New Roman" font-size="11" font-weight="bold" font-style="normal" relative-x="0.00" default-y="-366.79">hymn.</words>
				</direction-type>
				<staff>1</staff>
			</direction>
			<backup>
				<duration>26880</duration>
			</backup>
			<note>
				<pitch>
					<step>D</step>
					<octave>4</octave>
				</pitch>
				<duration>26880</duration>
				<voice>1</voice>
				<type>whole</type>
				<stem>none</stem>
				<staff>1</staff>
			</note>
			<note>
				<chord/>
				<pitch>
					<step>B</step>
					<alter>-1</alter>
					<octave>4</octave>
				</pitch>
				<duration>26880</duration>
				<voice>1</voice>
				<type>whole</type>
				<stem>none</stem>
				<staff>1</staff>
			</note>
			<barline location="right">
				<bar-style>light-heavy</bar-style>
			</barline>
		</measure>
	</part>
</score-partwise>
