<?xml version="1.0" encoding="UTF-8" standalone="no"?>
<!DOCTYPE score-partwise PUBLIC "-//Recordare//DTD MusicXML 2.0 Partwise//EN" "http://www.musicxml.org/dtds/partwise.dtd">
<score-partwise version="2.0">
	<work>
		<work-title>All Things Bright and Beautiful</work-title>
	</work>
	<identification>
		<creator type="composer">Monk
76.76 with refrain
           A7</creator>
		<creator type="poet">William Henry Monk, 1 823-1 889</creator>
		<encoding>
			<software>PDFtoMusic Pro v1.6.5 Build 1B9E7 (c) Myriad - http://www.myriad-online.com</software>
			<?PDFtoMusic Document type 0100- 00000000?>
			<supports attribute="new-system" element="print" type="yes" value="yes"/>
			<supports attribute="new-page" element="print" type="yes" value="yes"/>
		</encoding>
	</identification>
	<defaults>
		<scaling>
			<millimeters>7.111996</millimeters>
			<tenths>40</tenths>
		</scaling>
		<page-layout>
			<page-height>1571.430</page-height>
			<page-width>1214.286</page-width>
			<page-margins type="both">
				<left-margin>56.243</left-margin>
				<right-margin>56.243</right-margin>
				<top-margin>56.243</top-margin>
				 <bottom-margin>56.243</bottom-margin>
			</page-margins>
		</page-layout>
		<appearance>
			<line-width type="stem">0.2381</line-width>
			<line-width type="beam">9.6793</line-width>
			<line-width type="staff">0.7143</line-width>
			<line-width type="light barline">0.3889</line-width>
			<line-width type="heavy barline">3.3333</line-width>
			<line-width type="leger">0.7143</line-width>
		</appearance>
	</defaults>
	<credit page="1">
		<credit-words  default-x="71.190" default-y="1458.810" justify="left" valign="baseline" font-family="Times New Roman" font-size="10" font-weight="normal" font-style="normal">William Henry Monk, 1 823-1 889</credit-words>
	</credit>
	<credit page="1">
		<credit-words  default-x="78.333" default-y="365.476" justify="left" valign="baseline" font-family="Times New Roman" font-size="11" font-weight="bold" font-style="italic">All things wise and wonderful:
The Lord God made them all.</credit-words>
	</credit>
	<credit page="1">
		<credit-words  default-x="194.047" default-y="1411.191" justify="left" valign="baseline" font-family="Times New Roman" font-size="10" font-weight="bold" font-style="normal">D</credit-words>
	</credit>
	<credit page="1">
		<credit-words  default-x="289.524" default-y="1411.191" justify="left" valign="baseline" font-family="Times New Roman" font-size="10" font-weight="bold" font-style="normal">G   Emin6</credit-words>
	</credit>
	<credit page="1">
		<credit-words  default-x="340.000" default-y="1505.714" justify="left" valign="baseline" font-family="Times New Roman" font-size="20" font-weight="bold" font-style="normal">All Things Bright and Beautiful</credit-words>
	</credit>
	<credit page="1">
		<credit-words  default-x="398.333" default-y="344.048" justify="left" valign="baseline" font-family="Times New Roman" font-size="11" font-weight="bold" font-style="normal">Refrain</credit-words>
	</credit>
	<credit page="1">
		<credit-words  default-x="398.333" default-y="300.000" justify="left" valign="baseline" font-family="Times New Roman" font-size="11" font-weight="bold" font-style="normal">The purple headed mountains,
The river running by,
The sunset and the morning
That brightens up the sky.</credit-words>
	</credit>
	<credit page="1">
		<credit-words  default-x="398.333" default-y="189.762" justify="left" valign="baseline" font-family="Times New Roman" font-size="11" font-weight="bold" font-style="normal">Refrain</credit-words>
	</credit>
	<credit page="1">
		<credit-words  default-x="435.238" default-y="1411.191" justify="left" valign="baseline" font-family="Times New Roman" font-size="10" font-weight="bold" font-style="normal">D</credit-words>
	</credit>
	<credit page="1">
		<credit-words  default-x="489.524" default-y="63.571" justify="left" valign="baseline" font-family="Times New Roman" font-size="10" font-weight="normal" font-style="normal">www.smallchurchmusic.com</credit-words>
	</credit>
	<credit page="1">
		<credit-words  default-x="511.667" default-y="1411.191" justify="left" valign="baseline" font-family="Times New Roman" font-size="10" font-weight="bold" font-style="normal">Bmin   B</credit-words>
	</credit>
	<credit page="1">
		<credit-words  default-x="688.333" default-y="1411.191" justify="left" valign="baseline" font-family="Times New Roman" font-size="10" font-weight="bold" font-style="normal">Asus4</credit-words>
	</credit>
	<credit page="1">
		<credit-words  default-x="741.191" default-y="340.000" justify="left" valign="baseline" font-family="Times New Roman" font-size="11" font-weight="bold" font-style="normal">Refrain</credit-words>
	</credit>
	<credit page="1">
		<credit-words  default-x="741.191" default-y="295.952" justify="left" valign="baseline" font-family="Times New Roman" font-size="11" font-weight="bold" font-style="normal">He gave us eyes to see them,
And lips that we might tell
How great is God Almighty,
Who has made all things well.</credit-words>
	</credit>
	<credit page="1">
		<credit-words  default-x="741.191" default-y="185.714" justify="left" valign="baseline" font-family="Times New Roman" font-size="11" font-weight="bold" font-style="normal">Refrain</credit-words>
	</credit>
	<credit page="1">
		<credit-words  default-x="777.143" default-y="1411.191" justify="left" valign="baseline" font-family="Times New Roman" font-size="10" font-weight="bold" font-style="normal">A   Dmaj79   E7</credit-words>
	</credit>
	<credit page="1">
		<credit-words  default-x="893.810" default-y="126.429" justify="left" valign="baseline" font-family="Times New Roman" font-size="10" font-weight="normal" font-style="normal">Cecil F. Alexander</credit-words>
	</credit>
	<credit page="1">
		<credit-words  default-x="995.238" default-y="1411.191" justify="left" valign="baseline" font-family="Times New Roman" font-size="10" font-weight="bold" font-style="normal">A</credit-words>
	</credit>
	<credit page="1">
		<credit-words  default-x="1000.476" default-y="1463.096" justify="left" valign="baseline" font-family="Times New Roman" font-size="10" font-weight="normal" font-style="normal">Monk
76.76 with refrain
</credit-words>
		<credit-words   justify="left" valign="baseline" font-family="Times New Roman" font-size="10" font-weight="bold" font-style="normal">           A7</credit-words>
	</credit>
	<part-list>
		<score-part id="P1">
			<part-name></part-name>
			<score-instrument id="P1-I1">
				<instrument-name>Instrument 1</instrument-name>
			</score-instrument>
			<midi-instrument id="P1-I1">
				<midi-channel>1</midi-channel>
				<midi-bank>1</midi-bank>
				<midi-program>53</midi-program>
				<volume>50</volume>
				<pan>0</pan>
				<elevation>0</elevation>
				<?Myriad
				<iddigit>5201</iddigit>
				?>
			</midi-instrument>
		</score-part>
	</part-list>
	<part id="P1">
		<!--==========================[1,1]=============================-->
		<measure number="1" width="317">
			<print new-page="yes">
				<system-layout>
					<system-margins>
						<left-margin>28.399</left-margin>
						<right-margin>14.881</right-margin>
					</system-margins>
					<top-system-distance>121.733</top-system-distance>
				</system-layout>
				<staff-layout number="2">
					<staff-distance>47.619</staff-distance>
				</staff-layout>
			</print>
			<attributes>
				<divisions>6720</divisions>
				<key>
					<fifths>2</fifths>
					<mode>major</mode>
				</key>
				<time>
					<beats>4</beats>
					<beat-type>4</beat-type>
				</time>
				<staves>2</staves>
				<clef number="1">
					<sign>G</sign>
					<line>2</line>
				</clef>
				<clef number="2">
					<sign>F</sign>
					<line>4</line>
				</clef>
				<staff-details number="1" print-object="yes">
					<staff-lines>5</staff-lines>
					<staff-size>100.00</staff-size>
				</staff-details>
				<staff-details number="2" print-object="yes">
					<staff-lines>5</staff-lines>
					<staff-size>100.00</staff-size>
				</staff-details>
			</attributes>
			<note>
				<pitch>
					<step>A</step>
					<octave>3</octave>
				</pitch>
				<duration>6720</duration>
				<voice>4</voice>
				<type>quarter</type>
				<stem default-y="-50.24">down</stem>
				<staff>2</staff>
				<lyric number="1" justify="right" default-y="-184.17">
					<syllabic>single</syllabic>
					<text font-family="Times New Roman" font-size="10" font-weight="bold" font-style="normal" xml:lang="en">
D</text>
				</lyric>
			</note>
			<note>
				<chord/>
				<pitch>
					<step>D</step>
					<octave>3</octave>
				</pitch>
				<duration>6720</duration>
				<voice>4</voice>
				<type>quarter</type>
				<stem default-y="-50.24">down</stem>
				<staff>2</staff>
			</note>
			<note>
				<pitch>
					<step>D</step>
					<octave>3</octave>
				</pitch>
				<duration>6720</duration>
				<voice>4</voice>
				<type>quarter</type>
				<stem default-y="-50.24">down</stem>
				<staff>2</staff>
			</note>
			<note>
				<chord/>
				<pitch>
					<step>A</step>
					<octave>3</octave>
				</pitch>
				<duration>6720</duration>
				<voice>4</voice>
				<type>quarter</type>
				<stem default-y="-50.24">down</stem>
				<staff>2</staff>
				<lyric number="1" justify="left" default-y="-184.17">
					<syllabic>single</syllabic>
					<text font-family="Times New Roman" font-size="10" font-weight="bold" font-style="normal" xml:lang="en">A79</text>
				</lyric>
			</note>
			<note>
				<pitch>
					<step>B</step>
					<octave>2</octave>
				</pitch>
				<duration>6720</duration>
				<voice>4</voice>
				<type>quarter</type>
				<stem default-y="-55.24">down</stem>
				<staff>2</staff>
			</note>
			<note>
				<chord/>
				<pitch>
					<step>G</step>
					<octave>3</octave>
				</pitch>
				<duration>6720</duration>
				<voice>4</voice>
				<type>quarter</type>
				<stem default-y="-55.24">down</stem>
				<staff>2</staff>
			</note>
			<note>
				<pitch>
					<step>C</step>
					<alter>1</alter>
					<octave>4</octave>
				</pitch>
				<duration>6720</duration>
				<voice>4</voice>
				<type>quarter</type>
				<stem default-y="-50.24">down</stem>
				<staff>2</staff>
				<lyric number="1" justify="left" default-y="-184.17">
					<syllabic>single</syllabic>
					<text font-family="Times New Roman" font-size="10" font-weight="bold" font-style="normal" xml:lang="en">D</text>
				</lyric>
			</note>
			<note>
				<chord/>
				<pitch>
					<step>E</step>
					<octave>3</octave>
				</pitch>
				<duration>6720</duration>
				<voice>4</voice>
				<type>quarter</type>
				<stem default-y="-50.24">down</stem>
				<staff>2</staff>
			</note>
			<backup>
				<duration>26880</duration>
			</backup>
			<note>
				<pitch>
					<step>D</step>
					<octave>5</octave>
				</pitch>
				<duration>6720</duration>
				<voice>1</voice>
				<type>quarter</type>
				<stem default-y="15.00">up</stem>
				<staff>1</staff>
			</note>
			<note>
				<chord/>
				<pitch>
					<step>F</step>
					<alter>1</alter>
					<octave>4</octave>
				</pitch>
				<duration>6720</duration>
				<voice>1</voice>
				<type>quarter</type>
				<stem default-y="15.00">up</stem>
				<staff>1</staff>
			</note>
			<note>
				<pitch>
					<step>F</step>
					<alter>1</alter>
					<octave>4</octave>
				</pitch>
				<duration>6720</duration>
				<voice>1</voice>
				<type>quarter</type>
				<stem default-y="0.00">up</stem>
				<staff>1</staff>
			</note>
			<note>
				<chord/>
				<pitch>
					<step>D</step>
					<octave>4</octave>
				</pitch>
				<duration>6720</duration>
				<voice>1</voice>
				<type>quarter</type>
				<stem default-y="0.00">up</stem>
				<staff>1</staff>
			</note>
			<note>
				<pitch>
					<step>D</step>
					<octave>4</octave>
				</pitch>
				<duration>6720</duration>
				<voice>1</voice>
				<type>quarter</type>
				<stem default-y="5.00">up</stem>
				<staff>1</staff>
			</note>
			<note>
				<chord/>
				<pitch>
					<step>G</step>
					<octave>4</octave>
				</pitch>
				<duration>6720</duration>
				<voice>1</voice>
				<type>quarter</type>
				<stem default-y="5.00">up</stem>
				<staff>1</staff>
			</note>
			<note>
				<pitch>
					<step>B</step>
					<octave>4</octave>
				</pitch>
				<duration>6720</duration>
				<voice>1</voice>
				<type>quarter</type>
				<stem default-y="10.00">up</stem>
				<staff>1</staff>
			</note>
			<note>
				<chord/>
				<pitch>
					<step>G</step>
					<octave>4</octave>
				</pitch>
				<duration>6720</duration>
				<voice>1</voice>
				<type>quarter</type>
				<stem default-y="10.00">up</stem>
				<staff>1</staff>
			</note>
		</measure>
		<!--==========================[1,2]=============================-->
		<measure number="2" width="251">
			<note>
				<pitch>
					<step>D</step>
					<octave>4</octave>
				</pitch>
				<duration>10080</duration>
				<voice>5</voice>
				<type>quarter</type>
				<dot/>
				<stem default-y="-45.24">down</stem>
				<staff>2</staff>
				<lyric number="1" justify="center" default-y="-184.17">
					<syllabic>single</syllabic>
					<text font-family="Times New Roman" font-size="10" font-weight="bold" font-style="normal" xml:lang="en">F#min</text>
				</lyric>
			</note>
			<note>
				<chord/>
				<pitch>
					<step>F</step>
					<alter>1</alter>
					<octave>3</octave>
				</pitch>
				<duration>10080</duration>
				<voice>5</voice>
				<type>quarter</type>
				<dot/>
				<stem default-y="-45.24">down</stem>
				<staff>2</staff>
			</note>
			<note>
				<pitch>
					<step>A</step>
					<octave>3</octave>
				</pitch>
				<duration>3360</duration>
				<voice>5</voice>
				<type>eighth</type>
				<stem default-y="-48.81">down</stem>
				<staff>2</staff>
				<lyric number="1" justify="left" default-y="-184.17">
					<syllabic>single</syllabic>
					<text font-family="Times New Roman" font-size="10" font-weight="bold" font-style="normal" xml:lang="en">Bmin</text>
				</lyric>
			</note>
			<note>
				<chord/>
				<pitch>
					<step>F</step>
					<alter>1</alter>
					<octave>3</octave>
				</pitch>
				<duration>3360</duration>
				<voice>5</voice>
				<type>eighth</type>
				<stem default-y="-48.81">down</stem>
				<staff>2</staff>
			</note>
			<note>
				<pitch>
					<step>F</step>
					<alter>1</alter>
					<octave>3</octave>
				</pitch>
				<duration>6720</duration>
				<voice>5</voice>
				<type>quarter</type>
				<stem default-y="-55.24">down</stem>
				<staff>2</staff>
			</note>
			<note>
				<chord/>
				<pitch>
					<step>B</step>
					<octave>2</octave>
				</pitch>
				<duration>6720</duration>
				<voice>5</voice>
				<type>quarter</type>
				<stem default-y="-55.24">down</stem>
				<staff>2</staff>
			</note>
			<note>
				<pitch>
					<step>B</step>
					<octave>2</octave>
				</pitch>
				<duration>6720</duration>
				<voice>5</voice>
				<type>quarter</type>
				<stem default-y="-55.24">down</stem>
				<staff>2</staff>
				<lyric number="1" justify="center" default-y="-184.17">
					<syllabic>single</syllabic>
					<text font-family="Times New Roman" font-size="10" font-weight="bold" font-style="normal" xml:lang="en">Emin7</text>
				</lyric>
			</note>
			<backup>
				<duration>6720</duration>
			</backup>
			<note>
				<pitch>
					<step>F</step>
					<alter>1</alter>
					<octave>3</octave>
				</pitch>
				<duration>3360</duration>
				<voice>4</voice>
				<type>eighth</type>
				<stem default-y="29.88">up</stem>
				<staff>2</staff>
				<beam number="1">begin</beam>
			</note>
			<note>
				<pitch>
					<step>G</step>
					<alter>1</alter>
					<octave>3</octave>
				</pitch>
				<duration>3360</duration>
				<voice>4</voice>
				<type>eighth</type>
				<accidental>sharp</accidental>
				<stem default-y="30.00">up</stem>
				<staff>2</staff>
				<beam number="1">end</beam>
			</note>
			<backup>
				<duration>26880</duration>
			</backup>
			<note>
				<pitch>
					<step>A</step>
					<octave>4</octave>
				</pitch>
				<duration>10080</duration>
				<voice>1</voice>
				<type>quarter</type>
				<dot/>
				<stem default-y="10.00">up</stem>
				<staff>1</staff>
			</note>
			<note>
				<chord/>
				<pitch>
					<step>F</step>
					<alter>1</alter>
					<octave>4</octave>
				</pitch>
				<duration>10080</duration>
				<voice>1</voice>
				<type>quarter</type>
				<dot/>
				<stem default-y="10.00">up</stem>
				<staff>1</staff>
			</note>
			<note>
				<pitch>
					<step>D</step>
					<octave>4</octave>
				</pitch>
				<duration>3360</duration>
				<voice>1</voice>
				<type>eighth</type>
				<stem default-y="3.57">up</stem>
				<staff>1</staff>
			</note>
			<note>
				<chord/>
				<pitch>
					<step>F</step>
					<alter>1</alter>
					<octave>4</octave>
				</pitch>
				<duration>3360</duration>
				<voice>1</voice>
				<type>eighth</type>
				<stem default-y="3.57">up</stem>
				<staff>1</staff>
			</note>
			<note>
				<pitch>
					<step>D</step>
					<octave>4</octave>
				</pitch>
				<duration>6720</duration>
				<voice>1</voice>
				<type>quarter</type>
				<stem default-y="-10.00">up</stem>
				<staff>1</staff>
			</note>
			<note>
				<pitch>
					<step>F</step>
					<alter>1</alter>
					<octave>4</octave>
				</pitch>
				<duration>6720</duration>
				<voice>1</voice>
				<type>quarter</type>
				<stem default-y="0.00">up</stem>
				<staff>1</staff>
			</note>
			<note>
				<chord/>
				<pitch>
					<step>D</step>
					<octave>4</octave>
				</pitch>
				<duration>6720</duration>
				<voice>1</voice>
				<type>quarter</type>
				<stem default-y="0.00">up</stem>
				<staff>1</staff>
			</note>
		</measure>
		<!--==========================[1,3]=============================-->
		<measure number="3" width="308">
			<note>
				<pitch>
					<step>C</step>
					<alter>1</alter>
					<octave>3</octave>
				</pitch>
				<duration>3360</duration>
				<voice>5</voice>
				<type>eighth</type>
				<stem default-y="-60.24">down</stem>
				<staff>2</staff>
				<beam number="1">begin</beam>
				<lyric number="1" justify="right" default-y="-184.17">
					<syllabic>single</syllabic>
					<text font-family="Times New Roman" font-size="10" font-weight="bold" font-style="normal" xml:lang="en">
D</text>
				</lyric>
			</note>
			<note>
				<pitch>
					<step>D</step>
					<octave>3</octave>
				</pitch>
				<duration>3360</duration>
				<voice>5</voice>
				<type>eighth</type>
				<stem default-y="-55.24">down</stem>
				<staff>2</staff>
				<beam number="1">end</beam>
			</note>
			<backup>
				<duration>6720</duration>
			</backup>
			<note>
				<pitch>
					<step>A</step>
					<octave>3</octave>
				</pitch>
				<duration>6720</duration>
				<voice>4</voice>
				<type>quarter</type>
				<stem default-y="25.00">up</stem>
				<staff>2</staff>
				<lyric number="1" justify="left" default-y="-184.17">
					<syllabic>single</syllabic>
					<text font-family="Times New Roman" font-size="10" font-weight="bold" font-style="normal" xml:lang="en">Bmin</text>
				</lyric>
			</note>
			<note>
				<pitch>
					<step>A</step>
					<octave>3</octave>
				</pitch>
				<duration>6720</duration>
				<voice>5</voice>
				<type>quarter</type>
				<stem default-y="-50.24">down</stem>
				<staff>2</staff>
				<lyric number="1" justify="left" default-y="-184.17">
					<syllabic>single</syllabic>
					<text font-family="Times New Roman" font-size="10" font-weight="bold" font-style="normal" xml:lang="en">D</text>
				</lyric>
			</note>
			<note>
				<chord/>
				<pitch>
					<step>E</step>
					<octave>3</octave>
				</pitch>
				<duration>6720</duration>
				<voice>5</voice>
				<type>quarter</type>
				<stem default-y="-50.24">down</stem>
				<staff>2</staff>
			</note>
			<note>
				<pitch>
					<step>E</step>
					<octave>3</octave>
				</pitch>
				<duration>6720</duration>
				<voice>5</voice>
				<type>quarter</type>
				<stem default-y="-50.24">down</stem>
				<staff>2</staff>
				<lyric number="1" justify="left" default-y="-184.17">
					<syllabic>single</syllabic>
					<text font-family="Times New Roman" font-size="10" font-weight="bold" font-style="normal" xml:lang="en">F#min</text>
				</lyric>
			</note>
			<note>
				<chord/>
				<pitch>
					<step>F</step>
					<alter>1</alter>
					<octave>3</octave>
				</pitch>
				<duration>6720</duration>
				<voice>5</voice>
				<type>quarter</type>
				<stem default-y="-50.24">down</stem>
				<staff>2</staff>
			</note>
			<note>
				<pitch>
					<step>G</step>
					<alter>1</alter>
					<octave>3</octave>
				</pitch>
				<duration>6720</duration>
				<voice>5</voice>
				<type>quarter</type>
				<accidental>sharp</accidental>
				<stem default-y="-50.24">down</stem>
				<staff>2</staff>
			</note>
			<note>
				<chord/>
				<pitch>
					<step>E</step>
					<octave>3</octave>
				</pitch>
				<duration>6720</duration>
				<voice>5</voice>
				<type>quarter</type>
				<stem default-y="-50.24">down</stem>
				<staff>2</staff>
			</note>
			<backup>
				<duration>26880</duration>
			</backup>
			<note>
				<pitch>
					<step>E</step>
					<octave>4</octave>
				</pitch>
				<duration>6720</duration>
				<voice>1</voice>
				<type>quarter</type>
				<stem default-y="-5.00">up</stem>
				<staff>1</staff>
			</note>
			<note>
				<pitch>
					<step>C</step>
					<alter>1</alter>
					<octave>4</octave>
				</pitch>
				<duration>6720</duration>
				<voice>1</voice>
				<type>quarter</type>
				<stem default-y="15.00">up</stem>
				<staff>1</staff>
			</note>
			<note>
				<chord/>
				<pitch>
					<step>C</step>
					<alter>1</alter>
					<octave>5</octave>
				</pitch>
				<duration>6720</duration>
				<voice>1</voice>
				<type>quarter</type>
				<stem default-y="19.86">up</stem>
				<staff>1</staff>
			</note>
			<note>
				<pitch>
					<step>D</step>
					<octave>4</octave>
				</pitch>
				<duration>6720</duration>
				<voice>1</voice>
				<type>quarter</type>
				<stem default-y="15.00">up</stem>
				<staff>1</staff>
			</note>
			<note>
				<chord/>
				<pitch>
					<step>C</step>
					<alter>1</alter>
					<octave>5</octave>
				</pitch>
				<duration>6720</duration>
				<voice>1</voice>
				<type>quarter</type>
				<stem default-y="15.00">up</stem>
				<staff>1</staff>
			</note>
			<note>
				<pitch>
					<step>B</step>
					<octave>4</octave>
				</pitch>
				<duration>6720</duration>
				<voice>1</voice>
				<type>quarter</type>
				<stem default-y="10.00">up</stem>
				<staff>1</staff>
			</note>
			<note>
				<chord/>
				<pitch>
					<step>D</step>
					<octave>4</octave>
				</pitch>
				<duration>6720</duration>
				<voice>1</voice>
				<type>quarter</type>
				<stem default-y="10.00">up</stem>
				<staff>1</staff>
			</note>
		</measure>
		<!--==========================[1,4]=============================-->
		<measure number="4" width="180">
			<note>
				<pitch>
					<step>A</step>
					<octave>3</octave>
				</pitch>
				<duration>20160</duration>
				<voice>4</voice>
				<type>half</type>
				<dot/>
				<stem default-y="-35.24">down</stem>
				<staff>2</staff>
				<lyric number="1" justify="right" default-y="-184.17">
					<syllabic>single</syllabic>
					<text font-family="Times New Roman" font-size="10" font-weight="bold" font-style="normal" xml:lang="en">D</text>
				</lyric>
			</note>
			<note>
				<pitch>
					<step>G</step>
					<octave>3</octave>
				</pitch>
				<duration>6720</duration>
				<voice>4</voice>
				<type>quarter</type>
				<stem default-y="-40.24">down</stem>
				<staff>2</staff>
			</note>
			<backup>
				<duration>26880</duration>
			</backup>
			<note>
				<pitch>
					<step>C</step>
					<alter>1</alter>
					<octave>4</octave>
				</pitch>
				<duration>26880</duration>
				<voice>1</voice>
				<type>whole</type>
				<stem>none</stem>
				<staff>1</staff>
			</note>
			<note>
				<chord/>
				<pitch>
					<step>A</step>
					<octave>4</octave>
				</pitch>
				<duration>26880</duration>
				<voice>1</voice>
				<type>whole</type>
				<stem>none</stem>
				<staff>1</staff>
			</note>
		</measure>
		<!--==========================[1,5]=============================-->
		<measure number="5" width="260">
			<print new-system="yes">
				<system-layout>
					<system-margins>
						<left-margin>28.399</left-margin>
						<right-margin>14.881</right-margin>
					</system-margins>
					<system-distance>76.429</system-distance>
				</system-layout>
				<staff-layout number="2">
					<staff-distance>72.143</staff-distance>
				</staff-layout>
			</print>
			<attributes>
				<staff-details number="1" print-object="yes">
				</staff-details>
				<staff-details number="2" print-object="yes">
				</staff-details>
			</attributes>
			<note>
				<pitch>
					<step>F</step>
					<alter>1</alter>
					<octave>3</octave>
				</pitch>
				<duration>6720</duration>
				<voice>4</voice>
				<type>quarter</type>
				<stem default-y="-45.24">down</stem>
				<staff>2</staff>
			</note>
			<note>
				<chord/>
				<pitch>
					<step>A</step>
					<octave>3</octave>
				</pitch>
				<duration>6720</duration>
				<voice>4</voice>
				<type>quarter</type>
				<stem default-y="-45.24">down</stem>
				<staff>2</staff>
				<lyric number="1" justify="center" default-y="-222.02">
					<syllabic>single</syllabic>
					<text font-family="Times New Roman" font-size="10" font-weight="bold" font-style="normal" xml:lang="en">A</text>
				</lyric>
			</note>
			<note>
				<pitch>
					<step>D</step>
					<octave>3</octave>
				</pitch>
				<duration>6720</duration>
				<voice>4</voice>
				<type>quarter</type>
				<stem default-y="-50.24">down</stem>
				<staff>2</staff>
			</note>
			<note>
				<chord/>
				<pitch>
					<step>A</step>
					<octave>3</octave>
				</pitch>
				<duration>6720</duration>
				<voice>4</voice>
				<type>quarter</type>
				<stem default-y="-50.24">down</stem>
				<staff>2</staff>
			</note>
			<note>
				<pitch>
					<step>A</step>
					<octave>3</octave>
				</pitch>
				<duration>6720</duration>
				<voice>4</voice>
				<type>quarter</type>
				<stem default-y="-50.24">down</stem>
				<staff>2</staff>
				<lyric number="1" justify="center" default-y="-222.02">
					<syllabic>single</syllabic>
					<text font-family="Times New Roman" font-size="10" font-weight="bold" font-style="normal" xml:lang="en">Bmin7</text>
				</lyric>
			</note>
			<note>
				<chord/>
				<pitch>
					<step>E</step>
					<octave>3</octave>
				</pitch>
				<duration>6720</duration>
				<voice>4</voice>
				<type>quarter</type>
				<stem default-y="-50.24">down</stem>
				<staff>2</staff>
			</note>
			<note>
				<pitch>
					<step>G</step>
					<octave>3</octave>
				</pitch>
				<duration>6720</duration>
				<voice>4</voice>
				<type>quarter</type>
				<stem default-y="-40.24">down</stem>
				<staff>2</staff>
			</note>
			<note>
				<chord/>
				<pitch>
					<step>A</step>
					<octave>3</octave>
				</pitch>
				<duration>6720</duration>
				<voice>4</voice>
				<type>quarter</type>
				<stem default-y="-40.24">down</stem>
				<staff>2</staff>
				<lyric number="1" justify="left" default-y="-222.02">
					<syllabic>single</syllabic>
					<text font-family="Times New Roman" font-size="10" font-weight="bold" font-style="normal" xml:lang="en">
E7</text>
				</lyric>
			</note>
			<backup>
				<duration>26880</duration>
			</backup>
			<note>
				<pitch>
					<step>D</step>
					<octave>4</octave>
				</pitch>
				<duration>6720</duration>
				<voice>1</voice>
				<type>quarter</type>
				<stem default-y="15.00">up</stem>
				<staff>1</staff>
			</note>
			<note>
				<chord/>
				<pitch>
					<step>D</step>
					<octave>5</octave>
				</pitch>
				<duration>6720</duration>
				<voice>1</voice>
				<type>quarter</type>
				<stem default-y="24.86">up</stem>
				<staff>1</staff>
			</note>
			<note>
				<pitch>
					<step>D</step>
					<octave>4</octave>
				</pitch>
				<duration>6720</duration>
				<voice>1</voice>
				<type>quarter</type>
				<stem default-y="0.00">up</stem>
				<staff>1</staff>
			</note>
			<note>
				<chord/>
				<pitch>
					<step>F</step>
					<alter>1</alter>
					<octave>4</octave>
				</pitch>
				<duration>6720</duration>
				<voice>1</voice>
				<type>quarter</type>
				<stem default-y="0.00">up</stem>
				<staff>1</staff>
			</note>
			<note>
				<pitch>
					<step>C</step>
					<alter>1</alter>
					<octave>4</octave>
				</pitch>
				<duration>6720</duration>
				<voice>1</voice>
				<type>quarter</type>
				<stem default-y="5.00">up</stem>
				<staff>1</staff>
			</note>
			<note>
				<chord/>
				<pitch>
					<step>G</step>
					<octave>4</octave>
				</pitch>
				<duration>6720</duration>
				<voice>1</voice>
				<type>quarter</type>
				<stem default-y="5.00">up</stem>
				<staff>1</staff>
			</note>
			<note>
				<pitch>
					<step>B</step>
					<octave>4</octave>
				</pitch>
				<duration>6720</duration>
				<voice>1</voice>
				<type>quarter</type>
				<stem default-y="10.00">up</stem>
				<staff>1</staff>
			</note>
			<note>
				<chord/>
				<pitch>
					<step>C</step>
					<alter>1</alter>
					<octave>4</octave>
				</pitch>
				<duration>6720</duration>
				<voice>1</voice>
				<type>quarter</type>
				<stem default-y="10.00">up</stem>
				<staff>1</staff>
			</note>
		</measure>
		<!--==========================[1,6]=============================-->
		<measure number="6" width="306">
			<note>
				<pitch>
					<step>F</step>
					<alter>1</alter>
					<octave>3</octave>
				</pitch>
				<duration>10080</duration>
				<voice>4</voice>
				<type>quarter</type>
				<dot/>
				<stem default-y="-45.24">down</stem>
				<staff>2</staff>
			</note>
			<note>
				<chord/>
				<pitch>
					<step>A</step>
					<octave>3</octave>
				</pitch>
				<duration>10080</duration>
				<voice>4</voice>
				<type>quarter</type>
				<dot/>
				<stem default-y="-45.24">down</stem>
				<staff>2</staff>
			</note>
			<note>
				<pitch>
					<step>F</step>
					<alter>1</alter>
					<octave>3</octave>
				</pitch>
				<duration>3360</duration>
				<voice>4</voice>
				<type>eighth</type>
				<stem default-y="-48.81">down</stem>
				<staff>2</staff>
			</note>
			<note>
				<chord/>
				<pitch>
					<step>A</step>
					<octave>3</octave>
				</pitch>
				<duration>3360</duration>
				<voice>4</voice>
				<type>eighth</type>
				<stem default-y="-48.81">down</stem>
				<staff>2</staff>
				<lyric number="1" justify="right" default-y="-222.02">
					<syllabic>single</syllabic>
					<text font-family="Times New Roman" font-size="10" font-weight="bold" font-style="normal" xml:lang="en">A</text>
				</lyric>
			</note>
			<note>
				<pitch>
					<step>F</step>
					<alter>1</alter>
					<octave>3</octave>
				</pitch>
				<duration>6720</duration>
				<voice>4</voice>
				<type>quarter</type>
				<stem default-y="-55.24">down</stem>
				<staff>2</staff>
			</note>
			<note>
				<chord/>
				<pitch>
					<step>B</step>
					<octave>2</octave>
				</pitch>
				<duration>6720</duration>
				<voice>4</voice>
				<type>quarter</type>
				<stem default-y="-55.24">down</stem>
				<staff>2</staff>
			</note>
			<note>
				<pitch>
					<step>G</step>
					<octave>3</octave>
				</pitch>
				<duration>6720</duration>
				<voice>4</voice>
				<type>quarter</type>
				<stem default-y="-50.24">down</stem>
				<staff>2</staff>
				<lyric number="1" justify="left" default-y="-222.02">
					<syllabic>single</syllabic>
					<text font-family="Times New Roman" font-size="10" font-weight="bold" font-style="normal" xml:lang="en">D</text>
				</lyric>
			</note>
			<note>
				<chord/>
				<pitch>
					<step>E</step>
					<octave>3</octave>
				</pitch>
				<duration>6720</duration>
				<voice>4</voice>
				<type>quarter</type>
				<stem default-y="-50.24">down</stem>
				<staff>2</staff>
			</note>
			<backup>
				<duration>26880</duration>
			</backup>
			<note>
				<pitch>
					<step>D</step>
					<octave>4</octave>
				</pitch>
				<duration>10080</duration>
				<voice>1</voice>
				<type>quarter</type>
				<dot/>
				<stem default-y="10.00">up</stem>
				<staff>1</staff>
			</note>
			<note>
				<chord/>
				<pitch>
					<step>A</step>
					<octave>4</octave>
				</pitch>
				<duration>10080</duration>
				<voice>1</voice>
				<type>quarter</type>
				<dot/>
				<stem default-y="10.00">up</stem>
				<staff>1</staff>
			</note>
			<note>
				<pitch>
					<step>C</step>
					<alter>1</alter>
					<octave>4</octave>
				</pitch>
				<duration>3360</duration>
				<voice>1</voice>
				<type>eighth</type>
				<stem default-y="3.57">up</stem>
				<staff>1</staff>
			</note>
			<note>
				<chord/>
				<pitch>
					<step>F</step>
					<alter>1</alter>
					<octave>4</octave>
				</pitch>
				<duration>3360</duration>
				<voice>1</voice>
				<type>eighth</type>
				<stem default-y="3.57">up</stem>
				<staff>1</staff>
			</note>
			<note>
				<pitch>
					<step>D</step>
					<octave>4</octave>
				</pitch>
				<duration>6720</duration>
				<voice>1</voice>
				<type>quarter</type>
				<stem default-y="-10.00">up</stem>
				<staff>1</staff>
			</note>
			<note>
				<pitch>
					<step>D</step>
					<octave>4</octave>
				</pitch>
				<duration>3360</duration>
				<voice>2</voice>
				<type>eighth</type>
				<stem default-y="-80.24">down</stem>
				<staff>1</staff>
				<beam number="1">begin</beam>
			</note>
			<note>
				<pitch>
					<step>C</step>
					<alter>1</alter>
					<octave>4</octave>
				</pitch>
				<duration>3360</duration>
				<voice>2</voice>
				<type>eighth</type>
				<stem default-y="-85.24">down</stem>
				<staff>1</staff>
				<beam number="1">end</beam>
			</note>
			<backup>
				<duration>6720</duration>
			</backup>
			<note>
				<pitch>
					<step>B</step>
					<octave>4</octave>
				</pitch>
				<duration>6720</duration>
				<voice>1</voice>
				<type>quarter</type>
				<stem default-y="10.00">up</stem>
				<staff>1</staff>
			</note>
		</measure>
		<!--==========================[1,7]=============================-->
		<measure number="7" width="267">
			<note>
				<pitch>
					<step>A</step>
					<octave>3</octave>
				</pitch>
				<duration>6720</duration>
				<voice>5</voice>
				<type>quarter</type>
				<stem default-y="-45.24">down</stem>
				<staff>2</staff>
				<lyric number="1" justify="right" default-y="-222.02">
					<syllabic>single</syllabic>
					<text font-family="Times New Roman" font-size="10" font-weight="bold" font-style="normal" xml:lang="en">A F#min</text>
				</lyric>
			</note>
			<note>
				<chord/>
				<pitch>
					<step>F</step>
					<alter>1</alter>
					<octave>3</octave>
				</pitch>
				<duration>6720</duration>
				<voice>5</voice>
				<type>quarter</type>
				<stem default-y="-45.24">down</stem>
				<staff>2</staff>
			</note>
			<note>
				<pitch>
					<step>B</step>
					<octave>2</octave>
				</pitch>
				<duration>6720</duration>
				<voice>5</voice>
				<type>quarter</type>
				<stem default-y="-55.24">down</stem>
				<staff>2</staff>
			</note>
			<backup>
				<duration>6720</duration>
			</backup>
			<note>
				<pitch>
					<step>F</step>
					<alter>1</alter>
					<octave>3</octave>
				</pitch>
				<duration>3360</duration>
				<voice>4</voice>
				<type>eighth</type>
				<stem default-y="29.88">up</stem>
				<staff>2</staff>
				<beam number="1">begin</beam>
			</note>
			<note>
				<pitch>
					<step>G</step>
					<octave>3</octave>
				</pitch>
				<duration>3360</duration>
				<voice>4</voice>
				<type>eighth</type>
				<stem default-y="30.00">up</stem>
				<staff>2</staff>
				<beam number="1">end</beam>
			</note>
			<note>
				<pitch>
					<step>A</step>
					<octave>2</octave>
				</pitch>
				<duration>6720</duration>
				<voice>5</voice>
				<type>quarter</type>
				<stem default-y="-60.24">down</stem>
				<staff>2</staff>
				<lyric number="1" justify="center" default-y="-222.02">
					<syllabic>single</syllabic>
					<text font-family="Times New Roman" font-size="10" font-weight="bold" font-style="normal" xml:lang="en">A</text>
				</lyric>
			</note>
			<backup>
				<duration>6720</duration>
			</backup>
			<note>
				<pitch>
					<step>A</step>
					<octave>3</octave>
				</pitch>
				<duration>6720</duration>
				<tie type="start"/>
				<voice>4</voice>
				<type>quarter</type>
				<stem default-y="25.00">up</stem>
				<staff>2</staff>
				<notations>
					<tied type="start" number="1" placement="above" orientation="over"/>
				</notations>
			</note>
			<note>
				<pitch>
					<step>A</step>
					<octave>2</octave>
				</pitch>
				<duration>3360</duration>
				<voice>5</voice>
				<type>eighth</type>
				<stem default-y="-73.81">down</stem>
				<staff>2</staff>
				<lyric number="1" justify="center" default-y="-222.02">
					<syllabic>single</syllabic>
					<text font-family="Times New Roman" font-size="10" font-weight="bold" font-style="normal" xml:lang="en">E7</text>
				</lyric>
			</note>
			<backup>
				<duration>3360</duration>
			</backup>
			<note>
				<pitch>
					<step>A</step>
					<octave>3</octave>
				</pitch>
				<duration>3360</duration>
				<tie type="stop"/>
				<voice>4</voice>
				<type>eighth</type>
				<stem default-y="35.00">up</stem>
				<staff>2</staff>
				<beam number="1">begin</beam>
				<notations>
					<tied type="stop" number="1"/>
				</notations>
			</note>
			<note>
				<pitch>
					<step>G</step>
					<octave>3</octave>
				</pitch>
				<duration>3360</duration>
				<voice>4</voice>
				<type>eighth</type>
				<stem default-y="34.88">up</stem>
				<staff>2</staff>
				<beam number="1">end</beam>
			</note>
			<backup>
				<duration>3360</duration>
			</backup>
			<note>
				<rest>
					<display-step>F</display-step>
					<display-octave>2</display-octave>
				</rest>
				<duration>3360</duration>
				<voice>5</voice>
				<type>eighth</type>
				<staff>2</staff>
			</note>
			<forward>
				<duration>5880</duration>
			</forward>
			<direction placement="above">
				<direction-type>
					<words font-family="Arial" font-size="10" font-weight="bold" font-style="normal" relative-x="0.00" default-y="27.74">Fine</words>
				</direction-type>
				<staff>2</staff>
				<sound fine="yes"/>
			</direction>
			<backup>
				<duration>32760</duration>
			</backup>
			<note>
				<pitch>
					<step>A</step>
					<octave>4</octave>
				</pitch>
				<duration>6720</duration>
				<voice>1</voice>
				<type>quarter</type>
				<stem default-y="10.00">up</stem>
				<staff>1</staff>
			</note>
			<note>
				<chord/>
				<pitch>
					<step>D</step>
					<octave>4</octave>
				</pitch>
				<duration>6720</duration>
				<voice>1</voice>
				<type>quarter</type>
				<stem default-y="10.00">up</stem>
				<staff>1</staff>
			</note>
			<note>
				<pitch>
					<step>D</step>
					<octave>4</octave>
				</pitch>
				<duration>3360</duration>
				<voice>2</voice>
				<type>eighth</type>
				<stem default-y="-80.24">down</stem>
				<staff>1</staff>
				<beam number="1">begin</beam>
			</note>
			<note>
				<pitch>
					<step>E</step>
					<octave>4</octave>
				</pitch>
				<duration>3360</duration>
				<voice>2</voice>
				<type>eighth</type>
				<stem default-y="-75.24">down</stem>
				<staff>1</staff>
				<beam number="1">end</beam>
			</note>
			<backup>
				<duration>6720</duration>
			</backup>
			<note>
				<pitch>
					<step>D</step>
					<octave>5</octave>
				</pitch>
				<duration>6720</duration>
				<voice>1</voice>
				<type>quarter</type>
				<stem default-y="15.00">up</stem>
				<staff>1</staff>
			</note>
			<note>
				<pitch>
					<step>F</step>
					<alter>1</alter>
					<octave>4</octave>
				</pitch>
				<duration>5040</duration>
				<voice>2</voice>
				<type>eighth</type>
				<dot/>
				<stem default-y="-75.95">down</stem>
				<staff>1</staff>
				<beam number="1">begin</beam>
			</note>
			<note>
				<pitch>
					<step>D</step>
					<octave>4</octave>
				</pitch>
				<duration>3360</duration>
				<voice>2</voice>
				<type>eighth</type>
				<stem default-y="-80.24">down</stem>
				<staff>1</staff>
				<beam number="1">end</beam>
			</note>
			<backup>
				<duration>8400</duration>
			</backup>
			<note>
				<pitch>
					<step>F</step>
					<alter>1</alter>
					<octave>4</octave>
				</pitch>
				<duration>10080</duration>
				<voice>1</voice>
				<type>quarter</type>
				<dot/>
				<stem default-y="0.00">up</stem>
				<staff>1</staff>
			</note>
			<backup>
				<duration>1680</duration>
			</backup>
			<note>
				<pitch>
					<step>C</step>
					<alter>1</alter>
					<octave>4</octave>
				</pitch>
				<duration>3360</duration>
				<voice>2</voice>
				<type>eighth</type>
				<stem default-y="-88.81">down</stem>
				<staff>1</staff>
			</note>
			<backup>
				<duration>1680</duration>
			</backup>
			<note>
				<pitch>
					<step>E</step>
					<octave>4</octave>
				</pitch>
				<duration>3360</duration>
				<voice>1</voice>
				<type>eighth</type>
				<stem default-y="-1.43">up</stem>
				<staff>1</staff>
			</note>
		</measure>
		<!--==========================[1,8]=============================-->
		<measure number="8" width="223">
			<note>
				<pitch>
					<step>D</step>
					<octave>3</octave>
				</pitch>
				<duration>20160</duration>
				<voice>4</voice>
				<type>half</type>
				<dot/>
				<stem default-y="-50.24">down</stem>
				<staff>2</staff>
			</note>
			<note>
				<chord/>
				<pitch>
					<step>F</step>
					<alter>1</alter>
					<octave>3</octave>
				</pitch>
				<duration>20160</duration>
				<voice>4</voice>
				<type>half</type>
				<dot/>
				<stem default-y="-50.24">down</stem>
				<staff>2</staff>
				<lyric number="1" justify="right" default-y="-222.02">
					<syllabic>single</syllabic>
					<text font-family="Times New Roman" font-size="10" font-weight="bold" font-style="normal" xml:lang="en">A</text>
				</lyric>
			</note>
			<note>
				<pitch>
					<step>A</step>
					<octave>3</octave>
				</pitch>
				<duration>6720</duration>
				<voice>4</voice>
				<type>quarter</type>
				<stem default-y="-50.24">down</stem>
				<staff>2</staff>
				<lyric number="1" justify="right" default-y="-222.02">
					<syllabic>single</syllabic>
					<text font-family="Times New Roman" font-size="10" font-weight="bold" font-style="normal" xml:lang="en">F#7</text>
				</lyric>
			</note>
			<note>
				<chord/>
				<pitch>
					<step>D</step>
					<octave>3</octave>
				</pitch>
				<duration>6720</duration>
				<voice>4</voice>
				<type>quarter</type>
				<stem default-y="-50.24">down</stem>
				<staff>2</staff>
			</note>
			<backup>
				<duration>26880</duration>
			</backup>
			<note>
				<pitch>
					<step>D</step>
					<octave>4</octave>
				</pitch>
				<duration>20160</duration>
				<voice>1</voice>
				<type>half</type>
				<dot/>
				<stem default-y="-10.00">up</stem>
				<staff>1</staff>
			</note>
			<note>
				<pitch>
					<step>D</step>
					<octave>4</octave>
				</pitch>
				<duration>6720</duration>
				<voice>1</voice>
				<type>quarter</type>
				<stem default-y="0.00">up</stem>
				<staff>1</staff>
			</note>
			<note>
				<chord/>
				<pitch>
					<step>F</step>
					<alter>1</alter>
					<octave>4</octave>
				</pitch>
				<duration>6720</duration>
				<voice>1</voice>
				<type>quarter</type>
				<stem default-y="0.00">up</stem>
				<staff>1</staff>
			</note>
		</measure>
		<!--==========================[1,9]=============================-->
		<measure number="9" width="288">
			<print new-system="yes">
				<system-layout>
					<system-margins>
						<left-margin>28.399</left-margin>
						<right-margin>14.881</right-margin>
					</system-margins>
					<system-distance>96.905</system-distance>
				</system-layout>
				<staff-layout number="2">
					<staff-distance>87.143</staff-distance>
				</staff-layout>
			</print>
			<attributes>
				<staff-details number="1" print-object="yes">
				</staff-details>
				<staff-details number="2" print-object="yes">
				</staff-details>
			</attributes>
			<note>
				<pitch>
					<step>C</step>
					<alter>1</alter>
					<octave>3</octave>
				</pitch>
				<duration>6720</duration>
				<voice>4</voice>
				<type>quarter</type>
				<stem default-y="-55.24">down</stem>
				<staff>2</staff>
			</note>
			<note>
				<chord/>
				<pitch>
					<step>A</step>
					<octave>3</octave>
				</pitch>
				<duration>6720</duration>
				<voice>4</voice>
				<type>quarter</type>
				<stem default-y="-55.24">down</stem>
				<staff>2</staff>
				<lyric number="1" justify="left" default-y="-228.21">
					<syllabic>single</syllabic>
					<text font-family="Times New Roman" font-size="10" font-weight="bold" font-style="normal" xml:lang="en">
Bmin</text>
				</lyric>
			</note>
			<note>
				<pitch>
					<step>A</step>
					<octave>3</octave>
				</pitch>
				<duration>6720</duration>
				<voice>4</voice>
				<type>quarter</type>
				<stem default-y="-60.24">down</stem>
				<staff>2</staff>
				<lyric number="1" justify="left" default-y="-228.21">
					<syllabic>single</syllabic>
					<text font-family="Times New Roman" font-size="10" font-weight="bold" font-style="normal" xml:lang="en">F#7</text>
				</lyric>
			</note>
			<note>
				<chord/>
				<pitch>
					<step>A</step>
					<octave>2</octave>
				</pitch>
				<duration>6720</duration>
				<voice>4</voice>
				<type>quarter</type>
				<stem default-y="-67.52">down</stem>
				<staff>2</staff>
			</note>
			<note>
				<pitch>
					<step>B</step>
					<octave>2</octave>
				</pitch>
				<duration>10080</duration>
				<voice>4</voice>
				<type>quarter</type>
				<dot/>
				<stem default-y="-55.24">down</stem>
				<staff>2</staff>
			</note>
			<note>
				<chord/>
				<pitch>
					<step>F</step>
					<alter>1</alter>
					<octave>3</octave>
				</pitch>
				<duration>10080</duration>
				<voice>4</voice>
				<type>quarter</type>
				<dot/>
				<stem default-y="-55.24">down</stem>
				<staff>2</staff>
				<lyric number="1" justify="left" default-y="-228.21">
					<syllabic>single</syllabic>
					<text font-family="Times New Roman" font-size="10" font-weight="bold" font-style="normal" xml:lang="en">Bmin</text>
				</lyric>
			</note>
			<note>
				<pitch>
					<step>E</step>
					<octave>3</octave>
				</pitch>
				<duration>3360</duration>
				<voice>4</voice>
				<type>eighth</type>
				<stem default-y="-53.81">down</stem>
				<staff>2</staff>
			</note>
			<backup>
				<duration>26880</duration>
			</backup>
			<note>
				<pitch>
					<step>E</step>
					<octave>4</octave>
				</pitch>
				<duration>6720</duration>
				<voice>1</voice>
				<type>quarter</type>
				<stem default-y="-5.00">up</stem>
				<staff>1</staff>
			</note>
			<note>
				<pitch>
					<step>A</step>
					<octave>4</octave>
				</pitch>
				<duration>6720</duration>
				<voice>1</voice>
				<type>quarter</type>
				<stem default-y="10.00">up</stem>
				<staff>1</staff>
			</note>
			<note>
				<chord/>
				<pitch>
					<step>C</step>
					<alter>1</alter>
					<octave>4</octave>
				</pitch>
				<duration>6720</duration>
				<voice>1</voice>
				<type>quarter</type>
				<stem default-y="10.00">up</stem>
				<staff>1</staff>
			</note>
			<note>
				<pitch>
					<step>A</step>
					<octave>4</octave>
				</pitch>
				<duration>10080</duration>
				<voice>1</voice>
				<type>quarter</type>
				<dot/>
				<stem default-y="10.00">up</stem>
				<staff>1</staff>
			</note>
			<note>
				<chord/>
				<pitch>
					<step>D</step>
					<octave>4</octave>
				</pitch>
				<duration>10080</duration>
				<voice>1</voice>
				<type>quarter</type>
				<dot/>
				<stem default-y="10.00">up</stem>
				<staff>1</staff>
			</note>
			<note>
				<pitch>
					<step>G</step>
					<alter>1</alter>
					<octave>4</octave>
				</pitch>
				<duration>3360</duration>
				<voice>1</voice>
				<type>eighth</type>
				<accidental>sharp</accidental>
				<stem default-y="8.57">up</stem>
				<staff>1</staff>
			</note>
			<note>
				<chord/>
				<pitch>
					<step>D</step>
					<octave>4</octave>
				</pitch>
				<duration>3360</duration>
				<voice>1</voice>
				<type>eighth</type>
				<stem default-y="8.57">up</stem>
				<staff>1</staff>
				<notations>
					<technical>
						<fingering placement="above" relative-x="28.56" relative-y="-2.51">1</fingering>
					</technical>
				</notations>
			</note>
		</measure>
		<!--==========================[1,10]=============================-->
		<measure number="10" width="262">
			<note>
				<pitch>
					<step>A</step>
					<octave>2</octave>
				</pitch>
				<duration>13440</duration>
				<voice>5</voice>
				<type>half</type>
				<stem default-y="-60.24">down</stem>
				<staff>2</staff>
			</note>
			<backup>
				<duration>13440</duration>
			</backup>
			<note>
				<pitch>
					<step>A</step>
					<octave>3</octave>
				</pitch>
				<duration>6720</duration>
				<voice>4</voice>
				<type>quarter</type>
				<stem default-y="25.00">up</stem>
				<staff>2</staff>
				<lyric number="1" justify="left" default-y="-228.21">
					<syllabic>single</syllabic>
					<text font-family="Times New Roman" font-size="10" font-weight="bold" font-style="normal" xml:lang="en">E79</text>
				</lyric>
			</note>
			<note>
				<pitch>
					<step>C</step>
					<alter>1</alter>
					<octave>4</octave>
				</pitch>
				<duration>3360</duration>
				<voice>4</voice>
				<type>eighth</type>
				<stem default-y="45.00">up</stem>
				<staff>2</staff>
				<beam number="1">begin</beam>
				<lyric number="1" justify="left" default-y="-228.21">
					<syllabic>single</syllabic>
					<text font-family="Times New Roman" font-size="10" font-weight="bold" font-style="normal" xml:lang="en">C#min</text>
				</lyric>
			</note>
			<note>
				<pitch>
					<step>B</step>
					<octave>3</octave>
				</pitch>
				<duration>3360</duration>
				<voice>4</voice>
				<type>eighth</type>
				<stem default-y="44.88">up</stem>
				<staff>2</staff>
				<beam number="1">end</beam>
			</note>
			<note>
				<pitch>
					<step>A</step>
					<octave>3</octave>
				</pitch>
				<duration>6720</duration>
				<voice>5</voice>
				<type>quarter</type>
				<stem default-y="-60.24">down</stem>
				<staff>2</staff>
				<lyric number="1" justify="left" default-y="-228.21">
					<syllabic>single</syllabic>
					<text font-family="Times New Roman" font-size="10" font-weight="bold" font-style="normal" xml:lang="en">F#min</text>
				</lyric>
			</note>
			<note>
				<chord/>
				<pitch>
					<step>A</step>
					<octave>2</octave>
				</pitch>
				<duration>6720</duration>
				<voice>5</voice>
				<type>quarter</type>
				<stem default-y="-67.52">down</stem>
				<staff>2</staff>
			</note>
			<note>
				<pitch>
					<step>A</step>
					<octave>3</octave>
				</pitch>
				<duration>6720</duration>
				<voice>5</voice>
				<type>quarter</type>
				<stem default-y="-50.24">down</stem>
				<staff>2</staff>
				<lyric number="1" justify="left" default-y="-228.21">
					<syllabic>single</syllabic>
					<text font-family="Times New Roman" font-size="10" font-weight="bold" font-style="normal" xml:lang="en">
D</text>
				</lyric>
			</note>
			<note>
				<chord/>
				<pitch>
					<step>D</step>
					<octave>3</octave>
				</pitch>
				<duration>6720</duration>
				<voice>5</voice>
				<type>quarter</type>
				<stem default-y="-50.24">down</stem>
				<staff>2</staff>
			</note>
			<backup>
				<duration>26880</duration>
			</backup>
			<note>
				<pitch>
					<step>C</step>
					<alter>1</alter>
					<octave>4</octave>
				</pitch>
				<duration>6720</duration>
				<voice>2</voice>
				<type>quarter</type>
				<stem default-y="-75.24">down</stem>
				<staff>1</staff>
			</note>
			<backup>
				<duration>6720</duration>
			</backup>
			<note>
				<pitch>
					<step>A</step>
					<octave>4</octave>
				</pitch>
				<duration>13440</duration>
				<voice>1</voice>
				<type>half</type>
				<stem default-y="10.00">up</stem>
				<staff>1</staff>
			</note>
			<backup>
				<duration>6720</duration>
			</backup>
			<note>
				<pitch>
					<step>E</step>
					<octave>4</octave>
				</pitch>
				<duration>3360</duration>
				<voice>2</voice>
				<type>eighth</type>
				<stem default-y="-75.24">down</stem>
				<staff>1</staff>
				<beam number="1">begin</beam>
			</note>
			<note>
				<pitch>
					<step>D</step>
					<octave>4</octave>
				</pitch>
				<duration>1680</duration>
				<voice>2</voice>
				<type>16th</type>
				<stem default-y="-82.26">down</stem>
				<staff>1</staff>
				<beam number="1">continue</beam>
			</note>
			<forward>
				<duration>1680</duration>
			</forward>
			<note>
				<pitch>
					<step>C</step>
					<alter>1</alter>
					<octave>4</octave>
				</pitch>
				<duration>6720</duration>
				<voice>1</voice>
				<type>quarter</type>
				<stem default-y="10.00">up</stem>
				<staff>1</staff>
			</note>
			<note>
				<chord/>
				<pitch>
					<step>A</step>
					<octave>4</octave>
				</pitch>
				<duration>6720</duration>
				<voice>1</voice>
				<type>quarter</type>
				<stem default-y="10.00">up</stem>
				<staff>1</staff>
			</note>
			<note>
				<pitch>
					<step>F</step>
					<alter>1</alter>
					<octave>4</octave>
				</pitch>
				<duration>6720</duration>
				<voice>1</voice>
				<type>quarter</type>
				<stem default-y="0.00">up</stem>
				<staff>1</staff>
			</note>
			<note>
				<chord/>
				<pitch>
					<step>D</step>
					<octave>4</octave>
				</pitch>
				<duration>6720</duration>
				<voice>1</voice>
				<type>quarter</type>
				<stem default-y="0.00">up</stem>
				<staff>1</staff>
			</note>
		</measure>
		<!--==========================[1,11]=============================-->
		<measure number="11" width="252">
			<note>
				<pitch>
					<step>C</step>
					<alter>1</alter>
					<octave>3</octave>
				</pitch>
				<duration>6720</duration>
				<voice>5</voice>
				<type>quarter</type>
				<stem default-y="-55.24">down</stem>
				<staff>2</staff>
			</note>
			<note>
				<chord/>
				<pitch>
					<step>A</step>
					<octave>3</octave>
				</pitch>
				<duration>6720</duration>
				<voice>5</voice>
				<type>quarter</type>
				<stem default-y="-55.24">down</stem>
				<staff>2</staff>
			</note>
			<note>
				<pitch>
					<step>F</step>
					<alter>1</alter>
					<octave>3</octave>
				</pitch>
				<duration>6720</duration>
				<voice>5</voice>
				<type>quarter</type>
				<stem default-y="-45.24">down</stem>
				<staff>2</staff>
				<lyric number="1" justify="right" default-y="-228.21">
					<syllabic>single</syllabic>
					<text font-family="Times New Roman" font-size="10" font-weight="bold" font-style="normal" xml:lang="en">A</text>
				</lyric>
			</note>
			<backup>
				<duration>6720</duration>
			</backup>
			<note>
				<pitch>
					<step>A</step>
					<octave>3</octave>
				</pitch>
				<duration>3360</duration>
				<voice>4</voice>
				<type>eighth</type>
				<stem default-y="39.88">up</stem>
				<staff>2</staff>
				<beam number="1">begin</beam>
				<lyric number="1" justify="left" default-y="-228.21">
					<syllabic>single</syllabic>
					<text font-family="Times New Roman" font-size="10" font-weight="bold" font-style="normal" xml:lang="en">F#min7</text>
				</lyric>
			</note>
			<note>
				<pitch>
					<step>B</step>
					<octave>3</octave>
				</pitch>
				<duration>3360</duration>
				<voice>4</voice>
				<type>eighth</type>
				<stem default-y="40.00">up</stem>
				<staff>2</staff>
				<beam number="1">end</beam>
			</note>
			<note>
				<pitch>
					<step>C</step>
					<alter>1</alter>
					<octave>4</octave>
				</pitch>
				<duration>10080</duration>
				<voice>5</voice>
				<type>quarter</type>
				<dot/>
				<stem default-y="-50.24">down</stem>
				<staff>2</staff>
			</note>
			<note>
				<chord/>
				<pitch>
					<step>E</step>
					<octave>3</octave>
				</pitch>
				<duration>10080</duration>
				<voice>5</voice>
				<type>quarter</type>
				<dot/>
				<stem default-y="-50.24">down</stem>
				<staff>2</staff>
			</note>
			<note>
				<pitch>
					<step>E</step>
					<octave>3</octave>
				</pitch>
				<duration>3360</duration>
				<voice>5</voice>
				<type>eighth</type>
				<stem default-y="-53.81">down</stem>
				<staff>2</staff>
			</note>
			<note>
				<chord/>
				<pitch>
					<step>B</step>
					<octave>3</octave>
				</pitch>
				<duration>3360</duration>
				<voice>5</voice>
				<type>eighth</type>
				<stem default-y="-53.81">down</stem>
				<staff>2</staff>
				<lyric number="1" justify="right" default-y="-228.21">
					<syllabic>single</syllabic>
					<text font-family="Times New Roman" font-size="10" font-weight="bold" font-style="normal" xml:lang="en">E7</text>
				</lyric>
			</note>
			<backup>
				<duration>26880</duration>
			</backup>
			<note>
				<pitch>
					<step>E</step>
					<octave>4</octave>
				</pitch>
				<duration>6720</duration>
				<voice>1</voice>
				<type>quarter</type>
				<stem default-y="-5.00">up</stem>
				<staff>1</staff>
			</note>
			<note>
				<pitch>
					<step>C</step>
					<alter>1</alter>
					<octave>4</octave>
				</pitch>
				<duration>3360</duration>
				<voice>2</voice>
				<type>eighth</type>
				<stem default-y="-85.24">down</stem>
				<staff>1</staff>
				<beam number="1">begin</beam>
			</note>
			<note>
				<pitch>
					<step>D</step>
					<octave>4</octave>
				</pitch>
				<duration>3360</duration>
				<voice>2</voice>
				<type>eighth</type>
				<stem default-y="-80.24">down</stem>
				<staff>1</staff>
				<beam number="1">end</beam>
			</note>
			<backup>
				<duration>6720</duration>
			</backup>
			<note>
				<pitch>
					<step>A</step>
					<octave>4</octave>
				</pitch>
				<duration>6720</duration>
				<voice>1</voice>
				<type>quarter</type>
				<stem default-y="10.00">up</stem>
				<staff>1</staff>
			</note>
			<note>
				<pitch>
					<step>A</step>
					<octave>4</octave>
				</pitch>
				<duration>10080</duration>
				<voice>1</voice>
				<type>quarter</type>
				<dot/>
				<stem default-y="10.00">up</stem>
				<staff>1</staff>
			</note>
			<note>
				<chord/>
				<pitch>
					<step>E</step>
					<octave>4</octave>
				</pitch>
				<duration>10080</duration>
				<voice>1</voice>
				<type>quarter</type>
				<dot/>
				<stem default-y="10.00">up</stem>
				<staff>1</staff>
			</note>
			<note>
				<pitch>
					<step>D</step>
					<octave>4</octave>
				</pitch>
				<duration>3360</duration>
				<voice>1</voice>
				<type>eighth</type>
				<stem default-y="8.57">up</stem>
				<staff>1</staff>
			</note>
			<note>
				<chord/>
				<pitch>
					<step>G</step>
					<alter>1</alter>
					<octave>4</octave>
				</pitch>
				<duration>3360</duration>
				<voice>1</voice>
				<type>eighth</type>
				<accidental>sharp</accidental>
				<stem default-y="8.57">up</stem>
				<staff>1</staff>
			</note>
		</measure>
		<!--==========================[1,12]=============================-->
		<measure number="12" width="254">
			<note>
				<pitch>
					<step>A</step>
					<octave>2</octave>
				</pitch>
				<duration>20160</duration>
				<voice>5</voice>
				<type>half</type>
				<dot/>
				<stem default-y="-60.24">down</stem>
				<staff>2</staff>
			</note>
			<backup>
				<duration>20160</duration>
			</backup>
			<note>
				<pitch>
					<step>A</step>
					<octave>3</octave>
				</pitch>
				<duration>6720</duration>
				<voice>4</voice>
				<type>quarter</type>
				<stem default-y="25.00">up</stem>
				<staff>2</staff>
				<lyric number="1" justify="left" default-y="-228.21">
					<syllabic>single</syllabic>
					<text font-family="Times New Roman" font-size="10" font-weight="bold" font-style="normal" xml:lang="en">A7</text>
				</lyric>
			</note>
			<note>
				<pitch>
					<step>E</step>
					<octave>4</octave>
				</pitch>
				<duration>3360</duration>
				<voice>4</voice>
				<type>eighth</type>
				<stem default-y="-75.24">down</stem>
				<staff>1</staff>
				<beam number="1">begin</beam>
			</note>
			<backup>
				<duration>3360</duration>
			</backup>
			<note>
				<pitch>
					<step>C</step>
					<alter>1</alter>
					<octave>4</octave>
				</pitch>
				<duration>3360</duration>
				<voice>4</voice>
				<type>eighth</type>
				<stem default-y="45.00">up</stem>
				<staff>2</staff>
				<beam number="1">end</beam>
			</note>
			<note>
				<pitch>
					<step>D</step>
					<octave>4</octave>
				</pitch>
				<duration>1680</duration>
				<voice>4</voice>
				<type>16th</type>
				<stem default-y="-82.26">down</stem>
				<staff>1</staff>
				<beam number="1">begin</beam>
			</note>
			<backup>
				<duration>1680</duration>
			</backup>
			<note>
				<pitch>
					<step>B</step>
					<octave>3</octave>
				</pitch>
				<duration>3360</duration>
				<voice>4</voice>
				<type>eighth</type>
				<stem default-y="44.88">up</stem>
				<staff>2</staff>
				<beam number="1">end</beam>
				<lyric number="1" justify="left" default-y="-228.21">
					<syllabic>single</syllabic>
					<text font-family="Times New Roman" font-size="10" font-weight="bold" font-style="normal" xml:lang="en">F#min</text>
				</lyric>
			</note>
			<note>
				<pitch>
					<step>A</step>
					<octave>3</octave>
				</pitch>
				<duration>6720</duration>
				<voice>4</voice>
				<type>quarter</type>
				<stem default-y="25.00">up</stem>
				<staff>2</staff>
			</note>
			<note>
				<pitch>
					<step>F</step>
					<alter>1</alter>
					<octave>3</octave>
				</pitch>
				<duration>6720</duration>
				<voice>5</voice>
				<type>quarter</type>
				<stem default-y="-45.24">down</stem>
				<staff>2</staff>
			</note>
			<note>
				<chord/>
				<pitch>
					<step>C</step>
					<alter>1</alter>
					<octave>4</octave>
				</pitch>
				<duration>6720</duration>
				<voice>5</voice>
				<type>quarter</type>
				<stem default-y="-45.24">down</stem>
				<staff>2</staff>
				<lyric number="1" justify="center" default-y="-228.21">
					<syllabic>single</syllabic>
					<text font-family="Times New Roman" font-size="10" font-weight="bold" font-style="normal" xml:lang="en">
A</text>
				</lyric>
			</note>
			<backup>
				<duration>26880</duration>
			</backup>
			<note>
				<pitch>
					<step>C</step>
					<alter>1</alter>
					<octave>4</octave>
				</pitch>
				<duration>6720</duration>
				<voice>2</voice>
				<type>quarter</type>
				<stem default-y="-75.24">down</stem>
				<staff>1</staff>
			</note>
			<backup>
				<duration>6720</duration>
			</backup>
			<note>
				<pitch>
					<step>A</step>
					<octave>4</octave>
				</pitch>
				<duration>20160</duration>
				<voice>1</voice>
				<type>half</type>
				<dot/>
				<stem default-y="10.00">up</stem>
				<staff>1</staff>
			</note>
			<backup>
				<duration>8400</duration>
			</backup>
			<note>
				<pitch>
					<step>C</step>
					<alter>1</alter>
					<octave>4</octave>
				</pitch>
				<duration>6720</duration>
				<voice>2</voice>
				<type>quarter</type>
				<stem default-y="-75.24">down</stem>
				<staff>1</staff>
			</note>
			<forward>
				<duration>1680</duration>
			</forward>
			<note>
				<pitch>
					<step>A</step>
					<alter>1</alter>
					<octave>4</octave>
				</pitch>
				<duration>6720</duration>
				<voice>1</voice>
				<type>quarter</type>
				<accidental>sharp</accidental>
				<stem default-y="10.00">up</stem>
				<staff>1</staff>
			</note>
			<note>
				<chord/>
				<pitch>
					<step>E</step>
					<octave>4</octave>
				</pitch>
				<duration>6720</duration>
				<voice>1</voice>
				<type>quarter</type>
				<stem default-y="10.00">up</stem>
				<staff>1</staff>
			</note>
		</measure>
		<!--==========================[1,13]=============================-->
		<measure number="13" width="309">
			<print new-system="yes">
				<system-layout>
					<system-margins>
						<left-margin>28.399</left-margin>
						<right-margin>18.849</right-margin>
					</system-margins>
					<system-distance>89.762</system-distance>
				</system-layout>
				<staff-layout number="2">
					<staff-distance>87.143</staff-distance>
				</staff-layout>
			</print>
			<barline location="left">
				<repeat direction="forward"/>
			</barline>
			<attributes>
				<staff-details number="1" print-object="yes">
				</staff-details>
				<staff-details number="2" print-object="yes">
				</staff-details>
			</attributes>
			<note>
				<pitch>
					<step>F</step>
					<alter>1</alter>
					<octave>3</octave>
				</pitch>
				<duration>10080</duration>
				<voice>4</voice>
				<type>quarter</type>
				<dot/>
				<stem default-y="-45.24">down</stem>
				<staff>2</staff>
			</note>
			<note>
				<chord/>
				<pitch>
					<step>D</step>
					<octave>4</octave>
				</pitch>
				<duration>10080</duration>
				<voice>4</voice>
				<type>quarter</type>
				<dot/>
				<stem default-y="-45.24">down</stem>
				<staff>2</staff>
				<lyric number="1" justify="right" default-y="-230.36">
					<syllabic>single</syllabic>
					<text font-family="Times New Roman" font-size="11" font-weight="bold" font-style="italic" xml:lang="en">Refrain</text>
				</lyric>
				<lyric number="3" justify="right" default-y="-273.93">
					<syllabic>single</syllabic>
					<text font-family="Times New Roman" font-size="11" font-weight="bold" font-style="italic" xml:lang="en">All things bright</text>
				</lyric>
				<lyric number="4" justify="right" default-y="-296.07">
					<syllabic>single</syllabic>
					<text font-family="Times New Roman" font-size="11" font-weight="bold" font-style="italic" xml:lang="en">All creatures great</text>
				</lyric>
			</note>
			<note>
				<pitch>
					<step>F</step>
					<alter>1</alter>
					<octave>3</octave>
				</pitch>
				<duration>3360</duration>
				<voice>4</voice>
				<type>eighth</type>
				<stem default-y="-48.81">down</stem>
				<staff>2</staff>
			</note>
			<note>
				<chord/>
				<pitch>
					<step>A</step>
					<alter>1</alter>
					<octave>3</octave>
				</pitch>
				<duration>3360</duration>
				<voice>4</voice>
				<type>eighth</type>
				<accidental>sharp</accidental>
				<stem default-y="-48.81">down</stem>
				<staff>2</staff>
				<lyric number="1" justify="right" default-y="-273.93">
					<syllabic>single</syllabic>
					<text font-family="Times New Roman" font-size="11" font-weight="bold" font-style="italic" xml:lang="en">and beautiful,</text>
				</lyric>
				<lyric number="4" justify="left" default-y="-296.07">
					<syllabic>single</syllabic>
					<text font-family="Times New Roman" font-size="11" font-weight="bold" font-style="italic" xml:lang="en">and</text>
				</lyric>
			</note>
			<note>
				<pitch>
					<step>B</step>
					<octave>3</octave>
				</pitch>
				<duration>6720</duration>
				<voice>4</voice>
				<type>quarter</type>
				<stem default-y="-55.24">down</stem>
				<staff>2</staff>
				<lyric number="1" justify="center" default-y="-296.07">
					<syllabic>single</syllabic>
					<text font-family="Times New Roman" font-size="11" font-weight="bold" font-style="italic" xml:lang="en">small,</text>
				</lyric>
			</note>
			<note>
				<chord/>
				<pitch>
					<step>B</step>
					<octave>2</octave>
				</pitch>
				<duration>6720</duration>
				<voice>4</voice>
				<type>quarter</type>
				<stem default-y="-62.52">down</stem>
				<staff>2</staff>
			</note>
			<note>
				<pitch>
					<step>B</step>
					<octave>3</octave>
				</pitch>
				<duration>6720</duration>
				<voice>4</voice>
				<type>quarter</type>
				<stem default-y="-50.24">down</stem>
				<staff>2</staff>
			</note>
			<note>
				<chord/>
				<pitch>
					<step>D</step>
					<octave>3</octave>
				</pitch>
				<duration>6720</duration>
				<voice>4</voice>
				<type>quarter</type>
				<stem default-y="-50.24">down</stem>
				<staff>2</staff>
			</note>
			<backup>
				<duration>26880</duration>
			</backup>
			<note>
				<pitch>
					<step>F</step>
					<alter>1</alter>
					<octave>4</octave>
				</pitch>
				<duration>10080</duration>
				<voice>1</voice>
				<type>quarter</type>
				<dot/>
				<stem default-y="10.00">up</stem>
				<staff>1</staff>
			</note>
			<note>
				<chord/>
				<pitch>
					<step>B</step>
					<octave>4</octave>
				</pitch>
				<duration>10080</duration>
				<voice>1</voice>
				<type>quarter</type>
				<dot/>
				<stem default-y="10.00">up</stem>
				<staff>1</staff>
			</note>
			<note>
				<pitch>
					<step>E</step>
					<octave>4</octave>
				</pitch>
				<duration>3360</duration>
				<voice>1</voice>
				<type>eighth</type>
				<stem default-y="23.57">up</stem>
				<staff>1</staff>
			</note>
			<note>
				<chord/>
				<pitch>
					<step>C</step>
					<alter>1</alter>
					<octave>5</octave>
				</pitch>
				<duration>3360</duration>
				<voice>1</voice>
				<type>eighth</type>
				<stem default-y="23.57">up</stem>
				<staff>1</staff>
			</note>
			<note>
				<pitch>
					<step>D</step>
					<octave>4</octave>
				</pitch>
				<duration>6720</duration>
				<voice>1</voice>
				<type>quarter</type>
				<stem default-y="15.00">up</stem>
				<staff>1</staff>
			</note>
			<note>
				<chord/>
				<pitch>
					<step>D</step>
					<octave>5</octave>
				</pitch>
				<duration>6720</duration>
				<voice>1</voice>
				<type>quarter</type>
				<stem default-y="24.86">up</stem>
				<staff>1</staff>
			</note>
			<note>
				<pitch>
					<step>B</step>
					<octave>4</octave>
				</pitch>
				<duration>6720</duration>
				<voice>1</voice>
				<type>quarter</type>
				<stem default-y="10.00">up</stem>
				<staff>1</staff>
			</note>
			<note>
				<chord/>
				<pitch>
					<step>F</step>
					<alter>1</alter>
					<octave>4</octave>
				</pitch>
				<duration>6720</duration>
				<voice>1</voice>
				<type>quarter</type>
				<stem default-y="10.00">up</stem>
				<staff>1</staff>
			</note>
		</measure>
		<!--==========================[1,14]=============================-->
		<measure number="14" width="277">
			<note>
				<pitch>
					<step>E</step>
					<octave>3</octave>
				</pitch>
				<duration>13440</duration>
				<voice>5</voice>
				<type>half</type>
				<stem default-y="-50.24">down</stem>
				<staff>2</staff>
				<lyric number="1" justify="right" default-y="-229.17">
					<syllabic>single</syllabic>
					<text font-family="Times New Roman" font-size="11" font-weight="bold" font-style="normal" xml:lang="en">
Each</text>
				</lyric>
				<lyric number="2" justify="right" default-y="-251.31">
					<syllabic>single</syllabic>
					<text font-family="Times New Roman" font-size="11" font-weight="bold" font-style="normal" xml:lang="en">
Each</text>
				</lyric>
				<lyric number="3" justify="right" default-y="-273.21">
					<syllabic>single</syllabic>
					<text font-family="Times New Roman" font-size="11" font-weight="bold" font-style="normal" xml:lang="en">
He made</text>
				</lyric>
				<lyric number="4" justify="right" default-y="-295.36">
					<syllabic>single</syllabic>
					<text font-family="Times New Roman" font-size="11" font-weight="bold" font-style="normal" xml:lang="en">
He made</text>
				</lyric>
			</note>
			<backup>
				<duration>13440</duration>
			</backup>
			<note>
				<pitch>
					<step>B</step>
					<octave>3</octave>
				</pitch>
				<duration>3360</duration>
				<voice>4</voice>
				<type>eighth</type>
				<stem default-y="49.88">up</stem>
				<staff>2</staff>
				<beam number="1">begin</beam>
				<lyric number="1" justify="left" default-y="-229.17">
					<syllabic>single</syllabic>
					<text font-family="Times New Roman" font-size="11" font-weight="bold" font-style="normal" xml:lang="en">little</text>
				</lyric>
				<lyric number="2" justify="left" default-y="-251.31">
					<syllabic>single</syllabic>
					<text font-family="Times New Roman" font-size="11" font-weight="bold" font-style="normal" xml:lang="en">little</text>
				</lyric>
			</note>
			<note>
				<pitch>
					<step>D</step>
					<octave>4</octave>
				</pitch>
				<duration>3360</duration>
				<voice>4</voice>
				<type>eighth</type>
				<stem default-y="50.00">up</stem>
				<staff>2</staff>
				<beam number="1">end</beam>
			</note>
			<note>
				<pitch>
					<step>C</step>
					<alter>1</alter>
					<octave>4</octave>
				</pitch>
				<duration>3360</duration>
				<voice>4</voice>
				<type>eighth</type>
				<stem default-y="45.00">up</stem>
				<staff>2</staff>
				<beam number="1">begin</beam>
				<lyric number="1" justify="left" default-y="-229.17">
					<syllabic>single</syllabic>
					<text font-family="Times New Roman" font-size="11" font-weight="bold" font-style="normal" xml:lang="en">flower</text>
				</lyric>
				<lyric number="2" justify="center" default-y="-251.31">
					<syllabic>single</syllabic>
					<text font-family="Times New Roman" font-size="11" font-weight="bold" font-style="normal" xml:lang="en">bird</text>
				</lyric>
				<lyric number="3" justify="center" default-y="-273.21">
					<syllabic>single</syllabic>
					<text font-family="Times New Roman" font-size="11" font-weight="bold" font-style="normal" xml:lang="en">their</text>
				</lyric>
				<lyric number="4" justify="center" default-y="-295.36">
					<syllabic>single</syllabic>
					<text font-family="Times New Roman" font-size="11" font-weight="bold" font-style="normal" xml:lang="en">their</text>
				</lyric>
			</note>
			<note>
				<pitch>
					<step>B</step>
					<octave>3</octave>
				</pitch>
				<duration>3360</duration>
				<voice>4</voice>
				<type>eighth</type>
				<stem default-y="44.88">up</stem>
				<staff>2</staff>
				<beam number="1">end</beam>
				<lyric number="2" justify="left" default-y="-251.31">
					<syllabic>single</syllabic>
					<text font-family="Times New Roman" font-size="11" font-weight="bold" font-style="normal" xml:lang="en">that</text>
				</lyric>
				<lyric number="3" justify="left" default-y="-273.21">
					<syllabic>single</syllabic>
					<text font-family="Times New Roman" font-size="11" font-weight="bold" font-style="normal" xml:lang="en">glowing</text>
				</lyric>
				<lyric number="4" justify="left" default-y="-295.36">
					<syllabic>single</syllabic>
					<text font-family="Times New Roman" font-size="11" font-weight="bold" font-style="normal" xml:lang="en">tiny</text>
				</lyric>
			</note>
			<note>
				<pitch>
					<step>F</step>
					<alter>1</alter>
					<octave>3</octave>
				</pitch>
				<duration>6720</duration>
				<voice>5</voice>
				<type>quarter</type>
				<stem default-y="-45.24">down</stem>
				<staff>2</staff>
			</note>
			<note>
				<chord/>
				<pitch>
					<step>A</step>
					<octave>3</octave>
				</pitch>
				<duration>6720</duration>
				<voice>5</voice>
				<type>quarter</type>
				<stem default-y="-45.24">down</stem>
				<staff>2</staff>
				<lyric number="1" justify="center" default-y="-229.17">
					<syllabic>single</syllabic>
					<text font-family="Times New Roman" font-size="11" font-weight="bold" font-style="normal" xml:lang="en">that</text>
				</lyric>
				<lyric number="2" justify="left" default-y="-251.31">
					<syllabic>single</syllabic>
					<text font-family="Times New Roman" font-size="11" font-weight="bold" font-style="normal" xml:lang="en">sings,</text>
				</lyric>
				<lyric number="4" justify="left" default-y="-295.36">
					<syllabic>single</syllabic>
					<text font-family="Times New Roman" font-size="11" font-weight="bold" font-style="normal" xml:lang="en">wings.</text>
				</lyric>
			</note>
			<note>
				<pitch>
					<step>A</step>
					<octave>3</octave>
				</pitch>
				<duration>6720</duration>
				<voice>5</voice>
				<type>quarter</type>
				<stem default-y="-50.24">down</stem>
				<staff>2</staff>
				<lyric number="1" justify="center" default-y="-229.17">
					<syllabic>single</syllabic>
					<text font-family="Times New Roman" font-size="11" font-weight="bold" font-style="normal" xml:lang="en">opens,</text>
				</lyric>
				<lyric number="3" justify="center" default-y="-273.21">
					<syllabic>single</syllabic>
					<text font-family="Times New Roman" font-size="11" font-weight="bold" font-style="normal" xml:lang="en">colors,</text>
				</lyric>
			</note>
			<note>
				<chord/>
				<pitch>
					<step>D</step>
					<octave>3</octave>
				</pitch>
				<duration>6720</duration>
				<voice>5</voice>
				<type>quarter</type>
				<stem default-y="-50.24">down</stem>
				<staff>2</staff>
			</note>
			<backup>
				<duration>26880</duration>
			</backup>
			<note>
				<pitch>
					<step>G</step>
					<alter>1</alter>
					<octave>4</octave>
				</pitch>
				<duration>13440</duration>
				<voice>1</voice>
				<type>half</type>
				<accidental>sharp</accidental>
				<stem default-y="5.00">up</stem>
				<staff>1</staff>
			</note>
			<backup>
				<duration>13440</duration>
			</backup>
			<note>
				<pitch>
					<step>F</step>
					<alter>1</alter>
					<octave>4</octave>
				</pitch>
				<duration>6720</duration>
				<voice>2</voice>
				<type>quarter</type>
				<stem default-y="-60.24">down</stem>
				<staff>1</staff>
			</note>
			<note>
				<pitch>
					<step>E</step>
					<octave>4</octave>
				</pitch>
				<duration>3360</duration>
				<voice>2</voice>
				<type>eighth</type>
				<stem default-y="-75.24">down</stem>
				<staff>1</staff>
				<beam number="1">begin</beam>
			</note>
			<note>
				<pitch>
					<step>D</step>
					<octave>4</octave>
				</pitch>
				<duration>1680</duration>
				<voice>2</voice>
				<type>16th</type>
				<stem default-y="-82.26">down</stem>
				<staff>1</staff>
				<beam number="1">continue</beam>
			</note>
			<forward>
				<duration>1680</duration>
			</forward>
			<note>
				<pitch>
					<step>A</step>
					<octave>4</octave>
				</pitch>
				<duration>6720</duration>
				<voice>1</voice>
				<type>quarter</type>
				<stem default-y="10.00">up</stem>
				<staff>1</staff>
			</note>
			<note>
				<chord/>
				<pitch>
					<step>C</step>
					<alter>1</alter>
					<octave>4</octave>
				</pitch>
				<duration>6720</duration>
				<voice>1</voice>
				<type>quarter</type>
				<stem default-y="10.00">up</stem>
				<staff>1</staff>
			</note>
			<forward>
				<duration>5040</duration>
			</forward>
			<direction placement="above">
				<direction-type>
					<words font-family="Arial" font-size="7" font-weight="normal" font-style="normal" relative-x="0.00" default-y="4.64">1 5</words>
				</direction-type>
				<staff>1</staff>
			</direction>
			<backup>
				<duration>5040</duration>
			</backup>
			<note>
				<pitch>
					<step>D</step>
					<octave>4</octave>
				</pitch>
				<duration>6720</duration>
				<voice>1</voice>
				<type>quarter</type>
				<stem default-y="0.00">up</stem>
				<staff>1</staff>
			</note>
			<note>
				<chord/>
				<pitch>
					<step>F</step>
					<alter>1</alter>
					<octave>4</octave>
				</pitch>
				<duration>6720</duration>
				<voice>1</voice>
				<type>quarter</type>
				<stem default-y="0.00">up</stem>
				<staff>1</staff>
			</note>
		</measure>
		<!--==========================[1,15]=============================-->
		<measure number="15" width="242">
			<note>
				<pitch>
					<step>E</step>
					<octave>3</octave>
				</pitch>
				<duration>10080</duration>
				<voice>4</voice>
				<type>quarter</type>
				<dot/>
				<stem default-y="-50.24">down</stem>
				<staff>2</staff>
			</note>
			<note>
				<chord/>
				<pitch>
					<step>A</step>
					<octave>3</octave>
				</pitch>
				<duration>10080</duration>
				<voice>4</voice>
				<type>quarter</type>
				<dot/>
				<stem default-y="-50.24">down</stem>
				<staff>2</staff>
			</note>
			<note>
				<pitch>
					<step>E</step>
					<octave>3</octave>
				</pitch>
				<duration>3360</duration>
				<voice>4</voice>
				<type>eighth</type>
				<stem default-y="-53.81">down</stem>
				<staff>2</staff>
			</note>
			<note>
				<chord/>
				<pitch>
					<step>A</step>
					<octave>3</octave>
				</pitch>
				<duration>3360</duration>
				<voice>4</voice>
				<type>eighth</type>
				<stem default-y="-53.81">down</stem>
				<staff>2</staff>
				<lyric number="1" justify="right" default-y="-233.21">
					<syllabic>single</syllabic>
					<text font-family="Times New Roman" font-size="11" font-weight="bold" font-style="normal" xml:lang="en">
The cold</text>
				</lyric>
				<lyric number="2" justify="right" default-y="-255.36">
					<syllabic>single</syllabic>
					<text font-family="Times New Roman" font-size="11" font-weight="bold" font-style="normal" xml:lang="en">
The pleasant</text>
				</lyric>
				<lyric number="3" justify="right" default-y="-277.26">
					<syllabic>single</syllabic>
					<text font-family="Times New Roman" font-size="11" font-weight="bold" font-style="normal" xml:lang="en">
The ripe</text>
				</lyric>
				<lyric number="4" justify="right" default-y="-299.40">
					<syllabic>single</syllabic>
					<text font-family="Times New Roman" font-size="11" font-weight="bold" font-style="normal" xml:lang="en">
He made</text>
				</lyric>
			</note>
			<note>
				<pitch>
					<step>B</step>
					<octave>3</octave>
				</pitch>
				<duration>6720</duration>
				<voice>4</voice>
				<type>quarter</type>
				<stem default-y="-50.24">down</stem>
				<staff>2</staff>
				<lyric number="1" justify="left" default-y="-233.21">
					<syllabic>single</syllabic>
					<text font-family="Times New Roman" font-size="11" font-weight="bold" font-style="normal" xml:lang="en">wind</text>
				</lyric>
				<lyric number="3" justify="left" default-y="-277.26">
					<syllabic>single</syllabic>
					<text font-family="Times New Roman" font-size="11" font-weight="bold" font-style="normal" xml:lang="en">fruits</text>
				</lyric>
				<lyric number="4" justify="left" default-y="-299.40">
					<syllabic>single</syllabic>
					<text font-family="Times New Roman" font-size="11" font-weight="bold" font-style="normal" xml:lang="en">them</text>
				</lyric>
			</note>
			<note>
				<chord/>
				<pitch>
					<step>E</step>
					<octave>3</octave>
				</pitch>
				<duration>6720</duration>
				<voice>4</voice>
				<type>quarter</type>
				<stem default-y="-50.24">down</stem>
				<staff>2</staff>
			</note>
			<note>
				<pitch>
					<step>G</step>
					<alter>1</alter>
					<octave>3</octave>
				</pitch>
				<duration>6720</duration>
				<voice>4</voice>
				<type>quarter</type>
				<accidental>sharp</accidental>
				<stem default-y="-50.24">down</stem>
				<staff>2</staff>
				<lyric number="1" justify="left" default-y="-233.21">
					<syllabic>single</syllabic>
					<text font-family="Times New Roman" font-size="11" font-weight="bold" font-style="normal" xml:lang="en">in the</text>
				</lyric>
				<lyric number="2" justify="left" default-y="-255.36">
					<syllabic>single</syllabic>
					<text font-family="Times New Roman" font-size="11" font-weight="bold" font-style="normal" xml:lang="en">summer</text>
				</lyric>
				<lyric number="3" justify="left" default-y="-277.26">
					<syllabic>single</syllabic>
					<text font-family="Times New Roman" font-size="11" font-weight="bold" font-style="normal" xml:lang="en">in the</text>
				</lyric>
				<lyric number="4" justify="left" default-y="-299.40">
					<syllabic>single</syllabic>
					<text font-family="Times New Roman" font-size="11" font-weight="bold" font-style="normal" xml:lang="en">every</text>
				</lyric>
			</note>
			<note>
				<chord/>
				<pitch>
					<step>E</step>
					<octave>3</octave>
				</pitch>
				<duration>6720</duration>
				<voice>4</voice>
				<type>quarter</type>
				<stem default-y="-50.24">down</stem>
				<staff>2</staff>
			</note>
			<forward>
				<duration>8400</duration>
			</forward>
			<direction placement="above">
				<direction-type>
					<words font-family="Arial" font-size="10" font-weight="bold" font-style="normal" relative-x="0.00" default-y="51.55">D.C.</words>
				</direction-type>
				<staff>2</staff>
				<sound dacapo="yes"/>
			</direction>
			<backup>
				<duration>35280</duration>
			</backup>
			<note>
				<pitch>
					<step>C</step>
					<alter>1</alter>
					<octave>4</octave>
				</pitch>
				<duration>10080</duration>
				<voice>1</voice>
				<type>quarter</type>
				<dot/>
				<stem default-y="-5.00">up</stem>
				<staff>1</staff>
			</note>
			<note>
				<chord/>
				<pitch>
					<step>E</step>
					<octave>4</octave>
				</pitch>
				<duration>10080</duration>
				<voice>1</voice>
				<type>quarter</type>
				<dot/>
				<stem default-y="-5.00">up</stem>
				<staff>1</staff>
			</note>
			<note>
				<pitch>
					<step>C</step>
					<alter>1</alter>
					<octave>4</octave>
				</pitch>
				<duration>3360</duration>
				<voice>1</voice>
				<type>eighth</type>
				<stem default-y="3.57">up</stem>
				<staff>1</staff>
			</note>
			<note>
				<chord/>
				<pitch>
					<step>F</step>
					<alter>1</alter>
					<octave>4</octave>
				</pitch>
				<duration>3360</duration>
				<voice>1</voice>
				<type>eighth</type>
				<stem default-y="3.57">up</stem>
				<staff>1</staff>
			</note>
			<note>
				<pitch>
					<step>G</step>
					<alter>1</alter>
					<octave>4</octave>
				</pitch>
				<duration>6720</duration>
				<voice>1</voice>
				<type>quarter</type>
				<accidental>sharp</accidental>
				<stem default-y="5.00">up</stem>
				<staff>1</staff>
			</note>
			<note>
				<chord/>
				<pitch>
					<step>D</step>
					<octave>4</octave>
				</pitch>
				<duration>6720</duration>
				<voice>1</voice>
				<type>quarter</type>
				<stem default-y="5.00">up</stem>
				<staff>1</staff>
			</note>
			<note>
				<pitch>
					<step>B</step>
					<octave>4</octave>
				</pitch>
				<duration>6720</duration>
				<voice>1</voice>
				<type>quarter</type>
				<stem default-y="10.00">up</stem>
				<staff>1</staff>
			</note>
			<note>
				<chord/>
				<pitch>
					<step>D</step>
					<octave>4</octave>
				</pitch>
				<duration>6720</duration>
				<voice>1</voice>
				<type>quarter</type>
				<stem default-y="10.00">up</stem>
				<staff>1</staff>
			</note>
		</measure>
		<!--==========================[1,16]=============================-->
		<measure number="16" width="224">
			<note>
				<pitch>
					<step>A</step>
					<octave>3</octave>
				</pitch>
				<duration>6720</duration>
				<voice>4</voice>
				<type>quarter</type>
				<stem default-y="-35.24">down</stem>
				<staff>2</staff>
				<lyric number="1" justify="center" default-y="-233.21">
					<syllabic>single</syllabic>
					<text font-family="Times New Roman" font-size="11" font-weight="bold" font-style="normal" xml:lang="en">winter,</text>
				</lyric>
				<lyric number="2" justify="center" default-y="-255.36">
					<syllabic>single</syllabic>
					<text font-family="Times New Roman" font-size="11" font-weight="bold" font-style="normal" xml:lang="en">sun,</text>
				</lyric>
				<lyric number="3" justify="center" default-y="-277.26">
					<syllabic>single</syllabic>
					<text font-family="Times New Roman" font-size="11" font-weight="bold" font-style="normal" xml:lang="en">garden,</text>
				</lyric>
				<lyric number="4" justify="center" default-y="-299.40">
					<syllabic>single</syllabic>
					<text font-family="Times New Roman" font-size="11" font-weight="bold" font-style="normal" xml:lang="en">one.</text>
				</lyric>
			</note>
			<note>
				<pitch>
					<step>G</step>
					<octave>3</octave>
				</pitch>
				<duration>6720</duration>
				<voice>4</voice>
				<type>quarter</type>
				<stem default-y="-40.24">down</stem>
				<staff>2</staff>
			</note>
			<note>
				<pitch>
					<step>F</step>
					<alter>1</alter>
					<octave>3</octave>
				</pitch>
				<duration>6720</duration>
				<voice>4</voice>
				<type>quarter</type>
				<stem default-y="-45.24">down</stem>
				<staff>2</staff>
			</note>
			<note>
				<pitch>
					<step>E</step>
					<octave>3</octave>
				</pitch>
				<duration>6720</duration>
				<voice>4</voice>
				<type>quarter</type>
				<stem default-y="-50.24">down</stem>
				<staff>2</staff>
			</note>
			<backup>
				<duration>26880</duration>
			</backup>
			<note>
				<pitch>
					<step>C</step>
					<alter>1</alter>
					<octave>4</octave>
				</pitch>
				<duration>26880</duration>
				<voice>1</voice>
				<type>whole</type>
				<stem>none</stem>
				<staff>1</staff>
			</note>
			<note>
				<chord/>
				<pitch>
					<step>A</step>
					<octave>4</octave>
				</pitch>
				<duration>26880</duration>
				<voice>1</voice>
				<type>whole</type>
				<stem>none</stem>
				<staff>1</staff>
			</note>
			<barline location="right">
				<repeat direction="backward" times="4"/>
			</barline>
		</measure>
	</part>
</score-partwise>
